<?xml version="1.0" encoding="utf-8" ?>
<svg baseProfile="full" height="200mm" version="1.1" viewBox="0,0,200,200" width="200mm" xmlns="http://www.w3.org/2000/svg" xmlns:ev="http://www.w3.org/2001/xml-events" xmlns:xlink="http://www.w3.org/1999/xlink"><defs /><rect fill="#1a1a1a" height="200" width="200" x="0" y="0" /><text alignment-baseline="middle" fill="#e1ed5e" style="dominant-baseline: central; font-size:9.0px; font-family:Arial;" text-anchor="middle" x="100.0" y="100.0">2024</text><line stroke="#e1ed5e" stroke-width="0.3" x1="100.0" x2="100.0" y1="15.0" y2="10.0" /><path d="M 100.0 14.0 a86.0,86.0 0 0,1 42.35913384403234,11.155469271406648" fill="none" id="id301" stroke="none" /><text fill="#e1ed5e" style="font-size:6.75px; font-family:Arial;" text-anchor="middle"><textPath startOffset="22.145653131862478" xlink:href="#id301">January</textPath></text><path d="M 100.0 79.0 l 0.0 -27.549219719343625 a48.549219719343625,48.549219719343625 0 0,0 0.8334119150359943,0.007153838944798128 l -0.4729189901871395 27.54516027859326" fill="#cbff1d" stroke="none" /><path d="M 100.36049292484886 79.00309439819443 l 0.10256216800535743 -5.9737321081347545 a26.974612480995404,26.974612480995404 0 0,0 0.46291862839295006,0.011923141781980976 l -0.20509411046904882 5.971091249002728" fill="#ff0000" stroke="none" /><path d="M 100.72087961077811 79.0123766808444 l 1.5836379485800773 -46.105890972340546 a67.13308022997745,67.13308022997745 0 0,0 1.1514098147788174,0.04944649165811329 l -2.374873523959731 46.0719119122566" fill="#36ff71" stroke="none" /><path d="M 101.08105385017728 79.02784411241856 l 1.3650375888114772 -26.481364550219265 a47.51652307638537,47.51652307638537 0 0,0 0.8142423426697838,0.04898279739291128 l -1.8194242836137233 26.45402977500166" fill="#d8ff1c" stroke="none" /><path d="M 101.44090949804482 79.04949213459386 l 2.8356503652127945 -41.229733970484745 a62.32713244674345,62.32713244674345 0 0,0 1.0667763746719123,0.08257523816492611 l -3.54299573465994 41.174980965324764" fill="#30ff33" stroke="none" /><path d="M 101.80034050326958 79.07731436759882 l 5.084452540270298 -59.08904561095117 a80.30739388008318,80.30739388008318 0 0,0 1.3724932727130283,0.1299765399017991 l -6.098045376368338 58.993057315544185" fill="#48f7ff" stroke="none" /><path d="M 102.51750503828377 79.15144685158666 l 3.536409802284132 -29.28654624173187 a50.49928787375706,50.49928787375706 0 0,0 0.8597435901709312,0.11131102041394575 l -4.038631214345855 29.221523625117527" fill="#b3ff20" stroke="none" /><path d="M 102.87502721639298 79.19773525538626 l 8.62508164917894 -62.40679423384121 a84.0,84.0 0 0,0 1.4266995775692721,0.20967570680447034 l -9.695106332355895 62.24953745373786" fill="#4dd2ff" stroke="none" /><path d="M 103.23170211078529 79.25015418208739 l 7.017697919765903 -45.058654801708855 a66.60186900372229,66.60186900372229 0 0,0 1.1281801496826855,0.18564161430738946 l -7.790155572501659 44.9315471889058" fill="#36ff6a" stroke="none" /><path d="M 103.58742460773223 79.30868818359171 l 4.523134129824871 -26.088235684709524 a47.477439141603895,47.477439141603895 0 0,0 0.8018380287366943,0.1461215994659191 l -4.970306892112618 26.00674591131224" fill="#d8ff1c" stroke="none" /><path d="M 103.94208987418118 79.37332000966035 l 7.753374946995738 -40.56893398708132 a62.30318665571536,62.30318665571536 0 0,0 1.048780735496008,0.2097855199167684 l -8.448652168022702 40.4298590705017" fill="#30ff33" stroke="none" /><line stroke="#e1ed5e" stroke-width="0.3" x1="143.13028292997686" x2="145.6673583964461" y1="26.7553504044142" y2="22.446841604673864" /><path d="M 143.63769802327073 25.89364864446614 a86.0,86.0 0 0,1 29.32050498858742,28.57503671076993" fill="none" id="id302" stroke="none" /><text fill="#e1ed5e" style="font-size:6.75px; font-family:Arial;" text-anchor="middle"><textPath startOffset="20.669276256404974" xlink:href="#id302">February</textPath></text><line stroke="#e1ed5e" stroke-width="0.3" x1="172.87174338648825" x2="177.1583165268699" y1="56.24261187166439" y2="53.66864786411523" /><path d="M 173.72905801456457 55.72781907015455 a86.0,86.0 0 0,1 12.242430191666344,42.057860355516425" fill="none" id="id303" stroke="none" /><text fill="#e1ed5e" style="font-size:6.75px; font-family:Arial;" text-anchor="middle"><textPath startOffset="22.145653131862474" xlink:href="#id303">March</textPath></text><line stroke="#e1ed5e" stroke-width="0.3" x1="184.99686870605535" x2="189.99668451229388" y1="99.2704041080226" y2="99.22748670261217" /><path d="M 185.99683186730306 99.26182062694052 a86.0,86.0 0 0,1 -10.086455211305974,41.156179273409016" fill="none" id="id304" stroke="none" /><text fill="#e1ed5e" style="font-size:6.75px; font-family:Arial;" text-anchor="middle"><textPath startOffset="21.40746469413373" xlink:href="#id304">April</textPath></text><line stroke="#e1ed5e" stroke-width="0.3" x1="174.33088141563837" x2="178.70328620479359" y1="141.23008692659167" y2="143.65538615756765" /><path d="M 175.20536237346943 141.71514677278685 a86.0,86.0 0 0,1 -30.301960400862466,31.631185727798858" fill="none" id="id305" stroke="none" /><text fill="#e1ed5e" style="font-size:6.75px; font-family:Arial;" text-anchor="middle"><textPath startOffset="22.145653131862474" xlink:href="#id305">May</textPath></text><line stroke="#e1ed5e" stroke-width="0.3" x1="143.1302829299769" x2="145.66735839644613" y1="173.24464959558577" y2="177.55315839532614" /><path d="M 143.63769802327073 174.10635135553383 a86.0,86.0 0 0,1 -40.68552437913181,11.842963189579606" fill="none" id="id306" stroke="none" /><text fill="#e1ed5e" style="font-size:6.75px; font-family:Arial;" text-anchor="middle"><textPath startOffset="21.407464694133747" xlink:href="#id306">June</textPath></text><line stroke="#e1ed5e" stroke-width="0.3" x1="101.45913802915013" x2="101.54496967792366" y1="184.9874750549273" y2="189.98673829345242" /><path d="M 101.47630435890484 185.9873277026323 a86.0,86.0 0 0,1 -42.54439059252881,-10.42667462771756" fill="none" id="id307" stroke="none" /><text fill="#e1ed5e" style="font-size:6.75px; font-family:Arial;" text-anchor="middle"><textPath startOffset="22.145653131862474" xlink:href="#id307">July</textPath></text><line stroke="#e1ed5e" stroke-width="0.3" x1="58.13341422392154" x2="55.67067388415222" y1="173.97424548756322" y2="178.32567169271397" /><path d="M 57.64086615596768 174.84453072859336 a86.0,86.0 0 0,1 -31.369924170532247,-30.572349798747897" fill="none" id="id308" stroke="none" /><text fill="#e1ed5e" style="font-size:6.75px; font-family:Arial;" text-anchor="middle"><textPath startOffset="22.145653131862474" xlink:href="#id308">August</textPath></text><line stroke="#e1ed5e" stroke-width="0.3" x1="26.387840678322732" x2="22.057713659400548" y1="142.50000000000003" y2="145.00000000000006" /><path d="M 25.521815274538298 143.00000000000003 a86.0,86.0 0 0,1 -11.493303480769221,-40.785679425670985" fill="none" id="id309" stroke="none" /><text fill="#e1ed5e" style="font-size:6.75px; font-family:Arial;" text-anchor="middle"><textPath startOffset="21.40746469413373" xlink:href="#id309">September</textPath></text><line stroke="#e1ed5e" stroke-width="0.3" x1="15.003131293944662" x2="10.003315487706104" y1="100.72959589197737" y2="100.7725132973878" /><path d="M 14.003168132696942 100.73817937305945 a86.0,86.0 0 0,1 10.791469493833604,-42.45332614584628" fill="none" id="id310" stroke="none" /><text fill="#e1ed5e" style="font-size:6.75px; font-family:Arial;" text-anchor="middle"><textPath startOffset="22.145653131862435" xlink:href="#id310">October</textPath></text><line stroke="#e1ed5e" stroke-width="0.3" x1="26.387840678322718" x2="22.05771365940052" y1="57.49999999999999" y2="54.99999999999999" /><path d="M 25.521815274538284 56.99999999999999 a86.0,86.0 0 0,1 29.574782752854787,-30.34633250058573" fill="none" id="id311" stroke="none" /><text fill="#e1ed5e" style="font-size:6.75px; font-family:Arial;" text-anchor="middle"><textPath startOffset="21.40746469413373" xlink:href="#id311">November</textPath></text><line stroke="#e1ed5e" stroke-width="0.3" x1="56.869717070023135" x2="54.33264160355391" y1="26.7553504044142" y2="22.446841604673864" /><path d="M 56.362301976729285 25.89364864446614 a86.0,86.0 0 0,1 42.16139366436587,-11.88097634709845" fill="none" id="id312" stroke="none" /><text fill="#e1ed5e" style="font-size:6.75px; font-family:Arial;" text-anchor="middle"><textPath startOffset="22.145653131862474" xlink:href="#id312">December</textPath></text></svg>