<?xml version="1.0" encoding="utf-8" ?>
<svg baseProfile="full" height="200mm" version="1.1" viewBox="0,0,200,200" width="200mm" xmlns="http://www.w3.org/2000/svg" xmlns:ev="http://www.w3.org/2001/xml-events" xmlns:xlink="http://www.w3.org/1999/xlink"><defs /><rect fill="#1a1a1a" height="200" width="200" x="0" y="0" /><text alignment-baseline="middle" fill="#e1ed5e" style="dominant-baseline: central; font-size:9.0px; font-family:Arial;" text-anchor="middle" x="100.0" y="100.0">2023</text><line stroke="#e1ed5e" stroke-width="0.3" x1="100.0" x2="100.0" y1="15.0" y2="10.0" /><path d="M 100.0 14.0 a86.0,86.0 0 0,1 42.46469731375804,11.215312516191453" fill="none" id="id289" stroke="none" /><text fill="#e1ed5e" style="font-size:6.75px; font-family:Arial;" text-anchor="middle"><textPath startOffset="22.20632615414155" xlink:href="#id289">January</textPath></text><path d="M 100.0 79.0 l 0.0 -38.47261806263629 a59.47261806263629,59.47261806263629 0 0,0 1.0237233562320855,0.008811510128087726 l -0.6622428769595571 38.46691792911676" fill="#3cff2e" stroke="none" /><path d="M 100.36148047927253 79.00311137660856 l 0.2044199712510888 -11.873900846302732 a32.87566035353298,32.87566035353298 0 0,0 0.565732762006995,0.014611208168414741 l -0.4087793684529516 11.868622845991958" fill="#ff850c" stroke="none" /><path d="M 100.72285384407766 79.0124445844662 l 0.9487709592762353 -27.546900729104852 a48.563234681588504,48.563234681588504 0 0,0 0.8351932101944786,0.035965176506560656 l -1.4228050018600455 27.526487826074096" fill="#b2ff20" stroke="none" /><path d="M 101.08401301168833 79.027996857942 l 1.1838300515179077 -22.903126892755857 a43.93370173034771,43.93370173034771 0 0,0 0.7549022342509649,0.045537764318597476 l -1.5778943346084844 22.879355859056954" fill="#eaff1a" stroke="none" /><path d="M 101.44485096284872 79.0497635885617 l 0.35368400046875825 -5.128392903690495 a26.14057449579428,26.14057449579428 0 0,0 0.4486342620947062,0.034822653226797916 l -0.44190845192580563 5.121544988275232" fill="#ff2503" stroke="none" /><path d="M 101.80526077348638 79.07773832637324 l 2.3176462096993893 -26.860607164566975 a47.96040988565494,47.96040988565494 0 0,0 0.8218926862999937,0.07804861393672007 l -2.779664023089627 26.816733006115076" fill="#b9ff1f" stroke="none" /><path d="M 102.16513564639614 79.11191278185805 l 1.3591965910288215 -13.112812117461589 a34.183067055921086,34.183067055921086 0 0,0 0.5847474220307924,0.06570318615060813 l -1.5847107165693393 13.08747297784038" fill="#ff970d" stroke="none" /><path d="M 102.52436894288641 79.15227682838746 l 2.999115129592678 -24.76845635331387 a45.94937116815905,45.94937116815905 0 0,0 0.7843891808624402,0.10183622779617109 l -3.4250190389629647 24.71316180235356" fill="#d1ff1c" stroke="none" /><path d="M 102.88285421437855 79.19881850522331 l 2.2099852055961073 -15.946107553095787 a37.098521071944845,37.098521071944845 0 0,0 0.6317896150261254,0.09310936618866743 l -2.4841438010508887 15.905703702746152" fill="#ffbe11" stroke="none" /><path d="M 103.2404852339499 79.25152402106235 l 8.50358726462462 -54.447548239496655 a76.10759027266027,76.10759027266027 0 0,0 1.2926359353050934,0.2132960050574251 l -9.439552406068588 54.29310597149961" fill="#43ffdf" stroke="none" /><path d="M 103.59715602781102 79.31037775812273 l 10.614236351635975 -61.049489875752066 a82.96533085054855,82.96533085054855 0 0,0 1.4048988776079563,0.25673628999522 l -11.663530350346832 60.8577381044061" fill="#4cdcff" stroke="none" /><path d="M 103.95276090670814 79.375362276772 l 0.4970722350496459 -2.5936136822178883 a23.640816680393602,23.640816680393602 0 0,0 0.3990047399600657,0.08003659719428236 l -0.5416433844768369 2.5846731289463976" fill="#ff0000" stroke="none" /><path d="M 104.307194497241 79.44645832069477 l 10.771326714195121 -51.39979462349217 a73.51628667871623,73.51628667871623 0 0,0 1.2363243587525574,0.2702126191291075 l -11.654493797101207 51.20676850626719" fill="#40ffc3" stroke="none" /><path d="M 104.66035177308747 79.52364482259891 l 2.743895445055071 -12.055952090796405 a33.364260715019405,33.364260715019405 0 0,0 0.5588931724547926,0.1322719568058662 l -2.9510123044723877 12.00693422184967" fill="#ff8c0c" stroke="none" /><path d="M 105.01212808612495 79.60689891045804 l 5.9626420494939465 -24.260505714668266 a45.982498628877075,45.982498628877075 0 0,0 0.7670124069404125,0.19552854077275547 l -6.379363345119384 24.15427417772664" fill="#d1ff1d" stroke="none" /><path d="M 105.36241919743992 79.69619591428918 l 4.324746457137678 -16.37484902859072 a37.9363252397816,37.9363252397816 0 0,0 0.6299274612479837,0.17218297080677955 l -4.6059718076093725 16.297979516957646" fill="#ffc912" stroke="none" /><path d="M 105.71112130821622 79.79150937346287 l 13.998456291154538 -49.53277254657752 a72.47283103430729,72.47283103430729 0 0,0 1.1975610151515155,0.3496008996079893 l -14.84900752402948 49.28447331805083" fill="#3effb8" stroke="none" /><path d="M 106.0581310904928 79.89281104454417 l 4.798212186632332 -15.925465732558008 a37.63259748165711,37.63259748165711 0 0,0 0.6186344339789439,0.19221272999537797 l -5.071631993321994 15.84051286768011" fill="#ffc512" stroke="none" /><path d="M 106.40334571778207 80.00007090966166 l 19.21003715334621 -59.99978727101504 a84.0,84.0 0 0,0 1.37326871103033,0.45274510296305515 l -20.239988686618958 59.66022844379275" fill="#4dd2ff" stroke="none" /><path d="M 106.74666289553966 80.11325718540242 l 4.581879618452512 -13.505738020474077 a35.261787416578244,35.261787416578244 0 0,0 0.5731182197225411,0.19994969338995847 l -4.813679842238328 13.42486747391191" fill="#ffa50f" stroke="none" /><path d="M 107.08798089147638 80.2323363322302 l 5.2169271724407364 -14.549483598082494 a36.456513257957695,36.456513257957695 0 0,0 0.5888901732288401,0.21689322064879207 l -5.466599671442153 14.457527109627378" fill="#ffb510" stroke="none" /><path d="M 107.4271985657038 80.35727306442388 l 7.562448001784652 -20.000421390305565 a42.382410424680586,42.382410424680586 0 0,0 0.6801707533814747,0.2638956852253493 l -7.905601920165794 19.867283001189666" fill="#fdff18" stroke="none" /><path d="M 107.76421540070413 80.48803036053334 l 4.39383997926264 -11.04200074978244 a32.88409063923541,32.88409063923541 0 0,0 0.524135027184267,0.21380783783524088 l -4.583258876035294 10.96473202576362" fill="#ff850c" stroke="none" /><path d="M 108.09893153111575 80.62456947434976 l 19.49167206478226 -46.63078536582196 a71.54063141388687,71.54063141388687 0 0,0 1.1321006569890957,0.48470641940037235 l -20.29145647956167 46.288359418458796" fill="#3dffae" stroke="none" /><path d="M 108.43124777332544 80.76684994638697 l 5.247507729049207 -11.970482456891492 a34.07014872207574,34.07014872207574 0 0,0 0.5350925845255599,0.2400804451021616 l -5.4527824320415474 11.878381681272801" fill="#ff950d" stroke="none" /><path d="M 108.76106565485865 80.91482961587045 l 17.84170503595661 -38.8665025430754 a63.76600821354462,63.76600821354462 0 0,0 0.9936012983771714,0.4665091323269354 l -18.50808454563338 38.55362842810846" fill="#33ff54" stroke="none" /><path d="M 109.08828744355905 81.06846463323043 l 7.713894372896309 -16.068578931172347 a38.824236176159616,38.824236176159616 0 0,0 0.5999800083588971,0.29440758441714293 l -7.989345648265639 15.933416186620372" fill="#ffd413" stroke="none" /><line stroke="#e1ed5e" stroke-width="0.3" x1="143.23703022742887" x2="145.7803849466894" y1="26.81831364943548" y2="22.513508569990506" /><path d="M 143.74570117128098 25.957352633546492 a86.0,86.0 0 0,1 28.547481713284135,27.462654790039103" fill="none" id="id290" stroke="none" /><text fill="#e1ed5e" style="font-size:6.75px; font-family:Arial;" text-anchor="middle"><textPath startOffset="19.985693538727396" xlink:href="#id290">February</textPath></text><line stroke="#e1ed5e" stroke-width="0.3" x1="172.23445277983987" x2="176.4835382374775" y1="55.19839476539836" y2="52.563006222186495" /><path d="M 173.08426987136738 54.67131705675599 a86.0,86.0 0 0,1 12.851231095245387,41.99856678651699" fill="none" id="id291" stroke="none" /><text fill="#e1ed5e" style="font-size:6.75px; font-family:Arial;" text-anchor="middle"><textPath startOffset="22.20632615414155" xlink:href="#id291">March</textPath></text><line stroke="#e1ed5e" stroke-width="0.3" x1="184.98032266829074" x2="189.97916517819016" y1="98.17113171792111" y2="98.06355123074" /><path d="M 185.9800911702706 98.14961562048488 a86.0,86.0 0 0,1 -9.607161424134198,41.387399972396054" fill="none" id="id292" stroke="none" /><text fill="#e1ed5e" style="font-size:6.75px; font-family:Arial;" text-anchor="middle"><textPath startOffset="21.466115282336823" xlink:href="#id292">April</textPath></text><line stroke="#e1ed5e" stroke-width="0.3" x1="174.80103733775053" x2="179.2010983576182" y1="140.37084112569926" y2="142.7455964860345" /><path d="M 175.68104954172406 140.8457921977663 a86.0,86.0 0 0,1 -30.038265399797805,32.042727171017184" fill="none" id="id293" stroke="none" /><text fill="#e1ed5e" style="font-size:6.75px; font-family:Arial;" text-anchor="middle"><textPath startOffset="22.206326154141568" xlink:href="#id293">May</textPath></text><line stroke="#e1ed5e" stroke-width="0.3" x1="143.8653032363475" x2="146.44561519142675" y1="172.8068346515853" y2="177.08958963109032" /><path d="M 144.38136562736335 173.6633856474863 a86.0,86.0 0 0,1 -40.68145358897372,12.25698825130547" fill="none" id="id294" stroke="none" /><text fill="#e1ed5e" style="font-size:6.75px; font-family:Arial;" text-anchor="middle"><textPath startOffset="21.466115282336833" xlink:href="#id294">June</textPath></text><line stroke="#e1ed5e" stroke-width="0.3" x1="102.19456741930631" x2="102.32365962044197" y1="184.97166512339345" y2="189.96999836594603" /><path d="M 102.22038585953345 185.97133177190398 a86.0,86.0 0 0,1 -42.740103519485714,-10.115201625700543" fill="none" id="id295" stroke="none" /><text fill="#e1ed5e" style="font-size:6.75px; font-family:Arial;" text-anchor="middle"><textPath startOffset="22.20632615414155" xlink:href="#id295">July</textPath></text><line stroke="#e1ed5e" stroke-width="0.3" x1="58.666819895761336" x2="56.23545636021788" y1="174.27360380694188" y2="178.64263932499728" /><path d="M 58.180547188652646 175.14741091055294 a86.0,86.0 0 0,1 -31.652253787137756,-30.449443065178592" fill="none" id="id296" stroke="none" /><text fill="#e1ed5e" style="font-size:6.75px; font-family:Arial;" text-anchor="middle"><textPath startOffset="22.20632615414155" xlink:href="#id296">August</textPath></text><line stroke="#e1ed5e" stroke-width="0.3" x1="26.63291911575756" x2="22.317208475507996" y1="142.92168965132927" y2="145.44649492493687" /><path d="M 25.769776987707644 143.4266507060508 a86.0,86.0 0 0,1 -11.730757126820373,-40.83630448921669" fill="none" id="id297" stroke="none" /><text fill="#e1ed5e" style="font-size:6.75px; font-family:Arial;" text-anchor="middle"><textPath startOffset="21.46611528233685" xlink:href="#id297">September</textPath></text><line stroke="#e1ed5e" stroke-width="0.3" x1="15.007084014347285" x2="10.007500721073583" y1="101.09737516637583" y2="101.16192664675087" /><path d="M 14.007167355692545 101.11028546245083 a86.0,86.0 0 0,1 10.666146001902534,-42.60595125391555" fill="none" id="id298" stroke="none" /><text fill="#e1ed5e" style="font-size:6.75px; font-family:Arial;" text-anchor="middle"><textPath startOffset="22.20632615414155" xlink:href="#id298">October</textPath></text><line stroke="#e1ed5e" stroke-width="0.3" x1="26.266209847984243" x2="21.928928074336255" y1="57.711370442889674" y2="55.22380399835377" /><path d="M 25.398753493254645 57.213857153982495 a86.0,86.0 0 0,1 29.58750427330803,-30.492523968695096" fill="none" id="id299" stroke="none" /><text fill="#e1ed5e" style="font-size:6.75px; font-family:Arial;" text-anchor="middle"><textPath startOffset="21.46611528233685" xlink:href="#id299">November</textPath></text><line stroke="#e1ed5e" stroke-width="0.3" x1="56.762969772571076" x2="54.21961505331055" y1="26.818313649435495" y2="22.513508569990535" /><path d="M 56.25429882871897 25.957352633546506 a86.0,86.0 0 0,1 42.265352541879196,-11.944610805530505" fill="none" id="id300" stroke="none" /><text fill="#e1ed5e" style="font-size:6.75px; font-family:Arial;" text-anchor="middle"><textPath startOffset="22.20632615414155" xlink:href="#id300">December</textPath></text></svg>