<?xml version="1.0" encoding="utf-8" ?>
<svg baseProfile="full" height="200mm" version="1.1" viewBox="0,0,200,200" width="200mm" xmlns="http://www.w3.org/2000/svg" xmlns:ev="http://www.w3.org/2001/xml-events" xmlns:xlink="http://www.w3.org/1999/xlink"><defs /><rect fill="#1a1a1a" height="200" width="200" x="0" y="0" /><text alignment-baseline="middle" fill="#e1ed5e" style="dominant-baseline: central; font-size:9.0px; font-family:Arial;" text-anchor="middle" x="100.0" y="100.0">2023</text><line stroke="#e1ed5e" stroke-width="0.3" x1="100.0" x2="100.0" y1="15.0" y2="10.0" /><path d="M 100.0 14.0 a86.0,86.0 0 0,1 42.46469731375804,11.215312516191453" fill="none" id="id289" stroke="none" /><text fill="#e1ed5e" style="font-size:6.75px; font-family:Arial;" text-anchor="middle"><textPath startOffset="22.20632615414155" xlink:href="#id289">January</textPath></text><path d="M 100.0 79.0 l 0.0 -39.115016488685946 a60.115016488685946,60.115016488685946 0 0,0 1.0347811891336258,0.008906688386953722 l -0.6733007098610974 39.10922117690755" fill="#36ff2f" stroke="none" /><path d="M 100.36148047927253 79.00311137660856 l 0.20783328374183263 -12.072165887748985 a33.07395477443746,33.07395477443746 0 0,0 0.5691450630595825,0.014699337837334358 l -0.41560498199628293 12.06679975776929" fill="#ff870c" stroke="none" /><path d="M 100.72285384407766 79.0124445844662 l 0.9646131088780219 -28.006866454393226 a49.02347314384917,49.02347314384917 0 0,0 0.8431084168579299,0.03630602195556837 l -1.4465623581252833 27.986112705913463" fill="#adff20" stroke="none" /><path d="M 101.08401301168833 79.027996857942 l 1.2035971118351247 -23.28555297677146 a44.316638339212794,44.316638339212794 0 0,0 0.7614821419351165,0.04593468231905396 l -1.6042413026098532 23.2613850250721" fill="#e5ff1a" stroke="none" /><path d="M 101.44485096284872 79.0497635885617 l 0.3595896564043685 -5.214024495596492 a26.22640949043158,26.22640949043158 0 0,0 0.4501073941977211,0.03493699663013282 l -0.4492872399644308 5.207062236777895" fill="#ff2603" stroke="none" /><path d="M 101.80526077348638 79.07773832637324 l 2.35634522089813 -27.309113469418993 a48.41058265133471,48.41058265133471 0 0,0 0.8296072513874432,0.07878120484820589 l -2.8260775993758176 27.264506720055607" fill="#b4ff20" stroke="none" /><path d="M 102.16513564639614 79.11191278185805 l 1.3818918427360853 -13.331763940590125 a34.403191964328485,34.403191964328485 0 0,0 0.588512955196831,0.06612628767657176 l -1.6111715014426418 13.306001699442952" fill="#ff990e" stroke="none" /><path d="M 102.52436894288641 79.15227682838746 l 3.0491930014873163 -25.182028867436607 a46.365964516271205,46.365964516271205 0 0,0 0.7915007322671932,0.10275951127139997 l -3.4822084622623555 25.12581103300107" fill="#cdff1d" stroke="none" /><path d="M 102.88285421437855 79.19881850522331 l 2.2468865419012323 -16.212368465650524 a37.367326916701955,37.367326916701955 0 0,0 0.6363673916131359,0.09378401146049933 l -2.525622913943024 16.171289970029054" fill="#ffc111" stroke="none" /><path d="M 103.2404852339499 79.25152402106235 l 8.64557632982619 -55.35668884527425 a77.02775196264224,77.02775196264224 0 0,0 1.3082642591358773,0.21587481239815032 l -9.597169795100942 55.199667769936475" fill="#44ffe8" stroke="none" /><path d="M 103.59715602781102 79.31037775812273 l 10.791468083433088 -62.06886672563182 a84.0,84.0 0 0,0 1.4224195155883965,0.2599380745970459 l -11.858282720124386 61.87391316968404" fill="#4dd2ff" stroke="none" /><path d="M 103.95276090670814 79.375362276772 l 0.5053721230611402 -2.636920673817083 a23.684911846368752,23.684911846368752 0 0,0 0.3997489689125283,0.08018588252080389 l -0.5506875014407939 2.6278308352190707" fill="#ff0000" stroke="none" /><path d="M 104.307194497241 79.44645832069477 l 10.95118147002172 -52.25804521386397 a74.39317994991119,74.39317994991119 0 0,0 1.251071084412715,0.2734356821837174 l -11.849095278587964 52.061796033584386" fill="#41ffcd" stroke="none" /><path d="M 104.66035177308747 79.52364482259891 l 2.789711773756134 -12.257256941821844 a33.570713564411264,33.570713564411264 0 0,0 0.5623515163678949,0.13309043507548704 l -3.000286977086552 12.207420594605487" fill="#ff8e0d" stroke="none" /><path d="M 105.01212808612495 79.60689891045804 l 6.062203557407347 -24.665596698102203 a46.3996451243885,46.3996451243885 0 0,0 0.7739706312020241,0.19730234706836627 l -6.485883077294396 24.557591354864968" fill="#ccff1d" stroke="none" /><path d="M 105.36241919743992 79.69619591428918 l 4.396959123107171 -16.64826887294967 a38.219120360700785,38.219120360700785 0 0,0 0.6346232353233054,0.1734665032454583 l -4.682880247654188 16.57011582887792" fill="#ffcc13" stroke="none" /><path d="M 105.71112130821622 79.79150937346287 l 4.271940581787535 -15.116028279767125 a36.70808031839164,36.70808031839164 0 0,0 0.6065744266226681,0.17707570849712018 l -4.53150522613363 15.040254242351303" fill="#ffb811" stroke="none" /><line stroke="#e1ed5e" stroke-width="0.3" x1="143.23703022742887" x2="145.7803849466894" y1="26.81831364943548" y2="22.513508569990506" /><path d="M 143.74570117128098 25.957352633546492 a86.0,86.0 0 0,1 28.547481713284135,27.462654790039103" fill="none" id="id290" stroke="none" /><text fill="#e1ed5e" style="font-size:6.75px; font-family:Arial;" text-anchor="middle"><textPath startOffset="19.985693538727396" xlink:href="#id290">February</textPath></text><line stroke="#e1ed5e" stroke-width="0.3" x1="172.23445277983987" x2="176.4835382374775" y1="55.19839476539836" y2="52.563006222186495" /><path d="M 173.08426987136738 54.67131705675599 a86.0,86.0 0 0,1 12.851231095245387,41.99856678651699" fill="none" id="id291" stroke="none" /><text fill="#e1ed5e" style="font-size:6.75px; font-family:Arial;" text-anchor="middle"><textPath startOffset="22.20632615414155" xlink:href="#id291">March</textPath></text><line stroke="#e1ed5e" stroke-width="0.3" x1="184.98032266829074" x2="189.97916517819016" y1="98.17113171792111" y2="98.06355123074" /><path d="M 185.9800911702706 98.14961562048488 a86.0,86.0 0 0,1 -9.607161424134198,41.387399972396054" fill="none" id="id292" stroke="none" /><text fill="#e1ed5e" style="font-size:6.75px; font-family:Arial;" text-anchor="middle"><textPath startOffset="21.466115282336823" xlink:href="#id292">April</textPath></text><line stroke="#e1ed5e" stroke-width="0.3" x1="174.80103733775053" x2="179.2010983576182" y1="140.37084112569926" y2="142.7455964860345" /><path d="M 175.68104954172406 140.8457921977663 a86.0,86.0 0 0,1 -30.038265399797805,32.042727171017184" fill="none" id="id293" stroke="none" /><text fill="#e1ed5e" style="font-size:6.75px; font-family:Arial;" text-anchor="middle"><textPath startOffset="22.206326154141568" xlink:href="#id293">May</textPath></text><line stroke="#e1ed5e" stroke-width="0.3" x1="143.8653032363475" x2="146.44561519142675" y1="172.8068346515853" y2="177.08958963109032" /><path d="M 144.38136562736335 173.6633856474863 a86.0,86.0 0 0,1 -40.68145358897372,12.25698825130547" fill="none" id="id294" stroke="none" /><text fill="#e1ed5e" style="font-size:6.75px; font-family:Arial;" text-anchor="middle"><textPath startOffset="21.466115282336833" xlink:href="#id294">June</textPath></text><line stroke="#e1ed5e" stroke-width="0.3" x1="102.19456741930631" x2="102.32365962044197" y1="184.97166512339345" y2="189.96999836594603" /><path d="M 102.22038585953345 185.97133177190398 a86.0,86.0 0 0,1 -42.740103519485714,-10.115201625700543" fill="none" id="id295" stroke="none" /><text fill="#e1ed5e" style="font-size:6.75px; font-family:Arial;" text-anchor="middle"><textPath startOffset="22.20632615414155" xlink:href="#id295">July</textPath></text><line stroke="#e1ed5e" stroke-width="0.3" x1="58.666819895761336" x2="56.23545636021788" y1="174.27360380694188" y2="178.64263932499728" /><path d="M 58.180547188652646 175.14741091055294 a86.0,86.0 0 0,1 -31.652253787137756,-30.449443065178592" fill="none" id="id296" stroke="none" /><text fill="#e1ed5e" style="font-size:6.75px; font-family:Arial;" text-anchor="middle"><textPath startOffset="22.20632615414155" xlink:href="#id296">August</textPath></text><line stroke="#e1ed5e" stroke-width="0.3" x1="26.63291911575756" x2="22.317208475507996" y1="142.92168965132927" y2="145.44649492493687" /><path d="M 25.769776987707644 143.4266507060508 a86.0,86.0 0 0,1 -11.730757126820373,-40.83630448921669" fill="none" id="id297" stroke="none" /><text fill="#e1ed5e" style="font-size:6.75px; font-family:Arial;" text-anchor="middle"><textPath startOffset="21.46611528233685" xlink:href="#id297">September</textPath></text><line stroke="#e1ed5e" stroke-width="0.3" x1="15.007084014347285" x2="10.007500721073583" y1="101.09737516637583" y2="101.16192664675087" /><path d="M 14.007167355692545 101.11028546245083 a86.0,86.0 0 0,1 10.666146001902534,-42.60595125391555" fill="none" id="id298" stroke="none" /><text fill="#e1ed5e" style="font-size:6.75px; font-family:Arial;" text-anchor="middle"><textPath startOffset="22.20632615414155" xlink:href="#id298">October</textPath></text><line stroke="#e1ed5e" stroke-width="0.3" x1="26.266209847984243" x2="21.928928074336255" y1="57.711370442889674" y2="55.22380399835377" /><path d="M 25.398753493254645 57.213857153982495 a86.0,86.0 0 0,1 29.58750427330803,-30.492523968695096" fill="none" id="id299" stroke="none" /><text fill="#e1ed5e" style="font-size:6.75px; font-family:Arial;" text-anchor="middle"><textPath startOffset="21.46611528233685" xlink:href="#id299">November</textPath></text><line stroke="#e1ed5e" stroke-width="0.3" x1="56.762969772571076" x2="54.21961505331055" y1="26.818313649435495" y2="22.513508569990535" /><path d="M 56.25429882871897 25.957352633546506 a86.0,86.0 0 0,1 42.265352541879196,-11.944610805530505" fill="none" id="id300" stroke="none" /><text fill="#e1ed5e" style="font-size:6.75px; font-family:Arial;" text-anchor="middle"><textPath startOffset="22.20632615414155" xlink:href="#id300">December</textPath></text></svg>