<?xml version="1.0" encoding="utf-8" ?>
<svg baseProfile="full" height="200mm" version="1.1" viewBox="0,0,200,200" width="200mm" xmlns="http://www.w3.org/2000/svg" xmlns:ev="http://www.w3.org/2001/xml-events" xmlns:xlink="http://www.w3.org/1999/xlink"><defs /><rect fill="#1a1a1a" height="200" width="200" x="0" y="0" /><text alignment-baseline="middle" fill="#e1ed5e" style="dominant-baseline: central; font-size:9.0px; font-family:Arial;" text-anchor="middle" x="100.0" y="100.0">2025</text><line stroke="#e1ed5e" stroke-width="0.3" x1="100.0" x2="100.0" y1="15.0" y2="10.0" /><path d="M 100.0 14.0 a86.0,86.0 0 0,1 42.46469731375804,11.215312516191453" fill="none" id="id313" stroke="none" /><text fill="#e1ed5e" style="font-size:6.75px; font-family:Arial;" text-anchor="middle"><textPath startOffset="22.20632615414155" xlink:href="#id313">January</textPath></text><path d="M 100.0 79.0 l 0.0 -13.217063218955857 a34.21706321895586,34.21706321895586 0 0,0 0.5889904957945984,0.0050696271482399665 l -0.22751001652207 13.215104968416176" fill="#ffa90f" stroke="none" /><path d="M 100.36148047927253 79.00311137660856 l 0.18274445918473997 -10.614861039705099 a31.616433978959787,31.616433978959787 0 0,0 0.5440636728626672,0.014051559525856908 l -0.365434767242275 10.610142688036882" fill="#ff870c" stroke="none" /><path d="M 100.72285384407766 79.0124445844662 l 0.16148088047759016 -4.688484339316183 a25.691264379117097,25.691264379117097 0 0,0 0.44183979323940703,0.019026550931582984 l -0.24216150610632875 4.685010061860406" fill="#ff3605" stroke="none" /><path d="M 101.08401301168833 79.027996857942 l 0.6670203973897426 -12.904599593400862 a33.92182676236358,33.92182676236358 0 0,0 0.5828705937404236,0.03516034596496951 l -0.889053039969778 12.891205978055588" fill="#ffa60f" stroke="none" /><path d="M 101.44485096284872 79.0497635885617 l 0.4119642545461921 -5.973452451308884 a26.98764133320224,26.98764133320224 0 0,0 0.46317193821221303,0.03595105668800431 l -0.5147263821207463 5.965476132432414" fill="#ff4806" stroke="none" /><path d="M 101.80526077348638 79.07773832637324 l 0.3679426081601305 -4.264309977741322 a25.280154360436534,25.280154360436534 0 0,0 0.4332234446476717,0.04113978618286484 l -0.44129117989804645 4.257344647043279" fill="#ff3004" stroke="none" /><path d="M 102.16513564639614 79.11191278185805 l 1.6257904035255253 -15.684768667397442 a36.76880346081998,36.76880346081998 0 0,0 0.6289799273920659,0.07067322351061292 l -1.8955370344273164 15.654459490416228" fill="#ffca12" stroke="none" /><path d="M 102.52436894288641 79.15227682838746 l 1.1649141685102908 -9.620546224920254 a30.690817028807395,30.690817028807395 0 0,0 0.523914565470859,0.06801914704682686 l -1.330343462488996 9.599068754709291" fill="#ff7b0b" stroke="none" /><path d="M 102.88285421437855 79.19881850522331 l 0.5965269463569893 -4.304229196123767 a25.345369186903945,25.345369186903945 0 0,0 0.431632867796409,0.0636114646250693 l -0.670528794582054 4.293323247337729" fill="#ff3104" stroke="none" /><path d="M 103.2404852339499 79.25152402106235 l 1.1136383082363186 -7.130505470472766 a28.216945236456592,28.216945236456592 0 0,0 0.4792457265629932,0.0790796512187346 l -1.236213240938187 7.110279556314407" fill="#ff5908" stroke="none" /><path d="M 103.59715602781102 79.31037775812273 l 0.758344777378716 -4.361742123989511 a25.427175302330156,25.427175302330156 0 0,0 0.43057274257525835,0.07868441655391975 l -0.8333126410568752 4.348042226084853" fill="#ff3204" stroke="none" /><path d="M 104.307194497241 79.44645832069477 l 0.8719441781038452 -4.1608385732672755 a25.251219152492382,25.251219152492382 0 0,0 0.4246500841760224,0.09281206072359255 l -0.9434369864333956 4.145213014447813" fill="#ff2f04" stroke="none" /><path d="M 104.66035177308747 79.52364482259891 l 2.15537260255663 -9.470138113705117 a30.712319339298006,30.712319339298006 0 0,0 0.5144698315241828,0.12175838726817215 l -2.3180661210433366 9.431633814296076" fill="#ff7b0b" stroke="none" /><path d="M 105.01212808612495 79.60689891045804 l 2.401688413374523 -9.771872098622836 a31.06268311867073,31.06268311867073 0 0,0 0.5181419900030515,0.13208593016443734 l -2.5695392920625997 9.729083172289531" fill="#ff800b" stroke="none" /><path d="M 105.36241919743992 79.69619591428918 l 6.357875267313718 -24.07291356307103 a45.898348245010325,45.898348245010325 0 0,0 0.7621357578181089,0.2083204924567309 l -6.771308914355537 23.959906529788007" fill="#c5ff1e" stroke="none" /><path d="M 105.71112130821622 79.79150937346287 l 3.8131643383825704 -13.492673615388117 a35.02114344705535,35.02114344705535 0 0,0 0.5786990172685382,0.1689381121125954 l -4.044853573374536 13.425037174356817" fill="#ffb410" stroke="none" /><path d="M 106.0581310904928 79.89281104454417 l 1.6628228404344294 -5.51897813907212 a26.76403500147478,26.76403500147478 0 0,0 0.4399683984662575,0.1367003230598897 l -1.757576611611405 5.489537681129709" fill="#ff4506" stroke="none" /><path d="M 106.40334571778207 80.00007090966166 l 4.161846441323856 -12.998928588254458 a34.64892340969423,34.64892340969423 0 0,0 0.5664557427311836,0.18675155234144078 l -4.384985006297457 12.925363311653781" fill="#ffaf10" stroke="none" /><path d="M 106.74666289553966 80.11325718540242 l 1.3747994618863664 -4.052415800744469 a25.279269491692066,25.279269491692066 0 0,0 0.41086998103089345,0.14334446873812073 l -1.4443514469805334 4.0281504788341405" fill="#ff3004" stroke="none" /><path d="M 107.08798089147638 80.2323363322302 l 3.50835491671163 -9.7844479383573 a31.394420410972373,31.394420410972373 0 0,0 0.5071210607394288,0.1867769664410147 l -3.6762583032236353 9.72260770410996" fill="#ff840c" stroke="none" /><path d="M 107.4271985657038 80.35727306442388 l 5.5409496756424 -14.654160714780764 a36.66673385114541,36.66673385114541 0 0,0 0.5884431710625045,0.22830680835908243 l -5.7923760117045715 14.556611202531133" fill="#ffc912" stroke="none" /><path d="M 107.76421540070413 80.48803036053334 l 2.4995992725860576 -6.281652762120557 a27.760706911808082,27.760706911808082 0 0,0 0.4424741140481575,0.1804963009836029 l -2.6073572562226026 6.237695574953375" fill="#ff5307" stroke="none" /><path d="M 108.09893153111575 80.62456947434976 l 2.227157825678504 -5.328127735776431 a26.774874643594533,26.774874643594533 0 0,0 0.42370122510450986,0.18140675252513014 l -2.318542808573329 5.289001455288511" fill="#ff4506" stroke="none" /><path d="M 108.43124777332544 80.76684994638697 l 2.5195335144075166 -5.747496390868589 a27.275489135778194,27.275489135778194 0 0,0 0.42837828783546267,0.1922008508244 l -2.6180939207097595 5.703275209527658" fill="#ff4c07" stroke="none" /><path d="M 108.76106565485865 80.91482961587045 l 4.674526956526136 -10.183024182798142 a32.20469472028316,32.20469472028316 0 0,0 0.5018132290914975,0.2356080396392433 l -4.849118396917231 10.101051160518896" fill="#ff8f0d" stroke="none" /><path d="M 109.08828744355905 81.06846463323043 l 1.9159734147905674 -3.9911059909977182 a25.427175302330156,25.427175302330156 0 0,0 0.39294518973184983,0.19281649805919623 l -1.984389871532849 3.95753433280369" fill="#ff3204" stroke="none" /><path d="M 109.41281617654863 81.2277094730956 l 2.4123671442538117 -4.811063558461633 a26.381992921050045,26.381992921050045 0 0,0 0.40419664470740685,0.20704522050198787 l -2.494824276549974 4.768825812647145" fill="#ff3f05" stroke="none" /><path d="M 110.05341064243156 81.56283822128135 l 5.4306590621786865 -9.959400173296423 a32.34379608691378,32.34379608691378 0 0,0 0.4865060024677255,0.2707400636444165 l -5.601289153718446 9.864444712091826" fill="#ff910d" stroke="none" /><path d="M 110.36928655335952 81.73862282372117 l 4.638739961601459 -8.169296858136926 a30.39443024284731,30.39443024284731 0 0,0 0.45273700451510873,0.2622544951667657 l -4.778673698581896 8.088238205580112" fill="#ff770a" stroke="none" /><line stroke="#e1ed5e" stroke-width="0.3" x1="143.23703022742887" x2="145.7803849466894" y1="26.81831364943548" y2="22.513508569990506" /><path d="M 143.74570117128098 25.957352633546492 a86.0,86.0 0 0,1 28.547481713284135,27.462654790039103" fill="none" id="id314" stroke="none" /><text fill="#e1ed5e" style="font-size:6.75px; font-family:Arial;" text-anchor="middle"><textPath startOffset="19.985693538727396" xlink:href="#id314">February</textPath></text><path d="M 110.68208982089419 81.91981866633111 l 7.738104846013179 -13.097281631278092 a36.21239799429752,36.21239799429752 0 0,0 0.5339396234408976,0.3216926488319175 l -7.962406535671714 12.96214237298756" fill="#ffc312" stroke="none" /><path d="M 110.99172775467656 82.1063720568725 l 1.6941482661113654 -2.757933914565314 a24.236717136958017,24.236717136958017 0 0,0 0.35360314000642334,0.2214262538324079 l -1.741370558490052 2.728363319409962" fill="#ff2103" stroke="none" /><path d="M 111.2981086023043 82.29822771554956 l 5.975888078942026 -9.362966288819239 a32.10749188870318,32.10749188870318 0 0,0 0.46331565531622976,0.3013533901810774 l -6.136170760042536 9.258713974478633" fill="#ff8e0d" stroke="none" /><path d="M 111.60114157652 82.49532879139004 l 3.2456783151765283 -4.89732250755989 a26.875218759217383,26.875218759217383 0 0,0 0.38341377985994146,0.2588826956836663 l -3.3294967894430116 4.840727899577554" fill="#ff4606" stroke="none" /><path d="M 111.90073688211348 82.69761687909136 l 2.470100345692598 -3.5912585037063844 a25.358730704945433,25.358730704945433 0 0,0 0.3575205000675369,0.25046595792729864 l -2.531551985343786 3.54820770301515" fill="#ff3104" stroke="none" /><path d="M 112.19680574252982 82.90503203632743 l 9.22744364445802 -12.933128297564036 a36.88746435945335,36.88746435945335 0 0,0 0.5137100818930868,0.373232221560442 l -9.448699042704895 12.772376841186919" fill="#ffcc13" stroke="none" /><path d="M 112.48926042617603 83.11751280151076 l 6.671466918735627 -9.018224539111811 a32.217702290826864,32.217702290826864 0 0,0 0.44299930731160064,0.33365789392830003 l -6.82571237980561 8.902050055677664" fill="#ff8f0d" stroke="none" /><path d="M 112.77801427241765 83.33499621200491 l 8.756171206960948 -11.419742005400725 a35.39031068724806,35.39031068724806 0 0,0 0.48024220993614214,0.3748366623308696 l -8.951445972056522 11.267326953846633" fill="#ffb911" stroke="none" /><path d="M 113.06298171725822 83.55741782278167 l 3.084525616090179 -3.882541292490059 a25.958671713695804,25.958671713695804 0 0,0 0.34747116173809367,0.28096418112596017 l -3.1509001763927635 3.8288710140999695" fill="#ff3905" stroke="none" /><path d="M 113.6212207817346 84.01681056812373 l 6.579298158804772 -7.720172111297351 a31.143383148166357,31.143383148166357 0 0,0 0.4050214794706711,0.3512306358490323 l -6.711213436922207 7.605776482028647" fill="#ff810b" stroke="none" /><path d="M 113.89432698308785 84.25364557470407 l 6.94080149511642 -7.86596720163255 a31.490384426310094,31.490384426310094 0 0,0 0.4033603527169413,0.3621409072947508 l -7.075172835429352 7.745327285568502" fill="#ff850c" stroke="none" /><path d="M 114.16331599549186 84.49514656593476 l 11.802259370132719 -12.920159500993755 a38.499252777504665,38.499252777504665 0 0,0 0.4854427912034563,0.45116616895700273 l -12.022910045131022 12.715088745962111" fill="#ffe015" stroke="none" /><path d="M 114.42810811169701 84.74124197986012 l 3.10936804657251 -3.2883794778153037 a25.525661193589617,25.525661193589617 0 0,0 0.31666011708582553,0.3046267817470822 l -3.165511407270754 3.2343696093059195" fill="#ff3304" stroke="none" /><path d="M 114.68862486808459 84.99185889309783 l 5.022235949390518 -5.131482795532692 a28.18017894012388,28.18017894012388 0 0,0 0.3437501423494525,0.34227396999476845 l -5.109821891907293 5.0442729748878055" fill="#ff5808" stroke="none" /><path d="M 114.94478906791727 85.2469230424477 l 8.700406279461717 -8.588797260338861 a33.2255677907777,33.2255677907777 0 0,0 0.3982887034139852,0.41047151943355353 l -8.846959246578812 8.437761545355194" fill="#ff9c0e" stroke="none" /><path d="M 115.19652480421416 85.50635884689758 l 1.5007414013358744 -1.4313277288590593 a23.073866876413334,23.073866876413334 0 0,0 0.2716482809691761,0.28977544600926786 l -1.5251570042755134 1.4052828659717367" fill="#ff1001" stroke="none" /><path d="M 115.4437574822437 85.77008943001954 l 11.632893134714303 -10.718572158844538 a36.81809064988693,36.81809064988693 0 0,0 0.4254354207890639,0.46977641750925153 l -11.815672196119403 10.516742954065736" fill="#ffcb12" stroke="none" /><path d="M 115.68641384162765 86.03803664274999 l 3.151647898632625 -2.805178603594513 a25.219231147379805,25.219231147379805 0 0,0 0.2858277241613025,0.32675049903448233 l -3.1994674863717756 2.7505125483570834" fill="#ff2f04" stroke="none" /><path d="M 115.9244219780498 86.31012108654704 l 4.4840991089251006 -3.8548823889320665 a26.913312358666797,26.913312358666797 0 0,0 0.2989804823420459,0.3538985877943903 l -4.549790204754264 3.7771248515085696" fill="#ff4706" stroke="none" /><path d="M 116.15771136456269 86.58626213691792 l 5.548841807617839 -4.606513123779311 a28.211768754301445,28.211768754301445 0 0,0 0.3069729381690254,0.3763125253064468 l -5.627313237863273 4.510316428864763" fill="#ff5908" stroke="none" /><path d="M 116.38621287248628 86.86637796730983 l 5.415100538183847 -4.340227012242685 a27.93980434568872,27.93980434568872 0 0,0 0.2975534871864911,0.3778627116971214 l -5.489008105964301 4.246371906592525" fill="#ff5507" stroke="none" /><path d="M 116.60985879189232 87.15038557335679 l 10.690609220922363 -8.270401825560533 a34.51623734146102,34.51623734146102 0 0,0 0.35950150283392407,0.4730618374369544 l -10.831386663980402 8.085155212242546" fill="#ffad10" stroke="none" /><path d="M 116.82858285166822 87.43820079747576 l 3.4290627816100603 -2.5596450096310277 a25.27904827450595,25.27904827450595 0 0,0 0.2572894160159439,0.3509424742980861 l -3.4726148101396306 2.500240091661448" fill="#ff3004" stroke="none" /><path d="M 117.04232023915458 87.72973835380427 l 8.158504849294397 -5.874023474374343 a31.053126536230458,31.053126536230458 0 0,0 0.30859026779735516,0.4364790493018479 l -8.258407736895634 5.732717924740701" fill="#ff800b" stroke="none" /><path d="M 117.2510076193507 88.02491185347247 l 24.658446898171693 -17.11709145794166 a51.01722544489235,51.01722544489235 0 0,0 0.49456471095441196,0.7257126872455981 l -24.949436074794836 16.690100747425657" fill="#8cff24" stroke="none" /><path d="M 117.45458315368197 88.32363383020206 l 8.451291608943244 -5.653550965091131 a31.167938255825383,31.167938255825383 0 0,0 0.2944678009005812,0.448494663046173 l -8.54735604520175 5.507238238067284" fill="#ff810b" stroke="none" /><path d="M 117.65298651832404 88.62581576622439 l 3.474462408265445 -2.2386679729187704 a25.133221905417365,25.133221905417365 0 0,0 0.23119261378825115,0.36569119398671984 l -3.512482618299652 2.1785291312178443" fill="#ff2e04" stroke="none" /><line stroke="#e1ed5e" stroke-width="0.3" x1="172.23445277983987" x2="176.4835382374775" y1="55.19839476539836" y2="52.563006222186495" /><path d="M 173.08426987136738 54.67131705675599 a86.0,86.0 0 0,1 12.851231095245387,41.99856678651699" fill="none" id="id315" stroke="none" /><text fill="#e1ed5e" style="font-size:6.75px; font-family:Arial;" text-anchor="middle"><textPath startOffset="22.20632615414155" xlink:href="#id315">March</textPath></text><path d="M 117.84615892207809 88.93136811851018 l 8.02125901116261 -4.974984455103322 a30.438806410382462,30.438806410382462 0 0,0 0.27233194493023233,0.44764211260176096 l -8.105706754379066 4.836174569294481" fill="#ff770b" stroke="none" /><path d="M 118.03404312379186 89.2402003453031 l 6.156656209768459 -3.673296492928955 a28.16920656769246,28.16920656769246 0 0,0 0.24485791127519885,0.4185415422274244 l -6.218973795513985 3.5667755383476356" fill="#ff5808" stroke="none" /><path d="M 118.21658344932153 89.55222093294921 l 0.8292988507372632 -0.4756287696409261 a21.956012191524923,21.956012191524923 0 0,0 0.18520665654375346,0.329461976077248 l -0.8373631485734496 0.46128328362888427" fill="#ff0000" stroke="none" /><path d="M 118.3937258080291 89.86733742301442 l 7.718443650074958 -4.251905565078479 a29.812098122111884,29.812098122111884 0 0,0 0.24373789489862022,0.4516093018763089 l -7.790489644192044 4.118415279869711" fill="#ff6f0a" stroke="none" /><path d="M 118.56541770881063 90.18545643968196 l 8.61274804919777 -4.5530993284778125 a30.74218365942385,30.74218365942385 0 0,0 0.24328861563121232,0.4699561681884452 l -8.689846097989099 4.4041704380290225" fill="#ff7b0b" stroke="none" /><path d="M 118.73160827565052 90.50648371742162 l 8.921580589178236 -4.521617649873553 a31.001981122800117,31.001981122800117 0 0,0 0.23715037361834748,0.47808068210263704 l -8.99809097574999 4.367377379271966" fill="#ff7f0b" stroke="none" /><path d="M 118.89224826269711 90.83032412892265 l 2.456387648252222 -1.1922497648236594 a23.730439484809754,23.730439484809754 0 0,0 0.17520048565018137,0.3690169044737054 l -2.4765463277441597 1.1497904447094136" fill="#ff1a02" stroke="none" /><path d="M 119.196687751892 91.48605970444005 l 17.714058615690995 -7.8563781103944885 a40.37809458263691,40.37809458263691 0 0,0 0.2763193957321833,0.6377832625249392 l -17.846668721265857 7.550295703282947" fill="#fff717" stroke="none" /><path d="M 119.34039704204932 91.81776055985345 l 3.914313597723416 -1.656007941861816 a25.25020155343624,25.25020155343624 0 0,0 0.16590381981555477,0.40174925905631226 l -3.9422391044251683 1.5883841123522007" fill="#ff2f04" stroke="none" /><path d="M 119.47837535516314 92.15188598940014 l 8.140881335145806 -3.2800766850430962 a29.776836102644772,29.776836102644772 0 0,0 0.18746141889928988,0.47706886370428414 l -8.196136303926798 3.1394588164430277" fill="#ff6e0a" stroke="none" /><path d="M 119.61058180528143 92.48833698450437 l 9.551554537919936 -3.6586399972926777 a31.22828630419821,31.22828630419821 0 0,0 0.18795771894324728,0.5036332400693184 l -9.613116845364809 3.493683620194026" fill="#ff820c" stroke="none" /><path d="M 119.7369772167798 92.82701384747503 l 7.2708183152778885 -2.642424851596517 a28.73609772883689,28.73609772883689 0 0,0 0.16495466908378648,0.4663490625344944 l -7.315226065171484 2.516878162635408" fill="#ff6008" stroke="none" /><path d="M 119.85752413597 93.16781622104841 l 4.2461052371560655 -1.4609158284979695 a25.490399174122505,25.490399174122505 0 0,0 0.13918086438774877,0.4161330692445728 l -4.270623395315584 1.3876096563310827" fill="#ff3304" stroke="none" /><path d="M 119.97218684219823 93.5106431181261 l 10.880742028294367 -3.535367394622024 a32.44068921443319,32.44068921443319 0 0,0 0.16798795499283375,0.5325677241756239 l -10.939985467055408 3.3475495040199807" fill="#ff920d" stroke="none" /><path d="M 120.08093135843002 93.85539295169968 l 4.821530420376162 -1.475350384692218 a26.04220332317373,26.04220332317373 0 0,0 0.12747547275429946,0.4297839226754227 l -4.8462117902421635 1.3921370752702653" fill="#ff3b05" stroke="none" /><path d="M 120.18372546131832 94.20196356495316 l 4.124329709330033 -1.1847671021224742 a25.29112673286796,25.29112673286796 0 0,0 0.11659598357258731,0.4194577888026992 l -4.144112463468983 1.113598009900823" fill="#ff3004" stroke="none" /><path d="M 120.28053869075195 94.5502522615342 l 9.219986884385387 -2.4775773187314956 a30.54707010126831,30.54707010126831 0 0,0 0.1320850483719127,0.5089775722592201 l -9.261268264627603 2.318503320923425" fill="#ff790b" stroke="none" /><path d="M 120.37134235888165 94.90015583598534 l 24.884113867753708 -6.2295896190567275 a46.65203519811229,46.65203519811229 0 0,0 0.18831249456560317,0.780676863893422 l -24.98765916258013 5.800327523503899" fill="#bdff1f" stroke="none" /><path d="M 120.45610955862082 95.25157060432595 l 23.251905242175923 -5.397410980860025 a44.870130763936686,44.870130763936686 0 0,0 0.1681681498606842,0.7538648413649819 l -23.341367779038645 4.996367969945079" fill="#d1ff1c" stroke="none" /><path d="M 120.53481517161879 95.60439243477599 l 2.7345046723963167 -0.5853380867892239 a23.796450693147182,23.796450693147182 0 0,0 0.08229119066954325,0.4012810708262129 l -2.7441751589808567 0.5381813597995992" fill="#ff1b02" stroke="none" /><path d="M 120.67395015179393 96.31383870115 l 30.47322016717453 -5.433369240363905 a51.95381476747616,51.95381476747616 0 0,0 0.14939972193957296,0.8817656159207141 l -30.56223175063433 4.908017836127352" fill="#82ff25" stroke="none" /><path d="M 120.73433829027371 96.67025291283417 l 6.357817878793383 -1.0210080141585092 a27.43927834037951,27.43927834037951 0 0,0 0.07087710182115507,0.4669915444843977 l -6.374450874053838 0.9114173572820293" fill="#ff4e07" stroke="none" /><path d="M 120.78858239683441 97.02765380044208 l 15.974800833440852 -2.284072941558676 a37.137262806017105,37.137262806017105 0 0,0 0.08503372284542435,0.6336000042533373 l -16.011750555344115 2.0087545952406742" fill="#ffcf13" stroke="none" /><path d="M 120.83666639777658 97.38593545837742 l 8.719546539723803 -1.0939109449365687 a29.787896961950644,29.787896961950644 0 0,0 0.05944763078289608,0.5093109964915464 l -8.737084523510287 0.9436562101201696" fill="#ff6e0a" stroke="none" /><path d="M 120.87857604477298 97.74499172005257 l 26.142720862387772 -2.8235666972028794 a47.29475961065775,47.29475961065775 0 0,0 0.08045260730765401,0.8101467762573896 l -26.187450595377655 2.373144390241055" fill="#b6ff1f" stroke="none" /><path d="M 120.94382443527127 98.46500227214037 l 44.30996894459399 -3.2475301663118503 a65.4288172254449,65.4288172254449 0 0,0 0.07265530233226158,1.1239453690821009 l -44.35930483793067 2.484325732976714" fill="#36ff6e" stroke="none" /><path d="M 120.96714384426684 98.82574320788733 l 28.4772610145597 -1.5948580033353277 a49.52188575361322,49.52188575361322 0 0,0 0.040340037081777975,0.8515144249864014 l -28.500494659874978 1.1044324717259264" fill="#9dff22" stroke="none" /><path d="M 120.98425023603335 99.18683210126433 l 4.241487668149228 -0.16436334755003992 a25.244671123783306,25.244671123783306 0 0,0 0.013089128217262226,0.4343644426410002 l -4.2436884908221355 0.09132875748404062" fill="#ff2f04" stroke="none" /><line stroke="#e1ed5e" stroke-width="0.3" x1="184.98032266829074" x2="189.97916517819016" y1="98.17113171792111" y2="98.06355123074" /><path d="M 185.9800911702706 98.14961562048488 a86.0,86.0 0 0,1 -9.607161424134198,41.387399972396054" fill="none" id="id316" stroke="none" /><text fill="#e1ed5e" style="font-size:6.75px; font-family:Arial;" text-anchor="middle"><textPath startOffset="21.466115282336823" xlink:href="#id316">April</textPath></text><path d="M 120.99513854157772 99.54816195383933 l 24.447244519877067 -0.5261310934432755 a45.45290531904434,45.45290531904434 0 0,0 0.01010135169538709,0.7823608208878697 l -24.45267887869017 0.10523401449494299" fill="#cbff1d" stroke="none" /><path d="M 120.99980553446 99.90962569577887 l 9.90119137118629 -0.04261055082928546 a30.90128305967948,30.90128305967948 0 0,0 -0.002289200467322761,0.531929568448532 l -9.900457873429463 -0.1278284958229313" fill="#ff7d0b" stroke="none" /><path d="M 120.99824983174949 100.27111621757518 l 27.971510919076824 0.3611505864063372 a48.973842296725984,48.973842296725984 0 0,0 -0.018138832164679295,0.8428402555202669 l -27.961150024227138 -0.8425806577167189" fill="#a3ff22" stroke="none" /><path d="M 120.9904718944345 100.63252640178507 l 30.360223250208247 0.9148742756439595 a51.374004522662474,51.374004522662474 0 0,0 -0.03424411858142455,0.8836885402662399 l -30.33997699877562 -1.4373400629242055" fill="#89ff25" stroke="none" /><path d="M 120.9764740272857 100.99374915477107 l 16.71712757002397 0.7919649113240886 a37.73587651165077,37.73587651165077 0 0,0 -0.03632284603609683,0.6485688162823108 l -16.701018373100343 -1.0796054439418228" fill="#ffd614" stroke="none" /><path d="M 120.95626037817324 101.35467743843564 l 62.86878113451971 4.064032315306923 a84.0,84.0 0 0,0 -0.10569376534264929,1.4421074540129188 l -62.789510810512716 -5.145612905816612" fill="#4dd2ff" stroke="none" /><path d="M 120.92983693683757 101.71520430193887 l 11.858016552045619 0.971766816144346 a32.89776816438895,32.89776816438895 0 0,0 -0.05110966514030322,0.5639908959235405 l -11.839532290628242 -1.175739100616457" fill="#ff980e" stroke="none" /><path d="M 120.89721153311464 102.0752229133903 l 9.937042779618753 0.986810074393256 a30.985920755087996,30.985920755087996 0 0,0 -0.05727629188491926,0.5303073280554765 l -9.918584186232781 -1.1577137243335238" fill="#ff7f0b" stroke="none" /><path d="M 120.8583938346157 102.4346265915055 l 31.040839031946515 3.6231386140768715 a52.25157309999017,52.25157309999017 0 0,0 -0.11196390137988319,0.8924624562628961 l -30.973873621319783 -4.156918824627163" fill="#7fff26" stroke="none" /><path d="M 120.81339534386255 102.79330883721812 l 10.880310068473147 1.4602166423990628 a31.977858617638383,31.977858617638383 0 0,0 -0.07791321345849622,0.5449248334615325 l -10.853562803998049 -1.6472869478410048" fill="#ff8c0c" stroke="none" /><path d="M 120.76222939487914 103.15116336523771 l 6.611284421333967 1.003420050392696 a27.686997345393767,27.686997345393767 0 0,0 -0.0755700054686493,0.4705744961904825 l -6.593032661504029 -1.1170737762763836" fill="#ff5207" stroke="none" /><path d="M 120.70491114924044 103.5080841355445 l 12.370687850920184 2.095996137475732 a33.54699636220627,33.54699636220627 0 0,0 -0.10136553657220392,0.5685117606919118 l -12.332775872008792 -2.308626648900862" fill="#ffa10e" stroke="none" /><path d="M 120.64145759157962 103.86396538481128 l 28.374038627410584 5.31146129565662 a49.8668960770819,49.8668960770819 0 0,0 -0.16520206201800855,0.842361755098769 l -28.27840663241691 -5.799086777823334" fill="#99ff23" stroke="none" /><path d="M 120.49622156327973 104.57218783832717 l 3.07002866421627 0.6848456276933083 a24.145487169403204,24.145487169403204 0 0,0 -0.09398278364562455,0.4048753721873785 l -3.057785314640093 -0.7375896572292517" fill="#ff2003" stroke="none" /><path d="M 120.41448212921028 104.9243191809786 l 18.3056804905529 4.415640474735007 a39.83071477730803,39.83071477730803 0 0,0 -0.1665088619518176,0.6651201337764132 l -18.22696031430602 -4.730088447908816" fill="#fff016" stroke="none" /><path d="M 120.32669344350535 105.2749913415812 l 33.30894602342331 8.644022814585893 a55.412280011798245,55.412280011798245 0 0,0 -0.24753964677118478,0.9211871126444813 l -33.15521830031035 -9.216100860405923" fill="#5eff2a" stroke="none" /><path d="M 120.23288151984713 105.62410040840565 l 23.68962458311092 6.584965525654772 a45.58780355913873,45.58780355913873 0 0,0 -0.21666659349486328,0.754244835942303 l -23.57276535272996 -6.991767837101657" fill="#c9ff1d" stroke="none" /><path d="M 120.13307415673323 105.97154293290107 l 2.612630945706614 0.7749158294782967 a23.725130272342934,23.725130272342934 0 0,0 -0.11949921912467462,0.3905303622779819 l -2.598904954075807 -0.8197731643083358" fill="#ff1a02" stroke="none" /><path d="M 120.02730092923936 106.31721596034902 l 28.553439700333875 9.006617798130987 a50.940241864123486,50.940241864123486 0 0,0 -0.270972369110913,0.8339671994420391 l -28.394175080206715 -9.496783897550822" fill="#8dff24" stroke="none" /><path d="M 119.9155931802556 106.66101706037122 l 2.026650841045675 0.6778385009894882 a23.137002261331236,23.137002261331236 0 0,0 -0.1295773147818932,0.3766123305527429 l -2.014682695320551 -0.7126235346315314" fill="#ff1101" stroke="none" /><path d="M 119.79798401119884 107.00284435728193 l 8.606479547455768 3.0442411056030227 a30.129013862943662,30.129013862943662 0 0,0 -0.17715248818622556,0.48744756352228213 l -8.552802798264317 -3.191936466131436" fill="#ff730a" stroke="none" /><path d="M 119.67450827220406 107.3425965602758 l 26.138450700579142 9.75496289664119 a48.8994248353161,48.8994248353161 0 0,0 -0.3010940645616055,0.7860615914198471 l -25.96666235642403 -10.203448054894181" fill="#a4ff21" stroke="none" /><path d="M 119.54520255179757 107.68017299344265 l 28.764077535758446 11.302675983324873 a51.90505849965589,51.90505849965589 0 0,0 -0.33391608143431534,0.8287523298614459 l -28.56525884006674 -11.796127681029132" fill="#83ff25" stroke="none" /><path d="M 119.41010516605496 108.01547362559984 l 13.405477888172552 5.535840920590332 a35.50352964310294,35.50352964310294 0 0,0 -0.23812558640194395,0.5628585450931176 l -13.308201320578299 -5.765773991349613" fill="#ffba11" stroke="none" /><path d="M 119.26925614724726 108.34839909993367 l 27.407679812033177 11.87436856542773 a50.8694081211287,50.8694081211287 0 0,0 -0.3550173940283238,0.8004705016790172 l -27.19922133327358 -12.344387403599436" fill="#8eff24" stroke="none" /><path d="M 119.12269723197855 108.67885076344098 l 1.2720218261413925 0.5773080786145245 a22.396898043456886,22.396898043456886 0 0,0 -0.16235125648878362,0.34969016303102546 l -1.2618959528127776 -0.5991183089243806" fill="#ff0601" stroke="none" /><path d="M 118.97047184881838 109.00673069616215 l 24.68768557884216 11.72112835633065 a48.32886146888212,48.32886146888212 0 0,0 -0.3632644473515075,0.7484323569192727 l -24.482267874875937 -12.144349669215199" fill="#aaff21" stroke="none" /><path d="M 118.81262510543309 109.33194174019688 l 24.245686503636286 12.026994246415287 a48.06477239209517,48.06477239209517 0 0,0 -0.3740385257493526,0.7380134963476049 l -24.035069308100663 -12.442561954465587" fill="#adff20" stroke="none" /><line stroke="#e1ed5e" stroke-width="0.3" x1="174.80103733775053" x2="179.2010983576182" y1="140.37084112569926" y2="142.7455964860345" /><path d="M 175.68104954172406 140.8457921977663 a86.0,86.0 0 0,1 -30.038265399797805,32.042727171017184" fill="none" id="id317" stroke="none" /><text fill="#e1ed5e" style="font-size:6.75px; font-family:Arial;" text-anchor="middle"><textPath startOffset="22.206326154141568" xlink:href="#id317">May</textPath></text><path d="M 118.48025628344425 109.97397251340804 l 5.68541008090298 3.068470642649052 a27.460603677121227,27.460603677121227 0 0,0 -0.22808462342821734,0.4140398431795344 l -5.631749048023254 -3.1658810042263914" fill="#ff4e07" stroke="none" /><path d="M 118.30583269289576 110.29060199501025 l 20.285851331106937 11.40366710875625 a44.27142857142857,44.27142857142857 0 0,0 -0.3791489550501876,0.6610781616905316 l -20.086550379904367 -11.751165116305097" fill="#d8ff1c" stroke="none" /><path d="M 118.12598468904814 110.60418214915192 l 6.821169275053212 3.9905650757041067 a28.90271851342051,28.90271851342051 0 0,0 -0.2549207720474468,0.4272618769669332 l -6.751467627307537 -4.107389046557143" fill="#ff6209" stroke="none" /><path d="M 117.94076556474637 110.91462005526583 l 11.811581468516561 7.185809519411084 a34.825675941402025,34.825675941402025 0 0,0 -0.3159772721096091,0.5094559719944206 l -11.686139556738988 -7.388061822770778" fill="#ffb110" stroke="none" /><path d="M 117.75023020441432 111.22182372390056 l 14.409144589473993 9.109565269472386 a38.047217579392395,38.047217579392395 0 0,0 -0.3547361982895346,0.5505584574031491 l -14.250203527807408 -9.356245326796989" fill="#ffda14" stroke="none" /><path d="M 117.55443506779139 111.5257021239791 l 8.378589320686544 5.501124038253392 a31.023129485792943,31.023129485792943 0 0,0 -0.2969310803374036,0.4438716769663889 l -8.28265513493842 -5.644532629425589" fill="#ff7f0b" stroke="none" /><path d="M 117.35343817320211 111.8261652097733 l 13.156239686097901 8.965823516600585 a36.92082391111985,36.92082391111985 0 0,0 -0.36242024513641696,0.5220933936981647 l -12.999958533799347 -9.190958172485768" fill="#ffcc13" stroke="none" /><path d="M 116.93607887273984 112.41649034213515 l 4.667240034252123 3.4217330496136835 a26.78717431914266,26.78717431914266 0 0,0 -0.2758297449328176,0.36951901879021254 l -4.607649022624214 -3.501564947913211" fill="#ff4506" stroke="none" /><path d="M 116.498646956653 112.99209946851258 l 40.96166772759823 32.255860914613926 a73.13730704945434,73.13730704945434 0 0,0 -0.7873826230678993,0.9823808878901091 l -40.40036719247548 -32.956169636082286" fill="#40ffc2" stroke="none" /><path d="M 116.27256486870786 113.27417163493432 l 12.673490956052836 10.338265388509203 a37.35533870809163,37.35533870809163 0 0,0 -0.4107379587157101,0.4947603308741864 l -12.493656997443583 -10.55488697649716" fill="#ffd213" stroke="none" /><path d="M 116.0416608686014 113.55231037782055 l 13.151111164494662 11.110317178148376 a38.21600629239996,38.21600629239996 0 0,0 -0.42885181605210965,0.49885154777780844 l -12.957916838871773 -11.335045825087713" fill="#ffdc14" stroke="none" /><line stroke="#e1ed5e" stroke-width="0.3" x1="143.8653032363475" x2="146.44561519142675" y1="172.8068346515853" y2="177.08958963109032" /><path d="M 144.38136562736335 173.6633856474863 a86.0,86.0 0 0,1 -40.68145358897372,12.25698825130547" fill="none" id="id318" stroke="none" /><text fill="#e1ed5e" style="font-size:6.75px; font-family:Arial;" text-anchor="middle"><textPath startOffset="21.466115282336833" xlink:href="#id318">June</textPath></text><line stroke="#e1ed5e" stroke-width="0.3" x1="102.19456741930631" x2="102.32365962044197" y1="184.97166512339345" y2="189.96999836594603" /><path d="M 102.22038585953345 185.97133177190398 a86.0,86.0 0 0,1 -42.740103519485714,-10.115201625700543" fill="none" id="id319" stroke="none" /><text fill="#e1ed5e" style="font-size:6.75px; font-family:Arial;" text-anchor="middle"><textPath startOffset="22.20632615414155" xlink:href="#id319">July</textPath></text><line stroke="#e1ed5e" stroke-width="0.3" x1="58.666819895761336" x2="56.23545636021788" y1="174.27360380694188" y2="178.64263932499728" /><path d="M 58.180547188652646 175.14741091055294 a86.0,86.0 0 0,1 -31.652253787137756,-30.449443065178592" fill="none" id="id320" stroke="none" /><text fill="#e1ed5e" style="font-size:6.75px; font-family:Arial;" text-anchor="middle"><textPath startOffset="22.20632615414155" xlink:href="#id320">August</textPath></text><line stroke="#e1ed5e" stroke-width="0.3" x1="26.63291911575756" x2="22.317208475507996" y1="142.92168965132927" y2="145.44649492493687" /><path d="M 25.769776987707644 143.4266507060508 a86.0,86.0 0 0,1 -11.730757126820373,-40.83630448921669" fill="none" id="id321" stroke="none" /><text fill="#e1ed5e" style="font-size:6.75px; font-family:Arial;" text-anchor="middle"><textPath startOffset="21.46611528233685" xlink:href="#id321">September</textPath></text><line stroke="#e1ed5e" stroke-width="0.3" x1="15.007084014347285" x2="10.007500721073583" y1="101.09737516637583" y2="101.16192664675087" /><path d="M 14.007167355692545 101.11028546245083 a86.0,86.0 0 0,1 10.666146001902534,-42.60595125391555" fill="none" id="id322" stroke="none" /><text fill="#e1ed5e" style="font-size:6.75px; font-family:Arial;" text-anchor="middle"><textPath startOffset="22.20632615414155" xlink:href="#id322">October</textPath></text><line stroke="#e1ed5e" stroke-width="0.3" x1="26.266209847984243" x2="21.928928074336255" y1="57.711370442889674" y2="55.22380399835377" /><path d="M 25.398753493254645 57.213857153982495 a86.0,86.0 0 0,1 29.58750427330803,-30.492523968695096" fill="none" id="id323" stroke="none" /><text fill="#e1ed5e" style="font-size:6.75px; font-family:Arial;" text-anchor="middle"><textPath startOffset="21.46611528233685" xlink:href="#id323">November</textPath></text><line stroke="#e1ed5e" stroke-width="0.3" x1="56.762969772571076" x2="54.21961505331055" y1="26.818313649435495" y2="22.513508569990535" /><path d="M 56.25429882871897 25.957352633546506 a86.0,86.0 0 0,1 42.265352541879196,-11.944610805530505" fill="none" id="id324" stroke="none" /><text fill="#e1ed5e" style="font-size:6.75px; font-family:Arial;" text-anchor="middle"><textPath startOffset="22.20632615414155" xlink:href="#id324">December</textPath></text></svg>