<?xml version="1.0" encoding="utf-8" ?>
<svg baseProfile="full" height="200mm" version="1.1" viewBox="0,0,200,200" width="200mm" xmlns="http://www.w3.org/2000/svg" xmlns:ev="http://www.w3.org/2001/xml-events" xmlns:xlink="http://www.w3.org/1999/xlink"><defs /><rect fill="#1a1a1a" height="200" width="200" x="0" y="0" /><text alignment-baseline="middle" fill="#e1ed5e" style="dominant-baseline: central; font-size:9.0px; font-family:Arial;" text-anchor="middle" x="100.0" y="100.0">2026</text><line stroke="#e1ed5e" stroke-width="0.3" x1="100.0" x2="100.0" y1="15.0" y2="10.0" /><path d="M 100.0 14.0 a86.0,86.0 0 0,1 42.46469731375804,11.215312516191453" fill="none" id="id325" stroke="none" /><text fill="#e1ed5e" style="font-size:6.75px; font-family:Arial;" text-anchor="middle"><textPath startOffset="22.20632615414155" xlink:href="#id325">January</textPath></text><path d="M 100.36148047927253 79.00311137660856 l 0.06916548849769365 -4.017533841636973 a25.018129170832797,25.018129170832797 0 0,0 0.43051835807587047,0.011119019036222767 l -0.13831048176843191 4.015748030458391" fill="#ff3304" stroke="none" /><path d="M 100.72285384407766 79.0124445844662 l 0.9582426797880502 -27.821905504621828 a48.83840252136379,48.83840252136379 0 0,0 0.8399255620024056,0.03616896153017645 l -1.4370090741797874 27.801288816567457" fill="#a1ff22" stroke="none" /><path d="M 101.08401301168833 79.027996857942 l 0.3562726796118344 -6.892677187160055 a27.90187865936764,27.90187865936764 0 0,0 0.4794312728081893,0.028920603645804652 l -0.4748660012596356 6.8855233141339465" fill="#ff5b08" stroke="none" /><path d="M 101.44485096284872 79.0497635885617 l 0.19884491458439543 -2.8832371482397137 a23.89008576915038,23.89008576915038 0 0,0 0.41001053753223415,0.03182470884224175 l -0.24844564147897075 2.8793871772090074" fill="#ff2303" stroke="none" /><path d="M 101.80526077348638 79.07773832637324 l 1.585201378618605 -18.371859919606592 a39.44012202552959,39.44012202552959 0 0,0 0.675881376261082,0.06418308068940001 l -1.9012078819699312 18.341851294402016" fill="#fff016" stroke="none" /><path d="M 102.16513564639614 79.11191278185805 l 0.31190198030138616 -3.0090658656379436 a24.025187635348153,24.025187635348153 0 0,0 0.410983207287786,0.046178751980511364 l -0.36365189109889745 3.0032511601868315" fill="#ff2503" stroke="none" /><path d="M 102.52436894288641 79.15227682838746 l 2.083313847394495 -17.205230833020074 a38.33090201357824,38.33090201357824 0 0,0 0.6543363721369878,0.08495164068300477 l -2.3791649480393287 17.16682086917293" fill="#ffe215" stroke="none" /><path d="M 102.88285421437855 79.19881850522331 l 1.3020863200421187 -9.39517986375198 a30.484979359866394,30.484979359866394 0 0,0 0.5191606785752573,0.07651078869066537 l -1.4636159790460317 9.371374590900347" fill="#ff7e0b" stroke="none" /><path d="M 103.59715602781102 79.31037775812273 l 5.315941446120188 -30.57549339807046 a52.03417519435676,52.03417519435676 0 0,0 0.8811241223095084,0.16101980134841026 l -5.841460689532598 30.479458115371312" fill="#7fff26" stroke="none" /><path d="M 103.95276090670814 79.375362276772 l 0.4271283782278095 -2.2286620087008884 a23.269222994884856,23.269222994884856 0 0,0 0.39273305976129386,0.07877855714731274 l -0.46542784745622867 2.2209794954763673" fill="#ff1a02" stroke="none" /><path d="M 104.307194497241 79.44645832069477 l 1.2095659375751335 -5.771939002927118 a26.89731545797351,26.89731545797351 0 0,0 0.4523325073676727,0.098862366229183 l -1.3087411690963342 5.7502631386020635" fill="#ff4d07" stroke="none" /><path d="M 104.66035177308747 79.52364482259891 l 3.4039836638403367 -14.956205435258141 a36.3386826619934,36.3386826619934 0 0,0 0.6087184670226148,0.14406399423936628 l -3.660925817825475 14.895395528877906" fill="#ffc912" stroke="none" /><path d="M 105.01212808612495 79.60689891045804 l 1.7595029537247844 -7.1589793768416214 a28.372030681041004,28.372030681041004 0 0,0 0.473260483691639,0.12064463487723416 l -1.8824723261014484 7.12763174579552" fill="#ff6109" stroke="none" /><path d="M 105.36241919743992 79.69619591428918 l 1.3916530458059853 -5.269235723088771 a26.44991222914424,26.44991222914424 0 0,0 0.43919715353096095,0.12004917282860268 l -1.482148088560657 5.244500009433875" fill="#ff4706" stroke="none" /><path d="M 105.71112130821622 79.79150937346287 l 4.938490229691131 -17.474577780791222 a39.159007527000945,39.159007527000945 0 0,0 0.6470742226719656,0.18889870954144114 l -5.238554670086524 17.386980742331076" fill="#ffec16" stroke="none" /><path d="M 106.0581310904928 79.89281104454417 l 4.923325653735056 -16.340722531450094 a38.06629275333593,38.06629275333593 0 0,0 0.6257638602441691,0.1944278774402522 l -5.203874886689943 16.25355451912732" fill="#ffdf14" stroke="none" /><path d="M 106.74666289553966 80.11325718540242 l 4.658759694399181 -13.732352914621062 a35.50108818199034,35.50108818199034 0 0,0 0.5770076319928544,0.20130663296045895 l -4.894449330455308 13.650125428488396" fill="#ffbf11" stroke="none" /><path d="M 107.08798089147638 80.2323363322302 l 1.8522602873929945 -5.165767084725407 a26.48780627809379,26.48780627809379 0 0,0 0.4278634305257868,0.15758571235067403 l -1.9409060436913579 5.133118104568408" fill="#ff4706" stroke="none" /><path d="M 107.4271985657038 80.35727306442388 l 0.5116565419967111 -1.3531790823058674 a22.446681044929456,22.446681044929456 0 0,0 0.3602337810487663,0.1397651104793472 l -0.5348734880451443 1.3441712679359734" fill="#ff0e01" stroke="none" /><path d="M 107.76421540070413 80.48803036053334 l 1.9432574916162941 -4.8835303016766645 a26.255960224936736,26.255960224936736 0 0,0 0.418490162225335,0.17071264483390722 l -2.0270315234300167 4.849356770659178" fill="#ff4406" stroke="none" /><path d="M 108.43124777332544 80.76684994638697 l 13.32627752293677 -30.399568622052453 a54.192219645953266,54.192219645953266 0 0,0 0.8511220513910114,0.38187365484684316 l -13.847581692794561 30.16567463668908" fill="#68ff28" stroke="none" /><path d="M 108.76106565485865 80.91482961587045 l 1.2103932498750833 -2.636729630356704 a23.901274713456857,23.901274713456857 0 0,0 0.37242942209319246,0.1748606074060954 l -1.2556008832678738 2.615504040310606" fill="#ff2303" stroke="none" /><path d="M 109.08828744355905 81.06846463323043 l 1.1124720671793407 -2.317356753419469 a23.57055177401139,23.57055177401139 0 0,0 0.3642533953849969,0.17873755918029027 l -1.1521967295747693 2.2978640341043466" fill="#ff1e03" stroke="none" /><path d="M 109.41281617654863 81.2277094730956 l 2.468136011957708 -4.922285255269261 a26.506413307023337,26.506413307023337 0 0,0 0.4061028806272671,0.2080216685787451 l -2.5524993801737303 4.879071061378016" fill="#ff4706" stroke="none" /><path d="M 109.73455568895987 81.39251694778311 l 2.184176431853899 -4.175026291632997 a25.711843717834114,25.711843717834114 0 0,0 0.3903975586819682,0.20853685552425616 l -2.255719037064179 4.136810709606986" fill="#ff3c05" stroke="none" /><path d="M 110.05341064243156 81.56283822128135 l 1.1054272151276305 -2.0272662805482633 a23.30906429104796,23.30906429104796 0 0,0 0.3506081864672987,0.1951130761736225 l -1.1401594906669643 2.007937806814461" fill="#ff1b02" stroke="none" /><path d="M 110.36928655335952 81.73862282372117 l 14.411252117061387 -25.379693109825496 a50.18583577577367,50.18583577577367 0 0,0 0.7475377816485919,0.4330221333559956 l -14.84598663117531 25.12786681907945" fill="#92ff23" stroke="none" /><line stroke="#e1ed5e" stroke-width="0.3" x1="143.23703022742887" x2="145.7803849466894" y1="26.81831364943548" y2="22.513508569990506" /><path d="M 143.74570117128098 25.957352633546492 a86.0,86.0 0 0,1 28.547481713284135,27.462654790039103" fill="none" id="id326" stroke="none" /><text fill="#e1ed5e" style="font-size:6.75px; font-family:Arial;" text-anchor="middle"><textPath startOffset="19.985693538727396" xlink:href="#id326">February</textPath></text><path d="M 110.99172775467656 82.1063720568725 l 2.789458395805115 -4.541008639532008 a26.32933744533333,26.32933744533333 0 0,0 0.38413355828466356,0.24054439895737598 l -2.8672111064620416 4.492319899251688" fill="#ff4506" stroke="none" /><path d="M 111.2981086023043 82.29822771554956 l 9.38836949375961 -14.709610674738835 a38.45033317600976,38.45033317600976 0 0,0 0.554843753424362,0.3608858112102912 l -9.640180272968252 14.545825939369015" fill="#ffe415" stroke="none" /><path d="M 111.60114157652 82.49532879139004 l 3.9728859384496156 -5.994587829410102 a28.19158577258468,28.19158577258468 0 0,0 0.40219365498579496,0.27156295120019874 l -4.075484287841952 5.925312965911233" fill="#ff5f08" stroke="none" /><path d="M 111.90073688211348 82.69761687909136 l 1.6037655643773605 -2.3317015161206873 a23.82999928370347,23.82999928370347 0 0,0 0.3359676538880238,0.23536681182688843 l -1.6436643578490353 2.3037498615298633" fill="#ff2203" stroke="none" /><path d="M 112.19680574252982 82.90503203632743 l 12.621245501166163 -17.689860120649097 a42.73078436432607,42.73078436432607 0 0,0 0.5950865725344502,0.4323557027912224 l -12.923877390054402 17.4699851830412" fill="#e7ff1a" stroke="none" /><path d="M 112.48926042617603 83.11751280151076 l 10.45828855255084 -14.137099922785904 a38.585033229290445,38.585033229290445 0 0,0 0.5305512739199151,0.3996002200350616 l -10.700085980229138 13.954983113244996" fill="#ffe515" stroke="none" /><path d="M 112.77801427241765 83.33499621200491 l 3.8714663345200546 -5.049141420129683 a27.362552998584086,27.362552998584086 0 0,0 0.37130651487243693,0.2898106244242844 l -3.9578054045519218 4.981752406482174" fill="#ff5307" stroke="none" /><path d="M 113.06298171725822 83.55741782278167 l 1.801306158570127 -2.2673326182098723 a23.89577296736141,23.89577296736141 0 0,0 0.3198581223714189,0.2586363569829469 l -1.8400676795060373 2.235990163962796" fill="#ff2303" stroke="none" /><path d="M 113.34407831869373 83.78471172551755 l 3.7677707230496855 -4.578471960915961 a26.92946049134017,26.92946049134017 0 0,0 0.3553950956634358,0.2976331720023296 l -3.846023355672239 4.512937631519812" fill="#ff4d07" stroke="none" /><path d="M 113.6212207817346 84.01681056812373 l 10.554240460093672 -12.384383697051273 a37.27159952940299,37.27159952940299 0 0,0 0.48471928408734777,0.42034378665740646 l -10.765853542827783 12.200874916974197" fill="#ffd513" stroke="none" /><path d="M 113.89432698308785 84.25364557470407 l 13.278576573152641 -15.04852831222384 a41.06934976955857,41.06934976955857 0 0,0 0.5260573254565911,0.4722994608832772 l -13.535644886205223 14.817729842571266" fill="#faff18" stroke="none" /><path d="M 114.42810811169701 84.74124197986012 l 3.6108034784873237 -3.818683372066657 a26.25549659464779,26.25549659464779 0 0,0 0.32571413381823056,0.31333673867016776 l -3.6760008559179727 3.7559635466341876" fill="#ff4406" stroke="none" /><path d="M 114.94478906791727 85.2469230424477 l 4.150671220193259 -4.0974263108514055 a26.83240721752159,26.83240721752159 0 0,0 0.3216512279771814,0.3314898643716492 l -4.22058671187355 4.0253722509296415" fill="#ff4c07" stroke="none" /><path d="M 115.4437574822437 85.77008943001954 l 3.9207175171662962 -3.6125573522879986 a26.331284692546884,26.331284692546884 0 0,0 0.3042596991141017,0.33597115909428227 l -3.9823208568964334 3.5445334059241675" fill="#ff4506" stroke="none" /><path d="M 115.9244219780498 86.31012108654704 l 1.731148116334541 -1.4882303499956853 a23.282915542751617,23.282915542751617 0 0,0 0.258650337295228,0.30616041684153483 l -1.7565090671168864 1.4582109835250439" fill="#ff1a02" stroke="none" /><path d="M 116.15771136456269 86.58626213691792 l 13.74070003198301 -11.40719400945011 a38.85863691713823,38.85863691713823 0 0,0 0.4228217681629244,0.5183294927591182 l -13.935020292222344 11.168980347082892" fill="#ffe915" stroke="none" /><path d="M 116.38621287248628 86.86637796730983 l 22.253797167115035 -17.83651677537944 a49.51969177662146,49.51969177662146 0 0,0 0.5273750950517154,0.6697128149362701 l -22.557526342760717 17.450811566490135" fill="#9aff23" stroke="none" /><path d="M 116.60985879189232 87.15038557335679 l 2.44417125319877 -1.8908443828324348 a24.090188601857857,24.090188601857857 0 0,0 0.2509097072269113,0.3301677634053281 l -2.4763569006497947 1.8484918435460733" fill="#ff2603" stroke="none" /><path d="M 117.04232023915458 87.72973835380427 l 7.352958064662879 -5.2940396648358155 a30.060510375996806,30.060510375996806 0 0,0 0.29872615036785566,0.4225269547378772 l -7.442996834834617 5.166686209766145" fill="#ff780b" stroke="none" /><path d="M 117.45458315368197 88.32363383020206 l 5.508482438439483 -3.6849380718412066 a27.627378619627898,27.627378619627898 0 0,0 0.2610173749702239,0.39754736945242736 l -5.571096448767632 3.589572638411105" fill="#ff5708" stroke="none" /><line stroke="#e1ed5e" stroke-width="0.3" x1="172.23445277983987" x2="176.4835382374775" y1="55.19839476539836" y2="52.563006222186495" /><path d="M 173.08426987136738 54.67131705675599 a86.0,86.0 0 0,1 12.851231095245387,41.99856678651699" fill="none" id="id327" stroke="none" /><text fill="#e1ed5e" style="font-size:6.75px; font-family:Arial;" text-anchor="middle"><textPath startOffset="22.20632615414155" xlink:href="#id327">March</textPath></text><path d="M 117.84615892207809 88.93136811851018 l 16.24841505079089 -10.077671371197269 a40.11989675517671,40.11989675517671 0 0,0 0.3589473702231186,0.5900150977906291 l -16.41947821930023 9.796488500199558" fill="#fff817" stroke="none" /><path d="M 118.03404312379186 89.2402003453031 l 2.546454716504694 -1.5193122469137956 a23.96525569333089,23.96525569333089 0 0,0 0.2083155036029744,0.3560787221201076 l -2.572229894577996 1.4752541124397927" fill="#ff2403" stroke="none" /><path d="M 118.21658344932153 89.55222093294921 l 8.148120546326277 -4.673201400061918 a30.39311874528397,30.39311874528397 0 0,0 0.25637660681041774,0.45606537624518595 l -8.227354794429129 4.5322525138819385" fill="#ff7c0b" stroke="none" /><path d="M 118.3937258080291 89.86733742301442 l 14.298561599254086 -7.876734791721315 a37.32457701708613,37.32457701708613 0 0,0 0.3051584559014438,0.565412273247969 l -14.432028154373995 7.629441535140888" fill="#ffd614" stroke="none" /><path d="M 118.56541770881063 90.18545643968196 l 13.863305332518692 -7.32878819157529 a36.681274536835794,36.681274536835794 0 0,0 0.2902896098898158,0.5607471289800631 l -13.987404375568625 7.089068340334882" fill="#ffce13" stroke="none" /><path d="M 118.89224826269711 90.83032412892265 l 32.358011122078125 -15.705514224478678 a56.96809782059421,56.96809782059421 0 0,0 0.4205922275954495,0.885874495706983 l -32.623561543515336 15.146197313131154" fill="#4cff2c" stroke="none" /><path d="M 119.04729006885535 91.15688171328212 l 26.875514326850816 -12.477541495382141 a50.630766309728585,50.630766309728585 0 0,0 0.36019615128779436,0.7936444735534963 l -27.086312795101957 12.013075012986583" fill="#8eff24" stroke="none" /><path d="M 119.196687751892 91.48605970444005 l 2.6502716203228114 -1.1754243562263191 a23.899234740185513,23.899234740185513 0 0,0 0.16354962189596212,0.3774950765259578 l -2.6701119520614545 1.1296301351137585" fill="#ff2303" stroke="none" /><path d="M 119.34039704204932 91.81776055985345 l 11.887093602871957 -5.029009792025788 a33.9071272486069,33.9071272486069 0 0,0 0.22278324858561097,0.5394873074588233 l -11.971898538343765 4.8236479141136615" fill="#ffaa0f" stroke="none" /><path d="M 119.47837535516314 92.15188598940014 l 6.171509983868466 -2.4865890038470986 a27.65362009398203,27.65362009398203 0 0,0 0.17409461645454485,0.443051809469247 l -6.213398150204711 2.3799881894820674" fill="#ff5708" stroke="none" /><path d="M 119.61058180528143 92.48833698450437 l 7.901288523683556 -3.026519935381495 a29.46109822976634,29.46109822976634 0 0,0 0.17732131590215983,0.4751329680060917 l -7.952214428087341 2.89006383034607" fill="#ff700a" stroke="none" /><path d="M 119.85752413597 93.16781622104841 l 1.8807957990785364 -0.6471069838312935 a22.989004848248165,22.989004848248165 0 0,0 0.12552292901876347,0.37529758090613324 l -1.89165602186907 0.6146363000028463" fill="#ff1602" stroke="none" /><path d="M 119.97218684219823 93.5106431181261 l 6.249305299764842 -2.0305223796662846 a27.570908450434732,27.570908450434732 0 0,0 0.1427707191196953,0.45262219522665753 l -6.283331502652744 1.9226500180132078" fill="#ff5608" stroke="none" /><path d="M 120.28053869075195 94.5502522615342 l 23.9358896228279 -6.432006680357895 a45.78502616444794,45.78502616444794 0 0,0 0.19797372957838283,0.7628735386323686 l -24.04305968427659 6.019036716176675" fill="#c3ff1e" stroke="none" /><path d="M 120.37134235888165 94.90015583598534 l 6.578268249388288 -1.6468302554612533 a27.781272966870795,27.781272966870795 0 0,0 0.11214003402816353,0.4648928382790335 l -6.605641083677272 1.5333521855228136" fill="#ff5908" stroke="none" /><path d="M 120.45610955862082 95.25157060432595 l 0.8293595139905002 -0.19251730562592625 a21.85141066261354,21.85141066261354 0 0,0 0.08189660338434336,0.36712641466184504 l -0.8325505043768812 0.17821272141411737" fill="#ff0600" stroke="none" /><path d="M 120.6074358757038 95.95851677861258 l 28.268574718222478 -5.54396826006531 a49.80708073839379,49.80708073839379 0 0,0 0.15775628187987878,0.8427403659020686 l -28.359816724012216 5.056549816700679" fill="#97ff23" stroke="none" /><path d="M 120.67395015179393 96.31383870115 l 2.14626441547745 -0.38267852864806184 a23.180113253350157,23.180113253350157 0 0,0 0.06665732805334394,0.39341532342582836 l -2.1525336050510173 0.34567741690639564" fill="#ff1902" stroke="none" /><path d="M 120.73433829027371 96.67025291283417 l 18.49883730267057 -2.9707458594623324 a39.73585633250289,39.73585633250289 0 0,0 0.10263981072290272,0.676268110623678 l -18.54723300683277 2.6518786364465723" fill="#fff316" stroke="none" /><path d="M 120.78858239683441 97.02765380044208 l 6.327535004454227 -0.9047093382338142 a27.391885341531168,27.391885341531168 0 0,0 0.06271959240808703,0.4673338140065907 l -6.34217059592015 0.7956571821625591" fill="#ff5407" stroke="none" /><path d="M 120.83666639777658 97.38593545837742 l 10.502538085756845 -1.3175961971511525 a31.584864948667047,31.584864948667047 0 0,0 0.06303383525847399,0.5400354063801325 l -10.523662274018909 1.1366170524461674" fill="#ff8c0c" stroke="none" /><path d="M 120.91429891909075 98.10471618934814 l 22.882483699636822 -2.0736435426883673 a43.97624986385459,43.97624986385459 0 0,0 0.06182959413872288,0.7544776571114553 l -22.91478777759504 1.6794519683691431" fill="#d8ff1c" stroke="none" /><path d="M 120.94382443527127 98.46500227214037 l 22.75036187032051 -1.6674009986502312 a43.811382933106735,43.811382933106735 0 0,0 0.04865026463234695,0.7525980607455964 l -22.775692725957274 1.2755438736515996" fill="#daff1c" stroke="none" /><path d="M 120.96714384426684 98.82574320788733 l 4.739528998140331 -0.26543549082404067 a25.746955985050008,25.746955985050008 0 0,0 0.020973215041675625,0.4427114211651448 l -4.743395821415503 0.18381296303589614" fill="#ff3d05" stroke="none" /><path d="M 120.98425023603335 99.18683210126433 l 19.315979991458427 -0.7485201846622458 a40.330477632414286,40.330477632414286 0 0,0 0.02091097920054758,0.6939335970095061 l -19.32600266511462 0.41591644022774066" fill="#fffb17" stroke="none" /><line stroke="#e1ed5e" stroke-width="0.3" x1="184.98032266829074" x2="189.97916517819016" y1="98.17113171792111" y2="98.06355123074" /><path d="M 185.9800911702706 98.14961562048488 a86.0,86.0 0 0,1 -9.607161424134198,41.387399972396054" fill="none" id="id328" stroke="none" /><text fill="#e1ed5e" style="font-size:6.75px; font-family:Arial;" text-anchor="middle"><textPath startOffset="21.466115282336823" xlink:href="#id328">April</textPath></text><path d="M 120.99513854157772 99.54816195383933 l 10.845819220477463 -0.23341373794164494 a31.848330587529965,31.848330587529965 0 0,0 0.007077901531649735,0.5481912737474287 l -10.848230129126827 0.04668620613375351" fill="#ff900d" stroke="none" /><path d="M 120.99980553446 99.90962569577887 l 23.218698943818346 -0.09992348541152479 a44.21891395708697,44.21891395708697 0 0,0 -0.0032757849665844396,0.7611770609339875 l -23.21697886156226 -0.2997630537261474" fill="#d5ff1c" stroke="none" /><path d="M 120.9904718944345 100.63252640178507 l 30.968500304076027 0.9332040825252153 a51.98255768885453,51.98255768885453 0 0,0 -0.03464975888491674,0.8941563140772034 l -30.94784841233991 -1.4661376436164248" fill="#7fff26" stroke="none" /><path d="M 120.9764740272857 100.99374915477107 l 21.38198421493437 1.0129599814191812 a42.40596498389314,42.40596498389314 0 0,0 -0.04081806173619691,0.7288339123226995 l -21.361379802310644 -1.380865610077304" fill="#ebff1a" stroke="none" /><path d="M 120.92983693683757 101.71520430193887 l 29.868131356318294 2.4476993083049354 a50.9682582513926,50.9682582513926 0 0,0 -0.07918380964314141,0.8737867411316298 l -29.821572950398078 -2.9614674379851356" fill="#8aff24" stroke="none" /><path d="M 120.89721153311464 102.0752229133903 l 9.975977343682809 0.9906765184564056 a31.025046829112252,31.025046829112252 0 0,0 -0.05734861493943932,0.530976949718073 l -9.957446427242319 -1.16224979005927" fill="#ff850c" stroke="none" /><path d="M 120.8583938346157 102.4346265915055 l 24.306320017760655 2.837074298533736 a45.471333910949625,45.471333910949625 0 0,0 -0.09743530469168324,0.7766552458441498 l -24.253883203822124 -3.2550472986652808" fill="#c7ff1e" stroke="none" /><path d="M 120.81339534386255 102.79330883721812 l 0.458193236431067 0.06149286050312197 a21.46230121544728,21.46230121544728 0 0,0 -0.05229233376456717,0.3657324605556273 l -0.4570668516498985 -0.06937079303915861" fill="#ff0000" stroke="none" /><path d="M 120.76222939487914 103.15116336523771 l 38.50277130472716 5.843713605510328 a59.94370792371147,59.94370792371147 0 0,0 -0.16361277025078455,1.0188168765322205 l -38.39647678011509 -6.505609711735754" fill="#2fff30" stroke="none" /><path d="M 120.70491114924044 103.5080841355445 l 20.37302503397754 3.451851852905413 a41.66338380443731,41.66338380443731 0 0,0 -0.12588999650377972,0.7060579560478356 l -20.310588595134572 -3.802028559686467" fill="#f3ff19" stroke="none" /><path d="M 120.64145759157962 103.86396538481128 l 2.9749651570053226 0.5568968342806132 a24.02664034358684,24.02664034358684 0 0,0 -0.07959690376537852,0.4058628974553784 l -2.96493832026428 -0.6080234588039366" fill="#ff2503" stroke="none" /><path d="M 120.5718875245553 104.21870165774334 l 23.121868109413334 4.741629235862423 a44.603047105818575,44.603047105818575 0 0,0 -0.16071106833717663,0.7507886078017383 l -23.036823002351714 -5.13893166308033" fill="#d1ff1c" stroke="none" /><path d="M 120.49622156327973 104.57218783832717 l 2.936958271087811 0.6551609938096961 a24.009146027350752,24.009146027350752 0 0,0 -0.09345209565554125,0.4025891822154947 l -2.925245609501717 -0.7056188333737557" fill="#ff2503" stroke="none" /><path d="M 120.41448212921028 104.9243191809786 l 17.03992525216863 4.110318852596904 a38.52865578615507,38.52865578615507 0 0,0 -0.16106571683069296,0.643377474745001 l -16.966648221042874 -4.403024166739301" fill="#ffe515" stroke="none" /><path d="M 120.32669344350535 105.2749913415812 l 5.913499686521886 1.5346155404735995 a27.109379952135694,27.109379952135694 0 0,0 -0.12110395630911946,0.4506728732037901 l -5.88620765387099 -1.6361793468529378" fill="#ff5007" stroke="none" /><path d="M 120.23288151984713 105.62410040840565 l 24.00322813047713 6.672137381877508 a45.9132972110553,45.9132972110553 0 0,0 -0.21821357745239217,0.75963009004369 l -23.884821916138637 -7.084324947425779" fill="#c2ff1e" stroke="none" /><path d="M 120.13307415673323 105.97154293290107 l 13.301233595189688 3.9451942041179775 a34.87398185316706,34.87398185316706 0 0,0 -0.17565398172247806,0.5740473755404227 l -13.231352840961078 -4.173568552210457" fill="#ffb711" stroke="none" /><path d="M 120.02730092923936 106.31721596034902 l 2.3767915928272636 0.7497118976581942 a23.492229163866078,23.492229163866078 0 0,0 -0.12496495421456924,0.3846025823100418 l -2.3635343875964474 -0.7905133799460312" fill="#ff1d02" stroke="none" /><path d="M 119.9155931802556 106.66101706037122 l 23.040180637972632 7.706074075449695 a45.29472167954856,45.29472167954856 0 0,0 -0.25367021806615886,0.7372843940972642 l -22.90411958896324 -8.101531172636259" fill="#c9ff1d" stroke="none" /><path d="M 119.79798401119884 107.00284435728193 l 7.329198213694913 2.5924475100667714 a28.774183593669505,28.774183593669505 0 0,0 -0.16918636110474394,0.4655282031094882 l -7.283487591584942 -2.7182235101823906" fill="#ff6709" stroke="none" /><path d="M 119.67450827220406 107.3425965602758 l 25.679983238450312 9.583861206888596 a48.41006995175301,48.41006995175301 0 0,0 -0.29808090333524545,0.7781951782700371 l -25.51120805552156 -10.024479951991776" fill="#a6ff21" stroke="none" /><path d="M 119.41010516605496 108.01547362559984 l 34.10200889109126 14.082548781062027 a57.89532748979278,57.89532748979278 0 0,0 -0.3883095271660599,0.9178490174405745 l -33.85454838273289 -14.667472324168765" fill="#43ff2d" stroke="none" /><path d="M 119.26925614724726 108.34839909993367 l 18.085805103033696 7.835669311257341 a40.710252656429844,40.710252656429844 0 0,0 -0.28411668903057974,0.640608129148582 l -17.948247329271844 -8.145825776898612" fill="#ffff18" stroke="none" /><path d="M 119.12269723197855 108.67885076344098 l 0.6996431388003931 0.3175335736195089 a21.76832811483509,21.76832811483509 0 0,0 -0.1577948613350973,0.3398760932259271 l -0.6940736606254645 -0.3295297341242666" fill="#ff0400" stroke="none" /><path d="M 118.97047184881838 109.00673069616215 l 22.595562716569265 10.727837975683128 a46.012915905806025,46.012915905806025 0 0,0 -0.34585661568535686,0.7125670676575792 l -22.407552844269194 -11.115193999305983" fill="#c1ff1e" stroke="none" /><path d="M 118.81262510543309 109.33194174019688 l 3.5287689737922867 1.750434418029926 a24.939064752225182,24.939064752225182 0 0,0 -0.19407500648071474,0.3829283996870857 l -3.498115297525303 -1.810917029419706" fill="#ff3204" stroke="none" /><path d="M 118.64920377521936 109.65438752849418 l 19.90320609318264 10.30356400193347 a43.41207361958375,43.41207361958375 0 0,0 -0.3492552833707125,0.6606593758473476 l -19.722898301587037 -10.644638392866952" fill="#dfff1b" stroke="none" /><line stroke="#e1ed5e" stroke-width="0.3" x1="174.80103733775053" x2="179.2010983576182" y1="140.37084112569926" y2="142.7455964860345" /><path d="M 175.68104954172406 140.8457921977663 a86.0,86.0 0 0,1 -30.038265399797805,32.042727171017184" fill="none" id="id329" stroke="none" /><text fill="#e1ed5e" style="font-size:6.75px; font-family:Arial;" text-anchor="middle"><textPath startOffset="22.206326154141568" xlink:href="#id329">May</textPath></text><path d="M 118.48025628344425 109.97397251340804 l 0.7344005623217151 0.39636306499657636 a21.834534520096042,21.834534520096042 0 0,0 -0.18135513852143392,0.32921225457729714 l -0.7274690143487716 -0.40894583797167855" fill="#ff0500" stroke="none" /><path d="M 118.30583269289576 110.29060199501025 l 35.748096798066925 20.09574993934976 a62.009335404378824,62.009335404378824 0 0,0 -0.5310597710664338,0.9259474740156453 l -35.39688503084811 -20.70811725922372" fill="#32ff48" stroke="none" /><path d="M 118.12598468904814 110.60418214915192 l 20.35216175812144 11.906554822509746 a44.57915469159509,44.57915469159509 0 0,0 -0.39318628543288137,0.6590028304183924 l -20.14419459699033 -12.255119746814241" fill="#d1ff1c" stroke="none" /><path d="M 117.75023020441432 111.22182372390056 l 19.73188706890736 12.474641504768988 a44.344465039332526,44.344465039332526 0 0,0 -0.41344907575465367,0.6416821470710206 l -19.514233129775658 -12.812445251761462" fill="#d4ff1c" stroke="none" /><path d="M 117.55443506779139 111.5257021239791 l 9.71420071307741 6.378045397593206 a32.62089319233739,32.62089319233739 0 0,0 -0.3122237252565888,0.46673210618726096 l -9.602973882410101 -6.544314417986273" fill="#ff9a0e" stroke="none" /><path d="M 117.35343817320211 111.8261652097733 l 19.065290600991673 12.992772623458817 a44.071572251261124,44.071572251261124 0 0,0 -0.4326130439911114,0.6232113556746702 l -18.838816649838424 -13.319025241320507" fill="#d7ff1c" stroke="none" /><path d="M 117.14729908036423 112.12312394758627 l 1.8514431116850134 1.3089684981680192 a23.267430291100947,23.267430291100947 0 0,0 -0.23402625985583478,0.32504200642463915 l -1.828637059453576 -1.3406441100437894" fill="#ff1a02" stroke="none" /><path d="M 116.93607887273984 112.41649034213515 l 38.21370109342995 28.01593297534359 a68.38332461675682,68.38332461675682 0 0,0 -0.7041487378240869,0.9433223046575266 l -37.72579108891077 -28.66956815951043" fill="#3aff91" stroke="none" /><path d="M 116.71984013943494 112.70617746262583 l 15.648964574525802 11.892369743493832 a40.654987925987925,40.654987925987925 0 0,0 -0.4282193416814413,0.5535312236714267 l -15.441938415626293 -12.159978961278512" fill="#ffff18" stroke="none" /><path d="M 116.498646956653 112.99209946851258 l 2.4019686846985917 1.891465170073992 a24.057301760028885,24.057301760028885 0 0,0 -0.2589964291539889,0.32313786789110094 l -2.369054343489749 -1.9325308715433431" fill="#ff2503" stroke="none" /><path d="M 116.27256486870786 113.27417163493432 l 20.62847710696798 16.827460691938846 a47.621373012890395,47.621373012890395 0 0,0 -0.5236174056780025,0.6307308963962643 l -20.335763701396434 -17.18005284544888" fill="#afff20" stroke="none" /><path d="M 116.0416608686014 113.55231037782055 l 4.067006353361335 3.4358868985444633 a26.324082968725314,26.324082968725314 0 0,0 -0.29540320620287674,0.3436206659666476 l -4.007260637587679 -3.505384663672639" fill="#ff4506" stroke="none" /><path d="M 115.80600337817218 113.82643327865902 l 20.305164572355423 17.762112056712038 a47.97762652691361,47.97762652691361 0 0,0 -0.5490951405057531,0.6169142112758322 l -19.99641058220133 -18.10900043772874" fill="#abff21" stroke="none" /><path d="M 115.32070863581623 114.36230785411682 l 26.51975938064593 24.860791853421144 a57.35046917422785,57.35046917422785 0 0,0 -0.6813603016339284,0.7144035522205859 l -26.087892527633034 -25.31360252222424" fill="#48ff2c" stroke="none" /><path d="M 114.55890576462653 115.13401014063108 l 15.06953052989303 15.664805552081342 a42.73653337990896,42.73653337990896 0 0,0 -0.5345407562506279,0.5054416493867211 l -14.797653939251594 -15.921881838213984" fill="#e7ff1a" stroke="none" /><path d="M 114.29624159901734 115.38237550388516 l 7.548560500278786 8.122050213327725 a32.08821289902868,32.08821289902868 0 0,0 -0.4078265942644735,0.3725399243853765 l -7.407634356547448 -8.250782904299685" fill="#ff930d" stroke="none" /><path d="M 114.0293411484842 115.62618273729858 l 16.518933140136422 18.39914398980015 a45.72657783935529,45.72657783935529 0 0,0 -0.5902161237509245,0.5207971059581848 l -16.19977466347891 -18.680764237530624" fill="#c4ff1e" stroke="none" /><path d="M 113.48314897796784 116.09983520530334 l 19.88753592538254 23.74712699247107 a51.974830517372155,51.974830517372155 0 0,0 -0.6908441791059787,0.5685177269719651 l -19.47582161773187 -24.085939838300213" fill="#7fff26" stroke="none" /><path d="M 113.20401910651253 116.32954008644616 l 18.260929450181155 22.5834707650054 a50.04263583386238,50.04263583386238 0 0,0 -0.6744853865451875,0.5358519834679744 l -17.869486570918617 -22.8944566624785" fill="#94ff23" stroke="none" /><path d="M 112.92097659922987 116.55440617244103 l 1.8659536325359136 2.3906671523406673 a24.03266753734309,24.03266753734309 0 0,0 -0.32829913781574993,0.25172577948371194 l -1.8245257662266698 -2.4224322736517507" fill="#ff2503" stroke="none" /><path d="M 112.63410532772338 116.77436683061366 l 14.822549450812886 19.67997538434725 a45.63756082387839,45.63756082387839 0 0,0 -0.631569575659809,0.4672200733770249 l -14.481594904734514 -19.932205406464046" fill="#c5ff1e" stroke="none" /><path d="M 112.34349029814194 116.9893568818739 l 4.6905289778855 6.455959282607733 a28.980004533273934,28.980004533273934 0 0,0 -0.40609635109323616,0.28973896397816196 l -4.578705298943379 -6.535742508430114" fill="#ff6909" stroke="none" /><path d="M 112.04921762599082 117.19931262002967 l 14.667516561464142 20.93672888403324 a46.563306876152325,46.563306876152325 0 0,0 -0.6604076372501871,0.4542343948190214 l -14.304952039591072 -21.186104068217357" fill="#bbff1f" stroke="none" /><path d="M 111.7513745106137 117.40417183066458 l 2.251303918314478 3.3342550866713356 a25.023136377953374,25.023136377953374 0 0,0 -0.3590525765503697,0.23796046919900513 l -2.193576643024144 -3.3725135769616594" fill="#ff3304" stroke="none" /><path d="M 111.45004920935366 117.60387380957326 l 23.96213092646325 36.84056909496401 a64.94782417569479,64.94782417569479 0 0,0 -0.9424182830376439,0.6014959372124208 l -23.324430841378675 -37.247579461000235" fill="#36ff6a" stroke="none" /><path d="M 111.1453310114006 117.79835938074945 l 15.65603986920425 25.001664265189152 a50.49906439898305,50.49906439898305 0 0,0 -0.740702962802125,0.4550002570792405 l -15.223357706469816 -25.26745298909677" fill="#8fff24" stroke="none" /><line stroke="#e1ed5e" stroke-width="0.3" x1="143.8653032363475" x2="146.44561519142675" y1="172.8068346515853" y2="177.08958963109032" /><path d="M 144.38136562736335 173.6633856474863 a86.0,86.0 0 0,1 -40.68145358897372,12.25698825130547" fill="none" id="id330" stroke="none" /><text fill="#e1ed5e" style="font-size:6.75px; font-family:Arial;" text-anchor="middle"><textPath startOffset="21.466115282336833" xlink:href="#id330">June</textPath></text><path d="M 110.8373102113329 117.98757091392108 l 1.5361746937187246 2.5497148924039155 a23.976722815810724,23.976722815810724 0 0,0 -0.3553488803679589,0.20994638205182412 l -1.4920579423223834 -2.5757798467494895" fill="#ff2403" stroke="none" /><path d="M 110.5260780823613 118.17145234162733 l 12.088214787658035 20.868211045989767 a45.11653310516509,45.11653310516509 0 0,0 -0.6753541816118661,0.3834837299806576 l -11.727211839124971 -21.073197941765052" fill="#cbff1d" stroke="none" /><path d="M 110.21172684928248 118.3499491758327 l 5.3280476493935005 9.574228239335955 a31.95691280120024,31.95691280120024 0 0,0 -0.48297119648589126,0.2633544048164553 l -5.162453641038961 -9.664523295912181" fill="#ff910d" stroke="none" /><path d="M 109.89434966115114 118.52300852407294 l 11.787796409940206 22.06769124388876 a46.01869583007483,46.01869583007483 0 0,0 -0.7019146156304281,0.36720855236437994 l -11.406190891783282 -22.267329215197854" fill="#c1ff1e" stroke="none" /><path d="M 109.2508944713604 118.85261126421891 l 26.36676620291349 53.733441134473836 a80.8538975852957,80.8538975852957 0 0,0 -1.2547267126597352,0.6023450716934314 l -25.437926822253523 -54.17934048266683" fill="#49efff" stroke="none" /><path d="M 108.92500713936063 119.00905698771935 l 10.848519308656837 23.105877513662666 a46.52590736617765,46.52590736617765 0 0,0 -0.7278690283690346,0.3341289712027962 l -10.449182284520383 -23.28919355519954" fill="#bbff1f" stroke="none" /><path d="M 108.59647513512805 119.15986991738527 l 1.2328999855521234 2.7478941046193124 a24.01180417434069,24.01180417434069 0 0,0 -0.3785624726805165,0.16595066309757223 l -1.1854168382138532 -2.768709321011339" fill="#ff2503" stroke="none" /><path d="M 108.2653958097858 119.30500536409082 l 10.635637438778867 24.841041195276052 a48.022104125966145,48.022104125966145 0 0,0 -0.7627020143330685,0.3188095038481875 l -10.206463964948336 -25.020435742144212" fill="#aaff21" stroke="none" /><path d="M 107.93186726928326 119.44442032107085 l 2.1710286972896404 5.322125684412924 a26.747902870190387,26.747902870190387 0 0,0 -0.4278122301988678,0.17023531543432913 l -2.0790953910489067 -5.358707844253322" fill="#ff4b07" stroke="none" /><path d="M 107.59598834532513 119.57807347666477 l 9.370731706955826 24.152337463998688 a46.90648601602737,46.90648601602737 0 0,0 -0.755260941024314,0.28557506278561656 l -8.953600545171238 -24.310060776890936" fill="#b7ff1f" stroke="none" /><path d="M 106.91757812671514 119.82793768551818 l 16.28191969184877 46.66906294904258 a70.42774873887655,70.42774873887655 0 0,0 -1.1480738111623563,0.3894889703820288 l -15.476176147749186 -46.94241490632273" fill="#3cffa7" stroke="none" /><path d="M 106.57524785965236 119.94407469862006 l 6.830230163852042 20.71748829919169 a42.8143614510794,42.8143614510794 0 0,0 -0.7019081319603766,0.22472881832547031 l -6.4726006868007255 -20.831989964176866" fill="#e6ff1a" stroke="none" /><path d="M 106.2309692047433 120.05430185196036 l 0.865522611421182 2.785674449477951 a23.91703814328089,23.91703814328089 0 0,0 -0.39420406850746254,0.11877045213601573 l -0.8174435684734737 -2.8001602707196924" fill="#ff2303" stroke="none" /><path d="M 105.88484417918355 120.15858648285463 l 7.075023629272146 24.235556856954823 a46.24714192777965,46.24714192777965 0 0,0 -0.7660923448055819,0.2165053489316565 l -6.656800116361959 -24.353750999225" fill="#beff1f" stroke="none" /><path d="M 105.53697534728816 120.25689768951611 l 2.4022847523971884 8.788703831637607 a30.111107894863366,30.111107894863366 0 0,0 -0.5011485707994723,0.13235789241662083 l -2.250645738786219 -8.828753073357811" fill="#ff790b" stroke="none" /><path d="M 105.18746579009965 120.34920634021253 l 6.103836757055362 23.94391378413449 a45.70967078815187,45.70967078815187 0 0,0 -0.7641061802690433,0.18779870849912791 l -5.690777292043107 -24.045433750947648" fill="#c4ff1e" stroke="none" /><path d="M 104.48393922423573 120.51570834832081 l 9.405756487127539 43.03487340824193 a65.05075009983996,65.05075009983996 0 0,0 -1.095976705987958,0.22967257472168986 l -8.663588319710202 -43.190401963690164" fill="#36ff6b" stroke="none" /><path d="M 104.13013068566511 120.58985236759428 l 3.426603310969629 17.082572360252726 a38.42285535421845,38.42285535421845 0 0,0 -0.6495884757797399,0.12449517741678977 l -3.1320472206181846 -17.139024736017983" fill="#ffe315" stroke="none" /><path d="M 103.7750983002368 120.6578951692458 l 0.5412106120355475 2.961584361184017 a24.01062964427537,24.01062964427537 0 0,0 -0.4072100211148743,0.07079868181805708 l -0.4901516194486233 -2.9704616215230804" fill="#ff2503" stroke="none" /><path d="M 103.41894727170886 120.7198165907248 l 3.8391788327577716 23.266542286852722 a44.58116375618051,44.58116375618051 0 0,0 -0.7582282310620708,0.11841965594074329 l -3.438114738087184 -23.329180250140574" fill="#d1ff1c" stroke="none" /><path d="M 103.06178313531738 120.77559828337769 l 0.4406778656076827 2.990200776350052 a24.022498579672288,24.022498579672288 0 0,0 -0.40960809093502953,0.056767949046170225 l -0.3891411834858227 -2.997343290888825" fill="#ff2503" stroke="none" /><path d="M 102.70371172650421 120.8252237178851 l 2.928881535672061 22.559584524352058 a43.74891647884324,43.74891647884324 0 0,0 -0.7476326854986861,0.09052790640128168 l -2.5401214271219947 -22.606657959478692" fill="#dbff1b" stroke="none" /><path d="M 101.98527174616119 120.90594882070398 l 4.0983773898275455 43.1580553772251 a64.35221379783364,64.35221379783364 0 0,0 -1.1036578792952834,0.09522824577576161 l -3.354875192790721 -43.22220787527952" fill="#35ff63" stroke="none" /><path d="M 101.62511606390274 120.93702456842531 l 2.195519075753471 28.285756230299715 a49.37083554518507,49.37083554518507 0 0,0 -0.8478553251929998,0.05847306726776122 l -1.7083009897815407 -28.319357642083762" fill="#9bff22" stroke="none" /><path d="M 101.26447882468166 120.96189622390904 l 0.17786845717623825 2.9486141389309286 a23.953974022966626,23.953974022966626 0 0,0 -0.41179383005735787,0.02128503733722635 l -0.1270865587054008 -2.9512389830303567" fill="#ff2403" stroke="none" /><path d="M 100.90346689309514 120.98055641714683 l 1.0659255293528331 24.75321550350283 a45.776155371586185,45.776155371586185 0 0,0 -0.7875234911587207,0.027123901360337935 l -0.6396816865194601 -24.76789620328926" fill="#c3ff1e" stroke="none" /><line stroke="#e1ed5e" stroke-width="0.3" x1="102.19456741930631" x2="102.32365962044197" y1="184.97166512339345" y2="189.96999836594603" /><path d="M 102.22038585953345 185.97133177190398 a86.0,86.0 0 0,1 -42.740103519485714,-10.115201625700543" fill="none" id="id331" stroke="none" /><text fill="#e1ed5e" style="font-size:6.75px; font-family:Arial;" text-anchor="middle"><textPath startOffset="22.20632615414155" xlink:href="#id331">July</textPath></text><path d="M 100.54218724476979 120.99299961872073 l 0.07905366684257985 3.06088646292184 a24.06190715423238,24.06190715423238 0 0,0 -0.41414015159998013,0.007129798284474367 l -0.026353825349931755 -3.061793738485474" fill="#ff2503" stroke="none" /><path d="M 100.18074693466247 120.99922214144158 l 0.24783710602596257 28.79377431241183 a49.79484089876571,49.79484089876571 0 0,0 -0.8571680813768162,0.0 l 0.24783710602594272 -28.79377431241183" fill="#97ff23" stroke="none" /><path d="M 99.45781275523022 120.99299961872073 l -1.6265617343093406 62.97899885616221 a84.0,84.0 0 0,0 -1.445118593301428,-0.04977280629562486 l 2.7104006792854114 -62.94166925144049" fill="#4dd2ff" stroke="none" /><path d="M 99.09653310690486 120.98055641714683 l -1.3987686188217845 32.48258917511291 a53.51269218579358,53.51269218579358 0 0,0 -0.919939065256559,-0.04755034175531986 l 1.9576957524918324 -32.45369902659539" fill="#6fff27" stroke="none" /><path d="M 98.73552117531835 120.96189622390904 l -0.09114802283335073 1.5110062409532405 a22.513752893396433,22.513752893396433 0 0,0 -0.38663322323713645,-0.026664490743335437 l 0.11714400684941721 -1.50921340569362" fill="#ff0f01" stroke="none" /><line stroke="#e1ed5e" stroke-width="0.3" x1="58.666819895761336" x2="56.23545636021788" y1="174.27360380694188" y2="178.64263932499728" /><path d="M 58.180547188652646 175.14741091055294 a86.0,86.0 0 0,1 -31.652253787137756,-30.449443065178592" fill="none" id="id332" stroke="none" /><text fill="#e1ed5e" style="font-size:6.75px; font-family:Arial;" text-anchor="middle"><textPath startOffset="22.20632615414155" xlink:href="#id332">August</textPath></text><line stroke="#e1ed5e" stroke-width="0.3" x1="26.63291911575756" x2="22.317208475507996" y1="142.92168965132927" y2="145.44649492493687" /><path d="M 25.769776987707644 143.4266507060508 a86.0,86.0 0 0,1 -11.730757126820373,-40.83630448921669" fill="none" id="id333" stroke="none" /><text fill="#e1ed5e" style="font-size:6.75px; font-family:Arial;" text-anchor="middle"><textPath startOffset="21.46611528233685" xlink:href="#id333">September</textPath></text><line stroke="#e1ed5e" stroke-width="0.3" x1="15.007084014347285" x2="10.007500721073583" y1="101.09737516637583" y2="101.16192664675087" /><path d="M 14.007167355692545 101.11028546245083 a86.0,86.0 0 0,1 10.666146001902534,-42.60595125391555" fill="none" id="id334" stroke="none" /><text fill="#e1ed5e" style="font-size:6.75px; font-family:Arial;" text-anchor="middle"><textPath startOffset="22.20632615414155" xlink:href="#id334">October</textPath></text><line stroke="#e1ed5e" stroke-width="0.3" x1="26.266209847984243" x2="21.928928074336255" y1="57.711370442889674" y2="55.22380399835377" /><path d="M 25.398753493254645 57.213857153982495 a86.0,86.0 0 0,1 29.58750427330803,-30.492523968695096" fill="none" id="id335" stroke="none" /><text fill="#e1ed5e" style="font-size:6.75px; font-family:Arial;" text-anchor="middle"><textPath startOffset="21.46611528233685" xlink:href="#id335">November</textPath></text><line stroke="#e1ed5e" stroke-width="0.3" x1="56.762969772571076" x2="54.21961505331055" y1="26.818313649435495" y2="22.513508569990535" /><path d="M 56.25429882871897 25.957352633546506 a86.0,86.0 0 0,1 42.265352541879196,-11.944610805530505" fill="none" id="id336" stroke="none" /><text fill="#e1ed5e" style="font-size:6.75px; font-family:Arial;" text-anchor="middle"><textPath startOffset="22.20632615414155" xlink:href="#id336">December</textPath></text></svg>