<?xml version="1.0" encoding="utf-8" ?>
<svg baseProfile="full" height="200mm" version="1.1" viewBox="0,0,200,200" width="200mm" xmlns="http://www.w3.org/2000/svg" xmlns:ev="http://www.w3.org/2001/xml-events" xmlns:xlink="http://www.w3.org/1999/xlink"><defs /><rect fill="#1a1a1a" height="200" width="200" x="0" y="0" /><text alignment-baseline="middle" fill="#e1ed5e" style="dominant-baseline: central; font-size:9.0px; font-family:Arial;" text-anchor="middle" x="100.0" y="100.0">2026</text><line stroke="#e1ed5e" stroke-width="0.3" x1="100.0" x2="100.0" y1="15.0" y2="10.0" /><path d="M 100.0 14.0 a86.0,86.0 0 0,1 42.46469731375804,11.215312516191453" fill="none" id="id325" stroke="none" /><text fill="#e1ed5e" style="font-size:6.75px; font-family:Arial;" text-anchor="middle"><textPath startOffset="22.20632615414155" xlink:href="#id325">January</textPath></text><path d="M 100.36148047927253 79.00311137660856 l 0.0728010363760369 -4.228707606926328 a25.229334228430524,25.229334228430524 0 0,0 0.4341528286629158,0.011212886688753457 l -0.14558050023382052 4.226827928095215" fill="#ff3505" stroke="none" /><path d="M 100.72285384407766 79.0124445844662 l 1.0086108217199556 -29.284309251429278 a50.301673401412366,50.301673401412366 0 0,0 0.8650909759560853,0.03725263719187634 l -1.5125426300653726 29.262608887713206" fill="#91ff23" stroke="none" /><path d="M 101.08401301168833 79.027996857942 l 0.37499945235078 -7.254977207996607 a28.264662337494677,28.264662337494677 0 0,0 0.4856648975286555,0.029296632912233875 l -0.49982639871904744 7.247447305704069" fill="#ff5f08" stroke="none" /><path d="M 101.44485096284872 79.0497635885617 l 0.20929680646051155 -3.034788838609007 a24.04199744380898,24.04199744380898 0 0,0 0.41261770219401295,0.03202707499791249 l -0.2615046980168657 3.0307365014226297" fill="#ff2503" stroke="none" /><path d="M 101.80526077348638 79.07773832637324 l 1.6685243715441282 -19.337540605201298 a40.40939077447424,40.40939077447424 0 0,0 0.6924916366345036,0.0657604250567161 l -2.001141135268876 19.305954635629405" fill="#fffb17" stroke="none" /><path d="M 102.16513564639614 79.11191278185805 l 0.3282964944928616 -3.167231495075809 a24.184200673904904,24.184200673904904 0 0,0 0.413703339574723,0.04648439053703926 l -0.3827665375773098 3.1611111510681686" fill="#ff2703" stroke="none" /><path d="M 102.52436894288641 79.15227682838746 l 2.1928191426266785 -18.10958995503332 a39.24186679404588,39.24186679404588 0 0,0 0.6698872034058323,0.08697058489354659 l -2.504221074540357 18.06916104697564" fill="#ffed16" stroke="none" /><path d="M 102.88285421437855 79.19881850522331 l 1.3705279267027404 -9.889019016228374 a30.983538646251564,30.983538646251564 0 0,0 0.5276511674279568,0.07776206604139249 l -1.540548074559353 9.863962466026013" fill="#ff840c" stroke="none" /><path d="M 103.59715602781102 79.31037775812273 l 5.595363453621569 -32.182634077144236 a53.66542557998425,53.66542557998425 0 0,0 0.9087470078253136,0.16606770711538285 l -6.148505582549783 32.081550888678116" fill="#6eff28" stroke="none" /><path d="M 103.95276090670814 79.375362276772 l 0.44957954141590906 -2.3458072441827005 a23.38850023883603,23.38850023883603 0 0,0 0.39474619603950717,0.07918237334611952 l -0.48989214692254157 2.3377209147593727" fill="#ff1b02" stroke="none" /><path d="M 104.307194497241 79.44645832069477 l 1.2731443922868957 -6.075329625212941 a27.207296247046823,27.207296247046823 0 0,0 0.4575454583692857,0.10000171540851875 l -1.3775325748097091 6.052514411708551" fill="#ff5107" stroke="none" /><path d="M 104.66035177308747 79.52364482259891 l 3.582907370674309 -15.742348960291318 a37.14493035024981,37.14493035024981 0 0,0 0.6222241260307018,0.1472603473762387 l -3.853355183667534 15.67834270077421" fill="#ffd313" stroke="none" /><path d="M 105.01212808612495 79.60689891045804 l 1.8519877661549913 -7.535277048554698 a28.759526975561265,28.759526975561265 0 0,0 0.47972412691249317,0.12229236145324965 l -1.9814207817525096 7.5022816909325805" fill="#ff6609" stroke="none" /><path d="M 105.36241919743992 79.69619591428918 l 1.4648025512596856 -5.5462027361129715 a26.736376147381193,26.736376147381193 0 0,0 0.44395384748098343,0.12134935697029878 l -1.56005428796438 5.5201668383163796" fill="#ff4a06" stroke="none" /><path d="M 105.71112130821622 79.79150937346287 l 5.198072256316607 -18.39309459540199 a40.11350004518519,40.11350004518519 0 0,0 0.6628465198586194,0.19350307559509156 l -5.513908993898654 18.300893190888193" fill="#fff817" stroke="none" /><path d="M 106.0581310904928 79.89281104454417 l 5.182110584248865 -17.199640474779446 a38.96334886843362,38.96334886843362 0 0,0 0.6405103789313605,0.19900969257873735 l -5.477406335890944 17.10789064731819" fill="#ffea16" stroke="none" /><path d="M 106.74666289553966 80.11325718540242 l 4.903638235570026 -14.454167038800586 a36.26330936366336,36.26330936366336 0 0,0 0.5893961941923381,0.20562875905606348 l -5.151716433825638 14.367617426572316" fill="#ffc812" stroke="none" /><path d="M 107.08798089147638 80.2323363322302 l 1.9496207066459526 -5.437295472260979 a26.77626202248932,26.77626202248932 0 0,0 0.43252292037013884,0.15930184178340126 l -2.042925952788668 5.4029303626712535" fill="#ff4b07" stroke="none" /><path d="M 107.4271985657038 80.35727306442388 l 0.5385507618757273 -1.4243062795331303 a22.52272298893608,22.52272298893608 0 0,0 0.361454134158118,0.14023858852645257 l -0.5629880610335122 1.414824987116131" fill="#ff0f01" stroke="none" /><path d="M 107.76421540070413 80.48803036053334 l 2.0454009999492944 -5.140223467773184 a26.532229437508875,26.532229437508875 0 0,0 0.422893579453145,0.17250890928435295 l -2.1335784489908267 5.104253672305252" fill="#ff4806" stroke="none" /><path d="M 108.43124777332544 80.76684994638697 l 14.026747092761925 -31.997462161257896 a55.93690339405363,55.93690339405363 0 0,0 0.8785233798550066,0.39416783219908463 l -14.575452591083712 31.75127399854228" fill="#57ff2a" stroke="none" /><path d="M 108.76106565485865 80.91482961587045 l 1.2740151906308559 -2.7753241378433056 a24.05377451296815,24.05377451296815 0 0,0 0.3748056724347419,0.17597628880349128 l -1.3215990743651957 2.7529828663998117" fill="#ff2503" stroke="none" /><path d="M 109.08828744355905 81.06846463323043 l 1.1709469735437315 -2.439164053725596 a23.7056677726281,23.7056677726281 0 0,0 0.3663414441391732,0.17976215563566839 l -1.2127596846933364 2.4186467379550955" fill="#ff2003" stroke="none" /><path d="M 109.41281617654863 81.2277094730956 l 2.5978687274583665 -5.181015499283819 a26.79584709330097,26.79584709330097 0 0,0 0.4105372751640436,0.21029313769330027 l -2.6866664902111657 5.135529836278018" fill="#ff4b07" stroke="none" /><path d="M 109.73455568895987 81.39251694778311 l 2.2989833704764546 -4.394478337823341 a25.959512516298943,25.959512516298943 0 0,0 0.394158055025344,0.2105455824366519 l -2.37428647203011 4.354254028884935" fill="#ff4006" stroke="none" /><path d="M 110.05341064243156 81.56283822128135 l 1.1635318226987053 -2.1338255456553097 a23.43043571437793,23.43043571437793 0 0,0 0.3524338202246786,0.19612903938303267 l -1.200089731995419 2.1134811087120973" fill="#ff1c02" stroke="none" /><path d="M 110.36928655335952 81.73862282372117 l 15.168751242657809 -26.713726765085603 a51.719931834906205,51.719931834906205 0 0,0 0.7703887464109118,0.44625888707404915 l -15.62633672153405 26.448663720621504" fill="#82ff25" stroke="none" /><line stroke="#e1ed5e" stroke-width="0.3" x1="143.23703022742887" x2="145.7803849466894" y1="26.81831364943548" y2="22.513508569990506" /><path d="M 143.74570117128098 25.957352633546492 a86.0,86.0 0 0,1 28.547481713284135,27.462654790039103" fill="none" id="id326" stroke="none" /><text fill="#e1ed5e" style="font-size:6.75px; font-family:Arial;" text-anchor="middle"><textPath startOffset="19.985693538727396" xlink:href="#id326">February</textPath></text><path d="M 110.99172775467656 82.1063720568725 l 2.9360807904829764 -4.77969782807926 a26.60946358718806,26.60946358718806 0 0,0 0.38822047660771786,0.24310362683633793 l -3.017920419462958 4.728449859919978" fill="#ff4906" stroke="none" /><path d="M 111.2981086023043 82.29822771554956 l 9.881850672530991 -15.48279243115172 a39.367575620650925,39.367575620650925 0 0,0 0.5680796918089578,0.36949483371721115 l -10.146897390124229 15.310398673274982" fill="#ffef16" stroke="none" /><path d="M 111.60114157652 82.49532879139004 l 4.181712874514876 -6.309681549386951 a28.569597335364517,28.569597335364517 0 0,0 0.4075865354462181,0.2752042481603761 l -4.289704104367636 6.236765388927905" fill="#ff6309" stroke="none" /><path d="M 111.90073688211348 82.69761687909136 l 1.6880643472179753 -2.4542628206670294 a23.978752630423838,23.978752630423838 0 0,0 0.3380648554997675,0.23683603557924063 l -1.7300603423013936 2.424841942323853" fill="#ff2403" stroke="none" /><path d="M 112.19680574252982 82.90503203632743 l 13.284656449320519 -18.61969282806877 a43.87302030751752,43.87302030751752 0 0,0 0.6109938226018495,0.4439129964688041 l -13.603195588276156 18.388260596783294" fill="#daff1c" stroke="none" /><path d="M 112.48926042617603 83.11751280151076 l 11.008007922487705 -14.880188777452556 a39.509355917324,39.509355917324 0 0,0 0.5432608801741093,0.40917283196795023 l -11.262514956420196 14.688499355978758" fill="#fff116" stroke="none" /><path d="M 112.77801427241765 83.33499621200491 l 4.074962348561958 -5.314539608968032 a27.696988084018642,27.696988084018642 0 0,0 0.37584475828964276,0.29335279539583786 l -4.165839662011031 5.243608424348971" fill="#ff5808" stroke="none" /><path d="M 113.06298171725822 83.55741782278167 l 1.8959882742506171 -2.3865104982288385 a24.047983578409223,24.047983578409223 0 0,0 0.3218955454889409,0.26028381145070256 l -1.936787218304049 2.353520589514006" fill="#ff2503" stroke="none" /><path d="M 113.34407831869373 83.78471172551755 l 3.965816181207969 -4.8191303352744 a27.24113092087427,27.24113092087427 0 0,0 0.35950829140144014,0.3010778551437313 l -4.048182009568526 4.750151322736849" fill="#ff5107" stroke="none" /><path d="M 113.6212207817346 84.01681056812373 l 11.10900335334639 -13.035344470297384 a38.12688415807072,38.12688415807072 0 0,0 0.49584230961169334,0.4299895647840053 l -11.331739461604847 12.842189912093707" fill="#ffe014" stroke="none" /><path d="M 113.89432698308785 84.25364557470407 l 13.97653883636363 -15.839524607717632 a42.124255670741945,42.124255670741945 0 0,0 0.5395696157679473,0.4844309285399868 l -14.247119439727568 15.596594670408349" fill="#eeff19" stroke="none" /><path d="M 114.42810811169701 84.74124197986012 l 3.8005982621353382 -4.019404953492985 a26.531741437405593,26.531741437405593 0 0,0 0.3291411057422334,0.31663348294587224 l -3.86922261148999 3.953388383784811" fill="#ff4806" stroke="none" /><path d="M 114.94478906791727 85.2469230424477 l 4.368843089951359 -4.312799466664228 a27.138976232587563,27.138976232587563 0 0,0 0.3253261982978216,0.3352772443260801 l -4.4424335519522895 4.236958026788034" fill="#ff5007" stroke="none" /><path d="M 115.4437574822437 85.77008943001954 l 4.1268023227639965 -3.802444324863085 a26.61151318762184,26.61151318762184 0 0,0 0.3074977575146034,0.3395467040553767 l -4.191643720894636 3.730844833538159" fill="#ff4906" stroke="none" /><path d="M 115.9244219780498 86.31012108654704 l 1.8221425125014667 -1.566456251510042 a23.402912508552912,23.402912508552912 0 0,0 0.2599833857969038,0.3077383258023772 l -1.848836511785488 1.5348589760785583" fill="#ff1c02" stroke="none" /><path d="M 116.15771136456269 86.58626213691792 l 14.46295290597077 -12.00679072856081 a39.7973410449399,39.7973410449399 0 0,0 0.4330358304818187,0.5308507254377596 l -14.667487228528998 11.75605583351495" fill="#fff417" stroke="none" /><path d="M 116.38621287248628 86.86637796730983 l 23.42352424970022 -18.77405820143222 a51.01877328651287,51.01877328651287 0 0,0 0.543340021839537,0.6899866506931046 l -23.74321835213372 18.368079156786074" fill="#8aff24" stroke="none" /><path d="M 116.60985879189232 87.15038557335679 l 2.5726443082856387 -1.9902328991806273 a24.252618288384824,24.252618288384824 0 0,0 0.2526014824871638,0.33239394134015343 l -2.606521730996916 1.9456541819594404" fill="#ff2803" stroke="none" /><path d="M 117.04232023915458 87.72973835380427 l 7.739451844612447 -5.572310448277194 a30.53675828502821,30.53675828502821 0 0,0 0.3034588612468862,0.4292210386435184 l -7.834223325663216 5.438262909301883" fill="#ff7e0b" stroke="none" /><path d="M 117.45458315368197 88.32363383020206 l 5.798024984540746 -3.8786295945918248 a27.975733743012434,27.975733743012434 0 0,0 0.26430855728307145,0.4025600659099338 l -5.863930177181742 3.778251464704217" fill="#ff5b08" stroke="none" /><line stroke="#e1ed5e" stroke-width="0.3" x1="172.23445277983987" x2="176.4835382374775" y1="55.19839476539836" y2="52.563006222186495" /><path d="M 173.08426987136738 54.67131705675599 a86.0,86.0 0 0,1 12.851231095245387,41.99856678651699" fill="none" id="id327" stroke="none" /><text fill="#e1ed5e" style="font-size:6.75px; font-family:Arial;" text-anchor="middle"><textPath startOffset="22.20632615414155" xlink:href="#id327">March</textPath></text><path d="M 117.84615892207809 88.93136811851018 l 17.10248103293621 -10.607384347538332 a41.12489652590403,41.12489652590403 0 0,0 0.3679389692538629,0.6047949224153952 l -17.282535800476296 10.311421651915856" fill="#faff18" stroke="none" /><path d="M 118.03404312379186 89.2402003453031 l 2.6803041006841224 -1.5991719072123336 a24.12111852722085,24.12111852722085 0 0,0 0.2096703251475578,0.3583945513116568 l -2.7074341003020073 1.5527979435467816" fill="#ff2603" stroke="none" /><path d="M 118.21658344932153 89.55222093294921 l 8.576410478315545 -4.918839041089097 a30.8868495591216,30.8868495591216 0 0,0 0.2605413992356465,0.4634740772496408 l -8.659809518843625 4.770481453904662" fill="#ff830c" stroke="none" /><path d="M 118.3937258080291 89.86733742301442 l 15.050137369405144 -8.290759865241466 a38.182646303205566,38.182646303205566 0 0,0 0.31217386288887716,0.5784107569400135 l -15.190619331512487 8.030468124968994" fill="#ffe015" stroke="none" /><path d="M 118.56541770881063 90.18545643968196 l 14.592002713006995 -7.714011529679772 a37.50552989323384,37.50552989323384 0 0,0 0.29681263202793967,0.5733475315146724 l -14.72262477819505 7.461691275904755" fill="#ffd814" stroke="none" /><path d="M 118.89224826269711 90.83032412892265 l 34.058846339719956 -16.531043692386607 a58.85869014575452,58.85869014575452 0 0,0 0.43455036325267654,0.9152738891695014 l -34.33835489681439 15.942327387576565" fill="#3aff2e" stroke="none" /><path d="M 119.04729006885535 91.15688171328212 l 28.28817288262208 -13.133398925088418 a52.188249267354344,52.188249267354344 0 0,0 0.3712763582039068,0.8180582407560663 l -28.510051557789335 12.64451867549029" fill="#7dff26" stroke="none" /><path d="M 119.196687751892 91.48605970444005 l 2.78957793587958 -1.2372082258591346 a24.051627312513716,24.051627312513716 0 0,0 0.16459248991474945,0.3799021596973823 l -2.81046113563701 1.1890069215751495" fill="#ff2503" stroke="none" /><path d="M 119.34039704204932 91.81776055985345 l 12.51191530031475 -5.293349801424789 a34.585565008585185,34.585565008585185 0 0,0 0.22724085323677817,0.550281750695654 l -12.601177840437725 5.077193480275832" fill="#ffb310" stroke="none" /><path d="M 119.47837535516314 92.15188598940014 l 6.495903268949872 -2.6172916645757853 a28.003354548858105,28.003354548858105 0 0,0 0.17629638553850793,0.4486550716294987 l -6.539993204370081 2.505087588050502" fill="#ff5c08" stroke="none" /><path d="M 119.61058180528143 92.48833698450437 l 8.316604215835627 -3.185603003669326 a29.90583921816703,29.90583921816703 0 0,0 0.1799981359135455,0.48230551480542605 l -8.370206940250798 3.041974351834567" fill="#ff760a" stroke="none" /><path d="M 119.85752413597 93.16781622104841 l 1.9796561313837846 -0.681120889801283 a23.093552976413328,23.093552976413328 0 0,0 0.1260937752714546,0.3770043385429972 l -1.9910872004270093 0.6469434483359718" fill="#ff1702" stroke="none" /><path d="M 119.97218684219823 93.5106431181261 l 6.577787742629927 -2.1372527952198506 a27.916295330432874,27.916295330432874 0 0,0 0.14455923955675273,0.45829229376941266 l -6.6136024659548855 2.023710335024019" fill="#ff5b08" stroke="none" /><path d="M 120.28053869075195 94.5502522615342 l 25.194032587254906 -6.770092461983574 a47.087802321228,47.087802321228 0 0,0 0.20360691309207513,0.7845804926308007 l -25.30683583221728 6.335415543803923" fill="#b5ff20" stroke="none" /><path d="M 120.37134235888165 94.90015583598534 l 6.924041982744248 -1.7333926490953737 a28.13771724396132,28.13771724396132 0 0,0 0.1135788332296883,0.4708575898533238 l -6.952853616234756 1.6139498275826438" fill="#ff5e08" stroke="none" /><path d="M 120.45610955862082 95.25157060432595 l 0.872953165780766 -0.20263659918135407 a21.89616338966421,21.89616338966421 0 0,0 0.08206433151843164,0.36787830699878066 l -0.8763118843012353 0.18758012263260954" fill="#ff0601" stroke="none" /><path d="M 120.6074358757038 95.95851677861258 l 29.75445675379934 -5.835376048592023 a51.3212682838663,51.3212682838663 0 0,0 0.16255223847282216,0.8683605577944274 l -29.85049471618202 5.322337413335033" fill="#86ff25" stroke="none" /><path d="M 120.67395015179393 96.31383870115 l 2.259078583518973 -0.4027932729104463 a23.29470661898553,23.29470661898553 0 0,0 0.06698685567395597,0.39536021409616956 l -2.265677300713152 0.3638472704984389" fill="#ff1a02" stroke="none" /><path d="M 120.73433829027371 96.67025291283417 l 19.471192304685527 -3.1268972731377427 a40.72066977368672,40.72066977368672 0 0,0 0.10518363573461632,0.6930287391002165 l -19.522131833859444 2.791269421645444" fill="#ffff18" stroke="none" /><path d="M 120.78858239683441 97.02765380044208 l 6.660129437895598 -0.952263605348445 a27.727862223886184,27.727862223886184 0 0,0 0.06348888349035864,0.4730659261226907 l -6.675534320443793 0.8374793371610899" fill="#ff5808" stroke="none" /><path d="M 120.83666639777658 97.38593545837742 l 11.0545833453832 -1.3868530499994598 a32.14123755793388,32.14123755793388 0 0,0 0.06414418667051422,0.5495482191983132 l -11.076817885057302 1.196361092476294" fill="#ff930d" stroke="none" /><path d="M 120.91429891909075 98.10471618934814 l 24.085256453395555 -2.1826405373718107 a45.18395125162989,45.18395125162989 0 0,0 0.06352759446567423,0.7751975619773747 l -24.119258531680725 1.7677290581866676" fill="#caff1d" stroke="none" /><path d="M 120.94382443527127 98.46500227214037 l 23.946189899959066 -1.7550446529445605 a45.01041841490337,45.01041841490337 0 0,0 0.04998173124188188,0.7731952598740313 l -23.97285222220536 1.342590328817494" fill="#ccff1d" stroke="none" /><path d="M 120.96714384426684 98.82574320788733 l 4.988653018917108 -0.27938758537961544 a25.996470390787383,25.996470390787383 0 0,0 0.02117646700243419,0.4470017488151128 l -4.992723094153039 0.19347472994150283" fill="#ff4006" stroke="none" /><path d="M 120.98425023603335 99.18683210126433 l 20.33128649187313 -0.7878646760893054 a41.346546172814,41.346546172814 0 0,0 0.021437801330160863,0.7114162587194454 l -20.341835987658936 0.4377782699448611" fill="#f7ff18" stroke="none" /><line stroke="#e1ed5e" stroke-width="0.3" x1="184.98032266829074" x2="189.97916517819016" y1="98.17113171792111" y2="98.06355123074" /><path d="M 185.9800911702706 98.14961562048488 a86.0,86.0 0 0,1 -9.607161424134198,41.387399972396054" fill="none" id="id328" stroke="none" /><text fill="#e1ed5e" style="font-size:6.75px; font-family:Arial;" text-anchor="middle"><textPath startOffset="21.466115282336823" xlink:href="#id328">April</textPath></text><path d="M 120.99513854157772 99.54816195383933 l 11.415908377835413 -0.24568267203264335 a32.41855174995804,32.41855174995804 0 0,0 0.007204626203382107,0.5580062392285889 l -11.41844601115651 0.04914017474359167" fill="#ff970d" stroke="none" /><path d="M 120.99980553446 99.90962569577887 l 24.43914419066865 -0.10517576690732663 a45.43937050568688,45.43937050568688 0 0,0 -0.0033661977075701865,0.7821857978188976 l -24.43733369567158 -0.31551950911525567" fill="#c7ff1e" stroke="none" /><path d="M 120.9904718944345 100.63252640178507 l 32.59629861825565 0.9822561198342402 a53.61109490181903,53.61109490181903 0 0,0 -0.03573528495891431,0.9221689186204023 l -32.57456120044553 -1.5432022854686487" fill="#6eff28" stroke="none" /><path d="M 120.9764740272857 100.99374915477107 l 22.505886164242018 1.0662042307013637 a43.53112743515925,43.53112743515925 0 0,0 -0.04190109216402646,0.7481721481502854 l -22.484198721190463 -1.4534480951870725" fill="#ddff1b" stroke="none" /><path d="M 120.92983693683757 101.71520430193887 l 31.438090940803285 2.576357808669998 a52.54348080920228,52.54348080920228 0 0,0 -0.08163106068609374,0.9007919524644683 l -31.389085283840117 -3.1171311496830367" fill="#79ff26" stroke="none" /><path d="M 120.89721153311464 102.0752229133903 l 10.500344973464472 1.0427494813317966 a31.551993699892847,31.551993699892847 0 0,0 -0.05832265611824529,0.5399953613147322 l -10.480840015845175 -1.2233411645313201" fill="#ff8b0c" stroke="none" /><path d="M 120.8583938346157 102.4346265915055 l 25.58393392738913 2.9861995294945554 a46.757621451348456,46.757621451348456 0 0,0 -0.10019154269132759,0.7986251745880734 l -25.528740875450953 -3.4261424583700237" fill="#b8ff1f" stroke="none" /><path d="M 120.81339534386255 102.79330883721812 l 0.4822772627968127 0.06472511178032982 a21.486601169651042,21.486601169651042 0 0,0 -0.05235153996538091,0.3661465485862218 l -0.4810916718148304 -0.07301713234696097" fill="#ff0000" stroke="none" /><path d="M 120.76222939487914 103.15116336523771 l 40.52659375675689 6.150876918625179 a61.99070734194864,61.99070734194864 0 0,0 -0.16919993289253776,1.0536081436357811 l -40.41471206950306 -6.847564291954165" fill="#32ff48" stroke="none" /><path d="M 120.70491114924044 103.5080841355445 l 21.44389302821112 3.6332916569574576 a42.749513936405066,42.749513936405066 0 0,0 -0.1291718451207302,0.7244643059635966 l -21.378174740751202 -4.0018747136542725" fill="#e7ff1a" stroke="none" /><path d="M 120.64145759157962 103.86396538481128 l 3.131338349758185 0.586169021151562 a24.185729740895184,24.185729740895184 0 0,0 -0.0801239447193596,0.40855026792510074 l -3.1207844720631615 -0.6399830161446076" fill="#ff2703" stroke="none" /><path d="M 120.5718875245553 104.21870165774334 l 24.337223633885824 4.990863651504623 a45.84369485792483,45.84369485792483 0 0,0 -0.16518129713562799,0.7716720285323077 l -24.247708298025753 -5.4090494994531" fill="#c3ff1e" stroke="none" /><path d="M 120.49622156327973 104.57218783832717 l 3.091333706628789 0.689598242974755 a24.1673158703314,24.1673158703314 0 0,0 -0.09406774867706942,0.40524139931910147 l -3.0790053920211666 -0.7427082996424214" fill="#ff2603" stroke="none" /><path d="M 120.41448212921028 104.9243191809786 l 17.93559541142319 4.326369679511415 a39.4500151047651,39.4500151047651 0 0,0 -0.1649173798613012,0.6587629539330163 l -17.85846671726683 -4.634460472841828" fill="#fff016" stroke="none" /><path d="M 120.32669344350535 105.2749913415812 l 6.224331167740081 1.6152795883018367 a27.4305074942873,27.4305074942873 0 0,0 -0.12253850833144704,0.4560113749453224 l -6.1956045830668565 -1.7221818964227074" fill="#ff5407" stroke="none" /><path d="M 120.23288151984713 105.62410040840565 l 25.264910611127213 7.022845161574723 a47.22281568313559,47.22281568313559 0 0,0 -0.2244373672451197,0.781295918796688 l -25.140280606995997 -7.4566985558759935" fill="#b3ff20" stroke="none" /><path d="M 120.13307415673323 105.97154293290107 l 14.000386780205542 4.152565578628135 a35.60324042396623,35.60324042396623 0 0,0 -0.17932712613728727,0.5860514240147328 l -13.926832881562122 -4.392943975194925" fill="#ffc011" stroke="none" /><path d="M 120.02730092923936 106.31721596034902 l 2.501722968579138 0.7891190291352004 a23.623228288513925,23.623228288513925 0 0,0 -0.12566179313520034,0.3867472319841311 l -2.487768924427691 -0.8320651610971267" fill="#ff1f03" stroke="none" /><path d="M 119.9155931802556 106.66101706037122 l 24.251242421159773 8.111128704049495 a46.57172594533883,46.57172594533883 0 0,0 -0.2608219995224228,0.7580708186838604 l -24.10802959069412 -8.527372225822655" fill="#bbff1f" stroke="none" /><path d="M 119.79798401119884 107.00284435728193 l 7.714443103805742 2.728714414987913 a29.18281826514672,29.18281826514672 0 0,0 -0.17158905005900754,0.4721393711977768 l -7.666329792741508 -2.861101583191821" fill="#ff6c09" stroke="none" /><path d="M 119.67450827220406 107.3425965602758 l 27.029801053755 10.087618023096175 a49.850826372661665,49.850826372661665 0 0,0 -0.30695223890362044,0.8013554360620653 l -26.852154535257874 -10.551397025991383" fill="#96ff23" stroke="none" /><path d="M 119.41010516605496 108.01547362559984 l 35.89451392162225 14.822770262247149 a59.8346578189752,59.8346578189752 0 0,0 -0.4013168021188856,0.9485943731421486 l -35.63404613831106 -15.438439161055461" fill="#30ff2f" stroke="none" /><path d="M 119.26925614724726 108.34839909993367 l 19.0364498797659 8.24753585855847 a41.74628332408113,41.74628332408113 0 0,0 -0.2913471428799182,0.6569108937947705 l -18.89166165215471 -8.573995088845928" fill="#f3ff19" stroke="none" /><path d="M 119.12269723197855 108.67885076344098 l 0.7364185044359287 0.33422410143835923 a21.808713771156352,21.808713771156352 0 0,0 -0.15808761000212962,0.3405066478105707 l -0.7305562775939678 -0.34685081652776056" fill="#ff0500" stroke="none" /><path d="M 118.97047184881838 109.00673069616215 l 23.78325403312715 11.291725680936672 a47.32767063866045,47.32767063866045 0 0,0 -0.3557389848725694,0.7329276752443021 l -23.585361791639865 -11.69944231214625" fill="#b2ff20" stroke="none" /><path d="M 118.81262510543309 109.33194174019688 l 3.7142517750344375 1.842442560715998 a25.1461139441511,25.1461139441511 0 0,0 -0.19568625668853434,0.38610754920646057 l -3.6819868485596343 -1.9061043216251528" fill="#ff3405" stroke="none" /><path d="M 118.64920377521936 109.65438752849418 l 20.94937897876431 10.845150580156682 a44.59012019261803,44.59012019261803 0 0,0 -0.35873280783301736,0.6785872804316805 l -20.759593662706404 -11.204152875674497" fill="#d1ff1c" stroke="none" /><line stroke="#e1ed5e" stroke-width="0.3" x1="174.80103733775053" x2="179.2010983576182" y1="140.37084112569926" y2="142.7455964860345" /><path d="M 175.68104954172406 140.8457921977663 a86.0,86.0 0 0,1 -30.038265399797805,32.042727171017184" fill="none" id="id329" stroke="none" /><text fill="#e1ed5e" style="font-size:6.75px; font-family:Arial;" text-anchor="middle"><textPath startOffset="22.206326154141568" xlink:href="#id329">May</textPath></text><path d="M 118.48025628344425 109.97397251340804 l 0.7730028835688482 0.4171971099993816 a21.878400185904802,21.878400185904802 0 0,0 -0.18171948170867983,0.32987364329278107 l -0.7657069924086588 -0.43044127168996776" fill="#ff0600" stroke="none" /><path d="M 118.30583269289576 110.29060199501025 l 37.627125202143844 21.15204351353822 a64.16491046876412,64.16491046876412 0 0,0 -0.5495205268985005,0.9581353578705935 l -37.257452679092964 -21.796598717267127" fill="#35ff61" stroke="none" /><path d="M 118.12598468904814 110.60418214915192 l 21.42193311529048 12.532399460689323 a45.818546585935785,45.818546585935785 0 0,0 -0.40411767025842893,0.6773244601580903 l -21.20303456933382 -12.899286014733518" fill="#c3ff1e" stroke="none" /><path d="M 117.75023020441432 111.22182372390056 l 20.76905490690314 13.130346502171962 a45.57152093365522,45.57152093365522 0 0,0 -0.42488962701526833,0.6594381366888173 l -20.53996041651082 -13.485906238782231" fill="#c6ff1e" stroke="none" /><path d="M 117.55443506779139 111.5257021239791 l 10.224808569095183 6.713294810513498 a33.23172258872436,33.23172258872436 0 0,0 -0.31807014486599955,0.4754717102507006 l -10.107735318818463 -6.888303434970005" fill="#ffa10e" stroke="none" /><path d="M 117.35343817320211 111.8261652097733 l 20.06742010661562 13.675712164131431 a45.28428407286435,45.28428407286435 0 0,0 -0.44451720183773247,0.6403601829067739 l -19.829041997615754 -14.019113609225224" fill="#c9ff1d" stroke="none" /><path d="M 117.14729908036423 112.12312394758627 l 1.9487605777039836 1.3777718529869711 a23.386613305103346,23.386613305103346 0 0,0 -0.23522501513978183,0.3267069726679416 l -1.924755770188599 -1.411112431106044" fill="#ff1b02" stroke="none" /><path d="M 116.93607887273984 112.41649034213515 l 40.22232913830373 29.48853539456475 a70.87393588866368,70.87393588866368 0 0,0 -0.7297947676618043,0.9776793526394476 l -39.70877310394683 -30.176527626713515" fill="#3dffab" stroke="none" /><path d="M 116.71984013943494 112.70617746262583 l 16.47152162129752 12.517468770892075 a41.6881137117701,41.6881137117701 0 0,0 -0.43910126457531007,0.5675975759097202 l -16.25361353950414 -12.799144340915047" fill="#f3ff19" stroke="none" /><path d="M 116.498646956653 112.99209946851258 l 2.528223444770071 1.990886316882664 a24.21800281439213,24.21800281439213 0 0,0 -0.26072650676853315,0.325296405726839 l -2.493579025946684 -2.0341105561877533" fill="#ff2703" stroke="none" /><path d="M 116.27256486870786 113.27417163493432 l 21.712772437032633 17.711963069429068 a49.02067313030119,49.02067313030119 0 0,0 -0.5390033101760782,0.6492642095189878 l -21.40467312696301 -18.083088536061826" fill="#9fff22" stroke="none" /><path d="M 116.0416608686014 113.55231037782055 l 4.280780543934202 3.6164875361680564 a26.603932919350882,26.603932919350882 0 0,0 -0.2985436222534083,0.3472736793125992 l -4.217894412110015 -3.6896383146421834" fill="#ff4906" stroke="none" /><path d="M 115.80600337817218 113.82643327865902 l 21.37246561488184 18.69574254505635 a49.395652409661885,49.395652409661885 0 0,0 -0.5653241867861413,0.6351477168147867 l -21.04748257844736 -19.060864431612007" fill="#9bff22" stroke="none" /><path d="M 115.32070863581623 114.36230785411682 l 27.91371837731658 26.167550484637236 a59.26116009760002,59.26116009760002 0 0,0 -0.7040605334301681,0.7382046545046125 l -27.45915129250745 -26.644162255724353" fill="#36ff2f" stroke="none" /><path d="M 114.55890576462653 115.13401014063108 l 15.861630765654516 16.488195248684555 a43.879071508798205,43.879071508798205 0 0,0 -0.5488314145506936,0.5189543587873502 l -15.575463516713015 -16.758784244217825" fill="#d9ff1c" stroke="none" /><path d="M 114.29624159901734 115.38237550388516 l 7.94533573757432 8.548969809534226 a32.67104300339534,32.67104300339534 0 0,0 -0.41523409985684184,0.37930650511374253 l -7.797002088250615 -8.684469081234552" fill="#ff9a0e" stroke="none" /><path d="M 114.0293411484842 115.62618273729858 l 17.387218373632884 19.36625880888627 a47.02628177487445,47.02628177487445 0 0,0 -0.6069920614023468,0.5355999204307402 l -17.05128395932395 -19.662681871089298" fill="#b5ff1f" stroke="none" /><path d="M 113.48314897796784 116.09983520530334 l 20.932885139411592 24.995348020464018 a53.60296156676435,53.60296156676435 0 0,0 -0.7124851319883235,0.5863267578855638 l -20.49952987887858 -25.35196989720676" fill="#6eff28" stroke="none" /><path d="M 113.20401910651253 116.32954008644616 l 19.220779293812285 23.77052649191001 a51.56920486967299,51.56920486967299 0 0,0 -0.6950608116611824,0.5521983455671982 l -18.80876098943375 -24.097858751482335" fill="#84ff25" stroke="none" /><path d="M 112.92097659922987 116.55440617244103 l 1.964033815546246 2.5163278695899476 a24.19207374223783,24.19207374223783 0 0,0 -0.3304767121340443,0.2533954506144475 l -1.9204283749187079 -2.5497626620317666" fill="#ff2703" stroke="none" /><path d="M 112.63410532772338 116.77436683061366 l 15.601667611878682 20.71441458673641 a46.932585755044606,46.932585755044606 0 0,0 -0.6494911808350264,0.4804780484405822 l -15.242791460625092 -20.97990258391676" fill="#b7ff1f" stroke="none" /><path d="M 112.34349029814194 116.9893568818739 l 4.937077408963637 6.795304085664214 a29.399457777663024,29.399457777663024 0 0,0 -0.4119741428584186,0.293932612337569 l -4.819375938256334 -6.879280959846002" fill="#ff6f0a" stroke="none" /><path d="M 112.04921762599082 117.19931262002967 l 15.438485723597273 22.037226862534947 a47.906991827934775,47.906991827934775 0 0,0 -0.6794651283037222,0.467342310941124 l -15.056863710670667 -22.299709962841167" fill="#acff21" stroke="none" /><path d="M 111.7513745106137 117.40417183066458 l 2.3696392812463403 3.5095136479783595 a25.234604629545956,25.234604629545956 0 0,0 -0.36208689724646814,0.2399714514999288 l -2.3088776852599078 -3.5497831205696064" fill="#ff3505" stroke="none" /><path d="M 111.45004920935366 117.60387380957326 l 25.221653213408295 38.777021156813035 a67.25785512335558,67.25785512335558 0 0,0 -0.9759377338751208,0.622889636654825 l -24.550433677486243 -39.205425222291666" fill="#38ff84" stroke="none" /><path d="M 111.1453310114006 117.79835938074945 l 16.478968814926084 26.315827577682633 a52.04962470468247,52.04962470468247 0 0,0 -0.7634460497504459,0.4689709186371665 l -16.02354356524333 -26.595586963148175" fill="#7fff26" stroke="none" /><line stroke="#e1ed5e" stroke-width="0.3" x1="143.8653032363475" x2="146.44561519142675" y1="172.8068346515853" y2="177.08958963109032" /><path d="M 144.38136562736335 173.6633856474863 a86.0,86.0 0 0,1 -40.68145358897372,12.25698825130547" fill="none" id="id330" stroke="none" /><text fill="#e1ed5e" style="font-size:6.75px; font-family:Arial;" text-anchor="middle"><textPath startOffset="21.466115282336833" xlink:href="#id330">June</textPath></text><path d="M 110.8373102113329 117.98757091392108 l 1.6169206953709778 2.6837356413178526 a24.133188396441987,24.133188396441987 0 0,0 -0.35766779064275167,0.21131643511627002 l -1.570485033699844 -2.7111706487278724" fill="#ff2603" stroke="none" /><path d="M 110.5260780823613 118.17145234162733 l 12.72360802464346 21.96510751908555 a46.38417123897804,46.38417123897804 0 0,0 -0.6943295916338571,0.3942584630189251 l -12.343629666088402 -22.180869147899102" fill="#bdff1f" stroke="none" /><path d="M 110.21172684928248 118.3499491758327 l 5.608105995661237 10.077478717548836 a32.53284137414632,32.53284137414632 0 0,0 -0.4916753198690403,0.26810058688631117 l -5.433807863923548 -10.172519956194916" fill="#ff980e" stroke="none" /><path d="M 109.89434966115114 118.52300852407294 l 12.407398745719695 23.227636034625384 a47.333754373281344,47.333754373281344 0 0,0 -0.7219729592065852,0.3777021297075623 l -12.005734883986614 -23.43776758327766" fill="#b2ff20" stroke="none" /><path d="M 109.2508944713604 118.85261126421891 l 27.752683414081186 56.55783379265672 a84.0,84.0 0 0,0 -1.303549327999069,0.6257828940017598 l -26.775021418081884 -57.02717096315804" fill="#4dd2ff" stroke="none" /><path d="M 108.92500713936063 119.00905698771935 l 11.418750390839802 24.32039252391748 a47.867626486270154,47.867626486270154 0 0,0 -0.7488593936852805,0.34376461840707906 l -10.998423001387101 -24.513344212658634" fill="#acff20" stroke="none" /><path d="M 108.59647513512805 119.15986991738527 l 1.2977049486058134 2.8923317540735454 a24.17011373759021,24.17011373759021 0 0,0 -0.38105833093746305,0.16704477401090456 l -1.2477259430105965 -2.9142410813789046" fill="#ff2603" stroke="none" /><path d="M 108.2653958097858 119.30500536409082 l 11.194678804136531 26.14676167198944 a49.44246788623659,49.44246788623659 0 0,0 -0.7852606739495305,0.3282390253974301 l -10.74294667068954 -26.335585740406845" fill="#9bff22" stroke="none" /><path d="M 107.93186726928326 119.44442032107085 l 2.2851445511018618 5.60187275423791 a27.050030080429647,27.050030080429647 0 0,0 -0.4326445236404695,0.17215818472191333 l -2.188378951419526 -5.640377783365892" fill="#ff4f07" stroke="none" /><path d="M 107.59598834532513 119.57807347666477 l 9.863285790151282 25.421857583518978 a48.268209504382966,48.268209504382966 0 0,0 -0.7771866201911342,0.29386547854071965 l -9.424228949199872 -25.587871312166328" fill="#a8ff21" stroke="none" /><path d="M 106.91757812671514 119.82793768551818 l 17.13774677955928 49.122130461091125 a73.02582114408912,73.02582114408912 0 0,0 -1.19042613593973,0.4038571784279239 l -16.289650910682322 -49.40985062641717" fill="#3fffc2" stroke="none" /><path d="M 106.57524785965236 119.94407469862006 l 7.189247779720055 21.806462327521427 a43.96099045946888,43.96099045946888 0 0,0 -0.7207062220883785,0.23074737316033583 l -6.8128202125407356 -21.92698254734147" fill="#d8ff1c" stroke="none" /><path d="M 106.2309692047433 120.05430185196036 l 0.9110171053076148 2.932097948458841 a24.070366516479687,24.070366516479687 0 0,0 -0.39673124884519917,0.11953187084099934 l -0.8604108820221699 -2.947345188405566" fill="#ff2503" stroke="none" /><path d="M 105.88484417918355 120.15858648285463 l 7.446908332226081 25.50945124020214 a47.57420829083773,47.57420829083773 0 0,0 -0.788075441261043,0.2227179915731852 l -7.0067017228604325 -25.633858025113845" fill="#afff20" stroke="none" /><path d="M 105.53697534728816 120.25689768951611 l 2.528556125945648 9.250664764214013 a30.590015362966213,30.590015362966213 0 0,0 -0.5091191773285625,0.13446300204466896 l -2.3689465058055883 -9.292819115562267" fill="#ff7f0b" stroke="none" /><path d="M 105.18746579009965 120.34920634021253 l 6.424672932059116 25.20247852281984 a47.00848603777483,47.00848603777483 0 0,0 -0.7858178387026418,0.19313490590008114 l -5.989901808613264 -25.30933468703395" fill="#b6ff1f" stroke="none" /><path d="M 104.48393922423573 120.51570834832081 l 9.900151579011116 45.29691689426924 a67.36619114628384,67.36619114628384 0 0,0 -1.134987316120755,0.23784762736807522 l -9.118972801460982 -45.46062050236385" fill="#39ff85" stroke="none" /><path d="M 104.13013068566511 120.58985236759428 l 3.6067159750699473 17.980484180871656 a39.3386534811965,39.3386534811965 0 0,0 -0.6650712373793486,0.12746248552663797 l -3.296677123118894 -18.039903864746762" fill="#ffee16" stroke="none" /><path d="M 103.7750983002368 120.6578951692458 l 0.5696582834835453 3.1172542187199177 a24.168877470661897,24.168877470661897 0 0,0 -0.40989383664486834,0.07126529754928636 l -0.515915475366627 -3.12659809479021" fill="#ff2603" stroke="none" /><path d="M 103.41894727170886 120.7198165907248 l 4.040977717767864 24.489502324938364 a45.820661253050005,45.820661253050005 0 0,0 -0.7793093764443946,0.12171209729381023 l -3.618832477714952 -24.55543272957928" fill="#c3ff1e" stroke="none" /><path d="M 103.06178313531738 120.77559828337769 l 0.4638412309527604 3.1473747994705903 a24.181370273305877,24.181370273305877 0 0,0 -0.4123170152759778,0.05714338127605085 l -0.4095956244899522 -3.1548927462392435" fill="#ff2703" stroke="none" /><path d="M 102.70371172650421 120.8252237178851 l 3.0828324335000494 23.745384717992685 a44.94466853432138,44.94466853432138 0 0,0 -0.7680670960482598,0.09300222894158536 l -2.6736379144004094 -23.79493247565962" fill="#cdff1d" stroke="none" /><path d="M 101.98527174616119 120.90594882070398 l 4.313800537236306 45.42657368119578 a66.6309376573413,66.6309376573413 0 0,0 -1.1427386100714552,0.09860029567026878 l -3.5312176094233085 -45.49409822914471" fill="#38ff7d" stroke="none" /><path d="M 101.62511606390274 120.93702456842531 l 2.3109222181455586 29.77254137826884 a50.862092720019625,50.862092720019625 0 0,0 -0.8734649856930449,0.06023925939586137 l -1.7980944716735836 -29.80790898218099" fill="#8bff24" stroke="none" /><path d="M 101.26447882468166 120.96189622390904 l 0.18721776282211428 3.103602242242029 a24.10924385804103,24.10924385804103 0 0,0 -0.41446308068008786,0.021423007105154417 l -0.1337666137285468 -3.106365056109385" fill="#ff2603" stroke="none" /><path d="M 100.90346689309514 120.98055641714683 l 1.1219538084972767 26.054319595450842 a47.07846525258523,47.07846525258523 0 0,0 -0.8099281604833855,0.02789556347276465 l -0.6733052963392389 -26.0697719573497" fill="#b5ff20" stroke="none" /><line stroke="#e1ed5e" stroke-width="0.3" x1="102.19456741930631" x2="102.32365962044197" y1="184.97166512339345" y2="189.96999836594603" /><path d="M 102.22038585953345 185.97133177190398 a86.0,86.0 0 0,1 -42.740103519485714,-10.115201625700543" fill="none" id="id331" stroke="none" /><text fill="#e1ed5e" style="font-size:6.75px; font-family:Arial;" text-anchor="middle"><textPath startOffset="22.20632615414155" xlink:href="#id331">July</textPath></text><path d="M 100.54218724476979 120.99299961872073 l 0.08320896736900318 3.221775940142782 a24.222850282084714,24.222850282084714 0 0,0 -0.4169102151257226,0.007177487440180284 l -0.027739062350612624 -3.2227309048621215" fill="#ff2703" stroke="none" /><path d="M 100.18074693466247 120.99922214144158 l 0.2608641760945484 30.307262431771733 a51.308385081139704,51.308385081139704 0 0,0 -0.8832222215139868,0.0 l 0.2608641760945275 -30.307262431771733" fill="#87ff25" stroke="none" /><path d="M 99.45781275523022 120.99299961872073 l -0.028627520122248427 1.1084316807682635 a22.10880130133361,22.10880130133361 0 0,0 -0.3803552361448096,-0.013100203388092103 l 0.04770310794170104 -1.1077746789540777" fill="#ff0901" stroke="none" /><line stroke="#e1ed5e" stroke-width="0.3" x1="58.666819895761336" x2="56.23545636021788" y1="174.27360380694188" y2="178.64263932499728" /><path d="M 58.180547188652646 175.14741091055294 a86.0,86.0 0 0,1 -31.652253787137756,-30.449443065178592" fill="none" id="id332" stroke="none" /><text fill="#e1ed5e" style="font-size:6.75px; font-family:Arial;" text-anchor="middle"><textPath startOffset="22.20632615414155" xlink:href="#id332">August</textPath></text><line stroke="#e1ed5e" stroke-width="0.3" x1="26.63291911575756" x2="22.317208475507996" y1="142.92168965132927" y2="145.44649492493687" /><path d="M 25.769776987707644 143.4266507060508 a86.0,86.0 0 0,1 -11.730757126820373,-40.83630448921669" fill="none" id="id333" stroke="none" /><text fill="#e1ed5e" style="font-size:6.75px; font-family:Arial;" text-anchor="middle"><textPath startOffset="21.46611528233685" xlink:href="#id333">September</textPath></text><line stroke="#e1ed5e" stroke-width="0.3" x1="15.007084014347285" x2="10.007500721073583" y1="101.09737516637583" y2="101.16192664675087" /><path d="M 14.007167355692545 101.11028546245083 a86.0,86.0 0 0,1 10.666146001902534,-42.60595125391555" fill="none" id="id334" stroke="none" /><text fill="#e1ed5e" style="font-size:6.75px; font-family:Arial;" text-anchor="middle"><textPath startOffset="22.20632615414155" xlink:href="#id334">October</textPath></text><line stroke="#e1ed5e" stroke-width="0.3" x1="26.266209847984243" x2="21.928928074336255" y1="57.711370442889674" y2="55.22380399835377" /><path d="M 25.398753493254645 57.213857153982495 a86.0,86.0 0 0,1 29.58750427330803,-30.492523968695096" fill="none" id="id335" stroke="none" /><text fill="#e1ed5e" style="font-size:6.75px; font-family:Arial;" text-anchor="middle"><textPath startOffset="21.46611528233685" xlink:href="#id335">November</textPath></text><line stroke="#e1ed5e" stroke-width="0.3" x1="56.762969772571076" x2="54.21961505331055" y1="26.818313649435495" y2="22.513508569990535" /><path d="M 56.25429882871897 25.957352633546506 a86.0,86.0 0 0,1 42.265352541879196,-11.944610805530505" fill="none" id="id336" stroke="none" /><text fill="#e1ed5e" style="font-size:6.75px; font-family:Arial;" text-anchor="middle"><textPath startOffset="22.20632615414155" xlink:href="#id336">December</textPath></text></svg>