<?xml version="1.0" encoding="utf-8" ?>
<svg baseProfile="full" height="200mm" version="1.1" viewBox="0,0,200,200" width="200mm" xmlns="http://www.w3.org/2000/svg" xmlns:ev="http://www.w3.org/2001/xml-events" xmlns:xlink="http://www.w3.org/1999/xlink"><defs /><rect fill="#1a1a1a" height="200" width="200" x="0" y="0" /><text alignment-baseline="middle" fill="#e1ed5e" style="dominant-baseline: central; font-size:9.0px; font-family:Arial;" text-anchor="middle" x="100.0" y="100.0">2013</text><line stroke="#e1ed5e" stroke-width="0.3" x1="100.0" x2="100.0" y1="15.0" y2="10.0" /><path d="M 100.0 14.0 a86.0,86.0 0 0,1 42.46469731375804,11.215312516191453" fill="none" id="id169" stroke="none" /><text fill="#e1ed5e" style="font-size:6.75px; font-family:Arial;" text-anchor="middle"><textPath startOffset="22.20632615414155" xlink:href="#id169">January</textPath></text><path d="M 101.80526077348638 79.07773832637324 l 0.29775253401127144 -3.4508346506296523 a24.46365650108327,24.46365650108327 0 0,0 0.41923120353501253,0.03981105429010673 l -0.3571088646365282 3.4451980518243674" fill="#ff2904" stroke="none" /><path d="M 102.16513564639614 79.11191278185805 l 1.2699991244529674 -12.252281986439556 a33.31792643472685,33.31792643472685 0 0,0 0.5699480259698758,0.06404030156544827 l -1.4807138539325686 12.228605731403507" fill="#ffa10e" stroke="none" /><path d="M 102.52436894288641 79.15227682838746 l 0.8251404216697666 -6.814494821430316 a27.864269545026183,27.864269545026183 0 0,0 0.4756633444180603,0.06175475373485696 l -0.9423184945956731 6.7992817445313225" fill="#ff5808" stroke="none" /><path d="M 103.59715602781102 79.31037775812273 l 2.5109409995624974 -14.442081564141406 a35.65873611907237,35.65873611907237 0 0,0 0.6038295494879212,0.11034599058756915 l -2.7591656701533194 14.396720092203097" fill="#ffbf11" stroke="none" /><path d="M 103.95276090670814 79.375362276772 l 0.9827677525441139 -5.12786615246446 a26.22119179240059,26.22119179240059 0 0,0 0.44255576928722307,0.08877252397049794 l -1.0708899312984623 5.1101896724167535" fill="#ff4206" stroke="none" /><path d="M 105.36241919743992 79.69619591428918 l 1.8310315315258512 -6.932860733567521 a28.170581177316404,28.170581177316404 0 0,0 0.4677686246821443,0.1278588351877966 l -1.9500980454317063 6.900315357553431" fill="#ff5d08" stroke="none" /><path d="M 106.40334571778207 80.00007090966166 l 2.909258028818101 -9.086648893605744 a30.541015165793894,30.541015165793894 0 0,0 0.4992978634558041,0.1646106554265903 l -3.0652387145163225 9.035224513919918" fill="#ff7d0b" stroke="none" /><path d="M 106.74666289553966 80.11325718540242 l 8.76829880335102 -25.845800497764117 a48.29264493000029,48.29264493000029 0 0,0 0.7849118469519814,0.27384033125342644 l -9.211892654366274 25.691039313338482" fill="#a8ff21" stroke="none" /><path d="M 107.4271985657038 80.35727306442388 l 2.9294099568831014 -7.747416385381088 a29.28274733068426,29.28274733068426 0 0,0 0.4699418488334123,0.18233013636269438 l -3.0623349707161807 7.695843545127847" fill="#ff6c09" stroke="none" /><path d="M 108.09893153111575 80.62456947434976 l 3.294404005323506 -7.8813477658547235 a29.542174217178832,29.542174217178832 0 0,0 0.46749258678841454,0.20015592822027023 l -3.429580349902236 7.823472309671662" fill="#ff6f0a" stroke="none" /><path d="M 108.43124777332544 80.76684994638697 l 3.050748002341534 -6.959289500473577 a28.59860340623148,28.59860340623148 0 0,0 0.4491586090596186,0.20152437522585417 l -3.1700887298679326 6.905744794731192" fill="#ff6209" stroke="none" /><path d="M 109.73455568895987 81.39251694778311 l 6.871269990404424 -13.134347779083726 a35.82313876555684,35.82313876555684 0 0,0 0.543923106871499,0.29054488644066767 l -7.096338143804234 13.014124166141302" fill="#ffc112" stroke="none" /><path d="M 110.36928655335952 81.73862282372117 l 4.172522370508425 -7.348239861268838 a29.450240942785804,29.450240942785804 0 0,0 0.4386729331707986,0.25410767727114936 l -4.298392036144552 7.275328026607639" fill="#ff6e0a" stroke="none" /><line stroke="#e1ed5e" stroke-width="0.3" x1="143.23703022742887" x2="145.7803849466894" y1="26.81831364943548" y2="22.513508569990506" /><path d="M 143.74570117128098 25.957352633546492 a86.0,86.0 0 0,1 28.547481713284135,27.462654790039103" fill="none" id="id170" stroke="none" /><text fill="#e1ed5e" style="font-size:6.75px; font-family:Arial;" text-anchor="middle"><textPath startOffset="19.985693538727396" xlink:href="#id170">February</textPath></text><path d="M 115.4437574822437 85.77008943001954 l 2.9658064092434757 -2.73270025250864 a25.03282262530482,25.03282262530482 0 0,0 0.2892558858743334,0.31940357377267603 l -3.0124059357338444 2.681243891466415" fill="#ff3104" stroke="none" /><path d="M 116.38621287248628 86.86637796730983 l 8.484974261343675 -6.800744368011113 a31.874047644492805,31.874047644492805 0 0,0 0.33945241384020897,0.4310700936447237 l -8.600780755777848 6.653681880413351" fill="#ff8e0d" stroke="none" /><path d="M 116.60985879189232 87.15038557335679 l 6.666930958439107 -5.15762917062304 a29.42906323776584,29.42906323776584 0 0,0 0.3065163898459733,0.40333963958994334 l -6.754723288509195 5.042104755152063" fill="#ff6e0a" stroke="none" /><path d="M 117.45458315368197 88.32363383020206 l 2.9815017156623074 -1.9944965434829194 a24.58711150404648,24.58711150404648 0 0,0 0.23229360234441396,0.3537990931185509 l -3.015391953364646 1.9428793863866944" fill="#ff2b04" stroke="none" /><line stroke="#e1ed5e" stroke-width="0.3" x1="172.23445277983987" x2="176.4835382374775" y1="55.19839476539836" y2="52.563006222186495" /><path d="M 173.08426987136738 54.67131705675599 a86.0,86.0 0 0,1 12.851231095245387,41.99856678651699" fill="none" id="id171" stroke="none" /><text fill="#e1ed5e" style="font-size:6.75px; font-family:Arial;" text-anchor="middle"><textPath startOffset="22.20632615414155" xlink:href="#id171">March</textPath></text><path d="M 117.84615892207809 88.93136811851018 l 11.03960280425225 -6.847036389828479 a33.99056339807052,33.99056339807052 0 0,0 0.30410904142133216,0.4998753040081901 l -11.155827643959805 6.655993312613208" fill="#ffaa0f" stroke="none" /><path d="M 118.21658344932153 89.55222093294921 l 3.2840608655215275 -1.883511387366901 a24.785851412138463,24.785851412138463 0 0,0 0.20907734198673752,0.37192526191765735 l -3.315995848800698 1.8267026155144497" fill="#ff2d04" stroke="none" /><path d="M 119.196687751892 91.48605970444005 l 57.372972401366724 -25.445538726122248 a83.76251590902467,83.76251590902467 0 0,0 0.5732119858608141,1.3230522942191323 l -57.802475097070214 24.454187287316515" fill="#4dd4ff" stroke="none" /><path d="M 119.97218684219823 93.5106431181261 l 19.190308781781454 -6.235309299992105 a41.17788475551108,41.17788475551108 0 0,0 0.2132318646279338,0.6760032817321208 l -19.294796130177595 5.904055851833565" fill="#faff18" stroke="none" /><line stroke="#e1ed5e" stroke-width="0.3" x1="184.98032266829074" x2="189.97916517819016" y1="98.17113171792111" y2="98.06355123074" /><path d="M 185.9800911702706 98.14961562048488 a86.0,86.0 0 0,1 -9.607161424134198,41.387399972396054" fill="none" id="id172" stroke="none" /><text fill="#e1ed5e" style="font-size:6.75px; font-family:Arial;" text-anchor="middle"><textPath startOffset="21.466115282336823" xlink:href="#id172">April</textPath></text><path d="M 120.76222939487914 103.15116336523771 l 3.3442582127833793 0.5075709242774045 a24.382556908159994,24.382556908159994 0 0,0 -0.0665507326743704,0.41441147589093963 l -3.3350257257477205 -0.565061629861549" fill="#ff2803" stroke="none" /><path d="M 120.64145759157962 103.86396538481128 l 14.71128749088068 2.7538707176356954 a35.96682276132091,35.96682276132091 0 0,0 -0.11915306048369072,0.6075588883599422 l -14.661704497421326 -3.0066933330635823" fill="#ffc312" stroke="none" /><path d="M 120.32669344350535 105.2749913415812 l 3.3464721580014993 0.8684448214542603 a24.457321551749263,24.457321551749263 0 0,0 -0.10925658963320517,0.40658441447413035 l -3.331027492026517 -0.9259201691039388" fill="#ff2904" stroke="none" /><path d="M 120.02730092923936 106.31721596034902 l 19.753554854980916 6.230868175617649 a41.71295844708488,41.71295844708488 0 0,0 -0.2218886043607942,0.6829029047280143 l -19.643373999603874 -6.569969980323458" fill="#f4ff19" stroke="none" /><path d="M 119.9155931802556 106.66101706037122 l 14.01279625938108 4.686753445023197 a35.77579496546163,35.77579496546163 0 0,0 -0.20036007229682332,0.5823401565654841 l -13.930045356141028 -4.927266304677982" fill="#ffc111" stroke="none" /><path d="M 119.67450827220406 107.3425965602758 l 21.35719874327104 7.970582637179209 a43.79605504765421,43.79605504765421 0 0,0 -0.2696704975666363,0.7040245737983997 l -21.216833966110897 -8.337030777810753" fill="#dbff1b" stroke="none" /><path d="M 119.41010516605496 108.01547362559984 l 1.4253921772620102 0.5886208912953612 a22.54214701396108,22.54214701396108 0 0,0 -0.15119234708262577,0.3573740470060033 l -1.4150488489870754 -0.613069463967528" fill="#ff0d01" stroke="none" /><path d="M 119.12269723197855 108.67885076344098 l 6.556373242248389 2.975615010195091 a28.20002185972855,28.20002185972855 0 0,0 -0.20441710155820525,0.4402962509573002 l -6.504181523850352 -3.0880313284312217" fill="#ff5d08" stroke="none" /><path d="M 118.81262510543309 109.33194174019688 l 56.43787531629926 27.995825220590632 a84.0,84.0 0 0,0 -0.6536853208549238,1.2897831531892228 l -55.94761132565807 -28.96316258548255" fill="#4dd2ff" stroke="none" /><line stroke="#e1ed5e" stroke-width="0.3" x1="174.80103733775053" x2="179.2010983576182" y1="140.37084112569926" y2="142.7455964860345" /><path d="M 175.68104954172406 140.8457921977663 a86.0,86.0 0 0,1 -30.038265399797805,32.042727171017184" fill="none" id="id173" stroke="none" /><text fill="#e1ed5e" style="font-size:6.75px; font-family:Arial;" text-anchor="middle"><textPath startOffset="22.206326154141568" xlink:href="#id173">May</textPath></text><path d="M 118.48025628344425 109.97397251340804 l 35.651324595036016 19.241363654465808 a61.512307027174074,61.512307027174074 0 0,0 -0.510914164504802,0.9274576136271039 l -35.314834021079704 -19.852191786490717" fill="#31ff42" stroke="none" /><path d="M 117.94076556474637 110.91462005526583 l 11.59841760020086 7.056127058326571 a34.576163666216516,34.576163666216516 0 0,0 -0.3137134191924787,0.5058059202655452 l -11.475239541340418 -7.25472930995739" fill="#ffb210" stroke="none" /><path d="M 117.75023020441432 111.22182372390056 l 5.982884187428104 3.782422590504393 a28.07825005586375,28.07825005586375 0 0,0 -0.2617897526581518,0.4063035097133929 l -5.916889571392901 -3.8848477001392387" fill="#ff5b08" stroke="none" /><path d="M 117.35343817320211 111.8261652097733 l 4.1061182790932955 2.7982715963695948 a25.96895675659921,25.96895675659921 0 0,0 -0.2549151041786226,0.36722422003617006 l -4.057342267752537 -2.8685370785927846" fill="#ff3e05" stroke="none" /><path d="M 117.14729908036423 112.12312394758627 l 6.844742528008484 4.839226380053273 a29.38263754626976,29.38263754626976 0 0,0 -0.29553365728930986,0.4104704018707324 l -6.760429078343572 -4.956330387375137" fill="#ff6d0a" stroke="none" /><path d="M 116.93607887273984 112.41649034213515 l 5.936200210937183 4.3520565263025475 a28.36062965733661,28.36062965733661 0 0,0 -0.29203174442057495,0.3912242447969793 l -5.860407199821516 -4.453593650608842" fill="#ff5f08" stroke="none" /><path d="M 116.71984013943494 112.70617746262583 l 0.6091519447665975 0.46292265041773395 a21.7650904992762,21.7650904992762 0 0,0 -0.22925188767008015,0.2963389682790304 l -0.6010932398784489 -0.473339612810017" fill="#ff0200" stroke="none" /><path d="M 116.27256486870786 113.27417163493432 l 16.910233327253938 13.794342894549454 a42.822921139814824,42.822921139814824 0 0,0 -0.4708563708298374,0.5671768310735351 l -16.670280956530554 -14.08338098273676" fill="#e7ff1a" stroke="none" /><path d="M 115.80600337817218 113.82643327865902 l 6.341811612973549 5.547552599773244 a29.425788650428935,29.425788650428935 0 0,0 -0.33677275686899816,0.3783677624458029 l -6.245380006456212 -5.655894531959913" fill="#ff6e0a" stroke="none" /><path d="M 115.32070863581623 114.36230785411682 l 2.243873764293152 2.1035062120569634 a24.075663807090326,24.075663807090326 0 0,0 -0.28603430433674354,0.29990582454699677 l -2.2073329085774445 -2.1418191531864674" fill="#ff2303" stroke="none" /><path d="M 114.81725581225074 114.88116024355365 l 0.4318682532304034 0.4337308312590323 a21.61207239942096,21.61207239942096 0 0,0 -0.26587999684038993,0.26021953722969104 l -0.4243383040142193 -0.4411004714112953" fill="#ff0000" stroke="none" /><path d="M 114.55890576462653 115.13401014063108 l 9.246480162876248 9.611733657217124 a34.33727180872252,34.33727180872252 0 0,0 -0.42948432613972115,0.40610423742511426 l -9.079660002345719 -9.76947253138816" fill="#ffae10" stroke="none" /><path d="M 113.75828350139079 115.86535959552629 l 3.625248688323457 4.180454201110734 a26.533409923345218,26.533409923345218 0 0,0 -0.3476312901926396,0.29625892720194685 l -3.55275192155377 -4.242237518535628" fill="#ff4606" stroke="none" /><path d="M 113.20401910651253 116.32954008644616 l 5.288470771773647 6.540303733814102 a29.410915291123008,29.410915291123008 0 0,0 -0.39640662883224065,0.3149294003353153 l -5.1751066502240555 -6.630367048154543" fill="#ff6d0a" stroke="none" /><path d="M 112.04921762599082 117.19931262002967 l 4.598413831413847 6.563874891939431 a29.014353583538167,29.014353583538167 0 0,0 -0.4115107362844866,0.2830408367716991 l -4.4847462105064775 -6.642056518076224" fill="#ff6809" stroke="none" /><path d="M 111.7513745106137 117.40417183066458 l 4.683281634976081 6.936094006101311 a29.369141349862527,29.369141349862527 0 0,0 -0.42141263642837634,0.2792893164960159 l -4.56319429980774 -7.015681343688646" fill="#ff6d0a" stroke="none" /><path d="M 111.45004920935366 117.60387380957326 l 1.9256026174733267 2.9605170131227663 a24.53165774465894,24.53165774465894 0 0,0 -0.35596393051209213,0.22719302230327748 l -1.8743568849143042 -2.9932244642498524" fill="#ff2a04" stroke="none" /><path d="M 111.1453310114006 117.79835938074945 l 4.5357162698427995 7.243240074000244 a29.54618329139504,29.54618329139504 0 0,0 -0.4333732864934358,0.26621326856831484 l -4.410363783417055 -7.320241809396937" fill="#ff6f0a" stroke="none" /><line stroke="#e1ed5e" stroke-width="0.3" x1="143.8653032363475" x2="146.44561519142675" y1="172.8068346515853" y2="177.08958963109032" /><path d="M 144.38136562736335 173.6633856474863 a86.0,86.0 0 0,1 -40.68145358897372,12.25698825130547" fill="none" id="id174" stroke="none" /><text fill="#e1ed5e" style="font-size:6.75px; font-family:Arial;" text-anchor="middle"><textPath startOffset="21.466115282336833" xlink:href="#id174">June</textPath></text><path d="M 110.8373102113329 117.98757091392108 l 6.5815267404299975 10.923898703347335 a33.75335473967492,33.75335473967492 0 0,0 -0.5002442121696797,0.29555309806699814 l -6.392514657231936 -11.035570373708083" fill="#ffa70f" stroke="none" /><path d="M 109.89434966115114 118.52300852407294 l 0.964268679244655 1.8051875642999324 a23.046586481943862,23.046586481943862 0 0,0 -0.35152530075602406,0.18390142324381756 l -0.9330524759621354 -1.8215184064884669" fill="#ff1502" stroke="none" /><path d="M 109.57404056367764 118.69057910512821 l 1.5304103236434903 2.987688951923125 a24.356849867384312,24.356849867384312 0 0,0 -0.3748009931334721,0.18793299869810756 l -1.4787554228272577 -3.013589791530535" fill="#ff2703" stroke="none" /><path d="M 108.59647513512805 119.15986991738527 l 3.5247519090498574 7.8559859717950244 a29.61048149695421,29.61048149695421 0 0,0 -0.46682943986050784,0.2046443075822256 l -3.3890017945315956 -7.915494832671705" fill="#ff700a" stroke="none" /><path d="M 105.18746579009965 120.34920634021253 l 1.3250467611054808 5.197846317102698 a26.36408009404541,26.36408009404541 0 0,0 -0.44071541513245405,0.10831712648677946 l -1.2353780612298157 -5.219884701903507" fill="#ff4406" stroke="none" /><path d="M 104.83641907484287 120.43548508189849 l 0.8100199631717855 3.422604744807976 a24.517151628792664,24.517151628792664 0 0,0 -0.4115143782585422,0.0936593327158544 l -0.7509854355203812 -3.4360408111015146" fill="#ff2a04" stroke="none" /><path d="M 104.48393922423573 120.51570834832081 l 1.8307810282719372 8.376511756148497 a29.57424681090849,29.57424681090849 0 0,0 -0.4982676687378291,0.10441683454981081 l -1.68632189810473 -8.406784571424849" fill="#ff700a" stroke="none" /><path d="M 103.7750983002368 120.6578951692458 l 0.11003016546075864 0.6021013077727111 a21.61207239942096,21.61207239942096 0 0,0 -0.36653151493687125,0.06372620209900355 l -0.09964967905183744 -0.6039060883927209" fill="#ff0000" stroke="none" /><path d="M 103.41894727170886 120.7198165907248 l 2.387870381731515 14.471190229023845 a35.666876681984675,35.666876681984675 0 0,0 -0.6066156765667893,0.0947408929982452 l -2.138418841556208 -14.510149429369196" fill="#ffbf11" stroke="none" /><path d="M 103.06178313531738 120.77559828337769 l 0.9005486862570807 6.110634526818394 a27.176636807896706,27.176636807896706 0 0,0 -0.4633893632670196,0.06422154333531449 l -0.7952307318032306 -6.125230635646311" fill="#ff4f07" stroke="none" /><path d="M 102.70371172650421 120.8252237178851 l 0.8219725997235213 6.33120872739881 a27.38434357664021,27.38434357664021 0 0,0 -0.46797571178072633,0.05666534149172538 l -0.7128694648914147 -6.344419597615886" fill="#ff5207" stroke="none" /><path d="M 101.98527174616119 120.90594882070398 l 0.6714374632521214 7.070587323974562 a28.102396312020907,28.102396312020907 0 0,0 -0.4819637008025463,0.04158585610273245 l -0.5496294447080333 -7.081097432355957" fill="#ff5c08" stroke="none" /><path d="M 101.62511606390274 120.93702456842531 l 0.6507513914332305 8.383892186539844 a29.409109677544713,29.409109677544713 0 0,0 -0.5050485772409222,0.034831106856317906 l -0.5063400534133778 -8.393851637912448" fill="#ff6d0a" stroke="none" /><line stroke="#e1ed5e" stroke-width="0.3" x1="102.19456741930631" x2="102.32365962044197" y1="184.97166512339345" y2="189.96999836594603" /><path d="M 102.22038585953345 185.97133177190398 a86.0,86.0 0 0,1 -42.740103519485714,-10.115201625700543" fill="none" id="id175" stroke="none" /><text fill="#e1ed5e" style="font-size:6.75px; font-family:Arial;" text-anchor="middle"><textPath startOffset="22.20632615414155" xlink:href="#id175">July</textPath></text><path d="M 100.54218724476979 120.99299961872073 l 0.09231021106583023 3.574167862491485 a24.575359713977598,24.575359713977598 0 0,0 -0.42297741123901417,0.00728193972347857 l -0.030773109934148096 -3.5752272794941233" fill="#ff2a04" stroke="none" /><path d="M 100.18074693466247 120.99922214144158 l 0.06554892622772468 7.615489942108667 a28.61577203703524,28.61577203703524 0 0,0 -0.49259172178035504,0.0 l 0.06554892622771943 -7.615489942108667" fill="#ff6309" stroke="none" /><path d="M 99.81925306533755 120.99922214144158 l -0.04602427459661552 5.347111241238822 a26.347309310301277,26.347309310301277 0 0,0 -0.4534752213147186,-0.00780698718173133 l 0.13805918580400206 -5.345526776777931" fill="#ff4306" stroke="none" /><path d="M 99.45781275523022 120.99299961872073 l -0.05833270827323759 2.2585896926789504 a23.25934284798259,23.25934284798259 0 0,0 -0.40014891449514556,-0.013781937692097202 l 0.09720197444302621 -2.257250956560759" fill="#ff1802" stroke="none" /><path d="M 99.09653310690486 120.98055641714683 l -0.3167523556142809 7.355710229140376 a28.362527081774815,28.362527081774815 0 0,0 -0.48758146126029794,-0.02520239219324762 l 0.44332188528806776 -7.349168030184927" fill="#ff5f08" stroke="none" /><path d="M 98.37488393609728 120.93702456842531 l -3.0182880932110767 38.885820752017864 a60.00278347210213,60.00278347210213 0 0,0 -1.0290639723238804,-0.08879196960747764 l 3.6871963832764987 -38.828104530131725" fill="#2fff30" stroke="none" /><path d="M 96.58105272829116 120.7198165907248 l -0.24912419762959254 1.5097652209818024 a22.5301809985524,22.5301809985524 0 0,0 -0.38210224455025305,-0.06643337302901814 l 0.27507541365189553 -1.505253269431778" fill="#ff0d01" stroke="none" /><path d="M 95.86986931433489 120.58985236759428 l -6.616398816899624 32.984591823672666 a54.64164132557394,54.64164132557394 0 0,0 -0.9206037744048068,-0.19292147178937039 l 7.183194052733817 -32.86581437115676" fill="#64ff29" stroke="none" /><path d="M 94.81253420990036 120.34920634021253 l -0.9122075610782622 3.578375383392559 a24.692816407426477,24.692816407426477 0 0,0 -0.41097025372842,-0.1085409792601866 l 0.9736682576181716 -3.5621430548287907" fill="#ff2c04" stroke="none" /><path d="M 94.46302465271185 120.25689768951611 l -1.220074930441387 4.463616232569884 a25.62735915048237,25.62735915048237 0 0,0 -0.42452188058294454,-0.11997412388719085 l 1.2967279791289454 -4.441953315344172" fill="#ff3905" stroke="none" /><path d="M 93.76903079525671 120.05430185196036 l -2.1584497691212734 6.946945455821027 a28.274541674358055,28.274541674358055 0 0,0 -0.4635391036103877,-0.1484105828936182 l 2.2777102178226016 -6.908762026267702" fill="#ff5e08" stroke="none" /><path d="M 93.08242187328487 119.8279376855182 l -3.3705022199396795 9.660911197774874 a31.23198369750022,31.23198369750022 0 0,0 -0.5060777683328852,-0.1814614823396168 l 3.5362995489022913 -9.6014621743953" fill="#ff860c" stroke="none" /><path d="M 92.40401165467489 119.57807347666478 l -2.1439226750369134 5.525795163442142 a26.92712549427275,26.92712549427275 0 0,0 -0.43067875887153245,-0.17137596635159083 l 2.238722509950304 -5.488072352684484" fill="#ff4b07" stroke="none" /><path d="M 91.07499286063937 119.00905698771935 l -7.876870061382966 16.776666902746662 a39.53379708342644,39.53379708342644 0 0,0 -0.613503031206555,-0.29451873749695906 l 8.164485760589763 -16.63859388875014" fill="#fff016" stroke="none" /><path d="M 90.42595943632237 118.69057910512821 l -1.3985880938846855 2.7303437070670817 a24.06770686589785,24.06770686589785 0 0,0 -0.3671002602129812,-0.1920495059136539 l 1.4453792566241623 -2.705864782208711" fill="#ff2303" stroke="none" /><line stroke="#e1ed5e" stroke-width="0.3" x1="58.666819895761336" x2="56.23545636021788" y1="174.27360380694188" y2="178.64263932499728" /><path d="M 58.180547188652646 175.14741091055294 a86.0,86.0 0 0,1 -31.652253787137756,-30.449443065178592" fill="none" id="id176" stroke="none" /><text fill="#e1ed5e" style="font-size:6.75px; font-family:Arial;" text-anchor="middle"><textPath startOffset="22.20632615414155" xlink:href="#id176">August</textPath></text><path d="M 87.07902340077011 116.55440617244103 l -5.169118730553377 6.622695301859276 a29.401183339972214,29.401183339972214 0 0,0 -0.3962754595058274,-0.31482519148938626 l 5.282351682776563 -6.532736196364758" fill="#ff6d0a" stroke="none" /><path d="M 84.19399662182784 113.82643327865904 l -5.921435098602024 5.179824737845812 a28.86727258595731,28.86727258595731 0 0,0 -0.32394233395918837,-0.3768181190741643 l 6.009719942131992 -5.077129519610117" fill="#ff6609" stroke="none" /><path d="M 82.85270091963577 112.12312394758628 l -1.4232996245766083 1.0062714648194455 a22.74309038269098,22.74309038269098 0 0,0 -0.22324952475321505,-0.32160759114336224 l 1.440410056491957 -0.9816226114890708" fill="#ff1001" stroke="none" /><path d="M 82.6465618267979 111.8261652097733 l -6.364236760653479 4.337152938478041 a28.701584587434056,28.701584587434056 0 0,0 -0.2747109224697852,-0.410655555824909 l 6.437950788533994 -4.22696046844731" fill="#ff6409" stroke="none" /><path d="M 82.05923443525364 110.91462005526583 l -2.6197380264386427 1.5937695133309084 a24.066452117479038,24.066452117479038 0 0,0 -0.21226510410713811,-0.35576852394954095 l 2.6467840062440127 -1.5484388954952564" fill="#ff2303" stroke="none" /><line stroke="#e1ed5e" stroke-width="0.3" x1="26.63291911575756" x2="22.317208475507996" y1="142.92168965132927" y2="145.44649492493687" /><path d="M 25.769776987707644 143.4266507060508 a86.0,86.0 0 0,1 -11.730757126820373,-40.83630448921669" fill="none" id="id177" stroke="none" /><text fill="#e1ed5e" style="font-size:6.75px; font-family:Arial;" text-anchor="middle"><textPath startOffset="21.46611528233685" xlink:href="#id177">September</textPath></text><path d="M 81.87401531095188 110.60418214915194 l -1.3212391583180771 0.7729599763957896 a22.53073186371188,22.53073186371188 0 0,0 -0.19295748337688626,-0.33643763670228216 l 1.3343486378473406 -0.7501024938352004" fill="#ff0d01" stroke="none" /><path d="M 81.35079622478065 109.6543875284942 l -1.2468888554294055 0.6454939503246682 a22.40406348065171,22.40406348065171 0 0,0 -0.1743477074381441,-0.3440045671467537 l 1.2578152326538163 -0.6239351714752295" fill="#ff0b01" stroke="none" /><path d="M 81.02952815118164 109.00673069616217 l -3.325255788906732 1.5787526860278231 a24.681003410117654,24.681003410117654 0 0,0 -0.17890834289917637,-0.3853526541714483 l 3.351938748645735 -1.5212799645775477" fill="#ff2c04" stroke="none" /><path d="M 80.87730276802145 108.67885076344099 l -7.005295600927585 3.1793587660096896 a28.69301557384216,28.69301557384216 0 0,0 -0.20024843991860952,-0.45150736797224417 l 7.0589851255774745 -3.0583030615447497" fill="#ff6409" stroke="none" /><path d="M 80.45479744820244 107.68017299344265 l -1.6166107453144722 0.6352377343836494 a22.7369390550768,22.7369390550768 0 0,0 -0.14000077544548498,-0.36549784701641413 l 1.6273058003534662 -0.6073163205340775" fill="#ff1001" stroke="none" /><path d="M 80.0844068197444 106.66101706037122 l -1.9039863553679663 0.6368118429127945 a23.007658677340693,23.007658677340693 0 0,0 -0.12238732191581846,-0.37666944581928413 l 1.914665928300034 -0.6039434971157069" fill="#ff1402" stroke="none" /><path d="M 79.97269907076064 106.31721596034903 l -10.817941297340331 3.412305615376438 a32.34335415674883,32.34335415674883 0 0,0 -0.1629076646255518,-0.532391673770699 l 10.875075734472013 -3.225586969053692" fill="#ff950d" stroke="none" /><path d="M 79.67330655649465 105.27499134158121 l -2.2419417266925636 0.5818075246474257 a23.316204373888798,23.316204373888798 0 0,0 -0.09747137798150025,-0.3893497030877889 l 2.2516244189691226 -0.543129982162245" fill="#ff1902" stroke="none" /><path d="M 79.58551787078972 104.9243191809786 l -1.7647006720045375 0.42567571946405947 a22.815314925822655,22.815314925822655 0 0,0 -0.08880528238823342,-0.3825708322783355 l 1.771766520323326 -0.39523622983714973" fill="#ff1101" stroke="none" /><path d="M 79.50377843672027 104.57218783832718 l -7.602553152583825 1.6959370270838097 a28.789416976750964,28.789416976750964 0 0,0 -0.1037323290527984,-0.48460290706415005 l 7.630619520361064 -1.564820300603496" fill="#ff6509" stroke="none" /><path d="M 79.35854240842038 103.8639653848113 l -12.659003716358164 2.3696946763177817 a33.87889078879616,33.87889078879616 0 0,0 -0.10236838810243837,-0.5741362846518951 l 12.69791854679979 -2.151439640932673" fill="#ffa90f" stroke="none" /><path d="M 79.18660465613746 102.79330883721812 l -1.5260170600293446 0.20480257397227378 a22.539698724363397,22.539698724363397 0 0,0 -0.04829773450605217,-0.3849804645780902 l 1.5293163037822448 -0.17850435510677495" fill="#ff0d01" stroke="none" /><path d="M 79.1416061653843 102.43462659150553 l -2.744628961879237 0.32035767985730573 a23.763262054425866,23.763262054425866 0 0,0 -0.04392548294191417,-0.40669541839887835 l 2.7497367463222036 -0.2730659395736453" fill="#ff1f03" stroke="none" /><path d="M 79.07016306316243 101.71520430193888 l -2.7514981106906404 0.22548581770968978 a23.760721953968268,23.760721953968268 0 0,0 -0.02989714488779618,-0.4079227886017496 l 2.754971814242772 -0.1780898926111796" fill="#ff1f03" stroke="none" /><path d="M 79.04373962182676 101.35467743843564 l -8.48632955499273 0.5485825703545852 a29.504042106694907,29.504042106694907 0 0,0 -0.028399254978296328,-0.5070877751779225 l 8.494515160858558 -0.40242307884122513" fill="#ff6f0a" stroke="none" /><path d="M 79.0235259727143 100.99374915477108 l -4.135847638247129 0.19593355343819283 a25.14048616036297,25.14048616036297 0 0,0 -0.016757770729951625,-0.43244360105965834 l 4.138607541828282 -0.1247127053645377" fill="#ff3204" stroke="none" /><line stroke="#e1ed5e" stroke-width="0.3" x1="15.007084014347285" x2="10.007500721073583" y1="101.09737516637583" y2="101.16192664675087" /><path d="M 14.007167355692545 101.11028546245083 a86.0,86.0 0 0,1 10.666146001902534,-42.60595125391555" fill="none" id="id178" stroke="none" /><text fill="#e1ed5e" style="font-size:6.75px; font-family:Arial;" text-anchor="middle"><textPath startOffset="22.20632615414155" xlink:href="#id178">October</textPath></text><path d="M 79.00175016825051 100.2711162175752 l -1.5360206797472047 0.019832134589650236 a22.536148704446756,22.536148704446756 0 0,0 -0.001669502267793856,-0.3879335311642868 l 1.5361344793045015 0.006610874778311945" fill="#ff0d01" stroke="none" /><path d="M 79.00019446554 99.90962569577889 l -12.85918539146287 -0.05534050925837466 a33.85930447201469,33.85930447201469 0 0,0 0.007524815855714027,-0.5828052806630584 l 12.85632756848944 0.276682047981905" fill="#ffa80f" stroke="none" /><path d="M 79.01574976396665 99.18683210126434 l -2.7545230534064293 -0.10674147030095792 a23.75659046527218,23.75659046527218 0 0,0 0.01935188302548918,-0.4084876648340717 l 2.7522775621474413 0.15414024175803867" fill="#ff1f03" stroke="none" /><path d="M 79.05617556472873 98.46500227214037 l -5.495686065393727 -0.4027853484678027 a26.51042660474696,26.51042660474696 0 0,0 0.037273049031928164,-0.45482560736071326 l 5.487938532542302 0.4973248730362943" fill="#ff4606" stroke="none" /><path d="M 79.12142395522702 97.74499172005258 l -1.526810149608042 -0.1649044226910224 a22.535689650147187,22.535689650147187 0 0,0 0.04497441895515921,-0.3853133561929978 l 1.5237453776492937 0.19116151720888191" fill="#ff0d01" stroke="none" /><path d="M 79.16333360222342 97.38593545837743 l -2.7374884324524045 -0.3434316846930637 a23.75894694400995,23.75894694400995 0 0,0 0.054401201297173796,-0.4053521381856037 l 2.7311712320973967 0.39050216494332685" fill="#ff1f03" stroke="none" /><path d="M 79.26566170972629 96.67025291283419 l -2.7264318276647934 -0.43784027777638623 a23.76136462998766,23.76136462998766 0 0,0 0.06832878941638902,-0.4032803830065343 l 2.7184911767281816 0.4847064490987485" fill="#ff1f03" stroke="none" /><path d="M 79.3925641242962 95.95851677861259 l -5.708573466956395 -1.1195523802144882 a26.81731970581663,26.81731970581663 0 0,0 0.09273774470043306,-0.45222217829897954 l 5.688456426340967 1.2176502146768704" fill="#ff4a06" stroke="none" /><path d="M 79.62865764111835 94.90015583598534 l -1.4946155569245236 -0.37416809806369056 a22.54073924744241,22.54073924744241 0 0,0 0.09746580028679518,-0.3755754873071958 l 1.4879534247674213 0.3998400109197502" fill="#ff0d01" stroke="none" /><path d="M 79.71946130924805 94.55025226153421 l -3.99343114207418 -1.0731072121452945 a25.135099923248063,25.135099923248063 0 0,0 0.11587667598604108,-0.4168700567001288 l 3.9743676955217784 1.141688572264366" fill="#ff3204" stroke="none" /><path d="M 79.81627453868168 94.20196356495316 l -11.85656850399847 -3.4059527966014 a33.336074381369684,33.336074381369684 0 0,0 0.16317865999287168,-0.550157321038775 l 11.796183946893892 3.6095395043867144" fill="#ffa10e" stroke="none" /><path d="M 80.02781315780177 93.51064311812611 l -5.406659137298381 -1.756730044525856 a26.684897842201906,26.684897842201906 0 0,0 0.14570298104812676,-0.43563336790842383 l 5.375618862478482 1.849536515356602" fill="#ff4806" stroke="none" /><path d="M 80.14247586403 93.16781622104843 l -11.587507482480977 -3.986800172982354 a33.25417909432716,33.25417909432716 0 0,0 0.190889944762856,-0.5396715793610126 l 11.51716445690831 4.185669378769978" fill="#ffa00e" stroke="none" /><path d="M 80.38941819471856 92.48833698450439 l -1.43514158281313 -0.5497185171076324 a22.536821984086117,22.536821984086117 0 0,0 0.14188158245068042,-0.36107315157299097 l 1.4254664504807584 0.5743406735763867" fill="#ff0d01" stroke="none" /><path d="M 80.52162464483688 92.15188598940014 l -3.8322131392606864 -1.5440530886917374 a25.131580506951394,25.131580506951394 0 0,0 0.16512443258251516,-0.39986191105106306 l 3.8050670197919714 1.6097895701961116" fill="#ff3204" stroke="none" /><path d="M 80.95270993114464 91.15688171328213 l -6.257908884080042 -2.905370175461819 a27.899463707992886,27.899463707992886 0 0,0 0.20598015448255816,-0.43384673682889513 l 6.206970535755732 3.012659327931246" fill="#ff5908" stroke="none" /><line stroke="#e1ed5e" stroke-width="0.3" x1="26.266209847984243" x2="21.928928074336255" y1="57.711370442889674" y2="55.22380399835377" /><path d="M 25.398753493254645 57.213857153982495 a86.0,86.0 0 0,1 29.58750427330803,-30.492523968695096" fill="none" id="id179" stroke="none" /><text fill="#e1ed5e" style="font-size:6.75px; font-family:Arial;" text-anchor="middle"><textPath startOffset="21.46611528233685" xlink:href="#id179">November</textPath></text><path d="M 81.96595687620814 89.24020034530311 l -4.503377169783696 -2.686887004971305 a26.244022092898987,26.244022092898987 0 0,0 0.23480176860396249,-0.3859523706167966 l 4.456459602893516 2.764007148795176" fill="#ff4206" stroke="none" /><path d="M 82.15384107792192 88.93136811851018 l -6.998586675920716 -4.340697622648178 a29.235403530589046,29.235403530589046 0 0,0 0.268927294034436,-0.42537839613312434 l 6.922831785640318 4.460523666495518" fill="#ff6b09" stroke="none" /><path d="M 82.7489923806493 88.02491185347247 l -3.523342618460437 -2.4457897971799087 a25.289036131702435,25.289036131702435 0 0,0 0.2513096522861927,-0.3554596808681198 l 3.4807203463703664 2.5060759783798146" fill="#ff3505" stroke="none" /><path d="M 83.17141714833178 87.43820079747576 l -1.2531309416758503 -0.9354073009327507 a22.56375316966064,22.56375316966064 0 0,0 0.23501122366901464,-0.3092472226424321 l 1.2368437777827268 0.9568392994562094" fill="#ff0e01" stroke="none" /><path d="M 84.07557802195018 86.31012108654704 l -1.1739211773547553 -1.0091944809096838 a22.548084116235465,22.548084116235465 0 0,0 0.25555368954262997,-0.2921420440692942 l 1.1563756242342818 1.029252081181921" fill="#ff0e01" stroke="none" /><path d="M 85.05521093208273 85.24692304244772 l -4.617008976037148 -4.5577818748483905 a27.487692001282436,27.487692001282436 0 0,0 0.33530298222646954,-0.33386308466185227 l 4.537870193643365 4.6365808101603525" fill="#ff5307" stroke="none" /><path d="M 87.80319425747018 82.90503203632743 l -2.3352790693645065 -3.2731127903280783 a25.020795402656198,25.020795402656198 0 0,0 0.3527561134083244,-0.24712820060062657 l 2.278591816372522 3.3128258336926475" fill="#ff3104" stroke="none" /><path d="M 88.09926311788651 82.69761687909137 l -1.6102744873123318 -2.341164785449375 a23.841484907071866,23.841484907071866 0 0,0 0.3401331884064796,-0.22965944713389513 l 1.5697366044993126 2.368536144881935" fill="#ff2003" stroke="none" /><path d="M 88.39885842347998 82.49532879139004 l -1.8888302702036892 -2.850008564304018 a24.419097630405425,24.419097630405425 0 0,0 0.35237103726693436,-0.2291919244764885 l 1.8394922071524678 2.8820994129400415" fill="#ff2803" stroke="none" /><path d="M 89.00827224532344 82.1063720568725 l -6.4106166715961805 -10.435956217961099 a33.247660523273325,33.247660523273325 0 0,0 0.4902255670249231,-0.2953554189612122 l 6.230029038353608 10.544758246380932" fill="#ffa00e" stroke="none" /><line stroke="#e1ed5e" stroke-width="0.3" x1="56.762969772571076" x2="54.21961505331055" y1="26.818313649435495" y2="22.513508569990535" /><path d="M 56.25429882871897 25.957352633546506 a86.0,86.0 0 0,1 42.265352541879196,-11.944610805530505" fill="none" id="id180" stroke="none" /><text fill="#e1ed5e" style="font-size:6.75px; font-family:Arial;" text-anchor="middle"><textPath startOffset="22.20632615414155" xlink:href="#id180">December</textPath></text><path d="M 89.3179101791058 81.91981866633112 l -2.1813811467114834 -3.6921395861365864 a25.288393455683043,25.288393455683043 0 0,0 0.37668057636382235,-0.21819770287878595 l 2.117503837882341 3.7291414464054196" fill="#ff3505" stroke="none" /><path d="M 89.63071344664047 81.73862282372117 l -1.7108582358398103 -3.0129968324283154 a24.464850042262142,24.464850042262142 0 0,0 0.36799318061025516,-0.20478780659184534 l 1.6587409661575094 3.0420000365803452" fill="#ff2904" stroke="none" /><path d="M 89.94658935756843 81.56283822128135 l -0.7328424452794061 -1.3439752142323917 a22.53079307095182,22.53079307095182 0 0,0 0.3420978560151773,-0.1827368270842892 l 0.7095995427359235 1.3563907678184304" fill="#ff0d01" stroke="none" /><path d="M 90.26544431104013 81.39251694778311 l -1.2775487169348991 -2.442018604475987 a23.756008996492728,23.756008996492728 0 0,0 0.3639641310175482,-0.18643656435073208 l 1.2353240983285871 2.4636476941392242" fill="#ff1f03" stroke="none" /><path d="M 91.56875222667455 80.76684994638697 l -5.201031960075735 -11.864463103344312 a33.954389919264734,33.954389919264734 0 0,0 0.5373140602139379,-0.23004983930707626 l 4.996034142071489 11.952232470614174" fill="#ffaa0f" stroke="none" /><path d="M 92.57280143429618 80.3572730644239 l -1.369564043341819 -3.6220887709089546 a24.872367845796617,24.872367845796617 0 0,0 0.40176889396096455,-0.1479748743129967 l 1.3070128236082852 3.6451269130282737" fill="#ff2f04" stroke="none" /><path d="M 93.59665428221793 80.00007090966166 l -4.050066864050999 -12.649801160541623 a34.282338310874486,34.282338310874486 0 0,0 0.5635602210758687,-0.1751009039588588 l 3.8317212702644015 12.717642199383008" fill="#ffae10" stroke="none" /><path d="M 94.98787191387505 79.60689891045804 l -0.9873374701771626 -4.017230304739173 a25.136783122346472,25.136783122346472 0 0,0 0.4210726137334021,-0.09965428336017641 l 0.9180411694812265 4.03363050024022" fill="#ff3204" stroke="none" /><path d="M 96.40284397218896 79.31037775812273 l -2.9614024110254533 -17.032982922229767 a38.288505183184526,38.288505183184526 0 0,0 0.6503043590210389,-0.10730579126123195 l 2.667768845865529 17.081434976430625" fill="#ffe015" stroke="none" /><path d="M 97.11714578562143 79.19881850522333 l -0.25539681316191887 -1.842811002121321 a22.86042466165998,22.86042466165998 0 0,0 0.3902440733933734,-0.050664880806360876 l 0.2236380112606877 1.8469342060918186" fill="#ff1202" stroke="none" /><path d="M 97.47563105711357 79.15227682838746 l -0.5904181820211918 -4.876020539291803 a25.911636176393436,25.911636176393436 0 0,0 0.4432534514810791,-0.0498046899179461 l 0.5063980270303947 4.885461182680348" fill="#ff3d05" stroke="none" /><path d="M 98.19473922651362 79.07773832637324 l -0.13277293189914022 -1.5387860109559928 a22.54450349269885,22.54450349269885 0 0,0 0.38691715403446614,-0.030032217823788034 l 0.10626558850233991 1.540843490968243" fill="#ff0d01" stroke="none" /><path d="M 98.55514903715128 79.0497635885617 l -0.25356306895889014 -3.6766465029893904 a24.685379727773512,24.685379727773512 0 0,0 0.4241629449802714,-0.02558666717996624 l 0.19023807513899577 3.680466439549663" fill="#ff2c04" stroke="none" /><path d="M 99.63851952072746 79.00311137660856 l -0.02832449903748114 -1.6452516406977296 a22.64549543860331,22.64549543860331 0 0,0 0.3898049783100165,-0.0033551745141379478 l 4.030301443794224e-16 1.6454954386033087" fill="#ff0f01" stroke="none" /></svg>