<?xml version="1.0" encoding="utf-8" ?>
<svg baseProfile="full" height="200mm" version="1.1" viewBox="0,0,200,200" width="200mm" xmlns="http://www.w3.org/2000/svg" xmlns:ev="http://www.w3.org/2001/xml-events" xmlns:xlink="http://www.w3.org/1999/xlink"><defs /><rect fill="#1a1a1a" height="200" width="200" x="0" y="0" /><text alignment-baseline="middle" fill="#e1ed5e" style="dominant-baseline: central; font-size:9.0px; font-family:Arial;" text-anchor="middle" x="100.0" y="100.0">2018</text><line stroke="#e1ed5e" stroke-width="0.3" x1="100.0" x2="100.0" y1="15.0" y2="10.0" /><path d="M 100.0 14.0 a86.0,86.0 0 0,1 42.46469731375804,11.215312516191453" fill="none" id="id229" stroke="none" /><text fill="#e1ed5e" style="font-size:6.75px; font-family:Arial;" text-anchor="middle"><textPath startOffset="22.20632615414155" xlink:href="#id229">January</textPath></text><path d="M 100.36148047927253 79.00311137660856 l 0.18033679083775192 -10.475009659001193 a31.47656187469429,31.47656187469429 0 0,0 0.5416567179597722,0.013989394981923793 l -0.3606201439923919 10.47035347187691" fill="#ff8a0c" stroke="none" /><path d="M 100.72285384407766 79.0124445844662 l 0.09669872380503221 -2.8075797633186172 a23.809244519542887,23.809244519542887 0 0,0 0.4094727110531895,0.017632756286678476 l -0.1450122672475532 2.805499280507744" fill="#ff2103" stroke="none" /><path d="M 101.08401301168833 79.027996857942 l 0.40432414411978884 -7.822311290971947 a28.832753790742142,28.832753790742142 0 0,0 0.49542627638872894,0.02988546594224288 l -0.5389124693481296 7.8141925556494" fill="#ff6709" stroke="none" /><path d="M 101.44485096284872 79.0497635885617 l 0.2205942435252715 -3.1986008742001464 a24.206198585975365,24.206198585975365 0 0,0 0.41543578326804503,0.03224581232650579 l -0.2756202161556577 3.194329799685176" fill="#ff2703" stroke="none" /><path d="M 102.16513564639614 79.11191278185805 l 1.2872684062105366 -12.418886912161968 a33.48542398505936,33.48542398505936 0 0,0 0.572813297263209,0.06436224818045692 l -1.5008484069834709 12.394888710510909" fill="#ffa50f" stroke="none" /><path d="M 102.52436894288641 79.15227682838746 l 0.16244682885611672 -1.3415814386570182 a22.351380674996665,22.351380674996665 0 0,0 0.38155432235717435,0.04953670172433595 l -0.18551587972113717 1.3385864137685455" fill="#ff0d01" stroke="none" /><path d="M 102.88285421437855 79.19881850522331 l 0.2511446432331361 -1.8121295483058384 a22.829449953310508,22.829449953310508 0 0,0 0.38878664109787686,0.05729704457669398 l -0.2823002647596688 1.8075380195681754" fill="#ff1302" stroke="none" /><path d="M 103.2404852339499 79.25152402106235 l 0.43264106590373314 -2.7701538860165527 a23.803735159411268,23.803735159411268 0 0,0 0.40429033886510407,0.0667113700060382 l -0.4802606109077124 2.76229625307089" fill="#ff2103" stroke="none" /><path d="M 103.95276090670814 79.375362276772 l 2.5405132029725634 -13.255839571137448 a34.49709191160123,34.49709191160123 0 0,0 0.5822346737700673,0.11679079817884679 l -2.768314286209756 13.210144816881394" fill="#ffb210" stroke="none" /><path d="M 104.307194497241 79.44645832069477 l 1.6760564426144182 -7.997989404056379 a29.171719507314688,29.171719507314688 0 0,0 0.490581190140983,0.10722204682371789 l -1.8134803569089293 7.96795385913679" fill="#ff6c09" stroke="none" /><path d="M 104.66035177308747 79.52364482259891 l 3.049208890999242 -13.397418757688666 a34.74003290497577,34.74003290497577 0 0,0 0.581939080481571,0.13772617865237938 l -3.2793716584433366 13.342946666895417" fill="#ffb510" stroke="none" /><path d="M 105.36241919743992 79.69619591428918 l 2.4549160967555776 -9.295083737425688 a30.613802303348304,30.613802303348304 0 0,0 0.508337975336456,0.13894797123771938 l -2.614551961315745 9.251449225361675" fill="#ff7f0b" stroke="none" /><path d="M 105.71112130821622 79.79150937346287 l 0.7629388312314329 -2.69961735839527 a23.805353728489482,23.805353728489482 0 0,0 0.3933662197304732,0.11483438635130272 l -0.8092952686853332 2.6860846431252634" fill="#ff2103" stroke="none" /><path d="M 106.40334571778207 80.00007090966166 l 3.337955250521955 -10.425622988271977 a31.946942949886612,31.946942949886612 0 0,0 0.5222825853113129,0.1721883568476341 l -3.5169206580756858 10.366620907165107" fill="#ff910d" stroke="none" /><path d="M 107.08798089147638 80.2323363322302 l 5.37186102451657 -14.981578481728427 a36.91554537774023,36.91554537774023 0 0,0 0.5963050212320932,0.21962417174486662 l -5.628948371521239 14.886891042177234" fill="#ffd013" stroke="none" /><path d="M 107.76421540070413 80.48803036053334 l 0.578791778740738 -1.4545407399874546 a22.56546756191916,22.56546756191916 0 0,0 0.35966790396449266,0.14671756875036332 l -0.6037435522936181 1.4443622850535118" fill="#ff1001" stroke="none" /><path d="M 108.09893153111575 80.62456947434976 l 2.17081903937092 -5.193345976502605 a26.62879185379519,26.62879185379519 0 0,0 0.4213895258779563,0.18041700355897952 l -2.2598923230391916 5.1552094449808346" fill="#ff4906" stroke="none" /><path d="M 108.76106565485865 80.91482961587045 l 3.9593155113390153 -8.625002267449768 a30.490355284805904,30.490355284805904 0 0,0 0.4751004092573783,0.2230660125473159 l -4.107194131895992 8.555571272262448" fill="#ff7d0b" stroke="none" /><path d="M 109.08828744355905 81.06846463323043 l 2.6417419635619885 -5.502932397731009 a27.10418426786429,27.10418426786429 0 0,0 0.4188612656745612,0.20553340397200262 l -2.7360744962469816 5.456643833624175" fill="#ff4f07" stroke="none" /><path d="M 109.41281617654863 81.2277094730956 l 1.2587672697715127 -2.5104011860745183 a23.80831072969007,23.80831072969007 0 0,0 0.3647654421669468,0.18684702704454847 l -1.301793199527215 2.4883616337174694" fill="#ff2103" stroke="none" /><path d="M 110.05341064243156 81.56283822128135 l 0.785980105452584 -1.4414254897658025 a22.64178931922273,22.64178931922273 0 0,0 0.34057122982135934,0.18952752066693965 l -0.8106754243459785 1.427682571538683" fill="#ff1101" stroke="none" /><line stroke="#e1ed5e" stroke-width="0.3" x1="143.23703022742887" x2="145.7803849466894" y1="26.81831364943548" y2="22.513508569990506" /><path d="M 143.74570117128098 25.957352633546492 a86.0,86.0 0 0,1 28.547481713284135,27.462654790039103" fill="none" id="id230" stroke="none" /><text fill="#e1ed5e" style="font-size:6.75px; font-family:Arial;" text-anchor="middle"><textPath startOffset="19.985693538727396" xlink:href="#id230">February</textPath></text><path d="M 110.68208982089419 81.91981866633111 l 5.427857572174998 -9.18702714578342 a31.67066565876651,31.67066565876651 0 0,0 0.4669733083853565,0.28134619330216726 l -5.585192946777992 9.092234343022637" fill="#ff8d0d" stroke="none" /><path d="M 110.99172775467656 82.1063720568725 l 4.826897814915504 -7.857792291375276 a30.221921828449467,30.221921828449467 0 0,0 0.4409246679399785,0.27610698661350774 l -4.961441635227746 7.7735409634388235" fill="#ff7a0b" stroke="none" /><path d="M 111.2981086023043 82.29822771554956 l 3.9938337481870514 -6.257501856367468 a28.423411445595626,28.423411445595626 0 0,0 0.4101538527483798,0.26677547499920395 l -4.1009546267197114 6.187827457208736" fill="#ff6209" stroke="none" /><path d="M 112.19680574252982 82.90503203632743 l 2.581003689292898 -3.6175189073259055 a25.443874783227354,25.443874783227354 0 0,0 0.3543419214505985,0.2574444753889933 l -2.6428909270972847 3.5725551971202374" fill="#ff3805" stroke="none" /><path d="M 112.77801427241765 83.33499621200491 l 1.7081292353310549 -2.2277311302291514 a23.807221308195118,23.807221308195118 0 0,0 0.32306109642620606,0.2521543100708543 l -1.7462228869166914 2.197998430935073" fill="#ff2103" stroke="none" /><path d="M 113.34407831869373 83.78471172551755 l 5.158792552731867 -6.268796269998901 a29.118555738360975,29.118555738360975 0 0,0 0.38428515512012323,0.3218277659636734 l -5.265935244811108 6.179067346641408" fill="#ff6b09" stroke="none" /><path d="M 114.16331599549186 84.49514656593476 l 4.834341323470507 -5.2922460880286355 a28.167895415536485,28.167895415536485 0 0,0 0.3551731731488257,0.33009475627108037 l -4.924722380414178 5.2082467456829145" fill="#ff5e08" stroke="none" /><path d="M 114.42810811169701 84.74124197986012 l 4.069198250086108 -4.303468684414892 a26.922686646805104,26.922686646805104 0 0,0 0.33399099992690123,0.32129907730895657 l -4.142672493625428 4.232786520343634" fill="#ff4d07" stroke="none" /><path d="M 114.68862486808459 84.99185889309783 l 2.94887201725671 -3.013017742548908 a25.21593668015474,25.21593668015474 0 0,0 0.3075914401287286,0.30627054473257803 l -3.000299257552761 2.9618113471662113" fill="#ff3505" stroke="none" /><path d="M 115.68641384162765 86.03803664274999 l 5.332315833320839 -4.746119733022712 a28.138574414158033,28.138574414158033 0 0,0 0.3189147456137998,0.36457468422467393 l -5.413222442512487 4.6536294925950905" fill="#ff5e08" stroke="none" /><path d="M 115.9244219780498 86.31012108654704 l 15.024311061404742 -12.916073153059692 a40.81299746542754,40.81299746542754 0 0,0 0.45339234002197293,0.5366735232803701 l -15.244414014913831 12.655540680150215" fill="#feff18" stroke="none" /><path d="M 116.38621287248628 86.86637796730983 l 8.683524581886553 -6.959883327377261 a32.128502823602645,32.128502823602645 0 0,0 0.3421623120535255,0.43451138918116355 l -8.802040974534043 6.809379544243059" fill="#ff930d" stroke="none" /><path d="M 117.04232023915458 87.72973835380427 l 11.098107874061101 -7.990501614889861 a34.675383520832405,34.675383520832405 0 0,0 0.34458642591705363,0.48739306219911277 l -11.234006919782038 7.798282052358955" fill="#ffb410" stroke="none" /><path d="M 117.45458315368197 88.32363383020206 l 5.710000650218388 -3.8197450970159688 a27.86982969451732,27.86982969451732 0 0,0 0.26330799920923104,0.4010361473191312 l -5.774905284785544 3.7208908857191636" fill="#ff5a08" stroke="none" /><path d="M 117.65298651832404 88.62581576622439 l 16.580049578530666 -10.682868777789421 a40.72363377651296,40.72363377651296 0 0,0 0.3746039155337333,0.5925334330494638 l -16.761481090310355 10.395887697025751" fill="#ffff18" stroke="none" /><line stroke="#e1ed5e" stroke-width="0.3" x1="172.23445277983987" x2="176.4835382374775" y1="55.19839476539836" y2="52.563006222186495" /><path d="M 173.08426987136738 54.67131705675599 a86.0,86.0 0 0,1 12.851231095245387,41.99856678651699" fill="none" id="id231" stroke="none" /><text fill="#e1ed5e" style="font-size:6.75px; font-family:Arial;" text-anchor="middle"><textPath startOffset="22.20632615414155" xlink:href="#id231">March</textPath></text><path d="M 117.84615892207809 88.93136811851018 l 2.27503014868183 -1.4110303144223029 a23.677082129040866,23.677082129040866 0 0,0 0.21183569879649317,0.34820219037478606 l -2.2989816457645476 1.3716603508404355" fill="#ff1f03" stroke="none" /><path d="M 118.3937258080291 89.86733742301442 l 7.234014869753561 -3.985045363681177 a29.259028858553073,29.259028858553073 0 0,0 0.23921610855936995,0.4432311185300055 l -7.3015390775313955 3.8599332618187128" fill="#ff6d0a" stroke="none" /><path d="M 118.56541770881063 90.18545643968196 l 9.800593392445862 -5.181049641639724 a32.085797501000485,32.085797501000485 0 0,0 0.25392175591433297,0.49049601075485794 l -9.88832458152031 5.011580908624521" fill="#ff930d" stroke="none" /><path d="M 118.73160827565052 90.50648371742162 l 8.902782169732674 -4.512090272487321 a30.980906220819065,30.980906220819065 0 0,0 0.23698916066685966,0.47775568662978524 l -8.979131343352941 4.358174997358587" fill="#ff840c" stroke="none" /><path d="M 119.04729006885535 91.15688171328212 l 3.6764287834741167 -1.7068619466301689 a25.053332740450887,25.053332740450887 0 0,0 0.17823380303665157,0.392714559205381 l -3.705264903474115 1.643325378582725" fill="#ff3304" stroke="none" /><path d="M 119.196687751892 91.48605970444005 l 1.204235279059876 -0.5340914745416041 a22.317359598025703,22.317359598025703 0 0,0 0.15272437647704332,0.35250891758254843 l -1.2132503653796 0.5132834123724529" fill="#ff0c01" stroke="none" /><path d="M 119.34039704204932 91.81776055985345 l 2.924064386263148 -1.2370684477052019 a24.174978878562854,24.174978878562854 0 0,0 0.1588391812012338,0.38464167628962564 l -2.9449252543505793 1.186552200962273" fill="#ff2703" stroke="none" /><path d="M 119.47837535516314 92.15188598940014 l 11.355557640132387 -4.5753154145925325 a33.24263862332696,33.24263862332696 0 0,0 0.20928053547407308,0.5325961354622947 l -11.43263172548816 4.379170274234453" fill="#ffa20e" stroke="none" /><path d="M 119.61058180528143 92.48833698450437 l 2.301228395399425 -0.8814655475073578 a23.464271421583884,23.464271421583884 0 0,0 0.14122744008764998,0.37841932556925223 l -2.3160604239887004 0.8417230849087723" fill="#ff1c02" stroke="none" /><path d="M 119.7369772167798 92.82701384747503 l 7.509746206902155 -2.729258131041953 a28.990315265240785,28.990315265240785 0 0,0 0.16641396150367263,0.4704746787159433 l -7.555613249215637 2.5995858258993954" fill="#ff6909" stroke="none" /><path d="M 119.85752413597 93.16781622104841 l 1.3041148701091787 -0.4486940265282095 a22.379145359953757,22.379145359953757 0 0,0 0.12219301762129679,0.3653415696668305 l -1.3116451815022456 0.426179353939065" fill="#ff0d01" stroke="none" /><path d="M 119.97218684219823 93.5106431181261 l 14.53209197536862 -4.721762910265428 a36.279945751256164,36.279945751256164 0 0,0 0.1878688166493369,0.5955954885621002 l -14.611216275786164 4.470917255276909" fill="#ffc812" stroke="none" /><path d="M 120.08093135843002 93.85539295169968 l 2.9780449509652356 -0.9112583310621313 a24.114344790786607,24.114344790786607 0 0,0 0.11803868759561925,0.3979677743975494 l -2.9932895356725573 0.859861169918052" fill="#ff2603" stroke="none" /><path d="M 120.28053869075195 94.5502522615342 l 6.065885164632945 -1.6300131106885274 a27.281075192316244,27.281075192316244 0 0,0 0.11796293799925726,0.45455932022200174 l -6.093044434502505 1.5253573649176753" fill="#ff5207" stroke="none" /><path d="M 120.37134235888165 94.90015583598534 l 14.147223477345921 -3.541673092372222 a35.583805415981146,35.583805415981146 0 0,0 0.1436352162465052,0.5954607017587517 l -14.206091493853245 3.2976271589540644" fill="#ffc011" stroke="none" /><path d="M 120.45610955862082 95.25157060432595 l 6.656581233533866 -1.545176804681502 a27.833567521899596,27.833567521899596 0 0,0 0.1043170473205374,0.46763286862053766 l -6.682192667856441 1.4303657665110003" fill="#ff5908" stroke="none" /><path d="M 120.53481517161879 95.60439243477599 l 1.2798382070514445 -0.27395749404909747 a22.30883098403664,22.30883098403664 0 0,0 0.07714681016067015,0.3761952444753963 l -1.2843643131271114 0.25188659341028935" fill="#ff0c01" stroke="none" /><path d="M 120.6074358757038 95.95851677861258 l 9.656786116594978 -1.8938668206052482 a30.840744363911245,30.840744363911245 0 0,0 0.09768332311650683,0.521828218089075 l -9.687955163621343 1.7273605250536104" fill="#ff820c" stroke="none" /><path d="M 120.67395015179393 96.31383870115 l 1.2956803092894358 -0.23101954762961793 a22.316114544888613,22.316114544888613 0 0,0 0.06417279121272851,0.3787514463509495 l -1.2994649620223873 0.20868231296283057" fill="#ff0c01" stroke="none" /><path d="M 120.78858239683441 97.02765380044208 l 17.314174206308298 -2.4755762041975866 a38.490257459202276,38.490257459202276 0 0,0 0.08813169409201951,0.6566834884209958 l -17.354221899458153 2.1771743737119262" fill="#ffe415" stroke="none" /><path d="M 120.87857604477298 97.74499172005257 l 5.242838302840361 -0.5662571890907462 a26.27332918315621,26.27332918315621 0 0,0 0.04469327791996776,0.45005520938278804 l -5.2518087064425565 0.47592644900352316" fill="#ff4406" stroke="none" /><path d="M 120.91429891909075 98.10471618934814 l 1.81032822354037 -0.16405454408563927 a22.81774645382187,22.81774645382187 0 0,0 0.03208122581547542,0.39147221371399077 l -1.8128839331753401 0.1328684131638797" fill="#ff1302" stroke="none" /><path d="M 120.94382443527127 98.46500227214037 l 11.865218088844195 -0.8696159034002598 a32.897042998799414,32.897042998799414 0 0,0 0.036530457163539656,0.5651100035569064 l -11.87842913701215 0.6652468355903182" fill="#ff9d0e" stroke="none" /><path d="M 120.96714384426684 98.82574320788733 l 1.4005754985838614 -0.07843868980411403 a22.402770243230023,22.402770243230023 0 0,0 0.018249074496936205,0.3852091197955771 l -1.401718181314294 0.05431846338553715" fill="#ff0d01" stroke="none" /><path d="M 120.98425023603335 99.18683210126433 l 7.161275455178477 -0.27750904838883483 a28.166650362399395,28.166650362399395 0 0,0 0.014604147395562872,0.48464055347511287 l -7.164991297029685 0.1541983474887229" fill="#ff5e08" stroke="none" /><line stroke="#e1ed5e" stroke-width="0.3" x1="184.98032266829074" x2="189.97916517819016" y1="98.17113171792111" y2="98.06355123074" /><path d="M 185.9800911702706 98.14961562048488 a86.0,86.0 0 0,1 -9.607161424134198,41.387399972396054" fill="none" id="id232" stroke="none" /><text fill="#e1ed5e" style="font-size:6.75px; font-family:Arial;" text-anchor="middle"><textPath startOffset="21.466115282336823" xlink:href="#id232">April</textPath></text><path d="M 120.99513854157772 99.54816195383933 l 16.637372188145907 -0.3580542099235306 a37.641224598692695,37.641224598692695 0 0,0 0.008365301299169958,0.6479018045061914 l -16.64107049656279 0.0716161473568765" fill="#ffda14" stroke="none" /><path d="M 120.99980553446 99.90962569577887 l 9.261241997900049 -0.03985647869025603 a30.261327760238338,30.261327760238338 0 0,0 -0.002241791886659071,0.5209134839189465 l -9.260555908723886 -0.11956648343237523" fill="#ff7a0b" stroke="none" /><path d="M 120.99824983174949 100.27111621757518 l 3.010785562903522 0.03887337279463014 a24.011036506736627,24.011036506736627 0 0,0 -0.008893158896066431,0.4132301489033315 l -3.009670341322448 -0.0906933374880765" fill="#ff2403" stroke="none" /><path d="M 120.9904718944345 100.63252640178507 l 13.38671101866412 0.4033948448113385 a34.392787585041575,34.392787585041575 0 0,0 -0.022925031975819053,0.5915932102062489 l -13.377783853837098 -0.6337653020315936" fill="#ffb010" stroke="none" /><path d="M 120.95626037817324 101.35467743843564 l 5.501208600941389 0.355615126045357 a26.512690648761616,26.512690648761616 0 0,0 -0.03335983457181503,0.4551684382204493 l -5.494272207705236 -0.45025670076257657" fill="#ff4706" stroke="none" /><path d="M 120.92983693683757 101.71520430193887 l 11.9716421261852 0.9810784545561801 a33.01177464538219,33.01177464538219 0 0,0 -0.05128678454360962,0.5659453937799048 l -11.952980745364515 -1.1870052368846555" fill="#ff9f0e" stroke="none" /><path d="M 120.8583938346157 102.4346265915055 l 18.660636942325652 2.178100733663375 a39.78732269109342,39.78732269109342 0 0,0 -0.08525568915275415,0.6795717263682609 l -18.62037974392605 -2.498990214319031" fill="#fff417" stroke="none" /><path d="M 120.76222939487914 103.15116336523771 l 12.58649570942265 1.9103008362886391 a33.73063720040909,33.73063720040909 0 0,0 -0.09206575945730051,0.5732935720242405 l -12.55174819560406 -2.1266736380060847" fill="#ffa80f" stroke="none" /><path d="M 120.70491114924044 103.5080841355445 l 10.409997348235212 1.7637915123216534 a31.55836186580106,31.55836186580106 0 0,0 -0.09535668258725503,0.5348109164578306 l -10.378094223308768 -1.9427211795127024" fill="#ff8c0c" stroke="none" /><path d="M 120.64145759157962 103.86396538481128 l 1.1851544350942227 0.2218542800353276 a22.20574058428565,22.20574058428565 0 0,0 -0.07356451717970323,0.3751038882174079 l -1.1811599849388554 -0.24222189532068042" fill="#ff0a01" stroke="none" /><path d="M 120.5718875245553 104.21870165774334 l 31.141252358676564 6.38617398587942 a52.78931922273111,52.78931922273111 0 0,0 -0.19020736114619927,0.8885854679839919 l -31.02671095880592 -6.921273273279581" fill="#77ff27" stroke="none" /><path d="M 120.49622156327973 104.57218783832717 l 4.398119062888721 0.9811089536073941 a25.5062208190671,25.5062208190671 0 0,0 -0.09927924071432838,0.4276923706181945 l -4.38057925624384 -1.0566699815741536" fill="#ff3905" stroke="none" /><path d="M 120.41448212921028 104.9243191809786 l 3.64551023825741 0.8793588726416192 a24.750068922584376,24.750068922584376 0 0,0 -0.10346552484858769,0.4132933401974299 l -3.6298333991137617 -0.941980052236445" fill="#ff2f04" stroke="none" /><path d="M 120.32669344350535 105.2749913415812 l 10.92866705147227 2.8361043684633103 a32.29067099470852,32.29067099470852 0 0,0 -0.14424999820135162,0.5368079056237183 l -10.878228976929142 -3.0238032072625765" fill="#ff950d" stroke="none" /><path d="M 120.23288151984713 105.62410040840565 l 13.801645990161889 3.836420569843098 a35.32492774245186,35.32492774245186 0 0,0 -0.16788989953158065,0.5844467653550335 l -13.73356345374421 -4.073424810702714" fill="#ffbc11" stroke="none" /><path d="M 120.13307415673323 105.97154293290107 l 12.735638345357428 3.7774365983631353 a34.284032193516836,34.284032193516836 0 0,0 -0.1726825112672346,0.5643364381645573 l -12.668729061584061 -3.9961000090797496" fill="#ffaf10" stroke="none" /><path d="M 120.02730092923936 106.31721596034902 l 16.521729203895717 5.211452695906465 a38.32416737071457,38.32416737071457 0 0,0 -0.20386221279329148,0.6274233761660359 l -16.429574740086178 -5.495074972050297" fill="#ffe215" stroke="none" /><path d="M 119.9155931802556 106.66101706037122 l 16.326789533313022 5.460697185274227 a38.21578549513096,38.21578549513096 0 0,0 -0.21402508461590886,0.6220570788152257 l -16.230373617753884 -5.740926967178753" fill="#ffe115" stroke="none" /><path d="M 119.79798401119884 107.00284435728193 l 15.854145309088045 5.607849362565073 a37.81671483836543,37.81671483836543 0 0,0 -0.22235461004865614,0.6118243893488373 l -15.755266438034162 -5.879921548920041" fill="#ffdc14" stroke="none" /><path d="M 119.67450827220406 107.3425965602758 l 17.319557087889002 6.463720390852115 a39.48639334785895,39.48639334785895 0 0,0 -0.2431341208618602,0.6347464678568429 l -17.205728687433634 -6.760890425542102" fill="#fff016" stroke="none" /><path d="M 119.54520255179757 107.68017299344265 l 12.86179025556052 5.053965232966842 a34.81912490550936,34.81912490550936 0 0,0 -0.2239987023133158,0.5559464091417774 l -12.772888938989812 -5.274611009951434" fill="#ffb610" stroke="none" /><path d="M 119.41010516605496 108.01547362559984 l 16.27960823669872 6.722723516437178 a38.61308195117613,38.61308195117613 0 0,0 -0.25898165266495826,0.6121561249565054 l -16.161475602841453 -7.001954167059846" fill="#ffe615" stroke="none" /><path d="M 119.26925614724726 108.34839909993367 l 12.327160103756059 5.340738196042765 a34.43437235982036,34.43437235982036 0 0,0 -0.24031734576260527,0.541852172768231 l -12.23340167326218 -5.552138705303684" fill="#ffb110" stroke="none" /><path d="M 119.12269723197855 108.67885076344098 l 11.541501689374018 5.238119368462921 a33.67454755658322,33.67454755658322 0 0,0 -0.24410099545458103,0.5257718279651583 l -11.449626077079605 -5.43601126370691" fill="#ffa70f" stroke="none" /><path d="M 118.97047184881838 109.00673069616215 l 12.26330908412172 5.822328682423526 a34.57528124861043,34.57528124861043 0 0,0 -0.2598855022249282,0.5354411101264206 l -12.161270325282077 -6.032558748515222" fill="#ffb310" stroke="none" /><path d="M 118.81262510543309 109.33194174019688 l 9.013089733802383 4.470913964618343 a31.061056516519187,31.061056516519187 0 0,0 -0.24171615113206865,0.4769288978007711 l -8.934794912884046 -4.625397074121809" fill="#ff850c" stroke="none" /><path d="M 118.64920377521936 109.65438752849418 l 13.337993908199962 6.904861118712424 a36.01929387700653,36.01929387700653 0 0,0 -0.28977949314432,0.5481535947757727 l -13.21716190683075 -7.133429728574332" fill="#ffc512" stroke="none" /><line stroke="#e1ed5e" stroke-width="0.3" x1="174.80103733775053" x2="179.2010983576182" y1="140.37084112569926" y2="142.7455964860345" /><path d="M 175.68104954172406 140.8457921977663 a86.0,86.0 0 0,1 -30.038265399797805,32.042727171017184" fill="none" id="id233" stroke="none" /><text fill="#e1ed5e" style="font-size:6.75px; font-family:Arial;" text-anchor="middle"><textPath startOffset="22.206326154141568" xlink:href="#id233">May</textPath></text><path d="M 118.48025628344425 109.97397251340804 l 12.642295470468321 6.823168769677549 a35.36604562230424,35.36604562230424 0 0,0 -0.29374631718781086,0.5332348900814176 l -12.522972743829 -7.0397741781567715" fill="#ffbd11" stroke="none" /><path d="M 118.30583269289576 110.29060199501025 l 12.54969876573971 7.054798179468647 a35.39670505580506,35.39670505580506 0 0,0 -0.30314413081283403,0.5285573441670051 l -12.426402638774496 -7.269775369493967" fill="#ffbd11" stroke="none" /><path d="M 117.94076556474637 110.91462005526583 l 11.18221828325348 6.802923960869673 a34.0889946195918,34.0889946195918 0 0,0 -0.3092932796762285,0.49867924796228824 l -11.063460363909288 -6.994399540197236" fill="#ffad10" stroke="none" /><path d="M 117.35343817320211 111.8261652097733 l 1.1705282054724246 0.7977012856157271 a22.41649695406643,22.41649695406643 0 0,0 -0.22004363555780912,0.31698926865086136 l -1.1566236627524793 -0.817731816453608" fill="#ff0d01" stroke="none" /><path d="M 117.14729908036423 112.12312394758627 l 7.125912942711194 5.038013592655083 a29.72698208012806,29.72698208012806 0 0,0 -0.2989971108100659,0.4152808358888572 l -7.038136039525525 -5.1599280339950715" fill="#ff730a" stroke="none" /><path d="M 116.93607887273984 112.41649034213515 l 8.86343300407639 6.4981233920926185 a31.990270799057313,31.990270799057313 0 0,0 -0.3294064588413876,0.441293782452198 l -8.75026527853991 -6.649730054054132" fill="#ff910d" stroke="none" /><path d="M 116.71984013943494 112.70617746262583 l 20.239712572897545 15.381090823782642 a46.42093467917648,46.42093467917648 0 0,0 -0.48895210901900904,0.6320365123146576 l -19.971953646660467 -15.727205330210554" fill="#bcff1f" stroke="none" /><path d="M 116.27256486870786 113.27417163493432 l 8.788154624767857 7.1688436202112715 a32.34125127840277,32.34125127840277 0 0,0 -0.3556059185062502,0.42835023685441004 l -8.663452706368064 -7.319055114179452" fill="#ff960d" stroke="none" /><path d="M 116.0416608686014 113.55231037782055 l 9.26819814122067 7.829955942954244 a33.13291831562097,33.13291831562097 0 0,0 -0.37181049432645796,0.43249960390105524 l -9.132045137323434 -7.988332646016827" fill="#ffa00e" stroke="none" /><path d="M 115.56566222782051 114.09645910891815 l 16.341372864759727 14.798952399208291 a43.04652941438036,43.04652941438036 0 0,0 -0.5021143811128704,0.5449459919033548 l -16.084212075651134 -15.07804964591298" fill="#e3ff1b" stroke="none" /><path d="M 115.07121518719521 114.62390073753431 l 9.90651992687604 9.612493900832028 a34.803592867624175,34.803592867624175 0 0,0 -0.4208904138325455,0.4263597670868123 l -9.739588887987958 -9.781594161899505" fill="#ffb610" stroke="none" /><path d="M 114.55890576462653 115.13401014063108 l 6.621435313011599 6.882994559668464 a30.550864867268444,30.550864867268444 0 0,0 -0.3821246394762026,0.36132269764216157 l -6.501974839144588 -6.995951894056547" fill="#ff7e0b" stroke="none" /><path d="M 114.0293411484842 115.62618273729858 l 9.439627438148358 10.514060621903191 a35.12982791586998,35.12982791586998 0 0,0 -0.45343849988915186,0.40010675576180593 l -9.257246585352618 -10.674990519437285" fill="#ffba11" stroke="none" /><path d="M 113.75828350139079 115.86535959552629 l 0.31775767933756 0.3664221518927638 a21.485010449553116,21.485010449553116 0 0,0 -0.2814889576559503,0.23989099648692028 l -0.31140324510456246 -0.3718375386026309" fill="#ff0000" stroke="none" /><path d="M 113.48314897796784 116.09983520530334 l 4.241115547834351 5.064192461149688 a27.605536039841702,27.605536039841702 0 0,0 -0.3669299869645672,0.30195839880551034 l -4.153315432325092 -5.136445978812376" fill="#ff5608" stroke="none" /><path d="M 112.92097659922987 116.55440617244103 l 3.3386898047100737 4.277542543823864 a26.426252834719197,26.426252834719197 0 0,0 -0.36099679770706244,0.27679695078862504 l -3.2645642785095172 -4.33437883643986" fill="#ff4606" stroke="none" /><path d="M 112.63410532772338 116.77436683061366 l 19.852176234345833 26.357836815732366 a53.99764329227622,53.99764329227622 0 0,0 -0.7472631763196509,0.5528074333018158 l -19.395528087607616 -26.69565419777395" fill="#6aff28" stroke="none" /><path d="M 112.04921762599082 117.19931262002967 l 10.385147930407324 14.823983714514561 a39.09977322246432,39.09977322246432 0 0,0 -0.5545522984341685,0.381426127540851 l -10.128438747350273 -15.000550631420506" fill="#ffec16" stroke="none" /><path d="M 111.7513745106137 117.40417183066458 l 0.7838255804350687 1.1608714431525597 a22.400715905553827,22.400715905553827 0 0,0 -0.32142392708007067,0.2130222521576323 l -0.7637269546150339 -1.1741917164015103" fill="#ff0d01" stroke="none" /><path d="M 111.45004920935366 117.60387380957326 l 4.667252335165243 7.175665330640348 a29.559989328115968,29.559989328115968 0 0,0 -0.4289269847416888,0.27376149564003566 l -4.543043548376623 -7.2549412551041925" fill="#ff710a" stroke="none" /><path d="M 111.1453310114006 117.79835938074945 l 4.527415933191739 7.22998498318727 a29.530543821423805,29.530543821423805 0 0,0 -0.43314389210995136,0.26607235580206495 l -4.402292841149479 -7.306845805817713" fill="#ff710a" stroke="none" /><line stroke="#e1ed5e" stroke-width="0.3" x1="143.8653032363475" x2="146.44561519142675" y1="172.8068346515853" y2="177.08958963109032" /><path d="M 144.38136562736335 173.6633856474863 a86.0,86.0 0 0,1 -40.68145358897372,12.25698825130547" fill="none" id="id234" stroke="none" /><text fill="#e1ed5e" style="font-size:6.75px; font-family:Arial;" text-anchor="middle"><textPath startOffset="21.466115282336833" xlink:href="#id234">June</textPath></text><path d="M 110.5260780823613 118.17145234162733 l 13.239436935634298 22.85559687316042 a47.41327315576504,47.41327315576504 0 0,0 -0.7097343276579405,0.4030056741723136 l -12.844053841055159 -23.080105713127363" fill="#b1ff20" stroke="none" /><path d="M 109.57404056367764 118.69057910512821 l 5.61090402803473 10.9536872013191 a33.30713237582818,33.30713237582818 0 0,0 -0.5125271273115186,0.2569917415226251 l -5.42152299304045 -11.048646783751028" fill="#ffa20f" stroke="none" /><path d="M 109.2508944713604 118.85261126421891 l 5.496567304247048 11.201581316854723 a33.47748677131042,33.47748677131042 0 0,0 -0.5195185164742788,0.24940045899590788 l -5.302936119772537 -11.29453605235019" fill="#ffa50f" stroke="none" /><path d="M 108.2653958097858 119.30500536409082 l 4.486874899365619 10.479733335662537 a32.399862154831254,32.399862154831254 0 0,0 -0.5145847017611578,0.21509644707021897 l -4.305818738107 -10.55541482575273" fill="#ff970d" stroke="none" /><path d="M 107.93186726928326 119.44442032107085 l 8.383123233527856 20.550642896824417 a43.19472186402241,43.19472186402241 0 0,0 -0.6908665095408915,0.27491004200613167 l -8.028135647945097 -20.691899783236618" fill="#e1ff1b" stroke="none" /><path d="M 107.59598834532513 119.57807347666477 l 4.005167726462685 10.323010577459826 a32.07275556938948,32.07275556938948 0 0,0 -0.5164168457279682,0.1952646630213688 l -3.8268806599744423 -10.390423490587825" fill="#ff920d" stroke="none" /><path d="M 107.2578585660854 119.70592522655815 l 3.3481225447105882 9.09053984927764 a30.687509449063988,30.687509449063988 0 0,0 -0.4972551999288885,0.1782980232018931 l -3.191147784151965 -9.146825413519494" fill="#ff800b" stroke="none" /><path d="M 106.91757812671514 119.82793768551818 l 5.469959016041174 15.678609554628164 a37.60539819467295,37.60539819467295 0 0,0 -0.6130221908087768,0.20797041061123966 l -5.19926709229517 -15.770442952137527" fill="#ffd914" stroke="none" /><path d="M 106.2309692047433 120.05430185196036 l 0.442873799450184 1.425384168122274 a22.492600827071012,22.492600827071012 0 0,0 -0.3707262874369191,0.11169678929063581 l -0.418272537573019 -1.4327963265186354" fill="#ff0f01" stroke="none" /><path d="M 105.88484417918355 120.15858648285463 l 2.790867748042108 9.560142486036382 a30.959180043576858,30.959180043576858 0 0,0 -0.5128444665808706,0.14493496892067056 l -2.625892113356631 -9.606766248295573" fill="#ff840c" stroke="none" /><path d="M 105.53697534728816 120.25689768951611 l 3.568024057777812 13.0535344224598 a34.5323891680377,34.5323891680377 0 0,0 -0.5747333355610429,0.1517922975916711 l -3.342800279405272 -13.113018069355055" fill="#ffb210" stroke="none" /><path d="M 104.83641907484287 120.43548508189849 l 2.9800963856944156 12.591902043653336 a33.939743874783225,33.939743874783225 0 0,0 -0.5696702786013389,0.12965510072247086 l -2.7629059577002146 -12.641333877953493" fill="#ffab0f" stroke="none" /><path d="M 104.48393922423573 120.51570834832081 l 2.035607519668934 9.313669988980447 a30.533527502334472,30.533527502334472 0 0,0 -0.5144296544288978,0.1078037357914177 l -1.874986403810658 -9.347329705498407" fill="#ff7e0b" stroke="none" /><path d="M 104.13013068566511 120.58985236759428 l 0.27932115393529766 1.3924937878201054 a22.4202321134777,22.4202321134777 0 0,0 -0.3790432613859079,0.07264454317517467 l -0.2553102779776854 -1.3970955293437481" fill="#ff0e01" stroke="none" /><path d="M 103.41894727170886 120.7198165907248 l 1.5671251857050208 9.497235213658069 a30.625661434479078,30.625661434479078 0 0,0 -0.5208756151268411,0.08135005873474799 l -1.4034137069696626 -9.522803579739923" fill="#ff7f0b" stroke="none" /><path d="M 103.06178313531738 120.77559828337769 l 1.7499365623855385 11.874119568480895 a33.00237449419716,33.00237449419716 0 0,0 -0.5627241299674758,0.07798843685954213 l -1.5452838412312324 -11.902482570833039" fill="#ff9f0e" stroke="none" /><path d="M 102.70371172650421 120.8252237178851 l 0.19389685057165673 1.4934821829429983 a22.50601627462315,22.50601627462315 0 0,0 -0.3846091455867421,0.04657081131963792 l -0.16816028193353436 -1.496598522987987" fill="#ff0f01" stroke="none" /><path d="M 102.34483914955558 120.86867818915974 l 1.7930493223214683 15.957840558875661 a37.05825959357908,37.05825959357908 0 0,0 -0.6345210560180354,0.06577070185634011 l -1.5180956696978303 -15.98634062918776" fill="#ffd213" stroke="none" /><path d="M 101.98527174616119 120.90594882070398 l 0.14091730572266928 1.4839328606202928 a22.49060874205167,22.49060874205167 0 0,0 -0.38572002551912693,0.03328154682701357 l -0.11535296246200062 -1.4861386597259698" fill="#ff0f01" stroke="none" /><path d="M 101.62511606390274 120.93702456842531 l 0.8187268585475611 10.547987760993509 a31.579714527102137,31.579714527102137 0 0,0 -0.5423248124973153,0.03740189428534043 l -0.6370392852713155 -10.560517999795135" fill="#ff8c0c" stroke="none" /><path d="M 101.26447882468166 120.96189622390904 l 0.3962922030118273 6.569533527751673 a27.58147538796745,27.58147538796745 0 0,0 -0.47415436694362867,0.024508364786811673 l -0.28314976765471905 -6.575381699300687" fill="#ff5608" stroke="none" /><line stroke="#e1ed5e" stroke-width="0.3" x1="102.19456741930631" x2="102.32365962044197" y1="184.97166512339345" y2="189.96999836594603" /><path d="M 102.22038585953345 185.97133177190398 a86.0,86.0 0 0,1 -42.740103519485714,-10.115201625700543" fill="none" id="id235" stroke="none" /><text fill="#e1ed5e" style="font-size:6.75px; font-family:Arial;" text-anchor="middle"><textPath startOffset="22.20632615414155" xlink:href="#id235">July</textPath></text><path d="M 100.54218724476979 120.99299961872073 l 0.5238402976725556 20.282622424988404 a41.28938592200632,41.28938592200632 0 0,0 -0.710649926275775,0.012234482953772836 l -0.17463068150411265 -20.288634385221336" fill="#f8ff18" stroke="none" /><path d="M 99.45781275523022 120.99299961872073 l -0.26741298209994246 10.35398874728003 a31.35744141580328,31.35744141580328 0 0,0 -0.5394669241468758,-0.01858033163708549 l 0.4456002579214613 -10.34785161721685" fill="#ff890c" stroke="none" /><path d="M 99.09653310690486 120.98055641714683 l -0.30266482395346406 7.028565698392213 a28.03507937213749,28.03507937213749 0 0,0 -0.4819522931579289,-0.024911428501004435 l 0.42360518552488186 -7.022314463129007" fill="#ff5c08" stroke="none" /><path d="M 97.65516085044442 120.86867818915974 l -0.1446760924282246 1.287593144767298 a22.29569567344035,22.29569567344035 0 0,0 -0.3810149410090251,-0.04613560319951825 l 0.16681845648863908 -1.284912012842431" fill="#ff0c01" stroke="none" /><path d="M 97.2962882734958 120.8252237178851 l -1.7154565401125648 13.213230491974146 a34.3241229045311,34.3241229045311 0 0,0 -0.5852612878429434,-0.081111881582028 l 1.9426464191423392 -13.181744044899514" fill="#ffb010" stroke="none" /><path d="M 96.22490169976321 120.6578951692458 l -0.25470596680863083 1.3937886494198188 a22.41687047000756,22.41687047000756 0 0,0 -0.3789864284192434,-0.07263365100184792 l 0.2786600097995693 -1.3891978000695029" fill="#ff0d01" stroke="none" /><path d="M 95.86986931433489 120.58985236759428 l -1.936803380501255 9.65550456017991 a30.847841166792655,30.847841166792655 0 0,0 -0.5197252191086338,-0.10891347285787005 l 2.1027200610392756 -9.620735106595498" fill="#ff820c" stroke="none" /><path d="M 95.16358092515715 120.4354850818985 l -1.9093486009225153 8.06763521657057 a29.290497576593,29.290497576593 0 0,0 -0.4896349029761869,-0.12034034639354282 l 2.0479367886419126 -8.033573611862996" fill="#ff6d0a" stroke="none" /><path d="M 94.81253420990036 120.34920634021253 l -1.7718209335004833 6.95043615372291 a28.172719996442705,28.172719996442705 0 0,0 -0.4688873757501234,-0.12383741758664907 l 1.8911987520620959 -6.91890738683268" fill="#ff5e08" stroke="none" /><path d="M 94.46302465271185 120.25689768951611 l -4.611823559081919 16.87225102856517 a38.49119124905509,38.49119124905509 0 0,0 -0.6376136065747954,-0.1801959741682073 l 4.901568333761328 -16.79036626105844" fill="#ffe415" stroke="none" /><path d="M 94.11515582081647 120.15858648285463 l -2.5969654163788443 8.895928310937661 a30.267241762639514,30.267241762639514 0 0,0 -0.49886903946270766,-0.15030514930498237 l 2.749709430281798 -8.849907792526952" fill="#ff7a0b" stroke="none" /><path d="M 93.42475214034765 119.94407469862007 l -7.444784357919716 22.581557154762454 a44.77712214860599,44.77712214860599 0 0,0 -0.7299316277826071,-0.24763243912557137 l 7.83238571863955 -22.45006172873876" fill="#cfff1d" stroke="none" /><path d="M 93.08242187328487 119.8279376855182 l -3.5263684094574033 10.107672338223916 a31.70515363066388,31.70515363066388 0 0,0 -0.5137449337021106,-0.18421065505634332 l 3.69983290378924 -10.045474142127613" fill="#ff8d0d" stroke="none" /><path d="M 92.40401165467489 119.57807347666478 l -5.748382144615304 14.816011147316916 a36.89207612610609,36.89207612610609 0 0,0 -0.5900605158008747,-0.23479725669836637 l 6.002563736458036 -14.714867046212483" fill="#ffd013" stroke="none" /><path d="M 92.06813273071674 119.44442032107085 l -3.022790681677303 7.410160881633226 a29.002983680910667,29.002983680910667 0 0,0 -0.46063441987205017,-0.19254522486507525 l 3.1498965610468157 -7.357030613748178" fill="#ff6909" stroke="none" /><path d="M 91.07499286063937 119.00905698771935 l -7.915591173378875 16.859137629443563 a39.62490550936013,39.62490550936013 0 0,0 -0.614916892247042,-0.2951974767165868 l 8.20462073362616 -16.720385876227414" fill="#fff216" stroke="none" /><path d="M 90.7491055286396 118.85261126421891 l -6.850614586535141 13.961025511724632 a36.55124282982791,36.55124282982791 0 0,0 -0.5624472042760671,-0.28202270443644795 l 7.089915698493969 -13.841034966378883" fill="#ffcc13" stroke="none" /><path d="M 90.10565033884886 118.52300852407294 l -4.837755791902071 9.05666312993024 a31.26776646360443,31.26776646360443 0 0,0 -0.47255599044603785,-0.25767520405329686 l 4.99293459421675 -8.972047274117177" fill="#ff880c" stroke="none" /><line stroke="#e1ed5e" stroke-width="0.3" x1="58.666819895761336" x2="56.23545636021788" y1="174.27360380694188" y2="178.64263932499728" /><path d="M 58.180547188652646 175.14741091055294 a86.0,86.0 0 0,1 -31.652253787137756,-30.449443065178592" fill="none" id="id236" stroke="none" /><text fill="#e1ed5e" style="font-size:6.75px; font-family:Arial;" text-anchor="middle"><textPath startOffset="22.20632615414155" xlink:href="#id236">August</textPath></text><path d="M 89.7882731507175 118.34994917583269 l -4.869138199089825 8.749591504171669 a31.013184223398106,31.013184223398106 0 0,0 -0.4642396524916646,-0.26360739059544724 l 5.019026618502696 -8.664480947781588" fill="#ff840c" stroke="none" /><path d="M 89.1626897886671 117.98757091392108 l -9.643514640763515 16.0061306798041 a39.68672239761661,39.68672239761661 0 0,0 -0.5821112373799158,-0.35758026625759926 l 9.91760507807574 -15.837761946718125" fill="#fff316" stroke="none" /><path d="M 88.24862548938628 117.40417183066458 l -5.572161898877853 8.252554887835643 a30.95759260082707,30.95759260082707 0 0,0 -0.43907170594312833,-0.3019975230172485 l 5.713390489443872 -8.155416575453295" fill="#ff840c" stroke="none" /><path d="M 87.95078237400918 117.19931262002967 l -14.149057268473067 20.19666892846582 a45.659709191160125,45.659709191160125 0 0,0 -0.6398287920631156,-0.4565008546289671 l 14.494613388385071 -19.950123811992633" fill="#c5ff1e" stroke="none" /><path d="M 87.36589467227662 116.77436683061367 l -9.224730198725045 12.247721880813 a36.33304726755303,36.33304726755303 0 0,0 -0.49632892701662784,-0.38056385668515985 l 9.43418785423516 -12.087118682300474" fill="#ffc912" stroke="none" /><path d="M 87.07902340077011 116.55440617244103 l -0.91956169892247 1.1781460749251578 a22.4945306594335,22.4945306594335 0 0,0 -0.3031861122853485,-0.24086938407992375 l 0.9397053039251766 -1.1621427768401034" fill="#ff0f01" stroke="none" /><path d="M 86.79598089348748 116.32954008644616 l -4.099905960818023 5.070393960943029 a27.520592289563787,27.520592289563787 0 0,0 -0.3658009232457128,-0.30102925623115423 l 4.186577012608425 -4.999069585854695" fill="#ff5507" stroke="none" /><path d="M 86.24171649860922 115.8653595955263 l -8.665881231539883 9.993057777636604 a34.2271955178087,34.2271955178087 0 0,0 -0.44178776588873403,-0.3898263376140516 l 8.836611350335204 -9.842408298250264" fill="#ffae10" stroke="none" /><path d="M 85.97065885151581 115.62618273729859 l -10.20515156852364 11.366717908118547 a36.275712570590066,36.275712570590066 0 0,0 -0.4610478108810178,-0.4211562439017206 l 10.399298928871513 -11.18936889763025" fill="#ffc812" stroke="none" /><path d="M 85.70375840098266 115.38237550388516 l -10.623510072629498 11.430614121527276 a36.605060251678594,36.605060251678594 0 0,0 -0.45784940990862044,-0.43292519458786877 l 10.818695316928936 -11.246054290193477" fill="#ffcd13" stroke="none" /><path d="M 85.18274418774928 114.88116024355367 l -8.757965181902964 8.795736871304296 a33.412370492240655,33.412370492240655 0 0,0 -0.4040659393153515,-0.409316663227088 l 8.908071746273848 -8.643679714096542" fill="#ffa40f" stroke="none" /><path d="M 84.9287848128048 114.62390073753433 l -5.3161736277941785 5.1583893183618 a28.40747476544088,28.40747476544088 0 0,0 -0.3374989926592898,-0.3538663445000736 l 5.404179171832426 -5.066115857279226" fill="#ff6109" stroke="none" /><path d="M 84.67929136418377 114.36230785411682 l -12.741346857305523 11.944300383919968 a38.46448485926453,38.46448485926453 0 0,0 -0.44866732051765446,-0.486939763549913 l 12.945060585818906 -11.723209365568712" fill="#ffe415" stroke="none" /><path d="M 84.43433777217949 114.09645910891817 l -11.82724545406871 10.71090195034781 a36.95641424696518,36.95641424696518 0 0,0 -0.4229593863327691,-0.47519935430653953 l 12.009863690049817 -10.505728426300404" fill="#ffd113" stroke="none" /><path d="M 84.19399662182784 113.82643327865904 l -5.8230153284590225 5.093731223082782 a28.736511183245142,28.736511183245142 0 0,0 -0.32247495757784767,-0.3751112288346802 l 5.909832795607649 -4.992742895086571" fill="#ff6609" stroke="none" /><path d="M 83.95833913139862 113.55231037782056 l -13.322327460831364 11.254964070306398 a38.440144070434435,38.440144070434435 0 0,0 -0.4226658585967652,-0.5091282546722163 l 13.514089319321664 -11.023974558520422" fill="#ffe315" stroke="none" /><path d="M 83.72743513129214 113.27417163493432 l -6.625956290441173 5.405053336983441 a29.550900440215216,29.550900440215216 0 0,0 -0.3181394891515612,-0.39692792889926987 l 6.718013691647595 -5.290197574505911" fill="#ff710a" stroke="none" /><path d="M 83.50135304334701 112.99209946851258 l -12.21907884971451 9.622091329439204 a36.55283027257771,36.55283027257771 0 0,0 -0.3850112794132953,-0.49767897868443994 l 12.382896946345873 -9.410334356641512" fill="#ffcc13" stroke="none" /><path d="M 83.06392112726016 112.41649034213515 l -8.626437849945427 6.324373135937617 a31.69640713237583,31.69640713237583 0 0,0 -0.318805795021319,-0.44279336574180594 l 8.734023437342355 -6.174946164744672" fill="#ff8d0d" stroke="none" /><path d="M 82.85270091963577 112.12312394758628 l -6.356372394657673 4.493949165772292 a28.78453910800836,28.78453910800836 0 0,0 -0.2825532752133773,-0.40703906676393986 l 6.432786577033185 -4.383868836821339" fill="#ff6609" stroke="none" /><path d="M 82.44556493220864 111.52570212397912 l -7.4933476574375195 4.9199015905390695 a29.964133576415136,29.964133576415136 0 0,0 -0.2793729346372693,-0.4335929986162402 l 7.576925455451835 -4.790186992001381" fill="#ff760a" stroke="none" /><path d="M 82.05923443525364 110.91462005526583 l -10.287214286317687 6.258430553425915 a33.04137578371648,33.04137578371648 0 0,0 -0.29142355658979113,-0.4884426434961476 l 10.39341871860571 -6.080425816043656" fill="#ff9f0e" stroke="none" /><line stroke="#e1ed5e" stroke-width="0.3" x1="26.63291911575756" x2="22.317208475507996" y1="142.92168965132927" y2="145.44649492493687" /><path d="M 25.769776987707644 143.4266507060508 a86.0,86.0 0 0,1 -11.730757126820373,-40.83630448921669" fill="none" id="id237" stroke="none" /><text fill="#e1ed5e" style="font-size:6.75px; font-family:Arial;" text-anchor="middle"><textPath startOffset="21.46611528233685" xlink:href="#id237">September</textPath></text><path d="M 81.87401531095188 110.60418214915194 l -12.71680204663896 7.4396667309746745 a35.733149539775,35.733149539775 0 0,0 -0.3060255055198635,-0.5335812638405149 l 12.8429795483112 -7.219665621275853" fill="#ffc212" stroke="none" /><path d="M 81.35079622478065 109.6543875284942 l -9.829012444608216 5.088318852986723 a32.067993241140115,32.067993241140115 0 0,0 -0.2495521006072441,-0.4923899695120188 l 9.915143215001725 -4.918374671772019" fill="#ff920d" stroke="none" /><path d="M 81.18737489456691 109.33194174019688 l -10.916603826354875 5.415145963809861 a33.18589532660412,33.18589532660412 0 0,0 -0.24944216683948942,-0.5139247460186525 l 11.008199249809083 -5.226432261825924" fill="#ffa10e" stroke="none" /><path d="M 81.02952815118164 109.00673069616217 l -0.7361050328756511 0.3494852341067916 a21.814856151896482,21.814856151896482 0 0,0 -0.15813213506221457,-0.34060255082885155 l 0.7420117847776924 -0.33676261599911295" fill="#ff0500" stroke="none" /><path d="M 80.73074385275274 108.34839909993369 l -4.8443470321182165 2.0988118116059002 a26.279461069856374,26.279461069856374 0 0,0 -0.1762588717373451,-0.4166239067580784 l 4.879756885047868 -2.015113379181663" fill="#ff4406" stroke="none" /><path d="M 80.45479744820244 107.68017299344265 l -11.948771144554469 4.695199714919002 a33.83814753879675,33.83814753879675 0 0,0 -0.20835552593929718,-0.5439505310057317 l 12.027820950087275 -4.488825617080113" fill="#ffa90f" stroke="none" /><path d="M 80.32549172779594 107.34259656027581 l -13.878712556408573 5.179584956728689 a35.8137356040731,35.8137356040731 0 0,0 -0.2105774985655444,-0.5794188366154426 l 13.96581431597934 -4.939918323107129" fill="#ffc312" stroke="none" /><path d="M 80.0844068197444 106.66101706037122 l -6.737006490813308 2.2532753488672728 a28.10383743163324,28.10383743163324 0 0,0 -0.14949601987109631,-0.4601014392304997 l 6.774794761700654 -2.1369750096589697" fill="#ff5d08" stroke="none" /><path d="M 79.97269907076064 106.31721596034903 l -10.49661871001183 3.310950760607731 a32.00642536351105,32.00642536351105 0 0,0 -0.16121061482096255,-0.5268456168186566 l 10.552056097338923 -3.1297781712370267" fill="#ff910d" stroke="none" /><path d="M 79.86692584326677 105.97154293290107 l -12.958016202111056 3.8433946785148794 a34.515985592956554,34.515985592956554 0 0,0 -0.16404521463381977,-0.5710629128506581 l 13.02225405363098 -3.6197742901596253" fill="#ffb210" stroke="none" /><path d="M 79.76711848015287 105.62410040840567 l -11.475345943656102 3.1897828168965776 a32.910427320023125,32.910427320023125 0 0,0 -0.1470185950145512,-0.5471108843089296 l 11.528552615012428 -2.991780999412109" fill="#ff9d0e" stroke="none" /><path d="M 79.67330655649465 105.27499134158121 l -9.040131730323791 2.3460095335598274 a30.339579349904398,30.339579349904398 0 0,0 -0.12683199028423284,-0.50663075440025 l 9.079175034903084 -2.1900509397621857" fill="#ff7b0b" stroke="none" /><path d="M 79.58551787078972 104.9243191809786 l -4.169072549137878 1.0056509780983207 a25.288647783360755,25.288647783360755 0 0,0 -0.09843236943778233,-0.42404407132351546 l 4.1857654845062156 -0.933738249426231" fill="#ff3605" stroke="none" /><path d="M 79.50377843672027 104.57218783832718 l -6.201909294142126 1.3834888621562815 a27.354346569433947,27.354346569433947 0 0,0 -0.09856156801147695,-0.4604468329140842 l 6.224804900878044 -1.2765282098260333" fill="#ff5307" stroke="none" /><path d="M 79.4281124754447 104.21870165774334 l -14.519483133650768 2.977527827351521 a35.82164169149362,35.82164169149362 0 0,0 -0.11867209587613677,-0.6051064601879813 l 14.568585162502572 -2.7271576400955846" fill="#ffc312" stroke="none" /><path d="M 79.35854240842038 103.8639653848113 l -3.033269642939478 0.5678111078695453 a24.08595757926097,24.08595757926097 0 0,0 -0.07277808086054717,-0.4081781272902007 l 3.0425941661392137 -0.5155142298461308" fill="#ff2503" stroke="none" /><path d="M 79.29508885075956 103.50808413554451 l -1.325148685170827 0.2245232083430594 a22.344034861487838,22.344034861487838 0 0,0 -0.060986708511935356,-0.379764292120187 l 1.328817148044053 -0.2016796865296587" fill="#ff0c01" stroke="none" /><path d="M 79.23777060512086 103.15116336523772 l -15.430281347069771 2.341913114021842 a36.60699008404109,36.60699008404109 0 0,0 -0.08919197081313868,-0.6238084361306038 l 15.46830736889951 -2.075959205910838" fill="#ffcd13" stroke="none" /><path d="M 79.18660465613746 102.79330883721812 l -12.649196257818758 1.6976140176518861 a33.76260393970385,33.76260393970385 0 0,0 -0.07234601053252823,-0.576668885818941 l 12.676543777598134 -1.4796273775455364" fill="#ffa80f" stroke="none" /><path d="M 79.1416061653843 102.43462659150553 l -5.234029440504392 0.6109246645552944 a26.269562897416513,26.269562897416513 0 0,0 -0.048558284392908005,-0.44958940608621695 l 5.2437700263983515 -0.5207389365842954" fill="#ff4406" stroke="none" /><path d="M 79.04373962182676 101.35467743843564 l -12.76450488177575 0.8251370456416586 a33.79114678287163,33.79114678287163 0 0,0 -0.03252582781794674,-0.5807705053047217 l 12.776817060481228 -0.6052948240014993" fill="#ffa90f" stroke="none" /><path d="M 79.0095281055655 100.63252640178507 l -21.808909580495833 0.6571891843682026 a42.81880919560675,42.81880919560675 0 0,0 -0.015859143515526457,-0.7369120818586458 l 21.81699078669637 -0.281687286719428" fill="#e6ff1a" stroke="none" /><line stroke="#e1ed5e" stroke-width="0.3" x1="15.007084014347285" x2="10.007500721073583" y1="101.09737516637583" y2="101.16192664675087" /><path d="M 14.007167355692545 101.11028546245083 a86.0,86.0 0 0,1 10.666146001902534,-42.60595125391555" fill="none" id="id238" stroke="none" /><text fill="#e1ed5e" style="font-size:6.75px; font-family:Arial;" text-anchor="middle"><textPath startOffset="22.20632615414155" xlink:href="#id238">October</textPath></text><path d="M 79.00175016825051 100.2711162175752 l -3.5022915752399064 0.04521938982213912 a24.50258348525946,24.50258348525946 0 0,0 -0.0018151778829617546,-0.421783413783069 l 3.502551050412371 0.015073502164605243" fill="#ff2b04" stroke="none" /><path d="M 79.00019446554 99.90962569577889 l -22.292812369960323 -0.09593886018425715 a43.293018809195615,43.293018809195615 0 0,0 0.009621343363577272,-0.7451836466014389 l 22.28785801947903 0.479658764846168" fill="#e0ff1b" stroke="none" /><path d="M 79.00486145842228 99.54816195383935 l -12.492149443054444 -0.2688445415836914 a33.49504202054338,33.49504202054338 0 0,0 0.017366869130508767,-0.5763218378703122 l 12.485670879468291 0.48383652687899803" fill="#ffa50f" stroke="none" /><path d="M 79.03285615573316 98.82574320788736 l -19.624217347166848 -1.099046712368812 a40.65496909600249,40.65496909600249 0 0,0 0.04514523105012498,-0.6983767425931822 l 19.60239152511231 1.436682519215006" fill="#fffe18" stroke="none" /><path d="M 79.05617556472873 98.46500227214037 l -3.641661915457441 -0.26690172003381435 a24.65142958779848,24.65142958779848 0 0,0 0.034659342055574874,-0.4229317619721992 l 3.636528089582369 0.32954739921379195" fill="#ff2d04" stroke="none" /><path d="M 79.08570108090925 98.10471618934814 l -20.597362057886343 -1.8665625370216283 a41.681764418159986,41.681764418159986 0 0,0 0.0709044015072801,-0.7139976468869315 l 20.562180530696832 2.2208357146129902" fill="#f3ff19" stroke="none" /><path d="M 79.12142395522702 97.74499172005258 l -2.7232790726429563 -0.2941300615639844 a23.739116901596336,23.739116901596336 0 0,0 0.04737609568344946,-0.4058894557217272 l 2.717812623955918 0.3409632556105734" fill="#ff2003" stroke="none" /><path d="M 79.16333360222342 97.38593545837743 l -2.680442700376525 -0.33627501084592804 a23.701454044199387,23.701454044199387 0 0,0 0.05426955898057099,-0.4043712500206686 l 2.67425714233812 0.382364602931256" fill="#ff2003" stroke="none" /><path d="M 79.21141760316559 97.0276538004421 l -7.745824506916016 -1.1074960089188266 a28.824598692694206,28.824598692694206 0 0,0 0.07445545728837402,-0.4905684360814596 l 7.72561315618834 1.2406635573923783" fill="#ff6709" stroke="none" /><path d="M 79.26566170972629 96.67025291283419 l -5.581986153231515 -0.8964164601790706 a26.65350615856641,26.65350615856641 0 0,0 0.076645505755957,-0.45236611362498436 l 5.5657287859553355 0.992368362119883" fill="#ff4906" stroke="none" /><path d="M 79.32604984820605 96.31383870115002 l -2.570952343716945 -0.45840030381299524 a23.611498955044688,23.611498955044688 0 0,0 0.07478579811418364,-0.3995087239379493 l 2.5626808216928993 0.5025871052135172" fill="#ff1f03" stroke="none" /><path d="M 79.46518482838121 95.60439243477599 l -7.652914443344363 -1.6381549257706187 a28.826279514429274,28.826279514429274 0 0,0 0.10803761903017917,-0.484311462064069 l 7.623582437312146 1.7696445573846469" fill="#ff6709" stroke="none" /><path d="M 79.54389044137918 95.25157060432595 l -9.853115548572566 -2.2871809214620478 a31.11509182266886,31.11509182266886 0 0,0 0.1255971049254886,-0.5206810849885607 l 9.81228564338626 2.4564472381100053" fill="#ff860c" stroke="none" /><path d="M 79.62865764111835 94.90015583598534 l -11.978380709331764 -2.998716229821632 a33.348032371381564,33.348032371381564 0 0,0 0.14419636496329424,-0.5556474156027909 l 11.924988012498163 3.2044600709732864" fill="#ffa30f" stroke="none" /><path d="M 79.71946130924805 94.55025226153421 l -5.3200980910746765 -1.4296066284211397 a26.50883098403664,26.50883098403664 0 0,0 0.12220978743214779,-0.4396536281579843 l 5.294701533076168 1.5209715599980667" fill="#ff4706" stroke="none" /><path d="M 79.81627453868168 94.20196356495316 l -14.212224276395458 -4.082645413282189 a35.78699808795411,35.78699808795411 0 0,0 0.1751758268341096,-0.5906058035163183 l 14.139842552449641 4.3266806035450465" fill="#ffc212" stroke="none" /><path d="M 79.91906864156998 93.8553929516997 l -10.096749553107125 -3.089525946858049 a31.558859887055895,31.558859887055895 0 0,0 0.16342156910690145,-0.518091033039744 l 10.042072500232019 3.2628671463242074" fill="#ff8c0c" stroke="none" /><path d="M 80.02781315780177 93.51064311812611 l -14.31442187020509 -4.651037605816705 a36.05107385833074,36.05107385833074 0 0,0 0.19684350909666254,-0.5885370374842721 l 14.232241067336654 4.8967477462233" fill="#ffc612" stroke="none" /><path d="M 80.14247586403 93.16781622104843 l -8.54523711573367 -2.9400760139908857 a30.036875805949578,30.036875805949578 0 0,0 0.17242156383359955,-0.4874589794950817 l 8.493362471090261 3.086732619912578" fill="#ff770b" stroke="none" /><path d="M 80.38941819471856 92.48833698450439 l -15.078321636623414 -5.77562012683723 a37.14662723998399,37.14662723998399 0 0,0 0.23385827244125515,-0.5951437952218456 l 14.976669814300468 6.034312926954839" fill="#ffd313" stroke="none" /><path d="M 80.52162464483688 92.15188598940014 l -19.59492744923696 -7.895074504264595 a42.12565698786073,42.12565698786073 0 0,0 0.27678224238074267,-0.6702501540954969 l 19.456123519970017 8.231199228813404" fill="#eeff19" stroke="none" /><path d="M 80.65960295795068 91.81776055985345 l -8.294237358350577 -3.5089991116460486 a30.005967361821334,30.005967361821334 0 0,0 0.20533982238338255,-0.47395262102012947 l 8.232606826124513 3.6512508772527776" fill="#ff770a" stroke="none" /><path d="M 80.803312248108 91.48605970444005 l -2.5902027303985435 -1.1487831486885565 a23.833523055716128,23.833523055716128 0 0,0 0.16955586300592995,-0.3735938686522296 l 2.570044550429262 1.1931990261828571" fill="#ff2203" stroke="none" /><path d="M 80.95270993114464 91.15688171328213 l -13.347134357081943 -6.196697140733192 a35.715469785228336,35.715469785228336 0 0,0 0.263685283013912,-0.5553884541584632 l 13.23849088022628 6.425528010532187" fill="#ffc112" stroke="none" /><path d="M 81.10775173730289 90.83032412892265 l -15.769050228500152 -7.653778278765927 a38.5283560851972,38.5283560851972 0 0,0 0.29472355345011325,-0.5941446994804191 l 15.634966662096625 7.924082566745307" fill="#ffe515" stroke="none" /><path d="M 81.26839172434947 90.50648371742162 l -12.0326018879739 -6.098339249051825 a34.4897460980924,34.4897460980924 0 0,0 0.27294621210503434,-0.5272452047525151 l 11.92584624270875 6.304557176064675" fill="#ffb210" stroke="none" /><path d="M 81.43458229118936 90.18545643968196 l -16.94492341759545 -8.95787488418961 a40.16700164524879,40.16700164524879 0 0,0 0.32839756481750165,-0.6084708126604521 l 16.78821775355948 9.248226680182537" fill="#fff917" stroke="none" /><path d="M 81.6062741919709 89.86733742301443 l -21.965298965319693 -12.100156604543994 a46.077642402952556,46.077642402952556 0 0,0 0.3886810599496633,-0.6914202354523118 l 21.7537602640776 12.47646034993109" fill="#c0ff1e" stroke="none" /><line stroke="#e1ed5e" stroke-width="0.3" x1="26.266209847984243" x2="21.928928074336255" y1="57.711370442889674" y2="55.22380399835377" /><path d="M 25.398753493254645 57.213857153982495 a86.0,86.0 0 0,1 29.58750427330803,-30.492523968695096" fill="none" id="id239" stroke="none" /><text fill="#e1ed5e" style="font-size:6.75px; font-family:Arial;" text-anchor="middle"><textPath startOffset="21.46611528233685" xlink:href="#id239">November</textPath></text><path d="M 81.78341655067845 89.55222093294921 l -9.424281284160097 -5.405119406532486 a31.864271421583886,31.864271421583886 0 0,0 0.27697687990770686,-0.4734432711370331 l 9.329844729782065 5.566542090023411" fill="#ff900d" stroke="none" /><path d="M 81.96595687620814 89.24020034530311 l -11.344016424779564 -6.7682739346003435 a34.2097025212326,34.2097025212326 0 0,0 0.30606964995560854,-0.5030980289312297 l 11.225830976537738 6.962539736738648" fill="#ffae10" stroke="none" /><path d="M 82.34701348167596 88.62581576622439 l -52.95895955497213 -34.12255270132681 a84.0,84.0 0 0,0 0.793613458568319,-1.208727744089332 l 52.36374946104589 35.02909850939381" fill="#4dd2ff" stroke="none" /><path d="M 82.54541684631803 88.32363383020206 l -8.390473253693688 -5.612866098572914 a31.09476633020588,31.09476633020588 0 0,0 0.3014349366941582,-0.4423185744811247 l 8.292613851330788 5.756462696324454" fill="#ff850c" stroke="none" /><path d="M 82.7489923806493 88.02491185347247 l -8.651354623707642 -6.005488867186923 a31.531468718039932,31.531468718039932 0 0,0 0.31334379050017713,-0.44320257005631686 l 8.546698213403586 6.1535179375750255" fill="#ff8b0c" stroke="none" /><path d="M 82.95767976084542 87.72973835380427 l -13.793324031408124 -9.931024206861922 a37.996500511361106,37.996500511361106 0 0,0 0.38672727394870077,-0.5274955670531806 l 13.62033414494579 10.166982217586604" fill="#ffde14" stroke="none" /><path d="M 83.17141714833178 87.43820079747576 l -11.756486343168321 -8.775701559175502 a35.67064787229312,35.67064787229312 0 0,0 0.3715251865459145,-0.48888359580157265 l 11.603685216398299 8.9767699308581" fill="#ffc111" stroke="none" /><path d="M 83.39014120810768 87.1503855733568 l -8.339027035424383 -6.451185614585778 a31.543109964871714,31.543109964871714 0 0,0 0.33592799185805755,-0.4265944356380467 l 8.226744962972354 6.593772444176873" fill="#ff8b0c" stroke="none" /><path d="M 83.84228863543731 86.58626213691792 l -24.423728939790298 -20.27598403297666 a52.743252256658806,52.743252256658806 0 0,0 0.5859257600785611,-0.6935512894347746 l 24.07109256622461 20.69339427204055" fill="#77ff27" stroke="none" /><path d="M 84.31358615837235 86.03803664274999 l -7.286241228584752 -6.4852447520936325 a30.75436880252568,30.75436880252568 0 0,0 0.3553687223224936,-0.39240701904385134 l 7.173528865646214 6.6097045584070395" fill="#ff810b" stroke="none" /><path d="M 85.31137513191541 84.99185889309783 l -12.28530484208948 -12.552542546852502 a38.56402685757482,38.56402685757482 0 0,0 0.47840834238945806,-0.4602284463362208 l 12.067413256087594 12.762154079951035" fill="#ffe515" stroke="none" /><path d="M 85.83668400450813 84.49514656593479 l -8.743418217662557 -9.571587474341717 a33.96389790564276,33.96389790564276 0 0,0 0.43504358833476675,-0.3905864290605592 l 8.57736364173182 9.720672912171555" fill="#ffab0f" stroke="none" /><path d="M 86.10567301691215 84.25364557470407 l -11.764077692614544 -13.332156142582637 a38.78032371381565,38.78032371381565 0 0,0 0.5043403284156496,-0.437358962949926 l 11.53284356555212 13.532680098952243" fill="#ffe815" stroke="none" /><path d="M 86.37877921826538 84.01681056812374 l -7.774434866387535 -9.122549820342273 a32.98593979278759,32.98593979278759 0 0,0 0.43532402856626884,-0.3645713546753994 l 7.616253300862156 9.255022332411485" fill="#ff9e0e" stroke="none" /><path d="M 86.65592168130627 83.78471172551755 l -17.65444485046915 -21.45310494582986 a48.78336075414647,48.78336075414647 0 0,0 0.6529922340282143,-0.5280076406848389 l 17.282549217876436 21.753818683778835" fill="#a2ff22" stroke="none" /><path d="M 86.93701828274178 83.55741782278169 l -12.680194356696479 -15.960761658085096 a41.38463248699364,41.38463248699364 0 0,0 0.5615844274040381,-0.43832555329343387 l 12.403577374133015 16.17666560060175" fill="#f7ff19" stroke="none" /><path d="M 87.51073957382395 83.11751280151077 l -5.7573848580590745 -7.782604641603941 a30.68072390946685,30.68072390946685 0 0,0 0.4272724478561949,-0.3104316044124795 l 5.6225670938490975 7.880555480833088" fill="#ff800b" stroke="none" /><path d="M 87.80319425747018 82.90503203632743 l -8.56603829338808 -12.006106622690895 a35.74868157766019,35.74868157766019 0 0,0 0.5040034007659262,-0.35308659097200656 l 8.358103753038494 12.151778056426844" fill="#ffc212" stroke="none" /><path d="M 88.09926311788651 82.69761687909137 l -7.907083341075965 -11.496043202322596 a34.95281248610432,34.95281248610432 0 0,0 0.49865231133930216,-0.3366922665522558 l 7.708026335330123 11.630447381173518" fill="#ffb811" stroke="none" /><path d="M 88.39885842347998 82.49532879139004 l -8.734309605451843 -13.178980436466736 a36.81055627195518,36.81055627195518 0 0,0 0.5311815404583543,-0.345495249689921 l 8.5061610392092 13.327374610316191" fill="#ffcf13" stroke="none" /><path d="M 88.70189139769569 82.29822771554957 l -11.874995885332728 -18.605633955233223 a43.07227088798968,43.07227088798968 0 0,0 0.628405660186413,-0.3935075667586875 l 11.552971072774072 18.807285863314842" fill="#e3ff1b" stroke="none" /><line stroke="#e1ed5e" stroke-width="0.3" x1="56.762969772571076" x2="54.21961505331055" y1="26.818313649435495" y2="22.513508569990535" /><path d="M 56.25429882871897 25.957352633546506 a86.0,86.0 0 0,1 42.265352541879196,-11.944610805530505" fill="none" id="id240" stroke="none" /><text fill="#e1ed5e" style="font-size:6.75px; font-family:Arial;" text-anchor="middle"><textPath startOffset="22.20632615414155" xlink:href="#id240">December</textPath></text><path d="M 89.3179101791058 81.91981866633112 l -9.158157905645167 -15.500820381847051 a39.004090888879006,39.004090888879006 0 0,0 0.5809812893933805,-0.33654186256407687 l 8.889979883786467 15.656166401801176" fill="#ffea16" stroke="none" /><path d="M 89.63071344664047 81.73862282372117 l -7.664099579663699 -13.497265450288326 a36.52142380719463,36.52142380719463 0 0,0 0.5493446673087373,-0.3057097125944628 l 7.430630823282916 13.627190560442974" fill="#ffcc13" stroke="none" /><path d="M 89.94658935756843 81.56283822128135 l -7.171751811186687 -13.152426881041672 a35.98066610342835,35.98066610342835 0 0,0 0.5463149341090109,-0.2918225177167263 l 6.944291830549371 13.273928125260147" fill="#ffc512" stroke="none" /><path d="M 90.26544431104013 81.39251694778311 l -5.254065806526488 -10.043081941690549 a32.33440348614878,32.33440348614878 0 0,0 0.4953931053210327,-0.25375958971803375 l 5.080412213616692 10.132034056721087" fill="#ff960d" stroke="none" /><path d="M 90.58718382345135 81.22770947309562 l -7.066525216460688 -14.093004887272324 a36.76542309573569,36.76542309573569 0 0,0 0.5681636273849869,-0.2787954244502698 l 6.822890322065275 14.212555471857423" fill="#ffcf13" stroke="none" /><path d="M 90.91171255644093 81.06846463323043 l -7.321562729128157 -15.251324807595555 a37.917688647783365,37.917688647783365 0 0,0 0.5908330429862954,-0.27740403588823737 l 7.057951474842254 15.3750938261238" fill="#ffdd14" stroke="none" /><path d="M 91.23893434514133 80.91482961587045 l -6.009849245404224 -13.091900158043304 a35.40542042776468,35.40542042776468 0 0,0 0.5560638457275494,-0.24948963870590252 l 5.7836032812099 13.193410127265734" fill="#ffbd11" stroke="none" /><path d="M 91.90106846888425 80.62456947434976 l -5.402768930305585 -12.925282014435803 a35.0090266352439,35.0090266352439 0 0,0 0.5580040916583885,-0.22762387963579772 l 5.179480969058816 13.016366780255177" fill="#ffb811" stroke="none" /><path d="M 92.57280143429618 80.3572730644239 l -4.828906530971113 -12.771018782678427 a34.65347058561964,34.65347058561964 0 0,0 0.5597652236172652,-0.20616625591128787 l 4.608358981581278 12.852248306396037" fill="#ffb410" stroke="none" /><path d="M 93.25333710446033 80.11325718540243 l -3.3323716730353263 -9.822636679848937 a31.372506558762062,31.372506558762062 0 0,0 0.5128914481397949,-0.16909224657328745 l 3.162797402653122 9.878542650681458" fill="#ff890c" stroke="none" /><path d="M 96.04723909329186 79.375362276772 l -1.3660803093874299 -7.127906834470047 a28.257632620392194,28.257632620392194 0 0,0 0.4785024774234999,-0.08744326923828198 l 1.2431827108610367 7.150365585059065" fill="#ff5f08" stroke="none" /><path d="M 96.40284397218896 79.31037775812273 l -2.4535859661971764 -14.112194852298957 a35.32390057361377,35.32390057361377 0 0,0 0.5999525552315188,-0.09899731220505828 l 2.210304204826772 14.152338427443642" fill="#ffbc11" stroke="none" /><path d="M 97.11714578562143 79.19881850522333 l -1.703083291423757 -12.288566126214507 a33.4060207212415,33.4060207212415 0 0,0 0.5702650670345899,-0.07403677241810355 l 1.4913034958813094 12.316061221796746" fill="#ffa40f" stroke="none" /><path d="M 97.83486435360386 79.11191278185805 l -1.3968104640374608 -13.47569093354139 a34.54789007959447,34.54789007959447 0 0,0 0.5920436929378354,-0.05622168245807318 l 1.164641644009389 13.497738160514645" fill="#ffb210" stroke="none" /><path d="M 98.19473922651362 79.07773832637324 l -0.9812685489143133 -11.372516178278424 a32.4147716661479,32.4147716661479 0 0,0 0.5563143675266448,-0.04318070183720724 l 0.7853639920253344 11.387722142304092" fill="#ff970d" stroke="none" /><path d="M 98.91598698831166 79.02799685794201 l -0.5575114572467694 -10.785970193201111 a31.80036906932278,31.80036906932278 0 0,0 0.5469045153709,-0.023550858876081906 l 0.3717661094865453 10.793968778601384" fill="#ff8f0d" stroke="none" /></svg>