<?xml version="1.0" encoding="utf-8" ?>
<svg baseProfile="full" height="200mm" version="1.1" viewBox="0,0,200,200" width="200mm" xmlns="http://www.w3.org/2000/svg" xmlns:ev="http://www.w3.org/2001/xml-events" xmlns:xlink="http://www.w3.org/1999/xlink"><defs /><rect fill="#1a1a1a" height="200" width="200" x="0" y="0" /><text alignment-baseline="middle" fill="#e1ed5e" style="dominant-baseline: central; font-size:9.0px; font-family:Arial;" text-anchor="middle" x="100.0" y="100.0">2026</text><line stroke="#e1ed5e" stroke-width="0.3" x1="100.0" x2="100.0" y1="15.0" y2="10.0" /><path d="M 100.0 14.0 a86.0,86.0 0 0,1 42.46469731375804,11.215312516191453" fill="none" id="id325" stroke="none" /><text fill="#e1ed5e" style="font-size:6.75px; font-family:Arial;" text-anchor="middle"><textPath startOffset="22.20632615414155" xlink:href="#id325">January</textPath></text><path d="M 100.36148047927253 79.00311137660856 l 0.09196116588690616 -5.341639365120031 a26.342430903907996,26.342430903907996 0 0,0 0.4533072806139016,0.011707589671509634 l -0.1838950816956755 5.339264983306162" fill="#ff4306" stroke="none" /><path d="M 100.72285384407766 79.0124445844662 l 1.2740619050039799 -36.99149565734177 a58.0134297884554,58.0134297884554 0 0,0 0.9977181910780243,0.04296384406378496 l -1.9106209284713356 36.96408408675379" fill="#42ff2d" stroke="none" /><path d="M 101.08401301168833 79.027996857942 l 0.47369362528031556 -9.164377263589426 a30.176611372398092,30.176611372398092 0 0,0 0.5185174581228283,0.031278389083725794 l -0.6313731322427557 9.154865605125394" fill="#ff780b" stroke="none" /><path d="M 101.44485096284872 79.0497635885617 l 0.26438055413247086 -3.8334992702235327 a24.842605071069332,24.842605071069332 0 0,0 0.42635802806715434,0.033093588734223155 l -0.3303287715619664 3.828380419300845" fill="#ff2e04" stroke="none" /><path d="M 101.80526077348638 79.07773832637324 l 2.1076547004820028 -24.426888241731742 a45.51764828670393,45.51764828670393 0 0,0 0.780031328206121,0.07407337357846372 l -2.527811155778368 24.386989323638097" fill="#c7ff1e" stroke="none" /><path d="M 102.16513564639614 79.11191278185805 l 0.41469915667416685 -4.000798826770165 a25.02223403630766,25.02223403630766 0 0,0 0.4280390294482835,0.048095172329097054 l -0.4835048896321756 3.9930677009704674" fill="#ff3104" stroke="none" /><path d="M 102.52436894288641 79.15227682838746 l 2.7699359098883876 -22.87575958941765 a44.042849687868966,44.042849687868966 0 0,0 0.7518434727449443,0.09761086081444287 l -3.163294111141178 22.82469040543907" fill="#d8ff1c" stroke="none" /><path d="M 102.88285421437855 79.19881850522331 l 1.7312301073454763 -12.49165895816129 a33.61105472240885,33.61105472240885 0 0,0 0.5723978937734915,0.08435657033516472 l -1.9459969815476237 12.460007903665156" fill="#ffa50f" stroke="none" /><path d="M 103.59715602781102 79.31037775812273 l 7.067978319679471 -40.65261565452142 a62.26247056444511,62.26247056444511 0 0,0 1.054325633566843,0.19267127045448937 l -7.766699074349215 40.52492890271619" fill="#32ff4b" stroke="none" /><path d="M 103.95276090670814 79.375362276772 l 0.5679020635634291 -2.963188161315774 a24.017117305170874,24.017117305170874 0 0,0 0.4053558628914739,0.0813105727060604 l -0.6188243359220282 2.952973632532505" fill="#ff2303" stroke="none" /><path d="M 104.307194497241 79.44645832069477 l 1.608216702470151 -7.6742643139863596 a28.840962550798753,28.840962550798753 0 0,0 0.4850188460585812,0.10600633384972163 l -1.7400782726822601 7.645444482040768" fill="#ff6609" stroke="none" /><path d="M 104.66035177308747 79.52364482259891 l 4.525874293466145 -19.88549663921314 a41.394031350089044,41.394031350089044 0 0,0 0.6934018919091447,0.16410582489828338 l -4.867499872337812 19.80464490217399" fill="#f8ff18" stroke="none" /><path d="M 105.01212808612495 79.60689891045804 l 2.339402880258437 -9.518447774378481 a30.801716883777665,30.801716883777665 0 0,0 0.5137889351251288,0.13097623955124485 l -2.502900704068591 9.47676853865837" fill="#ff800b" stroke="none" /><path d="M 105.36241919743992 79.69619591428918 l 1.850316384401015 -7.005879246328706 a28.246103417459768,28.246103417459768 0 0,0 0.46902266108921786,0.12820161070934952 l -1.9706369347139439 6.972991094793063" fill="#ff5e08" stroke="none" /><path d="M 105.71112130821622 79.79150937346287 l 6.566126099993284 -23.233878354760293 a45.143883601542065,45.143883601542065 0 0,0 0.7459699628423838,0.21776908799694045 l -6.9650862805590945 23.117410937844646" fill="#ccff1d" stroke="none" /><path d="M 106.0581310904928 79.89281104454417 l 6.545963557728469 -21.726325195790324 a43.69103006503545,43.69103006503545 0 0,0 0.718227745704096,0.22315685674378288 l -6.918976676143283 21.610428204164023" fill="#ddff1b" stroke="none" /><path d="M 106.74666289553966 80.11325718540242 l 6.19420150698656 -18.258284757738934 a40.280381080358254,40.280381080358254 0 0,0 0.654686616472167,0.22840730537844842 l -6.507570127522 18.14895659918828" fill="#fff917" stroke="none" /><path d="M 107.08798089147638 80.2323363322302 l 2.462731331108225 -6.868309241065993 a28.296486650445857,28.296486650445857 0 0,0 0.45707944716055154,0.16834621784136486 l -2.5805931040413532 6.824899755418303" fill="#ff5e08" stroke="none" /><path d="M 107.4271985657038 80.35727306442388 l 0.6802891609339147 -1.7991621076567814 a22.92348060351857,22.92348060351857 0 0,0 0.3678856609613977,0.14273392100636118 l -0.7111579868949793 1.7871854827598734" fill="#ff1302" stroke="none" /><path d="M 107.76421540070413 80.48803036053334 l 2.5837195461065554 -6.493052386974696 a27.988228387290363,27.988228387290363 0 0,0 0.44610054775572744,0.18197561434724835 l -2.6951039634506704 6.447615886443868" fill="#ff5a08" stroke="none" /><path d="M 108.43124777332544 80.76684994638697 l 17.718374359238457 -40.41870929656159 a65.13176691606708,65.13176691606708 0 0,0 1.0229343516558427,0.45896082576733005 l -18.411490829361078 40.10772814027772" fill="#36ff6c" stroke="none" /><path d="M 108.76106565485865 80.91482961587045 l 1.6093166817417286 -3.5057473922740994 a24.8574816863556,24.8574816863556 0 0,0 0.3873290295236555,0.18185617287662154 l -1.669423922564982 3.477526236757475" fill="#ff2e04" stroke="none" /><path d="M 109.08828744355905 81.06846463323043 l 1.4791224718645657 -3.0811150683545927 a24.417758527341636,24.417758527341636 0 0,0 0.3773459160630193,0.18516200221680285 l -1.5319396549380169 3.055197906002958" fill="#ff2803" stroke="none" /><path d="M 109.41281617654863 81.2277094730956 l 3.2815884071238557 -6.5445802629960905 a28.321226215093183,28.321226215093183 0 0,0 0.43390750063488737,0.22226427488394837 l -3.3937563953474985 6.487123462799642" fill="#ff5f08" stroke="none" /><path d="M 109.73455568895987 81.39251694778311 l 2.904040953642438 -5.5510384402166055 a27.264781051656545,27.264781051656545 0 0,0 0.41397669017341576,0.22113201096995175 l -2.999162690344165 5.500227702744899" fill="#ff5007" stroke="none" /><path d="M 110.05341064243156 81.56283822128135 l 1.469755765690032 -2.695416092212619 a24.070089562364238,24.070089562364238 0 0,0 0.3620553079347383,0.20148338687671716 l -1.5159351626968054 2.669717307775722" fill="#ff2303" stroke="none" /><path d="M 110.36928655335952 81.73862282372117 l 19.160936694885084 -33.74437481648466 a59.80495234864743,59.80495234864743 0 0,0 0.8908183099720122,0.5160194634791004 l -19.738951737322427 33.40955119561551" fill="#31ff2f" stroke="none" /><line stroke="#e1ed5e" stroke-width="0.3" x1="143.23703022742887" x2="145.7803849466894" y1="26.81831364943548" y2="22.513508569990506" /><path d="M 143.74570117128098 25.957352633546492 a86.0,86.0 0 0,1 28.547481713284135,27.462654790039103" fill="none" id="id326" stroke="none" /><text fill="#e1ed5e" style="font-size:6.75px; font-family:Arial;" text-anchor="middle"><textPath startOffset="19.985693538727396" xlink:href="#id326">February</textPath></text><path d="M 110.99172775467656 82.1063720568725 l 3.7088127597018437 -6.037641862499127 a28.08578939472019,28.08578939472019 0 0,0 0.4097594267165939,0.25659131541852903 l -3.8121913387907007 5.972906205757654" fill="#ff5b08" stroke="none" /><path d="M 111.2981086023043 82.29822771554956 l 12.482604015035422 -19.557628765053412 a44.201643172582045,44.201643172582045 0 0,0 0.637835971229024,0.41486625824917023 l -12.817407012048726 19.33986358264471" fill="#d7ff1c" stroke="none" /><path d="M 111.60114157652 82.49532879139004 l 5.282276331319556 -7.970294113116742 a30.56180064056986,30.56180064056986 0 0,0 0.4360081905903749,0.29439467658524554 l -5.418689216316474 7.878187524232826" fill="#ff7d0b" stroke="none" /><path d="M 111.90073688211348 82.69761687909136 l 2.1323373016346454 -3.1001876019407466 a24.76271518124474,24.76271518124474 0 0,0 0.34911756497741697,0.2445791649004646 l -2.185386006195713 3.063023594276346" fill="#ff2d04" stroke="none" /><path d="M 112.19680574252982 82.90503203632743 l 16.78097670445591 -23.52011380828206 a49.89285262327056,49.89285262327056 0 0,0 0.6948284966736016,0.5048224525034 l -17.183350517483298 23.227772120961983" fill="#97ff23" stroke="none" /><path d="M 112.48926042617603 83.11751280151076 l 13.90514878683073 -18.79642896185768 a44.380737894729975,44.380737894729975 0 0,0 0.6102432745783032,0.45962258274252166 l -14.226638215167418 18.55428978960931" fill="#d5ff1c" stroke="none" /><path d="M 112.77801427241765 83.33499621200491 l 5.147430684686675 -6.713245894858073 a29.459533858226628,29.459533858226628 0 0,0 0.39976228998919483,0.31202080826093975 l -5.2622255298353 6.623646697373909" fill="#ff6e0a" stroke="none" /><path d="M 113.06298171725822 83.55741782278167 l 2.394983655279132 -3.014603894989392 a24.85016666557948,24.85016666557948 0 0,0 0.33263320927620776,0.2689662554788757 l -2.446520263119831 2.9729315422463864" fill="#ff2e04" stroke="none" /><path d="M 113.34407831869373 83.78471172551755 l 5.009558900140704 -6.087452408008097 a28.88370199803002,28.88370199803002 0 0,0 0.3811857292129954,0.3192320859011712 l -5.113602166312817 6.0003191647131064" fill="#ff6609" stroke="none" /><path d="M 113.6212207817346 84.01681056812373 l 14.032724684556165 -16.46604959075226 a42.63442051910946,42.63442051910946 0 0,0 0.5544630778509733,0.4808249173424663 l -14.314081561053902 16.22205967999012" fill="#e9ff1a" stroke="none" /><path d="M 113.89432698308785 84.25364557470407 l 17.65495205063715 -20.008247444393707 a47.68383963574928,47.68383963574928 0 0,0 0.6107823300595897,0.5483664065580626 l -17.99674536829273 19.701382029066348" fill="#afff20" stroke="none" /><path d="M 114.42810811169701 84.74124197986012 l 4.80085812856311 -5.0772514251800915 a27.987611952955298,27.987611952955298 0 0,0 0.3472019945246775,0.33400804364496 l -4.887543366700205 4.99386029477283" fill="#ff5a08" stroke="none" /><path d="M 114.94478906791727 85.2469230424477 l 5.518656383594077 -5.447862927970861 a28.75466174388947,28.75466174388947 0 0,0 0.3446940926698123,0.3552375619623961 l -5.611614739966998 5.3520611704583505" fill="#ff6409" stroke="none" /><path d="M 115.4437574822437 85.77008943001954 l 5.212914154489802 -4.803190047024639 a28.08837841892747,28.08837841892747 0 0,0 0.32456303086362154,0.35839060511760795 l -5.294820825969459 4.712746654637482" fill="#ff5b08" stroke="none" /><path d="M 115.9244219780498 86.31012108654704 l 2.3017028081332005 -1.9787237980462675 a24.0353226658665,24.0353226658665 0 0,0 0.2670088418742467,0.31605424985503416 l -2.3354222634945647 1.938810598562127" fill="#ff2303" stroke="none" /><path d="M 116.15771136456269 86.58626213691792 l 18.26938293200289 -15.166796091408273 a44.74451634366377,44.74451634366377 0 0,0 0.48686616456375903,0.5968403500518704 l -18.52774758864306 14.850071571748302" fill="#d0ff1d" stroke="none" /><path d="M 116.38621287248628 86.86637796730983 l 29.588240860423756 -23.71510580858471 a58.91925949602416,58.91925949602416 0 0,0 0.6274786647957685,0.7968341828345492 l -29.99207360581349 23.202279231797124" fill="#3aff2e" stroke="none" /><path d="M 116.60985879189232 87.15038557335679 l 3.249725303088324 -2.514032037260556 a25.108658130083953,25.108658130083953 0 0,0 0.2615175067493705,0.344126384144601 l -3.292518750061808 2.4577208772349213" fill="#ff3204" stroke="none" /><path d="M 117.04232023915458 87.72973835380427 l 9.776358282591692 -7.038858112685228 a33.046688540844485,33.046688540844485 0 0,0 0.3284012788450419,0.46450031947839493 l -9.896072181240617 6.869531292875039" fill="#ff9e0e" stroke="none" /><path d="M 117.45458315368197 88.32363383020206 l 7.323977294302409 -4.899426125196313 a29.8116411504165,29.8116411504165 0 0,0 0.2816538052259417,0.4289780685159857 l -7.407227734886275 4.772629992702654" fill="#ff730a" stroke="none" /><line stroke="#e1ed5e" stroke-width="0.3" x1="172.23445277983987" x2="176.4835382374775" y1="55.19839476539836" y2="52.563006222186495" /><path d="M 173.08426987136738 54.67131705675599 a86.0,86.0 0 0,1 12.851231095245387,41.99856678651699" fill="none" id="id327" stroke="none" /><text fill="#e1ed5e" style="font-size:6.75px; font-family:Arial;" text-anchor="middle"><textPath startOffset="22.20632615414155" xlink:href="#id327">March</textPath></text><path d="M 117.84615892207809 88.93136811851018 l 21.603594861256706 -13.399087158204637 a46.421464308778155,46.421464308778155 0 0,0 0.41532665543044434,0.682687818736569 l -21.831037314973376 13.025231566260986" fill="#bdff1f" stroke="none" /><path d="M 118.03404312379186 89.2402003453031 l 3.3857195213157687 -2.0200497185399993 a24.94254962459475,24.94254962459475 0 0,0 0.21681052990540672,0.37059947577419916 l -3.4199897256915026 1.9614708304119048" fill="#ff3004" stroke="none" /><path d="M 118.21658344932153 89.55222093294921 l 10.833591744995855 -6.213402934157643 a33.48891853282105,33.48891853282105 0 0,0 0.2824907628318798,0.5025195459115334 l -10.938940149120167 6.025999878311316" fill="#ffa30f" stroke="none" /><path d="M 118.3937258080291 89.86733742301442 l 19.011105447726255 -10.472762219452886 a42.70485841579637,42.70485841579637 0 0,0 0.349146586381639,0.6469155983885579 l -19.18856013332636 10.143965637731869" fill="#e8ff1a" stroke="none" /><path d="M 118.56541770881063 90.18545643968196 l 18.432396692565746 -9.744222462303988 a41.849535228080704,41.849535228080704 0 0,0 0.33119038007335294,0.6397543985209785 l -18.597396505799217 9.425495341522664" fill="#f2ff19" stroke="none" /><path d="M 118.89224826269711 90.83032412892265 l 43.0226185515484 -20.881763872521613 a68.82252366259841,68.82252366259841 0 0,0 0.508112779667511,1.0702150988942805 l -43.375689525057666 20.138106357986793" fill="#3aff95" stroke="none" /><path d="M 119.04729006885535 91.15688171328212 l 35.73319129221309 -16.589910492078065 a60.3965238321994,60.3965238321994 0 0,0 0.4296714630475517,0.9467241137145657 l -36.01346507222399 15.972364369521436" fill="#30ff34" stroke="none" /><path d="M 119.196687751892 91.48605970444005 l 3.5237525739443374 -1.562822681633236 a24.854769375281307,24.854769375281307 0 0,0 0.17008863161645496,0.39258801251826275 l -3.550131915403473 1.5019355245283705" fill="#ff2e04" stroke="none" /><path d="M 119.34039704204932 91.81776055985345 l 15.804861795537542 -6.686479251090383 a38.16107983640028,38.16107983640028 0 0,0 0.2507334010679837,0.607170818681097 l -15.917616883491723 6.413433861955983" fill="#ffdf14" stroke="none" /><path d="M 119.47837535516314 92.15188598940014 l 8.20552656717158 -3.306123166945678 a29.846531333781254,29.846531333781254 0 0,0 0.18790018838018174,0.4781854841742788 l -8.261220305433463 3.164388677875615" fill="#ff730a" stroke="none" /><path d="M 119.61058180528143 92.48833698450437 l 10.505408411465218 -4.024005438014466 a32.24972113684842,32.24972113684842 0 0,0 0.19410556065713286,0.5201063993479347 l -10.573118560623975 3.8425759016371983" fill="#ff930d" stroke="none" /><path d="M 119.85752413597 93.16781622104841 l 2.500671624465213 -0.8603815859504766 a23.644544393056798,23.644544393056798 0 0,0 0.12910225941149586,0.3859993231946314 l -2.515111177648479 0.8172091598335313" fill="#ff1d03" stroke="none" /><path d="M 119.97218684219823 93.5106431181261 l 8.30896179340597 -2.6997453419242925 a29.736559448405423,29.736559448405423 0 0,0 0.15398513198165836,0.48817494861374583 l -8.354202409155834 2.5563202268841274" fill="#ff720a" stroke="none" /><path d="M 120.28053869075195 94.5502522615342 l 31.824720161254294 -8.551878200611636 a53.9537165445757,53.9537165445757 0 0,0 0.23329501768940053,0.8989808701843411 l -31.967211510814 8.002800904878443" fill="#6bff28" stroke="none" /><path d="M 120.37134235888165 94.90015583598534 l 8.746344902208511 -2.1895953256384266 a30.016256254036175,30.016256254036175 0 0,0 0.12116161853849106,0.5022931303792393 l -8.782739321007822 2.0387169635997813" fill="#ff760a" stroke="none" /><path d="M 120.45610955862082 95.25157060432595 l 1.102701209845538 -0.25596748122955 a22.132020012915767,22.132020012915767 0 0,0 0.0829482953333194,0.3718409434530368 l -1.106943892180895 0.2369483682265493" fill="#ff0701" stroke="none" /><path d="M 120.6074358757038 95.95851677861258 l 37.58537885748533 -7.371158592375288 a59.3013665925206,59.3013665925206 0 0,0 0.18782797476464583,1.0033845517500843 l -37.70669255615984 6.72309596316264" fill="#36ff2f" stroke="none" /><path d="M 120.67395015179393 96.31383870115 l 2.853633831494836 -0.5088023582098328 a23.898638625971127,23.898638625971127 0 0,0 0.06872353803920435,0.40561021172381745 l -2.8619692310542635 0.4596063581701774" fill="#ff2103" stroke="none" /><path d="M 120.73433829027371 96.67025291283417 l 24.595715043095552 -3.9498492488629635 a45.910851201231566,45.910851201231566 0 0,0 0.11859014785009771,0.781360903340724 l -24.66006108438495 3.5258892331301572" fill="#c3ff1e" stroke="none" /><path d="M 120.78858239683441 97.02765380044208 l 8.41297457501835 -1.2028849551973766 a29.498533603825155,29.498533603825155 0 0,0 0.0675432151237514,0.5032754060114137 l -8.432433789199937 1.0578912071212987" fill="#ff6f0a" stroke="none" /><path d="M 120.83666639777658 97.38593545837742 l 13.963982155205068 -1.7518517556948112 a35.07344244329782,35.07344244329782 0 0,0 0.06999598055940733,0.5996828156080457 l -13.992068488768064 1.5112252017619128" fill="#ffb811" stroke="none" /><path d="M 120.91429891909075 98.10471618934814 l 30.424130951911046 -2.7570784499821115 a51.54880072537034,51.54880072537034 0 0,0 0.07247642618583633,0.8843959755229052 l -30.467081861916377 2.2329685572514375" fill="#85ff25" stroke="none" /><path d="M 120.94382443527127 98.46500227214037 l 30.248464189094147 -2.2169458087754266 a51.32959667582077,51.32959667582077 0 0,0 0.056998850402945646,0.8817469874452322 l -30.28214363050151 1.6959397570771595" fill="#87ff25" stroke="none" /><path d="M 120.96714384426684 98.82574320788733 l 6.301590892954061 -0.35291816387237573 a27.31146567863223,27.31146567863223 0 0,0 0.022247649124576097,0.4696127104000588 l -6.306732150312134 0.24439434684931716" fill="#ff5107" stroke="none" /><path d="M 120.98425023603335 99.18683210126433 l 25.682172986053597 -0.9952187191408002 a46.70144878376527,46.70144878376527 0 0,0 0.024214268748651405,0.8035536954322315 l -25.695498949257896 0.5529948762835696" fill="#baff1f" stroke="none" /><line stroke="#e1ed5e" stroke-width="0.3" x1="184.98032266829074" x2="189.97916517819016" y1="98.17113171792111" y2="98.06355123074" /><path d="M 185.9800911702706 98.14961562048488 a86.0,86.0 0 0,1 -9.607161424134198,41.387399972396054" fill="none" id="id328" stroke="none" /><text fill="#e1ed5e" style="font-size:6.75px; font-family:Arial;" text-anchor="middle"><textPath startOffset="21.466115282336823" xlink:href="#id328">April</textPath></text><path d="M 120.99513854157772 99.54816195383933 l 14.420402460498519 -0.31034262811358904 a35.42374152810484,35.42374152810484 0 0,0 0.00787249283693092,0.609733246011798 l -14.423607960453166 0.0620731240413283" fill="#ffbc11" stroke="none" /><path d="M 120.99980553446 99.90962569577887 l 30.87115657864272 -0.13285643487117849 a51.871442456344056,51.871442456344056 0 0,0 -0.0038426925536534724,0.8929064190414931 l -30.868869588799562 -0.3985594623739993" fill="#81ff25" stroke="none" /><path d="M 120.9904718944345 100.63252640178507 l 41.17515043397408 1.240771044974273 a62.19384087514106,62.19384087514106 0 0,0 -0.04145624390683967,1.069801448556728 l -41.14769205721604 -1.949349740545007" fill="#32ff4a" stroke="none" /><path d="M 120.9764740272857 100.99374915477107 l 28.429094337219304 1.3468130264299798 a49.46097872812311,49.46097872812311 0 0,0 -0.04760889851284085,0.8500888647957909 l -28.401699087818933 -1.835973607561194" fill="#9bff22" stroke="none" /><path d="M 120.92983693683757 101.71520430193887 l 39.71212004787448 3.254416140497606 a60.845246932505326,60.845246932505326 0 0,0 -0.09452860694257284,1.0431153006695197 l -39.65021684465483 -3.937512829715696" fill="#30ff3a" stroke="none" /><path d="M 120.89721153311464 102.0752229133903 l 13.263876643002728 1.317185342471341 a34.32911853151643,34.32911853151643 0 0,0 -0.06345606537576463,0.5875243555561892 l -13.239238276125912 -1.5453060199123216" fill="#ffae10" stroke="none" /><path d="M 120.8583938346157 102.4346265915055 l 32.317237625352 3.7721219912968404 a53.53663707346984,53.53663707346984 0 0,0 -0.11471751753835145,0.914411486352994 l -32.2475185985668 -4.327851231937229" fill="#70ff27" stroke="none" /><path d="M 120.81339534386255 102.79330883721812 l 0.6092053296941674 0.08175978032420785 a21.614667223305783,21.614667223305783 0 0,0 -0.052663569544800136,0.3683288827379337 l -0.607707709132766 -0.09223413504255087" fill="#ff0000" stroke="none" /><path d="M 120.76222939487914 103.15116336523771 l 51.19257907327142 7.769694510143244 a72.77884032067632,72.77884032067632 0 0,0 -0.19864549746671864,1.2369657023471918 l -51.05125182144341 -8.649739442183641" fill="#3fffbf" stroke="none" /><path d="M 120.70491114924044 103.5080841355445 l 27.087600701760024 4.589518960350352 a48.47365640145857,48.47365640145857 0 0,0 -0.1464679024523955,0.8214697807942763 l -27.00458635696844 -5.0551074918778465" fill="#a6ff21" stroke="none" /><path d="M 120.64145759157962 103.86396538481128 l 3.955459149547611 0.7404398244202395 a25.024165530557532,25.024165530557532 0 0,0 -0.08290156538995062,0.4227132958830848 l -3.942127651181996 -0.8084168473712692" fill="#ff3104" stroke="none" /><path d="M 120.5718875245553 104.21870165774334 l 30.74241207586973 6.30438333053758 a52.382178850757654,52.382178850757654 0 0,0 -0.18874037697384405,0.8817322063149262 l -30.62933766017144 -6.832629356268676" fill="#7cff26" stroke="none" /><path d="M 120.49622156327973 104.57218783832717 l 3.904925890596922 0.8710900500091581 a25.000905408314363,25.000905408314363 0 0,0 -0.09731237425235224,0.4192191613776791 l -3.889352950414017 -0.9381778687354021" fill="#ff3004" stroke="none" /><path d="M 120.41448212921028 104.9243191809786 l 22.655972318729635 5.465004615189637 a44.30577947958591,44.30577947958591 0 0,0 -0.18521648331646234,0.7398477817756623 l -22.55854452111811 -5.854180236362696" fill="#d5ff1c" stroke="none" /><path d="M 120.32669344350535 105.2749913415812 l 7.86248080446277 2.0403966971884064 a29.122919615658084,29.122919615658084 0 0,0 -0.13009891008041308,0.48414644239171023 l -7.826193818040579 -2.1754340727556647" fill="#ff6909" stroke="none" /><path d="M 120.23288151984713 105.62410040840565 l 31.91425220688879 8.871151580394397 a54.12426337727739,54.12426337727739 0 0,0 -0.2572380956270627,0.8954795573455312 l -31.756821474375627 -9.41918861324451" fill="#6aff28" stroke="none" /><path d="M 120.13307415673323 105.97154293290107 l 17.685076411894595 5.245457908868121 a39.446591998747564,39.446591998747564 0 0,0 -0.19868539758768056,0.6493153751767081 l -17.59216424180078 -5.549100256596887" fill="#ffef16" stroke="none" /><path d="M 120.02730092923936 106.31721596034902 l 3.160138541548511 0.9968031988992805 a24.313622220337766,24.313622220337766 0 0,0 -0.12933428608929956,0.3980500030893545 l -3.142512004442964 -1.0510521019664303" fill="#ff2703" stroke="none" /><path d="M 119.9155931802556 106.66101706037122 l 30.633801910956464 10.245854858855614 a53.301816687431916,53.301816687431916 0 0,0 -0.29851344618214776,0.8676198056521178 l -30.452897633831085 -10.771647367597032" fill="#72ff27" stroke="none" /><path d="M 119.79798401119884 107.00284435728193 l 9.744767620199625 3.44687069671021 a31.33641202601418,31.33641202601418 0 0,0 -0.1842517443979429,0.5069816676077088 l -9.683991614796454 -3.61410016132405" fill="#ff870c" stroke="none" /><path d="M 119.67450827220406 107.3425965602758 l 34.14363506798404 12.742526213968052 a57.443926654098796,57.443926654098796 0 0,0 -0.35370611042790495,0.9234150412851985 l -33.91923467796263 -13.328364822086394" fill="#48ff2c" stroke="none" /><path d="M 119.41010516605496 108.01547362559984 l 45.341406022383055 18.723898763599095 a70.0553512371087,70.0553512371087 0 0,0 -0.46986797542737746,1.1106290971541872 l -45.01238706576336 -19.501602386419446" fill="#3cffa2" stroke="none" /><path d="M 119.26925614724726 108.34839909993367 l 24.046555000241135 10.41816230924913 a47.206390695429256,47.206390695429256 0 0,0 -0.3294532101939926,0.7428300158800337 l -23.86366070531587 -10.830540661621852" fill="#b4ff20" stroke="none" /><path d="M 119.12269723197855 108.67885076344098 l 0.9302326947492618 0.42218681993780016 a22.021554980071883,22.021554980071883 0 0,0 -0.15963045926781727,0.3438298078705477 l -0.9228276186416132 -0.43813669508717845" fill="#ff0601" stroke="none" /><path d="M 118.97047184881838 109.00673069616215 l 30.04264607132367 14.263536759702705 a54.25671456807196,54.25671456807196 0 0,0 -0.4078212238740547,0.8402325138369873 l -29.792671590834903 -14.778558229504968" fill="#68ff28" stroke="none" /><path d="M 118.81262510543309 109.33194174019688 l 4.691786554595086 2.327345521400716 a26.237308301968024,26.237308301968024 0 0,0 -0.20417789637787528,0.4028623599155963 l -4.651029988430941 -2.4077620930190067" fill="#ff4206" stroke="none" /><path d="M 118.64920377521936 109.65438752849418 l 26.462938048611967 13.699429860019773 a50.798682330839334,50.798682330839334 0 0,0 -0.4086814269178928,0.7730712441116925 l -26.22320411346918 -14.1529161192176" fill="#8dff24" stroke="none" /><line stroke="#e1ed5e" stroke-width="0.3" x1="174.80103733775053" x2="179.2010983576182" y1="140.37084112569926" y2="142.7455964860345" /><path d="M 175.68104954172406 140.8457921977663 a86.0,86.0 0 0,1 -30.038265399797805,32.042727171017184" fill="none" id="id329" stroke="none" /><text fill="#e1ed5e" style="font-size:6.75px; font-family:Arial;" text-anchor="middle"><textPath startOffset="22.206326154141568" xlink:href="#id329">May</textPath></text><path d="M 118.48025628344425 109.97397251340804 l 0.976445528051993 0.5269970669376278 a22.109581803119355,22.109581803119355 0 0,0 -0.1836396496964593,0.3333593059410954 l -0.9672294689040242 -0.5437268912765283" fill="#ff0701" stroke="none" /><path d="M 118.30583269289576 110.29060199501025 l 47.53001433508033 26.718940817658677 a75.5252607615084,75.5252607615084 0 0,0 -0.6468127327632525,1.1277725195802262 l -47.0630496061647 -27.533133183097217" fill="#43ffdb" stroke="none" /><path d="M 118.12598468904814 110.60418214915192 l 27.059861272550165 15.830737076495495 a52.35041193469058,52.35041193469058 0 0,0 -0.46172845025621256,0.7738834412002499 l -26.783351946595726 -16.29418261158185" fill="#7cff26" stroke="none" /><path d="M 117.75023020441432 111.22182372390056 l 26.23515541375807 16.58605471770794 a52.03837287428001,52.03837287428001 0 0,0 -0.4851838250740787,0.7530160710346224 l -25.94576672530694 -17.035192388664015" fill="#80ff26" stroke="none" /><path d="M 117.55443506779139 111.5257021239791 l 12.915823232619871 8.48013226801464 a36.450926608436994,36.450926608436994 0 0,0 -0.3488820501522644,0.5215313280394591 l -12.767938077056886 -8.701200510259905" fill="#ffc912" stroke="none" /><path d="M 117.35343817320211 111.8261652097733 l 25.348860966959442 17.27495235715124 a51.67553962465999,51.67553962465999 0 0,0 -0.5072547076254521,0.7307382391782709 l -25.047745352171855 -17.70873185851653" fill="#83ff25" stroke="none" /><path d="M 117.14729908036423 112.12312394758627 l 2.4616448292635544 1.740380525249636 a24.014733759075284,24.014733759075284 0 0,0 -0.24154271669697627,0.3354817075690914 l -2.4313223201909753 -1.7824958382698586" fill="#ff2303" stroke="none" /><path d="M 116.93607887273984 112.41649034213515 l 50.80823661821952 37.24947102640542 a84.0,84.0 0 0,0 -0.8649549332196318,1.15874848196274 l -50.159520418304794 -38.11853238787748" fill="#4dd2ff" stroke="none" /><path d="M 116.71984013943494 112.70617746262583 l 20.8065764943491 15.811876855410747 a47.13291172268935,47.13291172268935 0 0,0 -0.4964513694153081,0.6417303172873489 l -20.531318307715722 -16.167685166811346" fill="#b5ff1f" stroke="none" /><path d="M 116.498646956653 112.99209946851258 l 3.1936135414714344 2.5148574245995503 a25.06493238791658,25.06493238791658 0 0,0 -0.26984439278400457,0.33667237047020526 l -3.1498512366325757 -2.569457628648006" fill="#ff3104" stroke="none" /><path d="M 116.27256486870786 113.27417163493432 l 27.42724509625037 22.373483333358987 a56.39528965890634,56.39528965890634 0 0,0 -0.6200903794954172,0.7469388081158567 l -27.03805871686141 -22.842283398588613" fill="#52ff2b" stroke="none" /><path d="M 116.0416608686014 113.55231037782055 l 5.407417110009057 4.568292249627228 a28.078803138922773,28.078803138922773 0 0,0 -0.31509429914165143,0.36652585564351925 l -5.327980301296626 -4.660695204432275" fill="#ff5b08" stroke="none" /><path d="M 115.80600337817218 113.82643327865902 l 26.99737467568921 23.616178658285335 a56.868957801971284,56.868957801971284 0 0,0 -0.6508547970202803,0.7312422641166154 l -26.58686102902059 -24.077395092142815" fill="#4eff2c" stroke="none" /><path d="M 115.32070863581623 114.36230785411682 l 35.260186035781985 33.05445321605071 a69.33091760653878,69.33091760653878 0 0,0 -0.8236957014150584,0.8636416498416716 l -34.68598378298796 -33.656501982474886" fill="#3bff9b" stroke="none" /><path d="M 114.55890576462653 115.13401014063108 l 20.03617160809181 20.827638367783912 a49.90049640902538,49.90049640902538 0 0,0 -0.624146297750531,0.5901692817707824 l -19.67468947595047 -21.169442286300615" fill="#96ff23" stroke="none" /><path d="M 114.29624159901734 115.38237550388516 l 10.036427696113682 10.798929108040909 a35.742684653068146,35.742684653068146 0 0,0 -0.4542732684365569,0.4149678600015593 l -9.849054878210262 -10.970089734629052" fill="#ffc011" stroke="none" /><path d="M 114.0293411484842 115.62618273729858 l 21.96327075497273 24.463164641416583 a53.87600472273501,53.87600472273501 0 0,0 -0.6954049083303867,0.61361397825929 l -21.538923493735755 -24.837601761448163" fill="#6cff28" stroke="none" /><path d="M 113.48314897796784 116.09983520530334 l 26.442103280697495 31.573744827449307 a62.18356696955662,62.18356696955662 0 0,0 -0.8265376692783301,0.680184231418033 l -25.89469548287447 -32.02422417772452" fill="#32ff4a" stroke="none" /><path d="M 113.20401910651253 116.32954008644616 l 24.279397122644433 30.0265688341377 a59.61455633035661,59.61455633035661 0 0,0 -0.8034977854422307,0.6383472357299158 l -23.75894184448485 -30.44004998387274" fill="#33ff2f" stroke="none" /><path d="M 112.92097659922987 116.55440617244103 l 2.480937751847618 3.1785872311753964 a25.032179176913395,25.032179176913395 0 0,0 -0.3419530032885636,0.26219498129757324 l -2.425856020065561 -3.2208215543003407" fill="#ff3104" stroke="none" /><path d="M 112.63410532772338 116.77436683061366 l 19.707790091853784 26.166134589370184 a53.75764933040228,53.75764933040228 0 0,0 -0.7439419452563479,0.5503504659606051 l -19.25446317617887 -26.50149500407056" fill="#6dff28" stroke="none" /><path d="M 112.34349029814194 116.9893568818739 l 6.236441364063415 8.583725141575465 a31.610067775161284,31.610067775161284 0 0,0 -0.4429513862416464,0.3160340529946783 l -6.087762649972884 -8.689803456414364" fill="#ff8b0c" stroke="none" /><line stroke="#e1ed5e" stroke-width="0.3" x1="143.8653032363475" x2="146.44561519142675" y1="172.8068346515853" y2="177.08958963109032" /><path d="M 144.38136562736335 173.6633856474863 a86.0,86.0 0 0,1 -40.68145358897372,12.25698825130547" fill="none" id="id330" stroke="none" /><text fill="#e1ed5e" style="font-size:6.75px; font-family:Arial;" text-anchor="middle"><textPath startOffset="21.466115282336833" xlink:href="#id330">June</textPath></text><line stroke="#e1ed5e" stroke-width="0.3" x1="102.19456741930631" x2="102.32365962044197" y1="184.97166512339345" y2="189.96999836594603" /><path d="M 102.22038585953345 185.97133177190398 a86.0,86.0 0 0,1 -42.740103519485714,-10.115201625700543" fill="none" id="id331" stroke="none" /><text fill="#e1ed5e" style="font-size:6.75px; font-family:Arial;" text-anchor="middle"><textPath startOffset="22.20632615414155" xlink:href="#id331">July</textPath></text><line stroke="#e1ed5e" stroke-width="0.3" x1="58.666819895761336" x2="56.23545636021788" y1="174.27360380694188" y2="178.64263932499728" /><path d="M 58.180547188652646 175.14741091055294 a86.0,86.0 0 0,1 -31.652253787137756,-30.449443065178592" fill="none" id="id332" stroke="none" /><text fill="#e1ed5e" style="font-size:6.75px; font-family:Arial;" text-anchor="middle"><textPath startOffset="22.20632615414155" xlink:href="#id332">August</textPath></text><line stroke="#e1ed5e" stroke-width="0.3" x1="26.63291911575756" x2="22.317208475507996" y1="142.92168965132927" y2="145.44649492493687" /><path d="M 25.769776987707644 143.4266507060508 a86.0,86.0 0 0,1 -11.730757126820373,-40.83630448921669" fill="none" id="id333" stroke="none" /><text fill="#e1ed5e" style="font-size:6.75px; font-family:Arial;" text-anchor="middle"><textPath startOffset="21.46611528233685" xlink:href="#id333">September</textPath></text><line stroke="#e1ed5e" stroke-width="0.3" x1="15.007084014347285" x2="10.007500721073583" y1="101.09737516637583" y2="101.16192664675087" /><path d="M 14.007167355692545 101.11028546245083 a86.0,86.0 0 0,1 10.666146001902534,-42.60595125391555" fill="none" id="id334" stroke="none" /><text fill="#e1ed5e" style="font-size:6.75px; font-family:Arial;" text-anchor="middle"><textPath startOffset="22.20632615414155" xlink:href="#id334">October</textPath></text><line stroke="#e1ed5e" stroke-width="0.3" x1="26.266209847984243" x2="21.928928074336255" y1="57.711370442889674" y2="55.22380399835377" /><path d="M 25.398753493254645 57.213857153982495 a86.0,86.0 0 0,1 29.58750427330803,-30.492523968695096" fill="none" id="id335" stroke="none" /><text fill="#e1ed5e" style="font-size:6.75px; font-family:Arial;" text-anchor="middle"><textPath startOffset="21.46611528233685" xlink:href="#id335">November</textPath></text><line stroke="#e1ed5e" stroke-width="0.3" x1="56.762969772571076" x2="54.21961505331055" y1="26.818313649435495" y2="22.513508569990535" /><path d="M 56.25429882871897 25.957352633546506 a86.0,86.0 0 0,1 42.265352541879196,-11.944610805530505" fill="none" id="id336" stroke="none" /><text fill="#e1ed5e" style="font-size:6.75px; font-family:Arial;" text-anchor="middle"><textPath startOffset="22.20632615414155" xlink:href="#id336">December</textPath></text></svg>