<?xml version="1.0" encoding="utf-8" ?>
<svg baseProfile="full" height="200mm" version="1.1" viewBox="0,0,200,200" width="200mm" xmlns="http://www.w3.org/2000/svg" xmlns:ev="http://www.w3.org/2001/xml-events" xmlns:xlink="http://www.w3.org/1999/xlink"><defs /><rect fill="#1a1a1a" height="200" width="200" x="0" y="0" /><text alignment-baseline="middle" fill="#e1ed5e" style="dominant-baseline: central; font-size:9.0px; font-family:Arial;" text-anchor="middle" x="100.0" y="100.0">2024</text><line stroke="#e1ed5e" stroke-width="0.3" x1="100.0" x2="100.0" y1="15.0" y2="10.0" /><path d="M 100.0 14.0 a86.0,86.0 0 0,1 42.35913384403234,11.155469271406648" fill="none" id="id301" stroke="none" /><text fill="#e1ed5e" style="font-size:6.75px; font-family:Arial;" text-anchor="middle"><textPath startOffset="22.145653131862478" xlink:href="#id301">January</textPath></text><path d="M 100.0 79.0 l 0.0 -25.257534246575347 a46.25753424657535,46.25753424657535 0 0,0 0.7940720865163816,0.006816153831029229 l -0.4335791616675268 25.253812490938753" fill="#e4ff1a" stroke="none" /><path d="M 100.36049292484886 79.00309439819443 l 0.09403052054426927 -5.476806415505807 a26.47761355443403,26.47761355443403 0 0,0 0.4543894952475285,0.011703461567073031 l -0.18803332986253912 5.47438523658869" fill="#ff0000" stroke="none" /><path d="M 100.72087961077811 79.0123766808444 l 1.4519028171368702 -42.270566356008054 a63.29549387166546,63.29549387166546 0 0,0 1.0855907791724542,0.04661993906729636 l -2.1773193569101608 42.23941384851493" fill="#31ff42" stroke="none" /><path d="M 101.08105385017728 79.02784411241856 l 1.251486757102606 -24.278508750415714 a45.31074260994953,45.31074260994953 0 0,0 0.7764441255839348,0.046708950514279625 l -1.668075234819003 24.253447822076744" fill="#f0ff19" stroke="none" /><path d="M 101.44090949804482 79.04949213459386 l 2.5997664159027747 -37.80003311692779 a58.88932948810382,58.88932948810382 0 0,0 1.0079357569010305,0.07802060221538488 l -3.248271167579039 37.74983474771735" fill="#4fff2b" stroke="none" /><path d="M 101.80034050326958 79.07731436759882 l 4.661501685682723 -54.173715565095854 a75.37390050468636,75.37390050468636 0 0,0 1.2881774190717394,0.12199174089910655 l -5.5907786681394755 54.085712068691564" fill="#41ffd2" stroke="none" /><path d="M 102.51750503828377 79.15144685158666 l 3.2422330868558022 -26.850341033255194 a48.045385724585444,48.045385724585444 0 0,0 0.817966235826231,0.10590210548225197 l -3.7026771445728253 26.790727331572544" fill="#cdff1d" stroke="none" /><path d="M 102.87502721639298 79.19773525538626 l 7.907603095585459 -57.215476831580474 a78.75933669790915,78.75933669790915 0 0,0 1.3376894332921792,0.19659428082839714 l -8.88861763448532 57.0713014774532" fill="#46fff7" stroke="none" /><path d="M 103.23170211078529 79.25015418208739 l 6.4339297935234185 -41.310444664234325 a62.80847152126892,62.80847152126892 0 0,0 1.0639231580459947,0.17506815078622504 l -7.1421304546224835 41.19391051495243" fill="#31ff3c" stroke="none" /><path d="M 103.58742460773223 79.30868818359171 l 4.146876621180302 -23.91808236138962 a45.2749098774333,45.2749098774333 0 0,0 0.7646399035777102,0.13934286192720718 l -4.556851258309066 23.843371325531045" fill="#f1ff19" stroke="none" /><path d="M 103.94208987418118 79.37332000966035 l 7.108409430296196 -37.1942018672235 a58.867375630857964,58.867375630857964 0 0,0 0.9909440082417901,0.19821655465390806 l -7.745849924068943 37.06669591590673" fill="#4fff2b" stroke="none" /><path d="M 104.29559338865022 79.4440306129975 l 11.10221455400876 -53.12811568784198 a75.27573900504686,75.27573900504686 0 0,0 1.2626163997307853,0.2751813676821047 l -12.012593370358681 52.929702862026154" fill="#41ffd1" stroke="none" /><path d="M 104.64783097203109 79.52079915486377 l 4.470116502516508 -19.6961581019348 a41.19704397981255,41.19704397981255 0 0,0 0.6883199092133365,0.16244162437640225 l -4.80756856546973 19.61652033391217" fill="#ffd814" stroke="none" /><path d="M 104.9986988182912 79.60360301121754 l 7.293823570116561 -29.76128918947193 a51.64203316510454,51.64203316510454 0 0,0 0.8592120492841028,0.21840834300543704 l -7.803640912626058 29.631695614631226" fill="#a1ff22" stroke="none" /><path d="M 105.3480935250658 79.69241777938227 l 9.2596179242085 -35.16027747945117 a57.3591204037491,57.3591204037491 0 0,0 0.950027090592871,0.25893410812390827 l -9.861826415736065 34.99614287718312" fill="#60ff29" stroke="none" /><path d="M 105.69591212413111 79.78721728523813 l 8.368651471010706 -29.697391763205164 a51.85400144196107,51.85400144196107 0 0,0 0.8547020674802223,0.24879131528209564 l -8.877213550872533 29.549356753620554" fill="#9fff22" stroke="none" /><path d="M 106.38641147887787 79.99465700312896 l 13.050166037359991 -40.8794592404459 a63.911968276856534,63.911968276856534 0 0,0 1.0423045679524838,0.3426262142853208 l -13.749993342960218 40.649412104758554" fill="#32ff4a" stroke="none" /><path d="M 106.72888874123014 80.10723608172694 l 17.394039939809048 -51.42238836369547 a75.28457101658256,75.28457101658256 0 0,0 1.2206648516768224,0.4246105997431097 l -18.27421056353089 51.11621933138377" fill="#41ffd1" stroke="none" /><path d="M 107.06938296918511 80.22567764915836 l 8.502967528040775 -23.784313506727294 a46.25854361932228,46.25854361932228 0 0,0 0.7454472852123586,0.27373856865077073 l -8.91000396490726 23.6348440890678" fill="#e4ff1a" stroke="none" /><path d="M 107.40779381753099 80.34994680014964 l 17.92273076165098 -47.54217269378841 a71.80829127613553,71.80829127613553 0 0,0 1.1497113957133778,0.44473306647573907 l -18.736214419857884 47.227499739174625" fill="#3dffaa" stroke="none" /><path d="M 107.74402155503746 80.48000691201159 l 23.232064665112393 -58.55997926396521 a84.0,84.0 0 0,0 1.3357821552382412,0.5432509736828255 l -24.233901281541076 58.152541033703095" fill="#4dd2ff" stroke="none" /><line stroke="#e1ed5e" stroke-width="0.3" x1="143.13028292997686" x2="145.6673583964461" y1="26.7553504044142" y2="22.446841604673864" /><path d="M 143.63769802327073 25.89364864446614 a86.0,86.0 0 0,1 29.32050498858742,28.57503671076993" fill="none" id="id302" stroke="none" /><text fill="#e1ed5e" style="font-size:6.75px; font-family:Arial;" text-anchor="middle"><textPath startOffset="20.669276256404974" xlink:href="#id302">February</textPath></text><line stroke="#e1ed5e" stroke-width="0.3" x1="172.87174338648825" x2="177.1583165268699" y1="56.24261187166439" y2="53.66864786411523" /><path d="M 173.72905801456457 55.72781907015455 a86.0,86.0 0 0,1 12.242430191666344,42.057860355516425" fill="none" id="id303" stroke="none" /><text fill="#e1ed5e" style="font-size:6.75px; font-family:Arial;" text-anchor="middle"><textPath startOffset="22.145653131862474" xlink:href="#id303">March</textPath></text><line stroke="#e1ed5e" stroke-width="0.3" x1="184.99686870605535" x2="189.99668451229388" y1="99.2704041080226" y2="99.22748670261217" /><path d="M 185.99683186730306 99.26182062694052 a86.0,86.0 0 0,1 -10.086455211305974,41.156179273409016" fill="none" id="id304" stroke="none" /><text fill="#e1ed5e" style="font-size:6.75px; font-family:Arial;" text-anchor="middle"><textPath startOffset="21.40746469413373" xlink:href="#id304">April</textPath></text><line stroke="#e1ed5e" stroke-width="0.3" x1="174.33088141563837" x2="178.70328620479359" y1="141.23008692659167" y2="143.65538615756765" /><path d="M 175.20536237346943 141.71514677278685 a86.0,86.0 0 0,1 -30.301960400862466,31.631185727798858" fill="none" id="id305" stroke="none" /><text fill="#e1ed5e" style="font-size:6.75px; font-family:Arial;" text-anchor="middle"><textPath startOffset="22.145653131862474" xlink:href="#id305">May</textPath></text><line stroke="#e1ed5e" stroke-width="0.3" x1="143.1302829299769" x2="145.66735839644613" y1="173.24464959558577" y2="177.55315839532614" /><path d="M 143.63769802327073 174.10635135553383 a86.0,86.0 0 0,1 -40.68552437913181,11.842963189579606" fill="none" id="id306" stroke="none" /><text fill="#e1ed5e" style="font-size:6.75px; font-family:Arial;" text-anchor="middle"><textPath startOffset="21.407464694133747" xlink:href="#id306">June</textPath></text><line stroke="#e1ed5e" stroke-width="0.3" x1="101.45913802915013" x2="101.54496967792366" y1="184.9874750549273" y2="189.98673829345242" /><path d="M 101.47630435890484 185.9873277026323 a86.0,86.0 0 0,1 -42.54439059252881,-10.42667462771756" fill="none" id="id307" stroke="none" /><text fill="#e1ed5e" style="font-size:6.75px; font-family:Arial;" text-anchor="middle"><textPath startOffset="22.145653131862474" xlink:href="#id307">July</textPath></text><line stroke="#e1ed5e" stroke-width="0.3" x1="58.13341422392154" x2="55.67067388415222" y1="173.97424548756322" y2="178.32567169271397" /><path d="M 57.64086615596768 174.84453072859336 a86.0,86.0 0 0,1 -31.369924170532247,-30.572349798747897" fill="none" id="id308" stroke="none" /><text fill="#e1ed5e" style="font-size:6.75px; font-family:Arial;" text-anchor="middle"><textPath startOffset="22.145653131862474" xlink:href="#id308">August</textPath></text><line stroke="#e1ed5e" stroke-width="0.3" x1="26.387840678322732" x2="22.057713659400548" y1="142.50000000000003" y2="145.00000000000006" /><path d="M 25.521815274538298 143.00000000000003 a86.0,86.0 0 0,1 -11.493303480769221,-40.785679425670985" fill="none" id="id309" stroke="none" /><text fill="#e1ed5e" style="font-size:6.75px; font-family:Arial;" text-anchor="middle"><textPath startOffset="21.40746469413373" xlink:href="#id309">September</textPath></text><line stroke="#e1ed5e" stroke-width="0.3" x1="15.003131293944662" x2="10.003315487706104" y1="100.72959589197737" y2="100.7725132973878" /><path d="M 14.003168132696942 100.73817937305945 a86.0,86.0 0 0,1 10.791469493833604,-42.45332614584628" fill="none" id="id310" stroke="none" /><text fill="#e1ed5e" style="font-size:6.75px; font-family:Arial;" text-anchor="middle"><textPath startOffset="22.145653131862435" xlink:href="#id310">October</textPath></text><line stroke="#e1ed5e" stroke-width="0.3" x1="26.387840678322718" x2="22.05771365940052" y1="57.49999999999999" y2="54.99999999999999" /><path d="M 25.521815274538284 56.99999999999999 a86.0,86.0 0 0,1 29.574782752854787,-30.34633250058573" fill="none" id="id311" stroke="none" /><text fill="#e1ed5e" style="font-size:6.75px; font-family:Arial;" text-anchor="middle"><textPath startOffset="21.40746469413373" xlink:href="#id311">November</textPath></text><line stroke="#e1ed5e" stroke-width="0.3" x1="56.869717070023135" x2="54.33264160355391" y1="26.7553504044142" y2="22.446841604673864" /><path d="M 56.362301976729285 25.89364864446614 a86.0,86.0 0 0,1 42.16139366436587,-11.88097634709845" fill="none" id="id312" stroke="none" /><text fill="#e1ed5e" style="font-size:6.75px; font-family:Arial;" text-anchor="middle"><textPath startOffset="22.145653131862474" xlink:href="#id312">December</textPath></text></svg>