<?xml version="1.0" encoding="utf-8" ?>
<svg baseProfile="full" height="200mm" version="1.1" viewBox="0,0,200,200" width="200mm" xmlns="http://www.w3.org/2000/svg" xmlns:ev="http://www.w3.org/2001/xml-events" xmlns:xlink="http://www.w3.org/1999/xlink"><defs /><rect fill="#1a1a1a" height="200" width="200" x="0" y="0" /><text alignment-baseline="middle" fill="#e1ed5e" style="dominant-baseline: central; font-size:9.0px; font-family:Arial;" text-anchor="middle" x="100.0" y="100.0">2025</text><line stroke="#e1ed5e" stroke-width="0.3" x1="100.0" x2="100.0" y1="15.0" y2="10.0" /><path d="M 100.0 14.0 a86.0,86.0 0 0,1 42.46469731375804,11.215312516191453" fill="none" id="id313" stroke="none" /><text fill="#e1ed5e" style="font-size:6.75px; font-family:Arial;" text-anchor="middle"><textPath startOffset="22.20632615414155" xlink:href="#id313">January</textPath></text><path d="M 100.0 79.0 l 0.0 -11.487212900626844 a32.487212900626844,32.487212900626844 0 0,0 0.559213966168917,0.004813331156965823 l -0.19773348689638867 11.485510946078437" fill="#ff940d" stroke="none" /><path d="M 100.36148047927253 79.00311137660856 l 0.15882684937561034 -9.225587156062234 a30.226954228898236,30.226954228898236 0 0,0 0.5201531503575084,0.013434021272461355 l -0.3176066349279865 9.221486342647413" fill="#ff760a" stroke="none" /><path d="M 100.72285384407766 79.0124445844662 l 0.14034624959396208 -4.074855124377207 a25.077271312340923,25.077271312340923 0 0,0 0.43128030633866393,0.01857183721316625 l -0.21046738832195758 4.071835560639846" fill="#ff2f04" stroke="none" /><path d="M 101.08401301168833 79.027996857942 l 0.5797207130618546 -11.215644540016745 a32.23061701569243,32.23061701569243 0 0,0 0.5538109432656,0.033407388489864985 l -0.7726937051670665 11.204003882146576" fill="#ff910d" stroke="none" /><path d="M 101.44485096284872 79.0497635885617 l 0.358046339116625 -5.191646504462834 a26.203978344330036,26.203978344330036 0 0,0 0.4497224225253953,0.03490711541913268 l -0.44735895100436146 5.184714126855237" fill="#ff3f05" stroke="none" /><path d="M 101.80526077348638 79.07773832637324 l 0.319786249420788 -3.7061967380414558 a24.71996740662976,24.71996740662976 0 0,0 0.4236235775616281,0.040228163129719725 l -0.3835349540726603 3.700143030396558" fill="#ff2a04" stroke="none" /><path d="M 102.16513564639614 79.11191278185805 l 1.4130068221440433 -13.631944857543724 a34.704981170309516,34.704981170309516 0 0,0 0.593675466211581,0.06670635594096645 l -1.6474489918653494 13.605602548132156" fill="#ffb110" stroke="none" /><path d="M 102.52436894288641 79.15227682838746 l 1.0124501065745488 -8.361408345802808 a29.422482101112692,29.422482101112692 0 0,0 0.5022631659043058,0.06520817398375996 l -1.1562280009867008 8.342741848654912" fill="#ff6b09" stroke="none" /><path d="M 102.88285421437855 79.19881850522331 l 0.5184534506830394 -3.740891325847322 a24.776646911259363,24.776646911259363 0 0,0 0.42194749983013724,0.06218409315330762 l -0.5827699309418324 3.7314127485330455" fill="#ff2b04" stroke="none" /><path d="M 103.2404852339499 79.25152402106235 l 0.9678852350995337 -6.197264329562302 a27.272390851883273,27.272390851883273 0 0,0 0.4632031093158136,0.07643248191450114 l -1.0744175505542226 6.179685584708176" fill="#ff4e07" stroke="none" /><path d="M 103.59715602781102 79.31037775812273 l 0.6590925507062804 -3.790876956996052 a24.84774623558781,24.84774623558781 0 0,0 0.42076094242724066,0.07689137279231774 l -0.7242486142364218 3.778970102852996" fill="#ff2c04" stroke="none" /><path d="M 104.307194497241 79.44645832069477 l 0.757824052545633 -3.616267679473014 a24.69481924107497,24.69481924107497 0 0,0 0.415293099557099,0.09076698630349361 l -0.8199598762562599 3.6026871950736497" fill="#ff2a04" stroke="none" /><path d="M 104.66035177308747 79.52364482259891 l 1.8732772595228715 -8.230685660521896 a29.441170187442395,29.441170187442395 0 0,0 0.49317649047844553,0.11671894140290323 l -2.0146774369638405 8.197220806978125" fill="#ff6c09" stroke="none" /><path d="M 105.01212808612495 79.60689891045804 l 2.0873552368149557 -8.492928676741519 a29.745678326629516,29.745678326629516 0 0,0 0.49617365323108653,0.12648571197584096 l -2.233237778731067 8.45573996859681" fill="#ff700a" stroke="none" /><path d="M 105.36241919743992 79.69619591428918 l 5.525756030773692 -20.922248661168943 a42.639650384223344,42.639650384223344 0 0,0 0.7080255281781757,0.1935301226703707 l -5.8850794481755795 20.82403199767228" fill="#eaff1a" stroke="none" /><path d="M 105.71112130821622 79.79150937346287 l 3.3140970769706963 -11.726751385764976 a33.18605504251177,33.18605504251177 0 0,0 0.5483755111866844,0.16008584916201565 l -3.5154628058808077 11.667967207684256" fill="#ff9e0e" stroke="none" /><path d="M 106.0581310904928 79.89281104454417 l 1.4451924506724374 -4.796653827493395 a26.009637627642107,26.009637627642107 0 0,0 0.4275670171217023,0.13284715350930523 l -1.527544840504858 4.771066539101569" fill="#ff3c05" stroke="none" /><path d="M 106.40334571778207 80.00007090966166 l 3.6171436376756736 -11.29762774828583 a32.8625511941747,32.8625511941747 0 0,0 0.5372513490427682,0.1771233229051821 l -3.8110778089608592 11.233690701121413" fill="#ff990e" stroke="none" /><path d="M 106.74666289553966 80.11325718540242 l 1.1948655955360954 -3.522035288312212 a24.719198349579155,24.719198349579155 0 0,0 0.4017670115162281,0.14016862141594585 l -1.2553146111155973 3.5009458137240586" fill="#ff2a04" stroke="none" /><path d="M 107.08798089147638 80.2323363322302 l 3.049181137412403 -8.503858589539906 a30.033997814901397,30.033997814901397 0 0,0 0.48514585173916064,0.17868331150979833 l -3.1951093149241405 8.450112010223782" fill="#ff740a" stroke="none" /><path d="M 107.4271985657038 80.35727306442388 l 4.815749727554974 -12.73622295830913 a34.61627043952221,34.61627043952221 0 0,0 0.5555364715734934,0.21553952019359604 l -5.034269364128134 12.651440734224987" fill="#ffb010" stroke="none" /><path d="M 107.76421540070413 80.48803036053334 l 2.172451514740987 -5.459509533312955 a26.875865036591247,26.875865036591247 0 0,0 0.4283707403101225,0.17474318072123304 l -2.266106124639497 5.421305466408143" fill="#ff4806" stroke="none" /><path d="M 108.09893153111575 80.62456947434976 l 1.9356672267538166 -4.630781940637033 a26.019058576512023,26.019058576512023 0 0,0 0.41174075104667357,0.1762859017252346 l -2.0150917355908056 4.596776510949008" fill="#ff3c05" stroke="none" /><path d="M 108.43124777332544 80.76684994638697 l 2.1897767613575922 -4.995263591748761 a26.4541526028919,26.4541526028919 0 0,0 0.4154786937734437,0.1864131789829137 l -2.275437573597816 4.956830082249316" fill="#ff4206" stroke="none" /><path d="M 108.76106565485865 80.91482961587045 l 4.0627244849916835 -8.85026914241202 a30.73822335614055,30.73822335614055 0 0,0 0.47896268705089456,0.22487940375886292 l -4.2144653833421755 8.779024756013156" fill="#ff7d0b" stroke="none" /><path d="M 109.08828744355905 81.06846463323043 l 1.6652106570902052 -3.468749711494527 a24.84774623558781,24.84774623558781 0 0,0 0.38399083826102975,0.1884226366807863 l -1.7246727623616669 3.439571914678909" fill="#ff2c04" stroke="none" /><path d="M 109.41281617654863 81.2277094730956 l 2.096636334520756 -4.181391165265389 a25.677597246043323,25.677597246043323 0 0,0 0.3934046484682996,0.20151714086490907 l -2.1683014705778114 4.144681499087979" fill="#ff3805" stroke="none" /><path d="M 110.05341064243156 81.56283822128135 l 4.71989395862883 -8.655913061618381 a30.859119124495688,30.859119124495688 0 0,0 0.4641739220897456,0.2583122850925011 l -4.868191969790611 8.5733853789657" fill="#ff7f0b" stroke="none" /><path d="M 110.36928655335952 81.73862282372117 l 4.031621294898455 -7.100098615194063 a29.164886442012488,29.164886442012488 0 0,0 0.4344224655399596,0.25164553207066537 l -4.153240492903743 7.029648925733348" fill="#ff6809" stroke="none" /><line stroke="#e1ed5e" stroke-width="0.3" x1="143.23703022742887" x2="145.7803849466894" y1="26.81831364943548" y2="22.513508569990506" /><path d="M 143.74570117128098 25.957352633546492 a86.0,86.0 0 0,1 28.547481713284135,27.462654790039103" fill="none" id="id314" stroke="none" /><text fill="#e1ed5e" style="font-size:6.75px; font-family:Arial;" text-anchor="middle"><textPath startOffset="19.985693538727396" xlink:href="#id314">February</textPath></text><path d="M 110.68208982089419 81.91981866633111 l 6.725341048988936 -11.383108336970356 a34.22139809688898,34.22139809688898 0 0,0 0.5045829998983037,0.30400561162100737 l -6.920286115104878 11.265656115890733" fill="#ffab0f" stroke="none" /><path d="M 110.99172775467656 82.1063720568725 l 1.4724180020670654 -2.3969752975860974 a23.813095332556138,23.813095332556138 0 0,0 0.3474226825061263,0.21755605191271812 l -1.513459836945455 2.371274904350435" fill="#ff1d02" stroke="none" /><path d="M 111.2981086023043 82.29822771554956 l 5.193763356951547 -8.137540492868682 a30.653742439131577,30.653742439131577 0 0,0 0.44233784486536554,0.2877088387280746 l -5.333068227601193 8.04693272998108" fill="#ff7c0b" stroke="none" /><path d="M 111.60114157652 82.49532879139004 l 2.8208836710343004 -4.25636053602961 a26.10626964605065,26.10626964605065 0 0,0 0.372443611072084,0.25147558874832665 l -2.8937319765129264 4.207173034982612" fill="#ff3e05" stroke="none" /><path d="M 111.90073688211348 82.69761687909136 l 2.146813409819221 -3.1212342961404733 a24.7882596727235,24.7882596727235 0 0,0 0.34947770442894227,0.24483146560125424 l -2.2002222538318144 3.083817987775283" fill="#ff2b04" stroke="none" /><path d="M 112.19680574252982 82.90503203632743 l 8.019755063318756 -11.240439405038746 a34.808111720795665,34.808111720795665 0 0,0 0.4847521572203465,0.35219305776292054 l -8.212052536892891 11.10072711245915" fill="#ffb310" stroke="none" /><path d="M 112.48926042617603 83.11751280151076 l 5.798304781132714 -7.837918571643077 a30.74952849478445,30.74952849478445 0 0,0 0.42281164871358146,0.3184529680063262 l -5.932362583604678 7.736949014130904" fill="#ff7d0b" stroke="none" /><path d="M 112.77801427241765 83.33499621200491 l 7.610162801101077 -9.925125234941012 a33.50690564402424,33.50690564402424 0 0,0 0.4546846326615072,0.35488856788044365 l -7.779879988922015 9.792658277837344" fill="#ffa20e" stroke="none" /><path d="M 113.06298171725822 83.55741782278167 l 2.6808226504241706 -3.374393969633412 a25.30968035303381,25.30968035303381 0 0,0 0.3387840538408035,0.2739398106875445 l -2.738510102829465 3.327748061681738" fill="#ff3204" stroke="none" /><path d="M 113.6212207817346 84.01681056812373 l 5.718199076062468 -6.709755352063787 a29.815816329644708,29.815816329644708 0 0,0 0.3877563970492878,0.33625852650615606 l -5.832849271758519 6.61033183213796" fill="#ff710a" stroke="none" /><path d="M 113.89432698308785 84.25364557470407 l 6.032388826062538 -6.836468769015947 a30.117402052039527,30.117402052039527 0 0,0 0.38577382067393406,0.34635154518386385 l -6.1491736343324614 6.7316182150627855" fill="#ff750a" stroke="none" /><path d="M 114.16331599549186 84.49514656593476 l 10.25757869559793 -11.22916796562745 a36.20894913847299,36.20894913847299 0 0,0 0.45656401275909625,0.42432649171594283 l -10.449350592151873 11.050936887836865" fill="#ffc512" stroke="none" /><path d="M 114.42810811169701 84.74124197986012 l 2.702413701567082 -2.8579961020040185 a24.933342285320165,24.933342285320165 0 0,0 0.309312069432045,0.29755796572599585 l -2.7512090146115455 2.811055049515721" fill="#ff2d04" stroke="none" /><path d="M 114.68862486808459 84.99185889309783 l 4.364925296346451 -4.459873906303717 a27.24043653143063,27.24043653143063 0 0,0 0.33228688700794107,0.33085994151470405 l -4.441047983521714 4.3840781141388945" fill="#ff4d07" stroke="none" /><path d="M 114.94478906791727 85.2469230424477 l 7.561696391887497 -7.464694770343035 a31.625484475423747,31.625484475423747 0 0,0 0.37910783905555673,0.39070395266661573 l -7.689068494646163 7.333426622126305" fill="#ff890c" stroke="none" /><path d="M 115.19652480421416 85.50635884689758 l 1.3043242436190876 -1.2439954382902327 a22.80243900950335,22.80243900950335 0 0,0 0.268452764853557,0.2863666922180433 l -1.3255443304431076 1.2213593291941347" fill="#ff0f01" stroke="none" /><path d="M 115.4437574822437 85.77008943001954 l 10.110379126964657 -9.315724555420992 a34.747817648028224,34.747817648028224 0 0,0 0.40151328223849503,0.443360994631197 l -10.269236049819188 9.140310773520246" fill="#ffb210" stroke="none" /><path d="M 115.68641384162765 86.03803664274999 l 2.739159963121235 -2.4380365978395413 a24.66701782869559,24.66701782869559 0 0,0 0.27956909259523005,0.3195958012406005 l -2.780720919294313 2.390525240395993" fill="#ff2904" stroke="none" /><path d="M 115.9244219780498 86.31012108654704 l 3.897219849705993 -3.350355065642026 a26.1393775520792,26.1393775520792 0 0,0 0.2903828263311036,0.34372167491773825 l -3.9543132895242135 3.2827744410951816" fill="#ff3e05" stroke="none" /><path d="M 116.15771136456269 86.58626213691792 l 4.8226089366500515 -4.003612308254125 a27.267891868137234,27.267891868137234 0 0,0 0.29670259094127555,0.3637222939847512 l -4.890810019667736 3.920005844661273" fill="#ff4e07" stroke="none" /><path d="M 116.38621287248628 86.86637796730983 l 4.7063717355307455 -3.772177744839597 a27.031522183633733,27.031522183633733 0 0,0 0.28788045865254397,0.36557894777043587 l -4.770606274777254 3.6906064031161225" fill="#ff4b06" stroke="none" /><path d="M 116.60985879189232 87.15038557335679 l 9.291421409107947 -7.187970956187347 a32.747231089436454,32.747231089436454 0 0,0 0.341076539538127,0.4488167454896066 l -9.413773888870187 7.026969434816707" fill="#ff980e" stroke="none" /><path d="M 116.82858285166822 87.43820079747576 l 2.980266763457478 -2.224638460795794 a24.719006085316504,24.719006085316504 0 0,0 0.251589322949301,0.3431675537610786 l -3.0181186989204054 2.173008463363222" fill="#ff2a04" stroke="none" /><path d="M 117.04232023915458 87.72973835380427 l 7.090719065354139 -5.105230800185916 a29.737372510482977,29.737372510482977 0 0,0 0.2955149696727963,0.41798496737411384 l -7.177546654830818 4.982419332480009" fill="#ff700a" stroke="none" /><path d="M 117.2510076193507 88.02491185347247 l 21.431147345338715 -14.876805123764136 a47.08856851626922,47.08856851626922 0 0,0 0.4564800236473317,0.6698281080260403 l -21.68405183465478 14.50569899246769" fill="#b7ff1f" stroke="none" /><path d="M 117.45458315368197 88.32363383020206 l 7.3451858698820445 -4.91361375100366 a29.837157662799,29.837157662799 0 0,0 0.28189487960263787,0.4293452413308563 l -7.428677384842607 4.78645044569513" fill="#ff710a" stroke="none" /><path d="M 117.65298651832404 88.62581576622439 l 3.0197244832519488 -1.9456709249790662 a24.59226548337677,24.59226548337677 0 0,0 0.2262165255800717,0.3578202174515479 l -3.052768605077976 1.893403059813312" fill="#ff2803" stroke="none" /><line stroke="#e1ed5e" stroke-width="0.3" x1="172.23445277983987" x2="176.4835382374775" y1="55.19839476539836" y2="52.563006222186495" /><path d="M 173.08426987136738 54.67131705675599 a86.0,86.0 0 0,1 12.851231095245387,41.99856678651699" fill="none" id="id315" stroke="none" /><text fill="#e1ed5e" style="font-size:6.75px; font-family:Arial;" text-anchor="middle"><textPath startOffset="22.20632615414155" xlink:href="#id315">March</textPath></text><path d="M 117.84615892207809 88.93136811851018 l 6.9714359737756935 -4.3238580815077325 a29.203454653100337,29.203454653100337 0 0,0 0.2612794173705817,0.42947466336014267 l -7.044831189432499 4.203215644940508" fill="#ff6809" stroke="none" /><path d="M 118.03404312379186 89.2402003453031 l 5.3508725399865105 -3.192535146603793 a27.230900224003125,27.230900224003125 0 0,0 0.2367017805407413,0.4046000709536142 l -5.40503399499758 3.0999556632962837" fill="#ff4d07" stroke="none" /><path d="M 118.21658344932153 89.55222093294921 l 0.7207601491231028 -0.41337843725318457 a21.83088923747383,21.83088923747383 0 0,0 0.18415120058141682,0.3275844376911922 l -0.7277689909969526 0.40091048962719844" fill="#ff0100" stroke="none" /><path d="M 118.3937258080291 89.86733742301442 l 6.708253111987976 -3.695415815925494 a28.658769997009223,28.658769997009223 0 0,0 0.234308509278445,0.4341380823976099 l -6.770869720484886 3.5793967501954254" fill="#ff6108" stroke="none" /><path d="M 118.56541770881063 90.18545643968196 l 7.485510877991341 -3.9571893148633683 a29.46712586290032,29.46712586290032 0 0,0 0.2331980166808381,0.45046434278946085 l -7.552518327832295 3.8277522498135625" fill="#ff6c09" stroke="none" /><path d="M 118.73160827565052 90.50648371742162 l 7.753923389804782 -3.929827960937364 a29.692921012958003,29.692921012958003 0 0,0 0.22713668794747854,0.4578937028335475 l -7.820420090705668 3.7957746696048664" fill="#ff6f0a" stroke="none" /><path d="M 118.89224826269711 90.83032412892265 l 2.134895431344733 -1.0362080178000097 a23.37307934105239,23.37307934105239 0 0,0 0.17256211602460464,0.36345982517409803 l -2.152415741211094 0.9993057769853714" fill="#ff1702" stroke="none" /><path d="M 119.196687751892 91.48605970444005 l 15.395641170936381 -6.828134698825742 a37.84188797402297,37.84188797402297 0 0,0 0.25896337423617316,0.5977231719733984 l -15.510895255015233 6.56211238226574" fill="#ffd914" stroke="none" /><path d="M 119.34039704204932 91.81776055985345 l 3.402007912951459 -1.4392694865840527 a24.693934825466776,24.693934825466776 0 0,0 0.1622489272076233,0.39289864670272495 l -3.42627852704528 1.3804962694280247" fill="#ff2a04" stroke="none" /><path d="M 119.47837535516314 92.15188598940014 l 7.075402118183023 -2.850779979430938 a28.628123073542604,28.628123073542604 0 0,0 0.1802296440525167,0.4586647855266364 l -7.12342531211724 2.728566189008517" fill="#ff6108" stroke="none" /><path d="M 119.61058180528143 92.48833698450437 l 8.30144629645667 -3.179796894318704 a29.889607353650273,29.889607353650273 0 0,0 0.17990043909473685,0.48204373590282124 l -8.354951324053031 3.036430021386549" fill="#ff720a" stroke="none" /><path d="M 119.7369772167798 92.82701384747503 l 6.319213017729083 -2.296584070254182 a27.72359662347333,27.72359662347333 0 0,0 0.1591425791348227,0.44991750158432403 l -6.357808677673715 2.187468942243244" fill="#ff5407" stroke="none" /><path d="M 119.85752413597 93.16781622104841 l 3.690374635397381 -1.2697110450212095 a24.90269536185355,24.90269536185355 0 0,0 0.13597192583653894,0.40653875141786355 l -3.71168385500569 1.2059991906810317" fill="#ff2d04" stroke="none" /><path d="M 119.97218684219823 93.5106431181261 l 9.456669619053988 -3.0726582199979764 a30.943330871536954,30.943330871536954 0 0,0 0.16023416886788652,0.50798610324641 l -9.508159271690081 2.909421950325147" fill="#ff800b" stroke="none" /><path d="M 120.08093135843002 93.85539295169968 l 4.190488123433918 -1.2822564053166476 a25.382279338610935,25.382279338610935 0 0,0 0.12424517304155647,0.4188929579120607 l -4.2119391935871775 1.2099340606580569" fill="#ff3304" stroke="none" /><path d="M 120.18372546131832 94.20196356495316 l 3.5845370986428 -1.0297046866069781 a24.729503714057262,24.729503714057262 0 0,0 0.1140068150880477,0.41014317217453294 l -3.6017306842972103 0.9678502110134932" fill="#ff2a04" stroke="none" /><path d="M 120.28053869075195 94.5502522615342 l 8.01327424461613 -2.1533117960134316 a29.29754878324188,29.29754878324188 0 0,0 0.12668213793938632,0.48815795437682197 l -8.04915271442582 2.015057416087759" fill="#ff6a09" stroke="none" /><path d="M 120.37134235888165 94.90015583598534 l 21.627279003429756 -5.414260418684202 a43.294694727076305,43.294694727076305 0 0,0 0.17476047788461546,0.7244950056139167 l -21.71727228157519 5.041180181410879" fill="#e3ff1b" stroke="none" /><path d="M 120.45610955862082 95.25157060432595 l 20.20869397666216 -4.6909973889205885 a41.746006091420135,41.746006091420135 0 0,0 0.15645928569723308,0.7013762991977719 l -20.28644764936143 4.342442920172853" fill="#f5ff19" stroke="none" /><path d="M 120.53481517161879 95.60439243477599 l 2.3766124765541448 -0.5087289899733566 a23.430450997027535,23.430450997027535 0 0,0 0.08102551659206202,0.39510919452941473 l -2.385017289061204 0.46774413928053005" fill="#ff1802" stroke="none" /><path d="M 120.67395015179393 96.31383870115 l 26.484882611892612 -4.722249428470845 a47.90257695148227,47.90257695148227 0 0,0 0.1377498785944897,0.8130075810382127 l -26.562244352007326 4.265656059116794" fill="#aeff20" stroke="none" /><path d="M 120.73433829027371 96.67025291283417 l 5.525706153267606 -0.8873784015093461 a26.596505062958915,26.596505062958915 0 0,0 0.06870017403701635,0.45264831032238084 l -5.540162220743922 0.7921309787948831" fill="#ff4406" stroke="none" /><path d="M 120.78858239683441 97.02765380044208 l 13.88401758990324 -1.9851332875986873 a35.02521652618151,35.02521652618151 0 0,0 0.08019774021163824,0.5975663165021157 l -13.916131329172714 1.7458486290319075" fill="#ffb510" stroke="none" /><path d="M 120.83666639777658 97.38593545837742 l 7.578331573316352 -0.9507397907267454 a28.63773628667517,28.63773628667517 0 0,0 0.057152258026231854,0.4896456444729667 l -7.593574184346172 0.8201504079289259" fill="#ff6108" stroke="none" /><path d="M 120.87857604477298 97.74499172005257 l 22.721159411359128 -2.4540180562480205 a43.853299315783374,43.853299315783374 0 0,0 0.07459837618463508,0.7511954677728447 l -22.760034913225994 2.062547057770741" fill="#dcff1b" stroke="none" /><path d="M 120.94382443527127 98.46500227214037 l 38.51067657425683 -2.8224931517411176 a59.613969982360516,59.613969982360516 0 0,0 0.06619821656519817,1.024057110239438 l -38.553555381826435 2.1591769772486447" fill="#33ff2f" stroke="none" /><path d="M 120.96714384426684 98.82574320788733 l 24.750154756906035 -1.3861228570282085 a45.788939006451535,45.788939006451535 0 0,0 0.037299215676994985,0.787327491178407 l -24.770347580816527 0.9598842592268019" fill="#c6ff1e" stroke="none" /><path d="M 120.98425023603335 99.18683210126433 l 3.6863614142009506 -0.14285145913951294 a24.689128218900493,24.689128218900493 0 0,0 0.01280108436529258,0.4248056695019338 l -3.6882741930218885 0.07937564221258006" fill="#ff2a04" stroke="none" /><line stroke="#e1ed5e" stroke-width="0.3" x1="184.98032266829074" x2="189.97916517819016" y1="98.17113171792111" y2="98.06355123074" /><path d="M 185.9800911702706 98.14961562048488 a86.0,86.0 0 0,1 -9.607161424134198,41.387399972396054" fill="none" id="id316" stroke="none" /><text fill="#e1ed5e" style="font-size:6.75px; font-family:Arial;" text-anchor="middle"><textPath startOffset="21.466115282336823" xlink:href="#id316">April</textPath></text><path d="M 120.99513854157772 99.54816195383933 l 21.24758715164081 -0.4572710127734381 a42.2525070649487,42.2525070649487 0 0,0 0.009390102368132808,0.7272737766677664 l -21.25231026112666 0.09146097804520904" fill="#efff19" stroke="none" /><path d="M 120.99980553446 99.90962569577887 l 8.605322632303453 -0.03703367844128784 a29.605402320599133,29.605402320599133 0 0,0 -0.0021932002207385643,0.5096224920411059 l -8.604685134793213 -0.11109829180350278" fill="#ff6e0a" stroke="none" /><path d="M 120.99824983174949 100.27111621757518 l 24.310597275408025 0.31388316803129923 a45.312623522159214,45.312623522159214 0 0,0 -0.016782797396819576,0.7798306482941303 l -24.301592415326198 -0.7323036321155444" fill="#cbff1d" stroke="none" /><path d="M 120.9904718944345 100.63252640178507 l 26.386674740688317 0.7951354553980232 a47.39865231907322,47.39865231907322 0 0,0 -0.031594287533066506,0.8153081751676947 l -26.369078320304048 -1.2492208775797242" fill="#b3ff20" stroke="none" /><path d="M 120.9764740272857 100.99374915477107 l 14.529188542307256 0.688312478762931 a35.54548362091592,35.54548362091592 0 0,0 -0.0342144730212509,0.6109223997773573 l -14.515187718398476 -0.9383065948757117" fill="#ffbc11" stroke="none" /><path d="M 120.95626037817324 101.35467743843564 l 54.64050990233463 3.532131432495797 a75.75455483193662,75.75455483193662 0 0,0 -0.095318858833852,1.3005500976019784 l -54.57161448483644 -4.4721546665945455" fill="#43ffdd" stroke="none" /><path d="M 120.92983693683757 101.71520430193887 l 10.306038372968155 0.8445818955306675 a31.340587291027056,31.340587291027056 0 0,0 -0.04869044348968188,0.5372949865994228 l -10.289973333201399 -1.0218582706786608" fill="#ff850c" stroke="none" /><path d="M 120.89721153311464 102.0752229133903 l 8.636481805459285 0.8576562909059205 a29.67896262748952,29.67896262748952 0 0,0 -0.05486042966835415,0.5079394443315975 l -8.620439074289878 -1.0061920571223095" fill="#ff6f0a" stroke="none" /><path d="M 120.8583938346157 102.4346265915055 l 26.978211473079902 3.148941935050459 a48.161364649010906,48.161364649010906 0 0,0 -0.10319946294369967,0.8226012585186144 l -26.920010500889354 -3.6128609478564684" fill="#abff21" stroke="none" /><path d="M 120.81339534386255 102.79330883721812 l 9.456294194169603 1.2691033684562838 a30.541075581217918,30.541075581217918 0 0,0 -0.07441252928984374,0.5204410565393992 l -9.433047613863158 -1.4316898969760923" fill="#ff7a0b" stroke="none" /><path d="M 120.76222939487914 103.15116336523771 l 5.745998973927922 0.8720923518839918 a26.811802584275835,26.811802584275835 0 0,0 -0.07318121364486496,0.45569948722349757 l -5.730136005921768 -0.9708710688006943" fill="#ff4706" stroke="none" /><path d="M 120.70491114924044 103.5080841355445 l 10.751611210190182 1.821671991062577 a31.904844449056075,31.904844449056075 0 0,0 -0.09640361366225689,0.5406826619139248 l -10.718661154188737 -2.00647340370972" fill="#ff8d0d" stroke="none" /><path d="M 120.64145759157962 103.86396538481128 l 24.660442124254608 4.616296805567293 a46.08879435048249,46.08879435048249 0 0,0 -0.15268573866828092,0.7785412919915292 l -24.577326452610663 -5.040101824626768" fill="#c2ff1e" stroke="none" /><path d="M 120.49622156327973 104.57218783832717 l 2.668223060800747 0.595212975761037 a23.733805550638746,23.733805550638746 0 0,0 -0.0923803730487388,0.3979722292749764 l -2.6575821218214553 -0.6410538623845783" fill="#ff1c02" stroke="none" /><path d="M 120.41448212921028 104.9243191809786 l 15.909831526283993 3.8377210871745504 a37.366149282518606,37.366149282518606 0 0,0 -0.15620595882699348,0.6239651572523925 l -15.841414253161938 -4.1110140838243385" fill="#ffd313" stroke="none" /><path d="M 120.32669344350535 105.2749913415812 l 28.94946843545316 7.512692399519911 a50.90839798092006,50.90839798092006 0 0,0 -0.22741974975945214,0.8463134910784192 l -28.81586060935193 -8.009896823773879" fill="#8dff24" stroke="none" /><path d="M 120.23288151984713 105.62410040840565 l 20.589124574348265 5.723124697474231 a42.36974981231346,42.36974981231346 0 0,0 -0.20137204783631862,0.7010025160490215 l -20.487559889625846 -6.076684689027835" fill="#eeff19" stroke="none" /><path d="M 120.13307415673323 105.97154293290107 l 2.270689593211227 0.6734947821476995 a23.368464998748756,23.368464998748756 0 0,0 -0.1177027602140537,0.3846594306156558 l -2.2587600604910407 -0.7124811853154124" fill="#ff1702" stroke="none" /><path d="M 120.02730092923936 106.31721596034902 l 24.816363170036936 7.827830921873959 a47.021660552866564,47.021660552866564 0 0,0 -0.2501278025637552,0.769814220140297 l -24.677943116456934 -8.253844041992052" fill="#b8ff1f" stroke="none" /><path d="M 119.9155931802556 106.66101706037122 l 1.7614026127178712 0.5891229423750262 a22.857311230064028,22.857311230064028 0 0,0 -0.12801092288760904,0.37205966249616024 l -1.7510008588870314 -0.6193553079604869" fill="#ff0f01" stroke="none" /><path d="M 119.79798401119884 107.00284435728193 l 7.480062798271555 2.6458105799742233 a28.934207779683465,28.934207779683465 0 0,0 -0.17012727084879684,0.46811718262046653 l -7.433411266417531 -2.774175559600821" fill="#ff6509" stroke="none" /><path d="M 119.67450827220406 107.3425965602758 l 22.7174481286783 8.47823255250234 a45.24794582420333,45.24794582420333 0 0,0 -0.27861039198631377,0.727363817117224 l -22.56814345709848 -8.868019936452706" fill="#ccff1d" stroke="none" /><path d="M 119.54520255179757 107.68017299344265 l 24.999432708281944 9.823380823437697 a47.860201907993925,47.860201907993925 0 0,0 -0.30789467423253986,0.7641693311867117 l -24.82663541979201 -10.252249522467222" fill="#aeff20" stroke="none" /><path d="M 119.41010516605496 108.01547362559984 l 11.650967842480284 4.811309606783204 a33.605306493649174,33.605306493649174 0 0,0 -0.22539402125534358,0.5327648859301004 l -11.566422840032631 -5.011149018379468" fill="#ffa30f" stroke="none" /><path d="M 119.26925614724726 108.34839909993367 l 23.82056042990687 10.320250233497415 a46.96009753596562,46.96009753596562 0 0,0 -0.32773433122784507,0.7389543975821656 l -23.639385013947752 -10.72875296757227" fill="#b8ff1f" stroke="none" /><path d="M 119.12269723197855 108.67885076344098 l 1.1055395051885586 0.5017499499272862 a22.21407191293786,22.21407191293786 0 0,0 -0.16102598135688126,0.3468356382989183 l -1.0967389069918458 -0.5207056555050351" fill="#ff0601" stroke="none" /><path d="M 118.97047184881838 109.00673069616215 l 21.45655926508451 10.18706611553768 a44.75205783797311,44.75205783797311 0 0,0 -0.33637936140542884,0.693041116770934 l -21.27802664706437 -10.55489618827389" fill="#d2ff1c" stroke="none" /><path d="M 118.81262510543309 109.33194174019688 l 21.07240906509998 10.452900252837017 a44.52253276121999,44.52253276121999 0 0,0 -0.3464729299201422,0.6836239606278189 l -20.889357465393566 -10.81407842516753" fill="#d4ff1c" stroke="none" /><line stroke="#e1ed5e" stroke-width="0.3" x1="174.80103733775053" x2="179.2010983576182" y1="140.37084112569926" y2="142.7455964860345" /><path d="M 175.68104954172406 140.8457921977663 a86.0,86.0 0 0,1 -30.038265399797805,32.042727171017184" fill="none" id="id317" stroke="none" /><text fill="#e1ed5e" style="font-size:6.75px; font-family:Arial;" text-anchor="middle"><textPath startOffset="22.206326154141568" xlink:href="#id317">May</textPath></text><path d="M 118.48025628344425 109.97397251340804 l 4.9413031431245615 2.6668689532240517 a26.6150393378785,26.6150393378785 0 0,0 -0.22106146304295646,0.40129076706545214 l -4.894665270630095 -2.751530238687309" fill="#ff4506" stroke="none" /><path d="M 118.30583269289576 110.29060199501025 l 17.630837444787446 9.911154222088035 a41.22566209098067,41.22566209098067 0 0,0 -0.3530644302075901,0.6155975939563206 l -17.457621018427478 -10.21317166190267" fill="#fbff18" stroke="none" /><path d="M 118.12598468904814 110.60418214915192 l 5.928414080774959 3.4682795912389177 a27.868410066102285,27.868410066102285 0 0,0 -0.24579821467267501,0.4119719460782958 l -5.867834990404057 -3.5698136312033175" fill="#ff5608" stroke="none" /><path d="M 117.94076556474637 110.91462005526583 l 10.265680716980581 6.245330180038832 a33.016170340033085,33.016170340033085 0 0,0 -0.29955942440581523,0.4829851739393909 l -10.156656652906804 -6.421111685343496" fill="#ff9b0e" stroke="none" /><path d="M 117.75023020441432 111.22182372390056 l 12.523274563581849 7.917304619721129 a35.81607634417134,35.81607634417134 0 0,0 -0.33393397910023925,0.5182729512646611 l -12.38513572110456 -8.131699170907243" fill="#ffc011" stroke="none" /><path d="M 117.55443506779139 111.5257021239791 l 7.281998863076348 4.781136472854444 a29.711301476467465,29.711301476467465 0 0,0 -0.28437520623694373,0.4251023487895705 l -7.198620551428682 -4.905775735849821" fill="#ff6f0a" stroke="none" /><path d="M 117.35343817320211 111.8261652097733 l 11.434349956738862 7.792375799256724 a34.83710517160348,34.83710517160348 0 0,0 -0.34196615510340933,0.4926277514674964 l -11.298522894473315 -7.988044812911239" fill="#ffb310" stroke="none" /><path d="M 116.93607887273984 112.41649034213515 l 4.05639127570266 2.973896347386065 a26.029748469515432,26.029748469515432 0 0,0 -0.2680304684425421,0.35907061339194 l -4.004599540565026 -3.0432798402873202" fill="#ff3d05" stroke="none" /><path d="M 116.498646956653 112.99209946851258 l 35.60060129521184 28.034211192072213 a66.31357202585497,66.31357202585497 0 0,0 -0.7139195629860057,0.8907244249760785 l -35.112763820170976 -28.642863450626542" fill="#37ff79" stroke="none" /><path d="M 116.27256486870786 113.27417163493432 l 11.0147834200833 8.985192366384757 a35.21475063630315,35.21475063630315 0 0,0 -0.38720127546065647,0.4664088796682576 l -10.858486144729099 -9.173462503166785" fill="#ffb811" stroke="none" /><path d="M 116.0416608686014 113.55231037782055 l 12.856602453485504 10.861510430938045 a37.830467476821475,37.830467476821475 0 0,0 -0.4245253822548582,0.4938189278486559 l -12.667734561659866 -11.08120645794823" fill="#ffd914" stroke="none" /><path d="M 115.80600337817218 113.82643327865902 l 6.536013982603362 5.717432742273543 a29.68380768690833,29.68380768690833 0 0,0 -0.33972573744233553,0.3816854674242796 l -6.436629395512687 -5.829092379438689" fill="#ff6f0a" stroke="none" /><path d="M 115.56566222782051 114.09645910891815 l 15.344960961591113 13.896589271762835 a41.7022467452407,41.7022467452407 0 0,0 -0.4864340540426391,0.5279280937708266 l -15.10348049955275 -14.158668620334996" fill="#f6ff19" stroke="none" /><path d="M 115.32070863581623 114.36230785411682 l 8.901677991963078 8.3448254762779 a33.201474636376396,33.201474636376396 0 0,0 -0.3944547812539709,0.4135842611353551 l -8.756716659330143 -8.496816853995764" fill="#ff9e0e" stroke="none" /><path d="M 115.07121518719521 114.62390073753431 l 38.09755417532336 36.96681678834481 a74.08454744654748,74.08454744654748 0 0,0 -0.8959269220270816,0.9075692418935626 l -37.455586628240745 -37.61712652421904" fill="#41ffcc" stroke="none" /><path d="M 114.81725581225074 114.88116024355365 l 29.049913874479266 29.175201461402906 a62.171469204148025,62.171469204148025 0 0,0 -0.7648572395123088,0.7485737899724435 l -28.54340668259116 -29.670925354297925" fill="#32ff49" stroke="none" /><path d="M 114.55890576462653 115.13401014063108 l 3.9492110450724334 4.1052123675966135 a26.69640557383253,26.69640557383253 0 0,0 -0.3339137664197768,0.31573630799633917 l -3.877961444261849 -4.172583312338874" fill="#ff4606" stroke="none" /><path d="M 114.29624159901734 115.38237550388516 l 11.411531122932976 12.278503800557827 a37.76259819210557,37.76259819210557 0 0,0 -0.47994545098927455,0.4384187900818935 l -11.198486122476838 -12.473115357226304" fill="#ffd814" stroke="none" /><path d="M 114.0293411484842 115.62618273729858 l 3.2315428806195845 3.5993621540405525 a25.837176584043895,25.837176584043895 0 0,0 -0.3334935377337117,0.2942692724212479 l -3.1691069899792854 -3.6544545682340894" fill="#ff3a05" stroke="none" /><path d="M 113.75828350139079 115.86535959552629 l 20.931146134443736 24.136743521522195 a52.94832180765028,52.94832180765028 0 0,0 -0.6937100612663332,0.5911947639295448 l -20.512570596600355 -24.493462675674685" fill="#77ff27" stroke="none" /><path d="M 113.20401910651253 116.32954008644616 l 35.36956794905561 43.74189199556024 a77.25263951366298,77.25263951366298 0 0,0 -1.041227656292848,0.8272142228671592 l -34.611382800045405 -44.344240132432525" fill="#45ffec" stroke="none" /><path d="M 112.92097659922987 116.55440617244103 l 12.039181086289283 15.424646283925744 a40.56684936857975,40.56684936857975 0 0,0 -0.5541649361608278,0.42491004224298495 l -11.771887421634961 -15.6295956679961" fill="#fffb17" stroke="none" /><path d="M 112.63410532772338 116.77436683061366 l 2.2095437535798257 2.933622642001339 a24.672631945165012,24.672631945165012 0 0,0 -0.3414398886950479,0.2525890669817066 l -2.1587188944662135 -2.9712216577228143" fill="#ff2904" stroke="none" /><path d="M 112.34349029814194 116.9893568818739 l 8.670993605226984 11.934598830755577 a35.7519754390034,35.7519754390034 0 0,0 -0.500991873672218,0.3574443997058715 l -8.46427440370588 -12.082087492305668" fill="#ffbf11" stroke="none" /><path d="M 112.04921762599082 117.19931262002967 l 9.594041619456569 13.69474153630288 a37.72099220566783,37.72099220566783 0 0,0 -0.5349970396977163,0.36797584226754987 l -9.356887695135969 -13.857858167935523" fill="#ffd814" stroke="none" /><path d="M 111.7513745106137 117.40417183066458 l 20.01984150232975 29.6500431685264 a56.77595720136477,56.77595720136477 0 0,0 -0.814668209906102,0.539917667026055 l -19.506498593683688 -29.99025885664377" fill="#4fff2b" stroke="none" /><path d="M 111.45004920935366 117.60387380957326 l 4.868882934393162 7.485662218868334 a29.929790584544396,29.929790584544396 0 0,0 -0.4342929453350055,0.27718630557232876 l -4.739308187011226 -7.568362953264471" fill="#ff720a" stroke="none" /><path d="M 111.1453310114006 117.79835938074945 l 21.940323242741062 35.03725080974893 a62.33989269823056,62.33989269823056 0 0,0 -0.9143801726210953,0.5616869845326952 l -21.333963870187656 -35.40972626111001" fill="#32ff4b" stroke="none" /><line stroke="#e1ed5e" stroke-width="0.3" x1="143.8653032363475" x2="146.44561519142675" y1="172.8068346515853" y2="177.08958963109032" /><path d="M 144.38136562736335 173.6633856474863 a86.0,86.0 0 0,1 -40.68145358897372,12.25698825130547" fill="none" id="id318" stroke="none" /><text fill="#e1ed5e" style="font-size:6.75px; font-family:Arial;" text-anchor="middle"><textPath startOffset="21.466115282336833" xlink:href="#id318">June</textPath></text><path d="M 110.8373102113329 117.98757091392108 l 2.481084355327689 4.118058809298213 a25.807721699005718,25.807721699005718 0 0,0 -0.38248534134707474,0.22597908151708343 l -2.4098311429522323 -4.160156463109046" fill="#ff3905" stroke="none" /><path d="M 110.5260780823613 118.17145234162733 l 15.724799193109543 27.146144735338115 a52.371682831106526,52.371682831106526 0 0,0 -0.7839572893509621,0.44515140892192023 l -15.255193136837383 -27.412799310054666" fill="#7dff26" stroke="none" /><path d="M 110.21172684928248 118.3499491758327 l 1.7904818284997495 3.2174039746794554 a24.682052894034925,24.682052894034925 0 0,0 -0.3730247878484803,0.2034028565272645 l -1.7348342287826206 -3.2477474829664907" fill="#ff2a04" stroke="none" /><path d="M 109.89434966115114 118.52300852407294 l 3.9809422493906865 7.452640117301728 a29.44924528647375,29.44924528647375 0 0,0 -0.44918386566601237,0.2349917687759032 l -3.8520674811981785 -7.520061305022348" fill="#ff6c09" stroke="none" /><path d="M 109.57404056367764 118.69057910512821 l 6.041573311065586 11.794445943576306 a34.25177585038789,34.25177585038789 0 0,0 -0.5270632152847066,0.2642804377966178 l -5.837656188098119 -11.896694222282227" fill="#ffab0f" stroke="none" /><path d="M 108.92500713936063 119.00905698771935 l 2.6496872486805216 5.643475139383429 a27.2345532449935,27.2345532449935 0 0,0 -0.426067731521745,0.19558679823905292 l -2.552151521391357 -5.688249007956556" fill="#ff4d07" stroke="none" /><path d="M 108.59647513512805 119.15986991738527 l 11.088129114262147 24.713281678476076 a48.08676611510221,48.08676611510221 0 0,0 -0.7581206706323059,0.33233782289240216 l -10.661087768972086 -24.900484054662932" fill="#acff21" stroke="none" /><path d="M 108.2653958097858 119.30500536409082 l 0.3891577405415546 0.9089331523285958 a21.988738197110543,21.988738197110543 0 0,0 -0.3492319884940337,0.145978999514059 l -0.3734542925500598 -0.9154971948626279" fill="#ff0300" stroke="none" /><path d="M 107.93186726928326 119.44442032107085 l 6.511304054936416 15.962008513780543 a38.23899058210294,38.23899058210294 0 0,0 -0.6116033814267594,0.2433696075249843 l -6.235579597467791 -16.071724965711596" fill="#ffde14" stroke="none" /><path d="M 107.59598834532513 119.57807347666477 l 2.726246612673833 7.026690151688507 a28.537028265898424,28.537028265898424 0 0,0 -0.4594866222717158,0.17373852383579289 l -2.6048897696418427 -7.072576925630932" fill="#ff5f08" stroke="none" /><path d="M 107.2578585660854 119.70592522655815 l 6.579184977066186 17.86324795795633 a40.03631536221977,40.03631536221977 0 0,0 -0.6487416658201257,0.232615680240193 l -6.270723750616325 -17.97385117923648" fill="#fff417" stroke="none" /><path d="M 106.91757812671514 119.82793768551818 l 5.557044109765642 15.928222609960034 a37.8697662921074,37.8697662921074 0 0,0 -0.6173317718277108,0.20943245447769027 l -5.282042605000704 -16.021518051335846" fill="#ffda14" stroke="none" /><path d="M 106.57524785965236 119.94407469862006 l 12.784632501210227 38.7784112539939 a61.831507534928,61.831507534928 0 0,0 -1.013679440244019,0.324548145824477 l -12.115231715875268 -38.99273224647809" fill="#32ff45" stroke="none" /><path d="M 106.2309692047433 120.05430185196036 l 6.604145832292045 21.255366483649112 a43.25770308294219,43.25770308294219 0 0,0 -0.7129796945352201,0.21481493330184492 l -6.237291163316579 -21.365896786056684" fill="#e3ff1b" stroke="none" /><path d="M 105.88484417918355 120.15858648285463 l 1.0368456302884335 3.5517240000123684 a24.699971923314024,24.699971923314024 0 0,0 -0.4091595419434421,0.11563257353741441 l -0.9755549202403857 -3.569045366888302" fill="#ff2a04" stroke="none" /><path d="M 105.53697534728816 120.25689768951611 l 4.313597040256851 15.781196129233022 a37.36011218467135,37.36011218467135 0 0,0 -0.6217960126751078,0.16422197836351163 l -4.041310584770246 -15.853109456900118" fill="#ffd313" stroke="none" /><path d="M 105.18746579009965 120.34920634021253 l 0.9013038564399728 3.5356027185624983 a24.64867581803866,24.64867581803866 0 0,0 -0.41203984196913884,0.10126936827646543 l -0.8403107297276229 -3.550593345152994" fill="#ff2904" stroke="none" /><path d="M 104.83641907484287 120.43548508189849 l 7.496580928671062 31.6755569280521 a53.550570383979206,53.550570383979206 0 0,0 -0.8988331928034293,0.20457150833242507 l -6.950227586474771 -31.799905169962212" fill="#71ff27" stroke="none" /><path d="M 104.13013068566511 120.58985236759428 l 10.773727866352246 53.71003561382618 a75.77993371460659,75.77993371460659 0 0,0 -1.2811586016330905,0.2455370951861528 l -9.84760165014745 -53.88752990736079" fill="#43ffde" stroke="none" /><path d="M 103.7750983002368 120.6578951692458 l 4.933429990522734 26.996457168450135 a48.44353168087795,48.44353168087795 0 0,0 -0.8215816016033817,0.1428424925306016 l -4.467999417447302 -27.077378239501744" fill="#a8ff21" stroke="none" /><path d="M 103.41894727170886 120.7198165907248 l 0.3029404685351756 1.8359075022586602 a22.86073353393922,22.86073353393922 0 0,0 -0.3888111499964388,0.06072430532428144 l -0.27129345493021967 -1.8408501149300474" fill="#ff0f01" stroke="none" /><path d="M 103.06178313531738 120.77559828337769 l 2.1287818267768945 14.444757878479605 a35.60077882285442,35.60077882285442 0 0,0 -0.6070295727593111,0.08412876751837635 l -1.8798236628307528 -14.479261211490584" fill="#ffbd11" stroke="none" /><path d="M 102.70371172650421 120.8252237178851 l 0.4722208768243023 3.6372610688185545 a24.6677868857462,24.6677868857462 0 0,0 -0.4215520117765288,0.05104407793503921 l -0.4095414419963932 -3.6448506754789447" fill="#ff2904" stroke="none" /><path d="M 102.34483914955558 120.86867818915974 l 4.037905843325296 35.93668999362023 a57.16283135067171,57.16283135067171 0 0,0 -0.9787567066396609,0.10145213453792892 l -3.418716540080032 -36.00087149661391" fill="#4cff2c" stroke="none" /><path d="M 101.62511606390274 120.93702456842531 l 4.8753481917081976 62.81107370527595 a84.0,84.0 0 0,0 -1.4425489568842786,0.09948662193485935 l -3.7934364740449884 -62.885688671727095" fill="#4dd2ff" stroke="none" /><path d="M 101.26447882468166 120.96189622390904 l 1.2770042168981701 21.16953589859657 a42.20801711457119,42.20801711457119 0 0,0 -0.725599894617536,0.03750522645438991 l -0.9124162538671543 -21.18838093181316" fill="#f0ff19" stroke="none" /><path d="M 100.90346689309514 120.98055641714683 l 0.3248421095258136 7.543572717117381 a28.550563669989074,28.550563669989074 0 0,0 -0.49117798105638577,0.01691716279972941 l -0.1949437767947755 -7.548046678343204" fill="#ff5f08" stroke="none" /><line stroke="#e1ed5e" stroke-width="0.3" x1="102.19456741930631" x2="102.32365962044197" y1="184.97166512339345" y2="189.96999836594603" /><path d="M 102.22038585953345 185.97133177190398 a86.0,86.0 0 0,1 -42.740103519485714,-10.115201625700543" fill="none" id="id319" stroke="none" /><text fill="#e1ed5e" style="font-size:6.75px; font-family:Arial;" text-anchor="middle"><textPath startOffset="22.20632615414155" xlink:href="#id319">July</textPath></text><path d="M 100.54218724476979 120.99299961872073 l 0.09603482100088225 3.718381389645981 a24.71962133095699,24.71962133095699 0 0,0 -0.42546036188556735,0.007324685970592828 l -0.03201476922264693 -3.7194835528957335" fill="#ff2a04" stroke="none" /><path d="M 100.18074693466247 120.99922214144158 l 0.03172616897906516 3.6859539075030465 a24.6860904435506,24.6860904435506 0 0,0 -0.42494620728303867,0.0 l 0.03172616897906262 -3.6859539075030465" fill="#ff2a04" stroke="none" /><path d="M 99.81925306533755 120.99922214144158 l -0.08082362349123669 9.390107927076954 a30.390455757856895,30.390455757856895 0 0,0 -0.5230636073058548,-0.009005014354759889 l 0.24244692068975943 -9.387325435443035" fill="#ff780b" stroke="none" /><path d="M 99.45781275523022 120.99299961872073 l -0.20060666621077552 7.767308633503241 a28.76989874082167,28.76989874082167 0 0,0 -0.49495137616381824,-0.01704712615680546 l 0.3342783940492368 -7.762704708920341" fill="#ff6209" stroke="none" /><path d="M 99.09653310690486 120.98055641714683 l -0.3093956528997212 7.184870857463761 a28.19152938591405,28.19152938591405 0 0,0 -0.48464183228508184,-0.025050446952867615 l 0.433025553598292 -7.1784806037486915" fill="#ff5b08" stroke="none" /><path d="M 98.37488393609728 120.93702456842531 l -0.20977712367942425 2.702643146497517 a23.71077229197312,23.71077229197312 0 0,0 -0.40664616055669184,-0.03508714181063878 l 0.2562676019776578 -2.6986317524082146" fill="#ff1c02" stroke="none" /><path d="M 98.01472825383883 120.90594882070398 l -1.020719064294436 10.748705087713414 a31.79706110341376,31.79706110341376 0 0,0 -0.5444374617394178,-0.05643316897976172 l 1.205589122639447 -10.729542550277893" fill="#ff8b0c" stroke="none" /><path d="M 97.65516085044442 120.86867818915974 l -0.4296870476099865 3.8241432126900827 a24.848207669818173,24.848207669818173 0 0,0 -0.42463525328675616,-0.051417415543556506 l 0.495449723948132 -3.8161802684211774" fill="#ff2c04" stroke="none" /><path d="M 97.2962882734958 120.8252237178851 l -2.2052453548903643 16.985807850083866 a38.128361725373395,38.128361725373395 0 0,0 -0.65012743803536,-0.09010173893698986 l 2.4973013841125558 -16.945331545654273" fill="#ffdd14" stroke="none" /><path d="M 96.58105272829116 120.7198165907248 l -5.146751341369241 31.19081265559771 a52.6125899522086,52.6125899522086 0 0,0 -0.8922870488094469,-0.15513554083486591 l 5.682887361650738 -31.097598536241836" fill="#7aff26" stroke="none" /><path d="M 96.22490169976321 120.6578951692458 l -0.7088738604667746 3.879062406619362 a24.943301574125503,24.943301574125503 0 0,0 -0.421699040872351,-0.0808196248353602 l 0.7755405159108206 -3.8662855834355336" fill="#ff2d04" stroke="none" /><path d="M 95.86986931433489 120.58985236759428 l -3.600214426478014 17.948072149423556 a39.30559580558726,39.30559580558726 0 0,0 -0.6622216861724788,-0.13877499299829732 l 3.9086275740798797 -17.883441175698717" fill="#ffeb16" stroke="none" /><path d="M 95.51606077576429 120.51570834832081 l -3.114016518967423 14.247796747485639 a35.584128737708824,35.584128737708824 0 0,0 -0.5972708753072737,-0.13593690667290992 l 3.3588075436675595 -14.192083107235042" fill="#ffbd11" stroke="none" /><path d="M 95.16358092515715 120.4354850818985 l -0.42749248627748465 1.8062984598230034 a22.85619609734065,22.85619609734065 0 0,0 -0.3820758363445946,-0.09390494471458717 l 0.45852160736528974 -1.7986722567943862" fill="#ff0f01" stroke="none" /><path d="M 94.81253420990036 120.34920634021253 l -7.993523293399301 31.356708933506667 a53.35953661260887,53.35953661260887 0 0,0 -0.8880794292027168,-0.23454984888076472 l 8.532093165413507 -31.21446773532232" fill="#73ff27" stroke="none" /><path d="M 94.11515582081647 120.15858648285463 l -15.360177130716211 52.616424437676116 a75.81261863925731,75.81261863925731 0 0,0 -1.24955450306023,-0.37648052152015893 l 16.263606608216687 -52.34422854705023" fill="#43ffde" stroke="none" /><path d="M 93.76903079525671 120.05430185196036 l -0.9131556735687839 2.938980905512762 a24.07757405225926,24.07757405225926 0 0,0 -0.39473308610405206,-0.1263810689105072 l 0.9636101047637763 -2.922826989942548" fill="#ff2103" stroke="none" /><path d="M 93.42475214034765 119.94407469862007 l -1.1394522435789816 3.4561922449948494 a24.639177963463688,24.639177963463688 0 0,0 -0.4016541129733212,-0.13626288256963145 l 1.1987760894895287 -3.436066375527095" fill="#ff2904" stroke="none" /><path d="M 93.08242187328487 119.8279376855182 l -3.9966845222777083 11.455745089506944 a33.132913200314945,33.132913200314945 0 0,0 -0.5368801076866809,-0.1925061053371461 l 4.193284190594116 -11.38525144312984" fill="#ff9d0e" stroke="none" /><path d="M 92.7421414339146 119.70592522655815 l -2.193066088948491 5.954428013747932 a27.345451271690767,27.345451271690767 0 0,0 -0.44030054293843995,-0.16648399031949793 l 2.295236852647214 -5.9157957733218005" fill="#ff4f07" stroke="none" /><path d="M 92.40401165467489 119.57807347666478 l -12.683367659784086 32.690400865034306 a56.06465633526005,56.06465633526005 0 0,0 -0.8967112591414366,-0.3568199160236627 l 13.244199994967381 -32.46723410460458" fill="#57ff2a" stroke="none" /><path d="M 92.06813273071674 119.44442032107085 l -2.1804223203581943 5.345153497295023 a26.772772938957623,26.772772938957623 0 0,0 -0.4252135182636368,-0.17773928512003825 l 2.272107298119294 -5.306829169155011" fill="#ff4706" stroke="none" /><path d="M 91.7346041902142 119.30500536409082 l -10.616818862540155 24.79708773876976 a47.9742915214512,47.9742915214512 0 0,0 -0.756347431937848,-0.33156048715942826 l 11.042086969135747 -24.61066269831588" fill="#adff20" stroke="none" /><path d="M 91.40352486487194 119.15986991738527 l -13.632111106313134 30.38332239559395 a54.301362329632504,54.301362329632504 0 0,0 -0.8495112094625579,-0.38996893037061003 l 14.15309031154311 -30.144166394889268" fill="#69ff28" stroke="none" /><path d="M 90.7491055286396 118.85261126421891 l -8.880750281601326 18.098285880566493 a41.159753901743805,41.159753901743805 0 0,0 -0.6333625540041792,-0.31758113296863455 l 9.190966743288264 -17.94273690668856" fill="#fcff18" stroke="none" /><path d="M 90.42595943632237 118.69057910512821 l -2.5461196591239177 4.970571263351504 a26.584738490084657,26.584738490084657 0 0,0 -0.40549207582515,-0.21213428933267803 l 2.6313026374755633 -4.926007555074109" fill="#ff4406" stroke="none" /><line stroke="#e1ed5e" stroke-width="0.3" x1="58.666819895761336" x2="56.23545636021788" y1="174.27360380694188" y2="178.64263932499728" /><path d="M 58.180547188652646 175.14741091055294 a86.0,86.0 0 0,1 -31.652253787137756,-30.449443065178592" fill="none" id="id320" stroke="none" /><text fill="#e1ed5e" style="font-size:6.75px; font-family:Arial;" text-anchor="middle"><textPath startOffset="22.20632615414155" xlink:href="#id320">August</textPath></text><path d="M 89.7882731507175 118.34994917583269 l -18.215457673195154 32.7322427882164 a58.459346179434434,58.459346179434434 0 0,0 -0.8750841693564394,-0.49689562965450745 l 18.7761906094728 -32.41384399276726" fill="#3fff2d" stroke="none" /><path d="M 89.4739219176387 118.17145234162733 l -7.9763485341383165 13.769785490303812 a36.91317467971215,36.91317467971215 0 0,0 -0.5470745686984777,-0.32322129815598505 l 8.212190973865177 -13.630445619854077" fill="#ffce13" stroke="none" /><path d="M 89.1626897886671 117.98757091392108 l -17.360982411644777 28.8154437009872 a54.641247093147456,54.641247093147456 0 0,0 -0.8014590783965566,-0.49232162556685033 l 17.854420689973644 -28.51233360859197" fill="#65ff29" stroke="none" /><path d="M 88.8546689885994 117.79835938074946 l -1.9409108550069656 3.099506769971699 a24.657058539890258,24.657058539890258 0 0,0 -0.3577835450047084,-0.2283543863645454 l 1.9939762020585974 -3.0656379547833494" fill="#ff2904" stroke="none" /><path d="M 88.54995079064634 117.60387380957326 l -3.744830086267749 5.757487594297598 a27.868217801839634,27.868217801839634 0 0,0 -0.3998761487961756,-0.26501610684216775 l 3.843380933803886 -5.692173466364112" fill="#ff5608" stroke="none" /><path d="M 88.24862548938628 117.40417183066458 l -0.9724971239839363 1.4403001993814946 a22.737876670105045,22.737876670105045 0 0,0 -0.32249142973736133,-0.22181254600720965 l 0.9971454383441879 -1.4233468640091838" fill="#ff0e01" stroke="none" /><path d="M 87.95078237400918 117.19931262002967 l -5.142772909834307 7.340904758767392 a29.963090754835598,29.963090754835598 0 0,0 -0.41987232296818017,-0.29956775413619796 l 5.2683725606513745 -7.251292742786975" fill="#ff730a" stroke="none" /><path d="M 87.65650970185807 116.9893568818739 l -2.2615128797246378 3.112705440565692 a24.847515518472626,24.847515518472626 0 0,0 -0.3438600694012431,-0.25437945880980345 l 2.314757919544445 -3.073316033016122" fill="#ff2c04" stroke="none" /><path d="M 87.07902340077011 116.55440617244103 l -13.713631198639904 17.569958371016263 a43.28827310070375,43.28827310070375 0 0,0 -0.5834486359218539,-0.4635268829348685 l 14.014037327279116 -17.331297574076267" fill="#e3ff1b" stroke="none" /><path d="M 86.79598089348748 116.32954008644616 l -1.1014645625262751 1.3621920403539394 a22.751796602720997,22.751796602720997 0 0,0 -0.3024145743378523,-0.24886660640064887 l 1.1247492654088163 -1.3430303150961098" fill="#ff0e01" stroke="none" /><path d="M 86.51685102203217 116.09983520530335 l -13.75387851520802 16.423105454849452 a42.4216611632293,42.4216611632293 0 0,0 -0.5557935012835563,-0.47365927947635844 l 14.034537493068633 -16.183921785150144" fill="#edff1a" stroke="none" /><path d="M 86.24171649860922 115.8653595955263 l -1.8706284139030294 2.157114472396247 a23.8552396589293,23.8552396589293 0 0,0 -0.30791167299042055,-0.27169625113770507 l 1.9074824398000376 -2.1245950794862534" fill="#ff1e03" stroke="none" /><path d="M 85.97065885151581 115.62618273729859 l -24.04563840014586 26.782550634338264 a56.993023553898084,56.993023553898084 0 0,0 -0.7243554125610269,-0.6616814950734288 l 24.503093362173743 -26.36467637267826" fill="#4dff2c" stroke="none" /><path d="M 85.44109423537348 115.13401014063109 l -28.011913361370613 29.118437039374406 a61.40483468325226,61.40483468325226 0 0,0 -0.7554258078464144,-0.7393431490341409 l 28.508989121592823 -28.631943787417697" fill="#31ff40" stroke="none" /><path d="M 85.18274418774928 114.88116024355367 l -8.191793542897072 8.22712342545718 a32.60995440590343,32.60995440590343 0 0,0 -0.3943620779947997,-0.3994867029417031 l 8.332196245947406 -8.084896228534813" fill="#ff960d" stroke="none" /><path d="M 84.9287848128048 114.62390073753433 l -1.0934926126163595 1.0610376950702092 a22.52365582865897,22.52365582865897 0 0,0 -0.2675954556307415,-0.28057276539629894 l 1.1115946196260587 -1.0420578130914102" fill="#ff0b01" stroke="none" /><path d="M 84.67929136418377 114.36230785411682 l -15.543809319198681 14.571452272522627 a42.30580271855563,42.30580271855563 0 0,0 -0.49347420659686936,-0.5355687889214238 l 15.79232993379128 -14.301732228799859" fill="#eeff19" stroke="none" /><path d="M 84.43433777217949 114.09645910891817 l -5.2797006269998406 4.781363163772944 a28.122967949852598,28.122967949852598 0 0,0 -0.32186221277954696,-0.361615608095715 l 5.361221689427725 -4.689773385936365" fill="#ff5a08" stroke="none" /><path d="M 84.19399662182784 113.82643327865904 l -16.758596858011334 14.659722369870462 a43.26562437056342,43.26562437056342 0 0,0 -0.4855175457628729,-0.5647665932879254 l 17.008456913344986 -14.369078677421006" fill="#e3ff1b" stroke="none" /><path d="M 83.72743513129214 113.27417163493432 l -23.9340102508433 19.52391417980559 a51.887215342077795,51.887215342077795 0 0,0 -0.5586080943902858,-0.6969494876729165 l 24.266536257288447 -19.10903685855441" fill="#82ff25" stroke="none" /><path d="M 83.50135304334701 112.99209946851258 l -2.4967147452998346 1.9660743332869024 a24.177897544510703,24.177897544510703 0 0,0 -0.25466600527837,-0.3291901411452744 l 2.530187567796273 -1.9228061980283753" fill="#ff2203" stroke="none" /><path d="M 83.28015986056508 112.70617746262583 l -12.876972092079473 9.785804841359674 a37.17338513278442,37.17338513278442 0 0,0 -0.3827774149413838,-0.5127928999051342 l 13.043510773715942 -9.562699061945231" fill="#ffd113" stroke="none" /><path d="M 83.06392112726016 112.41649034213515 l -23.224602279296533 17.02684854432096 a49.79749507132088,49.79749507132088 0 0,0 -0.5008684403875743,-0.6956624565065773 l 23.514250512059714 -16.624552482363246" fill="#99ff23" stroke="none" /><path d="M 82.85270091963577 112.12312394758628 l -2.0970241355359875 1.4825940456882 a23.56818911479092,23.56818911479092 0 0,0 -0.23134881542639388,-0.33327522343171906 l 2.1222338581245155 -1.4462775600694684" fill="#ff1a02" stroke="none" /><path d="M 82.6465618267979 111.8261652097733 l -28.987455886920777 19.75461225079436 a56.07873007928612,56.07873007928612 0 0,0 -0.5367452665926845,-0.8023613470019599 l 29.323204258924193 -19.252713989586578" fill="#56ff2a" stroke="none" /><path d="M 82.44556493220864 111.52570212397912 l -4.888834682212672 3.209858480945737 a26.84840969988464,26.84840969988464 0 0,0 -0.2503232402522841,-0.3885072278216387 l 4.943362785842003 -3.12522965320265" fill="#ff4806" stroke="none" /><path d="M 82.24976979558568 111.22182372390057 l -15.612839739716065 9.870550036304966 a39.47128914714014,39.47128914714014 0 0,0 -0.35812744287717374,-0.5774154681782802 l 15.780431822261194 -9.60033823676142" fill="#ffed16" stroke="none" /><path d="M 82.05923443525364 110.91462005526583 l -10.138514014402165 6.167965797938454 a32.867319347888454,32.867319347888454 0 0,0 -0.28988838608392664,-0.4858696094254762 l 10.243183276184324 -5.992534094626866" fill="#ff990e" stroke="none" /><line stroke="#e1ed5e" stroke-width="0.3" x1="26.63291911575756" x2="22.317208475507996" y1="142.92168965132927" y2="145.44649492493687" /><path d="M 25.769776987707644 143.4266507060508 a86.0,86.0 0 0,1 -11.730757126820373,-40.83630448921669" fill="none" id="id321" stroke="none" /><text fill="#e1ed5e" style="font-size:6.75px; font-family:Arial;" text-anchor="middle"><textPath startOffset="21.46611528233685" xlink:href="#id321">September</textPath></text><path d="M 81.87401531095188 110.60418214915194 l -4.403022141852802 2.575884819497116 a26.101155416664124,26.101155416664124 0 0,0 -0.2235352714192195,-0.38975258756351533 l 4.4467094094243995 -2.4997123860752937" fill="#ff3e05" stroke="none" /><path d="M 81.69416730710424 110.29060199501025 l -0.6939561654101727 0.3901066299481147 a21.796089405933948,21.796089405933948 0 0,0 -0.1810358178142267,-0.3286325947407418 l 0.700568392675916 -0.37810351680955034" fill="#ff0000" stroke="none" /><path d="M 81.51974371655577 109.97397251340807 l -18.991551984093203 10.249923733254791 a42.5810097841147,42.5810097841147 0 0,0 -0.34256927620370303,-0.6480119699749434 l 19.165173768521793 -9.921496748193722" fill="#ebff1a" stroke="none" /><path d="M 81.35079622478065 109.6543875284942 l -3.1374467829412684 1.6242048431467764 a24.532932731922582,24.532932731922582 0 0,0 -0.19091450005213456,-0.37669242066618 l 3.1649399527796698 -1.5699582107779113" fill="#ff2703" stroke="none" /><path d="M 81.18737489456691 109.33194174019688 l -11.746623462867392 5.826874515659717 a34.11242271281823,34.11242271281823 0 0,0 -0.256406420676212,-0.52827317166615 l 11.845183140158323 -5.623812388028282" fill="#ffaa0f" stroke="none" /><path d="M 81.02952815118164 109.00673069616217 l -18.209902249850195 8.645630265546306 a41.158061976232474,41.158061976232474 0 0,0 -0.2983477025934356,-0.6426144091286176 l 18.35602456928346 -8.33089578913886" fill="#fcff18" stroke="none" /><path d="M 80.87730276802145 108.67885076344099 l -2.991185893983227 1.3575520055914354 a24.284834927397352,24.284834927397352 0 0,0 -0.1694837649732992,-0.3821411476075589 l 3.014110743687806 -1.3058625214911808" fill="#ff2403" stroke="none" /><path d="M 80.73074385275274 108.34839909993369 l -3.2420787801521556 1.4046296008163734 a24.533278807595355,24.533278807595355 0 0,0 -0.16454705943739925,-0.3889406420944313 l 3.2657768207818614 -1.3486144330557832" fill="#ff2703" stroke="none" /><path d="M 80.58989483394504 108.01547362559985 l -31.053810671903832 12.823784224019569 a54.59744929411549,54.59744929411549 0 0,0 -0.35123679370713484,-0.8717409172613002 l 31.269950079868355 -12.287343938915463" fill="#66ff29" stroke="none" /><path d="M 80.45479744820244 107.68017299344265 l -0.8033196710345913 0.31565976490807385 a21.863112727894187,21.863112727894187 0 0,0 -0.13462026388612755,-0.35145102917176707 l 0.808634214514228 -0.30178516890314894" fill="#ff0100" stroke="none" /><path d="M 80.32549172779594 107.34259656027581 l -19.534752339617462 7.290439148477202 a41.85082856741762,41.85082856741762 0 0,0 -0.24607438023359793,-0.6770910096618793 l 19.657350980856283 -6.953100341809206" fill="#f4ff19" stroke="none" /><path d="M 80.20201598880116 107.00284435728193 l -20.54805906356377 7.268157171203818 a42.79561515408608,42.79561515408608 0 0,0 -0.23967413035930685,-0.6966052117977127 l 20.670124024866304 -6.913379256316809" fill="#e9ff1a" stroke="none" /><path d="M 80.0844068197444 106.66101706037122 l -11.886194703929279 3.975485188372927 a33.53339965941759,33.53339965941759 0 0,0 -0.17837812341552434,-0.5489914138281772 l 11.952865078361054 -3.7702948745669462" fill="#ffa20f" stroke="none" /><path d="M 79.97269907076064 106.31721596034903 l -38.65863039530547 12.194100333405895 a61.53622808034815,61.53622808034815 0 0,0 -0.30994692627891973,-1.0129244884886492 l 38.86280409409053 -11.526848872365198" fill="#31ff41" stroke="none" /><path d="M 79.86692584326677 105.97154293290107 l -3.3883758465310008 1.0050045851342566 a24.534278581761143,24.534278581761143 0 0,0 -0.11660484053082448,-0.40591674700574343 l 3.4051733239479294 -0.9465303626239173" fill="#ff2703" stroke="none" /><path d="M 79.76711848015287 105.62410040840567 l -19.190481270691688 5.334346145709751 a40.918077723591125,40.918077723591125 0 0,0 -0.18279064684032628,-0.6802319966825555 l 19.27945999387379 -5.003223215851656" fill="#ffff18" stroke="none" /><path d="M 79.67330655649465 105.27499134158121 l -14.556208729493456 3.7774896949046237 a36.038372284648766,36.038372284648766 0 0,0 -0.1506553018007002,-0.6017930416028063 l 14.619075345589215 -3.5263688139044254" fill="#ffc212" stroke="none" /><path d="M 79.58551787078972 104.9243191809786 l -15.10749180249503 3.644183143546691 a36.540797255809125,36.540797255809125 0 0,0 -0.14222971848267432,-0.6127219047257905 l 15.16798208690826 -3.383592581472326" fill="#ffc912" stroke="none" /><path d="M 79.50377843672027 104.57218783832718 l -17.90338454539989 3.993791579128185 a39.34343341247703,39.34343341247703 0 0,0 -0.1417599385255253,-0.6622552384776663 l 17.969478522649855 -3.685022521234355" fill="#ffec16" stroke="none" /><path d="M 79.4281124754447 104.21870165774334 l -3.3030764138119224 0.6773658433611583 a24.371815279820797,24.371815279820797 0 0,0 -0.08074042012008616,-0.4116936627119952 l 3.314246766907675 -0.6204084535812083" fill="#ff2503" stroke="none" /><path d="M 79.35854240842038 103.8639653848113 l -38.82023232432634 7.266930315653668 a60.49454030530344,60.49454030530344 0 0,0 -0.1827901810203259,-1.0251844084605402 l 38.939568947685856 -6.5976271564599145" fill="#30ff35" stroke="none" /><path d="M 79.29508885075956 103.50808413554451 l -3.6164751695759407 0.6127483029283812 a24.66801760286138,24.66801760286138 0 0,0 -0.06732988058956248,-0.4192632307026023 l 3.626486804526794 -0.5504058425325652" fill="#ff2904" stroke="none" /><path d="M 79.23777060512086 103.15116336523772 l -14.74013485534258 2.237166928050385 a35.908939983031914,35.908939983031914 0 0,0 -0.08749119005808662,-0.611913179491048 l 14.776460096417265 -1.9831082765789365" fill="#ffc111" stroke="none" /><path d="M 79.18660465613746 102.79330883721812 l -12.28604804271748 1.6488768893888845 a33.39619988158963,33.39619988158963 0 0,0 -0.07156088531248203,-0.5704106653235784 l 12.31261043727681 -1.4371484697778973" fill="#ffa00e" stroke="none" /><path d="M 79.1416061653843 102.43462659150553 l -15.958949529284281 1.8627552631597948 a37.06729371265343,37.06729371265343 0 0,0 -0.06851747769093981,-0.6343867475287969 l 15.988649308476273 -1.587772193746216" fill="#ffcf13" stroke="none" /><path d="M 79.10278846688536 102.07522291339032 l -6.688850007103595 0.6642443551368626 a27.721750886551877,27.721750886551877 0 0,0 -0.04306825307524284,-0.4752545838656648 l 6.699292856455913 -0.5490083827226316" fill="#ff5407" stroke="none" /><path d="M 79.07016306316243 101.71520430193888 l -41.24354562702531 3.379916771457421 a62.38180630748854,62.38180630748854 0 0,0 -0.07849247616089138,-1.0709674746526399 l 41.29561466185054 -2.6694761603080206" fill="#32ff4b" stroke="none" /><path d="M 79.04373962182676 101.35467743843564 l -8.404287088837746 0.543279091781207 a29.421828402619674,29.421828402619674 0 0,0 -0.028320119789419514,-0.505674763220514 l 8.412393559514697 -0.3985326122252555" fill="#ff6b09" stroke="none" /><path d="M 79.0235259727143 100.99374915477108 l -3.5232517860584527 0.16691215501170337 a24.52720325689557,24.52720325689557 0 0,0 -0.016348977748648463,-0.42189447064300395 l 3.525602896658302 -0.10624043735470264" fill="#ff2703" stroke="none" /><path d="M 79.0095281055655 100.63252640178507 l -6.151701993053934 0.18537524768808022 a27.1544944060255,27.1544944060255 0 0,0 -0.010057426443351525,-0.467329086924171 l 6.153981482182293 -0.07945634497378035" fill="#ff4c07" stroke="none" /><line stroke="#e1ed5e" stroke-width="0.3" x1="15.007084014347285" x2="10.007500721073583" y1="101.09737516637583" y2="101.16192664675087" /><path d="M 14.007167355692545 101.11028546245083 a86.0,86.0 0 0,1 10.666146001902534,-42.60595125391555" fill="none" id="id322" stroke="none" /><text fill="#e1ed5e" style="font-size:6.75px; font-family:Arial;" text-anchor="middle"><textPath startOffset="22.20632615414155" xlink:href="#id322">October</textPath></text><path d="M 79.00019446554 99.90962569577889 l -10.886632341493273 -0.04685147305574322 a31.88673315551432,31.88673315551432 0 0,0 0.0070864360321947085,-0.5488522802199725 l 10.884212898343362 0.2342400113361876" fill="#ff8c0c" stroke="none" /><path d="M 79.00486145842228 99.54816195383935 l -5.420789278469145 -0.11666123714218803 a26.422044471029132,26.422044471029132 0 0,0 0.013699585395576152,-0.45462254444986655 l 5.417977998617924 0.20995392901704898" fill="#ff4206" stroke="none" /><path d="M 79.01574976396665 99.18683210126434 l -5.80494623679445 -0.22494946831800075 a26.809303148861368,26.809303148861368 0 0,0 0.021838592507205556,-0.46097817172526806 l 5.800214036053746 0.3248387466662779" fill="#ff4706" stroke="none" /><path d="M 79.03285615573316 98.82574320788736 l -19.443248394799536 -1.0889116160935541 a40.47371655975146,40.47371655975146 0 0,0 0.04494395952515712,-0.695263161186815 l 19.421623844269966 1.423433841533381" fill="#fffa17" stroke="none" /><path d="M 79.05617556472873 98.46500227214037 l -6.224126695793359 -0.45617362604813805 a27.24082105995593,27.24082105995593 0 0,0 0.038299966808376835,-0.4673566053207322 l 6.215352245165485 0.5632441485766486" fill="#ff4d07" stroke="none" /><path d="M 79.08570108090925 98.10471618934814 l -5.799190414161942 -0.5255309656502885 a26.82295391150961,26.82295391150961 0 0,0 0.04562823863867765,-0.45947013622653904 l 5.789285049841036 0.6252766325812578" fill="#ff4806" stroke="none" /><path d="M 79.12142395522702 97.74499172005258 l -20.452025450358633 -2.208938321912059 a41.57096870670239,41.57096870670239 0 0,0 0.08296307732365471,-0.7107769818115579 l 20.41097202003139 2.5606590420484787" fill="#f7ff18" stroke="none" /><path d="M 79.16333360222342 97.38593545837743 l -8.700357767812983 -1.091503617041986 a29.76855777388502,29.76855777388502 0 0,0 0.06816149333554354,-0.507882296836738 l 8.680280275419605 1.2411042559433834" fill="#ff700a" stroke="none" /><path d="M 79.21141760316559 97.0276538004421 l -1.7986437254701115 -0.25716962030916773 a22.816935734907254,22.816935734907254 0 0,0 0.05893734730442392,-0.38832348019754503 l 1.7939504847263854 0.2880922128988048" fill="#ff0f01" stroke="none" /><line stroke="#e1ed5e" stroke-width="0.3" x1="26.266209847984243" x2="21.928928074336255" y1="57.711370442889674" y2="55.22380399835377" /><path d="M 25.398753493254645 57.213857153982495 a86.0,86.0 0 0,1 29.58750427330803,-30.492523968695096" fill="none" id="id323" stroke="none" /><text fill="#e1ed5e" style="font-size:6.75px; font-family:Arial;" text-anchor="middle"><textPath startOffset="21.46611528233685" xlink:href="#id323">November</textPath></text><line stroke="#e1ed5e" stroke-width="0.3" x1="56.762969772571076" x2="54.21961505331055" y1="26.818313649435495" y2="22.513508569990535" /><path d="M 56.25429882871897 25.957352633546506 a86.0,86.0 0 0,1 42.265352541879196,-11.944610805530505" fill="none" id="id324" stroke="none" /><text fill="#e1ed5e" style="font-size:6.75px; font-family:Arial;" text-anchor="middle"><textPath startOffset="22.20632615414155" xlink:href="#id324">December</textPath></text></svg>