<?xml version="1.0" encoding="utf-8" ?>
<svg baseProfile="full" height="200mm" version="1.1" viewBox="0,0,200,200" width="200mm" xmlns="http://www.w3.org/2000/svg" xmlns:ev="http://www.w3.org/2001/xml-events" xmlns:xlink="http://www.w3.org/1999/xlink"><defs /><rect fill="#1a1a1a" height="200" width="200" x="0" y="0" /><text alignment-baseline="middle" fill="#e1ed5e" style="dominant-baseline: central; font-size:9.0px; font-family:Arial;" text-anchor="middle" x="100.0" y="100.0">2019</text><line stroke="#e1ed5e" stroke-width="0.3" x1="100.0" x2="100.0" y1="15.0" y2="10.0" /><path d="M 100.0 14.0 a86.0,86.0 0 0,1 42.46469731375804,11.215312516191453" fill="none" id="id97" stroke="none" /><text fill="#e1ed5e" style="font-size:6.75px; font-family:Arial;" text-anchor="middle"><textPath startOffset="22.20632615414155" xlink:href="#id97">January</textPath></text><path d="M 100.0 79.0 l 0.0 -9.93223587999477 a30.93223587999477,30.93223587999477 0 0,0 0.5324475928986385,0.004582944531782909 l -0.1709671136261101 9.930764312071547" fill="#ff7a0b" stroke="none" /><path d="M 103.95276090670814 79.375362276772 l 2.8076778279659718 -14.64984587027888 a35.91646871107833,35.91646871107833 0 0,0 0.6061906173585305,0.12159613509687608 l -3.0594348547916277 14.599345779104794" fill="#ffbc11" stroke="none" /><path d="M 104.307194497241 79.44645832069477 l 1.7406797810694488 -8.306366116842888 a29.48679469336095,29.48679469336095 0 0,0 0.49587981368340767,0.10838012070217996 l -1.8834023189063844 8.275172498044837" fill="#ff6709" stroke="none" /><path d="M 105.71112130821622 79.79150937346287 l 1.3564189321901932 -4.799614260931271 a25.98760156521537,25.98760156521537 0 0,0 0.42942628385884335,0.1253613079024397 l -1.4388354337724636 4.7755546241101285" fill="#ff3605" stroke="none" /><path d="M 106.74666289553966 80.11325718540242 l 3.330855672202893 -9.818168053043664 a31.36778777882984,31.36778777882984 0 0,0 0.5098281172208923,0.17786901936087213 l -3.499365793487059 9.759378180510584" fill="#ff800b" stroke="none" /><path d="M 107.4271985657038 80.35727306442388 l 3.2986050823752273 -8.723827473873428 a30.32662646852443,30.32662646852443 0 0,0 0.48669446041235376,0.18882988938788714 l -3.448282707787248 8.665754880594992" fill="#ff720a" stroke="none" /><path d="M 108.09893153111575 80.62456947434976 l 4.100254990314723 -9.809220561634875 a31.63169313949576,31.63169313949576 0 0,0 0.5005583523260522,0.21431296339160036 l -4.268497100431091 9.737188070280483" fill="#ff840c" stroke="none" /><path d="M 108.76106565485865 80.91482961587045 l 4.569651655248009 -9.954563048864058 a31.953311907552006,31.953311907552006 0 0,0 0.49789618463290586,0.23376893474410254 l -4.740326051180514 9.874429131479953" fill="#ff880c" stroke="none" /><path d="M 109.41281617654863 81.2277094730956 l 4.764696079718403 -9.502390932027383 a31.630040552940528,31.630040552940528 0 0,0 0.48460161071671304,0.2482317670377775 l -4.927558178023872 9.418966639677105" fill="#ff840c" stroke="none" /><path d="M 110.05341064243156 81.56283822128135 l 4.666608226226589 -8.558191233301615 a30.747813576533268,30.747813576533268 0 0,0 0.46249969631098536,0.2573805802592668 l -4.8132320116096095 8.476595255482168" fill="#ff780b" stroke="none" /><line stroke="#e1ed5e" stroke-width="0.3" x1="143.23703022742887" x2="145.7803849466894" y1="26.81831364943548" y2="22.513508569990506" /><path d="M 143.74570117128098 25.957352633546492 a86.0,86.0 0 0,1 28.547481713284135,27.462654790039103" fill="none" id="id98" stroke="none" /><text fill="#e1ed5e" style="font-size:6.75px; font-family:Arial;" text-anchor="middle"><textPath startOffset="19.985693538727396" xlink:href="#id98">February</textPath></text><path d="M 112.19680574252982 82.90503203632743 l 6.101242346820995 -8.551463773323468 a31.504888901892556,31.504888901892556 0 0,0 0.4387501103386677,0.3187706143280847 l -6.247537773513452 8.445173924178707" fill="#ff820c" stroke="none" /><path d="M 113.6212207817346 84.01681056812373 l 6.410617193532666 -7.522241260260041 a30.883325674062107,30.883325674062107 0 0,0 0.40163941714276014,0.34829774472566355 l -6.53915040932219 7.410778522114707" fill="#ff7a0b" stroke="none" /><path d="M 115.68641384162765 86.03803664274999 l 8.143740659103894 -7.248476919027761 a31.902335968425305,31.902335968425305 0 0,0 0.36157216815991855,0.4133394922759853 l -8.267304690841662 7.107221870548828" fill="#ff880c" stroke="none" /><path d="M 115.9244219780498 86.31012108654704 l 6.348707569576059 -5.457845691618776 a29.37222595236858,29.37222595236858 0 0,0 0.3262965987117067,0.3862322536294417 l -6.441714781774883 5.347754488360228" fill="#ff6509" stroke="none" /><path d="M 117.2510076193507 88.02491185347247 l 4.192174806669788 -2.9100713386278265 a26.103219063060102,26.103219063060102 0 0,0 0.2530465127870745,0.3713145332153773 l -4.241645785125597 2.837478782142043" fill="#ff3805" stroke="none" /><line stroke="#e1ed5e" stroke-width="0.3" x1="172.23445277983987" x2="176.4835382374775" y1="55.19839476539836" y2="52.563006222186495" /><path d="M 173.08426987136738 54.67131705675599 a86.0,86.0 0 0,1 12.851231095245387,41.99856678651699" fill="none" id="id99" stroke="none" /><text fill="#e1ed5e" style="font-size:6.75px; font-family:Arial;" text-anchor="middle"><textPath startOffset="22.20632615414155" xlink:href="#id99">March</textPath></text><path d="M 118.89224826269711 90.83032412892265 l 6.228919055673662 -3.0233124175317414 a27.923860958752428,27.923860958752428 0 0,0 0.20616027799793554,0.4342261228895056 l -6.280037527513354 2.915643879001695" fill="#ff5107" stroke="none" /><path d="M 119.47837535516314 92.15188598940014 l 2.635693915794562 -1.0619585037782453 a23.841590801206852,23.841590801206852 0 0,0 0.15009581357146018,0.38197747380635994 l -2.6535832792477225 1.016432025076101" fill="#ff1702" stroke="none" /><path d="M 119.61058180528143 92.48833698450437 l 2.7642815628484727 -1.058834041041719 a23.960132106033907,23.960132106033907 0 0,0 0.14421194081417027,0.3864163037159199 l -2.782098092164268 1.0110946002964658" fill="#ff1902" stroke="none" /><path d="M 119.7369772167798 92.82701384747503 l 2.65348172394702 -0.964351706585972 a23.823285227056616,23.823285227056616 0 0,0 0.13675350662432628,0.38662057865222205 l -2.669688311381156 0.9185335015071354" fill="#ff1702" stroke="none" /><path d="M 119.85752413597 93.16781622104841 l 2.7062910823354 -0.9311270583003147 a23.861993889061804,23.861993889061804 0 0,0 0.13028956168196723,0.3895492058606554 l -2.7219179377891374 0.8844047495173454" fill="#ff1702" stroke="none" /><path d="M 120.37134235888165 94.90015583598534 l 2.824287137679993 -0.7070434546164914 a23.911444363675987,23.911444363675987 0 0,0 0.09651934192514408,0.4001349848452474 l -2.8360392798659566 0.6583232381118379" fill="#ff1802" stroke="none" /><path d="M 120.53481517161879 95.60439243477599 l 5.253672107335174 -1.1245818707015143 a26.37268601309458,26.37268601309458 0 0,0 0.09120014413731627,0.4447242918854993 l -5.272251547387487 1.0339819226526032" fill="#ff3b05" stroke="none" /><path d="M 120.67395015179393 96.31383870115 l 4.772687716992138 -0.8509692934684067 a25.84795800129846,25.84795800129846 0 0,0 0.0743290508191367,0.4386942654608629 l -4.7866286293314975 0.7686892396917059" fill="#ff3404" stroke="none" /><path d="M 120.78858239683441 97.02765380044208 l 2.7827809340350504 -0.3978813069399493 a23.811081510956456,23.811081510956456 0 0,0 0.054520574562227114,0.4062416076656617 l -2.789217507655114 0.3499213572096232" fill="#ff1702" stroke="none" /><path d="M 120.83666639777658 97.38593545837742 l 6.9332644752087305 -0.869812880637594 a27.987612663171483,27.987612663171483 0 0,0 0.05585480795170484,0.4785298845738269 l -6.947209636164024 0.7503392577389144" fill="#ff5207" stroke="none" /><path d="M 120.94382443527127 98.46500227214037 l 2.8319609575927718 -0.20755777669580108 a23.839556848523493,23.839556848523493 0 0,0 0.026472589353533648,0.40951924025377745 l -2.835114137950721 0.15877947218898836" fill="#ff1702" stroke="none" /><line stroke="#e1ed5e" stroke-width="0.3" x1="184.98032266829074" x2="189.97916517819016" y1="98.17113171792111" y2="98.06355123074" /><path d="M 185.9800911702706 98.14961562048488 a86.0,86.0 0 0,1 -9.607161424134198,41.387399972396054" fill="none" id="id100" stroke="none" /><text fill="#e1ed5e" style="font-size:6.75px; font-family:Arial;" text-anchor="middle"><textPath startOffset="21.466115282336823" xlink:href="#id100">April</textPath></text><path d="M 120.92983693683757 101.71520430193887 l 8.154746013302093 0.6682830585563081 a29.18208315698513,29.18208315698513 0 0,0 -0.04533701164155237,0.5002901455922826 l -8.142034405383464 -0.8085545926971611" fill="#ff6309" stroke="none" /><path d="M 120.89721153311464 102.0752229133903 l 2.7954878941017935 0.2776093127426261 a23.809238241337162,23.809238241337162 0 0,0 -0.044010468168659604,0.4074822760503741 l -2.790295124432082 -0.3256879106777917" fill="#ff1702" stroke="none" /><path d="M 120.8583938346157 102.4346265915055 l 11.886761398573354 1.387442658207968 a32.96745978378155,32.96745978378155 0 0,0 -0.07064218734454288,0.5630877386041314 l -11.861117701981962 -1.5918481510994942" fill="#ff960d" stroke="none" /><path d="M 120.81339534386255 102.79330883721812 l 7.722580885425474 1.036426449265121 a28.79181848586549,28.79181848586549 0 0,0 -0.07015051027557467,0.49063250548024384 l -7.703596324133297 -1.169204426725774" fill="#ff5d08" stroke="none" /><path d="M 120.76222939487914 103.15116336523771 l 2.6898614632606894 0.4082506141022775 a23.720665958078982,23.720665958078982 0 0,0 -0.06474414086185688,0.4031618269498915 l -2.6824355680375445 -0.45449167074537394" fill="#ff1502" stroke="none" /><path d="M 120.64145759157962 103.86396538481128 l 21.958156229795048 4.110444003761524 a43.33956971206353,43.33956971206353 0 0,0 -0.14357794141305413,0.732100830006495 l -21.88414835540633 -4.487808560835964" fill="#e6ff1a" stroke="none" /><path d="M 120.49622156327973 104.57218783832717 l 2.87764346467619 0.6419293630102997 a23.948373317083234,23.948373317083234 0 0,0 -0.09321554675343965,0.401570135736301 l -2.8661673519921975 -0.6913681560951657" fill="#ff1902" stroke="none" /><path d="M 120.41448212921028 104.9243191809786 l 7.266273190330259 1.7527482803090848 a28.47468076981477,28.47468076981477 0 0,0 -0.11903594288808302,0.4754894203819222 l -7.235025933147115 -1.877565540088403" fill="#ff5908" stroke="none" /><path d="M 120.23288151984713 105.62410040840565 l 2.7230916467266804 0.756933253795739 a23.826336156081656,23.826336156081656 0 0,0 -0.11324018020970954,0.3942039230259745 l -2.7096588296308717 -0.8036946523262953" fill="#ff1702" stroke="none" /><path d="M 120.13307415673323 105.97154293290107 l 8.567357868591138 2.5411094667184733 a29.93626645587276,29.93626645587276 0 0,0 -0.1507835962930504,0.4927695169661827 l -8.522347499791955 -2.688205956236713" fill="#ff6d0a" stroke="none" /><path d="M 120.02730092923936 106.31721596034902 l 9.317247718781607 2.9389415080731074 a30.76977390941142,30.76977390941142 0 0,0 -0.1636772466742554,0.5037467674995325 l -9.265278221091105 -3.098887175550435" fill="#ff780b" stroke="none" /><path d="M 119.54520255179757 107.68017299344265 l 4.334518921979303 1.7032238512713658 a25.657147815190783,25.657147815190783 0 0,0 -0.16505779025923475,0.40965989913256406 l -4.3045585174626755 -1.7775831182467434" fill="#ff3104" stroke="none" /><path d="M 119.41010516605496 108.01547362559984 l 7.686084284403449 3.173996500210347 a29.31565664336264,29.31565664336264 0 0,0 -0.19662292732956183,0.4647585187333044 l -7.630310375881579 -3.305829544609815" fill="#ff6409" stroke="none" /><line stroke="#e1ed5e" stroke-width="0.3" x1="174.80103733775053" x2="179.2010983576182" y1="140.37084112569926" y2="142.7455964860345" /><path d="M 175.68104954172406 140.8457921977663 a86.0,86.0 0 0,1 -30.038265399797805,32.042727171017184" fill="none" id="id101" stroke="none" /><text fill="#e1ed5e" style="font-size:6.75px; font-family:Arial;" text-anchor="middle"><textPath startOffset="22.206326154141568" xlink:href="#id101">May</textPath></text><path d="M 117.94076556474637 110.91462005526583 l 8.460106219059943 5.1468731741123 a30.90271178557538,30.90271178557538 0 0,0 -0.28038377739531883,0.45206792529954076 l -8.370257801996662 -5.291737430777114" fill="#ff7a0b" stroke="none" /><path d="M 117.75023020441432 111.22182372390056 l 10.798811020112087 6.827086313803159 a33.77589241439566,33.77589241439566 0 0,0 -0.3149121652304118,0.4887506737196042 l -10.679693991504625 -7.011958587444217" fill="#ffa00e" stroke="none" /><path d="M 117.55443506779139 111.5257021239791 l 2.3454712468581405 1.539964278385973 a23.80583772669467,23.80583772669467 0 0,0 -0.2278523550553299,0.34060835539421425 l -2.3186157863920895 -1.5801095479859941" fill="#ff1702" stroke="none" /><path d="M 117.14729908036423 112.12312394758627 l 7.441005728310881 5.260783888834817 a30.1128707537076,30.1128707537076 0 0,0 -0.30287841965546464,0.42067163440625127 l -7.349347516279813 -5.3880891286922" fill="#ff6f0a" stroke="none" /><path d="M 116.93607887273984 112.41649034213515 l 2.2585459613264 1.6558268491070667 a23.800498600900852,23.800498600900852 0 0,0 -0.24507569854685876,0.32831894790178784 l -2.229708996084449 -1.6944586765181695" fill="#ff1702" stroke="none" /><path d="M 116.27256486870786 113.27417163493432 l 18.271441544143375 14.904734012830989 a44.57958167767803,44.57958167767803 0 0,0 -0.4901716063070647,0.5904432764868266 l -18.01217393794277 -15.217038546431585" fill="#d7ff1c" stroke="none" /><path d="M 115.80600337817218 113.82643327865902 l 7.970141524566911 6.971947770369108 a31.58920259671995,31.58920259671995 0 0,0 -0.3615326328946368,0.4061857456382515 l -7.848950042023936 -7.108107685748227" fill="#ff830c" stroke="none" /><path d="M 115.32070863581623 114.36230785411682 l 4.052259565731147 3.798766804543423 a26.554406973148495,26.554406973148495 0 0,0 -0.31548336056272813,0.3307830422641664 l -3.9862696537894537 -3.8679569633900965" fill="#ff3e05" stroke="none" /><path d="M 115.07121518719521 114.62390073753431 l 5.63600514263931 5.468728217232022 a28.853123090962377,28.853123090962377 0 0,0 -0.3489295764464999,0.35346381873790755 l -5.541034941137275 -5.564932529950595" fill="#ff5e08" stroke="none" /><path d="M 112.92097659922987 116.55440617244103 l 0.7893777996500785 1.0113539498008257 a22.282947435539793,22.282947435539793 0 0,0 -0.3043970220831402,0.2333986563784485 l -0.7718520490734445 -1.0247919480066456" fill="#ff0000" stroke="none" /><path d="M 112.34349029814194 116.9893568818739 l 1.6355935517717817 2.251201393897912 a23.7826379539001,23.7826379539001 0 0,0 -0.3332657343569866,0.23777625270965627 l -1.5966004895659105 -2.2790219084517873" fill="#ff1602" stroke="none" /><path d="M 112.04921762599082 117.19931262002967 l 1.6119541706940137 2.3009380834091457 a23.80939714389055,23.80939714389055 0 0,0 -0.3376888105041613,0.23226544307573335 l -1.5721084755669692 -2.3283443158499733" fill="#ff1702" stroke="none" /><path d="M 111.1453310114006 117.79835938074945 l 1.5026190225212517 2.3995835877666623 a23.83123035472599,23.83123035472599 0 0,0 -0.3495483162123881,0.21472112537065707 l -1.4610915063765548 -2.4250931799656974" fill="#ff1702" stroke="none" /><line stroke="#e1ed5e" stroke-width="0.3" x1="143.8653032363475" x2="146.44561519142675" y1="172.8068346515853" y2="177.08958963109032" /><path d="M 144.38136562736335 173.6633856474863 a86.0,86.0 0 0,1 -40.68145358897372,12.25698825130547" fill="none" id="id102" stroke="none" /><text fill="#e1ed5e" style="font-size:6.75px; font-family:Arial;" text-anchor="middle"><textPath startOffset="21.466115282336833" xlink:href="#id102">June</textPath></text><path d="M 110.5260780823613 118.17145234162733 l 7.133567921941953 12.314870600907673 a35.23178938904238,35.23178938904238 0 0,0 -0.5273884018103852,0.2994648985397365 l -6.920530753210369 -12.435838665242038" fill="#ffb310" stroke="none" /><path d="M 110.21172684928248 118.3499491758327 l 1.3408349647528353 2.409411632286534 a23.75737244791149,23.75737244791149 0 0,0 -0.3590499078527327,0.1957826377017118 l -1.299162245031454 -2.4321349217480166" fill="#ff1602" stroke="none" /><path d="M 107.93186726928326 119.44442032107085 l 1.0479875702055819 2.5690685578222525 a23.774597484698692,23.774597484698692 0 0,0 -0.3802564866999214,0.15131190365740557 l -1.0036100074637944 -2.5867273058857267" fill="#ff1602" stroke="none" /><path d="M 106.91757812671514 119.82793768551818 l 1.91967925330733 5.50239981587811 a26.827655803953597,26.827655803953597 0 0,0 -0.43732945600169465,0.14836589588554308 l -1.8246800643684082 -5.534628698661776" fill="#ff4206" stroke="none" /><path d="M 106.57524785965236 119.94407469862006 l 4.041278464225407 12.258026052982494 a33.907018801451,33.907018801451 0 0,0 -0.5558791821399879,0.17797496003522628 l -3.8296779369944782 -12.325773859677428" fill="#ffa20f" stroke="none" /><path d="M 106.2309692047433 120.05430185196036 l 2.9667580401823703 9.548476216871084 a30.99875248884277,30.99875248884277 0 0,0 -0.5109259046438664,0.15393778388009233 l -2.8019571610982577 -9.5981293698569" fill="#ff7b0b" stroke="none" /><path d="M 104.48393922423573 120.51570834832081 l 0.609019099233281 2.786491429432049 a23.85226905279449,23.85226905279449 0 0,0 -0.40186364072202346,0.08421443316029142 l -0.5609639970818795 -2.7965618433188815" fill="#ff1702" stroke="none" /><path d="M 103.06178313531738 120.77559828337769 l 0.4165396725182186 2.8264121013362264 a23.856940787864083,23.856940787864083 0 0,0 -0.4067851618039457,0.05637671679119083 l -0.3678259195274425 -2.83316338362002" fill="#ff1702" stroke="none" /><path d="M 102.70371172650421 120.8252237178851 l 0.3316390765944899 2.5544357765547945 a23.575873951432317,23.575873951432317 0 0,0 -0.4028921256555406,0.04878462559034586 l -0.28761952788756895 -2.559765930870491" fill="#ff1302" stroke="none" /><path d="M 101.98527174616119 120.90594882070398 l 0.2689562322585549 2.832249659261604 a23.844991315849345,23.844991315849345 0 0,0 -0.408948053133654,0.035285758788037906 l -0.22016386138335922 -2.8364596703283054" fill="#ff1702" stroke="none" /><line stroke="#e1ed5e" stroke-width="0.3" x1="102.19456741930631" x2="102.32365962044197" y1="184.97166512339345" y2="189.96999836594603" /><path d="M 102.22038585953345 185.97133177190398 a86.0,86.0 0 0,1 -42.740103519485714,-10.115201625700543" fill="none" id="id103" stroke="none" /><text fill="#e1ed5e" style="font-size:6.75px; font-family:Arial;" text-anchor="middle"><textPath startOffset="22.20632615414155" xlink:href="#id103">July</textPath></text><path d="M 99.81925306533755 120.99922214144158 l -0.042679628060145566 4.958529405894825 a25.95871308100953,25.95871308100953 0 0,0 -0.44678691933273057,-0.007691841997636055 l 0.12802623728554408 -4.957060086618029" fill="#ff3505" stroke="none" /><path d="M 98.01472825383883 120.90594882070398 l -0.2634551279101905 2.774320156065581 a23.786801200798852,23.786801200798852 0 0,0 -0.4072837306109618,-0.04221662396052581 l 0.3111714551267456 -2.769374163649294" fill="#ff1602" stroke="none" /><path d="M 97.2962882734958 120.8252237178851 l -1.910455812699077 14.715204033247195 a35.8387018014505,35.8387018014505 0 0,0 -0.6110864020990684,-0.08469100709894972 l 2.1634708059849763 -14.680138460655641" fill="#ffbb11" stroke="none" /><path d="M 96.22490169976321 120.6578951692458 l -2.8422999684024157 15.5534850001455 a36.81105830613914,36.81105830613914 0 0,0 -0.6223389447889999,-0.11927273994798096 l 3.109606527763111 -15.50225506184905" fill="#ffc812" stroke="none" /><path d="M 95.51606077576429 120.51570834832081 l -0.6477728243524584 2.963804297023736 a24.033767549273662,24.033767549273662 0 0,0 -0.40340089501403076,-0.09181273034463465 l 0.6986938687593519 -2.9522148331014146" fill="#ff1a02" stroke="none" /><path d="M 95.16358092515715 120.4354850818985 l -4.278047078636381 18.076177002501353 a39.57551780793171,39.57551780793171 0 0,0 -0.661564549098143,-0.1625964703828118 l 4.588564912477734 -17.999859273804514" fill="#ffeb16" stroke="none" /><path d="M 94.81253420990036 120.34920634021253 l -1.3892228952086072 5.449594173922137 a26.6238791694895,26.6238791694895 0 0,0 -0.4431095342461281,-0.11702925535428833 l 1.4828228722662247 -5.424873569264268" fill="#ff3f05" stroke="none" /><path d="M 94.46302465271185 120.25689768951611 l -2.30331093275273 8.426610375783536 a29.73573143349777,29.73573143349777 0 0,0 -0.4925778171107516,-0.13920741134232503 l 2.4480199179680953 -8.38571417110269" fill="#ff6a09" stroke="none" /><path d="M 93.76903079525671 120.05430185196036 l -6.6193182053043635 21.304198589570657 a43.30883795823839,43.30883795823839 0 0,0 -0.7100146894255589,-0.22732428202917446 l 6.985054239820863 -21.187101460881774" fill="#e6ff1a" stroke="none" /><path d="M 93.08242187328487 119.8279376855182 l -0.9337409835756841 2.6763930522523416 a23.834599088857804,23.834599088857804 0 0,0 -0.38621180238908814,-0.13848181157896772 l 0.9796723465944989 -2.659923699633416" fill="#ff1702" stroke="none" /><path d="M 92.40401165467489 119.57807347666478 l -2.853227442901904 7.353973437459105 a28.888081652707623,28.888081652707623 0 0,0 -0.4620427514631608,-0.1838563462828374 l 2.9793912704069228 -7.303770246770201" fill="#ff5e08" stroke="none" /><path d="M 91.07499286063937 119.00905698771935 l -4.18826071644811 8.920428341986941 a30.854723214452363,30.854723214452363 0 0,0 -0.4788173060928036,-0.22986140460432133 l 4.341190690541156 -8.847012660883058" fill="#ff790b" stroke="none" /><line stroke="#e1ed5e" stroke-width="0.3" x1="58.666819895761336" x2="56.23545636021788" y1="174.27360380694188" y2="178.64263932499728" /><path d="M 58.180547188652646 175.14741091055294 a86.0,86.0 0 0,1 -31.652253787137756,-30.449443065178592" fill="none" id="id104" stroke="none" /><text fill="#e1ed5e" style="font-size:6.75px; font-family:Arial;" text-anchor="middle"><textPath startOffset="22.20632615414155" xlink:href="#id104">August</textPath></text><path d="M 89.7882731507175 118.34994917583269 l -2.883282747759601 5.181111154051422 a26.92935343812158,26.92935343812158 0 0,0 -0.4031083552041974,-0.22889544456676736 l 2.9720398698850055 -5.130712543690021" fill="#ff4306" stroke="none" /><path d="M 89.4739219176387 118.17145234162733 l -4.759450122443358 8.216367045315573 a30.495317419200575,30.495317419200575 0 0,0 -0.45195821733538377,-0.2670248812094234 l 4.900176210807124 -8.133223591812401" fill="#ff750a" stroke="none" /><path d="M 89.1626897886671 117.98757091392108 l -2.6594433769796244 4.414095878233162 a26.15333692839851,26.15333692839851 0 0,0 -0.3836081792916764,-0.2356434751322037 l 2.7350307562036096 -4.367663936272581" fill="#ff3805" stroke="none" /><path d="M 88.8546689885994 117.79835938074946 l -5.643402355565602 9.012141779529099 a31.633282165029634,31.633282165029634 0 0,0 -0.4590112731747155,-0.292962711906836 l 5.7976954307872415 -8.913664638798458" fill="#ff840c" stroke="none" /><path d="M 88.54995079064634 117.60387380957326 l -7.534898705644583 11.584527154147622 a34.819405482491206,34.819405482491206 0 0,0 -0.49961751650986136,-0.33111924663225195 l 7.733190920894406 -11.453109886424052" fill="#ffae10" stroke="none" /><path d="M 88.24862548938628 117.40417183066458 l -7.780941048234874 11.523829394207505 a34.90473615366028,34.90473615366028 0 0,0 -0.49505406463915297,-0.34050269980277437 l 7.9781519974969175 -11.388185905039629" fill="#ffaf10" stroke="none" /><path d="M 87.36589467227662 116.77436683061367 l -5.177980245284097 6.874831087997413 a29.60667077963646,29.60667077963646 0 0,0 -0.4044430138870973,-0.3101096567137764 l 5.295551987664681 -6.78468208945627" fill="#ff6809" stroke="none" /><path d="M 87.07902340077011 116.55440617244103 l -4.201228641046808 5.3826307023361215 a27.828106280081137,27.828106280081137 0 0,0 -0.3750731892591428,-0.2979808257071947 l 4.293259323023309 -5.309515962623796" fill="#ff5007" stroke="none" /><path d="M 85.97065885151581 115.62618273729859 l -5.751504251919224 6.406149476559709 a29.60921322049066,29.60921322049066 0 0,0 -0.37631963564194865,-0.3437590647064765 l 5.860923437028028 -6.306197645266656" fill="#ff6809" stroke="none" /><path d="M 85.70375840098266 115.38237550388516 l -5.44236640845343 5.855841421308647 a28.994387460923843,28.994387460923843 0 0,0 -0.362656504274901,-0.342914360669599 l 5.542358747119148 -5.761292423893118" fill="#ff6008" stroke="none" /><path d="M 85.44109423537348 115.13401014063109 l -4.018457961015011 4.177194667985477 a26.79628843991491,26.79628843991491 0 0,0 -0.3296582092668558,-0.3226399416233153 l 4.089766122657662 -4.107404623439592" fill="#ff4106" stroke="none" /><path d="M 85.18274418774928 114.88116024355367 l -5.874746043680745 5.900082874584359 a29.32608065086486,29.32608065086486 0 0,0 -0.35464919579355525,-0.3592577629392706 l 5.9754358645298336 -5.798084617664424" fill="#ff6509" stroke="none" /><path d="M 84.67929136418377 114.36230785411682 l -7.78200588258477 7.295195468109364 a31.66674704277304,31.66674704277304 0 0,0 -0.369375401677042,-0.4008840459925933 l 7.906427692257542 -7.160160167315427" fill="#ff840c" stroke="none" /><path d="M 84.43433777217949 114.09645910891817 l -0.9307610311600004 0.8429088736405512 a22.25571153788918,22.25571153788918 0 0,0 -0.2547125387100493,-0.28617223742982645 l 0.945132419518388 -0.8267624664698606" fill="#ff0000" stroke="none" /><path d="M 83.95833913139862 113.55231037782056 l -8.667146841611771 7.322175992236321 a32.34608723901517,32.34608723901517 0 0,0 -0.35565909196577333,-0.42841428771182344 l 8.791901933471081 -7.171900447410737" fill="#ff8d0d" stroke="none" /><path d="M 83.72743513129214 113.27417163493432 l -6.8532773865157495 5.590488102177585 a29.844261877461413,29.844261877461413 0 0,0 -0.3212977637351425,-0.4008683620492047 l 6.9484930623057535 -5.471691906550121" fill="#ff6c09" stroke="none" /><path d="M 83.28015986056508 112.70617746262583 l -21.758412307444093 16.535220778295695 a48.328410717195325,48.328410717195325 0 0,0 -0.49764163410123774,-0.6666722923121816 l 22.039815208240416 -16.158235606474207" fill="#acff21" stroke="none" /><path d="M 83.06392112726016 112.41649034213515 l -5.962053857079698 4.371010827947556 a28.392687052266833,28.392687052266833 0 0,0 -0.28557663115210485,-0.3966409634322701 l 6.03641028060741 -4.267736259064147" fill="#ff5808" stroke="none" /><path d="M 82.85270091963577 112.12312394758628 l -5.018184327257168 3.547851489966623 a27.14568337430329,27.14568337430329 0 0,0 -0.26646602596394403,-0.3838641843763858 l 5.078511260383245 -3.4609460434032244" fill="#ff4606" stroke="none" /><path d="M 82.24976979558568 111.22182372390057 l -29.11083348050134 18.40407915908422 a55.44053942120123,55.44053942120123 0 0,0 -0.5030182455057843,-0.8110255762515101 l 29.42331636567508 -17.900257251467444" fill="#5fff29" stroke="none" /><path d="M 82.05923443525364 110.91462005526583 l -4.562175207382808 2.7754896430943305 a26.340110989650146,26.340110989650146 0 0,0 -0.23231868054830376,-0.3893794715444964 l 4.609274763629344 -2.696548077663723" fill="#ff3b05" stroke="none" /><line stroke="#e1ed5e" stroke-width="0.3" x1="26.63291911575756" x2="22.317208475507996" y1="142.92168965132927" y2="145.44649492493687" /><path d="M 25.769776987707644 143.4266507060508 a86.0,86.0 0 0,1 -11.730757126820373,-40.83630448921669" fill="none" id="id105" stroke="none" /><text fill="#e1ed5e" style="font-size:6.75px; font-family:Arial;" text-anchor="middle"><textPath startOffset="21.46611528233685" xlink:href="#id105">September</textPath></text><path d="M 81.87401531095188 110.60418214915194 l -4.95627814848042 2.899554268083622 a26.742134449720457,26.742134449720457 0 0,0 -0.2290247380669986,-0.3993239353724391 l 5.005454882699796 -2.813810486852876" fill="#ff4106" stroke="none" /><path d="M 81.69416730710424 110.29060199501025 l -8.258483890432435 4.642496860119641 a30.47392913551462,30.47392913551462 0 0,0 -0.25311295894935726,-0.4594735421218803 l 8.33717325883331 -4.499652799599938" fill="#ff740a" stroke="none" /><path d="M 81.51974371655577 109.97397251340807 l -8.26938067575214 4.463064488816052 a30.39689317763237,30.39689317763237 0 0,0 -0.24454661238652675,-0.4625900308382036 l 8.344979796363553 -4.320059442891722" fill="#ff730a" stroke="none" /><path d="M 81.35079622478065 109.6543875284942 l -11.137580811953258 5.765743277007711 a33.541511148149134,33.541511148149134 0 0,0 -0.2610189699623474,-0.5150151906118156 l 11.235178451701872 -5.57317387469321" fill="#ff9d0e" stroke="none" /><path d="M 81.18737489456691 109.33194174019688 l -19.693199833726382 9.768747981551764 a42.98296060175136,42.98296060175136 0 0,0 -0.32308192152591864,-0.665644452047552 l 19.85843501186702 -9.428314573538927" fill="#eaff1a" stroke="none" /><path d="M 80.45479744820244 107.68017299344265 l -20.413421610472053 8.021334593029696 a42.93284273641295,42.93284273641295 0 0,0 -0.2643553409109741,-0.6901483769843453 l 20.54847123097654 -7.6687626492121925" fill="#ebff1a" stroke="none" /><path d="M 80.20201598880116 107.00284435728193 l -24.768605319346033 8.761027784455843 a47.27240790840352,47.27240790840352 0 0,0 -0.2647461244485759,-0.7694761625614153 l 24.915742274737838 -8.333378918805131" fill="#b8ff1f" stroke="none" /><path d="M 79.86692584326677 105.97154293290107 l -3.220067842190622 0.9550838196294346 a24.35872327095105,24.35872327095105 0 0,0 -0.11577047326165325,-0.4030122050830561 l 3.2360309523383792 -0.8995141390417825" fill="#ff1f03" stroke="none" /><path d="M 79.76711848015287 105.62410040840567 l -6.367587877053362 1.7699878064706531 a27.609011439470486,27.609011439470486 0 0,0 -0.12333592730660328,-0.4589788675990196 l 6.397111880701741 -1.6601180056960947" fill="#ff4d07" stroke="none" /><path d="M 79.67330655649465 105.27499134158121 l -21.260388730747543 5.517295116642642 a42.964623247090444,42.964623247090444 0 0,0 -0.1796098955557164,-0.7174522506444881 l 21.352209940598318 -5.150515026600762" fill="#eaff1a" stroke="none" /><path d="M 79.50377843672027 104.57218783832718 l -12.051250599057784 2.688328736861494 a33.34745934995236,33.34745934995236 0 0,0 -0.12015559846722768,-0.5613269541804474 l 12.095740236249453 -2.4804879632648826" fill="#ff9b0e" stroke="none" /><path d="M 79.29508885075956 103.50808413554451 l -22.82504879636378 3.8673042834328 a44.15035410046778,44.15035410046778 0 0,0 -0.12050575435079076,-0.7503894473741115 l 22.88823630507586 -3.473835606365475" fill="#dcff1b" stroke="none" /><path d="M 79.23777060512086 103.15116336523772 l -12.741776473044597 1.9338683946825632 a33.88769625095909,33.88769625095909 0 0,0 -0.08256648274007436,-0.5774697879789769 l 12.773177006801271 -1.7142531347231857" fill="#ffa20f" stroke="none" /><path d="M 79.18660465613746 102.79330883721812 l -6.353767471641356 0.8527217464976656 a27.410732833353595,27.410732833353595 0 0,0 -0.05873531466375135,-0.4681782480616729 l 6.367504295551956 -0.7432257441485841" fill="#ff4a06" stroke="none" /><path d="M 79.10278846688536 102.07522291339032 l -25.73774822330998 2.5559182749069365 a46.86434615130449,46.86434615130449 0 0,0 -0.07280801016177141,-0.8034303251415232 l 25.777930829748826 -2.112506561216847" fill="#bdff1f" stroke="none" /><path d="M 79.0235259727143 100.99374915477108 l -11.190429075987973 0.5301405479931229 a32.20297959943441,32.20297959943441 0 0,0 -0.02146538239182722,-0.5539261402504665 l 11.197896591231002 -0.33743716072865965" fill="#ff8c0c" stroke="none" /><line stroke="#e1ed5e" stroke-width="0.3" x1="15.007084014347285" x2="10.007500721073583" y1="101.09737516637583" y2="101.16192664675087" /><path d="M 14.007167355692545 101.11028546245083 a86.0,86.0 0 0,1 10.666146001902534,-42.60595125391555" fill="none" id="id106" stroke="none" /><text fill="#e1ed5e" style="font-size:6.75px; font-family:Arial;" text-anchor="middle"><textPath startOffset="22.20632615414155" xlink:href="#id106">October</textPath></text><path d="M 79.00486145842228 99.54816195383935 l -34.20094021511823 -0.7360411541487691 a55.208859498362294,55.208859498362294 0 0,0 0.028625282427310994,-0.9499337649227355 l 34.18320323823527 1.324645066496499" fill="#62ff29" stroke="none" /><path d="M 79.01574976396665 99.18683210126434 l -9.175996159528772 -0.35558218339569847 a30.18288321873012,30.18288321873012 0 0,0 0.024586677380102475,-0.5189859000180099 l 9.16851587391517 0.5134791900367175" fill="#ff700a" stroke="none" /><path d="M 79.05617556472873 98.46500227214037 l -8.530240791479482 -0.6251914626903227 a29.553120619144885,29.553120619144885 0 0,0 0.041551006715472225,-0.5070275267694164 l 8.518215300944513 0.7719329066675175" fill="#ff6809" stroke="none" /><path d="M 79.12142395522702 97.74499172005258 l -16.94644441609868 -1.8303150747456451 a38.04500019421423,38.04500019421423 0 0,0 0.07592631086275761,-0.650490264055451 l 16.912427752232333 2.121749077125958" fill="#ffd714" stroke="none" /><path d="M 79.16333360222342 97.38593545837743 l -22.75151726109594 -2.854292208022818 a43.929860917387316,43.929860917387316 0 0,0 0.10058683208289901,-0.7494887334452596 l 22.69901442995521 3.2454992835327374" fill="#dfff1b" stroke="none" /><path d="M 79.21141760316559 97.0276538004421 l -2.7755135446218953 -0.39684221745849363 a23.803740212989958,23.803740212989958 0 0,0 0.06148631526936162,-0.40511799431003154 l 2.7682713359132314 0.4445593241606172" fill="#ff1702" stroke="none" /><path d="M 79.3925641242962 95.95851677861259 l -8.905999734656486 -1.746624311456975 a30.075655775704252,30.075655775704252 0 0,0 0.10400549039285252,-0.5071677079536496 l 8.87461494834864 1.8996676755740274" fill="#ff6f0a" stroke="none" /><path d="M 79.46518482838121 95.60439243477599 l -9.565477056869888 -2.0475510962604586 a30.782168308575642,30.782168308575642 0 0,0 0.11536806791109037,-0.517172427040614 l 9.52881460195676 2.2119016928510318" fill="#ff780b" stroke="none" /><path d="M 79.71946130924805 94.55025226153421 l -10.243112144940724 -2.752509590497095 a31.606491194528502,31.606491194528502 0 0,0 0.14571078493372314,-0.5241992200782382 l 10.19421458944064 2.928420113994276" fill="#ff840c" stroke="none" /><path d="M 79.91906864156998 93.8553929516997 l -1.6214691578624627 -0.49615680857455036 a22.69568092770842,22.69568092770842 0 0,0 0.11752527823975498,-0.3725872486984132 l 1.612688395854504 0.523994223699378" fill="#ff0601" stroke="none" /><path d="M 80.02781315780177 93.51064311812611 l -59.91656052659468 -19.468070645621676 a84.0,84.0 0 0,0 0.4586508249129104,-1.3713075883107113 l 59.572572407909995 20.496551336854708" fill="#4dd2ff" stroke="none" /><path d="M 80.14247586403 93.16781622104843 l -13.541582779338396 -4.659119715671762 a35.32067947740733,35.32067947740733 0 0,0 0.2027523378431257,-0.5732081620059669 l 13.45937736068546 4.89152550410434" fill="#ffb510" stroke="none" /><path d="M 80.2630227832202 92.82701384747504 l -5.58850963619311 -2.03102540948293 a26.946133547759295,26.946133547759295 0 0,0 0.16218417324091114,-0.4345729513877877 l 5.552720874450571 2.1269214979000592" fill="#ff4306" stroke="none" /><path d="M 80.52162464483688 92.15188598940014 l -20.63572088609584 -8.314424958551195 a43.247755816716236,43.247755816716236 0 0,0 0.28415487588324045,-0.688103570913839 l 20.4895443233264 8.668403099918345" fill="#e7ff1a" stroke="none" /><path d="M 80.65960295795068 91.81776055985345 l -9.085078306450045 -3.843576006957641 a30.864670514294417,30.864670514294417 0 0,0 0.21121618526422822,-0.4875160767449631 l 9.017571411343136 3.9993912282892032" fill="#ff7a0b" stroke="none" /><path d="M 80.95270993114464 91.15688171328213 l -8.728319662777611 -4.05231205820904 a30.62313863314546,30.62313863314546 0 0,0 0.22608889161510992,-0.47620086559738456 l 8.65727257732075 4.201955339446957" fill="#ff760a" stroke="none" /><path d="M 81.26839172434947 90.50648371742162 l -5.659404439751008 -2.868288051288894 a27.344756493187116,27.344756493187116 0 0,0 0.21640193246197237,-0.41801965416485115 l 5.609193074128922 2.965280427714081" fill="#ff4906" stroke="none" /><path d="M 81.43458229118936 90.18545643968196 l -9.028968139639609 -4.773132633000892 a31.212984911319765,31.212984911319765 0 0,0 0.25519127183284046,-0.4728306698689243 l 8.945468768588297 4.92784428620229" fill="#ff7e0b" stroke="none" /><path d="M 81.6062741919709 89.86733742301443 l -21.64215539644644 -11.922144559486417 a45.70871144153874,45.70871144153874 0 0,0 0.38556899801132544,-0.6858842245172114 l 21.433728757142685 12.292912293938413" fill="#caff1d" stroke="none" /><line stroke="#e1ed5e" stroke-width="0.3" x1="26.266209847984243" x2="21.928928074336255" y1="57.711370442889674" y2="55.22380399835377" /><path d="M 25.398753493254645 57.213857153982495 a86.0,86.0 0 0,1 29.58750427330803,-30.492523968695096" fill="none" id="id107" stroke="none" /><text fill="#e1ed5e" style="font-size:6.75px; font-family:Arial;" text-anchor="middle"><textPath startOffset="21.46611528233685" xlink:href="#id107">November</textPath></text><path d="M 81.96595687620814 89.24020034530311 l -30.59646731660085 -18.25502224921408 a56.62849491032599,56.62849491032599 0 0,0 0.5066475981180775,-0.8327954372898965 l 30.277703920196558 18.77898545971105" fill="#53ff2b" stroke="none" /><path d="M 82.34701348167596 88.62581576622439 l -3.4520151915359545 -2.224204767027137 a25.106518687192505,25.106518687192505 0 0,0 0.23720084676134495,-0.36127316303222445 l 3.4132177094166893 2.2832959940370285" fill="#ff2904" stroke="none" /><path d="M 82.54541684631803 88.32363383020206 l -11.278925949201893 -7.545116845551034 a34.569928473672874,34.569928473672874 0 0,0 0.3351234124200658,-0.49175225566932856 l 11.147378071113087 7.738147124490778" fill="#ffab0f" stroke="none" /><path d="M 82.7489923806493 88.02491185347247 l -8.406488302168338 -5.835510634654007 a31.233387999174717,31.233387999174717 0 0,0 0.31038161505698864,-0.43901278296245677 l 8.304794067307471 5.97934991794825" fill="#ff7f0b" stroke="none" /><path d="M 83.6137871275137 86.86637796730984 l -12.479471281510568 -10.002351382507245 a36.993255973853216,36.993255973853216 0 0,0 0.40252451300140285,-0.49344745790555555 l 12.305448276432774 10.215683010020882" fill="#ffca12" stroke="none" /><path d="M 84.07557802195018 86.31012108654704 l -7.467158210157088 -6.419353359610332 a30.84715945291112,30.84715945291112 0 0,0 0.34961309215735636,-0.3996682010697356 l 7.355553254421888 6.546937116883011" fill="#ff790b" stroke="none" /><path d="M 84.31358615837235 86.03803664274999 l -10.064974164564997 -8.95850395738018 a34.474364478065645,34.474364478065645 0 0,0 0.39835351315823575,-0.4398718986929103 l 9.909277010790717 9.130428643342649" fill="#ffaa0f" stroke="none" /><path d="M 84.80347519578584 85.50635884689758 l -7.71458132564405 -7.357759410184571 a31.66074052625499,31.66074052625499 0 0,0 0.37953046800387236,-0.3911395089479888 l 7.58678659393706 7.4894631146826836" fill="#ff840c" stroke="none" /><path d="M 85.05521093208273 85.24692304244772 l -18.789503678248124 -18.54847147722492 a47.40248553860651,47.40248553860651 0 0,0 0.5782295132417926,-0.5757464119511982 l 18.46743836483902 18.869153739826224" fill="#b6ff1f" stroke="none" /><path d="M 85.31137513191541 84.99185889309783 l -22.95403517905719 -23.453345839651067 a53.816873130688016,53.816873130688016 0 0,0 0.6676284393775401,-0.6422580297198675 l 22.546923496067222 23.84498695613325" fill="#70ff27" stroke="none" /><path d="M 85.57189188830299 84.74124197986013 l -6.065950181038761 -6.415176907335178 a29.82894367131486,29.82894367131486 0 0,0 0.3761175770900712,-0.3495602971308693 l 5.954624720153833 6.518641790540695" fill="#ff6b09" stroke="none" /><path d="M 85.83668400450813 84.49514656593479 l -3.544203093306925 -3.8799070443514467 a26.255002782055815,26.255002782055815 0 0,0 0.3363003461433437,-0.30193377126818205 l 3.4768917595676094 3.9403398243889076" fill="#ff3a05" stroke="none" /><path d="M 86.37877921826538 84.01681056812374 l -9.598558681752506 -11.262983262789005 a35.798213430847376,35.798213430847376 0 0,0 0.47243833536611896,-0.39565351926995035 l 9.403262809427277 11.426537939452768" fill="#ffbb11" stroke="none" /><path d="M 86.65592168130627 83.78471172551755 l -8.906521867780993 -10.822914566285931 a35.016476429202356,35.016476429202356 0 0,0 0.468714881833098,-0.37900150417389783 l 8.718903587383394 10.974622167723963" fill="#ffb110" stroke="none" /><path d="M 87.22198572758235 83.33499621200491 l -20.657233351643804 -26.941030485287477 a54.94908560408445,54.94908560408445 0 0,0 0.7555599912208986,-0.5690721209862404 l 20.190427206664513 27.292619195779572" fill="#64ff29" stroke="none" /><path d="M 87.51073957382395 83.11751280151077 l -6.588771333128674 -8.906439924351512 a32.07865424166405,32.07865424166405 0 0,0 0.4467406037162989,-0.3245760475866819 l 6.434485413058594 9.018535206754862" fill="#ff8a0c" stroke="none" /><path d="M 87.80319425747018 82.90503203632743 l -16.94194163568781 -23.745721266560157 a50.16999596942412,50.16999596942412 0 0,0 0.707322549226655,-0.49552464773954624 l 16.530687946877496 24.033830757063647" fill="#97ff23" stroke="none" /><path d="M 88.09926311788651 82.69761687909137 l -6.6214026828436525 -9.626802705684808 a32.684104750581,32.684104750581 0 0,0 0.46628592146661846,-0.3148383356297683 l 6.454712066970495 9.739352953613242" fill="#ff920d" stroke="none" /><path d="M 88.39885842347998 82.49532879139004 l -9.472546724671094 -14.292887887788503 a38.14688851144628,38.14688851144628 0 0,0 0.5504650039380368,-0.35803775074153976 l 9.225114694948772 14.453824562689578" fill="#ffd914" stroke="none" /><path d="M 88.70189139769569 82.29822771554957 l -4.991185760073787 -7.820143783730113 a30.277207774420926,30.277207774420926 0 0,0 0.4417312657966105,-0.2766120781173345 l 4.855835341904934 7.904900203170378" fill="#ff720a" stroke="none" /><path d="M 89.00827224532344 82.1063720568725 l -5.213824593547145 -8.487677235088674 a30.961156144711293,30.961156144711293 0 0,0 0.45651182934100665,-0.27504326923223793 l 5.066950697988489 8.57616711377953" fill="#ff7b0b" stroke="none" /><line stroke="#e1ed5e" stroke-width="0.3" x1="56.762969772571076" x2="54.21961505331055" y1="26.818313649435495" y2="22.513508569990535" /><path d="M 56.25429882871897 25.957352633546506 a86.0,86.0 0 0,1 42.265352541879196,-11.944610805530505" fill="none" id="id108" stroke="none" /><text fill="#e1ed5e" style="font-size:6.75px; font-family:Arial;" text-anchor="middle"><textPath startOffset="22.20632615414155" xlink:href="#id108">December</textPath></text><path d="M 89.63071344664047 81.73862282372117 l -8.14403068215013 -14.342473347286074 a37.493385870384955,37.493385870384955 0 0,0 0.5639646388371973,-0.31384571092134345 l 7.895941954240886 14.480534455767602" fill="#ffd013" stroke="none" /><path d="M 89.94658935756843 81.56283822128135 l -5.074034802290738 -9.305379422764364 a31.598863871965904,31.598863871965904 0 0,0 0.47978353665019535,-0.256283749322433 l 4.913106219112238 9.391341898588546" fill="#ff830c" stroke="none" /><path d="M 90.26544431104013 81.39251694778311 l -6.139357142544376 -11.735305403918995 a34.24421001973923,34.24421001973923 0 0,0 0.5246531159361367,-0.268747703620068 l 5.936443539019475 11.839245632851567" fill="#ffa70f" stroke="none" /><path d="M 90.91171255644093 81.06846463323043 l -7.039622471096386 -14.664023624683766 a37.26621878006222,37.26621878006222 0 0,0 0.5806818460624801,-0.2726379128198159 l 6.7861624137342975 14.78302652014359" fill="#ffce13" stroke="none" /><path d="M 91.56875222667455 80.76684994638697 l -4.732534353778218 -10.795738164411022 a32.787486751814896,32.787486751814896 0 0,0 0.5188483042315799,-0.2221437662839104 l 4.546002291756329 10.87560145865772" fill="#ff930d" stroke="none" /><path d="M 92.23578459929587 80.48803036053334 l -8.07086389179441 -20.282596900477355 a42.829397174157705,42.829397174157705 0 0,0 0.6873441847907826,-0.2666788651662151 l 7.720536542003952 20.41851846953412" fill="#ecff1a" stroke="none" /><path d="M 92.57280143429618 80.3572730644239 l -6.5312088390827405 -17.273101109444525 a39.466637778350616,39.466637778350616 0 0,0 0.6375133846070734,-0.23480155974755576 l 6.232913128703098 17.382965936998403" fill="#ffe915" stroke="none" /><path d="M 92.91201910852362 80.23233633223022 l -3.3741107001006307 -9.41005436084347 a30.99668675564873,30.99668675564873 0 0,0 0.5037965240055301,-0.17576471492147214 l 3.2116321720318153 9.466739928937152" fill="#ff7b0b" stroke="none" /><path d="M 93.25333710446033 80.11325718540243 l -4.858298923816714 -14.320523006752488 a36.12218395669375,36.12218395669375 0 0,0 0.5905412500215533,-0.19469216541338177 l 4.611074851552751 14.402028896425104" fill="#ffbf11" stroke="none" /><path d="M 93.59665428221793 80.00007090966166 l -3.2354137466846957 -10.105349353839465 a31.610654441427258,31.610654441427258 0 0,0 0.5196409662555838,-0.16145497769821868 l 3.0609874077183834 10.159544466420208" fill="#ff840c" stroke="none" /><path d="M 93.94186890950719 79.89281104454417 l -10.973413358289559 -36.42121515457378 a59.03841103500043,59.03841103500043 0 0,0 0.9755669599624124,-0.28479474742048927 l 10.344856180603726 36.60470823091296" fill="#3bff2e" stroke="none" /><path d="M 94.63758080256005 79.69619591428918 l -3.8281457918135944 -14.494562865511961 a35.99156605780925,35.99156605780925 0 0,0 0.6003583653503456,-0.15304471486441934 l 3.578078537778249 14.558310576545242" fill="#ffbd11" stroke="none" /><path d="M 95.33964822691252 79.52364482259891 l -1.9907456154932996 -8.746810600455834 a29.970494065872423,29.970494065872423 0 0,0 0.5040141923845985,-0.11015798082301105 l 1.8398886989551801 8.779782079374714" fill="#ff6d0a" stroke="none" /><path d="M 95.692805502759 79.44645832069477 l -5.439314695368996 -25.955916634304835 a47.519723842495786,47.519723842495786 0 0,0 0.8020279210774242,-0.16087925588118573 l 4.9917203648244355 26.045699846263233" fill="#b5ff20" stroke="none" /><path d="M 96.04723909329186 79.375362276772 l -1.5211657130404517 -7.937108388016056 a29.081561401712214,29.081561401712214 0 0,0 0.49245452954260216,-0.08999291758377513 l 1.3843160623949562 7.962116786950567" fill="#ff6109" stroke="none" /><path d="M 96.75951476605007 79.25152402106235 l -1.5413950766518192 -9.869385728685991 a30.98902765257546,30.98902765257546 0 0,0 0.5277446454721599,-0.07777584227518985 l 1.3712814507510105 9.89445605512215" fill="#ff7b0b" stroke="none" /><path d="M 97.11714578562143 79.19881850522333 l -2.2323782993671317 -16.10768450882156 a37.261642386524656,37.261642386524656 0 0,0 0.636083332722686,-0.08258187230129223 l 1.954780238136588 16.14372470428699" fill="#ffce13" stroke="none" /><path d="M 97.83486435360386 79.11191278185805 l -3.722727205548837 -35.914909390682325 a57.10733186470381,57.10733186470381 0 0,0 0.9786425617631419,-0.09293390336510152 l 3.103959516695459 35.97366883856261" fill="#4eff2b" stroke="none" /><path d="M 98.19473922651362 79.07773832637324 l -2.8394549688439006 -32.90816525853017 a54.03043816244078,54.03043816244078 0 0,0 0.9272904755616854,-0.07197558768746608 l 2.272574303919881 32.9521661084061" fill="#6eff28" stroke="none" /><path d="M 98.55514903715128 79.0497635885617 l -0.5362097229962232 -7.7750029253771284 a28.793471072420722,28.793471072420722 0 0,0 0.4947512908841846,-0.02984474897330103 l 0.40229638327241557 7.783080943730736" fill="#ff5d08" stroke="none" /><path d="M 99.27714615592234 79.0124445844662 l -0.7889567740159613 -22.906807718853024 a43.92039032520542,43.92039032520542 0 0,0 0.7557932969225601,-0.01951991105208756 l 0.3945368418985221 22.91699442204747" fill="#dfff1b" stroke="none" /><path d="M 99.63851952072746 79.00311137660856 l -0.5597189097153419 -32.5117296274202 a53.51654730478569,53.51654730478569 0 0,0 0.9211993889878696,-0.00792905397404497 l 7.964257115225858e-15 32.51654730478569" fill="#73ff27" stroke="none" /></svg>