<?xml version="1.0" encoding="utf-8" ?>
<svg baseProfile="full" height="200mm" version="1.1" viewBox="0,0,200,200" width="200mm" xmlns="http://www.w3.org/2000/svg" xmlns:ev="http://www.w3.org/2001/xml-events" xmlns:xlink="http://www.w3.org/1999/xlink"><defs /><rect fill="#1a1a1a" height="200" width="200" x="0" y="0" /><text alignment-baseline="middle" fill="#e1ed5e" style="dominant-baseline: central; font-size:9.0px; font-family:Arial;" text-anchor="middle" x="100.0" y="100.0">2025</text><line stroke="#e1ed5e" stroke-width="0.3" x1="100.0" x2="100.0" y1="15.0" y2="10.0" /><path d="M 100.0 14.0 a86.0,86.0 0 0,1 42.46469731375804,11.215312516191453" fill="none" id="id313" stroke="none" /><text fill="#e1ed5e" style="font-size:6.75px; font-family:Arial;" text-anchor="middle"><textPath startOffset="22.20632615414155" xlink:href="#id313">January</textPath></text><path d="M 100.0 79.0 l 0.0 -12.865074759091364 a33.865074759091364,33.865074759091364 0 0,0 0.5829315930722071,0.005017476259644488 l -0.22145111379967874 12.863168659440278" fill="#ffa50f" stroke="none" /><path d="M 100.36148047927253 79.00311137660856 l 0.17787772444407896 -10.332172780812401 a31.333703830544692,31.333703830544692 0 0,0 0.5391983802405427,0.013925903371438833 l -0.35570273987948936 10.327580085298601" fill="#ff840c" stroke="none" /><path d="M 100.72285384407766 79.0124445844662 l 0.15718042390298967 -4.563623592692239 a25.56632959623323,25.56632959623323 0 0,0 0.4396911578969329,0.018934026173961543 l -0.23571241418925412 4.560241839994083" fill="#ff3405" stroke="none" /><path d="M 101.08401301168833 79.027996857942 l 0.6492567324601016 -12.560932466990016 a33.57770085289552,33.57770085289552 0 0,0 0.5769575609731064,0.034803655680652884 l -0.86537634227282 12.547895541929059" fill="#ffa10e" stroke="none" /><path d="M 101.44485096284872 79.0497635885617 l 0.4009930833355583 -5.814371247445499 a26.828182260019318,26.828182260019318 0 0,0 0.46043524228981714,0.035738636413529895 l -0.5010185149877167 5.806607348843505" fill="#ff4606" stroke="none" /><path d="M 101.80526077348638 79.07773832637324 l 0.3581437935657461 -4.150745574168128 a25.16616799929455,25.16616799929455 0 0,0 0.4312700719224614,0.04095428990549706 l -0.42953899257845174 4.143965739747452" fill="#ff2f04" stroke="none" /><path d="M 102.16513564639614 79.11191278185805 l 1.5824933827941203 -15.26706183834558 a36.3488586703525,36.3488586703525 0 0,0 0.6217962058957063,0.0698660486981268 l -1.845056292199552 15.237559836176851" fill="#ffc512" stroke="none" /><path d="M 102.52436894288641 79.15227682838746 l 1.1338909118869749 -9.36433792866968 a30.432737324996463,30.432737324996463 0 0,0 0.5195089572476553,0.06744717265765239 l -1.2949145976424763 9.34343243284789" fill="#ff770b" stroke="none" /><path d="M 102.88285421437855 79.19881850522331 l 0.5806406183855279 -4.189601689199645 a25.22964606579128,25.22964606579128 0 0,0 0.4296620974253852,0.06332102430160522 l -0.6526716962395689 4.178986180737071" fill="#ff2f04" stroke="none" /><path d="M 103.2404852339499 79.25152402106235 l 1.0839805978608386 -6.940610363138527 a28.02474812000008,28.02474812000008 0 0,0 0.4759813885580235,0.07854100747798727 l -1.2032911925577374 6.920923092720915" fill="#ff5708" stroke="none" /><path d="M 103.59715602781102 79.31037775812273 l 0.7381490193790876 -4.2455829691821645 a25.309273572543283,25.309273572543283 0 0,0 0.42857624589227644,0.07831956954639045 l -0.811120386374265 4.232247918285036" fill="#ff3104" stroke="none" /><path d="M 104.307194497241 79.44645832069477 l 0.8487231127844022 -4.050029754629816 a25.138003375489355,25.138003375489355 0 0,0 0.4227461329670114,0.09239593073372485 l -0.9183119699049415 4.03482032580022" fill="#ff2e04" stroke="none" /><path d="M 104.66035177308747 79.52364482259891 l 2.097972083981524 -9.217935391048364 a30.453666999567297,30.453666999567297 0 0,0 0.5101370807418502,0.12073296514355737 l -2.2563328516858974 9.180456513763938" fill="#ff780b" stroke="none" /><path d="M 105.01212808612495 79.60689891045804 l 2.3377281680693733 -9.511633787508911 a30.794700112584668,30.794700112584668 0 0,0 0.5136718916689842,0.13094640256819232 l -2.5011089484233824 9.46998438877185" fill="#ff7c0b" stroke="none" /><path d="M 105.36241919743992 79.69619591428918 l 6.1885563583943215 -23.431818969730216 a45.23527119780655,45.23527119780655 0 0,0 0.7511254546768105,0.20531096069160334 l -6.590979702294843 23.321821468212317" fill="#cdff1d" stroke="none" /><path d="M 105.71112130821622 79.79150937346287 l 3.7116145598544237 -13.133345273936035 a34.64774123162296,34.64774123162296 0 0,0 0.572528816245739,0.1671368612359878 l -3.93713359382359 13.067510083781345" fill="#ffaf10" stroke="none" /><path d="M 106.0581310904928 79.89281104454417 l 1.618539595288671 -5.372000207362473 a26.61053087055224,26.61053087055224 0 0,0 0.4374449760213151,0.13591628342285503 l -1.7107699440207043 5.343343789057097" fill="#ff4306" stroke="none" /><path d="M 106.40334571778207 80.00007090966166 l 4.0510107817823995 -12.65274935177278 a34.28543392264264,34.28543392264264 0 0,0 0.5605132577388454,0.18479240846952222 l -4.268206861763662 12.581143219044021" fill="#ffab0f" stroke="none" /><path d="M 106.74666289553966 80.11325718540242 l 1.3381866730091907 -3.9444944287418866 a25.16530669581427,25.16530669581427 0 0,0 0.4090177165975432,0.14269825004749037 l -1.4058863936700075 3.920875325522189" fill="#ff2f04" stroke="none" /><path d="M 107.08798089147638 80.2323363322302 l 3.414922629725195 -9.523874715441387 a31.11760278734212,31.11760278734212 0 0,0 0.5026495640502374,0.18513007647387267 l -3.5783545195480086 9.46368137116119" fill="#ff810b" stroke="none" /><path d="M 107.4271985657038 80.35727306442388 l 5.393386611881094 -14.263900384240417 a36.24950731390205,36.24950731390205 0 0,0 0.5817473440596519,0.2257089315078895 l -5.638117120940413 14.16894874884198" fill="#ffc412" stroke="none" /><path d="M 107.76421540070413 80.48803036053334 l 2.4330315272661953 -6.11436376270265 a27.580660045567054,27.580660045567054 0 0,0 0.43960437165001776,0.1793256610044613 l -2.5379197685046004 6.071577215514609" fill="#ff5007" stroke="none" /><path d="M 108.09893153111575 80.62456947434976 l 2.1678455684887674 -5.186232411179099 a26.621081838185685,26.621081838185685 0 0,0 0.4212675180963026,0.18036476619420166 l -2.256796844375385 5.148148117022107" fill="#ff4306" stroke="none" /><path d="M 108.43124777332544 80.76684994638697 l 2.452434892979924 -5.594432705753039 a27.108364282154817,27.108364282154817 0 0,0 0.4257534894938621,0.191023180319559 l -2.5483705009405666 5.55138919491695" fill="#ff4a06" stroke="none" /><path d="M 108.76106565485865 80.91482961587045 l 4.550037914084174 -9.911836329680712 a31.906298384235683,31.906298384235683 0 0,0 0.4971636203856356,0.23342498600739503 l -4.7199797457694075 9.832046361033314" fill="#ff8b0c" stroke="none" /><path d="M 109.08828744355905 81.06846463323043 l 1.8649484238193328 -3.8848173830327903 a25.309273572543283,25.309273572543283 0 0,0 0.39112316597065877,0.1919224389125421 l -1.9315428568004234 3.8521397839854163" fill="#ff3104" stroke="none" /><path d="M 109.41281617654863 81.2277094730956 l 2.348122509748637 -4.682938359678867 a26.238663092940797,26.238663092940797 0 0,0 0.4020006985640803,0.2059203715963651 l -2.428383695901473 4.641825462770002" fill="#ff3e05" stroke="none" /><path d="M 110.05341064243156 81.56283822128135 l 5.286033188209654 -9.694167733222663 a32.0416952913359,32.0416952913359 0 0,0 0.48196188989652433,0.2682112699183493 l -5.452119167178213 9.601741065744134" fill="#ff8d0d" stroke="none" /><path d="M 110.36928655335952 81.73862282372117 l 4.515203975751423 -7.951737316229962 a30.144243724276247,30.144243724276247 0 0,0 0.44901037782453007,0.26009579245047365 l -4.651411086041281 7.872837366389438" fill="#ff740a" stroke="none" /><line stroke="#e1ed5e" stroke-width="0.3" x1="143.23703022742887" x2="145.7803849466894" y1="26.81831364943548" y2="22.513508569990506" /><path d="M 143.74570117128098 25.957352633546492 a86.0,86.0 0 0,1 28.547481713284135,27.462654790039103" fill="none" id="id314" stroke="none" /><text fill="#e1ed5e" style="font-size:6.75px; font-family:Arial;" text-anchor="middle"><textPath startOffset="19.985693538727396" xlink:href="#id314">February</textPath></text><path d="M 110.68208982089419 81.91981866633111 l 7.53202853678347 -12.748483118822362 a35.80727104195163,35.80727104195163 0 0,0 0.5279661628483298,0.3180937056624021 l -7.750356765849436 12.616942803701345" fill="#ffbe11" stroke="none" /><path d="M 110.99172775467656 82.1063720568725 l 1.6490307820612489 -2.684486364613097 a24.15051893534687,24.15051893534687 0 0,0 0.35234554581244193,0.22063874846350864 l -1.694995480245954 2.6557032748266445" fill="#ff2003" stroke="none" /><path d="M 111.2981086023043 82.29822771554956 l 5.81674201098552 -9.113617698351877 a31.811684196926787,31.811684196926787 0 0,0 0.45904710842885416,0.29857700854817193 l -5.9727561451986535 9.012141765644177" fill="#ff8a0c" stroke="none" /><path d="M 111.60114157652 82.49532879139004 l 3.1592414651404255 -4.766900115055671 a26.71875365284958,26.71875365284958 0 0,0 0.3811815793191331,0.257375503914184 l -3.2408277388661006 4.7118126988428175" fill="#ff4406" stroke="none" /><path d="M 111.90073688211348 82.69761687909136 l 2.4043181971178593 -3.4956183808777435 a25.24265174834353,25.24265174834353 0 0,0 0.35588395890565855,0.2493194562589471 l -2.4641332956071684 3.453714081854861" fill="#ff3004" stroke="none" /><path d="M 112.19680574252982 82.90503203632743 l 8.981704207255287 -12.588701412765566 a36.464359467058216,36.464359467058216 0 0,0 0.5078177482047733,0.3689511905466836 l -9.197067271813848 12.432230987402207" fill="#ffc712" stroke="none" /><path d="M 112.48926042617603 83.11751280151076 l 6.493796635491858 -8.77805689266509 a31.91895954539582,31.91895954539582 0 0,0 0.4388915398458866,0.3305640086360748 l -6.643934329096127 8.664976294523168" fill="#ff8b0c" stroke="none" /><path d="M 112.77801427241765 83.33499621200491 l 8.522982398948917 -11.115618666203412 a35.00707704359631,35.00707704359631 0 0,0 0.47504177602145736,0.3707776411725422 l -8.713056730129805 10.967262635807646" fill="#ffb410" stroke="none" /><path d="M 113.06298171725822 83.55741782278167 l 3.002380482709639 -3.7791439108429863 a25.826615507974235,25.826615507974235 0 0,0 0.34570351647015074,0.27953486825077223 l -3.066987397744281 3.726902945328084" fill="#ff3805" stroke="none" /><path d="M 113.6212207817346 84.01681056812373 l 6.404082455623023 -7.514573375305298 a30.87325098998632,30.87325098998632 0 0,0 0.4015083953000091,0.3481841238747405 l -6.532484649569796 7.403224258010887" fill="#ff7d0b" stroke="none" /><path d="M 113.89432698308785 84.25364557470407 l 6.755958463951425 -7.6564857430982265 a31.21101114977862,31.21101114977862 0 0,0 0.3997818602528331,0.35892810142781173 l -6.886751311800248 7.539058632901118" fill="#ff820c" stroke="none" /><path d="M 114.16331599549186 84.49514656593476 l 11.487949070651343 -12.576077992974938 a38.033223756390555,38.033223756390555 0 0,0 0.4795665621218458,0.4457048544402262 l -11.702723516568035 12.37646855246007" fill="#ffda14" stroke="none" /><path d="M 114.42810811169701 84.74124197986012 l 3.0265613253112207 -3.2008054374501063 a25.40513664989859,25.40513664989859 0 0,0 0.3151649426483265,0.3031884251228333 l -3.0812095115719655 3.148233925564971" fill="#ff3204" stroke="none" /><path d="M 114.68862486808459 84.99185889309783 l 4.888486941186736 -4.994824394487126 a27.988960960394394,27.988960960394394 0 0,0 0.3414176089794037,0.3399514532642873 l -4.973740350333462 4.909937090572719" fill="#ff5608" stroke="none" /><path d="M 114.94478906791727 85.2469230424477 l 8.468702567693814 -8.36006584930806 a32.89998420943619,32.89998420943619 0 0,0 0.39438579757707165,0.40644923189350546 l -8.611352628973995 8.213052421864441" fill="#ff980e" stroke="none" /><path d="M 115.19652480421416 85.50635884689758 l 1.4607746064616927 -1.393209514964169 a23.01863696673523,23.01863696673523 0 0,0 0.2709980600893167,0.2890818357099736 l -1.4845399885214723 1.3678582623761406" fill="#ff1001" stroke="none" /><path d="M 115.4437574822437 85.77008943001954 l 11.323093289588058 -10.433121931086895 a36.39683327420416,36.39683327420416 0 0,0 0.420567764543977,0.4644014299065685 l -11.50100469474807 10.236667713910776" fill="#ffc612" stroke="none" /><path d="M 115.68641384162765 86.03803664274999 l 3.067715207118836 -2.7304728629948958 a25.106867254677184,25.106867254677184 0 0,0 0.28455422317543155,0.32529466726072687 l -3.114261293872116 2.677262639531221" fill="#ff2e04" stroke="none" /><path d="M 115.9244219780498 86.31012108654704 l 4.364681420359714 -3.7522216016935723 a26.755832767675688,26.755832767675688 0 0,0 0.29723103866725464,0.3518277982863778 l -4.428623072514086 3.676534853778088" fill="#ff4506" stroke="none" /><path d="M 116.15771136456269 86.58626213691792 l 5.401068565594307 -4.483835382671198 a28.019709494640438,28.019709494640438 0 0,0 0.3048831367193478,0.373750675830047 l -5.477450194390063 4.390200537233049" fill="#ff5708" stroke="none" /><path d="M 116.38621287248628 86.86637796730983 l 5.270889008975676 -4.224640834270069 a27.754987869975984,27.754987869975984 0 0,0 0.2955852276325788,0.3753632219435399 l -5.342828317202218 4.133285218373491" fill="#ff5307" stroke="none" /><path d="M 116.60985879189232 87.15038557335679 l 10.405903684423997 -8.050149720171152 a34.15628146577446,34.15628146577446 0 0,0 0.3557524070972408,0.4681284669115417 l -10.542932031745352 7.869836477378578" fill="#ffa90f" stroke="none" /><path d="M 116.82858285166822 87.43820079747576 l 3.3377421525654385 -2.4914781642574124 a25.1650913699442,25.1650913699442 0 0,0 0.2561295659651314,0.3493604401322436 l -3.3801343310441965 2.4336552804536753" fill="#ff2f04" stroke="none" /><path d="M 117.04232023915458 87.72973835380427 l 7.941232713334453 -5.717590200075739 a30.785398034997627,30.785398034997627 0 0,0 0.30592971734373076,0.43271588936518984 l -8.038475050482067 5.580047810378756" fill="#ff7c0b" stroke="none" /><path d="M 117.2510076193507 88.02491185347247 l 24.001758751754288 -16.66123991514209 a50.21782570088571,50.21782570088571 0 0,0 0.4868152714291535,0.7143413409728937 l -24.284998488852175 16.245620550898792" fill="#95ff23" stroke="none" /><path d="M 117.45458315368197 88.32363383020206 l 8.22622216136496 -5.502989175077611 a30.897152161564122,30.897152161564122 0 0,0 0.2919094736529755,0.4445981551313258 l -8.319728270375862 5.360572955968612" fill="#ff7e0b" stroke="none" /><path d="M 117.65298651832404 88.62581576622439 l 3.381932725106447 -2.1790491847748568 a25.023148556393846,25.023148556393846 0 0,0 0.23018008362538778,0.3640896144287145 l -3.41894040497779 2.1205119226319358" fill="#ff2d04" stroke="none" /><line stroke="#e1ed5e" stroke-width="0.3" x1="172.23445277983987" x2="176.4835382374775" y1="55.19839476539836" y2="52.563006222186495" /><path d="M 173.08426987136738 54.67131705675599 a86.0,86.0 0 0,1 12.851231095245387,41.99856678651699" fill="none" id="id315" stroke="none" /><text fill="#e1ed5e" style="font-size:6.75px; font-family:Arial;" text-anchor="middle"><textPath startOffset="22.20632615414155" xlink:href="#id315">March</textPath></text><path d="M 117.84615892207809 88.93136811851018 l 7.807641919472829 -4.84249381878026 a30.187438093812354,30.187438093812354 0 0,0 0.2700829860971413,0.44394541560406886 l -7.889840703856194 4.707380629969109" fill="#ff740a" stroke="none" /><path d="M 118.03404312379186 89.2402003453031 l 5.992696039396908 -3.575471586309961 a27.978280797238906,27.978280797238906 0 0,0 0.24319830878517049,0.41570474360391474 l -6.053354022652406 3.4717874303521508" fill="#ff5608" stroke="none" /><path d="M 118.21658344932153 89.55222093294921 l 0.8072134887772972 -0.4629621253705831 a21.930552280095892,21.930552280095892 0 0,0 0.18499189326932372,0.3290799361759676 l -0.8150630233390538 0.4489986792598216" fill="#ff0000" stroke="none" /><path d="M 118.3937258080291 89.86733742301442 l 7.512890945367888 -4.138671507970031 a29.577419903903138,29.577419903903138 0 0,0 0.24181921159594005,0.44805427311393475 l -7.583018256182292 4.008736251523637" fill="#ff6c09" stroke="none" /><path d="M 118.56541770881063 90.18545643968196 l 8.383378795921436 -4.431844069749652 a30.48273599202679,30.48273599202679 0 0,0 0.24123538920692644,0.46598998826556987 l -8.458423618288478 4.286881359223737" fill="#ff780b" stroke="none" /><path d="M 118.73160827565052 90.50648371742162 l 8.683986703220425 -4.401200791278788 a30.735614693837373,30.735614693837373 0 0,0 0.23511279744224164,0.47397305286619135 l -8.758459513616076 4.251068149913647" fill="#ff7c0b" stroke="none" /><path d="M 118.89224826269711 90.83032412892265 l 2.390970687554141 -1.1604985239056145 a23.657724149103935,23.657724149103935 0 0,0 0.1746636324605036,0.3678861547416111 l -2.410592513856401 1.1191699535234632" fill="#ff1902" stroke="none" /><path d="M 119.196687751892 91.48605970444005 l 17.24230902148886 -7.64715202246712 a39.8620294360718,39.8620294360718 0 0,0 0.2727878073565735,0.6296318696409064 l -17.371387538688115 7.349221008239611" fill="#fff116" stroke="none" /><path d="M 119.34039704204932 91.81776055985345 l 3.8100700761585564 -1.6119061867802986 a25.137012876487027,25.137012876487027 0 0,0 0.1651601254008388,0.39994834404176566 l -3.8372518884455924 1.5460832722852298" fill="#ff2e04" stroke="none" /><path d="M 119.47837535516314 92.15188598940014 l 7.924078537457146 -3.192723759398473 a29.54309696021393,29.54309696021393 0 0,0 0.18598990355288622,0.47332401765353826 l -7.977861990891732 3.0558507368491505" fill="#ff6b09" stroke="none" /><path d="M 119.61058180528143 92.48833698450437 l 9.297183584598603 -3.5612054131863746 a30.955893058919308,30.955893058919308 0 0,0 0.18631823054675184,0.4992402262690585 l -9.357106403646979 3.400642049887983" fill="#ff7f0b" stroke="none" /><path d="M 119.7369772167798 92.82701384747503 l 7.077186485093499 -2.572053465879971 a28.530074871881105,28.530074871881105 0 0,0 0.16377203000336832,0.463005582598261 l -7.120411595906677 2.4498502568550955" fill="#ff5e08" stroke="none" /><path d="M 119.85752413597 93.16781622104841 l 4.133025650708633 -1.4220096430658566 a25.370813706209383,25.370813706209383 0 0,0 0.1385279123222017,0.4141808256778947 l -4.156890856802604 1.350655714465648" fill="#ff3104" stroke="none" /><path d="M 119.97218684219823 93.5106431181261 l 10.59097299524402 -3.4412157284256013 a32.1360080224267,32.1360080224267 0 0,0 0.16641022123903984,0.5275658770214697 l -10.648638700251267 3.2583996849777126" fill="#ff8e0d" stroke="none" /><path d="M 120.08093135843002 93.85539295169968 l 4.693126474753507 -1.4360597872981227 a25.907922556512787,25.907922556512787 0 0,0 0.12681817413791546,0.42756783850162133 l -4.717150546003125 1.3550625620499714" fill="#ff3905" stroke="none" /><path d="M 120.18372546131832 94.20196356495316 l 4.014493171643022 -1.1532151347401804 a25.17684816245004,25.17684816245004 0 0,0 0.11606914178891026,0.4175624585961276 l -4.033749083998296 1.083941372725101" fill="#ff2f04" stroke="none" /><path d="M 120.28053869075195 94.5502522615342 l 8.974446030896 -2.4115960481444896 a30.292818574624768,30.292818574624768 0 0,0 0.13098566878873133,0.5047412142600659 l -9.014628031555034 2.2567584083355734" fill="#ff760a" stroke="none" /><path d="M 120.37134235888165 94.90015583598534 l 24.22141590147317 -6.063687132303483 a45.96888643713612,45.96888643713612 0 0,0 0.18555494182878218,0.7692450275324408 l -24.322203643562773 5.645856873111636" fill="#c5ff1e" stroke="none" /><path d="M 120.45610955862082 95.25157060432595 l 22.632675222653088 -5.253670548743162 a44.2344365537197,44.2344365537197 0 0,0 0.16578564021809453,0.7431845178004464 l -22.71975524987322 4.863307861392752" fill="#d9ff1c" stroke="none" /><path d="M 120.53481517161879 95.60439243477599 l 2.6616810751883846 -0.5697497334420544 a23.72197738873292,23.72197738873292 0 0,0 0.08203365239325276,0.4000252227281632 l -2.6710940234966345 0.5238488545504794" fill="#ff1a02" stroke="none" /><path d="M 120.67395015179393 96.31383870115 l 29.661676660416404 -5.288671190645272 a51.12947236958942,51.12947236958942 0 0,0 0.14702922180250935,0.8677747899254459 l -29.748317743739136 4.777310612403988" fill="#8bff24" stroke="none" /><path d="M 120.73433829027371 96.67025291283417 l 6.188500498208726 -0.9938171751302498 a27.26779155635488,27.26779155635488 0 0,0 0.07043414242180347,0.4640729954928058 l -6.2046905340698295 0.8871450672453619" fill="#ff4c07" stroke="none" /><path d="M 120.78858239683441 97.02765380044208 l 15.549370051363606 -2.223244957036037 a36.70750543954162,36.70750543954162 0 0,0 0.08404970124473345,0.6262679003594915 l -15.585335751666175 1.9552587146118807" fill="#ffca12" stroke="none" /><path d="M 120.83666639777658 97.38593545837742 l 8.487333096662386 -1.0647786012110045 a29.553863253717445,29.553863253717445 0 0,0 0.058980570302071586,0.505309507520871 l -8.504404019968046 0.9185253553652809" fill="#ff6c09" stroke="none" /><path d="M 120.87857604477298 97.74499172005257 l 25.446504471455953 -2.7483712565358704 a46.59449422003843,46.59449422003843 0 0,0 0.07926139337726454,0.7981514145427903 l -25.490042990515448 2.3099443112886453" fill="#bdff1f" stroke="none" /><path d="M 120.94382443527127 98.46500227214037 l 43.1299339045041 -3.161043998948727 a64.24561709318277,64.24561709318277 0 0,0 0.07134142005569728,1.1036201918017117 l -43.17795591556421 2.41816474289398" fill="#34ff61" stroke="none" /><path d="M 120.96714384426684 98.82574320788733 l 27.718872628303206 -1.552384754702345 a48.762308949558374,48.762308949558374 0 0,0 0.03972129334906793,0.8384537227192108 l -27.74148752988577 1.0750199253601342" fill="#a5ff21" stroke="none" /><path d="M 120.98425023603335 99.18683210126433 l 4.128531053876182 -0.15998612693726902 a25.131629729735273,25.131629729735273 0 0,0 0.013030517301188187,0.4324194316768932 l -4.130673265633016 0.08889654783537676" fill="#ff2e04" stroke="none" /><line stroke="#e1ed5e" stroke-width="0.3" x1="184.98032266829074" x2="189.97916517819016" y1="98.17113171792111" y2="98.06355123074" /><path d="M 185.9800911702706 98.14961562048488 a86.0,86.0 0 0,1 -9.607161424134198,41.387399972396054" fill="none" id="id316" stroke="none" /><text fill="#e1ed5e" style="font-size:6.75px; font-family:Arial;" text-anchor="middle"><textPath startOffset="21.466115282336823" xlink:href="#id316">April</textPath></text><path d="M 120.99513854157772 99.54816195383933 l 23.79618098148522 -0.5121195032586786 a44.80169102583295,44.80169102583295 0 0,0 0.009956627291993782,0.7711517563531698 l -23.80147061589493 0.10243148884504612" fill="#d2ff1c" stroke="none" /><path d="M 120.99980553446 99.90962569577887 l 9.637509111078074 -0.04147577361653315 a30.63759835778136,30.63759835778136 0 0,0 -0.0022696664194437376,0.5273905436638245 l -9.636795147369128 -0.12442424825097616" fill="#ff7a0b" stroke="none" /><path d="M 120.99824983174949 100.27111621757518 l 27.226591349170548 0.3515326526352398 a48.22886063904616,48.22886063904616 0 0,0 -0.017862907372572016,0.830019114656693 l -27.216506379112968 -0.8201415830820477" fill="#abff21" stroke="none" /><path d="M 120.9904718944345 100.63252640178507 l 29.551689005803905 0.8905099231460679 a50.56510326413512,50.56510326413512 0 0,0 -0.03370493323126453,0.8697745621948547 l -29.531981939721437 -1.3990617323549288" fill="#91ff24" stroke="none" /><path d="M 120.9764740272857 100.99374915477107 l 16.271927612268463 0.770873803202287 a37.2901772439519,37.2901772439519 0 0,0 -0.03589383610243255,0.6409085557241626 l -16.256247425278502 -1.050854075261873" fill="#ffd113" stroke="none" /><path d="M 120.95626037817324 101.35467743843564 l 61.194499557856005 3.955801579642982 a82.32222388558608,82.32222388558608 0 0,0 -0.10358268826009731,1.4133034844800483 l -61.11734031093157 -5.008578200619801" fill="#4be1ff" stroke="none" /><path d="M 120.92983693683757 101.71520430193887 l 11.542221362595663 0.9458873375267737 a32.58091433516599,32.58091433516599 0 0,0 -0.05061740399270543,0.5585588351792588 l -11.524229362325883 -1.1444275612546029" fill="#ff940d" stroke="none" /><path d="M 120.89721153311464 102.0752229133903 l 9.672405747498855 0.9605299732459541 a30.71998203567027,30.71998203567027 0 0,0 -0.05678471431208338,0.5257559302501442 l -9.65443873168572 -1.12688222538089" fill="#ff7b0b" stroke="none" /><path d="M 120.8583938346157 102.4346265915055 l 30.214179058943863 3.526649480332286 a51.41930099070407,51.41930099070407 0 0,0 -0.11018052096017764,0.878247159634196 l -30.148997028736837 -4.046214394253877" fill="#88ff25" stroke="none" /><path d="M 120.81339534386255 102.79330883721812 l 10.590552539103285 1.4213290772484786 a31.685503237065582,31.685503237065582 0 0,0 -0.07720089724481002,0.5399428955220626 l -10.564517590841874 -1.6034174447509506" fill="#ff880c" stroke="none" /><path d="M 120.76222939487914 103.15116336523771 l 6.43521688025919 0.9766976028804282 a27.508913465659624,27.508913465659624 0 0,0 -0.07508393615613042,0.4675477421174381 l -6.4174511897417705 -1.0873245746910711" fill="#ff4f07" stroke="none" /><path d="M 120.70491114924044 103.5080841355445 l 12.041239524013132 2.040176895327151 a33.21285269864837,33.21285269864837 0 0,0 -0.10035588875208172,0.5628491195289801 l -12.004337192921863 -2.2471447655893493" fill="#ff9c0e" stroke="none" /><path d="M 120.64145759157962 103.86396538481128 l 27.618399194418085 5.170009821140958 a49.09813117652004,49.09813117652004 0 0,0 -0.16265525127238736,0.8293756219756122 l -27.525314010170035 -5.644649170184515" fill="#a1ff22" stroke="none" /><path d="M 120.49622156327973 104.57218783832717 l 2.9882696044799504 0.6666072525154567 a24.061718546529868,24.061718546529868 0 0,0 -0.09365672651103202,0.4034707265852619 l -2.9763523120383657 -0.7179466364492835" fill="#ff1f03" stroke="none" /><path d="M 120.41448212921028 104.9243191809786 l 17.81817519713794 4.2980459331739 a39.3292271031698,39.3292271031698 0 0,0 -0.16441243605611178,0.656745954433288 l -17.741551446786765 -4.604119727004584" fill="#ffea16" stroke="none" /><path d="M 120.32669344350535 105.2749913415812 l 32.421883260972486 8.413820671557938 a54.495833957094774,54.495833957094774 0 0,0 -0.24344566737495996,0.9059518923134108 l -32.272249517255744 -8.970663497046896" fill="#67ff28" stroke="none" /><path d="M 120.23288151984713 105.62410040840565 l 23.058737499222406 6.40959889274711 a44.93299674140183,44.93299674140183 0 0,0 -0.21355447245546688,0.7434111343322402 l -22.94499038988084 -6.805567502583933" fill="#d0ff1d" stroke="none" /><path d="M 120.13307415673323 105.97154293290107 l 2.5430530124290707 0.7542787617103611 a23.652556328222246,23.652556328222246 0 0,0 -0.1191336772055506,0.38933575013617067 l -2.529692562717387 -0.7979414843985888" fill="#ff1902" stroke="none" /><path d="M 120.02730092923936 106.31721596034902 l 27.793022571546917 8.76675925506179 a50.14289229810123,50.14289229810123 0 0,0 -0.26673093457884073,0.8209134062086735 l -27.63799938595183 -9.243871561248259" fill="#96ff23" stroke="none" /><path d="M 119.9155931802556 106.66101706037122 l 1.9726783589287968 0.659786735173769 a23.0800909700533,23.0800909700533 0 0,0 -0.12925858670202908,0.37568595755935075 l -1.9610289412835369 -0.6936453958224201" fill="#ff1101" stroke="none" /><path d="M 119.79798401119884 107.00284435728193 l 8.377277232949211 2.963168803801471 a29.88589574536588,29.88589574536588 0 0,0 -0.1757230029847525,0.4835142341872929 l -8.325029968959232 -3.106930834994895" fill="#ff700a" stroke="none" /><path d="M 119.67450827220406 107.3425965602758 l 25.44234802989315 9.495174900689149 a48.15642501635451,48.15642501635451 0 0,0 -0.2965191061400473,0.7741178186232437 l -25.275134644159596 -9.931716286145535" fill="#acff21" stroke="none" /><path d="M 119.54520255179757 107.68017299344265 l 27.998050833494226 11.001670272312452 a51.08201454782592,51.08201454782592 0 0,0 -0.3286212678036728,0.8156110366546965 l -27.80452695143316 -11.481980676809963" fill="#8cff24" stroke="none" /><path d="M 119.41010516605496 108.01547362559984 l 13.048471688123666 5.388413909959196 a35.1172808238983,35.1172808238983 0 0,0 -0.2355349784400105,0.5567351131243277 l -12.953785728491347 -5.612223548749687" fill="#ffb510" stroke="none" /><path d="M 119.26925614724726 108.34839909993367 l 26.67777583520565 11.558137899509916 a50.07394495450471,50.07394495450471 0 0,0 -0.34946585979800765,0.787953257551889 l -26.47486889067637 -12.015639493554493" fill="#96ff23" stroke="none" /><path d="M 119.12269723197855 108.67885076344098 l 1.2381461461903902 0.561933575361229 a22.359696739146038,22.359696739146038 0 0,0 -0.16208159064103234,0.3491093267855692 l -1.2282899387095265 -0.5831629694256288" fill="#ff0601" stroke="none" /><path d="M 118.97047184881838 109.00673069616215 l 24.030218766392277 11.408978686644438 a47.60105653226914,47.60105653226914 0 0,0 -0.35779389311036025,0.7371613948578664 l -23.830271616667204 -11.82092903746758" fill="#b2ff20" stroke="none" /><path d="M 118.81262510543309 109.33194174019688 l 23.599990730725665 11.706698949989425 a47.34400050857919,47.34400050857919 0 0,0 -0.3684295019405508,0.7269463602446123 l -23.394982558998844 -12.111199521936733" fill="#b5ff20" stroke="none" /><line stroke="#e1ed5e" stroke-width="0.3" x1="174.80103733775053" x2="179.2010983576182" y1="140.37084112569926" y2="142.7455964860345" /><path d="M 175.68104954172406 140.8457921977663 a86.0,86.0 0 0,1 -30.038265399797805,32.042727171017184" fill="none" id="id317" stroke="none" /><text fill="#e1ed5e" style="font-size:6.75px; font-family:Arial;" text-anchor="middle"><textPath startOffset="22.206326154141568" xlink:href="#id317">May</textPath></text><path d="M 118.48025628344425 109.97397251340804 l 5.53399983908731 2.9867530751567193 a27.28854897022966,27.28854897022966 0 0,0 -0.22665555677360802,0.41144567210094896 l -5.481767872862193 -3.0815692656554736" fill="#ff4c07" stroke="none" /><path d="M 118.30583269289576 110.29060199501025 l 19.745611381521485 11.09997186602928 a43.651678618961384,43.651678618961384 0 0,0 -0.373841298296098,0.6518238147560572 l -19.551618087073006 -11.438215526643653" fill="#dfff1b" stroke="none" /><path d="M 118.12598468904814 110.60418214915192 l 6.639512213433238 3.884290873052826 a28.692258317218073,28.692258317218073 0 0,0 -0.25306452189311374,0.42415069493696156 l -6.571666815841897 -3.9980036618758916" fill="#ff6008" stroke="none" /><path d="M 117.94076556474637 110.91462005526583 l 11.497022908812893 6.9944415896587655 a34.45747929282883,34.45747929282883 0 0,0 -0.31263658253299276,0.504069716698197 l -11.374921686611938 -7.191307637722236" fill="#ffad10" stroke="none" /><path d="M 117.75023020441432 111.22182372390056 l 14.025409373261988 8.866965094522934 a37.593226873488874,37.593226873488874 0 0,0 -0.35050338056153796,0.5439890302907446 l -13.8707011293234 -9.107075724735132" fill="#ffd513" stroke="none" /><path d="M 117.55443506779139 111.5257021239791 l 8.155456034420963 5.354621585653236 a30.756199847016095,30.756199847016095 0 0,0 -0.29437622183892814,0.4400525101589213 l -8.062076707171315 -5.494211010017964" fill="#ff7c0b" stroke="none" /><path d="M 117.35343817320211 111.8261652097733 l 12.805871040052828 8.727051381010059 a36.496830608264816,36.496830608264816 0 0,0 -0.3582582644307091,0.5160977500764033 l -12.653751868459983 -8.946190393273481" fill="#ffc712" stroke="none" /><path d="M 116.93607887273984 112.41649034213515 l 4.542945052510779 3.3306076213511027 a26.633053956561593,26.633053956561593 0 0,0 -0.27424275483848315,0.36739298621663685 l -4.484941030977204 -3.408313487077055" fill="#ff4306" stroke="none" /><path d="M 116.498646956653 112.99209946851258 l 39.870802525694664 31.39684324806794 a71.7488192964791,71.7488192964791 0 0,0 -0.7724344225784276,0.9637307093885952 l -39.32445019106138 -32.07850179103478" fill="#3effb4" stroke="none" /><path d="M 116.27256486870786 113.27417163493432 l 12.33597856855591 10.06294324988519 a36.91977368225694,36.91977368225694 0 0,0 -0.4059487345837243,0.4889914018870022 l -12.160933834078643 -10.273795908885962" fill="#ffcc13" stroke="none" /><path d="M 116.0416608686014 113.55231037782055 l 14.398719092512223 12.164320875696793 a39.84923907938962,39.84923907938962 0 0,0 -0.44717960366490517,0.5201709053641945 l -14.187196979276539 -12.410368880222515" fill="#fff116" stroke="none" /><path d="M 115.80600337817218 113.82643327865902 l 7.319992172171741 6.403224202052706 a30.72540824759604,30.72540824759604 0 0,0 -0.351646664916746,0.39507875581466423 l -7.208686657606656 -6.528277127608237" fill="#ff7b0b" stroke="none" /><path d="M 115.56566222782051 114.09645910891815 l 17.18554985042851 15.563449674364442 a44.185428385691694,44.185428385691694 0 0,0 -0.5153990189201413,0.5593638424953152 l -16.91510442351265 -15.856964771661092" fill="#d9ff1c" stroke="none" /><path d="M 115.32070863581623 114.36230785411682 l 9.969411539479175 9.345765986284373 a34.6650103664026,34.6650103664026 0 0,0 -0.4118425229903681,0.4318152388306922 l -9.807062465109842 -9.515988341697572" fill="#ffaf10" stroke="none" /><path d="M 115.07121518719521 114.62390073753431 l 42.66725852859599 41.40089207902972 a80.4519033781553,80.4519033781553 0 0,0 -0.9729292902385125,0.9855722343514061 l -41.94828861330194 -42.12920480736179" fill="#49f3ff" stroke="none" /><path d="M 114.81725581225074 114.88116024355365 l 32.5343768739541 32.674692387047 a67.10988181685816,67.10988181685816 0 0,0 -0.8256114839733394,0.8080346052509974 l -31.96711543760497 -33.22987709522057" fill="#38ff81" stroke="none" /><path d="M 114.55890576462653 115.13401014063108 l 4.422908826867283 4.597622109728191 a27.379674878443417,27.379674878443417 0 0,0 -0.34245997412368123,0.3238172808077699 l -4.343113018352794 -4.673074027281883" fill="#ff4e07" stroke="none" /><path d="M 114.29624159901734 115.38237550388516 l 12.780315145392603 13.751278982157974 a39.773229047254794,39.773229047254794 0 0,0 -0.5054996548509485,0.46176194942520704 l -12.54171594107479 -13.969233698169763" fill="#fff016" stroke="none" /><path d="M 114.0293411484842 115.62618273729858 l 3.619158198427034 4.031096454584644 a26.41738356509916,26.41738356509916 0 0,0 -0.3409825634057123,0.3008774668427043 l -3.549233282114734 -4.092797063199637" fill="#ff4006" stroke="none" /><path d="M 113.75828350139079 115.86535959552629 l 23.441783672207436 27.031884281386695 a56.78044143854086,56.78044143854086 0 0,0 -0.7439171283303723,0.6339823157005775 l -22.973001067300014 -27.43139098731022" fill="#50ff2b" stroke="none" /><path d="M 113.20401910651253 116.32954008644616 l 39.612057319537584 48.98862025933848 a84.0,84.0 0 0,0 -1.1321700291305956,0.899464343979496 l -38.762929797689644 -49.6632185173231" fill="#4dd2ff" stroke="none" /><path d="M 112.92097659922987 116.55440617244103 l 13.483250119347794 17.274793223725915 a42.91384299257844,42.91384299257844 0 0,0 -0.5862261287862643,0.4494931975887808 l -13.183895262068036 -17.504325763142067" fill="#e8ff1a" stroke="none" /><path d="M 112.63410532772338 116.77436683061366 l 2.4745728854504496 3.285503187831649 a25.113154770083238,25.113154770083238 0 0,0 -0.34753620078051967,0.25709897292030043 l -2.417651714251366 -3.3276121094917186" fill="#ff2e04" stroke="none" /><path d="M 112.34349029814194 116.9893568818739 l 9.71105714953372 13.366123489280538 a37.52143722840743,37.52143722840743 0 0,0 -0.5257873141025617,0.37513528809314634 l -9.479542507582273 -13.531303039217905" fill="#ffd413" stroke="none" /><path d="M 112.04921762599082 117.19931262002967 l 10.744822416358925 15.337390818390432 a39.72663252897158,39.72663252897158 0 0,0 -0.563443047422419,0.3875412657651472 l -10.479222484313624 -15.520072873520673" fill="#ffef16" stroke="none" /><path d="M 111.7513745106137 117.40417183066458 l 22.421170376199584 33.206490144581814 a61.067191925074795,61.067191925074795 0 0,0 -0.8762423811394091,0.5807256701825569 l -21.84625329632021 -33.58751383585569" fill="#31ff3b" stroke="none" /><path d="M 111.45004920935366 117.60387380957326 l 5.452893011220681 8.38354828975022 a31.000896165764004,31.000896165764004 0 0,0 -0.44983510545532523,0.28710604751297175 l -5.307776103718425 -8.476168766087" fill="#ff7f0b" stroke="none" /><path d="M 111.1453310114006 117.79835938074945 l 24.572008998030398 39.23987958783783 a67.29850727903977,67.29850727903977 0 0,0 -0.9871114312119607,0.6063644639251747 l -23.89291836688613 -39.65703251859138" fill="#38ff83" stroke="none" /><line stroke="#e1ed5e" stroke-width="0.3" x1="143.8653032363475" x2="146.44561519142675" y1="172.8068346515853" y2="177.08958963109032" /><path d="M 144.38136562736335 173.6633856474863 a86.0,86.0 0 0,1 -40.68145358897372,12.25698825130547" fill="none" id="id318" stroke="none" /><text fill="#e1ed5e" style="font-size:6.75px; font-family:Arial;" text-anchor="middle"><textPath startOffset="21.466115282336833" xlink:href="#id318">June</textPath></text><path d="M 110.8373102113329 117.98757091392108 l 2.7786840890849103 4.6120094493125725 a26.38439564180439,26.38439564180439 0 0,0 -0.3910319822489646,0.23102858760864592 l -2.6988842358075638 -4.659156609214968" fill="#ff4006" stroke="none" /><path d="M 110.5260780823613 118.17145234162733 l 17.610948708020775 30.40225548724547 a56.13463608902597,56.13463608902597 0 0,0 -0.8402853368102415,0.47713594434103496 l -17.085014604289334 -30.700894597381133" fill="#57ff2a" stroke="none" /><path d="M 110.21172684928248 118.3499491758327 l 2.0052455523991295 3.6033233668186107 a25.123705737716683,25.123705737716683 0 0,0 -0.37969957535600085,0.20704248287374113 l -1.9429231651744798 -3.637306501452122" fill="#ff2e04" stroke="none" /><path d="M 109.89434966115114 118.52300852407294 l 4.458446108127915 8.346565271412196 a30.46271068611025,30.46271068611025 0 0,0 -0.46464206506973577,0.24307876810430856 l -4.314113140531683 -8.422073458461222" fill="#ff780b" stroke="none" /><path d="M 109.57404056367764 118.69057910512821 l 6.766244604480915 13.209159621120198 a35.841292529422745,35.841292529422745 0 0,0 -0.5515225535467633,0.2765448577687461 l -6.537868143251391 -13.323672319798247" fill="#ffbf11" stroke="none" /><path d="M 108.92500713936063 119.00905698771935 l 2.967510469021242 6.320395573523277 a27.982371988770243,27.982371988770243 0 0,0 -0.4377668929834433,0.2009573094584845 l -2.8582755802703796 -6.370539953315837" fill="#ff5608" stroke="none" /><path d="M 108.59647513512805 119.15986991738527 l 12.418121891486471 27.677576718259317 a51.335754553116786,51.335754553116786 0 0,0 -0.8093431896848119,0.3547922699539449 l -11.939858027143906 -27.887233541507715" fill="#89ff24" stroke="none" /><path d="M 108.2653958097858 119.30500536409082 l 0.43583621792828275 1.0179573632770285 a22.107334819423624,22.107334819423624 0 0,0 -0.3511155769868248,0.1467663396568092 l -0.41824918144399686 -1.0253087459538108" fill="#ff0300" stroke="none" /><path d="M 107.93186726928326 119.44442032107085 l 7.292318351770135 17.87661068106727 a40.30676348811504,40.30676348811504 0 0,0 -0.6446758261249081,0.25652981580784856 l -6.98352144960336 -17.99948734128119" fill="#fff617" stroke="none" /><path d="M 107.59598834532513 119.57807347666477 l 0.7321470208509805 1.8870524174465646 a23.024106243835014,23.024106243835014 0 0,0 -0.37072076006761484,0.1401748701431025 l -0.6995560400230908 -1.899375537696298" fill="#ff1001" stroke="none" /><line stroke="#e1ed5e" stroke-width="0.3" x1="102.19456741930631" x2="102.32365962044197" y1="184.97166512339345" y2="189.96999836594603" /><path d="M 102.22038585953345 185.97133177190398 a86.0,86.0 0 0,1 -42.740103519485714,-10.115201625700543" fill="none" id="id319" stroke="none" /><text fill="#e1ed5e" style="font-size:6.75px; font-family:Arial;" text-anchor="middle"><textPath startOffset="22.20632615414155" xlink:href="#id319">July</textPath></text><line stroke="#e1ed5e" stroke-width="0.3" x1="58.666819895761336" x2="56.23545636021788" y1="174.27360380694188" y2="178.64263932499728" /><path d="M 58.180547188652646 175.14741091055294 a86.0,86.0 0 0,1 -31.652253787137756,-30.449443065178592" fill="none" id="id320" stroke="none" /><text fill="#e1ed5e" style="font-size:6.75px; font-family:Arial;" text-anchor="middle"><textPath startOffset="22.20632615414155" xlink:href="#id320">August</textPath></text><line stroke="#e1ed5e" stroke-width="0.3" x1="26.63291911575756" x2="22.317208475507996" y1="142.92168965132927" y2="145.44649492493687" /><path d="M 25.769776987707644 143.4266507060508 a86.0,86.0 0 0,1 -11.730757126820373,-40.83630448921669" fill="none" id="id321" stroke="none" /><text fill="#e1ed5e" style="font-size:6.75px; font-family:Arial;" text-anchor="middle"><textPath startOffset="21.46611528233685" xlink:href="#id321">September</textPath></text><line stroke="#e1ed5e" stroke-width="0.3" x1="15.007084014347285" x2="10.007500721073583" y1="101.09737516637583" y2="101.16192664675087" /><path d="M 14.007167355692545 101.11028546245083 a86.0,86.0 0 0,1 10.666146001902534,-42.60595125391555" fill="none" id="id322" stroke="none" /><text fill="#e1ed5e" style="font-size:6.75px; font-family:Arial;" text-anchor="middle"><textPath startOffset="22.20632615414155" xlink:href="#id322">October</textPath></text><line stroke="#e1ed5e" stroke-width="0.3" x1="26.266209847984243" x2="21.928928074336255" y1="57.711370442889674" y2="55.22380399835377" /><path d="M 25.398753493254645 57.213857153982495 a86.0,86.0 0 0,1 29.58750427330803,-30.492523968695096" fill="none" id="id323" stroke="none" /><text fill="#e1ed5e" style="font-size:6.75px; font-family:Arial;" text-anchor="middle"><textPath startOffset="21.46611528233685" xlink:href="#id323">November</textPath></text><line stroke="#e1ed5e" stroke-width="0.3" x1="56.762969772571076" x2="54.21961505331055" y1="26.818313649435495" y2="22.513508569990535" /><path d="M 56.25429882871897 25.957352633546506 a86.0,86.0 0 0,1 42.265352541879196,-11.944610805530505" fill="none" id="id324" stroke="none" /><text fill="#e1ed5e" style="font-size:6.75px; font-family:Arial;" text-anchor="middle"><textPath startOffset="22.20632615414155" xlink:href="#id324">December</textPath></text></svg>