<?xml version="1.0" encoding="utf-8" ?>
<svg baseProfile="full" height="200mm" version="1.1" viewBox="0,0,200,200" width="200mm" xmlns="http://www.w3.org/2000/svg" xmlns:ev="http://www.w3.org/2001/xml-events" xmlns:xlink="http://www.w3.org/1999/xlink"><defs /><rect fill="#1a1a1a" height="200" width="200" x="0" y="0" /><text alignment-baseline="middle" fill="#e1ed5e" style="dominant-baseline: central; font-size:9.0px; font-family:Arial;" text-anchor="middle" x="100.0" y="100.0">2024</text><line stroke="#e1ed5e" stroke-width="0.3" x1="100.0" x2="100.0" y1="15.0" y2="10.0" /><path d="M 100.0 14.0 a86.0,86.0 0 0,1 42.35913384403234,11.155469271406648" fill="none" id="id301" stroke="none" /><text fill="#e1ed5e" style="font-size:6.75px; font-family:Arial;" text-anchor="middle"><textPath startOffset="22.145653131862478" xlink:href="#id301">January</textPath></text><path d="M 100.0 79.0 l 0.0 -5.691285174561859 a26.69128517456186,26.69128517456186 0 0,0 0.45819140288346094,0.0039330221262529295 l -0.09769847803460617 5.690446550630041" fill="#ff4106" stroke="none" /><path d="M 100.36049292484886 79.00309439819443 l 0.021187915744486994 -1.234089870064801 a22.23427174283873,22.23427174283873 0 0,0 0.38156835749772433,0.009827847372996875 l -0.04236958731295269 1.2335443053417592" fill="#ff0100" stroke="none" /><path d="M 100.72087961077811 79.0123766808444 l 0.32715754821538323 -9.524835056094249 a30.530451978115007,30.530451978115007 0 0,0 0.523632491415727,0.022487032233330897 l -0.49061580023194645 9.517815455435088" fill="#ff760a" stroke="none" /><path d="M 101.08105385017728 79.02784411241856 l 0.28199775786998305 -5.47068116637104 a26.47794442829886,26.47794442829886 0 0,0 0.45372561173553067,0.027295006101923494 l -0.3758677217379761 5.465034182444426" fill="#ff3e05" stroke="none" /><path d="M 101.44090949804482 79.04949213459386 l 0.5858058793746844 -8.517488919389976 a29.53761008832337,29.53761008832337 0 0,0 0.5055587088563464,0.03913344144221841 l -0.7319335830062642 8.506177710952704" fill="#ff6809" stroke="none" /><path d="M 101.80034050326958 79.07731436759882 l 1.0503770944512674 -12.206974015619346 a33.25208172754956,33.25208172754956 0 0,0 0.5682946023987986,0.05381808970083657 l -1.2597712602350788 12.187144170413326" fill="#ff9a0e" stroke="none" /><path d="M 102.51750503828377 79.15144685158666 l 0.730573021085711 -6.050192642031755 a27.09414210080742,27.09414210080742 0 0,0 0.4612741284705271,0.05972117096028558 l -0.8343249714470298 6.036759874871072" fill="#ff4706" stroke="none" /><path d="M 102.87502721639298 79.19773525538626 l 1.7818217655322826 -12.892374681871937 a34.01492273284391,34.01492273284391 0 0,0 0.5777270939761885,0.08490598768938681 l -2.002873965116153 12.859887620883669" fill="#ffa40f" stroke="none" /><path d="M 103.23170211078529 79.25015418208739 l 1.4497586696538514 -9.308490645875029 a30.420711135820873,30.420711135820873 0 0,0 0.5153014916254983,0.08479266435176082 l -1.6093376643324202 9.2822319830276" fill="#ff750a" stroke="none" /><path d="M 103.58742460773223 79.30868818359171 l 0.9344165271422201 -5.389466217027233 a26.46987023161193,26.46987023161193 0 0,0 0.4470449323125561,0.08146647851756458 l -1.0267961930058298 5.372631564578303" fill="#ff3e05" stroke="none" /><path d="M 103.94208987418118 79.37332000966035 l 1.6017392992685282 -8.380976844376328 a29.532663221339128,29.532663221339128 0 0,0 0.4971381066844777,0.09944154450159426 l -1.745373891483963 8.352245903211875" fill="#ff6809" stroke="none" /><path d="M 104.29559338865022 79.4440306129975 l 2.5016641956885524 -11.971368789002838 a33.22996297747059,33.22996297747059 0 0,0 0.5573734216676135,0.12147694305004413 l -2.7068000339753 11.926660387819075" fill="#ff9a0e" stroke="none" /><path d="M 104.64783097203109 79.52079915486377 l 1.0072522333721476 -4.438139190747295 a25.55100390442375,25.55100390442375 0 0,0 0.42690598617756914,0.10074865033317072 l -1.0832903732896015 4.420194396767896" fill="#ff3104" stroke="none" /><path d="M 104.9986988182912 79.60360301121754 l 1.6435187039725663 -6.706117164341006 a27.90457537812259,27.90457537812259 0 0,0 0.4642719491385248,0.11801611394967884 l -1.7583959463364855 6.6769158185560595" fill="#ff5207" stroke="none" /><path d="M 105.3480935250658 79.69241777938227 l 2.0864715335900423 -7.922672260829023 a29.192807773467607,29.192807773467607 0 0,0 0.48351435726430064,0.13178398816522752 l -2.222167291789036 7.885687778519653" fill="#ff6409" stroke="none" /><path d="M 105.69591212413111 79.78721728523813 l 1.8857098869220152 -6.691719144674697 a27.952338231763562,27.952338231763562 0 0,0 0.4607343814022783,0.1341130636113829 l -2.000304280705898 6.658362386760798" fill="#ff5307" stroke="none" /><path d="M 106.38641147887787 79.99465700312896 l 2.9405964877220003 -9.211376615308412 a30.669362277454166,30.669362277454166 0 0,0 0.5001694871843859,0.1644156450658756 l -3.0982887125541287 9.159540048840514" fill="#ff780b" stroke="none" /><path d="M 106.72888874123014 80.10723608172694 l 3.919384231675564 -11.58696305201065 a33.231896235832245,33.231896235832245 0 0,0 0.5388223262999887,0.18743037518523475 l -4.117712330020571 11.517974244256825" fill="#ff9a0e" stroke="none" /><path d="M 107.06938296918511 80.22567764915836 l 1.915975350550338 -5.359324054616387 a26.691512616722054,26.691512616722054 0 0,0 0.43012844896474023,0.15794912435966846 l -2.007692951169203 5.325644081247997" fill="#ff4106" stroke="none" /><path d="M 107.40779381753099 80.34994680014964 l 4.038532458301173 -10.71268715216351 a32.44864229666039,32.44864229666039 0 0,0 0.5195301706934763,0.20096543080344922 l -4.221834891488175 10.641781833222023" fill="#ff900d" stroke="none" /><path d="M 107.74402155503746 80.48000691201159 l 5.234885714188202 -13.195331680203282 a35.19580242857684,35.19580242857684 0 0,0 0.5596895812307583,0.22762088022467528 l -5.4606297566094 13.103523543399314" fill="#ffb410" stroke="none" /><path d="M 108.07796709384702 80.6158196554323 l 10.500371511911283 -25.197069102557528 a48.29743748499513,48.29743748499513 0 0,0 0.7625588680558698,0.3254910362198613 l -10.931365455137582 25.013103416678266" fill="#acff21" stroke="none" /><path d="M 108.4095320186766 80.7573450057729 l 2.165247249628587 -4.954509443482545 a26.40698247431799,26.40698247431799 0 0,0 0.4138182858725848,0.18509565571470796 l -2.2499789383568034 4.916610036857985" fill="#ff3d05" stroke="none" /><path d="M 108.73861861582097 80.90454125486305 l 4.398049626939676 -9.610532156449036 a31.56906660264591,31.56906660264591 0 0,0 0.4908407875383825,0.22973827257224577 l -4.562379128349563 9.533617652306257" fill="#ff840c" stroke="none" /><path d="M 109.06512990194946 81.05736502329252 l 5.281355706557815 -11.036002176864727 a33.23462554175459,33.23462554175459 0 0,0 0.5125091833957307,0.2506939237615454 l -5.470025139215613 10.94371450300596" fill="#ff9a0e" stroke="none" /><path d="M 109.3889696526874 81.21577127319529 l 2.9013359687652978 -5.804615465446052 a27.489322854146398,27.489322854146398 0 0,0 0.42028920295205696,0.21460266170645428 l -3.0005523934309335 5.753954852066763" fill="#ff4c07" stroke="none" /><path d="M 109.71004243097381 81.37971332152246 l 5.636023162573292 -10.807817551743648 a33.18908024917552,33.18908024917552 0 0,0 0.5029112632878595,0.2677719211112283 l -5.820723241647711 10.709475162909847" fill="#ff9a0e" stroke="none" /><path d="M 110.02825361518725 81.54914285379988 l 4.565035143097562 -8.399150492675643 a30.55956457461998,30.55956457461998 0 0,0 0.4587657304556143,0.2544696172760146 l -4.708545061709277 8.319547959966483" fill="#ff760a" stroke="none" /><path d="M 110.34350942703115 81.72400993836675 l 4.186643018413879 -7.397397057151431 a29.499968410811086,29.499968410811086 0 0,0 0.4385767778921697,0.2532124207763629 l -4.313012264166447 7.324437739098896" fill="#ff6809" stroke="none" /><line stroke="#e1ed5e" stroke-width="0.3" x1="143.13028292997686" x2="145.6673583964461" y1="26.7553504044142" y2="22.446841604673864" /><path d="M 143.63769802327073 25.89364864446614 a86.0,86.0 0 0,1 29.32050498858742,28.57503671076993" fill="none" id="id302" stroke="none" /><text fill="#e1ed5e" style="font-size:6.75px; font-family:Arial;" text-anchor="middle"><textPath startOffset="20.669276256404974" xlink:href="#id302">February</textPath></text><path d="M 110.96478420261332 82.08984904055464 l 6.377468043512493 -10.417114763747387 a33.21426946841713,33.21426946841713 0 0,0 0.48371976378507636,0.3018769083609345 l -6.555351936087281 10.306102058544907" fill="#ff9a0e" stroke="none" /><path d="M 111.27062007382361 82.28071324371311 l 6.489344021046818 -10.202326652478025 a33.09128012029163,33.09128012029163 0 0,0 0.4766946515902993,0.3089877138994413 l -6.663524304894124 10.089425096874688" fill="#ff980e" stroke="none" /><path d="M 111.5731344415666 82.4767994020092 l 3.7626626204345306 -5.697150777374951 a27.827529346356503,27.827529346356503 0 0,0 0.39634844383737455,0.2666809214828256 l -3.8599073523689063 5.631720181835006" fill="#ff5107" stroke="none" /><path d="M 111.8722381534696 82.67804972795209 l 3.5755134290176023 -5.216780948450085 a27.324484148545,27.324484148545 0 0,0 0.3846310307359364,0.2685023314049 l -3.6645395509272993 5.154633801240058" fill="#ff4a06" stroke="none" /><path d="M 112.16784306229584 82.88440491214696 l 5.175320340362714 -7.279736181842642 a29.931881073021568,29.931881073021568 0 0,0 0.41622274612144344,0.30131317000902974 l -5.299524096858126 7.189822240460537" fill="#ff6e0a" stroke="none" /><path d="M 112.45986205192187 83.09580414077388 l 4.456270775062341 -6.045787157954927 a28.510651874502468,28.510651874502468 0 0,0 0.39147434534373543,0.2937696469496134 l -4.559398109316843 5.968398483741298" fill="#ff5a08" stroke="none" /><path d="M 113.03279911837588 83.53348406188908 l 6.705356055493439 -8.471998329415733 a31.804469238447833,31.804469238447833 0 0,0 0.42519429704543216,0.34250642777476376 l -6.849801122894131 8.355643607847561" fill="#ff870c" stroke="none" /><path d="M 113.31354834802062 83.75963576809568 l 7.6416393871835995 -9.321557539179908 a33.05346786115919,33.05346786115919 0 0,0 0.43571658328208923,0.3634902705712043 l -7.800530304627581 9.189005084696834" fill="#ff980e" stroke="none" /><path d="M 113.59037401385872 83.9905735841838 l 4.489381213091946 -5.2884797806338195 a27.93704274649044,27.93704274649044 0 0,0 0.36294278742784447,0.3135013354664003 l -4.579503480282651 5.210634312702699" fill="#ff5207" stroke="none" /><path d="M 113.86319453409587 84.22622945171908 l 4.1480952664246615 -4.719770957845836 a27.283544559709885,27.283544559709885 0 0,0 0.3491448864484225,0.31220751039638495 l -4.22850517969646 4.647867917566065" fill="#ff4906" stroke="none" /><path d="M 114.13192950727249 84.46653392183569 l 5.513954224170369 -6.0608015949714495 a29.193717542108388,29.193717542108388 0 0,0 0.36779945363386335,0.3404296833564917 l -5.617183449118198 5.965254165482583" fill="#ff6409" stroke="none" /><path d="M 114.39649973595853 84.71141617570332 l 4.721331135981431 -5.013890053734511 a27.88694861070747,27.88694861070747 0 0,0 0.34570190517272686,0.33117460506200463 l -4.80670552701947 4.932103318366926" fill="#ff5207" stroke="none" /><path d="M 114.91283532996326 85.21462403516908 l 7.491129853458951 -7.427103487303932 a31.548881110928598,31.548881110928598 0 0,0 0.3780054712587369,0.3878669139759243 l -7.617522125868501 7.297413881260265" fill="#ff840c" stroke="none" /><path d="M 115.16444852881244 85.47280134310134 l 41.122350769719056 -39.39428181218281 a77.94696806964784,77.94696806964784 0 0,0 0.9173399255409276,0.9741832114910881 l -41.79254652899624 38.68255714074723" fill="#45fff3" stroke="none" /><path d="M 115.41159269507618 85.73525988315684 l 5.011625375015894 -4.638685627892204 a27.82889399931767,27.82889399931767 0 0,0 0.32149303177438787,0.3533771592098386 l -5.090516107632159 4.551970893124693" fill="#ff5107" stroke="none" /><path d="M 115.6541949942343 86.00192230759917 l 4.39669968812966 -3.9315559725212084 a26.898143819259296,26.898143819259296 0 0,0 0.3048314585254449,0.3468422426629211 l -4.463542210613695 3.8555014520469895" fill="#ff4406" stroke="none" /><path d="M 115.8921839302757 86.27271002978787 l 6.546471201715272 -5.654685904835832 a29.650535120860237,29.650535120860237 0 0,0 0.32941100183904753,0.3880453318742181 l -6.642576767061432 5.541473790512062" fill="#ff6a09" stroke="none" /><path d="M 116.1254893667686 86.54754324733833 l 5.434359222902757 -4.53353574342886 a28.07709025663057,28.07709025663057 0 0,0 0.3055765849846217,0.3727537476235245 l -5.5113826271260065 4.4395797141068405" fill="#ff5407" stroke="none" /><path d="M 116.57777611688842 87.10902102172516 l 4.939470286931149 -3.8409619712365966 a27.257104408587203,27.257104408587203 0 0,0 0.2840554001365008,0.37183763707952344 l -5.004677664421957 3.755603420916191" fill="#ff4906" stroke="none" /><path d="M 116.7966241395341 87.39550010848427 l 8.506492144263126 -6.383430290446328 a31.63525227126268,31.63525227126268 0 0,0 0.32222459860853697,0.4371595530384725 l -8.614818762455489 6.236464428138981" fill="#ff850c" stroke="none" /><path d="M 117.01052211995028 87.68569379921539 l 9.677985990463043 -7.006115512097753 a32.94776411720853,32.94776411720853 0 0,0 0.32772811720386674,0.4609906393637762 l -9.79682920619687 6.838947646024473" fill="#ff960d" stroke="none" /><path d="M 117.21940702142032 87.97951657250589 l 8.07104046684593 -5.6342130744496135 a30.84307122730317,30.84307122730317 0 0,0 0.2993397363933493,0.4367456212743031 l -8.166569940054604 5.494832718105262" fill="#ff7a0b" stroke="none" /><path d="M 117.42321728460499 88.27688183743584 l 2.236938846897442 -1.5051122876014376 a23.696156227492704,23.696156227492704 0 0,0 0.22418319685329927,0.339441933297668 l -2.262446482671465 1.4664904759647108" fill="#ff1602" stroke="none" /><path d="M 117.62189284568427 88.57770195909679 l 8.552703292465992 -5.54375894334678 a31.192251803742685,31.192251803742685 0 0,0 0.2873880420178397,0.4518217359370502 l -8.646609026109722 5.396123532731058" fill="#ff7f0b" stroke="none" /><path d="M 117.81537515405839 88.88188828441811 l 4.60636337924851 -2.874711433813594 a26.429783550877545,26.429783550877545 0 0,0 0.23690152175165738,0.3869608319407913 l -4.65503286545557 2.795213485748248" fill="#ff3d05" stroke="none" /><line stroke="#e1ed5e" stroke-width="0.3" x1="172.87174338648825" x2="177.1583165268699" y1="56.24261187166439" y2="53.66864786411523" /><path d="M 173.72905801456457 55.72781907015455 a86.0,86.0 0 0,1 12.242430191666344,42.057860355516425" fill="none" id="id303" stroke="none" /><text fill="#e1ed5e" style="font-size:6.75px; font-family:Arial;" text-anchor="middle"><textPath startOffset="22.145653131862474" xlink:href="#id303">March</textPath></text><path d="M 118.00360718960297 89.18935116829356 l 6.827849510779848 -4.099927451172487 a28.964228402471537,28.964228402471537 0 0,0 0.2523008971722916,0.4284620816431606 l -6.897224118081907 3.9821142012357695" fill="#ff6108" stroke="none" /><path d="M 118.18653347947321 89.5 l 10.54517051400687 -6.088257034912372 a33.17651406982474,33.17651406982474 0 0,0 0.28052580779522635,0.4956622229104223 l -10.648129686823472 5.906338041902831" fill="#ff990e" stroke="none" /><path d="M 118.36410011445183 89.81374322990088 l 4.974931572359466 -2.759510680833551 a26.68901075295991,26.68901075295991 0 0,0 0.2187922531089624,0.40255310263544714 l -5.02156917508377 2.6737027447235007" fill="#ff4106" stroke="none" /><path d="M 118.53625476483649 90.13048839642627 l 5.521608091760691 -2.939945303049972 a27.25551231346584,27.25551231346584 0 0,0 0.21634637993375222,0.4148727098624269 l -5.571262540669388 2.8447263500830466" fill="#ff4906" stroke="none" /><path d="M 118.70294669586156 90.45014215332178 l 11.82222772025951 -6.036513710672067 a34.27420679546632,34.27420679546632 0 0,0 0.2630628393281969,0.5263018974663712 l -11.924110472799445 5.832679957041946" fill="#ffa80f" stroke="none" /><path d="M 118.8641267826498 90.77261029715802 l 12.64098113780013 -6.183337322140911 a35.07224447505086,35.07224447505086 0 0,0 0.2599032719151806,0.5430978775144184 l -12.745263667675223 5.965426942561389" fill="#ffb210" stroke="none" /><path d="M 119.0197475246899 91.09779779509293 l 5.083181138071425 -2.3791854374796326 a26.61241960551421,26.61241960551421 0 0,0 0.19010839850586359,0.41542115983873834 l -5.123274001432341 2.29157529542621" fill="#ff4006" stroke="none" /><path d="M 119.16976305983485 91.42560881287824 l 6.829076917019924 -3.0545592426313872 a28.481084393677108,28.481084393677108 0 0,0 0.19579540904105783,0.44801821281650733 l -6.880506208077953 2.9368789600390306" fill="#ff5a08" stroke="none" /><path d="M 119.31412917781788 91.75594674310238 l 14.08859331201587 -6.013582725356541 a36.31834321021973,36.31834321021973 0 0,0 0.23982931297673193,0.5755030443483441 l -14.189748469529086 5.770847171566919" fill="#ffc212" stroke="none" /><path d="M 119.4528033332814 92.08871423366111 l 16.45930130062737 -6.6938545500409 a38.768407020381346,38.768407020381346 0 0,0 0.2454249237496238,0.6186311312752506 l -16.57178489934312 6.410322401552084" fill="#ffe115" stroke="none" /><path d="M 119.58574465831526 92.42381321644754 l 10.442964610704136 -4.039563051851214 a32.19703440694457,32.19703440694457 0 0,0 0.19497499279686037,0.5171943328163089 l -10.510770287315436 3.859700438840748" fill="#ff8c0c" stroke="none" /><path d="M 119.71291397450082 92.76114493625339 l 14.31095062433382 -5.25517929657631 a36.24533427679711,36.24533427679711 0 0,0 0.20946321926345396,0.5859059038695801 l -14.399054013641218 5.008738436325814" fill="#ffc112" stroke="none" /><path d="M 119.83427380445688 93.10060997987247 l 2.5479405285105576 -0.8863059786103201 a23.69769146207402,23.69769146207402 0 0,0 0.13035375423569742,0.3853677120536302 l -2.5627797043186202 0.8424365920825283" fill="#ff1602" stroke="none" /><path d="M 119.94978838288452 93.4421083053983 l 28.5199720480051 -9.375081290804266 a51.02134165603164,51.02134165603164 0 0,0 0.2663685378040332,0.8343956508234682 l -28.67670530158639 8.88411660628941" fill="#8eff24" stroke="none" /><path d="M 120.05942366710727 93.78553927170692 l 7.374618249180458 -2.2846755847145612 a28.720410406742396,28.720410406742396 0 0,0 0.14185650754254475,0.47219417728046686 l -7.4127510767266305 2.157743803843371" fill="#ff5d08" stroke="none" /><path d="M 120.16314734710363 94.1308016681162 l 11.526184253500249 -3.3551042517847085 a33.004567796717254,33.004567796717254 0 0,0 0.1536779241709382,0.5453487381174607 l -11.58208066974577 3.1567475897642345" fill="#ff970d" stroke="none" /><path d="M 120.26092885502905 94.47779374421319 l 6.479937224412783 -1.7661357055146123 a27.7163101300211,27.7163101300211 0 0,0 0.12117375348639767,0.46011647896071667 l -6.509300458703911 1.654638722181097" fill="#ff4f07" stroke="none" /><path d="M 120.35273937422433 94.82641323984039 l 7.526042841073281 -1.9130906598392328 a28.765387093920978,28.765387093920978 0 0,0 0.11754423891646253,0.4796206068490433 l -7.557774606506034 1.7836142283820946" fill="#ff5e08" stroke="none" /><path d="M 120.43855184770803 95.1765574152323 l 14.710291918578891 -3.4715888387363623 a36.11438445306478,36.11438445306478 0 0,0 0.13721598194691648,0.604598934505895 l -14.767718762083474 3.218555570291441" fill="#ffc011" stroke="none" /><path d="M 120.51834098615036 95.52812308129327 l 35.78308562946146 -7.798756966486968 a57.62307779785446,57.62307779785446 0 0,0 0.20234560315044722,0.9682969610078145 l -35.911688943436275 7.1833435541937485" fill="#49ff2c" stroke="none" /><path d="M 120.592083275326 95.88100663000786 l 22.2167215425711 -4.443966524089491 a43.65682136945452,43.65682136945452 0 0,0 0.1406866175831691,0.7361318317010774 l -22.289734452436427 4.0619321273550995" fill="#e1ff1b" stroke="none" /><path d="M 120.65975698304385 96.23510406497455 l 6.8667147846598775 -1.2513441760695987 a27.97980187260712,27.97980187260712 0 0,0 0.0820543430883635,0.4732676458405474 l -6.8871839452404755 1.1332834973084587" fill="#ff5307" stroke="none" /><path d="M 120.7213421655516 96.59031103205396 l 11.871307336045525 -1.9534191045840414 a33.03095108729988,33.03095108729988 0 0,0 0.08726227997987354,0.5602864352067014 l -11.903091108163665 1.7493444874458988" fill="#ff980e" stroke="none" /><path d="M 120.77682067341334 96.94652285012252 l 6.805037246612585 -1.0001061309243624 a27.87813522699991,27.87813522699991 0 0,0 0.06552089722227335,0.4740765731019394 l -6.821202660390071 0.8831412496223374" fill="#ff5207" stroke="none" /><path d="M 120.82617615685814 97.30363454192243 l 7.728967058579295 -1.0006695250443223 a28.79347620070507,28.79347620070507 0 0,0 0.05925685574888091,0.4907317712184556 l -7.74500600058784 0.8678440769024537" fill="#ff5e08" stroke="none" /><path d="M 120.86939407059847 97.66154086499901 l 14.669249197512121 -1.6437199697070244 a35.7610530572017,35.7610530572017 0 0,0 0.06312269900793659,0.6106548526053657 l -14.695304289001724 1.3916605948187273" fill="#ffbb11" stroke="none" /><path d="M 120.9064616781168 98.02013634271609 l 33.36047652838766 -3.159271811994986 a54.5097357880239,54.5097357880239 0 0,0 0.08022373623386324,0.9323214194367533 l -33.40979388731926 2.5861293451825706" fill="#68ff28" stroke="none" /><path d="M 120.93736805541906 98.37931529534042 l 2.681765625894465 -0.20758562011542123 a23.68978784700724,23.68978784700724 0 0,0 0.027904357722615073,0.4057232371221377 l -2.6849339447821463 0.16151895883894937" fill="#ff1602" stroke="none" /><path d="M 120.96210409425399 98.7389718711861 l 7.208257287545352 -0.43363085873684787 a28.221288586194262,28.221288586194262 0 0,0 0.024940107602244424,0.48383142468025053 l -7.214638984604169 0.3098276406798667" fill="#ff5608" stroke="none" /><path d="M 120.98066250479742 99.09900007780936 l 11.994536140537859 -0.5150969911873047 a33.005591286438126,33.005591286438126 0 0,0 0.01945021538208446,0.5662717988028917 l -12.00161104291679 0.30911892782029304" fill="#ff970d" stroke="none" /><path d="M 120.99303781780057 99.45929381324524 l 14.19609812753744 -0.3656411307385233 a35.20080615610113,35.20080615610113 0 0,0 0.010373456984720466,0.6042018637781774 l -14.200283016120826 0.12189235099127943" fill="#ffb410" stroke="none" /><line stroke="#e1ed5e" stroke-width="0.3" x1="184.99686870605535" x2="189.99668451229388" y1="99.2704041080226" y2="99.22748670261217" /><path d="M 185.99683186730306 99.26182062694052 a86.0,86.0 0 0,1 -10.086455211305974,41.156179273409016" fill="none" id="id304" stroke="none" /><text fill="#e1ed5e" style="font-size:6.75px; font-family:Arial;" text-anchor="middle"><textPath startOffset="21.40746469413373" xlink:href="#id304">April</textPath></text><path d="M 120.99922638620191 99.81974689727618 l 5.761977996102745 -0.04945965115678711 a26.762190268002676,26.762190268002676 0 0,0 0.0,0.45942550776122726 l -5.761977996102745 -0.04945965115678641" fill="#ff4206" stroke="none" /><path d="M 120.99922638620191 100.18025310272382 l 12.42283115517719 0.10663506450915047 a33.423288813636425,33.423288813636425 0 0,0 -0.009849633762888175,0.5736917872062713 l -12.419170089815635 -0.3198737676844929" fill="#ff9d0e" stroke="none" /><path d="M 120.99303781780057 100.54070618675476 l 12.943762036974539 0.3333853953875606 a33.94805473774655,33.94805473774655 0 0,0 -0.020005609677515496,0.5824414977259402 l -12.936131740300176 -0.5555331576776116" fill="#ffa40f" stroke="none" /><path d="M 120.96210409425399 101.26102812881392 l 3.917148635432617 0.23564593476947715 a24.924230171466117,24.924230171466117 0 0,0 -0.02935841549772464,0.426864918050405 l -3.912526258769826 -0.30285427697422557" fill="#ff2803" stroke="none" /><path d="M 120.93736805541906 101.62068470465957 l 33.09107733835449 2.561458668588353 a54.190065831869696,54.190065831869696 0 0,0 -0.0797532676492395,0.9268538613397683 l -33.04223044800751 -3.129133577303779" fill="#6cff28" stroke="none" /><path d="M 120.9064616781168 101.97986365728391 l 13.323257242353892 1.2617263129892398 a34.38286728749952,34.38286728749952 0 0,0 -0.06069002999847596,0.5871209866782601 l -13.299634819873749 -1.4902518219504313" fill="#ffa90f" stroke="none" /><path d="M 120.86939407059847 102.33845913500097 l 9.03443707919705 1.0123275187564693 a30.090976864078037,30.090976864078037 0 0,0 -0.06192710678448482,0.512845280343093 l -9.0157278861529 -1.167266476022971" fill="#ff700a" stroke="none" /><path d="M 120.82617615685814 102.69636545807757 l 13.452653351597224 1.7417153078671777 a34.5649347367357,34.5649347367357 0 0,0 -0.08123662210329517,0.5877877295613969 l -13.420772212938719 -1.9723913456286597" fill="#ffac0f" stroke="none" /><path d="M 120.77682067341334 103.0534771498775 l 19.62527399385801 2.884239443670639 a40.83608369871495,40.83608369871495 0 0,0 -0.1078821424057868,0.6926807436723194 l -19.572870359313953 -3.220708369274409" fill="#fffb17" stroke="none" /><path d="M 120.7213421655516 103.40968896794604 l 3.437055619703238 0.5655661942691099 a24.483276683387878,24.483276683387878 0 0,0 -0.07180033633021744,0.4141252597558235 l -3.4268404658807863 -0.6244844869455214" fill="#ff2203" stroke="none" /><path d="M 120.65975698304385 103.76489593502545 l 3.582575429266553 0.6528645850789906 a24.641576426883663,24.641576426883663 0 0,0 -0.07940889718189333,0.4155009050616689 l -3.5708402398025 -0.7142680551739741" fill="#ff2403" stroke="none" /><path d="M 120.592083275326 104.11899336999214 l 15.312338796721008 3.0628966064031546 a36.61566697413477,36.61566697413477 0 0,0 -0.12857729058882922,0.6152888809706821 l -15.257503795307814 -3.3253019386592455" fill="#ffc612" stroke="none" /><path d="M 120.51834098615036 104.47187691870673 l 3.8910576403092456 0.8480379024211258 a24.98239850393601,24.98239850393601 0 0,0 -0.09492019299295983,0.4182358842779605 l -3.875926585758622 -0.9147081206381033" fill="#ff2904" stroke="none" /><path d="M 120.43855184770803 104.8234425847677 l 6.026341435831564 1.4222001699792532 a27.19188536915126,27.19188536915126 0 0,0 -0.11111442581962928,0.4533847752348833 l -6.001039483495639 -1.525440769822236" fill="#ff4806" stroke="none" /><path d="M 120.35273937422433 105.17358676015961 l 28.092399146906875 7.140978008671404 a49.98579750066337,49.98579750066337 0 0,0 -0.21853438194883426,0.8298106434859265 l -27.96567528415331 -7.622169156530133" fill="#99ff23" stroke="none" /><path d="M 120.26092885502905 105.52220625578681 l 7.3275697818709595 1.9971617283043925 a28.594862334314705,28.594862334314705 0 0,0 -0.1331451789509093,0.4724852689091202 l -7.29220611084547 -2.122654921116521" fill="#ff5c08" stroke="none" /><path d="M 120.16314734710363 105.8691983318838 l 20.370461394706016 5.9295444297135464 a42.21591842407854,42.21591842407854 0 0,0 -0.20851382920819034,0.6940747219864707 l -20.265671245494197 -6.278356755290741" fill="#f2ff19" stroke="none" /><path d="M 120.05942366710727 106.21446072829308 l 5.230798507297373 1.6205147486124796 a26.47606803047725,26.47606803047725 0 0,0 -0.13822434493438618,0.43298579179807 l -5.202209446585732 -1.7100695741019332" fill="#ff3e05" stroke="none" /><path d="M 119.94978838288452 106.5578916946017 l 10.114293908096526 3.3247693029952985 a31.646738100352536,31.646738100352536 0 0,0 -0.17407902906057135,0.514633717601199 l -10.05572945746359 -3.497904695070658" fill="#ff850c" stroke="none" /><path d="M 119.83427380445688 106.89939002012753 l 11.279593733330449 3.923628220628171 a32.94253294752404,32.94253294752404 0 0,0 -0.19037619984920548,0.5325161135216276 l -11.2105773634373 -4.11667929053072" fill="#ff960d" stroke="none" /><path d="M 119.71291397450082 107.23885506374661 l 6.098478932909709 2.23944593689951 a27.49665786381269,27.49665786381269 0 0,0 -0.16651100847282588,0.4416902326720352 l -6.059137240622442 -2.3438044497657042" fill="#ff4c07" stroke="none" /><path d="M 119.58574465831526 107.57618678355244 l 19.087745970156472 7.383550192742341 a41.466041621915316,41.466041621915316 0 0,0 -0.26250240557748844,0.6616775413182777 l -18.95818488961286 -7.7101287512741825" fill="#fbff18" stroke="none" /><path d="M 119.4528033332814 107.91128576633889 l 4.707969789386819 1.914690327404167 a26.08242251171959,26.08242251171959 0 0,0 -0.17223609115501295,0.413303918424631 l -4.674407853695321 -1.9952267552700758" fill="#ff3805" stroke="none" /><path d="M 119.31412917781788 108.2440532568976 l 1.224296991216114 0.5225795843509771 a22.33116210308184,22.33116210308184 0 0,0 -0.15351729442246562,0.35127761279200714 l -1.2151458147766827 -0.5435192669188289" fill="#ff0200" stroke="none" /><path d="M 119.16976305983485 108.57439118712176 l 8.307899667385241 3.716017849003792 a30.10109804020672,30.10109804020672 0 0,0 -0.21503011099771588,0.46987959928645706 l -8.24288509153247 -3.8580864305049376" fill="#ff700a" stroke="none" /><path d="M 119.0197475246899 108.90220220490707 l 25.1376066085463 11.765669164966269 a48.75482366914747,48.75482366914747 0 0,0 -0.36129818273458936,0.7549742438679589 l -24.9319291678518 -12.19545591089933" fill="#a7ff21" stroke="none" /><path d="M 118.8641267826498 109.22738970284198 l 10.179052669468598 4.979084739471146 a32.331566444699966,32.331566444699966 0 0,0 -0.24815260407416112,0.4964714389876628 l -10.092080152182705 -5.153088034622554" fill="#ff8e0d" stroke="none" /><path d="M 118.70294669586154 109.54985784667822 l 5.425821773348544 2.770463257982529 a27.09220884244576,27.09220884244576 0 0,0 -0.2150501241752971,0.41238696852786644 l -5.377463580198298 -2.8631964696148984" fill="#ff4706" stroke="none" /><path d="M 118.5362547648365 109.86951160357373 l 7.844834169654713 4.176932333299303 a29.887529851783526,29.887529851783526 0 0,0 -0.24501320249975778,0.4507966961874256 l -7.771975617539616 -4.310983862961331" fill="#ff6d0a" stroke="none" /><line stroke="#e1ed5e" stroke-width="0.3" x1="174.33088141563837" x2="178.70328620479359" y1="141.23008692659167" y2="143.65538615756765" /><path d="M 175.20536237346943 141.71514677278685 a86.0,86.0 0 0,1 -30.301960400862466,31.631185727798858" fill="none" id="id305" stroke="none" /><text fill="#e1ed5e" style="font-size:6.75px; font-family:Arial;" text-anchor="middle"><textPath startOffset="22.145653131862474" xlink:href="#id305">May</textPath></text><path d="M 118.36410011445183 110.18625677009912 l 4.476752231382076 2.4831789981958066 a26.11932500221124,26.11932500221124 0 0,0 -0.22085336421693477,0.39022673281069015 l -4.433465502143762 -2.559662501105619" fill="#ff3905" stroke="none" /><path d="M 118.18653347947321 110.5 l 3.4545704223717246 1.9944971632908333 a24.98899432658167,24.98899432658167 0 0,0 -0.21767352474999652,0.369657233003415 l -3.4198231874919625 -2.0535055645877978" fill="#ff2904" stroke="none" /><path d="M 117.81537515405839 111.11811171558189 l 12.065263577236209 7.529616815231381 a35.22201513753933,35.22201513753933 0 0,0 -0.3245160378285218,0.5101931121476324 l -11.934229847781797 -7.735623602057685" fill="#ffb410" stroke="none" /><path d="M 117.62189284568427 111.42229804090321 l 20.061278099399317 13.00347809054479 a44.90701406350691,44.90701406350691 0 0,0 -0.42485362930771675,0.6432825444768402 l -19.835100031170875 -13.345940513360691" fill="#d3ff1c" stroke="none" /><path d="M 117.423217284605 111.72311816256416 l 6.163293241936779 4.146938752213123 a28.42854525467204,28.42854525467204 0 0,0 -0.27590615668153734,0.4025553281537521 l -6.0911973484399216 -4.252128815436919" fill="#ff5908" stroke="none" /><path d="M 117.21940702142032 112.02048342749411 l 13.818572036608128 9.646436485940066 a37.852497441275695,37.852497441275695 0 0,0 -0.37651500944837096,0.5296155130555728 l -13.650941928629795 -9.882229225705144" fill="#ffd614" stroke="none" /><path d="M 117.01052211995028 112.31430620078461 l 13.491349395378219 9.76669653905622 a37.655475670006695,37.655475670006695 0 0,0 -0.38354429511546334,0.5203514981388208 l -13.321703080678928 -9.996854346463918" fill="#ffd313" stroke="none" /><path d="M 116.79662413953412 112.60449989151573 l 4.449102640580564 3.33868956551501 a26.562496051351385,26.562496051351385 0 0,0 -0.276816654160588,0.362361886230188 l -4.391134009065671 -3.4145723649860753" fill="#ff3f05" stroke="none" /><path d="M 116.57777611688842 112.89097897827486 l 12.890840069996358 10.023995207978277 a37.32955105444712,37.32955105444712 0 0,0 -0.3977082714266434,0.5024914088433724 l -12.716865367928152 -10.243806560736333" fill="#ffcf13" stroke="none" /><path d="M 116.35404254752997 113.17365903436017 l 9.303247882348835 7.494037951656626 a32.946172022087154,32.946172022087154 0 0,0 -0.35856916235996933,0.4373960755488976 l -9.173231900750237 -7.652636308904016" fill="#ff960d" stroke="none" /><path d="M 116.1254893667686 113.45245675266167 l 3.0601453822437477 2.5528821157097528 a24.985184670398404,24.985184670398404 0 0,0 -0.2775799721610786,0.3269885092408384 l -3.015870846575554 -2.6050374074001477" fill="#ff2904" stroke="none" /><path d="M 115.89218393027572 113.72728997021213 l 7.357206753534155 6.354979964972889 a30.72184455591918,30.72184455591918 0 0,0 -0.3481647190044251,0.39614753851108947 l -7.247030970571144 -6.480339781295272" fill="#ff790b" stroke="none" /><path d="M 115.6541949942343 113.99807769240083 l 10.431745400025596 9.328131062037137 a34.99411809302384,34.99411809302384 0 0,0 -0.4042692145894455,0.4443626843765182 l -10.27007848459427 -9.505831321971327" fill="#ffb110" stroke="none" /><path d="M 115.41159269507618 114.26474011684316 l 9.53744035514145 8.827712407001979 a33.99581759138752,33.99581759138752 0 0,0 -0.40008895214655504,0.42488060252517856 l -9.384495569258636 -8.990134469471656" fill="#ffa40f" stroke="none" /><path d="M 115.16444852881244 114.52719865689866 l 3.990492355875757 3.822801408339935 a26.526105305720172,26.526105305720172 0 0,0 -0.31782467661822855,0.32611611703612114 l -3.924280878106721 -3.8907402174437933" fill="#ff3f05" stroke="none" /><path d="M 114.91283532996324 114.78537596483092 l 2.4704875854301855 2.4493724338014706 a24.47889842180412,24.47889842180412 0 0,0 -0.2984188467761765,0.2958682736683786 l -2.428076818524044 -2.491420717698511" fill="#ff2203" stroke="none" /><path d="M 114.65682725009322 115.03919595460226 l 7.144339133059388 7.330721332444581 a31.236261861740438,31.236261861740438 0 0,0 -0.3872218286346213,0.37094975251983336 l -7.017444818559454 -7.452283215269994" fill="#ff800b" stroke="none" /><path d="M 114.39649973595853 115.28858382429668 l 7.834712227715552 8.320192882266342 a32.428399944403026,32.428399944403026 0 0,0 -0.4085518661529924,0.3781495079860014 l -7.6907305902485925 -8.453460136384722" fill="#ff900d" stroke="none" /><path d="M 114.13192950727249 115.5334660781643 l 2.720932193352839 2.9907811176584964 a25.04329614232825,25.04329614232825 0 0,0 -0.32047664366965645,0.2865721909264576 l -2.6691905228598047 -3.037048838468341" fill="#ff2a04" stroke="none" /><path d="M 113.86319453409587 115.77377054828091 l 5.181140202784683 5.8951864619801535 a28.848403482392186,28.848403482392186 0 0,0 -0.37478268790844216,0.32372835950719003 l -5.079178035113386 -5.983258953952061" fill="#ff5f08" stroke="none" /><path d="M 113.59037401385872 116.0094264158162 l 7.089778768731395 8.351741562570442 a31.95520653011713,31.95520653011713 0 0,0 -0.42123911069970643,0.3514126480338283 l -6.945365323869793 -8.47221639451614" fill="#ff890c" stroke="none" /><path d="M 113.31354834802062 116.24036423190432 l 5.801514829279555 7.076904778604878 a30.150964733829497,30.150964733829497 0 0,0 -0.40308857724136093,0.32469962468240277 l -5.679175481682942 -7.175452697080685" fill="#ff710a" stroke="none" /><path d="M 112.7482090630111 116.68781488649013 l 7.808472788009058 10.22154153484776 a33.86282078821344,33.86282078821344 0 0,0 -0.4649639600634149,0.3489176238922839 l -7.631855839034877 -10.354078186004058" fill="#ffa20f" stroke="none" /><path d="M 112.45986205192187 116.90419585922612 l 2.3632347244838097 3.206181776132643 a24.983023969876548,24.983023969876548 0 0,0 -0.34740559130887105,0.2514948569523728 l -2.307848122800971 -3.246277404458093" fill="#ff2904" stroke="none" /><path d="M 112.16784306229584 117.11559508785304 l 1.5744657873850523 2.214683305709542 a23.717308348390844,23.717308348390844 0 0,0 -0.3338548939014254,0.23305664442090046 l -1.5362158023098684 -2.2413847659355643" fill="#ff1702" stroke="none" /><path d="M 111.8722381534696 117.32195027204791 l 9.231085363550383 13.468429419748377 a37.32824326202601,37.32824326202601 0 0,0 -0.5316674342138097,0.3577295773027526 l -8.99852164123957 -13.624908671108251" fill="#ffcf13" stroke="none" /><path d="M 111.5731344415666 117.5232005979908 l 3.703406363801245 5.60742925232797 a27.72000606512427,27.72000606512427 0 0,0 -0.39931905279156793,0.2588337855835694 l -3.6066016787526674 -5.6701768796154335" fill="#ff4f07" stroke="none" /><path d="M 111.27062007382361 117.71928675628689 l 1.4279132467213511 2.244916793932224 a23.66056152942217,23.66056152942217 0 0,0 -0.34458325946073265,0.21504543917117594 l -1.3891658584709035 -2.2690980299449475" fill="#ff1602" stroke="none" /><path d="M 110.96478420261333 117.91015095944535 l 2.078954056109615 3.3958152111922146 a24.98165931691538,24.98165931691538 0 0,0 -0.3676672657952509,0.22077362917146676 l -2.0203540337569277 -3.431002840899605" fill="#ff2904" stroke="none" /><line stroke="#e1ed5e" stroke-width="0.3" x1="143.1302829299769" x2="145.66735839644613" y1="173.24464959558577" y2="177.55315839532614" /><path d="M 143.63769802327073 174.10635135553383 a86.0,86.0 0 0,1 -40.68552437913181,11.842963189579606" fill="none" id="id306" stroke="none" /><text fill="#e1ed5e" style="font-size:6.75px; font-family:Arial;" text-anchor="middle"><textPath startOffset="21.407464694133747" xlink:href="#id306">June</textPath></text><path d="M 110.65571695917076 118.09573695890943 l 6.094789967967847 10.350285813966385 a33.011447922063155,33.011447922063155 0 0,0 -0.4907820327667768,0.2833531387313314 l -5.916215467340671 -10.453385849973888" fill="#ff970e" stroke="none" /><path d="M 110.02825361518725 118.45085714620011 l 2.892902275005547 5.322614351636337 a27.0579787973364,27.0579787973364 0 0,0 -0.41000721312013033,0.21830574723835072 l -2.8011062460988634 -5.371490566597256" fill="#ff4606" stroke="none" /><path d="M 109.71004243097381 118.62028667847754 l 6.2690661806937165 12.021761008840247 a34.55816833246989,34.55816833246989 0 0,0 -0.5283660532855146,0.26978747156476374 l -6.061772905694619 -12.127606432077847" fill="#ffac0f" stroke="none" /><path d="M 109.3889696526874 118.78422872680471 l 3.9204020411576814 7.843430255529643 a29.768634462541538,29.768634462541538 0 0,0 -0.459060341150382,0.22454941666370287 l -3.78518145074523 -7.90957342229057" fill="#ff6c09" stroke="none" /><path d="M 109.06512990194946 118.94263497670748 l 2.3564572712987606 4.924089385505801 a26.458896147382518,26.458896147382518 0 0,0 -0.41138705764867217,0.19254991512985178 l -2.2715814997785824 -4.963815532206186" fill="#ff3e05" stroke="none" /><path d="M 108.73861861582097 119.09545874513695 l 4.042660281315238 8.833942298694367 a30.71502129111333,30.71502129111333 0 0,0 -0.4813286589480692,0.2152921868940938 l -3.8904182195115418 -8.902038236498312" fill="#ff790b" stroke="none" /><path d="M 108.07796709384702 119.3841803445677 l 6.3452753992266535 15.22635104174237 a37.49558383138954,37.49558383138954 0 0,0 -0.5962610926453511,0.2424941955381991 l -6.082959845390862 -15.33303249385986" fill="#ffd113" stroke="none" /><path d="M 107.74402155503746 119.51999308798841 l 1.4683722329523572 3.7012572387765577 a24.98188675907557,24.98188675907557 0 0,0 -0.39998110779270646,0.1547212850670558 l -1.4046188626661213 -3.7259184119816537" fill="#ff2904" stroke="none" /><path d="M 107.407793817531 119.65005319985036 l 4.484534900578573 11.895761618582052 a33.71299326518492,33.71299326518492 0 0,0 -0.54327822148333,0.1994992881161527 l -4.279667527441116 -11.970991755706926" fill="#ffa10e" stroke="none" /><path d="M 107.06938296918513 119.77432235084164 l 3.1755354327940264 8.882537777102021 a30.43310673355151,30.43310673355151 0 0,0 -0.4934427229291462,0.17164499349186788 l -3.022586937819858 -8.935741203162479" fill="#ff750a" stroke="none" /><path d="M 106.72888874123015 119.89276391827305 l 1.6958290706899777 5.013417318416367 a26.292465346659757,26.292465346659757 0 0,0 -0.42878912154361193,0.14095150108553783 l -1.6095172114986314 -5.041789740903924" fill="#ff3b05" stroke="none" /><path d="M 106.38641147887787 120.00534299687104 l 3.235081522980834 10.133846793949912 a31.63769727448478,31.63769727448478 0 0,0 -0.5187970195638435,0.16072464281821258 l -3.0606438705453662 -10.187888024574768" fill="#ff850c" stroke="none" /><path d="M 106.0420521117495 120.11202640906438 l 5.718200334757924 19.034029170541547 a40.87440770270783,40.87440770270783 0 0,0 -0.6737269988630687,0.19611211036654913 l -5.390613323513249 -19.129384975210616" fill="#fffb17" stroke="none" /><path d="M 105.69591212413111 120.21278271476187 l 4.539306379469671 16.108396956343366 a37.735762752555566,37.735762752555566 0 0,0 -0.6250095302502185,0.17034912676362654 l -4.2621154482847565 -16.183946577251135" fill="#ffd413" stroke="none" /><path d="M 105.3480935250658 120.30758222061773 l 2.0268253761086963 7.696186085611761 a28.95859920900671,28.95859920900671 0 0,0 -0.48180863234448285,0.12247387024396497 l -1.894411450538816 -7.729845187690996" fill="#ff6108" stroke="none" /><path d="M 104.9986988182912 120.39639698878246 l 3.251752443263784 13.268259631758376 a34.66091532833803,34.66091532833803 0 0,0 -0.5791143195551607,0.13666940256847881 l -3.0235059699687445 -13.32212517797308" fill="#ffad10" stroke="none" /><path d="M 104.64783097203109 120.47920084513623 l 1.4894969868994792 6.562998554917264 a27.729899799092756,27.729899799092756 0 0,0 -0.4651196615536163,0.10137066541306837 l -1.376614908726727 -6.58760067846405" fill="#ff5007" stroke="none" /><path d="M 104.29559338865022 120.5559693870025 l 0.5458400586909653 2.6120422771618124 a23.66846514448895,23.66846514448895 0 0,0 -0.39842312431737376,0.07969578335384986 l -0.5009204488426329 -2.6210274571785237" fill="#ff1602" stroke="none" /><path d="M 103.94208987418118 120.62667999033965 l 1.2813444747871887 6.704535736723916 a27.82588039069509,27.82588039069509 0 0,0 -0.4699463468067756,0.0856398791246707 l -1.166063394429356 -6.72554378977995" fill="#ff5107" stroke="none" /><path d="M 103.58742460773223 120.69131181640829 l 2.234894939582285 12.89028011129192 a34.08258677550195,34.08258677550195 0 0,0 -0.5773306128662806,0.09499953264707929 l -2.013286823662932 -12.926745642434671" fill="#ffa50f" stroke="none" /><path d="M 103.2317021107853 120.74984581791261 l 0.6128098509296085 3.9346788430934523 a24.98211420123577,24.98211420123577 0 0,0 -0.4243091878296433,0.062358838721596505 l -0.5451755574922797 -3.944618755113931" fill="#ff2904" stroke="none" /><path d="M 102.875027216393 120.80226474461374 l 1.0253656716372004 7.419035214628767 a28.489556614144373,28.489556614144373 0 0,0 -0.48503087305023634,0.06279695717272528 l -0.8978569766961887 -7.435543768001887" fill="#ff5a08" stroke="none" /><path d="M 102.51750503828377 120.84855314841334 l 3.9502966737879306 32.7141232700822 a53.95176330852529,53.95176330852529 0 0,0 -0.9204276113702805,0.10313583368231721 l -3.388133160816851 -32.77711486427148" fill="#6eff28" stroke="none" /><path d="M 102.15924093988457 120.88869738790638 l 0.6913318976604235 6.688008984123685 a27.72364513968739,27.72364513968739 0 0,0 -0.473810873580605,0.04487038234739146 l -0.5764214606948032 -6.69889112197626" fill="#ff4f07" stroke="none" /><path d="M 101.80034050326958 120.92268563240118 l 0.3574165983323497 4.1537226503147755 a25.169071656916138,25.169071656916138 0 0,0 -0.43078784410568993,0.03334570362651961 l -0.2860597594514239 -4.159246120936349" fill="#ff2b04" stroke="none" /><path d="M 101.44090949804482 120.95050786540614 l 1.4396701307386908 20.9324877367788 a41.98193730177783,41.98193730177783 0 0,0 -0.7194017736412138,0.04327742427006131 l -1.0801240049650116 -20.954117138873553" fill="#f5ff19" stroke="none" /><path d="M 101.08105385017728 120.97215588758144 l 0.7765241767910993 15.064361579645782 a36.08436208791903,36.08436208791903 0 0,0 -0.6188884604390714,0.026577733404401355 l -0.5178099557511984 -15.075471881476014" fill="#ffbf11" stroke="none" /><path d="M 100.72087961077811 120.9876233191556 l 0.19524519506736712 5.684350823192106 a26.687702960538786,26.687702960538786 0 0,0 -0.4579948964291891,0.011796323912274245 l -0.09763698456743417 -5.686864864454425" fill="#ff4106" stroke="none" /><line stroke="#e1ed5e" stroke-width="0.3" x1="101.45913802915013" x2="101.54496967792366" y1="184.9874750549273" y2="189.98673829345242" /><path d="M 101.47630435890484 185.9873277026323 a86.0,86.0 0 0,1 -42.54439059252881,-10.42667462771756" fill="none" id="id307" stroke="none" /><text fill="#e1ed5e" style="font-size:6.75px; font-family:Arial;" text-anchor="middle"><textPath startOffset="22.145653131862474" xlink:href="#id307">July</textPath></text><path d="M 100.36049292484886 120.99690560180557 l 0.08902789916335366 5.1854287998682755 a26.186192997308602,26.186192997308602 0 0,0 -0.4495208240122053,0.003858595634761707 l -6.351254653914397e-16 -5.186192997308602" fill="#ff3a05" stroke="none" /><path d="M 100.0 121.0 l 1.352760350241739e-15 11.04612653365512 a32.04612653365512,32.04612653365512 0 0,0 -0.5501143754377973,-0.004722070289732147 l 0.18962145058894375 -11.044498861559822" fill="#ff8a0c" stroke="none" /><path d="M 99.63950707515114 120.99690560180557 l -0.020046870298072873 1.1676296932506056 a22.167801771521713,22.167801771521713 0 0,0 -0.3804276483226382,-0.009798466751018274 l 0.040087832691454994 -1.16711350914954" fill="#ff0000" stroke="none" /><path d="M 99.27912038922189 120.98762331915562 l -0.2932454825234264 8.53752226478234 a29.542556955307617,29.542556955307617 0 0,0 -0.5066889514897296,-0.021759403725346772 l 0.4397601946139948 -8.531230292631163" fill="#ff6909" stroke="none" /><path d="M 97.84075906011543 120.88869738790638 l -0.8974078289974002 8.681606682794207 a29.72786545532657,29.72786545532657 0 0,0 -0.5071631864135866,-0.056828692878817984 l 1.046306917011786 -8.664922229408418" fill="#ff6b09" stroke="none" /><path d="M 97.48249496171623 120.84855314841334 l -1.1620853280807726 9.623733560430084 a30.69364172805499,30.69364172805499 0 0,0 -0.5225551259389444,-0.06765522297088347 l 1.327118275910511 -9.602366741258804" fill="#ff780b" stroke="none" /><path d="M 97.12497278360702 120.80226474461374 l -1.6463783385077613 11.91237351499022 a33.02560619653529,33.02560619653529 0 0,0 -0.5609240286853053,-0.08243651573695991 l 1.8506274728007515 -11.882355925954379" fill="#ff970e" stroke="none" /><path d="M 96.76829788921471 120.74984581791261 l -0.6212101401774233 3.98861472602535 a25.03670031968259,25.03670031968259 0 0,0 -0.42410083585855496,-0.06978563115122863 l 0.6895884790890418 -3.977363096378453" fill="#ff2a04" stroke="none" /><path d="M 96.41257539226777 120.69131181640829 l -1.5740680494750077 9.078806217065463 a30.214250514903778,30.214250514903778 0 0,0 -0.5102831052106408,-0.09299058019397131 l 1.7296858882367057 -9.050447462940125" fill="#ff720a" stroke="none" /><path d="M 96.05791012581884 120.62667999033965 l -1.8569386815693691 9.716287849568774 a30.89214187336526,30.89214187336526 0 0,0 -0.5200228915100416,-0.10401914239248278 l 2.0234580586103688 -9.68297931051343" fill="#ff7b0b" stroke="none" /><path d="M 95.70440661134978 120.55596938700252 l -0.9492127217095322 4.542326492253416 a25.64044553392047,25.64044553392047 0 0,0 -0.43007278912746677,-0.09373236268766083 l 1.0270479274561355 -4.5253626714320365" fill="#ff3204" stroke="none" /><path d="M 95.35216902796893 120.47920084513623 l -1.8060770761409597 7.957908841061835 a29.16028354455971,29.16028354455971 0 0,0 -0.48720980398161207,-0.1149801871361428 l 1.9424190338624596 -7.925732510279465" fill="#ff6309" stroke="none" /><path d="M 95.00130118170881 120.39639698878247 l -0.9860435488801214 4.023394167617025 a25.14246092417331,25.14246092417331 0 0,0 -0.41831632200923374,-0.10633437324149578 l 1.0549651641147337 -4.005874562540266" fill="#ff2b04" stroke="none" /><path d="M 94.6519064749342 120.30758222061772 l -2.898956749410252 11.007810964176992 a32.383138954524206,32.383138954524206 0 0,0 -0.5363551440237958,-0.14618597956906684 l 3.087493294368743 -10.95642449046378" fill="#ff8f0d" stroke="none" /><path d="M 94.30408787586889 120.21278271476187 l -1.414891604203808 5.020951155399901 a26.216499665154597,26.216499665154597 0 0,0 -0.4321228033092487,-0.12578465021810978 l 1.5008744198946633 -4.995922810879275" fill="#ff3a05" stroke="none" /><path d="M 93.95794788825049 120.11202640906438 l -1.9650490609061004 6.541009226186088 a27.829803767958452,27.829803767958452 0 0,0 -0.45635493394479987,-0.14137992507796113 l 2.077044627722534 -6.506312713301478" fill="#ff5107" stroke="none" /><path d="M 93.61358852112213 120.00534299687104 l -2.076940874920916 6.505987709128145 a27.82946260471816,27.82946260471816 0 0,0 -0.4538551507427796,-0.14919120275790798 l 2.188318763311439 -6.4693755849682155" fill="#ff5107" stroke="none" /><path d="M 92.93061703081489 119.77432235084164 l -2.433481640286978 6.806881251113837 a28.2287941774807,28.2287941774807 0 0,0 -0.45490143739916733,-0.16704610885443463 l 2.5499722293402645 -6.764104293250683" fill="#ff5608" stroke="none" /><path d="M 92.59220618246901 119.65005319985036 l -6.073884942115657 16.11170142990328 a38.2185655981097,38.2185655981097 0 0,0 -0.6119115162759572,-0.23670051985208485 l 6.349568720885143 -16.005061021913157" fill="#ffda14" stroke="none" /><path d="M 92.25597844496254 119.51999308798841 l -2.0990285560543294 5.290923148195265 a26.69208122212254,26.69208122212254 0 0,0 -0.42446197360334414,-0.1726249894468974 l 2.1895449908481144 -5.254110902169076" fill="#ff4106" stroke="none" /><path d="M 91.92203290615298 119.3841803445677 l -1.0728783578514942 2.5745174911913122 a23.789123210472447,23.789123210472447 0 0,0 -0.3756018499543642,-0.16032209507893902 l 1.1169152829762896 -2.555720746452969" fill="#ff1802" stroke="none" /><path d="M 91.59046798132341 119.24265499422711 l -3.4901439440601765 7.986132361062103 a29.715469857595934,29.715469857595934 0 0,0 -0.46566489799915195,-0.20828598585663755 l 3.6267222449149634 -7.925042624295611" fill="#ff6b09" stroke="none" /><path d="M 91.26138138417905 119.09545874513695 l -2.403255381829179 5.251546727838995 a26.775325052753946,26.775325052753946 0 0,0 -0.4163069437849337,-0.1948526702612356 l 2.4930510394856027 -5.209517826007232" fill="#ff4206" stroke="none" /><path d="M 90.6110303473126 118.78422872680471 l -3.8979544199951217 7.798519976139239 a29.718426605678474,29.718426605678474 0 0,0 -0.4543703712660086,-0.23200474908549568 l 4.031252012974713 -7.730457275380907" fill="#ff6b09" stroke="none" /><path d="M 90.28995756902619 118.62028667847754 l -5.333593814727156 10.22786940044445 a32.53501345699448,32.53501345699448 0 0,0 -0.4930002457404932,-0.26249486250754106 l 5.5083828762542115 -10.134804070214335" fill="#ff910d" stroke="none" /><path d="M 89.97174638481275 118.45085714620012 l -5.245189347456577 9.650557621331641 a31.983864242301713,31.983864242301713 0 0,0 -0.4801475756005632,-0.2663297663444417 l 5.410081111213243 -9.559094939554052" fill="#ff8a0c" stroke="none" /><line stroke="#e1ed5e" stroke-width="0.3" x1="58.13341422392154" x2="55.67067388415222" y1="173.97424548756322" y2="178.32567169271397" /><path d="M 57.64086615596768 174.84453072859336 a86.0,86.0 0 0,1 -31.369924170532247,-30.572349798747897" fill="none" id="id308" stroke="none" /><text fill="#e1ed5e" style="font-size:6.75px; font-family:Arial;" text-anchor="middle"><textPath startOffset="22.145653131862474" xlink:href="#id308">August</textPath></text><path d="M 89.65649057296885 118.27599006163327 l -1.4232928274897867 2.514822048889782 a23.88965264527868,23.88965264527868 0 0,0 -0.35516807124070143,-0.2050563815383807 l 1.466253366590888 -2.49001877007523" fill="#ff1902" stroke="none" /><path d="M 89.34428304082925 118.09573695890944 l -2.8902098533033365 4.908208191135694 a26.695947738845856,26.695947738845856 0 0,0 -0.39289728470152724,-0.23592353060736138 l 2.974039894562291 -4.857870659992414" fill="#ff4106" stroke="none" /><path d="M 88.72937992617639 117.7192867562869 l -7.297338272792691 11.472627820500584 a34.59677663916301,34.59677663916301 0 0,0 -0.4983820005210408,-0.32304519145723415 l 7.4932059055707425 -11.345668787339454" fill="#ffac0f" stroke="none" /><path d="M 88.4268655584334 117.5232005979908 l -4.73326192924435 7.166761838615106 a29.58872771382722,29.58872771382722 0 0,0 -0.42143325189012953,-0.2835590998401343 l 4.855591469231484 -7.0844530647178505" fill="#ff6909" stroke="none" /><path d="M 88.1277618465304 117.32195027204791 l -1.6322674630958627 2.381527009560991 a23.88720764205658,23.88720764205658 0 0,0 -0.3362464684354033,-0.23472614918465312 l 1.6729090227050314 -2.3531560445712087" fill="#ff1902" stroke="none" /><path d="M 87.83215693770417 117.11559508785305 l -5.3334950300451816 7.502228691640121 a30.20486852579573,30.20486852579573 0 0,0 -0.42001881850906814,-0.304061233672914 l 5.461494858928204 -7.409566686594141" fill="#ff720a" stroke="none" /><path d="M 87.54013794807813 116.9041958592261 l -1.7080645100699634 2.317317551197299 a23.878792282129364,23.878792282129364 0 0,0 -0.32787516109393633,-0.24604363341750884 l 1.747592660074666 -2.2876548905157756" fill="#ff1902" stroke="none" /><path d="M 87.2517909369889 116.68781488649013 l -2.760857439874618 3.6140510135103145 a25.547933435261115,25.547933435261115 0 0,0 -0.34622322813316486,-0.269225276308822 l 2.8224906126430116 -3.5661246855806996" fill="#ff3104" stroke="none" /><path d="M 86.68645165197938 116.24036423190432 l -3.6084407837283092 4.401711031884203 a26.691740058882246,26.691740058882246 0 0,0 -0.3518551768656076,-0.2935301027043007 l 3.68347029475581 -4.339118745268032" fill="#ff4106" stroke="none" /><path d="M 86.40962598614128 116.0094264158162 l -0.9245105662881629 1.0890711224387033 a22.428564208185392,22.428564208185392 0 0,0 -0.29137964549757994,-0.25168679790717174 l 0.9430696915486053 -1.0730401920668093" fill="#ff0400" stroke="none" /><path d="M 85.86807049272751 115.53346607816431 l -5.012616086982265 5.509743160686597 a28.448730746389355,28.448730746389355 0 0,0 -0.35841367616188585,-0.3317423478499506 l 5.106459534458119 -5.4228830667042685" fill="#ff5908" stroke="none" /><path d="M 85.60350026404147 115.28858382429668 l -3.643595309960836 3.869371954282303 a26.31486839943898,26.31486839943898 0 0,0 -0.32621353691463534,-0.31250518911547776 l 3.709481332740786 -3.8062546348612427" fill="#ff3c05" stroke="none" /><path d="M 85.34317274990678 115.03919595460226 l -3.9684290999452254 4.071957856066196 a26.685883423257224,26.685883423257224 0 0,0 -0.32532389403922596,-0.32254336464430167 l 4.0377449141144135 -4.0032344811932346" fill="#ff4106" stroke="none" /><path d="M 85.08716467003676 114.78537596483092 l -13.86643580263439 13.747919969464773 a40.52647805814938,40.52647805814938 0 0,0 -0.485571275347738,-0.49823890500137713 l 14.100393879132938 -13.50785837239566" fill="#fff717" stroke="none" /><path d="M 84.58840730492382 114.26474011684316 l -8.928862894303048 8.264422194783894 a33.16656347531621,33.16656347531621 0 0,0 -0.3831564073469259,-0.4211560107975293 l 9.069417002491853 -8.10992860842869" fill="#ff990e" stroke="none" /><path d="M 84.3458050057657 113.99807769240083 l -8.315370078247886 7.435655199085661 a32.155014467848524,32.155014467848524 0 0,0 -0.364406556266635,-0.4146277678425424 l 8.441787698473114 -7.291815153431819" fill="#ff8c0c" stroke="none" /><path d="M 84.1078160697243 113.72728997021213 l -2.1612442983735045 1.8668313499519158 a23.85587748448971,23.85587748448971 0 0,0 -0.2650336147352251,-0.3122089317405495 l 2.1929724766158416 -1.829455635761812" fill="#ff1902" stroke="none" /><path d="M 83.8745106332314 113.45245675266167 l -4.291722148219597 3.5803072564323553 a26.589049923554164,26.589049923554164 0 0,0 -0.28938152064053185,-0.35299840240436675 l 4.352550488098759 -3.506106572329493" fill="#ff4006" stroke="none" /><path d="M 83.64595745247003 113.17365903436017 l -19.64860335200632 15.827524008723586 a46.23049999368216,46.23049999368216 0 0,0 -0.49253879889579866,-0.6223066824317348 l 19.91740858154368 -15.48789738237717" fill="#c3ff1e" stroke="none" /><path d="M 83.4222238831116 112.89097897827486 l -6.737273545040856 5.238944658658501 a29.53448275862069,29.53448275862069 0 0,0 -0.3077887215041811,-0.4029053165996627 l 6.826214243899332 -5.122518428817968" fill="#ff6809" stroke="none" /><path d="M 82.98947788004972 112.3143062007846 l -8.082981826970366 5.851455500942694 a30.978683615319493,30.978683615319493 0 0,0 -0.30814187022178735,-0.4334401301305725 l 8.182238795722114 -5.711838144102618" fill="#ff7c0b" stroke="none" /><path d="M 82.78059297857968 112.02048342749411 l -9.439082968265225 6.589212987975194 a32.51147319341428,32.51147319341428 0 0,0 -0.31553199562244144,-0.4603706114010749 l 9.55080470070299 -6.426207641504068" fill="#ff910d" stroke="none" /><path d="M 82.576782715395 111.72311816256416 l -8.325458314189419 5.601739907186004 a31.034577526187437,31.034577526187437 0 0,0 -0.2936101001368331,-0.44456311367254986 l 8.420392853246979 -5.457996915174394" fill="#ff7d0b" stroke="none" /><path d="M 81.99639281039703 110.81064883170644 l -26.8101775565642 16.098741303747854 a52.27227353710465,52.27227353710465 0 0,0 -0.45533205053449316,-0.7732533669019563 l 27.082583317228465 -15.63613676855234" fill="#80ff25" stroke="none" /><line stroke="#e1ed5e" stroke-width="0.3" x1="26.387840678322732" x2="22.057713659400548" y1="142.50000000000003" y2="145.00000000000006" /><path d="M 25.521815274538298 143.00000000000003 a86.0,86.0 0 0,1 -11.493303480769221,-40.785679425670985" fill="none" id="id309" stroke="none" /><text fill="#e1ed5e" style="font-size:6.75px; font-family:Arial;" text-anchor="middle"><textPath startOffset="21.40746469413373" xlink:href="#id309">September</textPath></text><path d="M 81.81346652052679 110.50000000000001 l -5.914389624537456 3.414674441819034 a27.829348883638062,27.829348883638062 0 0,0 -0.23531256356731775,-0.41577475260909574 l 5.972135553126152 -3.3126429191108167" fill="#ff5107" stroke="none" /><path d="M 81.63589988554817 110.18625677009913 l -23.038221331173716 12.778913017416619 a47.34502343917818,47.34502343917818 0 0,0 -0.3881269503631306,-0.7141098730186702 l 23.254193631152177 -12.381548310923362" fill="#b6ff1f" stroke="none" /><path d="M 81.4637452351635 109.86951160357371 l -3.648883802092315 1.9428251004166615 a25.133874982625947,25.133874982625947 0 0,0 -0.19950543595219683,-0.38257797921610154 l 3.6816973070194607 -1.8799008780960569" fill="#ff2b04" stroke="none" /><path d="M 81.29705330413844 109.54985784667822 l -10.398052685661996 5.309319790357694 a32.675117827674654,32.675117827674654 0 0,0 -0.25078944415625337,-0.501746885500996 l 10.487662043029987 -5.130041048692945" fill="#ff930d" stroke="none" /><path d="M 81.1358732173502 109.22738970284198 l -2.5236299121021677 1.234433850716758 a23.809365562729813,23.809365562729813 0 0,0 -0.17643957792265388,-0.3686908578457795 l 2.5444487479847333 -1.190930490805874" fill="#ff1802" stroke="none" /><path d="M 80.9802524753101 108.90220220490708 l -5.671193520772397 2.6544049230694458 a27.261653251791106,27.261653251791106 0 0,0 -0.1947462619763497,-0.4255557285228514 l 5.7159242476038035 -2.5566602123319053" fill="#ff4906" stroke="none" /><path d="M 80.68587082218212 108.24405325689762 l -3.1414610464885393 1.3409029179252312 a24.415669501269885,24.415669501269885 0 0,0 -0.16122963562689946,-0.38689243191660105 l 3.1640165266519245 -1.2867779765673488" fill="#ff2103" stroke="none" /><path d="M 80.5471966667186 107.91128576633889 l -8.9409499658598 3.6362065143298334 a30.652076673279335,30.652076673279335 0 0,0 -0.19404417561836684,-0.48911808159560516 l 9.00205281644429 -3.4821874155206634" fill="#ff780b" stroke="none" /><path d="M 80.41425534168474 107.57618678355246 l -2.461391925905423 0.9521192736611259 a23.639125105823783,23.639125105823783 0 0,0 -0.1431510178539338,-0.37972508222158585 l 2.4773736275737925 -0.9097259112453951" fill="#ff1502" stroke="none" /><path d="M 80.28708602549918 107.23885506374661 l -10.206743050217572 3.748057426162379 a31.873156770826753,31.873156770826753 0 0,0 -0.18419623266048923,-0.5152296454041159 l 10.269579452922004 -3.572292824377342" fill="#ff880c" stroke="none" /><path d="M 80.16572619554312 106.89939002012753 l -7.22997726986052 2.5149614003118 a28.65490706460621,28.65490706460621 0 0,0 -0.1576218814024276,-0.4659810847934065 l 7.272084572835315 -2.3904786410442322" fill="#ff5c08" stroke="none" /><path d="M 80.05021161711548 106.5578916946017 l -7.714915447466541 2.5360459452743247 a29.121049771926053,29.121049771926053 0 0,0 -0.15203307469570576,-0.47624144109969724 l 7.757313237939501 -2.403235470483236" fill="#ff6309" stroke="none" /><path d="M 79.94057633289273 106.21446072829308 l -26.2274790990459 8.12534006799074 a48.45727246307224,48.45727246307224 0 0,0 -0.23934126773603015,-0.7966892387646461 l 26.36309668678556 -7.673913225635371" fill="#aaff21" stroke="none" /><path d="M 79.83685265289637 105.86919833188381 l -5.463777011060146 1.59042585798024 a26.690545987541224,26.690545987541224 0 0,0 -0.12427818257212768,-0.44101942687521417 l 5.490273685706849 -1.49639850720203" fill="#ff4106" stroke="none" /><path d="M 79.73907114497094 105.5222062557868 l -3.295294315021523 0.8981471190820406 a24.41549891964974,24.41549891964974 0 0,0 -0.10674283962973966,-0.40531994851688924 l 3.310226635455995 -0.8414466661923486" fill="#ff2103" stroke="none" /><path d="M 79.64726062577567 105.17358676015961 l -7.718865691800131 1.9621054744661033 a28.964342123551635,28.964342123551635 0 0,0 -0.11835723049763223,-0.48293788993427966 l 7.751410448814057 -1.829311759923724" fill="#ff6108" stroke="none" /><path d="M 79.56144815229197 104.8234425847677 l -8.228831543867308 1.9419818384060465 a29.454878002552405,29.454878002552405 0 0,0 -0.11191330184512858,-0.4931106573196219 l 8.260955707270103 -1.8004368471473984" fill="#ff6709" stroke="none" /><path d="M 79.48165901384964 104.47187691870673 l -5.431524904515746 1.183775572804819 a26.55902755840841,26.55902755840841 0 0,0 -0.093263023354084,-0.44629732834379887 l 5.451045638694198 -1.0903617931756109" fill="#ff3f05" stroke="none" /><path d="M 79.407916724674 104.11899336999214 l -7.815882593459408 1.5633954152502623 a28.970710504037097,28.970710504037097 0 0,0 -0.09335978071564063,-0.48849782279247367 l 7.8415686664572055 -1.428995027424474" fill="#ff6108" stroke="none" /><path d="M 79.34024301695615 103.76489593502545 l -11.754521500090258 2.142065381029424 a32.948105280448814,32.948105280448814 0 0,0 -0.09662452747531039,-0.5573045975086299 l 11.789560845057803 -1.9399677506002013" fill="#ff960d" stroke="none" /><path d="M 79.2786578344484 103.40968896794605 l -5.616606707829447 0.9242104964038185 a26.692138082662588,26.692138082662588 0 0,0 -0.07051619011740215,-0.45276452545533435 l 5.631644390085116 -0.8276577890170341" fill="#ff4106" stroke="none" /><path d="M 79.22317932658666 103.0534771498775 l -10.008718155305958 1.470936899691207 a31.116229261697477,31.116229261697477 0 0,0 -0.07313126372332958,-0.5291413940037517 l 10.0324939355845 -1.2989071974873696" fill="#ff7e0b" stroke="none" /><path d="M 79.17382384314188 102.69636545807758 l -4.218752993299079 0.5462020373599461 a25.253964443208957,25.253964443208957 0 0,0 -0.05197255509086594,-0.4304073122369587 l 4.227507634649606 -0.47370104819958814" fill="#ff2d04" stroke="none" /><path d="M 79.13060592940153 102.33845913500099 l -13.128983964998438 1.4711300377180325 a34.21114845655223,34.21114845655223 0 0,0 -0.06038692493994923,-0.5841887201917572 l 13.152303282420053 -1.2455367952433438" fill="#ffa70f" stroke="none" /><path d="M 79.0935383218832 101.97986365728391 l -12.598740774409116 1.1931138501979386 a33.655109235415274,33.655109235415274 0 0,0 -0.04953130972278537,-0.5756288993159115 l 12.617365706829643 -0.976663903506365" fill="#ffa00e" stroke="none" /><path d="M 79.03789590574601 101.26102812881392 l -11.928190104671211 0.7175702963880137 a32.94975423611024,32.94975423611024 0 0,0 -0.029118812686607976,-0.5648971869668684 l 11.938750506814392 -0.5127013160444145" fill="#ff960d" stroke="none" /><path d="M 79.01933749520258 100.90099992219065 l -5.681670220828234 0.24399536600470167 a26.686906912978102,26.686906912978102 0 0,0 -0.015726610768289587,-0.45786311328126156 l 5.685021518593373 -0.14642598815932023" fill="#ff4106" stroke="none" /><path d="M 79.00696218219943 100.54070618675478 l -4.549665623853745 0.11718324769544723 a25.551174486043898,25.551174486043898 0 0,0 -0.007529771001966764,-0.43857141162416124 l 4.551006826454378 -0.03906492010223361" fill="#ff3104" stroke="none" /><line stroke="#e1ed5e" stroke-width="0.3" x1="15.003131293944662" x2="10.003315487706104" y1="100.72959589197737" y2="100.7725132973878" /><path d="M 14.003168132696942 100.73817937305945 a86.0,86.0 0 0,1 10.791469493833604,-42.45332614584628" fill="none" id="id310" stroke="none" /><text fill="#e1ed5e" style="font-size:6.75px; font-family:Arial;" text-anchor="middle"><textPath startOffset="22.145653131862435" xlink:href="#id310">October</textPath></text><path d="M 79.00077361379809 100.18025310272382 l -9.742296606303922 0.08362589929007648 a30.742655513577034,30.742655513577034 0 0,0 0.0,-0.5277580040277845 l 9.742296606303922 0.0836258992900729" fill="#ff790b" stroke="none" /><path d="M 79.00696218219943 99.45929381324524 l -10.856137327547165 -0.2796155881873721 a31.859737683375243,31.859737683375243 0 0,0 0.018774963144286044,-0.5466125666642832 l 10.84973767740603 0.4659344194157937" fill="#ff880c" stroke="none" /><path d="M 79.01933749520258 99.09900007780938 l -5.683317658076686 -0.2440661140486292 a26.688555868639515,26.688555868639515 0 0,0 0.02358557983911767,-0.45755394794055776 l 5.678290488780998 0.341591855365899" fill="#ff4106" stroke="none" /><path d="M 79.03789590574601 98.7389718711861 l -28.730297294351033 -1.7283433416063378 a49.782236767288765,49.782236767288765 0 0,0 0.0586388258078879,-0.8525956577934164 l 28.69639450737808 2.2212824235540793" fill="#9bff22" stroke="none" /><path d="M 79.06263194458094 98.37931529534042 l -5.105984243260478 -0.39523547292962175 a26.1212582605729,26.1212582605729 0 0,0 0.038443498257664764,-0.4467717230124726 l 5.09844712230507 0.48282824331777496" fill="#ff3905" stroke="none" /><path d="M 79.0935383218832 98.0201363427161 l -5.153809033833313 -0.48807107389906196 a26.1768678687406,26.1768678687406 0 0,0 0.04620542210561067,-0.44699554469181463 l 5.144671219246039 0.5764711408737894" fill="#ff3a05" stroke="none" /><path d="M 79.13060592940154 97.66154086499901 l -13.95590602137107 -1.5637883789289462 a35.04324559962598,35.04324559962598 0 0,0 0.07211885550028065,-0.5972475800586241 l 13.927005079611122 1.8031296359110065" fill="#ffb210" stroke="none" /><path d="M 79.17382384314186 97.30363454192245 l -13.638796368023028 -1.7658152480565052 a34.7526313794367,34.7526313794367 0 0,0 0.0816777582243215,-0.5909795707814324 l 13.606474093243499 1.9996831270380047" fill="#ffae10" stroke="none" /><path d="M 79.22317932658666 96.9465228501225 l -4.283238340698459 -0.6294885346696913 a25.32924779823353,25.32924779823353 0 0,0 0.06691566062409852,-0.4296465432627421 l 4.271801187936092 0.7029232598638834" fill="#ff2e04" stroke="none" /><path d="M 79.2786578344484 96.59031103205396 l -11.367531260150725 -1.8705229430048296 a32.52040029820194,32.52040029820194 0 0,0 0.09537022798049352,-0.550070131339646 l 11.333746214677998 2.065386107265068" fill="#ff910d" stroke="none" /><path d="M 79.34024301695615 96.23510406497455 l -11.754409621524607 -2.142044993027887 a32.94799155936872,32.94799155936872 0 0,0 0.10617679765136204,-0.5555618713560222 l 11.715906531591086 2.3435094294172236" fill="#ff960d" stroke="none" /><path d="M 79.407916724674 95.88100663000787 l -5.579786349981813 -1.1161135410270349 a26.69031854538103,26.69031854538103 0 0,0 0.09372405658872635,-0.44850353926747216 l 5.55980458256872 1.211733531579916" fill="#ff4106" stroke="none" /><path d="M 79.48165901384962 95.52812308129327 l -9.58697535030533 -2.0894366566077944 a30.812025372436537,30.812025372436537 0 0,0 0.11706975991096086,-0.5158309629880395 l 9.549694728836707 2.253701953534842" fill="#ff7a0b" stroke="none" /><path d="M 79.56144815229197 95.17655741523228 l -4.133923241042996 -0.9755946287967455 a25.247482341643398,25.247482341643398 0 0,0 0.10316899566535731,-0.4209647088207542 l 4.11656671886134 1.0464151622256173" fill="#ff2d04" stroke="none" /><path d="M 79.64726062577567 94.8264132398404 l -12.963272497250712 -3.295213176318351 a34.37553227783324,34.37553227783324 0 0,0 0.1502874031448468,-0.5706657487912041 l 12.90479561330114 3.5172594294823396" fill="#ffa90f" stroke="none" /><path d="M 79.73907114497095 94.47779374421319 l -8.063782902127814 -2.197819888024729 a29.357930781769248,29.357930781769248 0 0,0 0.1366982257814972,-0.48509377866084513 l 8.024866184271735 2.3359215905885873" fill="#ff6609" stroke="none" /><path d="M 79.83685265289637 94.1308016681162 l -25.543631135211175 -7.435378746590971 a47.603795756940144,47.603795756940144 0 0,0 0.23512575608121103,-0.7826571714866145 l 25.412229059126332 7.872773521668309" fill="#b3ff20" stroke="none" /><path d="M 79.94057633289273 93.78553927170692 l -14.297834560867814 -4.429505695312825 a35.96825286513943,35.96825286513943 0 0,0 0.18778045837452598,-0.5882196113289145 l 14.219689386716032 4.674294340333131" fill="#ffbe11" stroke="none" /><path d="M 80.05021161711548 93.44210830539832 l -11.347608683600335 -3.7301843664475394 a32.944977950746136,32.944977950746136 0 0,0 0.1812202494899129,-0.535745466888832 l 11.281903012538057 3.924431507810533" fill="#ff960d" stroke="none" /><path d="M 80.16572619554312 93.10060997987247 l -5.26445843917681 -1.8312519215334673 a26.57386815936114,26.57386815936114 0 0,0 0.15357143433784473,-0.42956663399262723 l 5.2322468347950215 1.921353511907016" fill="#ff3f05" stroke="none" /><path d="M 80.28708602549916 92.7611449362534 l -14.738222048661138 -5.4120792819151955 a36.70050289988754,36.70050289988754 0 0,0 0.2222465646402385,-0.589535417188516 l 14.643144800206464 5.664282979297856" fill="#ffc712" stroke="none" /><path d="M 80.41425534168474 92.42381321644754 l -13.18642969673131 -5.100794283469069 a35.13860072528778,35.13860072528778 0 0,0 0.22244629239313393,-0.5607099695039046 l 13.096924729372045 5.326405270186556" fill="#ffb310" stroke="none" /><path d="M 80.5471966667186 92.08871423366112 l -3.8889313683610762 -1.5815945318352167 a25.198241113961156,25.198241113961156 0 0,0 0.16639737169736893,-0.3992931172374679 l 3.8612081521272286 1.6481201585139484" fill="#ff2c04" stroke="none" /><path d="M 80.68587082218212 91.75594674310238 l -4.713995774858475 -2.0121244847713236 a26.12546594053651,26.12546594053651 0 0,0 0.1796015284920445,-0.4109634449970437 l 4.678760364349453 2.092749999544234" fill="#ff3905" stroke="none" /><path d="M 80.83023694016515 91.42560881287825 l -26.59581563207461 -11.895970047109168 a50.1350564182914,50.1350564182914 0 0,0 0.3581446341958289,-0.7826106605335702 l 26.387686533023736 12.35076968985741" fill="#97ff23" stroke="none" /><path d="M 80.9802524753101 91.09779779509293 l -19.148768984034227 -8.962590762555608 a42.14245460633553,42.14245460633553 0 0,0 0.3122971455823312,-0.6525809223938043 l 18.99209258049199 9.2899841870145" fill="#f3ff19" stroke="none" /><path d="M 81.1358732173502 90.77261029715801 l -15.209610198877398 -7.439782511557512 a37.93170417356364,37.93170417356364 0 0,0 0.2911350176534019,-0.5824650589235255 l 15.079655268012251 7.699779426644808" fill="#ffd714" stroke="none" /><path d="M 81.29705330413844 90.45014215332179 l -13.333201318641121 -6.808027596118845 a35.97075472890158,35.97075472890158 0 0,0 0.2855254555328293,-0.5475327089266879 l 13.214367794133352 7.035906548150019" fill="#ffbe11" stroke="none" /><path d="M 81.46374523516351 90.13048839642627 l -3.798800116868379 -2.0226470939649075 a25.30371741575163,25.30371741575163 0 0,0 0.2074358392924136,-0.3816585803125437 l 3.763518927960615 2.087560507752071" fill="#ff2d04" stroke="none" /><path d="M 81.63589988554816 89.8137432299009 l -13.28779898260814 -7.370518103404948 a36.19506955939399,36.19506955939399 0 0,0 0.3060493668799558,-0.5407599061929441 l 13.159316250706814 7.597534779696998" fill="#ffc111" stroke="none" /><line stroke="#e1ed5e" stroke-width="0.3" x1="26.387840678322718" x2="22.05771365940052" y1="57.49999999999999" y2="54.99999999999999" /><path d="M 25.521815274538284 56.99999999999999 a86.0,86.0 0 0,1 29.574782752854787,-30.34633250058573" fill="none" id="id311" stroke="none" /><text fill="#e1ed5e" style="font-size:6.75px; font-family:Arial;" text-anchor="middle"><textPath startOffset="21.40746469413373" xlink:href="#id311">November</textPath></text><path d="M 81.81346652052679 89.5 l -5.260840879694434 -3.03734789805537 a27.07469579611074,27.07469579611074 0 0,0 0.23584160244511415,-0.4005106008508913 l 5.20792556711954 3.1272096671998337" fill="#ff4606" stroke="none" /><path d="M 81.99639281039701 89.18935116829357 l -22.428763694321475 -13.467828167716366 a47.161648197520876,47.161648197520876 0 0,0 0.42273014475514287,-0.6904979220537865 l 22.194265585110937 13.850863205894695" fill="#b9ff1f" stroke="none" /><path d="M 82.18462484594161 88.88188828441811 l -4.930665485148292 -3.0770999331751043 a26.81205696162545,26.81205696162545 0 0,0 0.24703136539016288,-0.3883743372125228 l 4.877116428132239 3.161287945066299" fill="#ff4306" stroke="none" /><path d="M 82.37810715431573 88.57770195909679 l -18.749911308380423 -12.153465980090429 a43.3442589808064,43.3442589808064 0 0,0 0.4100688082179496,-0.620896440948068 l 18.538518061241746 12.473542299377558" fill="#e5ff1a" stroke="none" /><path d="M 82.576782715395 88.27688183743585 l -13.282464226367518 -8.937034709044426 a37.009198771812336,37.009198771812336 0 0,0 0.35918354961606924,-0.5240595332202724 l 13.127090939936135 9.163728977334733" fill="#ffcb12" stroke="none" /><path d="M 82.78059297857968 87.97951657250589 l -19.43448394917222 -13.566779154608543 a44.70140635069053,44.70140635069053 0 0,0 0.44464042195884107,-0.625442437330693 l 19.198728428683406 13.898398818648756" fill="#d5ff1c" stroke="none" /><path d="M 82.98947788004972 87.6856937992154 l -4.494475780593197 -3.2536538610607177 a26.548565219039435,26.548565219039435 0 0,0 0.27041354682380037,-0.3668679106918734 l 4.437960214185577 3.3303280810214546" fill="#ff3f05" stroke="none" /><path d="M 83.2033758604659 87.39550010848427 l -2.7331234964614026 -2.0509868249991334 a24.417091014771106,24.417091014771106 0 0,0 0.2544586708258372,-0.33309456834408746 l 2.6975128482812587 2.097602306584105" fill="#ff2103" stroke="none" /><path d="M 83.42222388311158 87.10902102172516 l -1.3585866177271178 -1.0564451712823002 a22.720997965656235,22.720997965656235 0 0,0 0.24206904639248028,-0.30584633234505143 l 1.3402511406930757 1.0796114475420346" fill="#ff0801" stroke="none" /><path d="M 83.64595745247003 86.82634096563983 l -21.69876648554941 -17.478990305672355 a48.86308613740033,48.86308613740033 0 0,0 0.5318006551676027,-0.6487103297274864 l 21.39551901114318 17.848902917098332" fill="#a5ff21" stroke="none" /><path d="M 83.8745106332314 86.54754324733833 l -21.252918602816273 -17.729940584712757 a48.67737961360104,48.67737961360104 0 0,0 0.5407951094324323,-0.6370552791014442 l 20.945428929876726 18.09216264626376" fill="#a7ff21" stroke="none" /><path d="M 84.10781606972428 86.27271002978789 l -8.07594333450283 -6.975807505255745 a31.671586156353847,31.671586156353847 0 0,0 0.35892795676640105,-0.4083941273039151 l 7.955004313777836 7.11341391037096" fill="#ff850c" stroke="none" /><path d="M 84.34580500576568 86.00192230759919 l -9.032922657254419 -8.077295139882068 a33.117606550334216,33.117606550334216 0 0,0 0.38259083293931256,-0.4205343454495103 l 8.892934123473239 8.231167060889236" fill="#ff990e" stroke="none" /><path d="M 84.58840730492382 85.73525988315684 l -3.2062568022160574 -2.9676634294964797 a25.368879594647527,25.368879594647527 0 0,0 0.29856050459352734,-0.3170609095835558 l 3.1548404638862584 3.0222657990245465" fill="#ff2e04" stroke="none" /><path d="M 84.83555147118756 85.47280134310135 l -2.635924946445058 -2.525156471659774 a24.650276089511124,24.650276089511124 0 0,0 0.2953492771141801,-0.3030543771703418 l 2.5921888681800755 2.570033540897846" fill="#ff2403" stroke="none" /><path d="M 85.34317274990677 84.96080404539775 l -23.434078436074675 -24.045428905045206 a54.57586459610063,54.57586459610063 0 0,0 0.6765523410502303,-0.6481218384930134 l 23.017853609159143 24.44416287384379" fill="#68ff28" stroke="none" /><path d="M 85.60350026404147 84.71141617570332 l -3.6488576919238263 -3.874960421564781 a26.32254457234556,26.32254457234556 0 0,0 0.3316267446240059,-0.30694876392415466 l 3.5818011759858672 3.9370269316213014" fill="#ff3c05" stroke="none" /><path d="M 85.86807049272753 84.46653392183569 l -2.7191720380856528 -2.9888463986860443 a25.040680557486006,25.040680557486006 0 0,0 0.3204431722828578,-0.28654226060598564 l 2.667463838979403 3.0350841891754308" fill="#ff2a04" stroke="none" /><path d="M 86.13680546590413 84.22622945171909 l -7.547673070694782 -8.587866447215141 a32.43323309030717,32.43323309030717 0 0,0 0.4213548345081141,-0.3639562705176471 l 7.399138756423819 8.7161668501975" fill="#ff900d" stroke="none" /><path d="M 86.40962598614128 83.9905735841838 l -5.21179768488661 -6.139484567917557 a29.053328868727966,29.053328868727966 0 0,0 0.3829860528046976,-0.3195005866206625 l 5.105637297920004 6.228047338450102" fill="#ff6209" stroke="none" /><path d="M 86.68645165197937 83.75963576809568 l -5.9757005022763146 -7.289382977466658 a30.42571486334517,30.42571486334517 0 0,0 0.4067617147273863,-0.3276584442333835 l 5.8496880171936825 7.39088971549344" fill="#ff750a" stroke="none" /><path d="M 86.96720088162412 83.53348406188908 l -5.55153809738196 -7.01418703160077 a29.94530016047308,29.94530016047308 0 0,0 0.40581593478967865,-0.31556492544819226 l 5.430312217957037 7.108453008669766" fill="#ff6e0a" stroke="none" /><path d="M 87.25179093698888 83.31218511350988 l -15.17121952929503 -19.859613366536635 a45.991401422777066,45.991401422777066 0 0,0 0.6314991969554066,-0.47388877035011023 l 14.828067343428872 20.117121164150745" fill="#c6ff1e" stroke="none" /><path d="M 87.54013794807813 83.09580414077388 l -13.156371190266125 -17.84914427384327 a43.17390480282028,43.17390480282028 0 0,0 0.600361907558575,-0.4346157224823005 l 12.84802827233358 18.072360767698648" fill="#e7ff1a" stroke="none" /><path d="M 87.83215693770416 82.88440491214696 l -6.662709330240839 -9.371935066932577 a32.498907014063505,32.498907014063505 0 0,0 0.45746840213545326,-0.31934847347710166 l 6.50084583693162 9.484928356214805" fill="#ff900d" stroke="none" /><path d="M 88.12776184653039 82.6780497279521 l -22.180604398372243 -32.362164692618386 a60.23377263365386,60.23377263365386 0 0,0 0.8579116655546596,-0.5772412559663236 l 21.62179644472059 32.73815562264182" fill="#2fff30" stroke="none" /><path d="M 88.4268655584334 82.4767994020092 l -6.154409338463143 -9.318560148467357 a32.167466926119204,32.167466926119204 0 0,0 0.46338671043085616,-0.30036166722187463 l 5.993536995775261 9.422835657393138" fill="#ff8c0c" stroke="none" /><path d="M 88.72937992617638 82.28071324371311 l -4.061638211886438 -6.385569889260949 a28.567853577791535,28.567853577791535 0 0,0 0.41605116131296194,-0.259646695670136 l 3.9514229217837773 6.454352381772621" fill="#ff5b08" stroke="none" /><path d="M 89.03521579738668 82.08984904055464 l -5.9991444228483735 -9.799151561516434 a32.4896956065756,32.4896956065756 0 0,0 0.47816669816249335,-0.2871253634014263 l 5.830044968128446 9.900690925453782" fill="#ff900d" stroke="none" /><line stroke="#e1ed5e" stroke-width="0.3" x1="56.869717070023135" x2="54.33264160355391" y1="26.7553504044142" y2="22.446841604673864" /><path d="M 56.362301976729285 25.89364864446614 a86.0,86.0 0 0,1 42.16139366436587,-11.88097634709845" fill="none" id="id312" stroke="none" /><text fill="#e1ed5e" style="font-size:6.75px; font-family:Arial;" text-anchor="middle"><textPath startOffset="22.145653131862474" xlink:href="#id312">December</textPath></text><path d="M 89.34428304082924 81.90426304109057 l -5.349718599631692 -9.084991742372077 a31.54308133584362,31.54308133584362 0 0,0 0.46895178952106775,-0.2707494419169437 l 5.192974342250224 9.175488081565195" fill="#ff840c" stroke="none" /><path d="M 89.65649057296885 81.72400993836675 l -1.9937582270005998 -3.522779748886553 a25.04784498553215,25.04784498553215 0 0,0 0.3760227955168587,-0.2085735060620238 l 1.9329912433276386 3.556486170381723" fill="#ff2a04" stroke="none" /><path d="M 89.97174638481275 81.54914285379989 l -3.8442058220420803 -7.072905730632017 a29.050087817945183,29.050087817945183 0 0,0 0.4401934688596528,-0.2343782281720267 l 3.7222235373958656 7.137854426526618" fill="#ff6209" stroke="none" /><path d="M 90.28995756902619 81.37971332152246 l -15.7060554605811 -30.11843226670202 a54.967633717036676,54.967633717036676 0 0,0 0.8404100415885302,-0.42911935539373286 l 15.186718197278987 30.383609573768588" fill="#64ff29" stroke="none" /><path d="M 90.61103034731259 81.2157712731953 l -4.04097856117358 -8.084664066570069 a30.038324003992873,30.038324003992873 0 0,0 0.46321920752565426,-0.2265837266113022 l 3.9015991043858724 8.152841543278583" fill="#ff6f0a" stroke="none" /><path d="M 90.93487009805054 81.0573650232925 l -3.193226031632556 -6.6726142669315465 a28.397328818185265,28.397328818185265 0 0,0 0.4415261121447118,-0.20665651444407113 l 3.0782112056163213 6.72644701294616" fill="#ff5908" stroke="none" /><path d="M 91.26138138417902 80.90454125486306 l -6.199461906551607 -13.546943090556482 a35.89808695871925,35.89808695871925 0 0,0 0.5625513943446669,-0.2516220833255077 l 5.965997109351321 13.651368924791836" fill="#ffbd11" stroke="none" /><path d="M 91.5904679813234 80.7573450057729 l -3.002614931506046 -6.8705705714856435 a28.49802883461164,28.49802883461164 0 0,0 0.44994984706375685,-0.19205683403975343 l 2.884230009271858 6.921102055184801" fill="#ff5a08" stroke="none" /><path d="M 91.92203290615298 80.6158196554323 l -1.5851924281433405 -3.8038847585030244 a25.120967640034873,25.120967640034873 0 0,0 0.39947786066518787,-0.16246416821790394 l 1.5196601062877118 3.83053618330022" fill="#ff2b04" stroke="none" /><path d="M 92.25597844496254 80.48000691201159 l -6.280290252569529 -15.830434025712758 a38.03069837378855,38.03069837378855 0 0,0 0.6089036033338066,-0.23553699450873228 l 6.007614386742193 15.935910908359531" fill="#ffd814" stroke="none" /><path d="M 92.592206182469 80.34994680014964 l -4.572507859376411 -12.129120343609564 a33.962383593838844,33.962383593838844 0 0,0 0.5472970973256649,-0.20097507499268885 l 4.363621610396619 12.205826267610975" fill="#ffa40f" stroke="none" /><path d="M 92.93061703081487 80.22567764915836 l -4.413944292587682 -12.34658776596841 a34.111869953627064,34.111869953627064 0 0,0 0.5530902297124506,-0.19239349263448344 l 4.201348290830227 12.420539691171479" fill="#ffa60f" stroke="none" /><path d="M 93.61358852112211 79.99465700312896 l -15.094718433252048 -47.283990500320336 a70.63493006153573,70.63493006153573 0 0,0 1.1582761815784808,-0.35883692185732513 l 14.280801618801952 47.5361440099843" fill="#3cffa7" stroke="none" /><path d="M 93.95794788825049 79.88797359093562 l -3.601921922654924 -11.989626618901815 a33.51898510253851,33.51898510253851 0 0,0 0.5524886232558667,-0.1608213861743156 l 3.395573287017433 12.04969169937865" fill="#ff9e0e" stroke="none" /><path d="M 94.30408787586887 79.78721728523814 l -1.5198263393851115 -5.393327511500062 a26.603378779646455,26.603378779646455 0 0,0 0.4406261875019407,-0.12009462678127443 l 1.427018750948493 5.4186226324254765" fill="#ff4006" stroke="none" /><path d="M 94.6519064749342 79.69241777938228 l -5.070010270339101 -19.251654807779506 a40.90806914241669,40.90806914241669 0 0,0 0.6806220391776494,-0.17301146080717952 l 4.738782937936074 19.33585150042195" fill="#fffc17" stroke="none" /><path d="M 95.00130118170881 79.60360301121753 l -3.1227396763506023 -12.741843517037978 a34.11892066059312,34.11892066059312 0 0,0 0.5700586766143492,-0.13453229549168358 l 2.9035488459963474 12.793571956175894" fill="#ffa60f" stroke="none" /><path d="M 95.35216902796891 79.52079915486377 l -8.224752228654742 -36.23977588808398 a58.161376530496206,58.161376530496206 0 0,0 0.975553462628929,-0.21261733662772458 l 7.601436349406695 36.37562468284542" fill="#43ff2d" stroke="none" /><path d="M 95.70440661134978 79.44403061299748 l -1.643765991361986 -7.866015318654331 a29.035929543473042,29.035929543473042 0 0,0 0.4887763399758411,-0.09776895697492802 l 1.5084931658551681 7.893073672292125" fill="#ff6209" stroke="none" /><path d="M 96.05791012581881 79.37332000966035 l -2.938811574256182 -15.37710398007593 a36.655412491628866,36.655412491628866 0 0,0 0.6190667446733401,-0.11281458307776969 l 2.6744100960318034 15.425286737085061" fill="#ffc712" stroke="none" /><path d="M 96.41257539226777 79.30868818359171 l -1.8460355367767705 -10.647442411274758 a31.806288775729396,31.806288775729396 0 0,0 0.5387720219960707,-0.0886547311926548 l 1.6629860117276272 10.67756314096308" fill="#ff870c" stroke="none" /><path d="M 96.76829788921471 79.25015418208739 l -0.8555957107941407 -5.49353822624812 a26.559766745429044,26.559766745429044 0 0,0 0.4511048570957346,-0.06629687934416016 l 0.7611657480907211 5.507416178891165" fill="#ff3f05" stroke="none" /><path d="M 97.12497278360702 79.19773525538626 l -1.7134422573431145 -12.397614623829005 a33.51545974905548,33.51545974905548 0 0,0 0.5705961985625589,-0.07387510163779516 l 1.5003682368897617 12.425201321667194" fill="#ff9e0e" stroke="none" /><path d="M 97.48249496171623 79.15144685158666 l -1.5825071743864525 -13.105429554744092 a34.200629256643204,34.200629256643204 0 0,0 0.5834694097769811,-0.06537896436623733 l 1.3573018630086722 13.1306642796173" fill="#ffa70f" stroke="none" /><path d="M 97.84075906011542 79.11130261209362 l -1.1890583576726488 -11.503060983695788 a32.564353495659645,32.564353495659645 0 0,0 0.5565409851274734,-0.052705009925052664 l 0.9914178091601598 11.521777749126024" fill="#ff910d" stroke="none" /><path d="M 98.5590905019552 79.04949213459386 l -4.322728494134429 -62.8515235962184 a84.0,84.0 0 0,0 1.439422591470065,-0.0865920887012237 l 3.24316155053188 62.91646766274432" fill="#4dd2ff" stroke="none" /><path d="M 98.9189461498227 79.02784411241856 l -1.327192561624065 -25.747181133163366 a46.78136490567468,46.78136490567468 0 0,0 0.8023544058550888,-0.03445655050594604 l 0.885012395168156 25.76617025209514" fill="#bdff1f" stroke="none" /><path d="M 99.27912038922189 79.0123766808444 l -0.1947630792491387 -5.670314547178865 a26.67365840714674,26.67365840714674 0 0,0 0.45775387404574536,-0.01179011603064199 l 0.09739589113264938 5.672822380559553" fill="#ff4106" stroke="none" /><path d="M 99.63950707515114 79.00309439819443 l -0.21950337128741967 -12.784970934262812 a33.78685510670827,33.78685510670827 0 0,0 0.5799962961362687,-0.004978570639896763 l 3.131876235518255e-15 12.786855106708273" fill="#ffa10e" stroke="none" /></svg>