<?xml version="1.0" encoding="utf-8" ?>
<svg baseProfile="full" height="200mm" version="1.1" viewBox="0,0,200,200" width="200mm" xmlns="http://www.w3.org/2000/svg" xmlns:ev="http://www.w3.org/2001/xml-events" xmlns:xlink="http://www.w3.org/1999/xlink"><defs /><rect fill="#1a1a1a" height="200" width="200" x="0" y="0" /><text alignment-baseline="middle" fill="#e1ed5e" style="dominant-baseline: central; font-size:9.0px; font-family:Arial;" text-anchor="middle" x="100.0" y="100.0">2017</text><line stroke="#e1ed5e" stroke-width="0.3" x1="100.0" x2="100.0" y1="15.0" y2="10.0" /><path d="M 100.0 14.0 a86.0,86.0 0 0,1 42.46469731375804,11.215312516191453" fill="none" id="id217" stroke="none" /><text fill="#e1ed5e" style="font-size:6.75px; font-family:Arial;" text-anchor="middle"><textPath startOffset="22.20632615414155" xlink:href="#id217">January</textPath></text><path d="M 101.08401301168833 79.027996857942 l 0.7321360455635526 -14.164368215524117 a35.18327712956929,35.18327712956929 0 0,0 0.604545792121044,0.03646785312368776 l -0.9758438865242085 14.149667093020126" fill="#ffa00e" stroke="none" /><path d="M 103.2404852339499 79.25152402106235 l 2.0584003551353174 -13.179714530438778 a34.33948601430656,34.33948601430656 0 0,0 0.5832329398812245,0.0962384324130683 l -2.2849625011554173 13.142329835086086" fill="#ff950d" stroke="none" /><path d="M 103.59715602781102 79.31037775812273 l 5.137853380525708 -29.55119120643641 a50.99450681506772,50.99450681506772 0 0,0 0.8635188295423549,0.15780254662541235 l -5.645767331170964 29.45837317846026" fill="#99ff23" stroke="none" /><path d="M 107.08798089147638 80.2323363322302 l 4.609547072691086 -12.855561772646158 a34.656990616738234,34.656990616738234 0 0,0 0.5598220834634088,0.20618719787248296 l -4.830151481927071 12.77431130696735" fill="#ff990e" stroke="none" /><path d="M 108.09893153111575 80.62456947434976 l 17.00407188187401 -40.67958991067361 a65.09044676417463,65.09044676417463 0 0,0 1.030029174877145,0.4410047376533143 l -17.701784814541472 40.38086564505751" fill="#35ff63" stroke="none" /><line stroke="#e1ed5e" stroke-width="0.3" x1="143.23703022742887" x2="145.7803849466894" y1="26.81831364943548" y2="22.513508569990506" /><path d="M 143.74570117128098 25.957352633546492 a86.0,86.0 0 0,1 28.547481713284135,27.462654790039103" fill="none" id="id218" stroke="none" /><text fill="#e1ed5e" style="font-size:6.75px; font-family:Arial;" text-anchor="middle"><textPath startOffset="19.985693538727396" xlink:href="#id218">February</textPath></text><path d="M 110.68208982089419 81.91981866633111 l 8.066454575162627 -13.653036426774289 a36.85790317425314,36.85790317425314 0 0,0 0.5434573801155296,0.3274269907334769 l -8.300274021495794 13.512162826582198" fill="#ffb711" stroke="none" /><path d="M 111.90073688211348 82.69761687909136 l 7.27740686025497 -10.58056176438199 a33.84168750046458,33.84168750046458 0 0,0 0.4771176120394644,0.3342513778115532 l -7.458455611878086 10.4537255438065" fill="#ff8e0d" stroke="none" /><path d="M 112.19680574252982 82.90503203632743 l 4.971412230367512 -6.96790082636137 a29.559590030501177,29.559590030501177 0 0,0 0.41165907386104394,0.29908782419934665 l -5.090616620582344 6.881293767345348" fill="#ff5207" stroke="none" /><path d="M 112.48926042617603 83.11751280151076 l 4.004481629791817 -5.41309953869264 a27.733314172020684,27.733314172020684 0 0,0 0.3813381493427676,0.2872159881160417 l -4.097065932892967 5.343366961070751" fill="#ff3705" stroke="none" /><path d="M 114.16331599549186 84.49514656593476 l 10.236768417821422 -11.206386555754957 a36.17809366413027,36.17809366413027 0 0,0 0.45617495150444287,0.4239649016811698 l -10.428151253120712 11.028517067999147" fill="#ffae10" stroke="none" /><path d="M 114.68862486808459 84.99185889309783 l 2.7365998773040436 -2.7961281250329875 a24.91245592691611,24.91245592691611 0 0,0 0.3038894923040623,0.302584494248346 l -2.7843251697754283 2.7486077801345226" fill="#ff0e01" stroke="none" /><path d="M 114.94478906791727 85.2469230424477 l 9.333554757395538 -9.213823694506962 a34.115250340072,34.115250340072 0 0,0 0.4089536982528945,0.42146273409456264 l -9.49077271935154 9.051796764862285" fill="#ff920d" stroke="none" /><path d="M 115.4437574822437 85.77008943001954 l 18.732842245655252 -17.260480176777488 a46.4724077097854,46.4724077097854 0 0,0 0.536991679364943,0.5929596245100056 l -19.02717756563623 16.93546776499793" fill="#ceff1d" stroke="none" /><path d="M 115.9244219780498 86.31012108654704 l 9.426019971295743 -8.1033441729124 a33.430367624649705,33.430367624649705 0 0,0 0.37137856924069845,0.43959508715027995 l -9.564109154023559 7.939890136133013" fill="#ff880c" stroke="none" /><path d="M 116.38621287248628 86.86637796730983 l 5.265000293760189 -4.219921003000929 a27.747441097546776,27.747441097546776 0 0,0 0.29550485597265125,0.37526115809730176 l -5.336859230326804 4.128667450950588" fill="#ff3805" stroke="none" /><path d="M 117.45458315368197 88.32363383020206 l 6.972409479304235 -4.664242362554091 a29.38866203656672,29.38866203656672 0 0,0 0.27765759192303124,0.4228915614912174 l -7.051663706585191 4.543532737085201" fill="#ff4f07" stroke="none" /><path d="M 117.65298651832404 88.62581576622439 l 12.86363234961446 -8.288304310899205 a36.302582317246916,36.302582317246916 0 0,0 0.3339360518429358,0.5282066390992123 l -13.004395997703352 8.065650024085787" fill="#ffaf10" stroke="none" /><line stroke="#e1ed5e" stroke-width="0.3" x1="172.23445277983987" x2="176.4835382374775" y1="55.19839476539836" y2="52.563006222186495" /><path d="M 173.08426987136738 54.67131705675599 a86.0,86.0 0 0,1 12.851231095245387,41.99856678651699" fill="none" id="id219" stroke="none" /><text fill="#e1ed5e" style="font-size:6.75px; font-family:Arial;" text-anchor="middle"><textPath startOffset="22.20632615414155" xlink:href="#id219">March</textPath></text><path d="M 117.84615892207809 88.93136811851018 l 17.16161346325296 -10.644059752385491 a41.19447906420113,41.19447906420113 0 0,0 0.36856151495201384,0.6058182238557857 l -17.342290776491197 10.347073755322624" fill="#ffef16" stroke="none" /><path d="M 118.56541770881063 90.18545643968196 l 9.673575732684974 -5.11390219717036 a31.94212333773548,31.94212333773548 0 0,0 0.25278474207465407,0.48829966192083474 l -9.760169907919744 4.9466298129891815" fill="#ff740a" stroke="none" /><path d="M 118.73160827565052 90.50648371742162 l 10.142793352507118 -5.140550262735523 a32.37108235812989,32.37108235812989 0 0,0 0.24762334527114974,0.49919355388529374 l -10.229776710731675 4.96519712035128" fill="#ff7a0b" stroke="none" /><path d="M 118.89224826269711 90.83032412892265 l 10.85448464324212 -5.2684098018468095 a33.06548708965264,33.06548708965264 0 0,0 0.24412061142294467,0.514180266174565 l -10.943563448506822 5.0807871200317045" fill="#ff830c" stroke="none" /><path d="M 119.04729006885535 91.15688171328212 l 27.662251502841638 -12.842801324087178 a51.49815902733212,51.49815902733212 0 0,0 0.36636693520650077,0.8072409779499609 l -27.879220755011485 12.364738337295154" fill="#93ff23" stroke="none" /><path d="M 119.34039704204932 91.81776055985345 l 30.050213006547065 -12.71318461107046 a53.62882720377809,53.62882720377809 0 0,0 0.3523626243737575,0.8532740440737112 l -30.264597317807016 12.194035996543445" fill="#7bff26" stroke="none" /><path d="M 119.7369772167798 92.82701384747503 l 41.28734187821375 -15.005009547014641 a64.92943103290212,64.92943103290212 0 0,0 0.37271632741849026,1.0537192481324986 l -41.53951128644205 14.292092672455528" fill="#35ff61" stroke="none" /><path d="M 119.85752413597 93.16781622104841 l 27.001250620425015 -9.29005576108609 a49.554731151091076,49.554731151091076 0 0,0 0.27057521810459384,0.8089854626689286 l -27.157163132301378 8.823897195494848" fill="#a9ff21" stroke="none" /><path d="M 120.08093135843002 93.85539295169968 l 22.788434649634052 -6.973081759431906 a44.83142091870235,44.83142091870235 0 0,0 0.21944789021646055,0.7398691924199582 l -22.905088436962217 6.5797831802654185" fill="#e1ff1b" stroke="none" /><path d="M 120.37134235888165 94.90015583598534 l 40.27604135825366 -10.082866943765735 a62.51895607186484,62.51895607186484 0 0,0 0.2523598493728011,1.0461944983281024 l -40.443634007887276 9.388087213778228" fill="#31ff44" stroke="none" /><path d="M 120.45610955862082 95.25157060432595 l 14.862384319186571 -3.4499708944552956 a36.25754786405049,36.25754786405049 0 0,0 0.13588916811633603,0.6091644954773376 l -14.919567874304946 3.193628229427994" fill="#ffaf10" stroke="none" /><path d="M 120.6074358757038 95.95851677861258 l 34.72420165805141 -6.81003105983439 a56.385685012797616,56.385685012797616 0 0,0 0.1785930009749014,0.9540509524922671 l -34.836280382936174 6.211302029879561" fill="#5eff2a" stroke="none" /><path d="M 120.87857604477298 97.74499172005257 l 36.53276166589034 -3.9457518496120456 a57.74522598373105,57.74522598373105 0 0,0 0.0982297833461013,0.9891605129214346 l -36.59526857491867 3.316315805986176" fill="#4fff2b" stroke="none" /><path d="M 120.91429891909075 98.10471618934814 l 43.27677432772888 -3.9218034550375753 a64.4541107210022,64.4541107210022 0 0,0 0.09062099471395368,1.105805670072697 l -43.337869806262326 3.1762838677571095" fill="#34ff5b" stroke="none" /><path d="M 120.96714384426684 98.82574320788733 l 33.156464203334544 -1.8569149705076362 a54.20842139690925,54.20842139690925 0 0,0 0.04415764254567819,0.9320980425678125 l -33.18351545411372 1.285905821316824" fill="#75ff27" stroke="none" /><line stroke="#e1ed5e" stroke-width="0.3" x1="184.98032266829074" x2="189.97916517819016" y1="98.17113171792111" y2="98.06355123074" /><path d="M 185.9800911702706 98.14961562048488 a86.0,86.0 0 0,1 -9.607161424134198,41.387399972396054" fill="none" id="id220" stroke="none" /><text fill="#e1ed5e" style="font-size:6.75px; font-family:Arial;" text-anchor="middle"><textPath startOffset="21.466115282336823" xlink:href="#id220">April</textPath></text><path d="M 120.9764740272857 100.99374915477107 l 28.135349174576596 1.3328970076217392 a49.166904118278154,49.166904118278154 0 0,0 -0.04732583560920787,0.845034586500521 l -28.10823698807986 -1.8170033104576835" fill="#aeff20" stroke="none" /><path d="M 120.95626037817324 101.35467743843564 l 22.506076854847706 1.4548623653634163 a43.553051232559696,43.553051232559696 0 0,0 -0.054801023534887465,0.7477164265176296 l -22.47769927264848 -1.842051928377816" fill="#f1ff19" stroke="none" /><path d="M 120.89721153311464 102.0752229133903 l 31.129358575829805 3.091338674221499 a52.282476566623146,52.282476566623146 0 0,0 -0.09664216248292845,0.8947863990007886 l -31.071534111845825 -3.626721395107079" fill="#8aff24" stroke="none" /><path d="M 120.8583938346157 102.4346265915055 l 26.467054694042897 3.089278861443779 a47.646737662633704,47.646737662633704 0 0,0 -0.10209672781570837,0.8138113745577532 l -26.40995645698034 -3.544407990288927" fill="#c0ff1e" stroke="none" /><path d="M 120.32669344350535 105.2749913415812 l 20.659578171645588 5.3613784395892905 a42.343911286426106,42.343911286426106 0 0,0 -0.18916017966632206,0.7039353978524566 l -20.564229915637487 -5.716204770617296" fill="#fffe18" stroke="none" /><path d="M 119.79798401119884 107.00284435728193 l 23.096315363842944 8.169513705446086 a45.49858644023281,45.49858644023281 0 0,0 -0.267522456377396,0.7361069036274318 l -22.952268646460322 -8.565868406079648" fill="#d9ff1c" stroke="none" /><path d="M 119.67450827220406 107.3425965602758 l 21.971616833962536 8.199885656948007 a44.451867112993106,44.451867112993106 0 0,0 -0.2737086047837752,0.7145667975052994 l -21.827213949585254 -8.57687602128645" fill="#e6ff1a" stroke="none" /><path d="M 118.81262510543309 109.33194174019688 l 56.311600445426 27.933186979960418 a83.85904294198832,83.85904294198832 0 0,0 -0.6525883975252437,1.2876188193946205 l -55.82243337811449 -28.898360011057733" fill="#4dd3ff" stroke="none" /><line stroke="#e1ed5e" stroke-width="0.3" x1="174.80103733775053" x2="179.2010983576182" y1="140.37084112569926" y2="142.7455964860345" /><path d="M 175.68104954172406 140.8457921977663 a86.0,86.0 0 0,1 -30.038265399797805,32.042727171017184" fill="none" id="id221" stroke="none" /><text fill="#e1ed5e" style="font-size:6.75px; font-family:Arial;" text-anchor="middle"><textPath startOffset="22.206326154141568" xlink:href="#id221">May</textPath></text><path d="M 117.55443506779139 111.5257021239791 l 32.71324090339899 21.478507779173068 a60.134159334573866,60.134159334573866 0 0,0 -0.5755609183326784,0.8603854797764641 l -32.338676879655594 -22.03843017315534" fill="#37ff2e" stroke="none" /><path d="M 115.56566222782051 114.09645910891815 l 2.9026017835746036 2.6286326114993295 a24.915968145969558,24.915968145969558 0 0,0 -0.29063123312473405,0.3154228031912343 l -2.856924142454148 -2.6782066694918987" fill="#ff0e01" stroke="none" /><path d="M 115.32070863581623 114.36230785411682 l 2.8581199132271053 2.679327637742938 a24.917607181527835,24.917607181527835 0 0,0 -0.29603713081446004,0.3103937481181092 l -2.8115762310336807 -2.728128502443554" fill="#ff0e01" stroke="none" /><path d="M 115.07121518719521 114.62390073753431 l 2.900190678925765 2.8141128689189436 a25.041081193584596,25.041081193584596 0 0,0 -0.30282939656458696,0.306764579907221 l -2.8513206573056427 -2.8636179428068296" fill="#ff1001" stroke="none" /><path d="M 114.29624159901734 115.38237550388516 l 5.35685317139033 5.763831453937377 a28.868775567344166,28.868775567344166 0 0,0 -0.36690900977448326,0.33516268110033476 l -5.256844612148982 -5.855186901624295" fill="#ff4806" stroke="none" /><path d="M 114.0293411484842 115.62618273729858 l 31.500449113183695 35.08587958193363 a68.15185298978422,68.15185298978422 0 0,0 -0.879670519831764,0.7762069562139731 l -30.891836240445343 -35.62290967991989" fill="#39ff87" stroke="none" /><path d="M 113.20401910651253 116.32954008644616 l 4.915204299662586 6.078681422448498 a28.817263021226935,28.817263021226935 0 0,0 -0.3884052561215064,0.3085726259365771 l -4.809841550823728 -6.162387962390201" fill="#ff4706" stroke="none" /><path d="M 112.63410532772338 116.77436683061366 l 4.707232656779828 6.249817085868594 a28.82420941002153,28.82420941002153 0 0,0 -0.3988927843026145,0.2950913456474362 l -4.598954902058649 -6.3299183802557994" fill="#ff4706" stroke="none" /><path d="M 112.04921762599082 117.19931262002967 l 26.900284154392256 38.39804467810642 a67.88320725685162,67.88320725685162 0 0,0 -0.9627879014843421,0.6622142978097303 l -26.235339368285032 -38.85539976528125" fill="#38ff84" stroke="none" /><path d="M 111.1453310114006 117.79835938074945 l 2.078943309440151 3.3199355062466216 a24.91713888565404,24.91713888565404 0 0,0 -0.36547605023604474,0.22450524051451612 l -2.0214880592717974 -3.355229213589516" fill="#ff0e01" stroke="none" /><line stroke="#e1ed5e" stroke-width="0.3" x1="143.8653032363475" x2="146.44561519142675" y1="172.8068346515853" y2="177.08958963109032" /><path d="M 144.38136562736335 173.6633856474863 a86.0,86.0 0 0,1 -40.68145358897372,12.25698825130547" fill="none" id="id222" stroke="none" /><text fill="#e1ed5e" style="font-size:6.75px; font-family:Arial;" text-anchor="middle"><textPath startOffset="21.466115282336833" xlink:href="#id222">June</textPath></text><path d="M 110.8373102113329 117.98757091392108 l 3.6285525383681057 6.022605685913741 a28.031228397065348,28.031228397065348 0 0,0 -0.41543899484325336,0.24544868085773178 l -3.5243456724964703 -6.084172939065223" fill="#ff3c05" stroke="none" /><path d="M 109.2508944713604 118.85261126421891 l 1.772917533154971 3.6130695425794217 a25.024612788689538,25.024612788689538 0 0,0 -0.3883430617158709,0.18642826919261413 l -1.7104618034388672 -3.6430520882715958" fill="#ff0f01" stroke="none" /><path d="M 108.92500713936063 119.00905698771935 l 2.989866666400899 6.368011247481052 a28.03497476405569,28.03497476405569 0 0,0 -0.4385898308497635,0.20133507987035862 l -2.879808839783716 -6.418533397685485" fill="#ff3c05" stroke="none" /><path d="M 107.93186726928326 119.44442032107085 l 2.950903198242721 7.233933721461346 a28.812658111801305,28.812658111801305 0 0,0 -0.4608364096650198,0.183376317985301 l -2.825945712535835 -7.283656883852717" fill="#ff4706" stroke="none" /><path d="M 105.18746579009965 120.34920634021253 l 11.630837856148046 45.62503716092265 a68.08418423602112,68.08418423602112 0 0,0 -1.1381299636663456,0.2797246545047457 l -10.84375460773849 -45.818483073741426" fill="#39ff86" stroke="none" /><path d="M 104.48393922423573 120.51570834832081 l 2.5967153310012057 11.880949256959287 a33.16140969446791,33.16140969446791 0 0,0 -0.558704280997207,0.11708191426293776 l -2.3918195885746205 -11.923887151948767" fill="#ff850c" stroke="none" /><path d="M 104.13013068566511 120.58985236759428 l 3.3104973884104143 16.50375198229353 a37.83250493692872,37.83250493692872 0 0,0 -0.6396078321183607,0.12258236330495434 l -3.025921941720349 -16.55829154394695" fill="#ffc412" stroke="none" /><path d="M 103.7750983002368 120.6578951692458 l 1.2631100215768643 6.911924495137478 a28.026389339702817,28.026389339702817 0 0,0 -0.4753155899647587,0.08263970794467226 l -1.1439454601400556 -6.932642781603157" fill="#ff3c05" stroke="none" /><path d="M 103.41894727170886 120.7198165907248 l 0.7481867113917964 4.534229458270412 a25.595543508155533,25.595543508155533 0 0,0 -0.435324294883857,0.06798870196455782 l -0.6700265528994223 -4.546436467582075" fill="#ff1802" stroke="none" /><path d="M 103.06178313531738 120.77559828337769 l 1.0258302252755478 6.960727042172581 a28.03591135580328,28.03591135580328 0 0,0 -0.4780408703111247,0.06625210870679121 l -0.9058607637775926 -6.977353716371975" fill="#ff3c05" stroke="none" /><path d="M 101.98527174616119 120.90594882070398 l 0.37008484445468387 3.8971867868710524 a24.91471935697278,24.91471935697278 0 0,0 -0.4272941784899309,0.036868739680247016 l -0.3029463482232113 -3.9029797788299625" fill="#ff0e01" stroke="none" /><path d="M 101.62511606390274 120.93702456842531 l 0.7927811847276713 10.213719198718133 a31.244440535096174,31.244440535096174 0 0,0 -0.5365670845516174,0.03700480765572985 l -0.6168513393971236 -10.225852350890149" fill="#ff6a09" stroke="none" /><line stroke="#e1ed5e" stroke-width="0.3" x1="102.19456741930631" x2="102.32365962044197" y1="184.97166512339345" y2="189.96999836594603" /><path d="M 102.22038585953345 185.97133177190398 a86.0,86.0 0 0,1 -42.740103519485714,-10.115201625700543" fill="none" id="id223" stroke="none" /><text fill="#e1ed5e" style="font-size:6.75px; font-family:Arial;" text-anchor="middle"><textPath startOffset="22.20632615414155" xlink:href="#id223">July</textPath></text><path d="M 99.45781275523022 120.99299961872073 l -0.34370547862903095 13.307965193602502 a34.31240290293887,34.31240290293887 0 0,0 -0.5903034692367483,-0.02033124503839777 l 0.5727292995404222 -13.30007715013801" fill="#ff940d" stroke="none" /><path d="M 99.09653310690486 120.98055641714683 l -0.19156902551582178 4.448668543728592 a25.452791315960962,25.452791315960962 0 0,0 -0.4375600646306401,-0.02261685735224672 l 0.2681171585599508 -4.444711879614143" fill="#ff1602" stroke="none" /><path d="M 98.37488393609728 120.93702456842531 l -0.30332686579678864 3.9078821399374086 a24.919636463647603,24.919636463647603 0 0,0 -0.4273785081998932,-0.036876016002463485 l 0.37054969173822355 -3.9020818716562817" fill="#ff0e01" stroke="none" /><path d="M 96.93821686468263 120.77559828337769 l -1.1391361761454393 7.729559717235671 a28.8130483583628,28.8130483583628 0 0,0 -0.49004702541527057,-0.07653526704377012 l 1.2720190651692271 -7.708806142844795" fill="#ff4706" stroke="none" /><path d="M 95.51606077576429 120.51570834832081 l -2.5034904225404992 11.454410239115088 a32.72480184146822,32.72480184146822 0 0,0 -0.54927777448709,-0.12501383317835774 l 2.700288346420452 -11.409619672359044" fill="#ff7f0b" stroke="none" /><path d="M 93.76903079525671 120.05430185196036 l -5.89606258027968 18.976408779707388 a40.87127686197165,40.87127686197165 0 0,0 -0.6700527724978749,-0.21452973818467314 l 6.221836697868495 -18.872106194863008" fill="#ffeb16" stroke="none" /><path d="M 93.08242187328487 119.8279376855182 l -3.9704373029381617 11.380512367888258 a33.05323334762173,33.05323334762173 0 0,0 -0.5355889888636616,-0.19204315606301878 l 4.16574585243155 -11.310481670785283" fill="#ff830c" stroke="none" /><path d="M 92.7421414339146 119.70592522655815 l -10.68539396749647 29.012080164214563 a51.91728383437688,51.91728383437688 0 0,0 -0.8359418915068374,-0.3160816946636042 l 11.183206079763591 -28.823850219444324" fill="#8eff24" stroke="none" /><path d="M 90.42595943632237 118.69057910512821 l -1.3670355274598567 2.6687463350055474 a23.99849847989673,23.99849847989673 0 0,0 -0.36604463756261846,-0.1914972540347917 l 1.4127710675489706 -2.644819662026039" fill="#ff0000" stroke="none" /><line stroke="#e1ed5e" stroke-width="0.3" x1="58.666819895761336" x2="56.23545636021788" y1="174.27360380694188" y2="178.64263932499728" /><path d="M 58.180547188652646 175.14741091055294 a86.0,86.0 0 0,1 -31.652253787137756,-30.449443065178592" fill="none" id="id224" stroke="none" /><text fill="#e1ed5e" style="font-size:6.75px; font-family:Arial;" text-anchor="middle"><textPath startOffset="22.20632615414155" xlink:href="#id224">August</textPath></text><path d="M 89.7882731507175 118.34994917583269 l -5.894025924189428 10.591262158321014 a33.12082405207252,33.12082405207252 0 0,0 -0.4957891372073683,-0.28152201140799604 l 6.0754638283180045 -10.488236981118384" fill="#ff840c" stroke="none" /><path d="M 88.8546689885994 117.79835938074946 l -6.644640498206445 10.61105313265152 a33.519812136544175,33.519812136544175 0 0,0 -0.4863855595225431,-0.31043427662355116 l 6.826307859775912 -10.495104427204163" fill="#ff8a0c" stroke="none" /><path d="M 88.54995079064634 117.60387380957326 l -10.770237025349237 16.558696825386306 a40.7531882524635,40.7531882524635 0 0,0 -0.5847603203562197,-0.3875472543264284 l 11.053672044445419 -16.37085154996856" fill="#ffea16" stroke="none" /><path d="M 88.24862548938628 117.40417183066458 l -21.354770564484756 31.627116978786578 a59.161508804705754,59.161508804705754 0 0,0 -0.8390880044192318,-0.5771323806524591 l 21.89601545352688 -31.25484380876902" fill="#41ff2d" stroke="none" /><path d="M 87.95078237400918 117.19931262002967 l -22.006404392259657 31.41241535623306 a59.353900359522385,59.353900359522385 0 0,0 -0.8317252791136935,-0.5934139029718182 l 22.543856999222236 -31.02895719141702" fill="#3fff2d" stroke="none" /><path d="M 87.36589467227662 116.77436683061367 l -9.206683489602321 12.223761171996864 a36.30305061312071,36.30305061312071 0 0,0 -0.4959191566167259,-0.3802496622160213 l 9.415731374712534 -12.063472167953476" fill="#ffaf10" stroke="none" /><path d="M 87.07902340077011 116.55440617244103 l -7.208519396049217 9.235583476811696 a32.71574812124155,32.71574812124155 0 0,0 -0.4409498750411234,-0.3503172490675042 l 7.3664267638076995 -9.11013231373906" fill="#ff7e0b" stroke="none" /><path d="M 85.97065885151581 115.62618273729859 l -13.976382333149566 15.56719606663379 a41.92072791514181,41.92072791514181 0 0,0 -0.5327933889156549,-0.48669412836512477 l 14.242275271532076 -15.324309171682089" fill="#fff817" stroke="none" /><path d="M 85.44109423537348 115.13401014063109 l -14.013872532473814 14.567447062626885 a41.21383529365124,41.21383529365124 0 0,0 -0.5070283957567129,-0.49623400057932776 l 14.262550880606321 -14.324062959124987" fill="#ffef16" stroke="none" /><path d="M 84.9287848128048 114.62390073753433 l -8.34359360667852 8.095955315007368 a32.625835313473296,32.625835313473296 0 0,0 -0.3876158174524116,-0.40641363493123667 l 8.48171597550989 -7.951134563493631" fill="#ff7d0b" stroke="none" /><path d="M 84.67929136418377 114.36230785411682 l -8.706976412548709 8.162303630212984 a32.9345983929275,32.9345983929275 0 0,0 -0.3841641989316992,-0.41693436458959254 l 8.846187019476137 -8.011218010822047" fill="#ff810b" stroke="none" /><path d="M 83.95833913139862 113.55231037782056 l -8.892648164358855 7.512683941600794 a32.641289077308464,32.641289077308464 0 0,0 -0.35890496269437827,-0.4323241481023284 l 9.02064912694677 -7.358498536384705" fill="#ff7d0b" stroke="none" /><path d="M 83.72743513129214 113.27417163493432 l -18.23204954516083 14.872600408832092 a44.52874568560746,44.52874568560746 0 0,0 -0.4793881808657256,-0.5981104649324772 l 18.485355638081415 -14.556562110321355" fill="#e5ff1a" stroke="none" /><path d="M 83.50135304334701 112.99209946851258 l -13.316986085532719 10.486654347996186 a37.95028134918767,37.95028134918767 0 0,0 -0.3997306437665046,-0.5167057413012455 l 13.495523546517292 -10.255870612581687" fill="#ffc512" stroke="none" /><path d="M 83.28015986056508 112.70617746262583 l -13.309036830045253 10.114150757956558 a37.71605536297886,37.71605536297886 0 0,0 -0.3883653350927901,-0.5202788321128031 l 13.481163431833128 -9.883559046334446" fill="#ffc212" stroke="none" /><path d="M 82.85270091963577 112.12312394758628 l -15.427623706217432 10.90731511304704 a39.893943373365616,39.893943373365616 0 0,0 -0.39160482365289473,-0.5641359557398784 l 15.61308943703246 -10.64013789512015" fill="#ffdf14" stroke="none" /><path d="M 82.6465618267979 111.8261652097733 l -13.813511528052755 9.413746591734688 a37.71621146160346,37.71621146160346 0 0,0 -0.3609924466406911,-0.539634727629484 l 13.973507080104175 -9.174574949899382" fill="#ffc212" stroke="none" /><path d="M 82.24976979558568 111.22182372390057 l -18.465774828329916 11.67419620266248 a42.84654885763062,42.84654885763062 0 0,0 -0.388751553598723,-0.6267912855905512 l 18.663991021596594 -11.354608585706666" fill="#faff18" stroke="none" /><line stroke="#e1ed5e" stroke-width="0.3" x1="26.63291911575756" x2="22.317208475507996" y1="142.92168965132927" y2="145.44649492493687" /><path d="M 25.769776987707644 143.4266507060508 a86.0,86.0 0 0,1 -11.730757126820373,-40.83630448921669" fill="none" id="id225" stroke="none" /><text fill="#e1ed5e" style="font-size:6.75px; font-family:Arial;" text-anchor="middle"><textPath startOffset="21.46611528233685" xlink:href="#id225">September</textPath></text><path d="M 81.87401531095188 110.60418214915194 l -27.73748443588629 16.22716461275193 a53.13547750073714,53.13547750073714 0 0,0 -0.45506236009513557,-0.7934395821463626 l 28.012698792133804 -15.747305184747264" fill="#81ff25" stroke="none" /><path d="M 81.69416730710424 110.29060199501025 l -24.158727077990868 13.580799586470722 a48.7142961562572,48.7142961562572 0 0,0 -0.4046153546007889,-0.7344943970747935 l 24.38891884204317 -13.162934670998105" fill="#b3ff20" stroke="none" /><path d="M 81.51974371655577 109.97397251340807 l -18.86525494503778 10.181760003448073 a42.43749241187241,42.43749241187241 0 0,0 -0.34141466191482256,-0.6458278748681371 l 19.037722115177488 -9.855517113493809" fill="#ffff18" stroke="none" /><path d="M 81.35079622478065 109.6543875284942 l -26.034725784379546 13.477751380167101 a50.31649243912773,50.31649243912773 0 0,0 -0.3915613393376908,-0.7725876699471634 l 26.2628657935035 -13.027609498517254" fill="#a1ff22" stroke="none" /><path d="M 81.18737489456691 109.33194174019688 l -22.577890976430133 11.199689677955364 a46.203059533042115,46.203059533042115 0 0,0 -0.34728583246318867,-0.7155116775399395 l 22.76733006550804 -10.809389044450139" fill="#d1ff1c" stroke="none" /><path d="M 81.02952815118164 109.00673069616217 l -12.12539129962903 5.756848585089302 a34.42260853190482,34.42260853190482 0 0,0 -0.24952356062580297,-0.5374515509299155 l 12.22268947709466 -5.547276966880559" fill="#ff960d" stroke="none" /><path d="M 80.87730276802145 108.67885076344099 l -16.688858051434273 7.574250989992939 a39.327227316763754,39.327227316763754 0 0,0 -0.27446456076529874,-0.6188451279978322 l 16.816763696930852 -7.285857525502411" fill="#ffd714" stroke="none" /><path d="M 80.58989483394504 108.01547362559985 l -58.23031549816486 24.046420876799544 a84.0,84.0 0 0,0 -0.5403895429704488,-1.3412025286287785 l 58.6356076553927 -23.04051898032796" fill="#4dd2ff" stroke="none" /><path d="M 80.45479744820244 107.68017299344265 l -25.476403042712512 10.010803525835335 a48.37267431632519,48.37267431632519 0 0,0 -0.2978506428790947,-0.7775940408783987 l 25.644947965185118 -9.570785918123779" fill="#b7ff1f" stroke="none" /><path d="M 80.32549172779594 107.34259656027581 l -19.856608779031067 7.410557117996153 a42.19436880406154,42.19436880406154 0 0,0 -0.2480943271190288,-0.6826490359579178 l 19.98122736715532 -7.067660285032118" fill="#fffc17" stroke="none" /><path d="M 80.20201598880116 107.00284435728193 l -24.97559604024312 8.834243511927081 a47.491965876345105,47.491965876345105 0 0,0 -0.26597574493283316,-0.7730500152612572 l 25.12396261611918 -8.403020793576527" fill="#c1ff1e" stroke="none" /><path d="M 80.0844068197444 106.66101706037122 l -11.169536460774962 3.7357899535436068 a32.777719275206834,32.777719275206834 0 0,0 -0.17435834462165006,-0.5366198068111842 l 11.232187056412862 -3.542971246754619" fill="#ff7f0b" stroke="none" /><path d="M 79.67330655649465 105.27499134158121 l -34.65373081660562 8.993008652348577 a56.801609798038115,56.801609798038115 0 0,0 -0.23745422238546152,-0.9485115825516334 l 34.803396353286146 -8.395169230399551" fill="#59ff2a" stroke="none" /><path d="M 79.58551787078972 104.9243191809786 l -24.792616182481538 5.980399338141679 a46.50370548401724,46.50370548401724 0 0,0 -0.1810088842093194,-0.7797815357311172 l 24.891885632621413 -5.552749145061988" fill="#cdff1d" stroke="none" /><path d="M 79.50377843672027 104.57218783832718 l -26.371394399672777 5.882790073363128 a48.01957922748525,48.01957922748525 0 0,0 -0.17302131534740706,-0.8082979835412706 l 26.468749753744625 -5.427978270405694" fill="#bbff1f" stroke="none" /><path d="M 79.35854240842038 103.8639653848113 l -23.112682838522048 4.326564926044882 a44.514150464207574,44.514150464207574 0 0,0 -0.1345038672953631,-0.7543691179643757 l 23.1837331481566 -3.928077057347293" fill="#e5ff1a" stroke="none" /><path d="M 79.18660465613746 102.79330883721812 l -16.45078770614503 2.2078152036027383 a37.598278950719916,37.598278950719916 0 0,0 -0.08056503846182833,-0.6421826251891749 l 16.486354253853705 -1.9243148241261547" fill="#ffc111" stroke="none" /><path d="M 79.0095281055655 100.63252640178507 l -15.590609795330058 0.469807080330099 a36.59768676704882,36.59768676704882 0 0,0 -0.013554976835611328,-0.6298465102921085 l 15.596386834850678 -0.2013707542478616" fill="#ffb310" stroke="none" /><line stroke="#e1ed5e" stroke-width="0.3" x1="15.007084014347285" x2="10.007500721073583" y1="101.09737516637583" y2="101.16192664675087" /><path d="M 14.007167355692545 101.11028546245083 a86.0,86.0 0 0,1 10.666146001902534,-42.60595125391555" fill="none" id="id226" stroke="none" /><text fill="#e1ed5e" style="font-size:6.75px; font-family:Arial;" text-anchor="middle"><textPath startOffset="22.20632615414155" xlink:href="#id226">October</textPath></text><path d="M 79.00486145842228 99.54816195383935 l -20.353513632271454 -0.438029585463196 a41.35822652140409,41.35822652140409 0 0,0 0.021443857482747217,-0.7116172329401251 l 20.342958080333062 0.7883169658283155" fill="#fff116" stroke="none" /><path d="M 79.21141760316559 97.0276538004421 l -20.564234800804243 -2.9402690375989535 a41.77337081352161,41.77337081352161 0 0,0 0.10790281799086708,-0.7109447527203285 l 20.510576089374073 3.293812902711374" fill="#fff717" stroke="none" /><path d="M 79.71946130924805 94.55025226153421 l -3.796505024055769 -1.020189600701124 a24.931187761867832,24.931187761867832 0 0,0 0.11493660956394519,-0.41348813760945513 l 3.7783816439254636 1.0853890417295216" fill="#ff0e01" stroke="none" /><path d="M 79.81627453868168 94.20196356495316 l -3.761428136708041 -1.0805189273030829 a24.913548617288296,24.913548617288296 0 0,0 0.12195075618466782,-0.4111573248863578 l 3.7422714834116664 1.14510563893598" fill="#ff0e01" stroke="none" /><path d="M 80.14247586403 93.16781622104843 l -7.483491575651163 -2.5747716282751516 a28.914044168477492,28.914044168477492 0 0,0 0.16597614027805016,-0.46923689915347305 l 7.438062354563303 2.703206153855236" fill="#ff4906" stroke="none" /><path d="M 80.52162464483688 92.15188598940014 l -3.4049065566850634 -1.3718851991020973 a24.67089330535121,24.67089330535121 0 0,0 0.1620975352991861,-0.3925320391881429 l 3.3807873344996775 1.4302918087435514" fill="#ff0a01" stroke="none" /><path d="M 80.65960295795068 91.81776055985345 l -29.605699816307315 -12.525126767741934 a53.146170256522076,53.146170256522076 0 0,0 0.3636951620068963,-0.8394585779064099 l 29.385713944457738 13.032884490234943" fill="#81ff25" stroke="none" /><path d="M 80.95270993114464 91.15688171328213 l -7.593836850993137 -3.525603762037159 a29.372349730296264,29.372349730296264 0 0,0 0.21685438825223216,-0.45675064642319113 l 7.532024268899153 3.6557968241008822" fill="#ff4f07" stroke="none" /><path d="M 81.43458229118936 90.18545643968196 l -3.4581161595989367 -1.8281210914482464 a24.911597384480825,24.911597384480825 0 0,0 0.20367235744979328,-0.3773739458842088 l 3.426135702930672 1.887376020664928" fill="#ff0e01" stroke="none" /><path d="M 81.6062741919709 89.86733742301443 l -21.611036111849323 -11.905001691654705 a45.67318275184531,45.67318275184531 0 0,0 0.3852693010639881,-0.6853510970889825 l 21.402909169492904 12.275236298678474" fill="#d7ff1c" stroke="none" /><line stroke="#e1ed5e" stroke-width="0.3" x1="26.266209847984243" x2="21.928928074336255" y1="57.711370442889674" y2="55.22380399835377" /><path d="M 25.398753493254645 57.213857153982495 a86.0,86.0 0 0,1 29.58750427330803,-30.492523968695096" fill="none" id="id227" stroke="none" /><text fill="#e1ed5e" style="font-size:6.75px; font-family:Arial;" text-anchor="middle"><textPath startOffset="21.46611528233685" xlink:href="#id227">November</textPath></text><path d="M 81.78341655067845 89.55222093294921 l -6.778697126966304 -3.8877943354209794 a28.81445324598418,28.81445324598418 0 0,0 0.2504666512134073,-0.4281286968815854 l 6.710770801282572 4.003902444656457" fill="#ff4706" stroke="none" /><path d="M 82.15384107792192 88.93136811851018 l -6.643907000800503 -4.120716461609918 a28.818043514349924,28.818043514349924 0 0,0 0.2650881303407343,-0.41930576114684354 l 6.571991274213807 4.234469870470977" fill="#ff4706" stroke="none" /><path d="M 82.7489923806493 88.02491185347247 l -28.383498634851627 -19.70290116143284 a55.55180616019683,55.55180616019683 0 0,0 0.5520457567968693,-0.7808295731997875 l 28.04014025825088 20.188557234964417" fill="#67ff28" stroke="none" /><path d="M 82.95767976084542 87.72973835380427 l -3.181761508210486 -2.29082927991463 a24.92065110470749,24.92065110470749 0 0,0 0.2536416600752102,-0.34596693929435895 l 3.1418572356216425 2.34525866288049" fill="#ff0e01" stroke="none" /><path d="M 83.17141714833178 87.43820079747576 l -6.261385662828162 -4.673849849348098 a28.813438604924293,28.813438604924293 0 0,0 0.3001043937034491,-0.3949022042721222 l 6.180005328900604 4.780936829501247" fill="#ff4706" stroke="none" /><path d="M 83.39014120810768 87.1503855733568 l -17.90447717539582 -13.851148952980308 a43.63679814465635,43.63679814465635 0 0,0 0.46472342099985564,-0.590151551267521 l 17.663399673801994 14.157292898200877" fill="#f0ff19" stroke="none" /><path d="M 83.84228863543731 86.58626213691792 l -8.114386625330248 -6.736365853805128 a31.54617917644348,31.54617917644348 0 0,0 0.35044708509036937,-0.4148188120462483 l 7.997228926752754 6.875043615480492" fill="#ff6e0a" stroke="none" /><path d="M 84.07557802195018 86.31012108654704 l -10.666897857045651 -9.170099878438995 a35.06674950630713,35.06674950630713 0 0,0 0.39743674763708264,-0.4543389064378236 l 10.507469245830725 9.352354341079762" fill="#ff9f0e" stroke="none" /><path d="M 84.5562425177563 85.77008943001954 l -2.879525243173359 -2.6532006049349817 a24.915499850095763,24.915499850095763 0 0,0 0.2933297977325657,-0.31290377639241 l 2.833428123470337 2.702373798205442" fill="#ff0e01" stroke="none" /><path d="M 85.05521093208273 85.24692304244772 l -5.561818389425535 -5.49047125056276 a28.815311788419464,28.815311788419464 0 0,0 0.3514976803433266,-0.34998823759833747 l 5.466484908914895 5.585395338811208" fill="#ff4706" stroke="none" /><path d="M 85.31137513191541 84.99185889309783 l -17.57007615925806 -17.952271545181674 a46.11954676888236,46.11954676888236 0 0,0 0.5721387966806751,-0.5503970691018291 l 17.25845411896496 18.252051701045815" fill="#d2ff1c" stroke="none" /><path d="M 85.57189188830299 84.74124197986013 l -9.670605061701886 -10.22735769669062 a35.07549102928459,35.07549102928459 0 0,0 0.4422720712656575,-0.41104368968984667 l 9.493125106641372 10.392305972455114" fill="#ff9f0e" stroke="none" /><path d="M 86.10567301691215 84.25364557470407 l -2.60534768472568 -2.952624340477231 a24.937743904100934,24.937743904100934 0 0,0 0.3243167860937422,-0.2812443210298126 l 2.5541370999851645 2.997033654926724" fill="#ff0e01" stroke="none" /><path d="M 86.37877921826538 84.01681056812374 l -13.990041445978356 -16.415964925164122 a42.56861525653446,42.56861525653446 0 0,0 0.5617890895445691,-0.47048220630427373 l 13.705394819474677 16.65434828886221" fill="#fdff18" stroke="none" /><path d="M 86.93701828274178 83.55741782278169 l -4.860421178977376 -6.117889191075257 a28.81359470354889,28.81359470354889 0 0,0 0.39099697425439206,-0.30517934029679 l 4.754391649563558 6.200646920595268" fill="#ff4706" stroke="none" /><path d="M 87.22198572758235 83.33499621200491 l -14.272578206540594 -18.614204430016844 a44.456237874481836,44.456237874481836 0 0,0 0.6112814131280271,-0.46040448717530086 l 13.950050639654176 18.857125506697997" fill="#e6ff1a" stroke="none" /><path d="M 87.51073957382395 83.11751280151077 l -3.452850011750255 -4.667425782835175 a26.805776144661305,26.805776144661305 0 0,0 0.37330832296563177,-0.2712243726928926 l 3.371996372430842 4.726169390344736" fill="#ff2a04" stroke="none" /><path d="M 88.09926311788651 82.69761687909137 l -13.273981620814071 -19.298932311360932 a44.423223015379435,44.423223015379435 0 0,0 0.6337613845113833,-0.4279185158719533 l 12.939815541896149 19.52456273953155" fill="#e6ff1a" stroke="none" /><path d="M 88.70189139769569 82.29822771554957 l -10.690681753075513 -16.750061503203696 a40.87096466472245,40.87096466472245 0 0,0 0.5962895617781809,-0.37339646888178907 l 10.40077303892509 16.931602313408415" fill="#ffeb16" stroke="none" /><path d="M 89.00827224532344 82.1063720568725 l -17.179383264376654 -27.966621743734464 a53.82168705446851,53.82168705446851 0 0,0 0.7935826653440919,-0.4781246764127734 l 16.695438532814915 28.258193029605856" fill="#79ff26" stroke="none" /><line stroke="#e1ed5e" stroke-width="0.3" x1="56.762969772571076" x2="54.21961505331055" y1="26.818313649435495" y2="22.513508569990535" /><path d="M 56.25429882871897 25.957352633546506 a86.0,86.0 0 0,1 42.265352541879196,-11.944610805530505" fill="none" id="id228" stroke="none" /><text fill="#e1ed5e" style="font-size:6.75px; font-family:Arial;" text-anchor="middle"><textPath startOffset="22.20632615414155" xlink:href="#id228">December</textPath></text><path d="M 89.63071344664047 81.73862282372117 l -6.176697304251228 -10.87779748357828 a33.50911938075924,33.50911938075924 0 0,0 0.5040344575614712,-0.2804946299264322 l 5.988538757617711 10.982507511064897" fill="#ff890c" stroke="none" /><path d="M 90.26544431104013 81.39251694778311 l -9.056920472110434 -17.312191698815784 a40.538162397080214,40.538162397080214 0 0,0 0.6210823144611477,-0.31814248443496906 l 8.757577670060522 17.46552670856326" fill="#ffe715" stroke="none" /><path d="M 94.63758080256005 79.69619591428918 l -9.226164261498234 -34.93315698210943 a57.13097789593921,57.13097789593921 0 0,0 0.9529749398895848,-0.24293453105001314 l 8.62348043292365 35.08679450932831" fill="#56ff2b" stroke="none" /><path d="M 94.98787191387505 79.60689891045804 l -3.394215310735328 -13.810216890329295 a35.221209095346524,35.221209095346524 0 0,0 0.5899993845848887,-0.13963379221565397 l 3.1559922391879054 13.86659659468582" fill="#ffa10e" stroke="none" /><path d="M 96.04723909329186 79.375362276772 l -0.7475497672315925 -3.9005503983480456 a24.97153925632633,24.97153925632633 0 0,0 0.4228571996723939,-0.0772744504049315 l 0.6802974464563053 3.9128403301037133" fill="#ff0f01" stroke="none" /><path d="M 97.11714578562143 79.19881850522333 l -2.6829999607800055 -19.359136808343248 a40.54417219412723,40.54417219412723 0 0,0 0.692118503639803,-0.08985684570650782 l 2.3493667286323445 19.402451977213893" fill="#ffe715" stroke="none" /><path d="M 97.83486435360386 79.11191278185805 l -0.40461204079047064 -3.9034836508323845 a24.924397471697834,24.924397471697834 0 0,0 0.42712687487998535,-0.04056084342297544 l 0.33736003882024895 3.9098700387705403" fill="#ff0e01" stroke="none" /><path d="M 99.63851952072746 79.00311137660856 l -0.22163833296536456 -12.87404343745822 a33.87595114856377,33.87595114856377 0 0,0 0.5831188122378971,-0.00501908771411068 l 3.153698472013262e-15 12.875951148563772" fill="#ff8e0d" stroke="none" /></svg>