<?xml version="1.0" encoding="utf-8" ?>
<svg baseProfile="full" height="200mm" version="1.1" viewBox="0,0,200,200" width="200mm" xmlns="http://www.w3.org/2000/svg" xmlns:ev="http://www.w3.org/2001/xml-events" xmlns:xlink="http://www.w3.org/1999/xlink"><defs /><rect fill="#1a1a1a" height="200" width="200" x="0" y="0" /><text alignment-baseline="middle" fill="#e1ed5e" style="dominant-baseline: central; font-size:9.0px; font-family:Arial;" text-anchor="middle" x="100.0" y="100.0">2026</text><line stroke="#e1ed5e" stroke-width="0.3" x1="100.0" x2="100.0" y1="15.0" y2="10.0" /><path d="M 100.0 14.0 a86.0,86.0 0 0,1 42.46469731375804,11.215312516191453" fill="none" id="id325" stroke="none" /><text fill="#e1ed5e" style="font-size:6.75px; font-family:Arial;" text-anchor="middle"><textPath startOffset="22.20632615414155" xlink:href="#id325">January</textPath></text><path d="M 100.36148047927253 79.00311137660856 l 0.11189036708807108 -6.499243280042748 a27.500206355757324,27.500206355757324 0 0,0 0.47323057636264315,0.012222149621251694 l -0.22374757864558206 6.496354338279136" fill="#ff5207" stroke="none" /><path d="M 100.72285384407766 79.0124445844662 l 1.5501679743723222 -45.00804212646553 a66.03472967395791,66.03472967395791 0 0,0 1.1356689524972452,0.04890429403763164 l -2.3246777592588987 44.974690105903704" fill="#37ff76" stroke="none" /><path d="M 101.08401301168833 79.027996857942 l 0.5763493003674536 -11.150419052077234 a32.16530445410966,32.16530445410966 0 0,0 0.5526886932224302,0.033339691302529055 l -0.7682000424294958 11.1388460913944" fill="#ff910d" stroke="none" /><path d="M 101.44485096284872 79.0497635885617 l 0.32167531770105345 -4.664269275409838 a25.675348423759484,25.675348423759484 0 0,0 0.440649879212527,0.034202911446404395 l -0.40191538627592166 4.65804110177497" fill="#ff3805" stroke="none" /><path d="M 101.80526077348638 79.07773832637324 l 2.5644113562223527 -29.720518066809408 a50.830947014190926,50.830947014190926 0 0,0 0.8710847903149758,0.08271999695180013 l -3.0756212736275725 29.67197252534243" fill="#8dff24" stroke="none" /><path d="M 102.16513564639614 79.11191278185805 l 0.5045699499770342 -4.867824859064515 a25.893905362074985,25.893905362074985 0 0,0 0.44295014201073324,0.04977060956488827 l -0.5882867954974927 4.858418296029026" fill="#ff3b05" stroke="none" /><path d="M 102.52436894288641 79.15227682838746 l 3.3702176650195224 -27.833239315671257 a49.036540048890444,49.036540048890444 0 0,0 0.8370893986886843,0.10867822857639654 l -3.848821792216053 27.771102763930724" fill="#a1ff22" stroke="none" /><path d="M 102.88285421437855 79.19881850522331 l 2.1064105740354373 -15.198766706443731 a36.34403711228928,36.34403711228928 0 0,0 0.6189407165622279,0.0912157725560045 l -2.367720271026321 15.160256449726758" fill="#ffc712" stroke="none" /><path d="M 103.59715602781102 79.31037775812273 l 8.599702723778396 -49.46257525995896 a71.20459379662847,71.20459379662847 0 0,0 1.2057476644746288,0.22034267873762337 l -9.449845509355926 49.3072170998706" fill="#3dffae" stroke="none" /><path d="M 103.95276090670814 79.375362276772 l 0.6909739535091368 -3.605350235863593 a24.670966538620274,24.670966538620274 0 0,0 0.41639139296188526,0.08352419622130812 l -0.7529317559381474 3.592922083565077" fill="#ff2a04" stroke="none" /><path d="M 104.307194497241 79.44645832069477 l 1.9567385369803536 -9.33737891360379 a30.54020286358297,30.54020286358297 0 0,0 0.5135949927191231,0.11225197268964032 l -2.1171762538530046 9.302313442818278" fill="#ff7b0b" stroke="none" /><path d="M 104.66035177308747 79.52364482259891 l 5.506691125612348 -24.194946825994585 a45.81368773611861,45.81368773611861 0 0,0 0.7674366742124789,0.1816274659016013 l -5.92235148678735 24.096573447952114" fill="#c5ff1e" stroke="none" /><path d="M 105.01212808612495 79.60689891045804 l 2.846382432351016 -11.581221326550015 a32.92587859932061,32.92587859932061 0 0,0 0.5492210764560937,0.14000868130604405 l -3.045312397492135 11.530509649075103" fill="#ff9b0e" stroke="none" /><path d="M 105.36241919743992 79.69619591428918 l 2.251304422720245 -8.52414595972441 a29.816429886663066,29.816429886663066 0 0,0 0.49509771606155445,0.13532890822419708 l -2.3977000280055103 8.48413051067392" fill="#ff710a" stroke="none" /><path d="M 105.71112130821622 79.79150937346287 l 7.989092489087514 -28.268967155013712 a50.376182577224675,50.376182577224675 0 0,0 0.8324299118117914,0.24300911798901684 l -8.474512618622732 28.127259708105992" fill="#92ff23" stroke="none" /><path d="M 106.0581310904928 79.89281104454417 l 7.964560457183817 -26.434707283087185 a48.60847645957014,48.60847645957014 0 0,0 0.7990646230519206,0.24827326802950797 l -8.418410452946455 26.293693880175155" fill="#a6ff21" stroke="none" /><path d="M 106.74666289553966 80.11325718540242 l 7.536566916588992 -22.21509660343294 a44.45869472046732,44.45869472046732 0 0,0 0.722597742092982,0.2521001636376444 l -7.917846662745247 22.082075586623088" fill="#d5ff1c" stroke="none" /><path d="M 107.08798089147638 80.2323363322302 l 2.9964377900109676 -8.35676271440885 a29.877731832756595,29.877731832756595 0 0,0 0.4826216525475404,0.17775362764493133 l -3.1398417683310846 8.303945818957594" fill="#ff720a" stroke="none" /><path d="M 107.4271985657038 80.35727306442388 l 0.827716821647751 -2.189064337486049 a23.3403242960094,23.3403242960094 0 0,0 0.37457534391059344,0.14532941406018884 l -0.8652753305580114 2.1744922195353134" fill="#ff1702" stroke="none" /><path d="M 107.76421540070413 80.48803036053334 l 3.143645751751493 -7.900182735766278 a29.502669926029398,29.502669926029398 0 0,0 0.47023902449769595,0.19182230509135334 l -3.279168645837576 7.844899544491346" fill="#ff6d0a" stroke="none" /><path d="M 108.43124777332544 80.76684994638697 l 21.558180479107392 -49.17797829988403 a74.69570462554367,74.69570462554367 0 0,0 1.1731418599632353,0.5263545563010837 l -22.401504457537406 48.799603413066414" fill="#41ffd3" stroke="none" /><path d="M 108.76106565485865 80.91482961587045 l 1.9580768963116981 -4.265489229681988 a25.6934489983809,25.6934489983809 0 0,0 0.40035506376822627,0.18797207061449758 l -2.0312101713795223 4.231152176427487" fill="#ff3805" stroke="none" /><path d="M 109.08828744355905 81.06846463323043 l 1.799667878816072 -3.748833463711765 a25.158432013714723,25.158432013714723 0 0,0 0.38879209835309664,0.1907785941563199 l -1.8639312441796005 3.7172997094206126" fill="#ff3104" stroke="none" /><path d="M 109.41281617654863 81.2277094730956 l 3.992752027052399 -7.962877384183334 a29.907832788342485,29.907832788342485 0 0,0 0.4582157875523019,0.2347159235820343 l -4.129228302193456 7.892968935288799" fill="#ff730a" stroke="none" /><path d="M 109.73455568895987 81.39251694778311 l 3.533385045829546 -6.754021904851312 a28.622441982285153,28.622441982285153 0 0,0 0.4345908288813165,0.23214336995487928 l -3.6491209212391738 6.692199808394679" fill="#ff6109" stroke="none" /><path d="M 110.05341064243156 81.56283822128135 l 1.7882712835014407 -3.279548417031387 a24.735418584716975,24.735418584716975 0 0,0 0.37206299417295174,0.207052653433191 l -1.8444583667464276 3.2482803660380157" fill="#ff2b04" stroke="none" /><path d="M 110.36928655335952 81.73862282372117 l 23.313365156533372 -41.05722724326102 a68.2144988729801,68.2144988729801 0 0,0 1.0160818162242073,0.5885801715002451 l -24.016643705222908 40.64984291437072" fill="#39ff8e" stroke="none" /><line stroke="#e1ed5e" stroke-width="0.3" x1="143.23703022742887" x2="145.7803849466894" y1="26.81831364943548" y2="22.513508569990506" /><path d="M 143.74570117128098 25.957352633546492 a86.0,86.0 0 0,1 28.547481713284135,27.462654790039103" fill="none" id="id326" stroke="none" /><text fill="#e1ed5e" style="font-size:6.75px; font-family:Arial;" text-anchor="middle"><textPath startOffset="19.985693538727396" xlink:href="#id326">February</textPath></text><path d="M 110.99172775467656 82.1063720568725 l 4.512561548581322 -7.346078726014943 a29.621373694402998,29.621373694402998 0 0,0 0.4321629323994826,0.2706203886218524 l -4.6383436333530685 7.267313996070146" fill="#ff6f0a" stroke="none" /><path d="M 111.2981086023043 82.29822771554956 l 15.187749437354721 -23.796025646143157 a49.229746182418495,49.229746182418495 0 0,0 0.7103922097877741,0.4620588540908597 l -15.595108672926775 23.53106786789277" fill="#9fff22" stroke="none" /><path d="M 111.60114157652 82.49532879139004 l 6.427015491504643 -9.697562286381386 a32.633969332359754,32.633969332359754 0 0,0 0.46557066737408864,0.3143553928736619 l -6.592990853285274 9.585494981209054" fill="#ff970d" stroke="none" /><path d="M 111.90073688211348 82.69761687909136 l 2.594443003570692 -3.7720392676364214 a25.578145337947237,25.578145337947237 0 0,0 0.3606139210366567,0.2526330970036778 l -2.6589880641909995 3.7268213278688083" fill="#ff3705" stroke="none" /><path d="M 112.19680574252982 82.90503203632743 l 20.41763635170795 -28.617233617919997 a56.15431601003206,56.15431601003206 0 0,0 0.7820282249563478,0.5681767635313266 l -20.90720989301809 28.261537619571996" fill="#56ff2b" stroke="none" /><path d="M 112.48926042617603 83.11751280151076 l 16.91857848003062 -22.869863775689264 a49.44765310009842,49.44765310009842 0 0,0 0.6799142866797446,0.5120973446257697 l -17.30973892046875 22.575249841557646" fill="#9cff22" stroke="none" /><path d="M 112.77801427241765 83.33499621200491 l 6.262947009374518 -8.168095089746 a31.292826756404963,31.292826756404963 0 0,0 0.42463985155292067,0.33143813966277064 l -6.402619416086869 8.059078560860005" fill="#ff850c" stroke="none" /><path d="M 113.06298171725822 83.55741782278167 l 2.9140082965962923 -3.6679084392025865 a25.68454871583225,25.68454871583225 0 0,0 0.34380187397262896,0.2779972056014809 l -2.9767135691334126 3.617205136336976" fill="#ff3805" stroke="none" /><path d="M 113.34407831869373 83.78471172551755 l 6.0951965852127845 -7.406683875678983 a30.592204514429028,30.592204514429028 0 0,0 0.4037332813799652,0.33811501240812153 l -6.221787403551867 7.300667705877042" fill="#ff7c0b" stroke="none" /><path d="M 113.6212207817346 84.01681056812373 l 17.07380176249361 -20.03446036629665 a47.3228856471634,47.3228856471634 0 0,0 0.6154368350557315,0.5337007587450519 l -17.416132396196105 19.737594614131925" fill="#b4ff20" stroke="none" /><path d="M 113.89432698308785 84.25364557470407 l 21.481013717219003 -24.344299354527124 a53.466580685101114,53.466580685101114 0 0,0 0.6848534635764125,0.6148682015794408 l -21.896878168391407 23.970932144178388" fill="#71ff27" stroke="none" /><path d="M 114.42810811169701 84.74124197986012 l 5.841267595533614 -6.177558975932039 a29.501919902219118,29.501919902219118 0 0,0 0.36598783238725563,0.3520800047847603 l -5.9467386715332875 6.076095884384976" fill="#ff6d0a" stroke="none" /><path d="M 114.94478906791727 85.2469230424477 l 6.714622228176732 -6.62848689419395 a30.435199530143812,30.435199530143812 0 0,0 0.36483939824112105,0.375999070175983 l -6.827725890120963 6.511923628467852" fill="#ff7a0b" stroke="none" /><path d="M 115.4437574822437 85.77008943001954 l 6.342621613364243 -5.844104871574688 a29.624523794406173,29.624523794406173 0 0,0 0.3423132901159156,0.37799088472276465 l -6.442278544096195 5.734061199582374" fill="#ff6f0a" stroke="none" /><path d="M 115.9244219780498 86.31012108654704 l 2.8005122558623117 -2.4075394216029946 a24.693117241817202,24.693117241817202 0 0,0 0.2743162939254392,0.32470396819462005 l -2.8415391632748683 2.358976503779268" fill="#ff2a04" stroke="none" /><path d="M 116.15771136456269 86.58626213691792 l 22.228599898877548 -18.453641445831455 a49.890267151338136,49.890267151338136 0 0,0 0.5428572035615034,0.665478743408132 l -22.54295559451546 18.06827853281522" fill="#97ff23" stroke="none" /><path d="M 116.38621287248628 86.86637796730983 l 36.000404077461376 -28.854482964235736 a67.13686466237024,67.13686466237024 0 0,0 0.714994563021638,0.9079704862027917 l -36.49175272107698 28.230520084079906" fill="#38ff82" stroke="none" /><path d="M 116.60985879189232 87.15038557335679 l 3.953983766855638 -3.0588560378431087 a25.999058700276198,25.999058700276198 0 0,0 0.27079141282266633,0.3563297574620075 l -4.006051119902418 2.990341504500068" fill="#ff3d05" stroke="none" /><path d="M 117.04232023915458 87.72973835380427 l 11.895024453788922 -8.564271782697531 a35.65736531318455,35.65736531318455 0 0,0 0.35434486437639917,0.5011956813543051 l -12.040681937969204 8.358249601011432" fill="#ffbe11" stroke="none" /><path d="M 117.45458315368197 88.32363383020206 l 8.911180062810358 -5.9611965809924135 a31.721240356836724,31.721240356836724 0 0,0 0.29969527701982784,0.45645646781230764 l -9.01247197518811 5.806922049202432" fill="#ff8b0c" stroke="none" /><line stroke="#e1ed5e" stroke-width="0.3" x1="172.23445277983987" x2="176.4835382374775" y1="55.19839476539836" y2="52.563006222186495" /><path d="M 173.08426987136738 54.67131705675599 a86.0,86.0 0 0,1 12.851231095245387,41.99856678651699" fill="none" id="id327" stroke="none" /><text fill="#e1ed5e" style="font-size:6.75px; font-family:Arial;" text-anchor="middle"><textPath startOffset="22.20632615414155" xlink:href="#id327">March</textPath></text><path d="M 117.84615892207809 88.93136811851018 l 26.285379661461597 -16.302846601796325 a51.93063192482302,51.93063192482302 0 0,0 0.4646164439851099,0.7637072712431675 l -26.56211190373293 15.847971557346074" fill="#81ff25" stroke="none" /><path d="M 118.03404312379186 89.2402003453031 l 4.119449731239316 -2.457821215767965 a25.7969522841995,25.7969522841995 0 0,0 0.22423733655386716,0.3832942957711643 l -4.16114674226351 2.3865475076429052" fill="#ff3a05" stroke="none" /><path d="M 118.21658344932153 89.55222093294921 l 13.181374393628449 -7.5599295470435655 a36.1954323946792,36.1954323946792 0 0,0 0.3053211556587502,0.543132267266846 l -13.309553190579631 7.331913769841925" fill="#ffc512" stroke="none" /><path d="M 118.3937258080291 89.86733742301442 l 23.131063495998937 -12.742348336489624 a47.40858836788469,47.40858836788469 0 0,0 0.38760336429769054,0.718170167294653 l -23.346974959515094 12.342297185862511" fill="#b3ff20" stroke="none" /><path d="M 118.56541770881063 90.18545643968196 l 22.426940897862004 -11.85592437612038 a46.36790533032794,46.36790533032794 0 0,0 0.3669480223821554,0.7088267820326298 l -22.627698353404277 11.468124871827404" fill="#bfff1e" stroke="none" /><path d="M 118.89224826269711 90.83032412892265 l 52.34618913751961 -25.40711834837166 a79.18629718403758,79.18629718403758 0 0,0 0.5846279303998402,1.2313755201328378 l -52.77577526176121 24.502300412598284" fill="#47ffff" stroke="none" /><path d="M 119.04729006885535 91.15688171328212 l 43.47704655931584 -20.185163563494545 a68.93427172291183,68.93427172291183 0 0,0 0.49041049891533783,1.0805545279849291 l -43.81805937519452 19.433787026667552" fill="#3aff96" stroke="none" /><path d="M 119.196687751892 91.48605970444005 l 4.287396372410562 -1.9015070313109692 a25.69014889361567,25.69014889361567 0 0,0 0.1758053838827309,0.4057830649385647 l -4.319492466135974 1.8274248217858018" fill="#ff3805" stroke="none" /><path d="M 119.34039704204932 91.81776055985345 l 19.22998442901124 -8.135527760178153 a41.88011286072573,41.88011286072573 0 0,0 0.2751689202637431,0.6663433666216252 l -19.367175036161182 7.803309823103225" fill="#f3ff19" stroke="none" /><path d="M 119.47837535516314 92.15188598940014 l 9.983772725118023 -4.022603793897738 a31.763691704498555,31.763691704498555 0 0,0 0.1999697582335159,0.508901222960098 l -10.051536033233239 3.8501535660418553" fill="#ff8b0c" stroke="none" /><path d="M 119.61058180528143 92.48833698450437 l 12.782069390187221 -4.89606064996552 a34.68768452966761,34.68768452966761 0 0,0 0.20877924571681641,0.5594245800106644 l -12.864453224405663 4.6753129329255225" fill="#ffb210" stroke="none" /><path d="M 119.85752413597 93.16781622104841 l 3.0426002468502302 -1.0468376576065432 a24.21765214768723,24.21765214768723 0 0,0 0.1322315016070344,0.39535535906182717 l -3.0601690422290346 0.9943091956224019" fill="#ff2403" stroke="none" /><path d="M 119.97218684219823 93.5106431181261 l 10.10962373322112 -3.2848158724271874 a31.629887456744655,31.629887456744655 0 0,0 0.16378937190237053,0.5192570684125625 l -10.164668588891697 3.1103086375882056" fill="#ff8a0c" stroke="none" /><path d="M 120.28053869075195 94.5502522615342 l 38.72155802914731 -10.405183339407316 a61.0952228642179,61.0952228642179 0 0,0 0.26417477815582563,1.017973183908545 l -38.894929139173435 9.737113729949922" fill="#31ff3c" stroke="none" /><path d="M 120.37134235888165 94.90015583598534 l 10.641793547838558 -2.664109598841999 a31.97019826026223,31.97019826026223 0 0,0 0.12904877055375483,0.5349904674015671 l -10.686075118653132 2.4805338997810256" fill="#ff8e0d" stroke="none" /><path d="M 120.45610955862082 95.25157060432595 l 1.341671149643885 -0.3114390206036007 a22.377343725197626,22.377343725197626 0 0,0 0.08386774072179938,0.37596263684446934 l -1.3468332773677218 0.28829821420916746" fill="#ff0901" stroke="none" /><path d="M 120.6074358757038 95.95851677861258 l 45.73062767255595 -8.968586172336614 a67.60177942156895,67.60177942156895 0 0,0 0.21411825812528715,1.1438282967154114 l -45.87823165459109 8.18007979815864" fill="#39ff87" stroke="none" /><path d="M 120.67395015179393 96.31383870115 l 3.472054033477173 -0.6190665601759229 a24.526811962284516,24.526811962284516 0 0,0 0.07052992939266133,0.41627163574587206 l -3.4821958243900575 0.559209136114213" fill="#ff2803" stroke="none" /><path d="M 120.73433829027371 96.67025291283417 l 29.92593186943705 -4.805833833613298 a51.309362201974665,51.309362201974665 0 0,0 0.13253478623073678,0.8732386473134236 l -30.004222549107087 4.289996073907792" fill="#88ff25" stroke="none" /><path d="M 120.78858239683441 97.02765380044208 l 10.2361774605931 -1.4635660379433715 a31.340278262801995,31.340278262801995 0 0,0 0.07176028426267843,0.5346974693405457 l -10.259853743913613 1.2871502265381616" fill="#ff860c" stroke="none" /><path d="M 120.83666639777658 97.38593545837742 l 16.9901618176378 -2.1315012063856815 a38.123343598209466,38.123343598209466 0 0,0 0.07608266059637368,0.6518297730919166 l -17.024334831237766 1.8387276949689122" fill="#ffdd14" stroke="none" /><path d="M 120.91429891909075 98.10471618934814 l 37.017442609756785 -3.35457382346033 a58.16912997238007,58.16912997238007 0 0,0 0.08178445658121052,0.9979775227229041 l -37.06970155015749 2.716882383529657" fill="#41ff2d" stroke="none" /><path d="M 120.94382443527127 98.46500227214037 l 36.80370653554337 -2.697387293494093 a57.902421505444615,57.902421505444615 0 0,0 0.06429763090096142,0.9946558912328222 l -36.844684757448746 2.0634723380082356" fill="#44ff2d" stroke="none" /><path d="M 120.96714384426684 98.82574320788733 l 7.667229003148917 -0.42940019873487334 a28.679243785517002,28.679243785517002 0 0,0 0.023361827607719782,0.4931312572095974 l -7.673484438990134 0.2973578349022762" fill="#ff6209" stroke="none" /><path d="M 120.98425023603335 99.18683210126433 l 31.247839621376894 -1.2108957813184849 a52.27129273945205,52.27129273945205 0 0,0 0.027102181264075036,0.8993894523548059 l -31.264053497096615 0.6728361815386799" fill="#7eff26" stroke="none" /><line stroke="#e1ed5e" stroke-width="0.3" x1="184.98032266829074" x2="189.97916517819016" y1="98.17113171792111" y2="98.06355123074" /><path d="M 185.9800911702706 98.14961562048488 a86.0,86.0 0 0,1 -9.607161424134198,41.387399972396054" fill="none" id="id328" stroke="none" /><text fill="#e1ed5e" style="font-size:6.75px; font-family:Arial;" text-anchor="middle"><textPath startOffset="21.466115282336823" xlink:href="#id328">April</textPath></text><path d="M 120.99513854157772 99.54816195383933 l 17.545494441068634 -0.37759798114576115 a38.549557128797744,38.549557128797744 0 0,0 0.008567167082634133,0.6635365318993903 l -17.549394615268984 0.07552519118590806" fill="#ffe215" stroke="none" /><path d="M 120.99980553446 99.90962569577887 l 37.56134460349938 -0.16164818186439675 a58.56169243468047,58.56169243468047 0 0,0 -0.004338313507234442,1.0080712740708557 l -37.558561992702636 -0.4849325704101437" fill="#3eff2e" stroke="none" /><path d="M 120.9904718944345 100.63252640178507 l 50.0983502387271 1.5096625445696767 a71.12109114575065,71.12109114575065 0 0,0 -0.04740683739693745,1.2233598256683733 l -50.06494126847896 -2.3717996172520563" fill="#3dffae" stroke="none" /><path d="M 120.9764740272857 100.99374915477107 l 34.59005516833912 1.6386852262352956 a55.62884932855011,55.62884932855011 0 0,0 -0.053545811469419675,0.9560964338280443 l -34.55672300598217 -2.233853376398763" fill="#5bff2a" stroke="none" /><path d="M 120.92983693683757 101.71520430193887 l 48.31826181354334 3.959691170786561 a69.4802390552081,69.4802390552081 0 0,0 -0.10794384999721342,1.1911513899033048 l -48.24294336726905 -4.790823949238437" fill="#3bff9c" stroke="none" /><path d="M 120.89721153311464 102.0752229133903 l 16.138334179251416 1.6026368312184438 a37.21771484809042,37.21771484809042 0 0,0 -0.06879552541871421,0.6369611241641289 l -16.10835635233165 -1.8801942772673643" fill="#ffd213" stroke="none" /><path d="M 120.8583938346157 102.4346265915055 l 39.32081054322428 4.589590728180235 a60.58775675418267,60.58775675418267 0 0,0 -0.12982655295510973,1.0348453645371094 l -39.23598248102232 -5.265753847004739" fill="#30ff36" stroke="none" /><path d="M 120.81339534386255 102.79330883721812 l 0.7412281838109606 0.09947820631989443 a21.747873742023557,21.747873742023557 0 0,0 -0.052988123732465364,0.3705988139705471 l -0.7394060090618939 -0.11222249227085086" fill="#ff0000" stroke="none" /><path d="M 120.76222939487914 103.15116336523771 l 62.28668818463745 9.453490095713112 a84.0,84.0 0 0,0 -0.2292729825548463,1.4276830812271801 l -62.114733447721314 -10.524252406633499" fill="#4dd2ff" stroke="none" /><path d="M 120.70491114924044 103.5080841355445 l 32.957842115468054 5.584128433765113 a54.42756119241881,54.42756119241881 0 0,0 -0.16445820916478485,0.9223689748429623 l -32.856837463964084 -6.150616159341294" fill="#67ff28" stroke="none" /><path d="M 120.64145759157962 103.86396538481128 l 4.812659473989636 0.900902929644172 a25.89625543668053,25.89625543668053 0 0,0 -0.08579067744805652,0.43744481602402474 l -4.796438863565915 -0.9836114727361416" fill="#ff3b05" stroke="none" /><path d="M 120.5718875245553 104.21870165774334 l 37.40469946381556 7.670626598897914 a59.18311216229086,59.18311216229086 0 0,0 -0.2132450987161353,0.9962101082529843 l -37.267120326374986 -8.313350526567067" fill="#37ff2e" stroke="none" /><path d="M 120.49622156327973 104.57218783832717 l 4.751174989320285 1.0598667874889198 a25.86795453823931,25.86795453823931 0 0,0 -0.10068723640427947,0.43375797919983294 l -4.732227186985453 -1.1414934240373176" fill="#ff3b05" stroke="none" /><path d="M 120.41448212921028 104.9243191809786 l 27.56582123586124 6.64934341180027 a49.35645020476841,49.35645020476841 0 0,0 -0.20633037593037584,0.8241872872848084 l -27.447279545635805 -7.1228585384824745" fill="#9dff22" stroke="none" /><path d="M 120.32669344350535 105.2749913415812 l 9.566384407480768 2.4825776538594866 a30.8832637544049,30.8832637544049 0 0,0 -0.1379627800783329,0.5134108280854147 l -9.522233551060658 -2.6468794151204493" fill="#ff800b" stroke="none" /><path d="M 120.23288151984713 105.62410040840565 l 38.83049285348946 10.793647484253796 a61.30272945172863,61.30272945172863 0 0,0 -0.29135541801247083,1.0142464323413432 l -38.63894479859089 -11.460451392099722" fill="#31ff3f" stroke="none" /><path d="M 120.13307415673323 105.97154293290107 l 21.517666426075845 6.382218029837389 a43.444212514683,43.444212514683 0 0,0 -0.21882069398130868,0.7151186888115372 l -21.404618959588404 -6.751663691200983" fill="#e0ff1b" stroke="none" /><path d="M 120.02730092923936 106.31721596034902 l 3.8449823689476506 1.2128236388016966 a25.031727991364804,25.031727991364804 0 0,0 -0.13315418986137922,0.4098064580422778 l -3.823535928070024 -1.2788289968217696" fill="#ff2f04" stroke="none" /><path d="M 119.9155931802556 106.66101706037122 l 37.27255203936265 12.466267149095403 a60.30204768405346,60.30204768405346 0 0,0 -0.33771779621634296,0.9815659980009576 l -37.05244341220308 -13.10600585018566" fill="#30ff33" stroke="none" /><path d="M 119.79798401119884 107.00284435728193 l 11.856587676943889 4.193853175310104 a33.576449252357214,33.576449252357214 0 0,0 -0.19742270877406234,0.5432225048666764 l -11.7826407071646 -4.397323477182912" fill="#ffa30f" stroke="none" /><path d="M 119.67450827220406 107.3425965602758 l 41.543012473070746 15.504000215304584 a65.34180767643417,65.34180767643417 0 0,0 -0.40233664353637383,1.0503740177183498 l -41.269981549940866 -16.216797799856078" fill="#36ff6e" stroke="none" /><path d="M 119.41010516605496 108.01547362559984 l 55.16748852850363 22.78161532396667 a80.68629480300962,80.68629480300962 0 0,0 -0.5411707359158099,1.2791677604538927 l -54.76716681139552 -23.727857610086726" fill="#49f0ff" stroke="none" /><line stroke="#e1ed5e" stroke-width="0.3" x1="174.80103733775053" x2="179.2010983576182" y1="140.37084112569926" y2="142.7455964860345" /><path d="M 175.68104954172406 140.8457921977663 a86.0,86.0 0 0,1 -30.038265399797805,32.042727171017184" fill="none" id="id329" stroke="none" /><text fill="#e1ed5e" style="font-size:6.75px; font-family:Arial;" text-anchor="middle"><textPath startOffset="22.206326154141568" xlink:href="#id329">May</textPath></text><line stroke="#e1ed5e" stroke-width="0.3" x1="143.8653032363475" x2="146.44561519142675" y1="172.8068346515853" y2="177.08958963109032" /><path d="M 144.38136562736335 173.6633856474863 a86.0,86.0 0 0,1 -40.68145358897372,12.25698825130547" fill="none" id="id330" stroke="none" /><text fill="#e1ed5e" style="font-size:6.75px; font-family:Arial;" text-anchor="middle"><textPath startOffset="21.466115282336833" xlink:href="#id330">June</textPath></text><line stroke="#e1ed5e" stroke-width="0.3" x1="102.19456741930631" x2="102.32365962044197" y1="184.97166512339345" y2="189.96999836594603" /><path d="M 102.22038585953345 185.97133177190398 a86.0,86.0 0 0,1 -42.740103519485714,-10.115201625700543" fill="none" id="id331" stroke="none" /><text fill="#e1ed5e" style="font-size:6.75px; font-family:Arial;" text-anchor="middle"><textPath startOffset="22.20632615414155" xlink:href="#id331">July</textPath></text><line stroke="#e1ed5e" stroke-width="0.3" x1="58.666819895761336" x2="56.23545636021788" y1="174.27360380694188" y2="178.64263932499728" /><path d="M 58.180547188652646 175.14741091055294 a86.0,86.0 0 0,1 -31.652253787137756,-30.449443065178592" fill="none" id="id332" stroke="none" /><text fill="#e1ed5e" style="font-size:6.75px; font-family:Arial;" text-anchor="middle"><textPath startOffset="22.20632615414155" xlink:href="#id332">August</textPath></text><line stroke="#e1ed5e" stroke-width="0.3" x1="26.63291911575756" x2="22.317208475507996" y1="142.92168965132927" y2="145.44649492493687" /><path d="M 25.769776987707644 143.4266507060508 a86.0,86.0 0 0,1 -11.730757126820373,-40.83630448921669" fill="none" id="id333" stroke="none" /><text fill="#e1ed5e" style="font-size:6.75px; font-family:Arial;" text-anchor="middle"><textPath startOffset="21.46611528233685" xlink:href="#id333">September</textPath></text><line stroke="#e1ed5e" stroke-width="0.3" x1="15.007084014347285" x2="10.007500721073583" y1="101.09737516637583" y2="101.16192664675087" /><path d="M 14.007167355692545 101.11028546245083 a86.0,86.0 0 0,1 10.666146001902534,-42.60595125391555" fill="none" id="id334" stroke="none" /><text fill="#e1ed5e" style="font-size:6.75px; font-family:Arial;" text-anchor="middle"><textPath startOffset="22.20632615414155" xlink:href="#id334">October</textPath></text><line stroke="#e1ed5e" stroke-width="0.3" x1="26.266209847984243" x2="21.928928074336255" y1="57.711370442889674" y2="55.22380399835377" /><path d="M 25.398753493254645 57.213857153982495 a86.0,86.0 0 0,1 29.58750427330803,-30.492523968695096" fill="none" id="id335" stroke="none" /><text fill="#e1ed5e" style="font-size:6.75px; font-family:Arial;" text-anchor="middle"><textPath startOffset="21.46611528233685" xlink:href="#id335">November</textPath></text><line stroke="#e1ed5e" stroke-width="0.3" x1="56.762969772571076" x2="54.21961505331055" y1="26.818313649435495" y2="22.513508569990535" /><path d="M 56.25429882871897 25.957352633546506 a86.0,86.0 0 0,1 42.265352541879196,-11.944610805530505" fill="none" id="id336" stroke="none" /><text fill="#e1ed5e" style="font-size:6.75px; font-family:Arial;" text-anchor="middle"><textPath startOffset="22.20632615414155" xlink:href="#id336">December</textPath></text></svg>