<?xml version="1.0" encoding="utf-8" ?>
<svg baseProfile="full" height="200mm" version="1.1" viewBox="0,0,200,200" width="200mm" xmlns="http://www.w3.org/2000/svg" xmlns:ev="http://www.w3.org/2001/xml-events" xmlns:xlink="http://www.w3.org/1999/xlink"><defs /><rect fill="#1a1a1a" height="200" width="200" x="0" y="0" /><text alignment-baseline="middle" fill="#e1ed5e" style="dominant-baseline: central; font-size:9.0px; font-family:Arial;" text-anchor="middle" x="100.0" y="100.0">2026</text><line stroke="#e1ed5e" stroke-width="0.3" x1="100.0" x2="100.0" y1="15.0" y2="10.0" /><path d="M 100.0 14.0 a86.0,86.0 0 0,1 42.46469731375804,11.215312516191453" fill="none" id="id325" stroke="none" /><text fill="#e1ed5e" style="font-size:6.75px; font-family:Arial;" text-anchor="middle"><textPath startOffset="22.20632615414155" xlink:href="#id325">January</textPath></text><path d="M 100.36148047927253 79.00311137660856 l 0.14040733314372256 -8.155674524552976 a29.15688305479752,29.15688305479752 0 0,0 0.5017390922258058,0.012958440477682725 l -0.28077306056439616 8.152049291932935" fill="#ff3605" stroke="none" /><path d="M 100.72285384407766 79.0124445844662 l 1.9452519182022503 -56.47902790436977 a77.51251718024821,77.51251718024821 0 0,0 1.333064580201242,0.057404564999298656 l -2.917157330792824 56.43717561284628" fill="#44ffeb" stroke="none" /><path d="M 101.08401301168833 79.027996857942 l 0.7232407072196648 -13.992273359017615 a35.01095253271717,35.01095253271717 0 0,0 0.6015847800037745,0.036289236786600725 l -0.9639875360630512 13.97775085285071" fill="#ff8b0c" stroke="none" /><path d="M 101.44485096284872 79.0497635885617 l 0.4036591770318698 -5.853029416813117 a26.866932255044517,26.866932255044517 0 0,0 0.46110028411692394,0.03579025645881695 l -0.5043496505111349 5.845213898165835" fill="#ff1302" stroke="none" /><path d="M 101.80526077348638 79.07773832637324 l 3.2179906901837696 -37.29524524775131 a58.43381869609386,58.43381869609386 0 0,0 1.0013744322327853,0.09509256837322888 l -3.859490249506799 37.2343271348629" fill="#50ff2b" stroke="none" /><path d="M 102.16513564639614 79.11191278185805 l 0.6331672949555446 -6.1084642445938755 a27.141191761448518,27.141191761448518 0 0,0 0.4642866565304684,0.052168015577259697 l -0.7382206549957382 6.096660275546014" fill="#ff1802" stroke="none" /><path d="M 102.52436894288641 79.15227682838746 l 4.22916902298468 -34.92696473136382 a56.18207975618987,56.18207975618987 0 0,0 0.9590689578281699,0.12451467618948983 l -4.829752709320696 34.84899173201019" fill="#68ff28" stroke="none" /><path d="M 102.88285421437855 79.19881850522331 l 2.6432614254742637 -19.072404138647933 a40.254698922375155,40.254698922375155 0 0,0 0.6855394770545961,0.10103069864993666 l -2.9711698829575157 19.024078955837027" fill="#ffd413" stroke="none" /><path d="M 103.59715602781102 79.31037775812273 l 10.791468083433088 -62.06886672563182 a84.0,84.0 0 0,0 1.4224195155883965,0.2599380745970459 l -11.858282720124386 61.87391316968404" fill="#4dd2ff" stroke="none" /><path d="M 103.95276090670814 79.375362276772 l 0.8670792009076864 -4.524228714597426 a25.606568332569765,25.606568332569765 0 0,0 0.4321822835875289,0.08669170032782601 l -0.9448278939623407 4.508633058192391" fill="#ff0000" stroke="none" /><path d="M 104.307194497241 79.44645832069477 l 2.455443187711657 -11.717152297655748 a32.97166902376352,32.97166902376352 0 0,0 0.5544849910735158,0.12118894256595471 l -2.6567709029387006 11.673149856993922" fill="#ff6e0a" stroke="none" /><path d="M 104.66035177308747 79.52364482259891 l 6.910155320027224 -30.36139792729532 a52.137834392367,52.137834392367 0 0,0 0.8733740548716857,0.20669942120414106 l -7.431753061861433 30.23795259395031" fill="#96ff23" stroke="none" /><path d="M 105.01212808612495 79.60689891045804 l 3.5718263943041118 -14.532872161623764 a35.965370595382744,35.965370595382744 0 0,0 0.5999214111767401,0.15293332551638003 l -3.8214566941658767 14.469235839938516" fill="#ff990e" stroke="none" /><path d="M 105.36241919743992 79.69619591428918 l 2.8250836807069293 -10.69665452603865 a32.063431468238946,32.063431468238946 0 0,0 0.5324088681764673,0.1455274555341393 l -3.0087904381071073 10.646440529678216" fill="#ff6109" stroke="none" /><path d="M 105.71112130821622 79.79150937346287 l 10.02523452039789 -35.47374445414724 a57.863150608529374,57.863150608529374 0 0,0 0.9561466330715391,0.2791254214606078 l -10.634371371192856 35.295920703767926" fill="#56ff2b" stroke="none" /><path d="M 106.0581310904928 79.89281104454417 l 9.99445012612127 -33.17199548672244 a55.644917634404315,55.644917634404315 0 0,0 0.9147352143668414,0.2842126838066409 l -10.56397071319883 32.99504266803328" fill="#6eff28" stroke="none" /><path d="M 106.74666289553966 80.11325718540242 l 7.8091652065143045 -23.018618606440942 a45.30719777702528,45.30719777702528 0 0,0 0.7363886641315796,0.2569115455450585 l -8.204235874709157 22.880786207723677" fill="#e9ff1a" stroke="none" /><line stroke="#e1ed5e" stroke-width="0.3" x1="143.23703022742887" x2="145.7803849466894" y1="26.81831364943548" y2="22.513508569990506" /><path d="M 143.74570117128098 25.957352633546492 a86.0,86.0 0 0,1 28.547481713284135,27.462654790039103" fill="none" id="id326" stroke="none" /><text fill="#e1ed5e" style="font-size:6.75px; font-family:Arial;" text-anchor="middle"><textPath startOffset="19.985693538727396" xlink:href="#id326">February</textPath></text><line stroke="#e1ed5e" stroke-width="0.3" x1="172.23445277983987" x2="176.4835382374775" y1="55.19839476539836" y2="52.563006222186495" /><path d="M 173.08426987136738 54.67131705675599 a86.0,86.0 0 0,1 12.851231095245387,41.99856678651699" fill="none" id="id327" stroke="none" /><text fill="#e1ed5e" style="font-size:6.75px; font-family:Arial;" text-anchor="middle"><textPath startOffset="22.20632615414155" xlink:href="#id327">March</textPath></text><line stroke="#e1ed5e" stroke-width="0.3" x1="184.98032266829074" x2="189.97916517819016" y1="98.17113171792111" y2="98.06355123074" /><path d="M 185.9800911702706 98.14961562048488 a86.0,86.0 0 0,1 -9.607161424134198,41.387399972396054" fill="none" id="id328" stroke="none" /><text fill="#e1ed5e" style="font-size:6.75px; font-family:Arial;" text-anchor="middle"><textPath startOffset="21.466115282336823" xlink:href="#id328">April</textPath></text><line stroke="#e1ed5e" stroke-width="0.3" x1="174.80103733775053" x2="179.2010983576182" y1="140.37084112569926" y2="142.7455964860345" /><path d="M 175.68104954172406 140.8457921977663 a86.0,86.0 0 0,1 -30.038265399797805,32.042727171017184" fill="none" id="id329" stroke="none" /><text fill="#e1ed5e" style="font-size:6.75px; font-family:Arial;" text-anchor="middle"><textPath startOffset="22.206326154141568" xlink:href="#id329">May</textPath></text><line stroke="#e1ed5e" stroke-width="0.3" x1="143.8653032363475" x2="146.44561519142675" y1="172.8068346515853" y2="177.08958963109032" /><path d="M 144.38136562736335 173.6633856474863 a86.0,86.0 0 0,1 -40.68145358897372,12.25698825130547" fill="none" id="id330" stroke="none" /><text fill="#e1ed5e" style="font-size:6.75px; font-family:Arial;" text-anchor="middle"><textPath startOffset="21.466115282336833" xlink:href="#id330">June</textPath></text><line stroke="#e1ed5e" stroke-width="0.3" x1="102.19456741930631" x2="102.32365962044197" y1="184.97166512339345" y2="189.96999836594603" /><path d="M 102.22038585953345 185.97133177190398 a86.0,86.0 0 0,1 -42.740103519485714,-10.115201625700543" fill="none" id="id331" stroke="none" /><text fill="#e1ed5e" style="font-size:6.75px; font-family:Arial;" text-anchor="middle"><textPath startOffset="22.20632615414155" xlink:href="#id331">July</textPath></text><line stroke="#e1ed5e" stroke-width="0.3" x1="58.666819895761336" x2="56.23545636021788" y1="174.27360380694188" y2="178.64263932499728" /><path d="M 58.180547188652646 175.14741091055294 a86.0,86.0 0 0,1 -31.652253787137756,-30.449443065178592" fill="none" id="id332" stroke="none" /><text fill="#e1ed5e" style="font-size:6.75px; font-family:Arial;" text-anchor="middle"><textPath startOffset="22.20632615414155" xlink:href="#id332">August</textPath></text><line stroke="#e1ed5e" stroke-width="0.3" x1="26.63291911575756" x2="22.317208475507996" y1="142.92168965132927" y2="145.44649492493687" /><path d="M 25.769776987707644 143.4266507060508 a86.0,86.0 0 0,1 -11.730757126820373,-40.83630448921669" fill="none" id="id333" stroke="none" /><text fill="#e1ed5e" style="font-size:6.75px; font-family:Arial;" text-anchor="middle"><textPath startOffset="21.46611528233685" xlink:href="#id333">September</textPath></text><line stroke="#e1ed5e" stroke-width="0.3" x1="15.007084014347285" x2="10.007500721073583" y1="101.09737516637583" y2="101.16192664675087" /><path d="M 14.007167355692545 101.11028546245083 a86.0,86.0 0 0,1 10.666146001902534,-42.60595125391555" fill="none" id="id334" stroke="none" /><text fill="#e1ed5e" style="font-size:6.75px; font-family:Arial;" text-anchor="middle"><textPath startOffset="22.20632615414155" xlink:href="#id334">October</textPath></text><line stroke="#e1ed5e" stroke-width="0.3" x1="26.266209847984243" x2="21.928928074336255" y1="57.711370442889674" y2="55.22380399835377" /><path d="M 25.398753493254645 57.213857153982495 a86.0,86.0 0 0,1 29.58750427330803,-30.492523968695096" fill="none" id="id335" stroke="none" /><text fill="#e1ed5e" style="font-size:6.75px; font-family:Arial;" text-anchor="middle"><textPath startOffset="21.46611528233685" xlink:href="#id335">November</textPath></text><line stroke="#e1ed5e" stroke-width="0.3" x1="56.762969772571076" x2="54.21961505331055" y1="26.818313649435495" y2="22.513508569990535" /><path d="M 56.25429882871897 25.957352633546506 a86.0,86.0 0 0,1 42.265352541879196,-11.944610805530505" fill="none" id="id336" stroke="none" /><text fill="#e1ed5e" style="font-size:6.75px; font-family:Arial;" text-anchor="middle"><textPath startOffset="22.20632615414155" xlink:href="#id336">December</textPath></text></svg>