<?xml version="1.0" encoding="utf-8" ?>
<svg baseProfile="full" height="200mm" version="1.1" viewBox="0,0,200,200" width="200mm" xmlns="http://www.w3.org/2000/svg" xmlns:ev="http://www.w3.org/2001/xml-events" xmlns:xlink="http://www.w3.org/1999/xlink"><defs /><rect fill="#1a1a1a" height="200" width="200" x="0" y="0" /><text alignment-baseline="middle" fill="#e1ed5e" style="dominant-baseline: central; font-size:9.0px; font-family:Arial;" text-anchor="middle" x="100.0" y="100.0">2026</text><line stroke="#e1ed5e" stroke-width="0.3" x1="100.0" x2="100.0" y1="15.0" y2="10.0" /><path d="M 100.0 14.0 a86.0,86.0 0 0,1 42.46469731375804,11.215312516191453" fill="none" id="id325" stroke="none" /><text fill="#e1ed5e" style="font-size:6.75px; font-family:Arial;" text-anchor="middle"><textPath startOffset="22.20632615414155" xlink:href="#id325">January</textPath></text><path d="M 100.36148047927253 79.00311137660856 l 0.13061927815833047 -7.587127363219366 a28.588251644584453,28.588251644584453 0 0,0 0.49195393765234946,0.012705718804068357 l -0.2611998510055477 7.583754852272938" fill="#ff4706" stroke="none" /><path d="M 100.72285384407766 79.0124445844662 l 1.809644807736636 -52.54177036751739 a73.57292504401002,73.57292504401002 0 0,0 1.2653112555988935,0.05448696431901732 l -2.713796895724861 52.502835676674174" fill="#40ffc4" stroke="none" /><path d="M 101.08401301168833 79.027996857942 l 0.6728222593263936 -13.01684609363034 a34.03422310756972,34.03422310756972 0 0,0 0.5848018731176664,0.03527684601110001 l -0.896786181283672 13.003335978238937" fill="#ff940d" stroke="none" /><path d="M 101.44485096284872 79.0497635885617 l 0.37551934892117045 -5.4450039064628735 a26.457937552117112,26.457937552117112 0 0,0 0.4540809649057872,0.03524542219306929 l -0.46919050318929884 5.43773322208134" fill="#ff2803" stroke="none" /><path d="M 101.80526077348638 79.07773832637324 l 2.993658605008724 -34.69532469513313 a55.82423793199296,55.82423793199296 0 0,0 0.956654311002854,0.09084585400861872 l -3.5904380431018224 34.638653296609334" fill="#62ff29" stroke="none" /><path d="M 102.16513564639614 79.11191278185805 l 0.5890280312916372 -5.682631899774785 a26.71307792087464,26.71307792087464 0 0,0 0.45696319242463673,0.051345139054364275 l -0.6867579272259992 5.67165080724982" fill="#ff2c04" stroke="none" /><path d="M 102.52436894288641 79.15227682838746 l 3.9343458252737857 -32.492141395509265 a53.72947187992217,53.72947187992217 0 0,0 0.9172011578097118,0.11907903413318773 l -4.493061711591344 32.41960403821194" fill="#79ff26" stroke="none" /><path d="M 102.88285421437855 79.19881850522331 l 2.4589947807483457 -17.742831556982157 a38.91241823404058,38.91241823404058 0 0,0 0.6626803717631665,0.09766186074139173 l -2.764044132940168 17.697875212079797" fill="#ffd413" stroke="none" /><path d="M 103.59715602781102 79.31037775812273 l 10.039174876171433 -57.741931181819595 a79.60815343278051,79.60815343278051 0 0,0 1.348049893365981,0.2463475014945616 l -11.031619890640314 57.560568198974295" fill="#47fcff" stroke="none" /><path d="M 103.95276090670814 79.375362276772 l 0.8066335054788958 -4.208836359843134 a25.285435930695822,25.285435930695822 0 0,0 0.42676227833835617,0.08560449826360404 l -0.8789621932843773 4.194327905502321" fill="#ff1702" stroke="none" /><path d="M 104.307194497241 79.44645832069477 l 2.284269699855246 -10.900327931051823 a32.13710182525711,32.13710182525711 0 0,0 0.5404500635337375,0.11812145101087668 l -2.4715624875425113 10.859392981945076" fill="#ff7a0b" stroke="none" /><path d="M 104.66035177308747 79.52364482259891 l 6.428435606992063 -28.244848700898856 a49.967158343370706,49.967158343370706 0 0,0 0.8370125111900346,0.198093818609053 l -6.913671805144621 28.130008970148932" fill="#a3ff22" stroke="none" /><path d="M 105.01212808612495 79.60689891045804 l 3.322827767502072 -13.51975875345127 a34.9221069211526,34.9221069211526 0 0,0 0.5825192210890915,0.14849711978711286 l -3.5550558772761884 13.46055863749529" fill="#ffa00e" stroke="none" /><path d="M 105.36241919743992 79.69619591428918 l 2.628141870147874 -9.950970947293959 a31.29217919021588,31.29217919021588 0 0,0 0.519602330210388,0.1420269449382355 l -2.7990420895819725 9.90425746152943" fill="#ff6e0a" stroke="none" /><path d="M 105.71112130821622 79.79150937346287 l 9.326356872556937 -33.00080409212552 a55.29335217270453,55.29335217270453 0 0,0 0.9136825761329556,0.2667289987991241 l -9.893029666413321 32.83537676440769" fill="#68ff28" stroke="none" /><path d="M 106.0581310904928 79.89281104454417 l 9.297718515364886 -30.859514304084623 a53.229756323543036,53.229756323543036 0 0,0 0.8750328804729142,0.2718769754047392 l -9.82753676854852 30.694897193797363" fill="#7eff26" stroke="none" /><path d="M 106.74666289553966 80.11325718540242 l 8.798084732906018 -25.933598736645386 a48.38535810247383,48.38535810247383 0 0,0 0.7864187362008196,0.2743660553238001 l -9.243185473170112 25.778311828149377" fill="#b5ff1f" stroke="none" /><path d="M 107.08798089147638 80.2323363322302 l 3.498000331605873 -9.755570045072337 a31.36374224034096,31.36374224034096 0 0,0 0.506625509420803,0.18659445070823524 l -3.665408166799253 9.693912326557777" fill="#ff6f0a" stroke="none" /><path d="M 107.4271985657038 80.35727306442388 l 0.9662652521109054 -2.555483649271678 a23.73206244788289,23.73206244788289 0 0,0 0.38086212258170216,0.14776858651361227 l -1.0101105396922747 2.538472358867519" fill="#ff0000" stroke="none" /><path d="M 107.76421540070413 80.48803036053334 l 3.6698488848112767 -9.2225648473604 a30.92590012044844,30.92590012044844 0 0,0 0.49292369608631065,0.20107595221053182 l -3.828056450485975 9.158028008966289" fill="#ff6909" stroke="none" /><path d="M 108.43124777332544 80.76684994638697 l 25.16672387330321 -57.40969659846372 a83.68362827758733,83.68362827758733 0 0,0 1.3143027141679666,0.589689316842611 l -26.151208705937954 56.96798695110458" fill="#4dd5ff" stroke="none" /><path d="M 108.76106565485865 80.91482961587045 l 2.2858320821614817 -4.979473556777649 a26.479067914388956,26.479067914388956 0 0,0 0.4125965698126561,0.1937196218430328 l -2.3712068632737355 4.939388952294613" fill="#ff2904" stroke="none" /><path d="M 109.08828744355905 81.06846463323043 l 2.100907570270636 -4.376336709847376 a25.85449643287316,25.85449643287316 0 0,0 0.39954890330683984,0.19605691163083067 l -2.1759277405879076 4.339524638081714" fill="#ff2003" stroke="none" /><path d="M 109.41281617654863 81.2277094730956 l 4.661083891415677 -9.295753719054604 a31.398881682572036,31.398881682572036 0 0,0 0.48106004203852765,0.2464176380055372 l -4.82040442104296 9.214143555736566" fill="#ff6f0a" stroke="none" /><path d="M 109.73455568895987 81.39251694778311 l 4.124825185160191 -7.8845524314244955 a29.89833410543871,29.89833410543871 0 0,0 0.4539634252414604,0.2424915400149695 l -4.259933656929962 7.812382164907772" fill="#ff5a08" stroke="none" /><path d="M 110.05341064243156 81.56283822128135 l 2.087603341388377 -3.828499790162945 a25.3606763643102,25.3606763643102 0 0,0 0.38146794039646637,0.21228649582405765 l -2.1531953708568787 3.791997896778708" fill="#ff1802" stroke="none" /><path d="M 110.36928655335952 81.73862282372117 l 27.215702365075312 -47.92964332198569 a76.11755767627166,76.11755767627166 0 0,0 1.133800988471267,0.6567707143125499 l -28.03670008601191 47.45406845028308" fill="#43ffdf" stroke="none" /><line stroke="#e1ed5e" stroke-width="0.3" x1="143.23703022742887" x2="145.7803849466894" y1="26.81831364943548" y2="22.513508569990506" /><path d="M 143.74570117128098 25.957352633546492 a86.0,86.0 0 0,1 28.547481713284135,27.462654790039103" fill="none" id="id326" stroke="none" /><text fill="#e1ed5e" style="font-size:6.75px; font-family:Arial;" text-anchor="middle"><textPath startOffset="19.985693538727396" xlink:href="#id326">February</textPath></text><path d="M 110.99172775467656 82.1063720568725 l 5.267902389280573 -8.575711434846463 a31.06447326971185,31.06447326971185 0 0,0 0.4532171262611185,0.2838045228864933 l -5.414738667913956 8.483762570637026" fill="#ff6b09" stroke="none" /><path d="M 111.2981086023043 82.29822771554956 l 17.72997014832711 -27.779153593175693 a53.95501806726582,53.95501806726582 0 0,0 0.7785785523231649,0.5064091480023903 l -18.205515726434555 27.469845521013774" fill="#76ff27" stroke="none" /><path d="M 111.60114157652 82.49532879139004 l 7.502809634648563 -11.32080105471055 a34.58133605114426,34.58133605114426 0 0,0 0.4933526639082208,0.3331139209496682 l -7.696566992963326 11.189975221462213" fill="#ff9b0e" stroke="none" /><path d="M 111.90073688211348 82.69761687909136 l 3.02871713775496 -4.403426846707297 a26.344464004447328,26.344464004447328 0 0,0 0.37141787790839276,0.2602019592277277 l -3.104066155247004 4.350640044715634" fill="#ff2703" stroke="none" /><path d="M 112.19680574252982 82.90503203632743 l 23.835268319927685 -33.407365578833016 a62.038665801908635,62.038665801908635 0 0,0 0.8639761133776294,0.6277153895496254 l -24.4067897496591 32.99213095446672" fill="#31ff3f" stroke="none" /><path d="M 112.48926042617603 83.11751280151076 l 19.75051620652217 -26.697964942849477 a54.20939961085889,54.20939961085889 0 0,0 0.7453891733373487,0.561411671819523 l -20.207151533617903 26.354036681524107" fill="#74ff27" stroke="none" /><path d="M 112.77801427241765 83.33499621200491 l 7.311278341454202 -9.535322050659106 a33.015704623367,33.015704623367 0 0,0 0.44801909457770844,0.3496860096790255 l -7.474329991191341 9.408057651756858" fill="#ff860c" stroke="none" /><path d="M 113.06298171725822 83.55741782278167 l 3.401773272843012 -4.2818659474267475 a26.468677846752524,26.468677846752524 0 0,0 0.35429787558159415,0.28648424228794545 l -3.474974546989097 4.222675607874673" fill="#ff2903" stroke="none" /><path d="M 113.34407831869373 83.78471172551755 l 7.115448799689337 -8.64646105438756 a32.19780783841379,32.19780783841379 0 0,0 0.424922846135954,0.3558606635120024 l -7.263229182784409 8.522699233481738" fill="#ff7a0b" stroke="none" /><path d="M 113.6212207817346 84.01681056812373 l 19.93172173507963 -23.38795393599474 a51.72897526174372,51.72897526174372 0 0,0 0.6727382825538255,0.5833920093575589 l -20.33135381628022 23.04139693321751" fill="#8fff24" stroke="none" /><path d="M 113.89432698308785 84.25364557470407 l 25.076640455060925 -28.419200791929953 a58.90104048920597,58.90104048920597 0 0,0 0.7544634624171485,0.6773647458410946 l -25.56211490507406 27.98333703731956" fill="#42ff2d" stroke="none" /><path d="M 114.42810811169701 84.74124197986012 l 6.819015583867815 -7.211597523686956 a30.925024552950987,30.925024552950987 0 0,0 0.3836422422733865,0.3690635331076476 l -6.942141069753619 7.093150903817007" fill="#ff6909" stroke="none" /><path d="M 114.94478906791727 85.2469230424477 l 7.8385577898763605 -7.738004583719642 a32.01452237561382,32.01452237561382 0 0,0 0.3837713982104017,0.3955101603141065 l -7.970593451789871 7.601930227855421" fill="#ff780b" stroke="none" /><path d="M 115.4437574822437 85.77008943001954 l 7.404289380130097 -6.822327780959181 a31.06815065320115,31.06815065320115 0 0,0 0.3589944919189679,0.3964106843911899 l -7.5206275126651 6.6938643092984424" fill="#ff6b09" stroke="none" /><path d="M 115.9244219780498 86.31012108654704 l 3.2692795533181465 -2.810528462561759 a25.311294357453903,25.311294357453903 0 0,0 0.28118363488082915,0.33283273381496137 l -3.3171738016860925 2.753836779117691" fill="#ff1802" stroke="none" /><path d="M 116.15771136456269 86.58626213691792 l 25.949362298332026 -21.54252763466117 a54.726101176688594,54.726101176688594 0 0,0 0.5954760305548743,0.7299832035818673 l -26.316336820963308 21.092660261471202" fill="#6eff28" stroke="none" /><path d="M 116.38621287248628 86.86637796730983 l 42.02637739408712 -33.68432720802229 a74.85954229593256,74.85954229593256 0 0,0 0.7972395791947082,1.0124133046304322 l -42.5999710538758 32.95592150943882" fill="#41ffd1" stroke="none" /><path d="M 116.60985879189232 87.15038557335679 l 4.61582635679369 -3.5708665370525368 a26.835832484017416,26.835832484017416 0 0,0 0.27950677277951913,0.36779814956221485 l -4.676609069797323 3.4908836116092883" fill="#ff2e04" stroke="none" /><path d="M 117.04232023915458 87.72973835380427 l 13.886088215320935 -9.997813282060203 a38.11080700453998,38.11080700453998 0 0,0 0.3787259271874894,0.5356809656528417 l -14.056126762312308 9.757305816075569" fill="#ffca12" stroke="none" /><path d="M 117.45458315368197 88.32363383020206 l 10.402789244823994 -6.959019034732884 a33.51582877791161,33.51582877791161 0 0,0 0.3166501523002548,0.4822799060715295 l -10.521036032482174 6.77892106468368" fill="#ff8d0d" stroke="none" /><line stroke="#e1ed5e" stroke-width="0.3" x1="172.23445277983987" x2="176.4835382374775" y1="55.19839476539836" y2="52.563006222186495" /><path d="M 173.08426987136738 54.67131705675599 a86.0,86.0 0 0,1 12.851231095245387,41.99856678651699" fill="none" id="id327" stroke="none" /><text fill="#e1ed5e" style="font-size:6.75px; font-family:Arial;" text-anchor="middle"><textPath startOffset="22.20632615414155" xlink:href="#id327">March</textPath></text><path d="M 117.84615892207809 88.93136811851018 l 30.685191289034698 -19.03171926656101 a57.107994996757164,57.107994996757164 0 0,0 0.5109376214971446,0.8398471077393984 l -31.00824470881807 18.500704385614526" fill="#55ff2b" stroke="none" /><path d="M 118.03404312379186 89.2402003453031 l 4.808989051581849 -2.8692267386444974 a26.59989622903734,26.59989622903734 0 0,0 0.23121684365257092,0.39522453584331596 l -4.857665569704747 2.7860227904472863" fill="#ff2b04" stroke="none" /><path d="M 118.21658344932153 89.55222093294921 l 15.387755472061611 -8.825357946903557 a38.738939127212085,38.738939127212085 0 0,0 0.32677652622967646,0.5812989774579405 l -15.53738963958372 8.559175459510822" fill="#ffd213" stroke="none" /><path d="M 118.3937258080291 89.86733742301442 l 27.00288590977377 -14.875242481278116 a51.82902344111925,51.82902344111925 0 0,0 0.42374397858364315,0.7851332367584667 l -27.25493798757588 14.40822826118719" fill="#8eff24" stroke="none" /><path d="M 118.56541770881063 90.18545643968196 l 26.180902857102023 -13.840443321538622 a50.61414435282127,50.61414435282127 0 0,0 0.4005520638148125,0.7737390941289597 l -26.415264354076953 13.387731505149317" fill="#9cff22" stroke="none" /><path d="M 118.89224826269711 90.83032412892265 l 56.676744788091334 -27.509027613232025 a84.0,84.0 0 0,0 0.6201672246329752,1.3062303374378386 l -57.14187020656606 26.529354860153646" fill="#4dd2ff" stroke="none" /><line stroke="#e1ed5e" stroke-width="0.3" x1="184.98032266829074" x2="189.97916517819016" y1="98.17113171792111" y2="98.06355123074" /><path d="M 185.9800911702706 98.14961562048488 a86.0,86.0 0 0,1 -9.607161424134198,41.387399972396054" fill="none" id="id328" stroke="none" /><text fill="#e1ed5e" style="font-size:6.75px; font-family:Arial;" text-anchor="middle"><textPath startOffset="21.466115282336823" xlink:href="#id328">April</textPath></text><line stroke="#e1ed5e" stroke-width="0.3" x1="174.80103733775053" x2="179.2010983576182" y1="140.37084112569926" y2="142.7455964860345" /><path d="M 175.68104954172406 140.8457921977663 a86.0,86.0 0 0,1 -30.038265399797805,32.042727171017184" fill="none" id="id329" stroke="none" /><text fill="#e1ed5e" style="font-size:6.75px; font-family:Arial;" text-anchor="middle"><textPath startOffset="22.206326154141568" xlink:href="#id329">May</textPath></text><line stroke="#e1ed5e" stroke-width="0.3" x1="143.8653032363475" x2="146.44561519142675" y1="172.8068346515853" y2="177.08958963109032" /><path d="M 144.38136562736335 173.6633856474863 a86.0,86.0 0 0,1 -40.68145358897372,12.25698825130547" fill="none" id="id330" stroke="none" /><text fill="#e1ed5e" style="font-size:6.75px; font-family:Arial;" text-anchor="middle"><textPath startOffset="21.466115282336833" xlink:href="#id330">June</textPath></text><line stroke="#e1ed5e" stroke-width="0.3" x1="102.19456741930631" x2="102.32365962044197" y1="184.97166512339345" y2="189.96999836594603" /><path d="M 102.22038585953345 185.97133177190398 a86.0,86.0 0 0,1 -42.740103519485714,-10.115201625700543" fill="none" id="id331" stroke="none" /><text fill="#e1ed5e" style="font-size:6.75px; font-family:Arial;" text-anchor="middle"><textPath startOffset="22.20632615414155" xlink:href="#id331">July</textPath></text><line stroke="#e1ed5e" stroke-width="0.3" x1="58.666819895761336" x2="56.23545636021788" y1="174.27360380694188" y2="178.64263932499728" /><path d="M 58.180547188652646 175.14741091055294 a86.0,86.0 0 0,1 -31.652253787137756,-30.449443065178592" fill="none" id="id332" stroke="none" /><text fill="#e1ed5e" style="font-size:6.75px; font-family:Arial;" text-anchor="middle"><textPath startOffset="22.20632615414155" xlink:href="#id332">August</textPath></text><line stroke="#e1ed5e" stroke-width="0.3" x1="26.63291911575756" x2="22.317208475507996" y1="142.92168965132927" y2="145.44649492493687" /><path d="M 25.769776987707644 143.4266507060508 a86.0,86.0 0 0,1 -11.730757126820373,-40.83630448921669" fill="none" id="id333" stroke="none" /><text fill="#e1ed5e" style="font-size:6.75px; font-family:Arial;" text-anchor="middle"><textPath startOffset="21.46611528233685" xlink:href="#id333">September</textPath></text><line stroke="#e1ed5e" stroke-width="0.3" x1="15.007084014347285" x2="10.007500721073583" y1="101.09737516637583" y2="101.16192664675087" /><path d="M 14.007167355692545 101.11028546245083 a86.0,86.0 0 0,1 10.666146001902534,-42.60595125391555" fill="none" id="id334" stroke="none" /><text fill="#e1ed5e" style="font-size:6.75px; font-family:Arial;" text-anchor="middle"><textPath startOffset="22.20632615414155" xlink:href="#id334">October</textPath></text><line stroke="#e1ed5e" stroke-width="0.3" x1="26.266209847984243" x2="21.928928074336255" y1="57.711370442889674" y2="55.22380399835377" /><path d="M 25.398753493254645 57.213857153982495 a86.0,86.0 0 0,1 29.58750427330803,-30.492523968695096" fill="none" id="id335" stroke="none" /><text fill="#e1ed5e" style="font-size:6.75px; font-family:Arial;" text-anchor="middle"><textPath startOffset="21.46611528233685" xlink:href="#id335">November</textPath></text><line stroke="#e1ed5e" stroke-width="0.3" x1="56.762969772571076" x2="54.21961505331055" y1="26.818313649435495" y2="22.513508569990535" /><path d="M 56.25429882871897 25.957352633546506 a86.0,86.0 0 0,1 42.265352541879196,-11.944610805530505" fill="none" id="id336" stroke="none" /><text fill="#e1ed5e" style="font-size:6.75px; font-family:Arial;" text-anchor="middle"><textPath startOffset="22.20632615414155" xlink:href="#id336">December</textPath></text></svg>