<?xml version="1.0" encoding="utf-8" ?>
<svg baseProfile="full" height="200mm" version="1.1" viewBox="0,0,200,200" width="200mm" xmlns="http://www.w3.org/2000/svg" xmlns:ev="http://www.w3.org/2001/xml-events" xmlns:xlink="http://www.w3.org/1999/xlink"><defs /><rect fill="#1a1a1a" height="200" width="200" x="0" y="0" /><text alignment-baseline="middle" fill="#e1ed5e" style="dominant-baseline: central; font-size:9.0px; font-family:Arial;" text-anchor="middle" x="100.0" y="100.0">2026</text><line stroke="#e1ed5e" stroke-width="0.3" x1="100.0" x2="100.0" y1="15.0" y2="10.0" /><path d="M 100.0 14.0 a86.0,86.0 0 0,1 42.46469731375804,11.215312516191453" fill="none" id="id325" stroke="none" /><text fill="#e1ed5e" style="font-size:6.75px; font-family:Arial;" text-anchor="middle"><textPath startOffset="22.20632615414155" xlink:href="#id325">January</textPath></text><path d="M 100.36148047927253 79.00311137660856 l 0.12114696187407985 -7.036920141998991 a28.037962892147302,28.037962892147302 0 0,0 0.48248442821984316,0.012461149313200855 l -0.2422580252887908 7.033792200543431" fill="#ff4206" stroke="none" /><path d="M 100.72285384407766 79.0124445844662 l 1.6784120508058005 -48.73151912380499 a69.76041450937494,69.76041450937494 0 0,0 1.1997434874467168,0.0516634782969205 l -2.516996370641849 48.69540791898388" fill="#3bff9a" stroke="none" /><path d="M 101.08401301168833 79.027996857942 l 0.624030187181435 -12.072883724822725 a33.08900058348924,33.08900058348924 0 0,0 0.5685603417376734,0.034297112484560535 l -0.8317525777587204 12.06035334295786" fill="#ff890c" stroke="none" /><path d="M 101.44485096284872 79.0497635885617 l 0.34828724280337714 -5.050140300583212 a26.062136017441084,26.062136017441084 0 0,0 0.44728807175518326,0.03471816294745189 l -0.4351655039209016 5.0433968754472955" fill="#ff2503" stroke="none" /><path d="M 101.80526077348638 79.07773832637324 l 2.7765629239306344 -32.17927121718705 a53.298835857346766,53.298835857346766 0 0,0 0.9133767514476477,0.08673612825712954 l -3.330064802468526 32.126709544414744" fill="#7cff26" stroke="none" /><path d="M 102.16513564639614 79.11191278185805 l 0.5463125922588116 -5.270535864330529 a26.298773985145516,26.298773985145516 0 0,0 0.4498759653493573,0.050548806514407914 l -0.6369552611178941 5.26035110434552" fill="#ff2904" stroke="none" /><path d="M 102.52436894288641 79.15227682838746 l 3.64903290244902 -30.13585950212914 a51.35597913188146,51.35597913188146 0 0,0 0.8766839105637103,0.11381873258787459 l -4.167231541520576 30.06858244637713" fill="#92ff23" stroke="none" /><path d="M 102.88285421437855 79.19881850522331 l 2.280672127056017 -16.45614773315795 a37.61343623597026,37.61343623597026 0 0,0 0.6405586452691328,0.0944016932997769 l -2.5635997527538055 16.414451555697205" fill="#ffc512" stroke="none" /><path d="M 103.59715602781102 79.31037775812273 l 9.311148806813357 -53.55457199005739 a75.35797708838015,75.35797708838015 0 0,0 1.2760792531639902,0.23319532702240278 l -10.231623181080248 53.38636118168425" fill="#42ffd7" stroke="none" /><path d="M 103.95276090670814 79.375362276772 l 0.748137640265889 -3.9036177906456913 a24.974662474252142,24.974662474252142 0 0,0 0.4215171091950397,0.08455236667744416 l -0.8152211589280541 3.890161467891039" fill="#ff1502" stroke="none" /><path d="M 104.307194497241 79.44645832069477 l 2.11861784983253 -10.109852319635431 a31.329455722276315,31.329455722276315 0 0,0 0.5268678684110366,0.11515290922680096 l -2.292328442397095 10.071885912312759" fill="#ff710a" stroke="none" /><path d="M 104.66035177308747 79.52364482259891 l 5.962254993066475 -26.196574173065255 a47.86650299177873,47.86650299177873 0 0,0 0.8018239019259648,0.18976581169461526 l -6.412302581954963 26.09006244922977" fill="#baff1f" stroke="none" /><path d="M 105.01212808612495 79.60689891045804 l 3.0818612270675305 -12.539325904601627 a33.91249638004656,33.91249638004656 0 0,0 0.5656783830681703,0.14420401519867967 l -3.297248498820726 12.484418893234078" fill="#ff940d" stroke="none" /><path d="M 105.36241919743992 79.69619591428918 l 2.437552920454349 -9.229341296011539 a30.54580562332376,30.54580562332376 0 0,0 0.5072088998197732,0.13863935224793522 l -2.596059709497833 9.18601540293731" fill="#ff6609" stroke="none" /><path d="M 105.71112130821622 79.79150937346287 l 8.650023307387716 -30.607634734564886 a52.806449145776924,52.806449145776924 0 0,0 0.8725883057559508,0.25473245439698594 l -9.175601830867095 30.454203951249195" fill="#82ff25" stroke="none" /><path d="M 106.0581310904928 79.89281104454417 l 8.623461761375525 -28.62162810544616 a50.89250220634551,50.89250220634551 0 0,0 0.8366112467134531,0.25993918676874495 l -9.114858380799696 28.468948783794893" fill="#97ff23" stroke="none" /><path d="M 106.74666289553966 80.11325718540242 l 8.160060679636455 -24.05293262758466 a46.399412557822586,46.399412557822586 0 0,0 0.7541406908036847,0.26310487908077507 l -8.572883374503414 23.90890689533168" fill="#cbff1d" stroke="none" /><path d="M 107.08798089147638 80.2323363322302 l 3.2443305366831 -9.048110577350629 a30.612179027214317,30.612179027214317 0 0,0 0.4944853415545311,0.18212312442799614 l -3.399598204010207 8.990924185116308" fill="#ff6709" stroke="none" /><path d="M 107.4271985657038 80.35727306442388 l 0.8961931294386217 -2.37016376597091 a23.533937332053497,23.533937332053497 0 0,0 0.37768252736880237,0.14653495296898258 l -0.9368588218070912 2.3543861091113807" fill="#ff0000" stroke="none" /><path d="M 107.76421540070413 80.48803036053334 l 3.403716887739602 -8.553758125887652 a30.206088568337414,30.206088568337414 0 0,0 0.48145071811734974,0.19639583642767172 l -3.550451475445339 8.493901403276402" fill="#ff6108" stroke="none" /><path d="M 108.43124777332544 80.76684994638697 l 23.34167039170788 -53.246430565831496 a79.13790454322418,79.13790454322418 0 0,0 1.2429093345440176,0.5576571884724102 l -24.254761844718676 52.83675304684255" fill="#47fffd" stroke="none" /><path d="M 108.76106565485865 80.91482961587045 l 2.120066930491641 -4.6183695212639435 a26.081734037186912,26.081734037186912 0 0,0 0.40640531733602187,0.19081274578962085 l -2.199250459127261 4.5811917928343195" fill="#ff2603" stroke="none" /><path d="M 109.08828744355905 81.06846463323043 l 1.9485528698759689 -4.058971263746818 a25.502455552987094,25.502455552987094 0 0,0 0.3941085518444609,0.19338735479542832 l -2.0181326887308617 4.0248287488165575" fill="#ff1d03" stroke="none" /><path d="M 109.41281617654863 81.2277094730956 l 4.323069002117352 -8.621639449178975 a30.644770209222564,30.644770209222564 0 0,0 0.469506353574757,0.2404993900266993 l -4.470835843280865 8.545947533839776" fill="#ff6709" stroke="none" /><path d="M 109.73455568895987 81.39251694778311 l 3.825698981723977 -7.312776385474518 a29.253040116388483,29.253040116388483 0 0,0 0.4441655592960237,0.23725785934850294 l -3.9510095875483118 7.24583979962426" fill="#ff5307" stroke="none" /><path d="M 110.05341064243156 81.56283822128135 l 1.93621344393603 -3.5508626647866097 a25.044446583236585,25.044446583236585 0 0,0 0.3767113037222197,0.20963943266474064 l -1.9970488367302848 3.5170078345616895" fill="#ff1602" stroke="none" /><path d="M 110.36928655335952 81.73862282372117 l 25.242060002823596 -44.453856689733385 a72.12051415799239,72.12051415799239 0 0,0 1.074263451661932,0.6222827301104902 l -26.003520186950855 44.012769802232846" fill="#3effb4" stroke="none" /><line stroke="#e1ed5e" stroke-width="0.3" x1="143.23703022742887" x2="145.7803849466894" y1="26.81831364943548" y2="22.513508569990506" /><path d="M 143.74570117128098 25.957352633546492 a86.0,86.0 0 0,1 28.547481713284135,27.462654790039103" fill="none" id="id326" stroke="none" /><text fill="#e1ed5e" style="font-size:6.75px; font-family:Arial;" text-anchor="middle"><textPath startOffset="19.985693538727396" xlink:href="#id326">February</textPath></text><path d="M 110.99172775467656 82.1063720568725 l 4.8858819227048835 -7.9538135632714475 a30.334612598383245,30.334612598383245 0 0,0 0.44256877715960385,0.27713652765600627 l -5.022069852236751 7.8685326942924965" fill="#ff6309" stroke="none" /><path d="M 111.2981086023043 82.29822771554956 l 16.444219014779254 -25.764650583716552 a51.565169044306515,51.565169044306515 0 0,0 0.7440926924491701,0.48397858545374367 l -16.885278733012704 25.47777307410328" fill="#90ff24" stroke="none" /><path d="M 111.60114157652 82.49532879139004 l 6.958717010022605 -10.49983335611929 a33.596437708013056,33.596437708013056 0 0,0 0.479301667713512,0.3236266255967053 l -7.138423372142659 10.378494818223913" fill="#ff900d" stroke="none" /><path d="M 111.90073688211348 82.69761687909136 l 2.8090790638898615 -4.084096864068652 a25.95689140311544,25.95689140311544 0 0,0 0.3659536789367293,0.25637393865412555 l -2.8789638824102415 4.035138082650591" fill="#ff2403" stroke="none" /><path d="M 112.19680574252982 82.90503203632743 l 22.106770019909057 -30.984712985371928 a59.062602636958836,59.062602636958836 0 0,0 0.8225302271196991,0.5976031905723662 l -22.636845563382543 30.59959055998289" fill="#40ff2d" stroke="none" /><path d="M 112.48926042617603 83.11751280151076 l 18.318238070222694 -24.761868130417525 a51.801103215721724,51.801103215721724 0 0,0 0.7122746568142212,0.5364705045102276 l -18.7417588807953 24.44288103640145" fill="#8dff24" stroke="none" /><path d="M 112.77801427241765 83.33499621200491 l 6.781075282082686 -8.843834640764303 a32.14434354883478,32.14434354883478 0 0,0 0.43619483081851895,0.3404569842616142 l -6.932302668060635 8.725799267279465" fill="#ff7c0b" stroke="none" /><path d="M 113.06298171725822 83.55741782278167 l 3.155081721473231 -3.971351380873832 a26.072097441842278,26.072097441842278 0 0,0 0.3489894277712995,0.2821918466698206 l -3.2229745478090215 3.9164534369398813" fill="#ff2603" stroke="none" /><path d="M 113.34407831869373 83.78471172551755 l 6.599447008182341 -8.019432525357283 a31.38575942541349,31.38575942541349 0 0,0 0.4142060319794139,0.346885639854976 l -6.736510577120872 7.904645728108488" fill="#ff710a" stroke="none" /><path d="M 113.6212207817346 84.01681056812373 l 18.48630284265938 -21.691894211528275 a49.50055556080706,49.50055556080706 0 0,0 0.6437575568612767,0.5582602096177938 l -18.85695419816742 21.37046900849081" fill="#a7ff21" stroke="none" /><path d="M 113.89432698308785 84.25364557470407 l 23.258119689321852 -26.35828250909822 a56.152513257408124,56.152513257408124 0 0,0 0.7192575754815851,0.6457565529409157 l -23.708388252399427 25.954026947388005" fill="#5eff2a" stroke="none" /><path d="M 114.42810811169701 84.74124197986012 l 6.324510689426928 -6.688623169347937 a30.205276495696015,30.205276495696015 0 0,0 0.3747133646880375,0.36047395994488235 l -6.438707297727384 6.5787661226407534" fill="#ff6108" stroke="none" /><path d="M 114.94478906791727 85.2469230424477 l 7.270117207100485 -7.176855970288118 a31.215765552480086,31.215765552480086 0 0,0 0.37419636787736665,0.38564224988698576 l -7.39257783868096 7.050649524851018" fill="#ff6f0a" stroke="none" /><path d="M 115.4437574822437 85.77008943001954 l 6.867341298211474 -6.327582690898723 a30.338023303477133,30.338023303477133 0 0,0 0.35055782312988726,0.38709470399610313 l -6.975242761957397 6.208435199633071" fill="#ff6309" stroke="none" /><path d="M 115.9244219780498 86.31012108654704 l 3.0321962499398705 -2.606713107748641 a24.998645686261536,24.998645686261536 0 0,0 0.27771041503813704,0.3287215370311459 l -3.0766172784651244 2.554132621088389" fill="#ff1602" stroke="none" /><path d="M 116.15771136456269 86.58626213691792 l 24.067553039162316 -19.980295487960962 a52.280334350500866,52.280334350500866 0 0,0 0.5688635825637604,0.6973594890360323 l -24.407915113802485 19.563051829316827" fill="#88ff25" stroke="none" /><path d="M 116.38621287248628 86.86637796730983 l 38.97868684969801 -31.24158976807244 a70.95372818682655,70.95372818682655 0 0,0 0.7556434178870853,0.9595904039260682 l -39.51068434817906 30.566006970193335" fill="#3cffa8" stroke="none" /><path d="M 116.60985879189232 87.15038557335679 l 4.281093476768648 -3.3119125930044917 a26.41262656947002,26.41262656947002 0 0,0 0.27509890060090136,0.3619979064601229 l -4.337468317593663 3.2377299106633353" fill="#ff2b04" stroke="none" /><path d="M 117.04232023915458 87.72973835380427 l 12.879089697329688 -9.27278669414902 a36.86995666367904,36.86995666367904 0 0,0 0.36639498400416903,0.5182397210015841 l -13.036797301137739 9.049720472815642" fill="#ffbc11" stroke="none" /><path d="M 117.45458315368197 88.32363383020206 l 9.648394400856704 -6.454361297724049 a32.60819944160338,32.60819944160338 0 0,0 0.308075070673045,0.4692194684507543 l -9.758066106887673 6.287323765295621" fill="#ff820c" stroke="none" /><line stroke="#e1ed5e" stroke-width="0.3" x1="172.23445277983987" x2="176.4835382374775" y1="55.19839476539836" y2="52.563006222186495" /><path d="M 173.08426987136738 54.67131705675599 a86.0,86.0 0 0,1 12.851231095245387,41.99856678651699" fill="none" id="id327" stroke="none" /><text fill="#e1ed5e" style="font-size:6.75px; font-family:Arial;" text-anchor="middle"><textPath startOffset="22.20632615414155" xlink:href="#id327">March</textPath></text><path d="M 117.84615892207809 88.93136811851018 l 28.459946736847346 -17.651567218044764 a54.489496764169814,54.489496764169814 0 0,0 0.4875102667295919,0.8013386963097188 l -28.75957280186316 17.159060748527967" fill="#70ff27" stroke="none" /><path d="M 118.03404312379186 89.2402003453031 l 4.460248299478891 -2.661154671926096 a26.193800061700337,26.193800061700337 0 0,0 0.22768689476771145,0.3891907089493482 l -4.505394868716929 2.5839845506228523" fill="#ff2703" stroke="none" /><path d="M 118.21658344932153 89.55222093294921 l 14.271858272266982 -8.185356080613468 a37.45253757662056,37.45253757662056 0 0,0 0.3159252783764929,0.5619958183419005 l -14.410641191935909 7.938476752336775" fill="#ffc312" stroke="none" /><path d="M 118.3937258080291 89.86733742301442 l 25.044676681156933 -13.796511963285269 a49.593348394631214,49.593348394631214 0 0,0 0.40546553580929184,0.7512660583119461 l -25.27845031618469 13.363364921640864" fill="#a6ff21" stroke="none" /><path d="M 118.56541770881063 90.18545643968196 l 24.282302620090267 -12.836754903532334 a48.466570535598436,48.466570535598436 0 0,0 0.3835565157188718,0.7409091047819117 l -24.499668568969255 12.416873076490077" fill="#b3ff20" stroke="none" /><path d="M 118.89224826269711 90.83032412892265 l 56.676744788091334 -27.509027613232025 a84.0,84.0 0 0,0 0.6201672246329752,1.3062303374378386 l -57.14187020656606 26.529354860153646" fill="#4dd2ff" stroke="none" /><path d="M 119.04729006885535 91.15688171328212 l 47.07386559714459 -21.85506495589508 a72.89983320285747,72.89983320285747 0 0,0 0.5186221987745416,1.1427152690221578 l -47.44309011288248 21.04152767803086" fill="#3fffbd" stroke="none" /><path d="M 119.196687751892 91.48605970444005 l 4.642089023254848 -2.058817088732959 a26.078160917564745,26.078160917564745 0 0,0 0.1784606663843607,0.41191182304592616 l -4.67684039948189 1.9786061211004302" fill="#ff2603" stroke="none" /><path d="M 119.34039704204932 91.81776055985345 l 20.820864665023908 -8.808573043754876 a43.60750681668384,43.60750681668384 0 0,0 0.28651858236498495,0.6938274736469048 l -20.96940493427509 8.44887099965467" fill="#edff1a" stroke="none" /><path d="M 119.47837535516314 92.15188598940014 l 10.809721740722571 -4.35539038021275 a32.65416275310672,32.65416275310672 0 0,0 0.205575759008259,0.5231678834560842 l -10.88309104961253 4.168673491860882" fill="#ff830c" stroke="none" /><path d="M 119.61058180528143 92.48833698450437 l 13.839519105929758 -5.301107578167842 a35.820055014698944,35.820055014698944 0 0,0 0.21559479016558547,0.5776868506578542 l -13.928718484596969 5.062097590480654" fill="#ffae10" stroke="none" /><path d="M 119.85752413597 93.16781622104841 l 3.294311974265817 -1.1334416455581684 a24.483845769789006,24.483845769789006 0 0,0 0.1336849530875527,0.39970099398978065 l -3.3133342211251398 1.076567548646074" fill="#ff0e01" stroke="none" /><path d="M 119.97218684219823 93.5106431181261 l 10.686482431178131 -3.472248625336689 a32.23643258636972,32.23643258636972 0 0,0 0.16693025079255283,0.5292145128169963 l -10.74466816573889 3.2877839460932736" fill="#ff7d0b" stroke="none" /><line stroke="#e1ed5e" stroke-width="0.3" x1="184.98032266829074" x2="189.97916517819016" y1="98.17113171792111" y2="98.06355123074" /><path d="M 185.9800911702706 98.14961562048488 a86.0,86.0 0 0,1 -9.607161424134198,41.387399972396054" fill="none" id="id328" stroke="none" /><text fill="#e1ed5e" style="font-size:6.75px; font-family:Arial;" text-anchor="middle"><textPath startOffset="21.466115282336823" xlink:href="#id328">April</textPath></text><line stroke="#e1ed5e" stroke-width="0.3" x1="174.80103733775053" x2="179.2010983576182" y1="140.37084112569926" y2="142.7455964860345" /><path d="M 175.68104954172406 140.8457921977663 a86.0,86.0 0 0,1 -30.038265399797805,32.042727171017184" fill="none" id="id329" stroke="none" /><text fill="#e1ed5e" style="font-size:6.75px; font-family:Arial;" text-anchor="middle"><textPath startOffset="22.206326154141568" xlink:href="#id329">May</textPath></text><line stroke="#e1ed5e" stroke-width="0.3" x1="143.8653032363475" x2="146.44561519142675" y1="172.8068346515853" y2="177.08958963109032" /><path d="M 144.38136562736335 173.6633856474863 a86.0,86.0 0 0,1 -40.68145358897372,12.25698825130547" fill="none" id="id330" stroke="none" /><text fill="#e1ed5e" style="font-size:6.75px; font-family:Arial;" text-anchor="middle"><textPath startOffset="21.466115282336833" xlink:href="#id330">June</textPath></text><line stroke="#e1ed5e" stroke-width="0.3" x1="102.19456741930631" x2="102.32365962044197" y1="184.97166512339345" y2="189.96999836594603" /><path d="M 102.22038585953345 185.97133177190398 a86.0,86.0 0 0,1 -42.740103519485714,-10.115201625700543" fill="none" id="id331" stroke="none" /><text fill="#e1ed5e" style="font-size:6.75px; font-family:Arial;" text-anchor="middle"><textPath startOffset="22.20632615414155" xlink:href="#id331">July</textPath></text><line stroke="#e1ed5e" stroke-width="0.3" x1="58.666819895761336" x2="56.23545636021788" y1="174.27360380694188" y2="178.64263932499728" /><path d="M 58.180547188652646 175.14741091055294 a86.0,86.0 0 0,1 -31.652253787137756,-30.449443065178592" fill="none" id="id332" stroke="none" /><text fill="#e1ed5e" style="font-size:6.75px; font-family:Arial;" text-anchor="middle"><textPath startOffset="22.20632615414155" xlink:href="#id332">August</textPath></text><line stroke="#e1ed5e" stroke-width="0.3" x1="26.63291911575756" x2="22.317208475507996" y1="142.92168965132927" y2="145.44649492493687" /><path d="M 25.769776987707644 143.4266507060508 a86.0,86.0 0 0,1 -11.730757126820373,-40.83630448921669" fill="none" id="id333" stroke="none" /><text fill="#e1ed5e" style="font-size:6.75px; font-family:Arial;" text-anchor="middle"><textPath startOffset="21.46611528233685" xlink:href="#id333">September</textPath></text><line stroke="#e1ed5e" stroke-width="0.3" x1="15.007084014347285" x2="10.007500721073583" y1="101.09737516637583" y2="101.16192664675087" /><path d="M 14.007167355692545 101.11028546245083 a86.0,86.0 0 0,1 10.666146001902534,-42.60595125391555" fill="none" id="id334" stroke="none" /><text fill="#e1ed5e" style="font-size:6.75px; font-family:Arial;" text-anchor="middle"><textPath startOffset="22.20632615414155" xlink:href="#id334">October</textPath></text><line stroke="#e1ed5e" stroke-width="0.3" x1="26.266209847984243" x2="21.928928074336255" y1="57.711370442889674" y2="55.22380399835377" /><path d="M 25.398753493254645 57.213857153982495 a86.0,86.0 0 0,1 29.58750427330803,-30.492523968695096" fill="none" id="id335" stroke="none" /><text fill="#e1ed5e" style="font-size:6.75px; font-family:Arial;" text-anchor="middle"><textPath startOffset="21.46611528233685" xlink:href="#id335">November</textPath></text><line stroke="#e1ed5e" stroke-width="0.3" x1="56.762969772571076" x2="54.21961505331055" y1="26.818313649435495" y2="22.513508569990535" /><path d="M 56.25429882871897 25.957352633546506 a86.0,86.0 0 0,1 42.265352541879196,-11.944610805530505" fill="none" id="id336" stroke="none" /><text fill="#e1ed5e" style="font-size:6.75px; font-family:Arial;" text-anchor="middle"><textPath startOffset="22.20632615414155" xlink:href="#id336">December</textPath></text></svg>