<?xml version="1.0" encoding="utf-8" ?>
<svg baseProfile="full" height="200mm" version="1.1" viewBox="0,0,200,200" width="200mm" xmlns="http://www.w3.org/2000/svg" xmlns:ev="http://www.w3.org/2001/xml-events" xmlns:xlink="http://www.w3.org/1999/xlink"><defs /><rect fill="#1a1a1a" height="200" width="200" x="0" y="0" /><text alignment-baseline="middle" fill="#e1ed5e" style="dominant-baseline: central; font-size:9.0px; font-family:Arial;" text-anchor="middle" x="100.0" y="100.0">2021</text><line stroke="#e1ed5e" stroke-width="0.3" x1="100.0" x2="100.0" y1="15.0" y2="10.0" /><path d="M 100.0 14.0 a86.0,86.0 0 0,1 42.46469731375804,11.215312516191453" fill="none" id="id265" stroke="none" /><text fill="#e1ed5e" style="font-size:6.75px; font-family:Arial;" text-anchor="middle"><textPath startOffset="22.20632615414155" xlink:href="#id265">January</textPath></text><path d="M 100.72285384407766 79.0124445844662 l 0.2727983823074955 -7.92051009046225 a28.925206562008583,28.925206562008583 0 0,0 0.4974573107096031,0.02142155822840541 l -0.4090965254064301 7.91464080570965" fill="#ff6709" stroke="none" /><path d="M 101.08401301168833 79.027996857942 l 0.21568735666877353 -4.172824378477341 a25.17839494656041,25.17839494656041 0 0,0 0.43263430695352034,0.02609768286848064 l -0.2874837124619058 4.168493426228556" fill="#ff3304" stroke="none" /><path d="M 101.44485096284872 79.0497635885617 l 0.2838300906942609 -4.115516169917483 a25.125291852128257,25.125291852128257 0 0,0 0.4312096037448313,0.03347016438102841 l -0.3546298838014334 4.11002074334799" fill="#ff3304" stroke="none" /><path d="M 101.80526077348638 79.07773832637324 l 0.3543123188048979 -4.106340290056432 a25.12159772381993,25.12159772381993 0 0,0 0.4305062756261766,0.04088175824382308 l -0.4249437215213187 4.09963298729743" fill="#ff3304" stroke="none" /><path d="M 102.16513564639614 79.11191278185805 l 0.4275275843259612 -4.124560733377876 a25.146659026093445,25.146659026093445 0 0,0 0.4301674865552605,0.04833432928515103 l -0.49846177439094697 4.116590450622125" fill="#ff3304" stroke="none" /><path d="M 102.52436894288641 79.15227682838746 l 0.49619099287165247 -4.097837001515222 a25.127768597244064,25.127768597244064 0 0,0 0.42894928321785986,0.05568992788853749 l -0.5666550045973584 4.088688750462548" fill="#ff3304" stroke="none" /><path d="M 103.59715602781102 79.31037775812273 l 0.7057497597569171 -4.0592334093308144 a25.120128468242758,25.120128468242758 0 0,0 0.4253733448490018,0.07773425985316026 l -0.7755182257088198 4.046483668126916" fill="#ff3304" stroke="none" /><path d="M 103.95276090670814 79.375362276772 l 1.18471415792122 -6.181578114486379 a27.294080998960528,27.294080998960528 0 0,0 0.4606637680360329,0.0924048181683015 l -1.2909443354243781 6.160269340240869" fill="#ff5107" stroke="none" /><path d="M 104.307194497241 79.44645832069477 l 0.8369634638872367 -3.9939137761438883 a25.080668461312932,25.080668461312932 0 0,0 0.4217819309621811,0.09218519352123668 l -0.9055881190029458 3.978915084526781" fill="#ff3204" stroke="none" /><path d="M 104.66035177308747 79.52364482259891 l 0.9133855971488345 -4.013175144663284 a25.115804658972788,25.115804658972788 0 0,0 0.4207211981858534,0.09957111465385243 l -0.9823304822972114 3.996858117868564" fill="#ff3304" stroke="none" /><path d="M 105.01212808612495 79.60689891045804 l 0.9969083888884951 -4.056171989677413 a25.176883712252458,25.176883712252458 0 0,0 0.41996374166727646,0.10705810863376078 l -1.0665810192407965 4.038410884874784" fill="#ff3304" stroke="none" /><path d="M 106.0581310904928 79.89281104454417 l 1.2009854537161522 -3.9861206517173935 a25.163114688557798,25.163114688557798 0 0,0 0.41365120279275863,0.12852344225858928 l -1.2694220292196292 3.9648570745762837" fill="#ff3304" stroke="none" /><path d="M 106.40334571778207 80.00007090966166 l 1.2553290024159867 -3.9208395329404535 a25.116896105972973,25.116896105972973 0 0,0 0.41062199453014553,0.13537561563822728 l -1.3226338191885496 3.89865019304299" fill="#ff3304" stroke="none" /><path d="M 106.74666289553966 80.11325718540242 l 0.7940981728303066 -2.340716644232896 a23.4717496468456,23.4717496468456 0 0,0 0.3814919309804716,0.1330950439286626 l -0.8342721078740519 2.326700747132026" fill="#ff1b02" stroke="none" /><path d="M 107.08798089147638 80.2323363322302 l 0.4888513487520688 -1.3633570961354127 a22.448350169247583,22.448350169247583 0 0,0 0.36261319688833116,0.13355350063262528 l -0.5122468714129764 1.3547403276964627" fill="#ff0d01" stroke="none" /><path d="M 107.4271985657038 80.35727306442388 l 0.26565512927344376 -0.7025786529323726 a21.751125429782242,21.751125429782242 0 0,0 0.349071211906689,0.1354342070731378 l -0.2777095061797998 0.697901741968688" fill="#ff0300" stroke="none" /><path d="M 108.09893153111575 80.62456947434976 l 5.097379304414934 -12.194684965063868 a34.217171299874735,34.217171299874735 0 0,0 0.5414724659723545,0.23183025163448684 l -5.306535528177604 12.105135185466589" fill="#ffad10" stroke="none" /><path d="M 108.43124777332544 80.76684994638697 l 0.29373074880763594 -0.6700511856679985 a21.731605319971216,21.731605319971216 0 0,0 0.3413081918547122,0.15313503679021578 l -0.3052210591291283 0.6648958183612514" fill="#ff0200" stroke="none" /><path d="M 108.76106565485865 80.91482961587045 l 1.7617461810359538 -3.837800943771515 a25.222850422452623,25.222850422452623 0 0,0 0.39302220149322087,0.18452919345343421 l -1.8275465938287727 3.8069067676780777" fill="#ff3404" stroke="none" /><path d="M 109.08828744355905 81.06846463323043 l 0.6255207194405142 -1.3030032001384164 a22.445369679362457,22.445369679362457 0 0,0 0.3468651135012366,0.1702052047764082 l -0.6478570999521827 1.2920428352271762" fill="#ff0d01" stroke="none" /><path d="M 109.41281617654863 81.2277094730956 l 0.37686764412715973 -0.7515996034609816 a21.840791998720647,21.840791998720647 0 0,0 0.33462122706399,0.1714059892611473 l -0.3897493587799053 0.7450010888873337" fill="#ff0400" stroke="none" /><path d="M 109.73455568895987 81.39251694778311 l 2.9793282403193513 -5.694949159477973 a27.427195554252513,27.427195554252513 0 0,0 0.4164427220147665,0.2224492797755103 l -3.0769160088624288 5.642821153200709" fill="#ff5307" stroke="none" /><line stroke="#e1ed5e" stroke-width="0.3" x1="143.23703022742887" x2="145.7803849466894" y1="26.81831364943548" y2="22.513508569990506" /><path d="M 143.74570117128098 25.957352633546492 a86.0,86.0 0 0,1 28.547481713284135,27.462654790039103" fill="none" id="id266" stroke="none" /><text fill="#e1ed5e" style="font-size:6.75px; font-family:Arial;" text-anchor="middle"><textPath startOffset="19.985693538727396" xlink:href="#id266">February</textPath></text><path d="M 110.68208982089419 81.91981866633111 l 0.8197768670152764 -1.3875294682311927 a22.611605453237026,22.611605453237026 0 0,0 0.3334005139067768,0.20087007918502128 l -0.8435394471396906 1.3732127795875568" fill="#ff0f01" stroke="none" /><path d="M 110.99172775467656 82.1063720568725 l 2.186751488569806 -3.559851409520263 a25.177849223060313,25.177849223060313 0 0,0 0.3673338469716463,0.23002442127437303 l -2.247704487913716 3.5216826469229456" fill="#ff3304" stroke="none" /><path d="M 111.2981086023043 82.29822771554956 l 2.2547283527061883 -3.5326875734544325 a25.190904608331778,25.190904608331778 0 0,0 0.36350832126891724,0.23643592379509032 l -2.315203699759386 3.4933527254998142" fill="#ff3404" stroke="none" /><path d="M 111.90073688211348 82.69761687909136 l 0.47671619655508973 -0.6930937432232109 a21.841211786028413,21.841211786028413 0 0,0 0.3079286992191221,0.2157237322297746 l -0.48857603535786276 0.6847851682295006" fill="#ff0400" stroke="none" /><path d="M 112.77801427241765 83.33499621200491 l 16.07010094613267 -20.958521991859868 a47.410372744476135,47.410372744476135 0 0,0 0.6433529895205882,0.5021472130168446 l -16.428486490812688 20.678796389619798" fill="#b2ff20" stroke="none" /><path d="M 113.34407831869373 83.78471172551755 l 2.6703183352091067 -3.2448836522034465 a25.20236480183374,25.20236480183374 0 0,0 0.3326021645540499,0.27854474768782644 l -2.725778036722274 3.1984377471218006" fill="#ff3404" stroke="none" /><path d="M 114.16331599549186 84.49514656593476 l 3.425390366941906 -3.7498404759731425 a26.078838721714334,26.078838721714334 0 0,0 0.3288319472997919,0.3056134576149039 l -3.489430198036545 3.690322432283598" fill="#ff4006" stroke="none" /><path d="M 114.42810811169701 84.74124197986012 l 2.93414281269611 -3.10306623909797 a25.270622218076173,25.270622218076173 0 0,0 0.31349621581662673,0.3015831112328687 l -2.9871222721251547 3.052100041102799" fill="#ff3505" stroke="none" /><path d="M 115.68641384162765 86.03803664274999 l 5.650301119494947 -5.029148024800005 a28.564273434793037,28.564273434793037 0 0,0 0.32373949945085084,0.3700902119034561 l -5.736032482523647 4.931142256693601" fill="#ff6209" stroke="none" /><path d="M 115.9244219780498 86.31012108654704 l 5.9681248103614655 -5.130666978483866 a28.87034036088382,28.87034036088382 0 0,0 0.32072114243850974,0.3796326719914122 l -6.055556566287093 5.0271753568633475" fill="#ff6609" stroke="none" /><path d="M 116.15771136456269 86.58626213691792 l 18.903798797641997 -15.693472668669536 a45.56905967643061,45.56905967643061 0 0,0 0.4958380405106908,0.6078388091162555 l -19.171135330229095 15.36574968994518" fill="#c7ff1e" stroke="none" /><path d="M 116.38621287248628 86.86637796730983 l 3.181966785213617 -2.5503604403760534 a25.07789786508169,25.07789786508169 0 0,0 0.2670747392765172,0.3391577970167648 l -3.225395605084098 2.49521024940625" fill="#ff3204" stroke="none" /><path d="M 116.60985879189232 87.15038557335679 l 6.508497841302372 -5.035063139621501 a29.228754764252777,29.228754764252777 0 0,0 0.3044300906776739,0.400594314437701 l -6.594203872204159 4.922284049302767" fill="#ff6b09" stroke="none" /><path d="M 116.82858285166822 87.43820079747576 l 3.1673519879580385 -2.3642893776109464 a24.95246541752179,24.95246541752179 0 0,0 0.25396546522310437,0.346408609152184 l -3.2075800656947693 2.3094183247872686" fill="#ff3004" stroke="none" /><path d="M 117.04232023915458 87.72973835380427 l 1.1659560692950228 -0.8394740761501831 a22.436722060822518,22.436722060822518 0 0,0 0.22296479747911793,0.3153678938940878 l -1.1802334865780237 0.819279681924302" fill="#ff0c01" stroke="none" /><path d="M 117.2510076193507 88.02491185347247 l 2.4357467306783196 -1.6908161219389097 a23.96508369092993,23.96508369092993 0 0,0 0.23231927227021829,0.3408998653640349 l -2.4644904686172713 1.6486382333044685" fill="#ff2203" stroke="none" /><path d="M 117.45458315368197 88.32363383020206 l 3.169682331644802 -2.120381290137911 a24.813515818651883,24.813515818651883 0 0,0 0.23443262033428036,0.3570569642667066 l -3.2057115873370075 2.0655062618935305" fill="#ff2e04" stroke="none" /><line stroke="#e1ed5e" stroke-width="0.3" x1="172.23445277983987" x2="176.4835382374775" y1="55.19839476539836" y2="52.563006222186495" /><path d="M 173.08426987136738 54.67131705675599 a86.0,86.0 0 0,1 12.851231095245387,41.99856678651699" fill="none" id="id267" stroke="none" /><text fill="#e1ed5e" style="font-size:6.75px; font-family:Arial;" text-anchor="middle"><textPath startOffset="22.20632615414155" xlink:href="#id267">March</textPath></text><path d="M 117.84615892207809 88.93136811851018 l 1.2909438276204837 -0.80067548821025 a22.519084330605825,22.519084330605825 0 0,0 0.20147524679909898,0.3311723313885008 l -1.3045348727058066 0.7783353836146678" fill="#ff0e01" stroke="none" /><path d="M 118.03404312379186 89.2402003453031 l 9.057481477670475 -5.40403976007411 a31.547114128841386,31.547114128841386 0 0,0 0.2742200229809735,0.4687309090009439 l -9.149161175121776 5.247329438719271" fill="#ff8a0c" stroke="none" /><path d="M 118.21658344932153 89.55222093294921 l 3.5948608400750715 -2.0617648714636334 a25.14414030224686,25.14414030224686 0 0,0 0.21209963432447645,0.3773015827500534 l -3.6298181156919807 1.9995797787787861" fill="#ff3304" stroke="none" /><path d="M 118.3937258080291 89.86733742301442 l 6.966919638808763 -3.837909004287133 a28.95408792878275,28.95408792878275 0 0,0 0.2367229710423054,0.4386117133528522 l -7.031950709069533 3.717416307601822" fill="#ff6809" stroke="none" /><path d="M 118.56541770881063 90.18545643968196 l 1.3168091190010776 -0.6961265650880987 a22.48948932540846,22.48948932540846 0 0,0 0.17797814185376878,0.3437971207567101 l -1.3285966940149627 0.6733567220710438" fill="#ff0d01" stroke="none" /><path d="M 118.89224826269711 90.83032412892265 l 32.080466591360626 -15.570803238730365 a56.65958847517258,56.65958847517258 0 0,0 0.4183145206368368,0.8810770639644494 l -32.34373930583922 15.016283759125375" fill="#50ff2b" stroke="none" /><path d="M 119.04729006885535 91.15688171328212 l 4.91837541241316 -2.2834626549617183 a26.422602548042327,26.422602548042327 0 0,0 0.1879750285940899,0.41417805847281747 l -4.956952757970597 2.198462587646838" fill="#ff4506" stroke="none" /><path d="M 119.196687751892 91.48605970444005 l 9.192475580970436 -4.0769631342814 a31.056004957488206,31.056004957488206 0 0,0 0.212525544169658,0.4905382576248354 l -9.261291834982774 3.918125732069962" fill="#ff840c" stroke="none" /><path d="M 119.34039704204932 91.81776055985345 l 3.5354126200869733 -1.4957083101434756 a24.838787014579278,24.838787014579278 0 0,0 0.16320066343165113,0.3952033514602485 l -3.5606349704048217 1.434630388229924" fill="#ff2f04" stroke="none" /><path d="M 119.47837535516314 92.15188598940014 l 1.398111671175621 -0.5633190445746326 a22.50733028598843,22.50733028598843 0 0,0 0.14169591613098204,0.3606006510409551 l -1.4076011371883035 0.539169388637893" fill="#ff0d01" stroke="none" /><path d="M 119.85752413597 93.16781622104841 l 29.88599988361641 -10.282583177261685 a52.605450571710335,52.605450571710335 0 0,0 0.2872325392813187,0.8587887328034779 l -30.0585697166695 9.766621341535892" fill="#79ff26" stroke="none" /><path d="M 120.6074358757038 95.95851677861258 l 4.048628720253581 -0.7940078106380758 a25.125753618166797,25.125753618166797 0 0,0 0.07958196729198087,0.42513005146709504 l -4.061696411455421 0.724199681708418" fill="#ff3304" stroke="none" /><path d="M 120.67395015179393 96.31383870115 l 1.4383435614282805 -0.2564563777922686 a22.461027745942054,22.461027745942054 0 0,0 0.06458950732952674,0.38121092846123955 l -1.4425449302780302 0.23165966101519117" fill="#ff0d01" stroke="none" /><path d="M 120.73433829027371 96.67025291283417 l 3.272086815331547 -0.5254675307103861 a24.31401090114342,24.31401090114342 0 0,0 0.06280437134474513,0.4138023370179642 l -3.280647080115592 0.4690660813003397" fill="#ff2703" stroke="none" /><path d="M 120.78858239683441 97.02765380044208 l 4.078565942428592 -0.5831523163633312 a25.120044510781206,25.120044510781206 0 0,0 0.05751772590112382,0.42857386641581513 l -4.087999667387552 0.5128601078828517" fill="#ff3304" stroke="none" /><path d="M 120.91429891909075 98.10471618934814 l 20.676484404408676 -1.8737327177197673 a41.76121098643354,41.76121098643354 0 0,0 0.05871530050940177,0.7164753866172395 l -20.70567418873757 1.517543413894759" fill="#f3ff19" stroke="none" /><path d="M 120.94382443527127 98.46500227214037 l 4.097091346504599 -0.3002806830793828 a25.108080572509927,25.108080572509927 0 0,0 0.027881219045926102,0.4313101181208294 l -4.10165315655494 0.22971150070551816" fill="#ff3204" stroke="none" /><line stroke="#e1ed5e" stroke-width="0.3" x1="184.98032266829074" x2="189.97916517819016" y1="98.17113171792111" y2="98.06355123074" /><path d="M 185.9800911702706 98.14961562048488 a86.0,86.0 0 0,1 -9.607161424134198,41.387399972396054" fill="none" id="id268" stroke="none" /><text fill="#e1ed5e" style="font-size:6.75px; font-family:Arial;" text-anchor="middle"><textPath startOffset="21.466115282336823" xlink:href="#id268">April</textPath></text><path d="M 120.95626037817324 101.35467743843564 l 2.096156660897878 0.13550204495943918 a23.100531730589836,23.100531730589836 0 0,0 -0.02906645452408793,0.39658867857554236 l -2.0935136477094525 -0.17156386003175178" fill="#ff1602" stroke="none" /><path d="M 120.8583938346157 102.4346265915055 l 4.112818390920583 0.4800550368336946 a25.140740025053972,25.140740025053972 0 0,0 -0.05387120750213269,0.42940652814586355 l -4.103945674171602 -0.5507793192669531" fill="#ff3304" stroke="none" /><path d="M 120.81339534386255 102.79330883721812 l 6.605863467038877 0.8865548602274146 a27.66508902156241,27.66508902156241 0 0,0 -0.06740526349992593,0.47143225592529403 l -6.58962415252235 -1.000132588133118" fill="#ff5608" stroke="none" /><path d="M 120.64145759157962 103.86396538481128 l 3.915310781352246 0.7329242744996353 a24.983319784642447,24.983319784642447 0 0,0 -0.0827662491384758,0.4220233212320826 l -3.902114599238106 -0.8002113227996628" fill="#ff3104" stroke="none" /><path d="M 120.49622156327973 104.57218783832717 l 3.94102532573559 0.8791429195491324 a25.037892134651777,25.037892134651777 0 0,0 -0.0974563396846809,0.41983936069222555 l -3.925308420120356 -0.9468509375899228" fill="#ff3104" stroke="none" /><path d="M 120.41448212921028 104.9243191809786 l 18.246977114474586 4.401480225213075 a39.77032770063168,39.77032770063168 0 0,0 -0.1662564189949138,0.6641117496501956 l -18.16850938118461 -4.714919814260667" fill="#fff316" stroke="none" /><path d="M 120.13307415673323 105.97154293290107 l 30.81762508158588 9.140619551296554 a53.144625389802506,53.144625389802506 0 0,0 -0.2676799310205684,0.8747935024323735 l -30.65571837805918 -9.669740026280985" fill="#74ff27" stroke="none" /><path d="M 119.79798401119884 107.00284435728193 l 6.4447400776346795 2.2796013806902664 a27.836026413283935,27.836026413283935 0 0,0 -0.1636701872408696,0.4503500617385114 l -6.404545629388584 -2.3901992394349088" fill="#ff5808" stroke="none" /><path d="M 119.67450827220406 107.3425965602758 l 11.102287419394901 4.143413207028521 a32.85025986833338,32.85025986833338 0 0,0 -0.20227269132454104,0.5280701692836334 l -11.029320448476854 -4.333906943145299" fill="#ff9c0e" stroke="none" /><path d="M 119.41010516605496 108.01547362559984 l 3.610701710885303 1.4910524227412831 a24.906456728590847,24.906456728590847 0 0,0 -0.16704999962848743,0.3948568533495848 l -3.5845007300645064 -1.5529838017570314" fill="#ff3004" stroke="none" /><path d="M 119.26925614724726 108.34839909993367 l 3.7639607324433535 1.6307347907357985 a25.102035635278128,25.102035635278128 0 0,0 -0.1751870054163474,0.3950004491951186 l -3.735332642295733 -1.6952835764236047" fill="#ff3204" stroke="none" /><path d="M 119.12269723197855 108.67885076344098 l 21.597513904785014 9.802048203091113 a44.717772995015864,44.717772995015864 0 0,0 -0.324151434677892,0.6981933524307774 l -21.42558785326729 -10.172361622800722" fill="#d0ff1d" stroke="none" /><path d="M 118.97047184881838 109.00673069616215 l 3.6963447903459707 1.7549369542372133 a25.09179282496868,25.09179282496868 0 0,0 -0.18860275157712308,0.38857753053862265 l -3.6655887821541335 -1.8183034407411114" fill="#ff3204" stroke="none" /><path d="M 118.81262510543309 109.33194174019688 l 3.54923521047803 1.7605866284376739 a24.96191063194648,24.96191063194648 0 0,0 -0.19425279238804607,0.38327918814880374 l -3.518403748303715 -1.821420028289172" fill="#ff3004" stroke="none" /><line stroke="#e1ed5e" stroke-width="0.3" x1="174.80103733775053" x2="179.2010983576182" y1="140.37084112569926" y2="142.7455964860345" /><path d="M 175.68104954172406 140.8457921977663 a86.0,86.0 0 0,1 -30.038265399797805,32.042727171017184" fill="none" id="id269" stroke="none" /><text fill="#e1ed5e" style="font-size:6.75px; font-family:Arial;" text-anchor="middle"><textPath startOffset="22.206326154141568" xlink:href="#id269">May</textPath></text><path d="M 118.48025628344425 109.97397251340804 l 15.467899147980246 8.348174320522439 a38.57691436338922,38.57691436338922 0 0,0 -0.3204154245497134,0.5816470665091523 l -15.321907313979022 -8.613191905429396" fill="#ffe415" stroke="none" /><path d="M 118.30583269289576 110.29060199501025 l 19.138826389709735 10.758868407255536 a42.95558983448386,42.95558983448386 0 0,0 -0.3678798612299552,0.6414295467402115 l -18.9507945323274 -11.086717799854062" fill="#e5ff1a" stroke="none" /><path d="M 118.12598468904814 110.60418214915192 l 6.850072863253186 4.007474441969974 a28.936204989472,28.936204989472 0 0,0 -0.25521612136983773,0.4277568994197216 l -6.780075866185122 -4.1247934352758" fill="#ff6709" stroke="none" /><path d="M 117.55443506779139 111.5257021239791 l 1.68581108590001 1.1068517066114774 a23.016700205229352,23.016700205229352 0 0,0 -0.22029929833064377,0.32931756040300236 l -1.666508682158645 -1.1357061812202867" fill="#ff1502" stroke="none" /><path d="M 117.35343817320211 111.8261652097733 l 14.181159463996678 9.664294361352988 a38.16111503504891,38.16111503504891 0 0,0 -0.3745951254764927,0.5396322168735274 l -14.01270343135805 -9.906967840413536" fill="#ffdf14" stroke="none" /><path d="M 117.14729908036423 112.12312394758627 l 3.3039480217834196 2.3358880717447685 a25.046287880807057,25.046287880807057 0 0,0 -0.2519181964954519,0.3498923415440664 l -3.2632500329123646 -2.392414018739966" fill="#ff3204" stroke="none" /><path d="M 115.80600337817218 113.82643327865902 l 3.117893094214992 2.7274029876957124 a25.142461153015805,25.142461153015805 0 0,0 -0.28775085886608504,0.32329114036195733 l -3.0704833857005687 -2.7806682977985364" fill="#ff3304" stroke="none" /><path d="M 115.32070863581623 114.36230785411682 l 7.486440039595952 7.0181190136793665 a31.261616780831044,31.261616780831044 0 0,0 -0.37140802762470343,0.389419832094775 l -7.364525460592284 -7.145945962356649" fill="#ff870c" stroke="none" /><path d="M 115.07121518719521 114.62390073753431 l 2.9881930812864352 2.8995033554060856 a25.163702390788668,25.163702390788668 0 0,0 -0.30431229192634357,0.3082667450796124 l -2.937840164304556 -2.9505105944663623" fill="#ff3304" stroke="none" /><path d="M 114.81725581225074 114.88116024355365 l 2.829906690238399 2.842111620758022 a25.01073189583944,25.01073189583944 0 0,0 -0.30769160840030296,0.301140999318769 l -2.780565129462302 -2.890402722999363" fill="#ff3104" stroke="none" /><path d="M 114.55890576462653 115.13401014063108 l 11.107767190993249 11.546545051256693 a37.02202217543112,37.02202217543112 0 0,0 -0.4630646935178396,0.4378565707619762 l -10.907366663084602 -11.73603625876459" fill="#ffd113" stroke="none" /><path d="M 114.29624159901734 115.38237550388516 l 15.022942128497494 16.16428593439329 a43.067463152002986,43.067463152002986 0 0,0 -0.547367872313754,0.5000075733916252 l -14.742474706716877 -16.4204862743715" fill="#e4ff1b" stroke="none" /><path d="M 113.20401910651253 116.32954008644616 l 2.555320299860787 3.1601897069132168 a25.06404488392548,25.06404488392548 0 0,0 -0.3378185765043389,0.26838350820229373 l -2.500544230639097 -3.2037071291206365" fill="#ff3204" stroke="none" /><path d="M 112.92097659922987 116.55440617244103 l 7.242491673593091 9.27910889276963 a32.770962045896745,32.770962045896745 0 0,0 -0.44766893098085037,0.3432534466936037 l -7.081694014118747 -9.402401681290605" fill="#ff9a0e" stroke="none" /><path d="M 112.63410532772338 116.77436683061366 l 1.4167529916228414 1.8810302568637263 a23.354880860364084,23.354880860364084 0 0,0 -0.3232037805764578,0.2390984301593458 l -1.3841642406278194 -1.905138635762841" fill="#ff1a02" stroke="none" /><path d="M 112.34349029814194 116.9893568818739 l 2.3923881213396783 3.2928397569619285 a25.07017377861883,25.07017377861883 0 0,0 -0.3513079537679519,0.25064889720874356 l -2.335352839722842 -3.3335329160148914" fill="#ff3204" stroke="none" /><path d="M 112.04921762599082 117.19931262002967 l 4.521973199554512 6.454761888503806 a28.881128894693354,28.881128894693354 0 0,0 -0.40962120979064437,0.281741203219612 l -4.410195105140984 -6.531643881088512" fill="#ff6709" stroke="none" /><path d="M 111.45004920935366 117.60387380957326 l 34.35014762806101 52.81162142871979 a84.0,84.0 0 0,0 -1.2188727918122781,0.7779422847047646 l -33.4359930342018 -53.39507814224836" fill="#4dd2ff" stroke="none" /><path d="M 111.1453310114006 117.79835938074945 l 2.182532016855779 3.4853598476578114 a25.112320424318348,25.112320424318348 0 0,0 -0.36833890612641723,0.22626384042772898 l -2.1222139107970532 -3.5224121549139187" fill="#ff3304" stroke="none" /><line stroke="#e1ed5e" stroke-width="0.3" x1="143.8653032363475" x2="146.44561519142675" y1="172.8068346515853" y2="177.08958963109032" /><path d="M 144.38136562736335 173.6633856474863 a86.0,86.0 0 0,1 -40.68145358897372,12.25698825130547" fill="none" id="id270" stroke="none" /><text fill="#e1ed5e" style="font-size:6.75px; font-family:Arial;" text-anchor="middle"><textPath startOffset="21.466115282336833" xlink:href="#id270">June</textPath></text><path d="M 110.5260780823613 118.17145234162733 l 0.7923385410113483 1.3678353821590106 a22.58075108611637,22.58075108611637 0 0,0 -0.33801366417934064,0.1919329801357751 l -0.7686761099108085 -1.3812715280894141" fill="#ff0e01" stroke="none" /><path d="M 110.21172684928248 118.3499491758327 l 1.0435386502748678 1.8751854096945746 a23.145994696020683,23.145994696020683 0 0,0 -0.3498100339583912,0.19074432173643563 l -1.0111058044478278 -1.892870383190781" fill="#ff1702" stroke="none" /><path d="M 109.89434966115114 118.52300852407294 l 3.754032665554403 7.027847351780611 a28.96764705882353,28.96764705882353 0 0,0 -0.4418381373972752,0.23114883092625832 l -3.6325036256306324 -7.091425601651586" fill="#ff6809" stroke="none" /><path d="M 108.92500713936063 119.00905698771935 l 1.7410293718548866 3.7081568709258925 a25.096536421546418,25.096536421546418 0 0,0 -0.39261978142221904,0.18023248486671528 l -1.6769415946652482 -3.737576426126682" fill="#ff3204" stroke="none" /><path d="M 108.59647513512805 119.15986991738527 l 1.7866629899672135 3.9821240608367723 a25.364570617553774,25.364570617553774 0 0,0 -0.39988975845978403,0.17529991843204856 l -1.7178525568496756 -4.012288532563275" fill="#ff3605" stroke="none" /><path d="M 108.2653958097858 119.30500536409082 l 4.675927545673719 10.921292631195904 a32.880190703376954,32.880190703376954 0 0,0 -0.5222134293686888,0.21828525582887504 l -4.487242656807569 -11.000162930044752" fill="#ff9c0e" stroke="none" /><path d="M 107.93186726928326 119.44442032107085 l 1.5448368025138017 3.7870598556109987 a25.090029718276075,25.090029718276075 0 0,0 -0.40129581827867455,0.15968388789490987 l -1.479419908193261 -3.813090587911977" fill="#ff3204" stroke="none" /><path d="M 106.2309692047433 120.05430185196036 l 5.981179897815502 19.250357875362173 a41.158144540099684,41.158144540099684 0 0,0 -0.6783744681397171,0.20438866245988055 l -5.648930455235539 -19.35046190692778" fill="#faff18" stroke="none" /><path d="M 105.88484417918355 120.15858648285463 l 1.7765229218684444 6.085495192198467 a27.339501985660597,27.339501985660597 0 0,0 -0.4528838390644554,0.12798949665401183 l -1.6715079146993832 -6.115173482190998" fill="#ff5207" stroke="none" /><path d="M 105.53697534728816 120.25689768951611 l 1.8639974631908582 6.819392093531337 a28.069554092593087,28.069554092593087 0 0,0 -0.4671703533990919,0.1233839363779681 l -1.746336666980269 -6.850467379212889" fill="#ff5c08" stroke="none" /><path d="M 104.13013068566511 120.58985236759428 l 1.2211235158066247 6.087641003787546 a27.2089061542152,27.2089061542152 0 0,0 -0.4600020408012217,0.08816048593363855 l -1.1161538604336987 -6.107758688069653" fill="#ff5007" stroke="none" /><path d="M 103.7750983002368 120.6578951692458 l 1.4207933963000456 7.774791198438966 a28.903545536927957,28.903545536927957 0 0,0 -0.4901917843372063,0.08522612502044795 l -1.2867526404907894 -7.79809590198042" fill="#ff6709" stroke="none" /><path d="M 103.41894727170886 120.7198165907248 l 0.6732188665457695 4.0799024763175105 a25.13507289639916,25.13507289639916 0 0,0 -0.427492695437113,0.0667655671959538 l -0.6028903075001393 -4.09088635086057" fill="#ff3304" stroke="none" /><path d="M 103.06178313531738 120.77559828337769 l 0.600601253502281 4.075354073032038 a25.119372851088784,25.119372851088784 0 0,0 -0.4283109154901259,0.05935999010898111 l -0.5303617468253246 -4.085088628633622" fill="#ff3304" stroke="none" /><path d="M 102.70371172650421 120.8252237178851 l 0.5318047977414799 4.096203666479795 a25.13058117220608,25.13058117220608 0 0,0 -0.42946078216600286,0.05200171988870791 l -0.4612165925240968 -4.104750915093853" fill="#ff3304" stroke="none" /><path d="M 101.62511606390274 120.93702456842531 l 0.3774142449267538 4.862379674919074 a25.87700498414137,25.87700498414137 0 0,0 -0.444391030323362,0.030647807281711233 l -0.29366045382446143 -4.868155826717071" fill="#ff3d05" stroke="none" /><path d="M 101.26447882468166 120.96189622390904 l 0.24841756392272396 4.118141872763576 a25.125627681974464,25.125627681974464 0 0,0 -0.43193578008539757,0.022326146084124417 l -0.17749371542384684 -4.121807825609902" fill="#ff3304" stroke="none" /><path d="M 100.90346689309514 120.98055641714683 l 0.17532649293981045 4.071479989645639 a25.075253205042777,25.075253205042777 0 0,0 -0.4313894599803287,0.014857925245099293 l -0.10521668128482946 -4.073894713316832" fill="#ff3204" stroke="none" /><line stroke="#e1ed5e" stroke-width="0.3" x1="102.19456741930631" x2="102.32365962044197" y1="184.97166512339345" y2="189.96999836594603" /><path d="M 102.22038585953345 185.97133177190398 a86.0,86.0 0 0,1 -42.740103519485714,-10.115201625700543" fill="none" id="id271" stroke="none" /><text fill="#e1ed5e" style="font-size:6.75px; font-family:Arial;" text-anchor="middle"><textPath startOffset="22.20632615414155" xlink:href="#id271">July</textPath></text><path d="M 100.18074693466247 120.99922214144158 l 0.052788592569744226 6.132991322791862 a27.133218502625336,27.133218502625336 0 0,0 -0.4670710544643951,0.0 l 0.05278859256974 -6.132991322791862" fill="#ff4f07" stroke="none" /><path d="M 99.81925306533755 120.99922214144158 l -0.017933300504482958 2.0834951459959834 a23.083572323356165,23.083572323356165 0 0,0 -0.3973015970923276,-0.006839907298106904 l 0.05379458748947851 -2.082877761418717" fill="#ff1602" stroke="none" /><path d="M 99.09653310690486 120.98055641714683 l -0.39548740101812235 9.18411708580199 a30.192628401609852,30.192628401609852 0 0,0 -0.5190428142351871,-0.026828584777670056 l 0.5535182836667983 -9.175948694262118" fill="#ff780b" stroke="none" /><path d="M 98.73552117531835 120.96189622390904 l -0.24936038742869088 4.133771528321134 a25.14128574855407,25.14128574855407 0 0,0 -0.4317563753726938,-0.029776447502650787 l 0.32047952358031473 -4.128866736302198" fill="#ff3304" stroke="none" /><path d="M 98.37488393609728 120.93702456842531 l -0.31765975077826586 4.0925384679740295 a25.104848210240146,25.104848210240146 0 0,0 -0.4305549397692417,-0.03715009188399387 l 0.38805900828904927 -4.086464123811372" fill="#ff3204" stroke="none" /><path d="M 98.01472825383883 120.90594882070398 l -0.3876105640861461 4.081741772036124 a25.10010461366241,25.10010461366241 0 0,0 -0.4297704495648838,-0.04454746432274627 l 0.4578136102566232 -4.074464939257617" fill="#ff3204" stroke="none" /><path d="M 97.65516085044442 120.86867818915974 l -0.746439004336359 6.643182911836248 a27.684986939950427,27.684986939950427 0 0,0 -0.47311345742517336,-0.05728745093910358 l 0.8606798848129218 -6.629349932171795" fill="#ff5608" stroke="none" /><path d="M 96.58105272829116 120.7198165907248 l -0.6690772008963844 4.054802775791153 a25.109633785548656,25.109633785548656 0 0,0 -0.42584866184206277,-0.0740392484199115 l 0.7387748342104972 -4.042684948850235" fill="#ff3204" stroke="none" /><path d="M 96.22490169976321 120.6578951692458 l -0.7466909795973979 4.08600326496848 a25.153669474133107,25.153669474133107 0 0,0 -0.42525558455602924,-0.08150124489698242 l 0.8169141787251222 -4.072544821723029" fill="#ff3304" stroke="none" /><path d="M 95.86986931433489 120.58985236759428 l -0.8156179744333306 4.066082882128996 a25.147078813401208,25.147078813401208 0 0,0 -0.42367862877569107,-0.08878597601009558 l 0.8854880646384085 -4.05144092539236" fill="#ff3304" stroke="none" /><path d="M 95.51606077576429 120.51570834832081 l -0.8781470916154425 4.017853212892145 a25.112698232895333,25.112698232895333 0 0,0 -0.42151048197490804,-0.09593441337717702 l 0.9471777229832131 -4.0021420659372815" fill="#ff3304" stroke="none" /><path d="M 95.16358092515715 120.4354850818985 l -0.19772870329436976 0.8354697771029119 a21.85854900183907,21.85854900183907 0 0,0 -0.3653986584464371,-0.08980610014094245 l 0.21208064648401742 -0.8319424186479396" fill="#ff0400" stroke="none" /><path d="M 94.11515582081647 120.15858648285463 l -4.130244925193915 14.148191011481373 a35.73873237559636,35.73873237559636 0 0,0 -0.5890509360465003,-0.17747621497230104 l 4.373170835680661 -14.074999427403347" fill="#ffc111" stroke="none" /><path d="M 93.76903079525671 120.05430185196036 l -1.2228935136631367 3.935868538258219 a25.121471787627602,25.121471787627602 0 0,0 -0.41184697697049144,-0.13186039632708013 l 1.2904618357245685 -3.9142352952714323" fill="#ff3304" stroke="none" /><path d="M 93.42475214034765 119.94407469862007 l -1.294930740024287 3.9277903981477036 a25.13574455609158,25.13574455609158 0 0,0 -0.4097488641289764,-0.1390090616588686 l 1.3623493370904893 -3.904918349590712" fill="#ff3304" stroke="none" /><path d="M 93.08242187328487 119.8279376855182 l -1.3574956564437295 3.8910061861649465 a25.12101002158906,25.12101002158906 0 0,0 -0.40705658702720793,-0.14595600972828307 l 1.424271804100664 -3.8670626353967057" fill="#ff3304" stroke="none" /><path d="M 92.7421414339146 119.70592522655815 l -2.1523161297184803 5.84378716255744 a27.227544710679922,27.227544710679922 0 0,0 -0.4384020801077013,-0.16576615412191958 l 2.2525884305864645 -5.805872758328888" fill="#ff5007" stroke="none" /><path d="M 91.7346041902142 119.30500536409082 l -1.6299367586463567 3.8069487043249275 a25.141201791092513,25.141201791092513 0 0,0 -0.396368196537545,-0.17375616917450143 l 1.6952256298416448 -3.778327981855974" fill="#ff3304" stroke="none" /><path d="M 91.40352486487194 119.15986991738527 l -1.6794161257417537 3.7430916742704965 a25.10258135877822,25.10258135877822 0 0,0 -0.392714350724325,-0.18027589699498076 l 1.743598472233498 -3.7136287069414413" fill="#ff3204" stroke="none" /><path d="M 91.07499286063937 119.00905698771935 l -1.7784418961184054 3.7878404829023187 a25.18456581998454,25.18456581998454 0 0,0 -0.3908252839355742,-0.18761988670247018 l 1.8433798480542218 -3.7566663197002863" fill="#ff3404" stroke="none" /><path d="M 90.7491055286396 118.85261126421891 l -1.824129239406564 3.7174350602196524 a25.140865961246302,25.140865961246302 0 0,0 -0.386865361564202,-0.19398232348145583 l 1.8878485086535266 -3.6854848958288944" fill="#ff3304" stroke="none" /><line stroke="#e1ed5e" stroke-width="0.3" x1="58.666819895761336" x2="56.23545636021788" y1="174.27360380694188" y2="178.64263932499728" /><path d="M 58.180547188652646 175.14741091055294 a86.0,86.0 0 0,1 -31.652253787137756,-30.449443065178592" fill="none" id="id272" stroke="none" /><text fill="#e1ed5e" style="font-size:6.75px; font-family:Arial;" text-anchor="middle"><textPath startOffset="22.20632615414155" xlink:href="#id272">August</textPath></text><path d="M 89.7882731507175 118.34994917583269 l -2.72114935615972 4.889765768547673 a26.59593272741811,26.59593272741811 0 0,0 -0.3981173451306906,-0.22606141878966862 l 2.8049154682116177 -4.842201183963372" fill="#ff4706" stroke="none" /><path d="M 89.4739219176387 118.17145234162733 l -2.0693047980991053 3.572296654531698 a25.12835629947493,25.12835629947493 0 0,0 -0.3724167537449023,-0.22003038248851445 l 2.13048942287239 -3.5361476997494337" fill="#ff3304" stroke="none" /><path d="M 89.1626897886671 117.98757091392108 l -2.1047096863026127 3.4933589606021362 a25.078401609851007,25.078401609851007 0 0,0 -0.36784139658500875,-0.22595822943302757 l 2.16453028281993 -3.456612264340731" fill="#ff3204" stroke="none" /><path d="M 88.8546689885994 117.79835938074946 l -3.969627428015741 6.339233487029973 a28.47956035608625,28.47956035608625 0 0,0 -0.4132495385810705,-0.263755407747637 l 4.078158768643735 -6.269963650458532" fill="#ff6109" stroke="none" /><path d="M 88.54995079064634 117.60387380957326 l -2.2573555796195865 3.470570478814775 a25.140110344092328,25.140110344092328 0 0,0 -0.36073101538782015,-0.23907284693799302 l 2.3167612937473687 -3.4311996107854634" fill="#ff3304" stroke="none" /><path d="M 88.24862548938628 117.40417183066458 l -2.340745448526287 3.466720932194166 a25.18297062821504,25.18297062821504 0 0,0 -0.3571702107789437,-0.2456649278256179 l 2.4000725439281205 -3.425915215003447" fill="#ff3404" stroke="none" /><path d="M 83.95833913139862 113.55231037782056 l -4.841518962930062 4.090210373051774 a27.33799075135265,27.33799075135265 0 0,0 -0.30059292473146826,-0.3620835419341357 l 4.911207887555067 -4.006265574003877" fill="#ff5207" stroke="none" /><path d="M 83.28015986056508 112.70617746262583 l -3.268443762644554 2.4838411209939824 a25.10514206135558,25.10514206135558 0 0,0 -0.2585097199422606,-0.3463160149173264 l 3.3107147492818996 -2.427212226567348" fill="#ff3204" stroke="none" /><path d="M 83.06392112726016 112.41649034213515 l -3.3793049884863797 2.4774983671224664 a25.19019096990858,25.19019096990858 0 0,0 -0.2533655888934375,-0.3519026429923513 l 3.4214503697554246 -2.418962118678977" fill="#ff3404" stroke="none" /><path d="M 82.85270091963577 112.12312394758628 l -1.2239370884003413 0.8653223436054999 a22.49893453983315,22.49893453983315 0 0,0 -0.22085285504093993,-0.31815500967075616 l 1.238650850603415 -0.8441260717477311" fill="#ff0d01" stroke="none" /><path d="M 82.6465618267979 111.8261652097733 l -25.168370969116708 17.151950534002683 a51.45712239132173,51.45712239132173 0 0,0 -0.49251056215026856,-0.7362364657040609 l 25.459884636677707 -16.7161771540928" fill="#85ff25" stroke="none" /><path d="M 82.24976979558568 111.22182372390057 l -9.885171279894983 6.249476671911491 a32.69498054319145,32.69498054319145 0 0,0 -0.29664523327838827,-0.47828656994332003 l 9.991281152841328 -6.078393770602907" fill="#ff990e" stroke="none" /><path d="M 82.05923443525364 110.91462005526583 l -3.555780452997424 2.1632294622181343 a25.16210719901916,25.16210719901916 0 0,0 -0.22192873623759735,-0.3719653272512723 l 3.592490064933253 -2.1017020410807508" fill="#ff3304" stroke="none" /><line stroke="#e1ed5e" stroke-width="0.3" x1="26.63291911575756" x2="22.317208475507996" y1="142.92168965132927" y2="145.44649492493687" /><path d="M 25.769776987707644 143.4266507060508 a86.0,86.0 0 0,1 -11.730757126820373,-40.83630448921669" fill="none" id="id273" stroke="none" /><text fill="#e1ed5e" style="font-size:6.75px; font-family:Arial;" text-anchor="middle"><textPath startOffset="21.46611528233685" xlink:href="#id273">September</textPath></text><path d="M 81.87401531095188 110.60418214915194 l -5.551967515023278 3.2480483585012347 a27.432274980676457,27.432274980676457 0 0,0 -0.23493523315589265,-0.40962938175703967 l 5.607054744331547 -3.151999130885888" fill="#ff5307" stroke="none" /><path d="M 81.69416730710424 110.29060199501025 l -3.1533393493528057 1.7726459508169552 a24.617433167195287,24.617433167195287 0 0,0 -0.20446957538616795,-0.3711716715288235 l 3.1833853341904903 -1.7181037608903091" fill="#ff2c04" stroke="none" /><path d="M 81.51974371655577 109.97397251340807 l -1.3614159855282058 0.7347693349435499 a22.547042165302912,22.547042165302912 0 0,0 -0.18139362956074573,-0.3431283871548004 l 1.3738621233138375 -0.7112259327026234" fill="#ff0e01" stroke="none" /><path d="M 81.02952815118164 109.00673069616217 l -24.044765902364116 11.415885322238077 a47.61715997228072,47.61715997228072 0 0,0 -0.345168591513319,-0.7434624384802252 l 24.23770911071726 -11.000302816479026" fill="#afff20" stroke="none" /><path d="M 80.87730276802145 108.67885076344099 l -3.832541427966169 1.7394018581437292 a25.20878754764253,25.20878754764253 0 0,0 -0.17593202658200516,-0.3966802752438423 l 3.861914539279454 -1.6731732464071911" fill="#ff3404" stroke="none" /><path d="M 80.73074385275274 108.34839909993369 l -3.8531322081907278 1.6693683042549785 a25.19921639702551,25.19921639702551 0 0,0 -0.16901356686875152,-0.39949814627718216 l 3.881296756251786 -1.6027956323116375" fill="#ff3404" stroke="none" /><path d="M 80.58989483394504 108.01547362559985 l -0.7165685829980205 0.2959096063012968 a21.775263199978678,21.775263199978678 0 0,0 -0.1400848158178299,-0.3476790245877213 l 0.7215560130732381 -0.2835312138707701" fill="#ff0300" stroke="none" /><path d="M 80.20201598880116 107.00284435728193 l -2.376494193385642 0.8406016967611526 a23.52078080439244,23.52078080439244 0 0,0 -0.131726642189098,-0.38285928207593434 l 2.390611666517968 -0.7995697115959214" fill="#ff1c02" stroke="none" /><path d="M 80.0844068197444 106.66101706037122 l -4.02983022750778 1.3478266829853205 a25.24925504411098,25.24925504411098 0 0,0 -0.13431130688067858,-0.4133676980431596 l 4.052433785404708 -1.2782600849643575" fill="#ff3405" stroke="none" /><path d="M 79.97269907076064 106.31721596034903 l -3.9975467356952548 1.260947050738422 a25.19170220421653,25.19170220421653 0 0,0 -0.1268860784859244,-0.4146710460713704 l 4.01865958668731 -1.1919490321150037" fill="#ff3404" stroke="none" /><path d="M 79.86692584326677 105.97154293290107 l -1.5244690343217402 0.45216305356358116 a22.590112343079507,22.590112343079507 0 0,0 -0.10736474025759232,-0.37375074576734907 l 1.5320264114654367 -0.42585483229163607" fill="#ff0f01" stroke="none" /><path d="M 79.76711848015287 105.62410040840567 l -1.4121466289056137 0.3925320486143372 a22.46568738505824,22.46568738505824 0 0,0 -0.10035949285222068,-0.3734750075508452 l 1.4186941980996093 -0.36816610788795306" fill="#ff0d01" stroke="none" /><path d="M 79.67330655649465 105.27499134158121 l -3.6757649503847856 0.9538997742479697 a24.79752192222607,24.79752192222607 0 0,0 -0.1036638980138905,-0.41408574238369317 l 3.6916401626937345 -0.8904861924668845" fill="#ff2e04" stroke="none" /><path d="M 79.58551787078972 104.9243191809786 l -2.336845807418437 0.5636868258340281 a23.40387003918015,23.40387003918015 0 0,0 -0.09109614723987719,-0.3924398181017134 l 2.3462025205888692 -0.5233783503837405" fill="#ff1a02" stroke="none" /><path d="M 79.29508885075956 103.50808413554451 l -4.032143345511911 0.6831759866378666 a25.089609930968308,25.089609930968308 0 0,0 -0.06848059166679239,-0.4264287096789526 l 4.043305691539994 -0.6136680472657002" fill="#ff3204" stroke="none" /><path d="M 79.23777060512086 103.15116336523772 l -4.064762965049056 0.6169247001478959 a25.11131293477971,25.11131293477971 0 0,0 -0.06118305507272172,-0.4279141446775264 l 4.074780071138377 -0.5468650834899689" fill="#ff3304" stroke="none" /><path d="M 79.18660465613746 102.79330883721812 l -4.177670993108656 0.5606737925862411 a25.215126335989765,25.215126335989765 0 0,0 -0.05403060139379009,-0.43067705429140546 l 4.186703103749294 -0.48867898400742693" fill="#ff3404" stroke="none" /><path d="M 79.10278846688536 102.07522291339032 l -1.6160402570099293 0.16048283595128687 a22.623989178816068,22.623989178816068 0 0,0 -0.03514841813247395,-0.38785986522141075 l 1.6185632714194784 -0.13264158218130995" fill="#ff0f01" stroke="none" /><path d="M 79.07016306316243 101.71520430193888 l -6.709929219367254 0.5498800347798154 a27.732422905727766,27.732422905727766 0 0,0 -0.03489457379739716,-0.47610873559749634 l 6.718400351828986 -0.43429816268555843" fill="#ff5708" stroke="none" /><path d="M 79.04373962182676 101.35467743843564 l -4.209907666045663 0.27214144270841734 a25.218694528105758,25.218694528105758 0 0,0 -0.024274373441221707,-0.43343524439476677 l 4.213968390374416 -0.19963448197821293" fill="#ff3404" stroke="none" /><path d="M 79.0235259727143 100.99374915477108 l -7.973439055632731 0.37773737911561805 a28.98238159332605,28.98238159332605 0 0,0 -0.01931864415234188,-0.49852836510629056 l 7.978759832636274 -0.2404317669953307" fill="#ff6809" stroke="none" /><line stroke="#e1ed5e" stroke-width="0.3" x1="15.007084014347285" x2="10.007500721073583" y1="101.09737516637583" y2="101.16192664675087" /><path d="M 14.007167355692545 101.11028546245083 a86.0,86.0 0 0,1 10.666146001902534,-42.60595125391555" fill="none" id="id274" stroke="none" /><text fill="#e1ed5e" style="font-size:6.75px; font-family:Arial;" text-anchor="middle"><textPath startOffset="22.20632615414155" xlink:href="#id274">October</textPath></text><path d="M 79.00019446554 99.90962569577889 l -4.203795128798528 -0.018091360857121905 a25.203834057410912,25.203834057410912 0 0,0 0.005601243531057862,-0.433822484267365 l 4.202860878149754 0.0904501031849589" fill="#ff3404" stroke="none" /><path d="M 79.03285615573316 98.82574320788736 l -3.784455180969083 -0.21194695060548066 a24.790385537994084,24.790385537994084 0 0,0 0.02752843521517927,-0.42585270840498046 l 3.780246154749491 0.2770587232634729" fill="#ff2e04" stroke="none" /><path d="M 79.05617556472873 98.46500227214037 l -2.805721111345197 -0.2056346272493427 a23.813246621711667,23.813246621711667 0 0,0 0.033480876116174015,-0.4085514925667429 l 2.8017657514095258 0.253900037023864" fill="#ff2003" stroke="none" /><path d="M 79.12142395522702 97.74499172005258 l -4.16579595156506 -0.44993031819823076 a25.190023054985474,25.190023054985474 0 0,0 0.05027166543170943,-0.4306969290301728 l 4.157433933129762 0.5215709855532653" fill="#ff3404" stroke="none" /><path d="M 79.16333360222342 97.38593545837743 l -4.169762992913621 -0.5231177280790261 a25.20244875929529,25.20244875929529 0 0,0 0.057706408089849934,-0.4299797678814659 l 4.160140585765937 0.5948158380251515" fill="#ff3404" stroke="none" /><path d="M 79.21141760316559 97.0276538004421 l -3.7444132643462607 -0.5353752518280701 a24.78249353660812,24.78249353660812 0 0,0 0.064014486678075,-0.4217754851009992 l 3.7346428842288835 0.5997498493211614" fill="#ff2e04" stroke="none" /><path d="M 79.26566170972629 96.67025291283419 l -5.362624718830095 -0.861188998998056 a26.43133412404382,26.43133412404382 0 0,0 0.07600662215657204,-0.4485953864562873 l 5.3470062351533 0.9533701737701713" fill="#ff4506" stroke="none" /><path d="M 79.32604984820605 96.31383870115002 l -4.148978953741838 -0.7397621420548491 a25.214412697566566,25.214412697566566 0 0,0 0.07986278131507778,-0.4266301712072129 l 4.135630448516899 0.8110703907246347" fill="#ff3404" stroke="none" /><path d="M 79.3925641242962 95.95851677861259 l -4.05340722426804 -0.7949449599231285 a25.130623150936856,25.130623150936856 0 0,0 0.0869049308245701,-0.42377930635858674 l 4.039122997528475 0.8645999224451177" fill="#ff3304" stroke="none" /><path d="M 80.02781315780177 93.51064311812611 l -7.469568068953536 -2.427009787955398 a28.853968655881022,28.853968655881022 0 0,0 0.15754638721465586,-0.4710436448891555 l 7.426684387967107 2.5552265357668755" fill="#ff6609" stroke="none" /><path d="M 80.14247586403 93.16781622104843 l -2.045480060888883 -0.703768284328022 a23.16316399690823,23.16316399690823 0 0,0 0.13296419326306788,-0.37590767950552345 l 2.0330627868160054 0.7388735902601565" fill="#ff1702" stroke="none" /><path d="M 80.2630227832202 92.82701384747504 l -3.6169027346899028 -1.3144866585194968 a24.848358165196302,24.848358165196302 0 0,0 0.1495580216832823,-0.40074114254095394 l 3.593740124504993 1.3765509380897922" fill="#ff2f04" stroke="none" /><path d="M 80.65960295795068 91.81776055985345 l -3.7949452942186364 -1.6055074253151962 a25.1205902342813,25.1205902342813 0 0,0 0.1719077233762596,-0.39678672710479174 l 3.766746860999696 1.6705932970065873" fill="#ff3304" stroke="none" /><path d="M 80.803312248108 91.48605970444005 l -3.856311619947661 -1.7103162440131112 a25.21856859191343,25.21856859191343 0 0,0 0.17940931986345993,-0.39530465471259557 l 3.8262999831208497 1.7764429075677777" fill="#ff3404" stroke="none" /><path d="M 81.10775173730289 90.83032412892265 l -3.4037543184825574 -1.6520703841740108 a24.78350102614675,24.78350102614675 0 0,0 0.18958196589568072,-0.38218567479732257 l 3.374812339633464 1.7104156474702947" fill="#ff2e04" stroke="none" /><path d="M 81.26839172434947 90.50648371742162 l -3.373651568044644 -1.7098273475327426 a24.78219968549268,24.78219968549268 0 0,0 0.19612227682244157,-0.3788458143540231 l 3.343719858062088 1.7676458841471012" fill="#ff2e04" stroke="none" /><path d="M 81.43458229118936 90.18545643968196 l -1.8649538314650291 -0.9859013626291394 a23.109515178975986,23.109515178975986 0 0,0 0.18893888510561735,-0.35007505925710175 l 1.8477068471409401 1.017857405218714" fill="#ff1602" stroke="none" /><line stroke="#e1ed5e" stroke-width="0.3" x1="26.266209847984243" x2="21.928928074336255" y1="57.711370442889674" y2="55.22380399835377" /><path d="M 25.398753493254645 57.213857153982495 a86.0,86.0 0 0,1 29.58750427330803,-30.492523968695096" fill="none" id="id275" stroke="none" /><text fill="#e1ed5e" style="font-size:6.75px; font-family:Arial;" text-anchor="middle"><textPath startOffset="21.46611528233685" xlink:href="#id275">November</textPath></text><path d="M 81.78341655067845 89.55222093294921 l -1.8223745010287382 -1.0451886445745286 a23.10082558170527,23.10082558170527 0 0,0 0.20080153436612974,-0.3432349130054251 l 1.8041132921922836 1.0764029699338455" fill="#ff1602" stroke="none" /><path d="M 82.15384107792192 88.93136811851018 l -9.96381604041234 -6.179806666955622 a32.72465950585037,32.72465950585037 0 0,0 0.3010238637513106,-0.4761474614173304 l 9.855964580415067 6.350401776087168" fill="#ff9a0e" stroke="none" /><path d="M 82.34701348167596 88.62581576622439 l -3.179210228941405 -2.048430888696817 a24.7819897918388,24.7819897918388 0 0,0 0.2341347693917377,-0.3566033168468353 l 3.143478824191747 2.1028522695213194" fill="#ff2e04" stroke="none" /><path d="M 82.95767976084542 87.72973835380427 l -3.076863529890971 -2.2153040214946964 a24.791393027532717,24.791393027532717 0 0,0 0.25232607513583655,-0.34417248291553737 l 3.038274842241501 2.2679389480817345" fill="#ff2e04" stroke="none" /><path d="M 84.5562425177563 85.77008943001954 l -2.7819571110585835 -2.5633011231495697 a24.78282936645433,24.78282936645433 0 0,0 0.2917678701627492,-0.31123762096318014 l 2.7374219189253783 2.6108081609908" fill="#ff2e04" stroke="none" /><path d="M 85.05521093208273 85.24692304244772 l -0.41152043513398606 -0.4062414411836988 a21.578257016445,21.578257016445 0 0,0 0.26321794963817585,-0.2620876081120406 l 0.404466685328497 0.4132648999458488" fill="#ff0000" stroke="none" /><path d="M 85.31137513191541 84.99185889309783 l -1.6024514955936662 -1.637309031908873 a23.290989232122392,23.290989232122392 0 0,0 0.2889377603719239,-0.2779578965527003 l 1.5740304916093146 1.6646500152238868" fill="#ff1902" stroke="none" /><path d="M 85.57189188830299 84.74124197986013 l -2.0819888061896763 -2.2018523252215614 a24.030318638556466,24.030318638556466 0 0,0 0.3030018535898704,-0.28160720057684124 l 2.04377906880495 2.2373641118730503" fill="#ff2303" stroke="none" /><path d="M 86.93701828274178 83.55741782278169 l -1.8902224024504344 -2.379252903986584 a24.038714384711746,24.038714384711746 0 0,0 0.3262024293077936,-0.2546061702119284 l 1.848987417983215 2.411437463421734" fill="#ff2303" stroke="none" /><path d="M 89.00827224532344 82.1063720568725 l -2.1300409232532616 -3.4675312776113425 a25.069502118926412,25.069502118926412 0 0,0 0.36964137319317336,-0.22270479140333577 l 2.070037483842439 3.5036826784732975" fill="#ff3204" stroke="none" /><line stroke="#e1ed5e" stroke-width="0.3" x1="56.762969772571076" x2="54.21961505331055" y1="26.818313649435495" y2="22.513508569990535" /><path d="M 56.25429882871897 25.957352633546506 a86.0,86.0 0 0,1 42.265352541879196,-11.944610805530505" fill="none" id="id276" stroke="none" /><text fill="#e1ed5e" style="font-size:6.75px; font-family:Arial;" text-anchor="middle"><textPath startOffset="22.20632615414155" xlink:href="#id276">December</textPath></text><path d="M 89.3179101791058 81.91981866633112 l -2.001322369413141 -3.3873775593368327 a24.934414563287934,24.934414563287934 0 0,0 0.37140792140289397,-0.2151434407990874 l 1.9427177155449267 3.4213251575259673" fill="#ff3004" stroke="none" /><path d="M 89.63071344664047 81.73862282372117 l -4.037538015237656 -7.1105185665768955 a29.17686905301314,29.17686905301314 0 0,0 0.43887000429267464,-0.24423068223440325 l 3.9145439218729354 7.178964646371484" fill="#ff6b09" stroke="none" /><path d="M 90.26544431104013 81.39251694778311 l -2.998923707107079 -5.732405652388728 a27.469468136144354,27.469468136144354 0 0,0 0.4208577754437655,-0.21557969878697883 l 2.8998054440745498 5.783177876488212" fill="#ff5307" stroke="none" /><path d="M 91.56875222667455 80.76684994638697 l -3.652572535623255 -8.332156466994647 a30.09758855513207,30.09758855513207 0 0,0 0.4762817870578531,-0.2039190050860017 l 3.5086069907750934 8.393795000043436" fill="#ff770b" stroke="none" /><path d="M 92.23578459929587 80.48803036053334 l -1.5029185894715693 -3.7769304913539417 a25.064968416002557,25.064968416002557 0 0,0 0.40225315833067893,-0.15606797605453435 l 1.437682266141214 3.8022411712990274" fill="#ff3204" stroke="none" /><path d="M 92.91201910852362 80.23233633223022 l -1.7509356885031127 -4.883183000090596 a26.187605613156002,26.187605613156002 0 0,0 0.4256333841077842,-0.14849513018463173 l 1.6666203003320432 4.912598983447437" fill="#ff4206" stroke="none" /><path d="M 93.25333710446033 80.11325718540243 l -1.3275429025076237 -3.913120410235305 a25.132176363975585,25.132176363975585 0 0,0 0.41087180286600594,-0.13545797351897645 l 1.2599882773992084 3.9353921080135152" fill="#ff3304" stroke="none" /><path d="M 93.59665428221793 80.00007090966166 l -1.2642763464084914 -3.948785274632956 a25.146239238785682,25.146239238785682 0 0,0 0.4133737907878213,-0.12843724899828113 l 1.1961171829099413 3.9699626585137624" fill="#ff3304" stroke="none" /><path d="M 93.94186890950719 79.89281104454417 l -0.5901870093056188 -1.9588552208430507 a23.045833444388176,23.045833444388176 0 0,0 0.3808156974247351,-0.1111705447322791 l 0.5563810941574624 1.9687240944940287" fill="#ff1502" stroke="none" /><path d="M 94.63758080256005 79.69619591428918 l -1.086004585138935 -4.11195460872798 a25.252949172419306,25.252949172419306 0 0,0 0.421232553789904,-0.10738155709509667 l 1.0150631426640317 4.13003916199194" fill="#ff3405" stroke="none" /><path d="M 95.33964822691252 79.52364482259891 l -1.0697171153879566 -4.7000545582243465 a25.820249740131665,25.820249740131665 0 0,0 0.43421947904288843,-0.09490355979675386 l 0.9886549121915471 4.717771616116968" fill="#ff3c05" stroke="none" /><path d="M 95.692805502759 79.44645832069477 l -0.686176068373934 -3.2743699941340965 a24.345494949225724,24.345494949225724 0 0,0 0.41089815181684614,-0.08242230372534277 l 0.6297115070899514 3.2856962539366497" fill="#ff2803" stroke="none" /><path d="M 96.04723909329186 79.375362276772 l -4.418165606818179 -23.053017167622738 a44.472575228550866,44.472575228550866 0 0,0 0.753079272780538,-0.13762042353907386 l 4.020691212934748 23.12565307251255" fill="#d3ff1c" stroke="none" /><path d="M 96.40284397218896 79.31037775812273 l -0.7093810474925544 -4.0801193455874065 a25.141327727284843,25.141327727284843 0 0,0 0.4270084437720538,-0.07046005197191844 l 0.6390433975816149 4.091725660498952" fill="#ff3304" stroke="none" /><path d="M 96.75951476605007 79.25152402106235 l -3.8358733299110215 -24.560681471426943 a45.85841906767237,45.85841906767237 0 0,0 0.7809711031953316,-0.11509483964400617 l 3.4125332462870412 24.623070795231918" fill="#c3ff1e" stroke="none" /><path d="M 97.47563105711357 79.15227682838746 l -1.2664198994917937 -10.45884024125159 a31.535234148031662,31.535234148031662 0 0,0 0.539452672313825,-0.06061379326032006 l 1.0862005236682508 10.479089987982508" fill="#ff8a0c" stroke="none" /><path d="M 98.19473922651362 79.07773832637324 l -0.34983032192197927 -4.054395710646043 a25.069460140195634,25.069460140195634 0 0,0 0.4302513991388771,-0.03339578926184623 l 0.27998873342076797 4.059816762096351" fill="#ff3204" stroke="none" /><path d="M 98.55514903715128 79.0497635885617 l -0.28687140588898774 -4.1596150243803764 a25.16949545563581,25.16949545563581 0 0,0 0.4324813891405736,-0.026088458448401266 l 0.21522796790879115 4.163936752209084" fill="#ff3304" stroke="none" /><path d="M 98.91598698831166 79.02799685794201 l -0.21256047940152478 -4.112329827981612 a25.117819638050054,25.117819638050054 0 0,0 0.431977658698726,-0.01860186667271258 l 0.14174198831347468 4.115379421178517" fill="#ff3304" stroke="none" /><path d="M 99.27714615592234 79.0124445844662 l -0.11090620970939945 -3.2200841723029643 a24.221993523281537,24.221993523281537 0 0,0 0.4168182524664808,-0.010765185727581195 l 0.05546132204803965 3.221516150172905" fill="#ff2603" stroke="none" /><path d="M 99.63851952072746 79.00311137660856 l -0.3253389346988813 -18.89757751365287 a39.90037780857699,39.90037780857699 0 0,0 0.6868194139714123,-0.005911671532679421 l 4.6292574371898955e-15 18.90037780857699" fill="#fff417" stroke="none" /></svg>