<?xml version="1.0" encoding="utf-8" ?>
<svg baseProfile="full" height="200mm" version="1.1" viewBox="0,0,200,200" width="200mm" xmlns="http://www.w3.org/2000/svg" xmlns:ev="http://www.w3.org/2001/xml-events" xmlns:xlink="http://www.w3.org/1999/xlink"><defs /><rect fill="#1a1a1a" height="200" width="200" x="0" y="0" /><text alignment-baseline="middle" fill="#e1ed5e" style="dominant-baseline: central; font-size:9.0px; font-family:Arial;" text-anchor="middle" x="100.0" y="100.0">2026</text><line stroke="#e1ed5e" stroke-width="0.3" x1="100.0" x2="100.0" y1="15.0" y2="10.0" /><path d="M 100.0 14.0 a86.0,86.0 0 0,1 42.46469731375804,11.215312516191453" fill="none" id="id325" stroke="none" /><text fill="#e1ed5e" style="font-size:6.75px; font-family:Arial;" text-anchor="middle"><textPath startOffset="22.20632615414155" xlink:href="#id325">January</textPath></text><path d="M 100.36148047927253 79.00311137660856 l 0.10625448406777718 -6.171878415666883 a27.17279298155699,27.17279298155699 0 0,0 0.4675963633761205,0.012076634522357261 l -0.21247748263876548 6.169134989002165" fill="#ff4e07" stroke="none" /><path d="M 100.72285384407766 79.0124445844662 l 1.4720864952178951 -42.7410010308048 a63.76634433482315,63.76634433482315 0 0,0 1.0966571353114283,0.04722436312607302 l -2.207584462918655 42.70932894115454" fill="#34ff5c" stroke="none" /><path d="M 101.08401301168833 79.027996857942 l 0.5473187652084931 -10.588775909416883 a31.602911538374574,31.602911538374574 0 0,0 0.5430252309623843,0.03275676486923235 l -0.7295060450104893 10.577785875167347" fill="#ff8a0c" stroke="none" /><path d="M 101.44485096284872 79.0497635885617 l 0.3054726319090582 -4.4293314814291485 a25.439852576519268,25.439852576519268 0 0,0 0.4366082118930127,0.03388920027582104 l -0.38167103316441203 4.423417018964863" fill="#ff3505" stroke="none" /><path d="M 101.80526077348638 79.07773832637324 l 2.4352427531002765 -28.223504807435376 a49.32837148305308,49.32837148305308 0 0,0 0.8453353056337596,0.08027477311363572 l -2.92070318582428 28.177404489806563" fill="#9dff22" stroke="none" /><path d="M 102.16513564639614 79.11191278185805 l 0.4791549183918061 -4.622634033590041 a25.64740086976839,25.64740086976839 0 0,0 0.438733350516878,0.0492968039078802 l -0.5586549724184093 4.613701276211559" fill="#ff3805" stroke="none" /><path d="M 102.52436894288641 79.15227682838746 l 3.2004608485276473 -26.43128770052017 a47.62434823898281,47.62434823898281 0 0,0 0.8129822575280302,0.1055484297741597 l -3.6549578345635236 26.372280947581874" fill="#b0ff20" stroke="none" /><path d="M 102.88285421437855 79.19881850522331 l 2.00031132798837 -14.433209550457 a35.57116273110289,35.57116273110289 0 0,0 0.605778628326787,0.08927602289223305 l -2.248458936743813 14.396639043403798" fill="#ffbd11" stroke="none" /><path d="M 103.59715602781102 79.31037775812273 l 8.16653836993935 -46.97116071461037 a68.6758040081701,68.6758040081701 0 0,0 1.1629262365469641,0.21251733649152169 l -8.973859727589213 46.823627896768116" fill="#3aff93" stroke="none" /><path d="M 103.95276090670814 79.375362276772 l 0.6561698101910417 -3.423749864845751 a24.486061094822844,24.486061094822844 0 0,0 0.4132705977069234,0.08289819405208025 l -0.7150068173650905 3.4119477147164625" fill="#ff2803" stroke="none" /><path d="M 104.307194497241 79.44645832069477 l 1.8581782249291647 -8.867058039316117 a30.05966580996239,30.05966580996239 0 0,0 0.5055137947762691,0.11048573582276938 l -2.010534743858962 8.833758805397478" fill="#ff750a" stroke="none" /><path d="M 104.66035177308747 79.52364482259891 l 5.229320804819552 -22.9762548729491 a44.56382999570392,44.56382999570392 0 0,0 0.7464999909865536,0.17667242941912986 l -5.624044482768629 22.8828365313891" fill="#d3ff1c" stroke="none" /><path d="M 105.01212808612495 79.60689891045804 l 2.703011033746853 -10.997878807196285 a32.32517580023968,32.32517580023968 0 0,0 0.5392010359294234,0.1374543498702868 l -2.8919209583613013 10.94972146115713" fill="#ff930d" stroke="none" /><path d="M 105.36241919743992 79.69619591428918 l 2.137906918540689 -8.0947873766115 a29.372349052977487,29.372349052977487 0 0,0 0.4877238149157708,0.1333133424903249 l -2.2769286226801704 8.05678749329488" fill="#ff6c09" stroke="none" /><path d="M 105.71112130821622 79.79150937346287 l 7.586684383022711 -26.84506806399737 a48.89651338945877,48.89651338945877 0 0,0 0.8079794507314103,0.2358713579238649 l -8.047654051477549 26.710498377154803" fill="#a2ff22" stroke="none" /><path d="M 106.0581310904928 79.89281104454417 l 7.563388021942673 -25.10319929182352 a47.217846079635805,47.217846079635805 0 0,0 0.7762043397992452,0.24117046674474482 l -7.994377734452637 24.96928869019625" fill="#b5ff20" stroke="none" /><path d="M 106.74666289553966 80.11325718540242 l 7.1569523829886155 -21.096129090859414 a43.277087557186896,43.277087557186896 0 0,0 0.7033927997617746,0.24539993635721388 l -7.5190271868136636 20.96980830132999" fill="#e2ff1b" stroke="none" /><path d="M 107.08798089147638 80.2323363322302 l 2.845508149671176 -7.9358351733481385 a29.430563239095864,29.430563239095864 0 0,0 0.4753984387223432,0.17509325703390213 l -2.981688914166096 7.885678648507912" fill="#ff6d0a" stroke="none" /><path d="M 107.4271985657038 80.35727306442388 l 0.7860249825543605 -2.078801847058631 a23.222442888475193,23.222442888475193 0 0,0 0.37268353348809047,0.14459542100729603 l -0.821691681042118 2.064963722160788" fill="#ff1602" stroke="none" /><path d="M 107.76421540070413 80.48803036053334 l 2.9853012921237045 -7.5022529863475595 a29.074393084060024,29.074393084060024 0 0,0 0.46341277843632,0.18903770792608696 l -3.1139979401484124 7.449754392237893" fill="#ff6809" stroke="none" /><path d="M 108.43124777332544 80.76684994638697 l 20.472301627579455 -46.70089881497591 a71.99106866949555,71.99106866949555 0 0,0 1.1306638932326463,0.5072959308320787 l -21.273147639278882 46.3415825536273" fill="#3effb7" stroke="none" /><path d="M 108.76106565485865 80.91482961587045 l 1.8594491715168842 -4.050637862683707 a25.457041430821757,25.457041430821757 0 0,0 0.3966713634292256,0.1862425239123079 l -1.9288987462457077 4.018030356131396" fill="#ff3605" stroke="none" /><path d="M 109.08828744355905 81.06846463323043 l 1.7090191670069093 -3.560005887094621 a24.948973085416682,24.948973085416682 0 0,0 0.38555517260957684,0.1891902487517889 l -1.770045606626918 3.5300604782080005" fill="#ff2e04" stroke="none" /><path d="M 109.41281617654863 81.2277094730956 l 3.791638348197486 -7.561789724806214 a29.459148018902766,29.459148018902766 0 0,0 0.4513415199834502,0.23119465673526748 l -3.921240355769691 7.495402542758446" fill="#ff6d0a" stroke="none" /><path d="M 109.73455568895987 81.39251694778311 l 3.3554095390705343 -6.413823920316296 a28.238501948311338,28.238501948311338 0 0,0 0.42876124880185745,0.22902941016757547 l -3.465315834400703 6.3551157836469665" fill="#ff5c08" stroke="none" /><path d="M 110.05341064243156 81.56283822128135 l 1.6981966146567857 -3.114358582385207 a24.54726671138613,24.54726671138613 0 0,0 0.36923286825003826,0.20547769142120192 l -1.751553571978859 3.084665493403825" fill="#ff2904" stroke="none" /><path d="M 110.36928655335952 81.73862282372117 l 22.13907819822714 -38.98918746555155 a65.83631923665388,65.83631923665388 0 0,0 0.9806578942705284,0.5680603494487234 l -22.806932824962995 38.60232295871278" fill="#37ff74" stroke="none" /><line stroke="#e1ed5e" stroke-width="0.3" x1="143.23703022742887" x2="145.7803849466894" y1="26.81831364943548" y2="22.513508569990506" /><path d="M 143.74570117128098 25.957352633546492 a86.0,86.0 0 0,1 28.547481713284135,27.462654790039103" fill="none" id="id326" stroke="none" /><text fill="#e1ed5e" style="font-size:6.75px; font-family:Arial;" text-anchor="middle"><textPath startOffset="19.985693538727396" xlink:href="#id326">February</textPath></text><path d="M 110.99172775467656 82.1063720568725 l 4.285265225657807 -6.976059023379574 a29.18711778050784,29.18711778050784 0 0,0 0.4258273278763133,0.2666530336506732 l -4.404711705906384 6.901261648405956" fill="#ff6909" stroke="none" /><path d="M 111.2981086023043 82.29822771554956 l 14.422747217788386 -22.597427228962026 a47.807822639603856,47.807822639603856 0 0,0 0.6898736516788944,0.44871301313601875 l -14.809587895251559 22.34581529166648" fill="#aeff20" stroke="none" /><path d="M 111.60114157652 82.49532879139004 l 6.1032887183926565 -9.209099087533895 a32.04796991234483,32.04796991234483 0 0,0 0.45721053997804295,0.30871059753704727 l -6.260903952777242 9.102676577698176" fill="#ff900d" stroke="none" /><path d="M 111.90073688211348 82.69761687909136 l 2.4637617157040133 -3.5820428218867977 a25.347545579933524,25.347545579933524 0 0,0 0.3573628063905897,0.25035548342905817 l -2.525055661678254 3.539102495693804" fill="#ff3404" stroke="none" /><path d="M 112.19680574252982 82.90503203632743 l 19.389206353453034 -27.175792453390876 a54.383604036810645,54.383604036810645 0 0,0 0.757368557815537,0.5502604666270713 l -19.85412022762236 26.83801275194713" fill="#67ff28" stroke="none" /><path d="M 112.48926042617603 83.11751280151076 l 16.066394939439835 -21.71791584411809 a48.01475365355482,48.01475365355482 0 0,0 0.6602116568479852,0.4972577323148418 l -16.437852750046204 21.4381415222974" fill="#acff21" stroke="none" /><path d="M 112.77801427241765 83.33499621200491 l 5.947484314723143 -7.756670678311091 a30.77438027118082,30.77438027118082 0 0,0 0.4176045958300208,0.3259470109796701 l -6.080121465712594 7.653145278108196" fill="#ff7f0b" stroke="none" /><path d="M 113.06298171725822 83.55741782278167 l 2.76723060422483 -3.483157030922518 a25.448589452739316,25.448589452739316 0 0,0 0.340643428880598,0.27544329599219175 l -2.8267774316699192 3.435007637666197" fill="#ff3605" stroke="none" /><path d="M 113.34407831869373 83.78471172551755 l 5.788183427297991 -7.03361151048809 a30.109048153814847,30.109048153814847 0 0,0 0.39735694119832315,0.3327750108797231 l -5.908397905455431 6.932935342214547" fill="#ff760a" stroke="none" /><path d="M 113.6212207817346 84.01681056812373 l 16.213799673400803 -19.02533082335496 a45.99701007695265,45.99701007695265 0 0,0 0.5981937474153832,0.518747723059549 l -16.53888721946295 18.74341810687574" fill="#c3ff1e" stroke="none" /><path d="M 113.89432698308785 84.25364557470407 l 20.399021731507816 -23.118084561030756 a51.8312491049827,51.8312491049827 0 0,0 0.6639065004007392,0.5960618112180375 l -20.793939219504544 22.76352374104342" fill="#82ff25" stroke="none" /><path d="M 114.42810811169701 84.74124197986012 l 5.547044761920523 -5.866397249990828 a29.073680838715998,29.073680838715998 0 0,0 0.3606752870642895,0.34696934039319105 l -5.647203292597231 5.7700448228353345" fill="#ff6809" stroke="none" /><path d="M 114.94478906791727 85.2469230424477 l 6.3764087931123665 -6.2946120691357415 a29.959951461798777,29.959951461798777 0 0,0 0.35914240193595376,0.37012781470339495 l -6.48381545875143 6.183920058882232" fill="#ff740a" stroke="none" /><path d="M 115.4437574822437 85.77008943001954 l 6.023145733668787 -5.54973912524909 a29.19010921095275,29.19010921095275 0 0,0 0.337293601483339,0.37244801916058345 l -6.1177829757681605 5.445238318818958" fill="#ff6909" stroke="none" /><path d="M 115.9244219780498 86.31012108654704 l 2.659451323793725 -2.2862724090797393 a24.50709607398307,24.50709607398307 0 0,0 0.2722497813481804,0.3222578691147659 l -2.6984117186290226 2.2401555903358665" fill="#ff2803" stroke="none" /><path d="M 116.15771136456269 86.58626213691792 l 21.108952229508628 -17.52413726067411 a48.435073372575914,48.435073372575914 0 0,0 0.5270232048582559,0.6460681332310316 l -21.407473926443295 17.158184957834976" fill="#a7ff21" stroke="none" /><path d="M 116.38621287248628 86.86637796730983 l 34.18707491120541 -27.401091623857916 a64.8129651263576,64.8129651263576 0 0,0 0.6902454845293138,0.8765416698258109 l -34.65367447632868 26.808557560079066" fill="#35ff68" stroke="none" /><path d="M 116.60985879189232 87.15038557335679 l 3.7548228332195985 -2.904782409756483 a25.747257667000806,25.747257667000806 0 0,0 0.26816879642963026,0.3528787017084102 l -3.804267569873342 2.8397189321670395" fill="#ff3a05" stroke="none" /><path d="M 117.04232023915458 87.72973835380427 l 11.29587576843049 -8.132892074350561 a34.9190783771358,34.9190783771358 0 0,0 0.3470081421613024,0.49081840808417054 l -11.434196530395676 7.937247165934597" fill="#ffb510" stroke="none" /><path d="M 117.45458315368197 88.32363383020206 l 8.462326692195855 -5.660932961649697 a31.18121481168836,31.18121481168836 0 0,0 0.29459323486982275,0.44868570758685794 l -8.558516562423602 5.514429190085165" fill="#ff840c" stroke="none" /><line stroke="#e1ed5e" stroke-width="0.3" x1="172.23445277983987" x2="176.4835382374775" y1="55.19839476539836" y2="52.563006222186495" /><path d="M 173.08426987136738 54.67131705675599 a86.0,86.0 0 0,1 12.851231095245387,41.99856678651699" fill="none" id="id327" stroke="none" /><text fill="#e1ed5e" style="font-size:6.75px; font-family:Arial;" text-anchor="middle"><textPath startOffset="22.20632615414155" xlink:href="#id327">March</textPath></text><path d="M 117.84615892207809 88.93136811851018 l 24.961393256095654 -15.481677284573516 a50.37266560646373,50.37266560646373 0 0,0 0.45067752693644864,0.7407953566066311 l -25.224186581318325 15.049714154759803" fill="#92ff23" stroke="none" /><path d="M 118.03404312379186 89.2402003453031 l 3.911954328395817 -2.3340215248976883 a25.555331288297317,25.555331288297317 0 0,0 0.22213707106592487,0.3797042612412102 l -3.951551073932069 2.2663378513025827" fill="#ff3705" stroke="none" /><path d="M 118.21658344932153 89.55222093294921 l 12.51743266153355 -7.17913824500713 a35.43004318693991,35.43004318693991 0 0,0 0.29886482948788096,0.5316471834251035 l -12.639155132313864 6.962607551647233" fill="#ffbc11" stroke="none" /><path d="M 118.3937258080291 89.86733742301442 l 21.96595901568359 -12.100520210465463 a46.07839597826333,46.07839597826333 0 0,0 0.3767279709748704,0.6980197151534628 l -22.170995085876925 11.72061951197954" fill="#c2ff1e" stroke="none" /><path d="M 118.56541770881063 90.18545643968196 l 21.29730285400871 -11.258745149523763 a45.09013182191605,45.09013182191605 0 0,0 0.3568359317318716,0.6892934415100909 l -21.487948218900698 10.890478985753328" fill="#cdff1d" stroke="none" /><path d="M 118.89224826269711 90.83032412892265 l 49.70952785724132 -24.127369692426353 a76.25547147626979,76.25547147626979 0 0,0 0.5629898108156814,1.1858001218801115 l -50.117475861898754 23.2681271549057" fill="#43ffe3" stroke="none" /><path d="M 119.04729006885535 91.15688171328212 l 41.28712123461556 -19.16844314734102 a66.51983735180397,66.51983735180397 0 0,0 0.47323378934926297,1.0427079253152167 l -41.610957340928174 18.454913213183737" fill="#37ff7b" stroke="none" /><path d="M 119.196687751892 91.48605970444005 l 4.0714415494406895 -1.8057287130371567 a25.453907551308045,25.453907551308045 0 0,0 0.17418871361564323,0.402051567065829 l -4.101920972899014 1.7353780013847249" fill="#ff3605" stroke="none" /><path d="M 119.34039704204932 91.81776055985345 l 18.26137608903971 -7.725743755013277 a40.828388064426164,40.828388064426164 0 0,0 0.26825867201358256,0.6496096523678869 l -18.391656447939493 7.410259532192087" fill="#ffff18" stroke="none" /><path d="M 119.47837535516314 92.15188598940014 l 9.480893195411259 -3.819986490823261 a31.221527898160222,31.221527898160222 0 0,0 0.19655654146120086,0.5002149585719065 l -9.545243286754161 3.65622252735557" fill="#ff850c" stroke="none" /><path d="M 119.61058180528143 92.48833698450437 l 12.138240527031629 -4.649447596477632 a33.998240113356296,33.998240113356296 0 0,0 0.20462959758801047,0.5483055861007141 l -12.216474713121265 4.439818873347585" fill="#ffa90f" stroke="none" /><path d="M 119.85752413597 93.16781622104841 l 2.8893454179044276 -0.9941087700977095 a24.055580008893646,24.055580008893646 0 0,0 0.13134656684330728,0.39270951675490584 l -2.906029278519505 0.9442261504204896" fill="#ff2203" stroke="none" /><path d="M 119.97218684219823 93.5106431181261 l 9.600405127344407 -3.119360717689582 a31.094463328786016,31.094463328786016 0 0,0 0.1610167796274328,0.5104671932218472 l -9.652677390740047 2.9536433580413153" fill="#ff830c" stroke="none" /><path d="M 120.28053869075195 94.5502522615342 l 36.77116518394354 -9.881077488012151 a59.07563894813798,59.07563894813798 0 0,0 0.25544212921888293,0.984322725282811 l -36.93580364503272 9.24665833718049" fill="#38ff2e" stroke="none" /><path d="M 120.37134235888165 94.90015583598534 l 10.105769713771336 -2.5299192262203998 a31.41763278288199,31.41763278288199 0 0,0 0.1268183215923231,0.5257438164860153 l -10.147820835624477 2.3555901780749786" fill="#ff870c" stroke="none" /><path d="M 120.45610955862082 95.25157060432595 l 1.274091590760638 -0.29575193391547433 a22.30796734976899,22.30796734976899 0 0,0 0.08360772595248092,0.37479704161738747 l -1.2789937037151564 0.273776722748123" fill="#ff0901" stroke="none" /><path d="M 120.6074358757038 95.95851677861258 l 43.42719016748212 -8.516841273824223 a65.25446227360774,65.25446227360774 0 0,0 0.20668349141811507,1.1041114756764272 l -43.56735938281009 7.768051720685234" fill="#36ff6d" stroke="none" /><path d="M 120.67395015179393 96.31383870115 l 3.297167750751738 -0.5878843699147986 a24.34916753970108,24.34916753970108 0 0,0 0.07001909053594092,0.4132566358965786 l -3.3067987028079022 0.5310419457023823" fill="#ff2603" stroke="none" /><path d="M 120.73433829027371 96.67025291283417 l 28.418571980657006 -4.563765476827087 a49.782689046495676,49.782689046495676 0 0,0 0.12859130902458618,0.847256059653644 l -28.49291918312089 4.073910304781361" fill="#98ff23" stroke="none" /><path d="M 120.78858239683441 97.02765380044208 l 9.720584382795227 -1.3898466714153184 a30.819441659946186,30.819441659946186 0 0,0 0.07056771722922928,0.5258114597412796 l -9.743068099082294 1.2223168696093742" fill="#ff7f0b" stroke="none" /><path d="M 120.83666639777658 97.38593545837742 l 16.134372646576267 -2.0241381529840465 a37.260846102246774,37.260846102246774 0 0,0 0.07436137652060773,0.6370828623012242 l -16.16682437610046 1.7461115523579696" fill="#ffd313" stroke="none" /><path d="M 120.91429891909075 98.10471618934814 l 35.152885528673835 -3.185604982406468 a56.29693244597863,56.29693244597863 0 0,0 0.07915218999269301,0.9658572030562146 l -35.20251220248602 2.5800338621424843" fill="#54ff2b" stroke="none" /><path d="M 120.94382443527127 98.46500227214037 l 34.94991527410007 -2.5615207337339125 a56.04365800164307,56.04365800164307 0 0,0 0.06223357059757029,0.9627257919140757 l -34.98882943570206 1.9595358775668017" fill="#56ff2a" stroke="none" /><path d="M 120.96714384426684 98.82574320788733 l 7.281033060851762 -0.40777144416071187 a28.29244266236556,28.29244266236556 0 0,0 0.023046743248274444,0.48648032437551475 l -7.286973412333532 0.28238001316219735" fill="#ff5d08" stroke="none" /><path d="M 120.98425023603335 99.18683210126433 l 29.67389564991448 -1.149903337099344 a50.69616744172025,50.69616744172025 0 0,0 0.026285493382534705,0.8722875575159209 l -29.68929283775266 0.6389456321584238" fill="#8eff24" stroke="none" /><line stroke="#e1ed5e" stroke-width="0.3" x1="184.98032266829074" x2="189.97916517819016" y1="98.17113171792111" y2="98.06355123074" /><path d="M 185.9800911702706 98.14961562048488 a86.0,86.0 0 0,1 -9.607161424134198,41.387399972396054" fill="none" id="id328" stroke="none" /><text fill="#e1ed5e" style="font-size:6.75px; font-family:Arial;" text-anchor="middle"><textPath startOffset="21.466115282336823" xlink:href="#id328">April</textPath></text><path d="M 120.99513854157772 99.54816195383933 l 16.6617333383345 -0.3585784881740238 a37.665591389745174,37.665591389745174 0 0,0 0.008370716520141673,0.6483212193382336 l -16.66543706197236 0.07172101077532743" fill="#ffd814" stroke="none" /><path d="M 120.99980553446 99.90962569577887 l 35.669391348009164 -0.15350601317606052 a56.66972165904175,56.66972165904175 0 0,0 -0.0041981542660990976,0.9755032025037595 l -35.66674889645356 -0.4605066675313838" fill="#50ff2b" stroke="none" /><path d="M 120.9904718944345 100.63252640178507 l 47.57491190526504 1.4336213113273466 a68.59650735986855,68.59650735986855 0 0,0 -0.0457240379473763,1.1799342492264622 l -47.54318573446646 -2.252332807567815" fill="#3aff92" stroke="none" /><path d="M 120.9764740272857 100.99374915477107 l 32.84776483836972 1.5561451606112673 a53.88460494878617,53.88460494878617 0 0,0 -0.0518668808094698,0.9261179990528166 l -32.81611160667272 -2.121334875999507" fill="#6dff28" stroke="none" /><path d="M 120.92983693683757 101.71520430193887 l 45.884485980895285 3.7602427569880956 a67.03830447923183,67.03830447923183 0 0,0 -0.1041500832635851,1.1492874901271992 l -45.812961301354626 -4.549511635663865" fill="#38ff81" stroke="none" /><path d="M 120.89721153311464 102.0752229133903 l 15.325451301629961 1.5219125120493755 a36.400833590847085,36.400833590847085 0 0,0 -0.06728555159237548,0.6229806418576228 l -15.296983448536535 -1.7854894757917896" fill="#ffc812" stroke="none" /><path d="M 120.8583938346157 102.4346265915055 l 37.340233535104176 4.358414469417141 a58.59373374837013,58.59373374837013 0 0,0 -0.1255537898223179,1.0007872383596121 l -37.25967823603501 -5.000519462064148" fill="#3dff2e" stroke="none" /><path d="M 120.81339534386255 102.79330883721812 l 0.7038927505290641 0.09446751998041443 a21.7102035740396,21.7102035740396 0 0,0 -0.05289634135659568,0.36995688824748435 l -0.7021623581558671 -0.10656988020830811" fill="#ff0000" stroke="none" /><path d="M 120.76222939487914 103.15116336523771 l 59.14932705636597 8.977320737264144 a80.82670957725036,80.82670957725036 0 0,0 -0.22061167589131606,1.3737491163655147 l -58.98603362611336 -9.994149083322863" fill="#49efff" stroke="none" /><path d="M 120.70491114924044 103.5080841355445 l 31.29776584976155 5.302857619824307 a52.7438253227715,52.7438253227715 0 0,0 -0.1593706362557257,0.893835164141754 l -31.201848771166638 -5.840811534699279" fill="#79ff26" stroke="none" /><path d="M 120.64145759157962 103.86396538481128 l 4.570247311818736 0.8555247290335855 a25.649632571846336,25.649632571846336 0 0,0 -0.0849736503415685,0.4332788124101624 l -4.5548437285015035 -0.9340672685116929" fill="#ff3805" stroke="none" /><path d="M 120.5718875245553 104.21870165774334 l 35.52063637533374 7.284259520758685 a57.25984066807859,57.25984066807859 0 0,0 -0.20631528031597113,0.9638363037427532 l -35.38998705629332 -7.894609643917607" fill="#4aff2c" stroke="none" /><path d="M 120.49622156327973 104.57218783832717 l 4.511859781535878 1.0064816267567132 a25.622757180865097,25.622757180865097 0 0,0 -0.09973284148870365,0.4296464708823679 l -4.493866374116622 -1.0839967549876461" fill="#ff3805" stroke="none" /><path d="M 120.41448212921028 104.9243191809786 l 26.17733938629001 6.314418050431393 a47.92814461972128,47.92814461972128 0 0,0 -0.2003594678305515,0.800336477498654 l -26.0647686041644 -6.764082367327442" fill="#adff20" stroke="none" /><path d="M 120.32669344350535 105.2749913415812 l 9.084528597629971 2.357530988895604 a30.385446830319793,30.385446830319793 0 0,0 -0.13573891516033085,0.5051349994274733 l -9.042601606127864 -2.5135569214986258" fill="#ff790b" stroke="none" /><path d="M 120.23288151984713 105.62410040840565 l 36.87461299503507 10.24997481459795 a59.272693493318464,59.272693493318464 0 0,0 -0.28170720201078897,0.9806597267124622 l -36.69271315613818 -10.883192016814993" fill="#36ff2e" stroke="none" /><path d="M 120.13307415673323 105.97154293290107 l 20.433828254809374 6.06074769094877 a42.31370450485759,42.31370450485759 0 0,0 -0.21312652822383713,0.6965098256538944 l -20.326474954079405 -6.411584489154722" fill="#eeff19" stroke="none" /><path d="M 120.02730092923936 106.31721596034902 l 3.6513118018520534 1.1517340890002088 a24.828651105299258,24.828651105299258 0 0,0 -0.13207393929885483,0.40648178866997214 l -3.630945611536952 -1.2144147776479761" fill="#ff2d04" stroke="none" /><path d="M 119.9155931802556 106.66101706037122 l 35.39514517558571 11.838345146688054 a58.32241575531923,58.32241575531923 0 0,0 -0.3266309930650724,0.9493425584258463 l -35.18612335157741 -12.4458604082032" fill="#40ff2d" stroke="none" /><path d="M 119.79798401119884 107.00284435728193 l 11.259375040090916 3.9826100941096327 a32.94297741164766,32.94297741164766 0 0,0 -0.19369802288530086,0.5329737689897406 l -11.189152756200388 -4.175831660105505" fill="#ff9b0e" stroke="none" /><path d="M 119.67450827220406 107.3425965602758 l 39.45050384429353 14.723068542327844 a63.108324602989164,63.108324602989164 0 0,0 -0.38858416078268265,1.0144706248863444 l -39.19122540391734 -15.399962734047334" fill="#33ff54" stroke="none" /><path d="M 119.41010516605496 108.01547362559984 l 52.38871927462028 21.63411243948556 a77.67991468129847,77.67991468129847 0 0,0 -0.5210066554250499,1.2315058305468212 l -52.008561638002924 -22.532692795698544" fill="#45fff1" stroke="none" /><path d="M 119.26925614724726 108.34839909993367 l 27.784057221504284 12.037433958427492 a51.279591344523254,51.279591344523254 0 0,0 -0.35788006108937787,0.8069250601796611 l -27.572736075683633 -12.51390735509984" fill="#88ff25" stroke="none" /><path d="M 119.12269723197855 108.67885076344098 l 1.0748166803922001 0.48780637239717484 a22.180332984119566,22.180332984119566 0 0,0 -0.16078141367274895,0.3463088612650599 l -1.0662606498796199 -0.5062353009410654" fill="#ff0701" stroke="none" /><path d="M 118.97047184881838 109.00673069616215 l 34.71210730695883 16.480486352770104 a59.42573127623814,59.42573127623814 0 0,0 -0.446674197868729,0.9202811481367805 l -34.42327985247538 -17.075556456872157" fill="#35ff2f" stroke="none" /><path d="M 118.81262510543309 109.33194174019688 l 5.4210204373411095 2.6890796265893706 a27.051331408889123,27.051331408889123 0 0,0 -0.21051259823300672,0.41536132764909134 l -5.373929169321833 -2.781995165941156" fill="#ff4c07" stroke="none" /><path d="M 118.64920377521936 109.65438752849418 l 30.576013278591663 15.828701580286944 a55.43022482834511,55.43022482834511 0 0,0 -0.44594273587043637,0.8435555983589931 l -30.29901803449633 -16.352672193732072" fill="#5dff2a" stroke="none" /><line stroke="#e1ed5e" stroke-width="0.3" x1="174.80103733775053" x2="179.2010983576182" y1="140.37084112569926" y2="142.7455964860345" /><path d="M 175.68104954172406 140.8457921977663 a86.0,86.0 0 0,1 -30.038265399797805,32.042727171017184" fill="none" id="id329" stroke="none" /><text fill="#e1ed5e" style="font-size:6.75px; font-family:Arial;" text-anchor="middle"><textPath startOffset="22.206326154141568" xlink:href="#id329">May</textPath></text><path d="M 118.48025628344425 109.97397251340804 l 1.1282122709388716 0.6089070414956794 a22.282041619246453,22.282041619246453 0 0,0 -0.18507208114189838,0.33595958509240653 l -1.1175637803454634 -0.628237144985891" fill="#ff0801" stroke="none" /><path d="M 118.30583269289576 110.29060199501025 l 54.91749807868728 30.871805985030733 a84.0,84.0 0 0,0 -0.7193920153904818,1.2543206165667395 l -54.37795406714442 -31.812546447455787" fill="#4dd2ff" stroke="none" /><path d="M 118.12598468904814 110.60418214915192 l 31.26571494315764 18.291273107001377 a57.223136291349796,57.223136291349796 0 0,0 -0.5047056758897526,0.8459157434074627 l -30.946228391569658 -18.826750944294943" fill="#4bff2c" stroke="none" /><line stroke="#e1ed5e" stroke-width="0.3" x1="143.8653032363475" x2="146.44561519142675" y1="172.8068346515853" y2="177.08958963109032" /><path d="M 144.38136562736335 173.6633856474863 a86.0,86.0 0 0,1 -40.68145358897372,12.25698825130547" fill="none" id="id330" stroke="none" /><text fill="#e1ed5e" style="font-size:6.75px; font-family:Arial;" text-anchor="middle"><textPath startOffset="21.466115282336833" xlink:href="#id330">June</textPath></text><line stroke="#e1ed5e" stroke-width="0.3" x1="102.19456741930631" x2="102.32365962044197" y1="184.97166512339345" y2="189.96999836594603" /><path d="M 102.22038585953345 185.97133177190398 a86.0,86.0 0 0,1 -42.740103519485714,-10.115201625700543" fill="none" id="id331" stroke="none" /><text fill="#e1ed5e" style="font-size:6.75px; font-family:Arial;" text-anchor="middle"><textPath startOffset="22.20632615414155" xlink:href="#id331">July</textPath></text><line stroke="#e1ed5e" stroke-width="0.3" x1="58.666819895761336" x2="56.23545636021788" y1="174.27360380694188" y2="178.64263932499728" /><path d="M 58.180547188652646 175.14741091055294 a86.0,86.0 0 0,1 -31.652253787137756,-30.449443065178592" fill="none" id="id332" stroke="none" /><text fill="#e1ed5e" style="font-size:6.75px; font-family:Arial;" text-anchor="middle"><textPath startOffset="22.20632615414155" xlink:href="#id332">August</textPath></text><line stroke="#e1ed5e" stroke-width="0.3" x1="26.63291911575756" x2="22.317208475507996" y1="142.92168965132927" y2="145.44649492493687" /><path d="M 25.769776987707644 143.4266507060508 a86.0,86.0 0 0,1 -11.730757126820373,-40.83630448921669" fill="none" id="id333" stroke="none" /><text fill="#e1ed5e" style="font-size:6.75px; font-family:Arial;" text-anchor="middle"><textPath startOffset="21.46611528233685" xlink:href="#id333">September</textPath></text><line stroke="#e1ed5e" stroke-width="0.3" x1="15.007084014347285" x2="10.007500721073583" y1="101.09737516637583" y2="101.16192664675087" /><path d="M 14.007167355692545 101.11028546245083 a86.0,86.0 0 0,1 10.666146001902534,-42.60595125391555" fill="none" id="id334" stroke="none" /><text fill="#e1ed5e" style="font-size:6.75px; font-family:Arial;" text-anchor="middle"><textPath startOffset="22.20632615414155" xlink:href="#id334">October</textPath></text><line stroke="#e1ed5e" stroke-width="0.3" x1="26.266209847984243" x2="21.928928074336255" y1="57.711370442889674" y2="55.22380399835377" /><path d="M 25.398753493254645 57.213857153982495 a86.0,86.0 0 0,1 29.58750427330803,-30.492523968695096" fill="none" id="id335" stroke="none" /><text fill="#e1ed5e" style="font-size:6.75px; font-family:Arial;" text-anchor="middle"><textPath startOffset="21.46611528233685" xlink:href="#id335">November</textPath></text><line stroke="#e1ed5e" stroke-width="0.3" x1="56.762969772571076" x2="54.21961505331055" y1="26.818313649435495" y2="22.513508569990535" /><path d="M 56.25429882871897 25.957352633546506 a86.0,86.0 0 0,1 42.265352541879196,-11.944610805530505" fill="none" id="id336" stroke="none" /><text fill="#e1ed5e" style="font-size:6.75px; font-family:Arial;" text-anchor="middle"><textPath startOffset="22.20632615414155" xlink:href="#id336">December</textPath></text></svg>