<?xml version="1.0" encoding="utf-8" ?>
<svg baseProfile="full" height="200mm" version="1.1" viewBox="0,0,200,200" width="200mm" xmlns="http://www.w3.org/2000/svg" xmlns:ev="http://www.w3.org/2001/xml-events" xmlns:xlink="http://www.w3.org/1999/xlink"><defs /><rect fill="#1a1a1a" height="200" width="200" x="0" y="0" /><text alignment-baseline="middle" fill="#e1ed5e" style="dominant-baseline: central; font-size:9.0px; font-family:Arial;" text-anchor="middle" x="100.0" y="100.0">2025</text><line stroke="#e1ed5e" stroke-width="0.3" x1="100.0" x2="100.0" y1="15.0" y2="10.0" /><path d="M 100.0 14.0 a86.0,86.0 0 0,1 42.46469731375804,11.215312516191453" fill="none" id="id313" stroke="none" /><text fill="#e1ed5e" style="font-size:6.75px; font-family:Arial;" text-anchor="middle"><textPath startOffset="22.20632615414155" xlink:href="#id313">January</textPath></text><path d="M 100.0 79.0 l 0.0 -11.487212900626844 a32.487212900626844,32.487212900626844 0 0,0 0.559213966168917,0.004813331156965823 l -0.19773348689638867 11.485510946078437" fill="#ff940d" stroke="none" /><path d="M 100.36148047927253 79.00311137660856 l 0.15882684937561034 -9.225587156062234 a30.226954228898236,30.226954228898236 0 0,0 0.5201531503575084,0.013434021272461355 l -0.3176066349279865 9.221486342647413" fill="#ff760a" stroke="none" /><path d="M 100.72285384407766 79.0124445844662 l 0.14034624959396208 -4.074855124377207 a25.077271312340923,25.077271312340923 0 0,0 0.43128030633866393,0.01857183721316625 l -0.21046738832195758 4.071835560639846" fill="#ff2f04" stroke="none" /><path d="M 101.08401301168833 79.027996857942 l 0.5797207130618546 -11.215644540016745 a32.23061701569243,32.23061701569243 0 0,0 0.5538109432656,0.033407388489864985 l -0.7726937051670665 11.204003882146576" fill="#ff910d" stroke="none" /><path d="M 101.44485096284872 79.0497635885617 l 0.358046339116625 -5.191646504462834 a26.203978344330036,26.203978344330036 0 0,0 0.4497224225253953,0.03490711541913268 l -0.44735895100436146 5.184714126855237" fill="#ff3f05" stroke="none" /><path d="M 101.80526077348638 79.07773832637324 l 0.319786249420788 -3.7061967380414558 a24.71996740662976,24.71996740662976 0 0,0 0.4236235775616281,0.040228163129719725 l -0.3835349540726603 3.700143030396558" fill="#ff2a04" stroke="none" /><path d="M 102.16513564639614 79.11191278185805 l 1.4130068221440433 -13.631944857543724 a34.704981170309516,34.704981170309516 0 0,0 0.593675466211581,0.06670635594096645 l -1.6474489918653494 13.605602548132156" fill="#ffb110" stroke="none" /><path d="M 102.52436894288641 79.15227682838746 l 1.0124501065745488 -8.361408345802808 a29.422482101112692,29.422482101112692 0 0,0 0.5022631659043058,0.06520817398375996 l -1.1562280009867008 8.342741848654912" fill="#ff6b09" stroke="none" /><path d="M 102.88285421437855 79.19881850522331 l 0.5184534506830394 -3.740891325847322 a24.776646911259363,24.776646911259363 0 0,0 0.42194749983013724,0.06218409315330762 l -0.5827699309418324 3.7314127485330455" fill="#ff2a04" stroke="none" /><path d="M 103.2404852339499 79.25152402106235 l 0.9678852350995337 -6.197264329562302 a27.272390851883273,27.272390851883273 0 0,0 0.4632031093158136,0.07643248191450114 l -1.0744175505542226 6.179685584708176" fill="#ff4d07" stroke="none" /><path d="M 103.59715602781102 79.31037775812273 l 0.6590925507062804 -3.790876956996052 a24.84774623558781,24.84774623558781 0 0,0 0.42076094242724066,0.07689137279231774 l -0.7242486142364218 3.778970102852996" fill="#ff2b04" stroke="none" /><path d="M 104.307194497241 79.44645832069477 l 0.757824052545633 -3.616267679473014 a24.69481924107497,24.69481924107497 0 0,0 0.415293099557099,0.09076698630349361 l -0.8199598762562599 3.6026871950736497" fill="#ff2904" stroke="none" /><path d="M 104.66035177308747 79.52364482259891 l 1.8732772595228715 -8.230685660521896 a29.441170187442395,29.441170187442395 0 0,0 0.49317649047844553,0.11671894140290323 l -2.0146774369638405 8.197220806978125" fill="#ff6b09" stroke="none" /><path d="M 105.01212808612495 79.60689891045804 l 2.0873552368149557 -8.492928676741519 a29.745678326629516,29.745678326629516 0 0,0 0.49617365323108653,0.12648571197584096 l -2.233237778731067 8.45573996859681" fill="#ff6f0a" stroke="none" /><path d="M 105.36241919743992 79.69619591428918 l 5.525756030773692 -20.922248661168943 a42.639650384223344,42.639650384223344 0 0,0 0.7080255281781757,0.1935301226703707 l -5.8850794481755795 20.82403199767228" fill="#ebff1a" stroke="none" /><path d="M 105.71112130821622 79.79150937346287 l 3.3140970769706963 -11.726751385764976 a33.18605504251177,33.18605504251177 0 0,0 0.5483755111866844,0.16008584916201565 l -3.5154628058808077 11.667967207684256" fill="#ff9d0e" stroke="none" /><path d="M 106.0581310904928 79.89281104454417 l 1.4451924506724374 -4.796653827493395 a26.009637627642107,26.009637627642107 0 0,0 0.4275670171217023,0.13284715350930523 l -1.527544840504858 4.771066539101569" fill="#ff3c05" stroke="none" /><path d="M 106.40334571778207 80.00007090966166 l 3.6171436376756736 -11.29762774828583 a32.8625511941747,32.8625511941747 0 0,0 0.5372513490427682,0.1771233229051821 l -3.8110778089608592 11.233690701121413" fill="#ff990e" stroke="none" /><path d="M 106.74666289553966 80.11325718540242 l 1.1948655955360954 -3.522035288312212 a24.719198349579155,24.719198349579155 0 0,0 0.4017670115162281,0.14016862141594585 l -1.2553146111155973 3.5009458137240586" fill="#ff2a04" stroke="none" /><path d="M 107.08798089147638 80.2323363322302 l 3.049181137412403 -8.503858589539906 a30.033997814901397,30.033997814901397 0 0,0 0.48514585173916064,0.17868331150979833 l -3.1951093149241405 8.450112010223782" fill="#ff730a" stroke="none" /><path d="M 107.4271985657038 80.35727306442388 l 4.815749727554974 -12.73622295830913 a34.61627043952221,34.61627043952221 0 0,0 0.5555364715734934,0.21553952019359604 l -5.034269364128134 12.651440734224987" fill="#ffb010" stroke="none" /><path d="M 107.76421540070413 80.48803036053334 l 2.172451514740987 -5.459509533312955 a26.875865036591247,26.875865036591247 0 0,0 0.4283707403101225,0.17474318072123304 l -2.266106124639497 5.421305466408143" fill="#ff4806" stroke="none" /><path d="M 108.09893153111575 80.62456947434976 l 1.9356672267538166 -4.630781940637033 a26.019058576512023,26.019058576512023 0 0,0 0.41174075104667357,0.1762859017252346 l -2.0150917355908056 4.596776510949008" fill="#ff3c05" stroke="none" /><path d="M 108.43124777332544 80.76684994638697 l 2.1897767613575922 -4.995263591748761 a26.4541526028919,26.4541526028919 0 0,0 0.4154786937734437,0.1864131789829137 l -2.275437573597816 4.956830082249316" fill="#ff4206" stroke="none" /><path d="M 108.76106565485865 80.91482961587045 l 4.0627244849916835 -8.85026914241202 a30.73822335614055,30.73822335614055 0 0,0 0.47896268705089456,0.22487940375886292 l -4.2144653833421755 8.779024756013156" fill="#ff7d0b" stroke="none" /><path d="M 109.08828744355905 81.06846463323043 l 1.6652106570902052 -3.468749711494527 a24.84774623558781,24.84774623558781 0 0,0 0.38399083826102975,0.1884226366807863 l -1.7246727623616669 3.439571914678909" fill="#ff2b04" stroke="none" /><path d="M 109.41281617654863 81.2277094730956 l 2.096636334520756 -4.181391165265389 a25.677597246043323,25.677597246043323 0 0,0 0.3934046484682996,0.20151714086490907 l -2.1683014705778114 4.144681499087979" fill="#ff3705" stroke="none" /><path d="M 110.05341064243156 81.56283822128135 l 4.71989395862883 -8.655913061618381 a30.859119124495688,30.859119124495688 0 0,0 0.4641739220897456,0.2583122850925011 l -4.868191969790611 8.5733853789657" fill="#ff7e0b" stroke="none" /><path d="M 110.36928655335952 81.73862282372117 l 4.031621294898455 -7.100098615194063 a29.164886442012488,29.164886442012488 0 0,0 0.4344224655399596,0.25164553207066537 l -4.153240492903743 7.029648925733348" fill="#ff6709" stroke="none" /><line stroke="#e1ed5e" stroke-width="0.3" x1="143.23703022742887" x2="145.7803849466894" y1="26.81831364943548" y2="22.513508569990506" /><path d="M 143.74570117128098 25.957352633546492 a86.0,86.0 0 0,1 28.547481713284135,27.462654790039103" fill="none" id="id314" stroke="none" /><text fill="#e1ed5e" style="font-size:6.75px; font-family:Arial;" text-anchor="middle"><textPath startOffset="19.985693538727396" xlink:href="#id314">February</textPath></text><path d="M 110.68208982089419 81.91981866633111 l 6.725341048988936 -11.383108336970356 a34.22139809688898,34.22139809688898 0 0,0 0.5045829998983037,0.30400561162100737 l -6.920286115104878 11.265656115890733" fill="#ffab0f" stroke="none" /><path d="M 110.99172775467656 82.1063720568725 l 1.4724180020670654 -2.3969752975860974 a23.813095332556138,23.813095332556138 0 0,0 0.3474226825061263,0.21755605191271812 l -1.513459836945455 2.371274904350435" fill="#ff1d02" stroke="none" /><path d="M 111.2981086023043 82.29822771554956 l 5.193763356951547 -8.137540492868682 a30.653742439131577,30.653742439131577 0 0,0 0.44233784486536554,0.2877088387280746 l -5.333068227601193 8.04693272998108" fill="#ff7c0b" stroke="none" /><path d="M 111.60114157652 82.49532879139004 l 2.8208836710343004 -4.25636053602961 a26.10626964605065,26.10626964605065 0 0,0 0.372443611072084,0.25147558874832665 l -2.8937319765129264 4.207173034982612" fill="#ff3d05" stroke="none" /><path d="M 111.90073688211348 82.69761687909136 l 2.146813409819221 -3.1212342961404733 a24.7882596727235,24.7882596727235 0 0,0 0.34947770442894227,0.24483146560125424 l -2.2002222538318144 3.083817987775283" fill="#ff2b04" stroke="none" /><path d="M 112.19680574252982 82.90503203632743 l 8.019755063318756 -11.240439405038746 a34.808111720795665,34.808111720795665 0 0,0 0.4847521572203465,0.35219305776292054 l -8.212052536892891 11.10072711245915" fill="#ffb210" stroke="none" /><path d="M 112.48926042617603 83.11751280151076 l 5.798304781132714 -7.837918571643077 a30.74952849478445,30.74952849478445 0 0,0 0.42281164871358146,0.3184529680063262 l -5.932362583604678 7.736949014130904" fill="#ff7d0b" stroke="none" /><path d="M 112.77801427241765 83.33499621200491 l 7.610162801101077 -9.925125234941012 a33.50690564402424,33.50690564402424 0 0,0 0.4546846326615072,0.35488856788044365 l -7.779879988922015 9.792658277837344" fill="#ffa10e" stroke="none" /><path d="M 113.06298171725822 83.55741782278167 l 2.6808226504241706 -3.374393969633412 a25.30968035303381,25.30968035303381 0 0,0 0.3387840538408035,0.2739398106875445 l -2.738510102829465 3.327748061681738" fill="#ff3204" stroke="none" /><path d="M 113.6212207817346 84.01681056812373 l 5.718199076062468 -6.709755352063787 a29.815816329644708,29.815816329644708 0 0,0 0.3877563970492878,0.33625852650615606 l -5.832849271758519 6.61033183213796" fill="#ff700a" stroke="none" /><path d="M 113.89432698308785 84.25364557470407 l 6.032388826062538 -6.836468769015947 a30.117402052039527,30.117402052039527 0 0,0 0.38577382067393406,0.34635154518386385 l -6.1491736343324614 6.7316182150627855" fill="#ff740a" stroke="none" /><path d="M 114.16331599549186 84.49514656593476 l 10.25757869559793 -11.22916796562745 a36.20894913847299,36.20894913847299 0 0,0 0.45656401275909625,0.42432649171594283 l -10.449350592151873 11.050936887836865" fill="#ffc412" stroke="none" /><path d="M 114.42810811169701 84.74124197986012 l 2.702413701567082 -2.8579961020040185 a24.933342285320165,24.933342285320165 0 0,0 0.309312069432045,0.29755796572599585 l -2.7512090146115455 2.811055049515721" fill="#ff2d04" stroke="none" /><path d="M 114.68862486808459 84.99185889309783 l 4.364925296346451 -4.459873906303717 a27.24043653143063,27.24043653143063 0 0,0 0.33228688700794107,0.33085994151470405 l -4.441047983521714 4.3840781141388945" fill="#ff4d07" stroke="none" /><path d="M 114.94478906791727 85.2469230424477 l 7.561696391887497 -7.464694770343035 a31.625484475423747,31.625484475423747 0 0,0 0.37910783905555673,0.39070395266661573 l -7.689068494646163 7.333426622126305" fill="#ff890c" stroke="none" /><path d="M 115.19652480421416 85.50635884689758 l 1.3043242436190876 -1.2439954382902327 a22.80243900950335,22.80243900950335 0 0,0 0.268452764853557,0.2863666922180433 l -1.3255443304431076 1.2213593291941347" fill="#ff0e01" stroke="none" /><path d="M 115.4437574822437 85.77008943001954 l 10.110379126964657 -9.315724555420992 a34.747817648028224,34.747817648028224 0 0,0 0.40151328223849503,0.443360994631197 l -10.269236049819188 9.140310773520246" fill="#ffb210" stroke="none" /><path d="M 115.68641384162765 86.03803664274999 l 2.739159963121235 -2.4380365978395413 a24.66701782869559,24.66701782869559 0 0,0 0.27956909259523005,0.3195958012406005 l -2.780720919294313 2.390525240395993" fill="#ff2904" stroke="none" /><path d="M 115.9244219780498 86.31012108654704 l 3.897219849705993 -3.350355065642026 a26.1393775520792,26.1393775520792 0 0,0 0.2903828263311036,0.34372167491773825 l -3.9543132895242135 3.2827744410951816" fill="#ff3e05" stroke="none" /><path d="M 116.15771136456269 86.58626213691792 l 4.8226089366500515 -4.003612308254125 a27.267891868137234,27.267891868137234 0 0,0 0.29670259094127555,0.3637222939847512 l -4.890810019667736 3.920005844661273" fill="#ff4d07" stroke="none" /><path d="M 116.38621287248628 86.86637796730983 l 4.7063717355307455 -3.772177744839597 a27.031522183633733,27.031522183633733 0 0,0 0.28788045865254397,0.36557894777043587 l -4.770606274777254 3.6906064031161225" fill="#ff4a06" stroke="none" /><path d="M 116.60985879189232 87.15038557335679 l 9.291421409107947 -7.187970956187347 a32.747231089436454,32.747231089436454 0 0,0 0.341076539538127,0.4488167454896066 l -9.413773888870187 7.026969434816707" fill="#ff970e" stroke="none" /><path d="M 116.82858285166822 87.43820079747576 l 2.980266763457478 -2.224638460795794 a24.719006085316504,24.719006085316504 0 0,0 0.251589322949301,0.3431675537610786 l -3.0181186989204054 2.173008463363222" fill="#ff2a04" stroke="none" /><path d="M 117.04232023915458 87.72973835380427 l 7.090719065354139 -5.105230800185916 a29.737372510482977,29.737372510482977 0 0,0 0.2955149696727963,0.41798496737411384 l -7.177546654830818 4.982419332480009" fill="#ff6f0a" stroke="none" /><path d="M 117.2510076193507 88.02491185347247 l 21.431147345338715 -14.876805123764136 a47.08856851626922,47.08856851626922 0 0,0 0.4564800236473317,0.6698281080260403 l -21.68405183465478 14.50569899246769" fill="#b7ff1f" stroke="none" /><path d="M 117.45458315368197 88.32363383020206 l 7.3451858698820445 -4.91361375100366 a29.837157662799,29.837157662799 0 0,0 0.28189487960263787,0.4293452413308563 l -7.428677384842607 4.78645044569513" fill="#ff710a" stroke="none" /><path d="M 117.65298651832404 88.62581576622439 l 3.0197244832519488 -1.9456709249790662 a24.59226548337677,24.59226548337677 0 0,0 0.2262165255800717,0.3578202174515479 l -3.052768605077976 1.893403059813312" fill="#ff2803" stroke="none" /><line stroke="#e1ed5e" stroke-width="0.3" x1="172.23445277983987" x2="176.4835382374775" y1="55.19839476539836" y2="52.563006222186495" /><path d="M 173.08426987136738 54.67131705675599 a86.0,86.0 0 0,1 12.851231095245387,41.99856678651699" fill="none" id="id315" stroke="none" /><text fill="#e1ed5e" style="font-size:6.75px; font-family:Arial;" text-anchor="middle"><textPath startOffset="22.20632615414155" xlink:href="#id315">March</textPath></text><path d="M 117.84615892207809 88.93136811851018 l 6.9714359737756935 -4.3238580815077325 a29.203454653100337,29.203454653100337 0 0,0 0.2612794173705817,0.42947466336014267 l -7.044831189432499 4.203215644940508" fill="#ff6809" stroke="none" /><path d="M 118.03404312379186 89.2402003453031 l 5.3508725399865105 -3.192535146603793 a27.230900224003125,27.230900224003125 0 0,0 0.2367017805407413,0.4046000709536142 l -5.40503399499758 3.0999556632962837" fill="#ff4d07" stroke="none" /><path d="M 118.21658344932153 89.55222093294921 l 0.7207601491231028 -0.41337843725318457 a21.83088923747383,21.83088923747383 0 0,0 0.18415120058141682,0.3275844376911922 l -0.7277689909969526 0.40091048962719844" fill="#ff0000" stroke="none" /><path d="M 118.3937258080291 89.86733742301442 l 6.708253111987976 -3.695415815925494 a28.658769997009223,28.658769997009223 0 0,0 0.234308509278445,0.4341380823976099 l -6.770869720484886 3.5793967501954254" fill="#ff6108" stroke="none" /><path d="M 118.56541770881063 90.18545643968196 l 7.485510877991341 -3.9571893148633683 a29.46712586290032,29.46712586290032 0 0,0 0.2331980166808381,0.45046434278946085 l -7.552518327832295 3.8277522498135625" fill="#ff6c09" stroke="none" /><path d="M 118.73160827565052 90.50648371742162 l 7.753923389804782 -3.929827960937364 a29.692921012958003,29.692921012958003 0 0,0 0.22713668794747854,0.4578937028335475 l -7.820420090705668 3.7957746696048664" fill="#ff6f0a" stroke="none" /><path d="M 118.89224826269711 90.83032412892265 l 2.134895431344733 -1.0362080178000097 a23.37307934105239,23.37307934105239 0 0,0 0.17256211602460464,0.36345982517409803 l -2.152415741211094 0.9993057769853714" fill="#ff1602" stroke="none" /><path d="M 119.196687751892 91.48605970444005 l 15.395641170936381 -6.828134698825742 a37.84188797402297,37.84188797402297 0 0,0 0.25896337423617316,0.5977231719733984 l -15.510895255015233 6.56211238226574" fill="#ffd914" stroke="none" /><path d="M 119.34039704204932 91.81776055985345 l 3.402007912951459 -1.4392694865840527 a24.693934825466776,24.693934825466776 0 0,0 0.1622489272076233,0.39289864670272495 l -3.42627852704528 1.3804962694280247" fill="#ff2904" stroke="none" /><path d="M 119.47837535516314 92.15188598940014 l 7.075402118183023 -2.850779979430938 a28.628123073542604,28.628123073542604 0 0,0 0.1802296440525167,0.4586647855266364 l -7.12342531211724 2.728566189008517" fill="#ff6008" stroke="none" /><path d="M 119.61058180528143 92.48833698450437 l 8.30144629645667 -3.179796894318704 a29.889607353650273,29.889607353650273 0 0,0 0.17990043909473685,0.48204373590282124 l -8.354951324053031 3.036430021386549" fill="#ff710a" stroke="none" /><path d="M 119.7369772167798 92.82701384747503 l 6.319213017729083 -2.296584070254182 a27.72359662347333,27.72359662347333 0 0,0 0.1591425791348227,0.44991750158432403 l -6.357808677673715 2.187468942243244" fill="#ff5407" stroke="none" /><path d="M 119.85752413597 93.16781622104841 l 3.690374635397381 -1.2697110450212095 a24.90269536185355,24.90269536185355 0 0,0 0.13597192583653894,0.40653875141786355 l -3.71168385500569 1.2059991906810317" fill="#ff2c04" stroke="none" /><path d="M 119.97218684219823 93.5106431181261 l 9.456669619053988 -3.0726582199979764 a30.943330871536954,30.943330871536954 0 0,0 0.16023416886788652,0.50798610324641 l -9.508159271690081 2.909421950325147" fill="#ff7f0b" stroke="none" /><path d="M 120.08093135843002 93.85539295169968 l 4.190488123433918 -1.2822564053166476 a25.382279338610935,25.382279338610935 0 0,0 0.12424517304155647,0.4188929579120607 l -4.2119391935871775 1.2099340606580569" fill="#ff3304" stroke="none" /><path d="M 120.18372546131832 94.20196356495316 l 3.5845370986428 -1.0297046866069781 a24.729503714057262,24.729503714057262 0 0,0 0.1140068150880477,0.41014317217453294 l -3.6017306842972103 0.9678502110134932" fill="#ff2a04" stroke="none" /><path d="M 120.28053869075195 94.5502522615342 l 8.01327424461613 -2.1533117960134316 a29.29754878324188,29.29754878324188 0 0,0 0.12668213793938632,0.48815795437682197 l -8.04915271442582 2.015057416087759" fill="#ff6909" stroke="none" /><path d="M 120.37134235888165 94.90015583598534 l 21.627279003429756 -5.414260418684202 a43.294694727076305,43.294694727076305 0 0,0 0.17476047788461546,0.7244950056139167 l -21.71727228157519 5.041180181410879" fill="#e3ff1b" stroke="none" /><path d="M 120.45610955862082 95.25157060432595 l 20.20869397666216 -4.6909973889205885 a41.746006091420135,41.746006091420135 0 0,0 0.15645928569723308,0.7013762991977719 l -20.28644764936143 4.342442920172853" fill="#f5ff19" stroke="none" /><path d="M 120.53481517161879 95.60439243477599 l 2.3766124765541448 -0.5087289899733566 a23.430450997027535,23.430450997027535 0 0,0 0.08102551659206202,0.39510919452941473 l -2.385017289061204 0.46774413928053005" fill="#ff1702" stroke="none" /><path d="M 120.67395015179393 96.31383870115 l 26.484882611892612 -4.722249428470845 a47.90257695148227,47.90257695148227 0 0,0 0.1377498785944897,0.8130075810382127 l -26.562244352007326 4.265656059116794" fill="#aeff20" stroke="none" /><path d="M 120.73433829027371 96.67025291283417 l 5.525706153267606 -0.8873784015093461 a26.596505062958915,26.596505062958915 0 0,0 0.06870017403701635,0.45264831032238084 l -5.540162220743922 0.7921309787948831" fill="#ff4406" stroke="none" /><path d="M 120.78858239683441 97.02765380044208 l 13.88401758990324 -1.9851332875986873 a35.02521652618151,35.02521652618151 0 0,0 0.08019774021163824,0.5975663165021157 l -13.916131329172714 1.7458486290319075" fill="#ffb510" stroke="none" /><path d="M 120.83666639777658 97.38593545837742 l 7.578331573316352 -0.9507397907267454 a28.63773628667517,28.63773628667517 0 0,0 0.057152258026231854,0.4896456444729667 l -7.593574184346172 0.8201504079289259" fill="#ff6008" stroke="none" /><path d="M 120.87857604477298 97.74499172005257 l 22.721159411359128 -2.4540180562480205 a43.853299315783374,43.853299315783374 0 0,0 0.07459837618463508,0.7511954677728447 l -22.760034913225994 2.062547057770741" fill="#dcff1b" stroke="none" /><path d="M 120.94382443527127 98.46500227214037 l 38.51067657425683 -2.8224931517411176 a59.613969982360516,59.613969982360516 0 0,0 0.06619821656519817,1.024057110239438 l -38.553555381826435 2.1591769772486447" fill="#34ff2f" stroke="none" /><path d="M 120.96714384426684 98.82574320788733 l 24.750154756906035 -1.3861228570282085 a45.788939006451535,45.788939006451535 0 0,0 0.037299215676994985,0.787327491178407 l -24.770347580816527 0.9598842592268019" fill="#c6ff1e" stroke="none" /><path d="M 120.98425023603335 99.18683210126433 l 3.6863614142009506 -0.14285145913951294 a24.689128218900493,24.689128218900493 0 0,0 0.01280108436529258,0.4248056695019338 l -3.6882741930218885 0.07937564221258006" fill="#ff2904" stroke="none" /><line stroke="#e1ed5e" stroke-width="0.3" x1="184.98032266829074" x2="189.97916517819016" y1="98.17113171792111" y2="98.06355123074" /><path d="M 185.9800911702706 98.14961562048488 a86.0,86.0 0 0,1 -9.607161424134198,41.387399972396054" fill="none" id="id316" stroke="none" /><text fill="#e1ed5e" style="font-size:6.75px; font-family:Arial;" text-anchor="middle"><textPath startOffset="21.466115282336823" xlink:href="#id316">April</textPath></text><path d="M 120.99513854157772 99.54816195383933 l 21.24758715164081 -0.4572710127734381 a42.2525070649487,42.2525070649487 0 0,0 0.009390102368132808,0.7272737766677664 l -21.25231026112666 0.09146097804520904" fill="#efff19" stroke="none" /><path d="M 120.99980553446 99.90962569577887 l 8.605322632303453 -0.03703367844128784 a29.605402320599133,29.605402320599133 0 0,0 -0.0021932002207385643,0.5096224920411059 l -8.604685134793213 -0.11109829180350278" fill="#ff6d0a" stroke="none" /><path d="M 120.99824983174949 100.27111621757518 l 24.310597275408025 0.31388316803129923 a45.312623522159214,45.312623522159214 0 0,0 -0.016782797396819576,0.7798306482941303 l -24.301592415326198 -0.7323036321155444" fill="#cbff1d" stroke="none" /><path d="M 120.9904718944345 100.63252640178507 l 26.386674740688317 0.7951354553980232 a47.39865231907322,47.39865231907322 0 0,0 -0.031594287533066506,0.8153081751676947 l -26.369078320304048 -1.2492208775797242" fill="#b4ff20" stroke="none" /><path d="M 120.9764740272857 100.99374915477107 l 14.529188542307256 0.688312478762931 a35.54548362091592,35.54548362091592 0 0,0 -0.0342144730212509,0.6109223997773573 l -14.515187718398476 -0.9383065948757117" fill="#ffbc11" stroke="none" /><path d="M 120.95626037817324 101.35467743843564 l 54.64050990233463 3.532131432495797 a75.75455483193662,75.75455483193662 0 0,0 -0.095318858833852,1.3005500976019784 l -54.57161448483644 -4.4721546665945455" fill="#43ffdd" stroke="none" /><path d="M 120.92983693683757 101.71520430193887 l 10.306038372968155 0.8445818955306675 a31.340587291027056,31.340587291027056 0 0,0 -0.04869044348968188,0.5372949865994228 l -10.289973333201399 -1.0218582706786608" fill="#ff850c" stroke="none" /><path d="M 120.89721153311464 102.0752229133903 l 8.636481805459285 0.8576562909059205 a29.67896262748952,29.67896262748952 0 0,0 -0.05486042966835415,0.5079394443315975 l -8.620439074289878 -1.0061920571223095" fill="#ff6e0a" stroke="none" /><path d="M 120.8583938346157 102.4346265915055 l 26.978211473079902 3.148941935050459 a48.161364649010906,48.161364649010906 0 0,0 -0.10319946294369967,0.8226012585186144 l -26.920010500889354 -3.6128609478564684" fill="#abff21" stroke="none" /><path d="M 120.81339534386255 102.79330883721812 l 9.456294194169603 1.2691033684562838 a30.541075581217918,30.541075581217918 0 0,0 -0.07441252928984374,0.5204410565393992 l -9.433047613863158 -1.4316898969760923" fill="#ff7a0b" stroke="none" /><path d="M 120.76222939487914 103.15116336523771 l 5.745998973927922 0.8720923518839918 a26.811802584275835,26.811802584275835 0 0,0 -0.07318121364486496,0.45569948722349757 l -5.730136005921768 -0.9708710688006943" fill="#ff4706" stroke="none" /><path d="M 120.70491114924044 103.5080841355445 l 10.751611210190182 1.821671991062577 a31.904844449056075,31.904844449056075 0 0,0 -0.09640361366225689,0.5406826619139248 l -10.718661154188737 -2.00647340370972" fill="#ff8c0c" stroke="none" /><path d="M 120.64145759157962 103.86396538481128 l 24.660442124254608 4.616296805567293 a46.08879435048249,46.08879435048249 0 0,0 -0.15268573866828092,0.7785412919915292 l -24.577326452610663 -5.040101824626768" fill="#c2ff1e" stroke="none" /><path d="M 120.49622156327973 104.57218783832717 l 2.668223060800747 0.595212975761037 a23.733805550638746,23.733805550638746 0 0,0 -0.0923803730487388,0.3979722292749764 l -2.6575821218214553 -0.6410538623845783" fill="#ff1c02" stroke="none" /><path d="M 120.41448212921028 104.9243191809786 l 15.909831526283993 3.8377210871745504 a37.366149282518606,37.366149282518606 0 0,0 -0.15620595882699348,0.6239651572523925 l -15.841414253161938 -4.1110140838243385" fill="#ffd313" stroke="none" /><path d="M 120.32669344350535 105.2749913415812 l 28.94946843545316 7.512692399519911 a50.90839798092006,50.90839798092006 0 0,0 -0.22741974975945214,0.8463134910784192 l -28.81586060935193 -8.009896823773879" fill="#8dff24" stroke="none" /><path d="M 120.23288151984713 105.62410040840565 l 20.589124574348265 5.723124697474231 a42.36974981231346,42.36974981231346 0 0,0 -0.20137204783631862,0.7010025160490215 l -20.487559889625846 -6.076684689027835" fill="#eeff19" stroke="none" /><path d="M 120.13307415673323 105.97154293290107 l 2.270689593211227 0.6734947821476995 a23.368464998748756,23.368464998748756 0 0,0 -0.1177027602140537,0.3846594306156558 l -2.2587600604910407 -0.7124811853154124" fill="#ff1602" stroke="none" /><path d="M 120.02730092923936 106.31721596034902 l 24.816363170036936 7.827830921873959 a47.021660552866564,47.021660552866564 0 0,0 -0.2501278025637552,0.769814220140297 l -24.677943116456934 -8.253844041992052" fill="#b8ff1f" stroke="none" /><path d="M 119.9155931802556 106.66101706037122 l 1.7614026127178712 0.5891229423750262 a22.857311230064028,22.857311230064028 0 0,0 -0.12801092288760904,0.37205966249616024 l -1.7510008588870314 -0.6193553079604869" fill="#ff0f01" stroke="none" /><path d="M 119.79798401119884 107.00284435728193 l 7.480062798271555 2.6458105799742233 a28.934207779683465,28.934207779683465 0 0,0 -0.17012727084879684,0.46811718262046653 l -7.433411266417531 -2.774175559600821" fill="#ff6409" stroke="none" /><path d="M 119.67450827220406 107.3425965602758 l 22.7174481286783 8.47823255250234 a45.24794582420333,45.24794582420333 0 0,0 -0.27861039198631377,0.727363817117224 l -22.56814345709848 -8.868019936452706" fill="#ccff1d" stroke="none" /><path d="M 119.54520255179757 107.68017299344265 l 24.999432708281944 9.823380823437697 a47.860201907993925,47.860201907993925 0 0,0 -0.30789467423253986,0.7641693311867117 l -24.82663541979201 -10.252249522467222" fill="#aeff20" stroke="none" /><path d="M 119.41010516605496 108.01547362559984 l 11.650967842480284 4.811309606783204 a33.605306493649174,33.605306493649174 0 0,0 -0.22539402125534358,0.5327648859301004 l -11.566422840032631 -5.011149018379468" fill="#ffa30f" stroke="none" /><path d="M 119.26925614724726 108.34839909993367 l 23.82056042990687 10.320250233497415 a46.96009753596562,46.96009753596562 0 0,0 -0.32773433122784507,0.7389543975821656 l -23.639385013947752 -10.72875296757227" fill="#b9ff1f" stroke="none" /><path d="M 119.12269723197855 108.67885076344098 l 1.1055395051885586 0.5017499499272862 a22.21407191293786,22.21407191293786 0 0,0 -0.16102598135688126,0.3468356382989183 l -1.0967389069918458 -0.5207056555050351" fill="#ff0600" stroke="none" /><path d="M 118.97047184881838 109.00673069616215 l 21.45655926508451 10.18706611553768 a44.75205783797311,44.75205783797311 0 0,0 -0.33637936140542884,0.693041116770934 l -21.27802664706437 -10.55489618827389" fill="#d2ff1c" stroke="none" /><path d="M 118.81262510543309 109.33194174019688 l 21.07240906509998 10.452900252837017 a44.52253276121999,44.52253276121999 0 0,0 -0.3464729299201422,0.6836239606278189 l -20.889357465393566 -10.81407842516753" fill="#d5ff1c" stroke="none" /><line stroke="#e1ed5e" stroke-width="0.3" x1="174.80103733775053" x2="179.2010983576182" y1="140.37084112569926" y2="142.7455964860345" /><path d="M 175.68104954172406 140.8457921977663 a86.0,86.0 0 0,1 -30.038265399797805,32.042727171017184" fill="none" id="id317" stroke="none" /><text fill="#e1ed5e" style="font-size:6.75px; font-family:Arial;" text-anchor="middle"><textPath startOffset="22.206326154141568" xlink:href="#id317">May</textPath></text><path d="M 118.48025628344425 109.97397251340804 l 4.9413031431245615 2.6668689532240517 a26.6150393378785,26.6150393378785 0 0,0 -0.22106146304295646,0.40129076706545214 l -4.894665270630095 -2.751530238687309" fill="#ff4406" stroke="none" /><path d="M 118.30583269289576 110.29060199501025 l 17.630837444787446 9.911154222088035 a41.22566209098067,41.22566209098067 0 0,0 -0.3530644302075901,0.6155975939563206 l -17.457621018427478 -10.21317166190267" fill="#fcff18" stroke="none" /><path d="M 118.12598468904814 110.60418214915192 l 5.928414080774959 3.4682795912389177 a27.868410066102285,27.868410066102285 0 0,0 -0.24579821467267501,0.4119719460782958 l -5.867834990404057 -3.5698136312033175" fill="#ff5607" stroke="none" /><path d="M 117.94076556474637 110.91462005526583 l 10.265680716980581 6.245330180038832 a33.016170340033085,33.016170340033085 0 0,0 -0.29955942440581523,0.4829851739393909 l -10.156656652906804 -6.421111685343496" fill="#ff9b0e" stroke="none" /><path d="M 117.75023020441432 111.22182372390056 l 12.523274563581849 7.917304619721129 a35.81607634417134,35.81607634417134 0 0,0 -0.33393397910023925,0.5182729512646611 l -12.38513572110456 -8.131699170907243" fill="#ffbf11" stroke="none" /><path d="M 117.55443506779139 111.5257021239791 l 7.281998863076348 4.781136472854444 a29.711301476467465,29.711301476467465 0 0,0 -0.28437520623694373,0.4251023487895705 l -7.198620551428682 -4.905775735849821" fill="#ff6f0a" stroke="none" /><path d="M 117.35343817320211 111.8261652097733 l 11.434349956738862 7.792375799256724 a34.83710517160348,34.83710517160348 0 0,0 -0.34196615510340933,0.4926277514674964 l -11.298522894473315 -7.988044812911239" fill="#ffb310" stroke="none" /><path d="M 116.93607887273984 112.41649034213515 l 4.05639127570266 2.973896347386065 a26.029748469515432,26.029748469515432 0 0,0 -0.2680304684425421,0.35907061339194 l -4.004599540565026 -3.0432798402873202" fill="#ff3c05" stroke="none" /><path d="M 116.498646956653 112.99209946851258 l 35.60060129521184 28.034211192072213 a66.31357202585497,66.31357202585497 0 0,0 -0.7139195629860057,0.8907244249760785 l -35.112763820170976 -28.642863450626542" fill="#37ff79" stroke="none" /><path d="M 116.27256486870786 113.27417163493432 l 11.0147834200833 8.985192366384757 a35.21475063630315,35.21475063630315 0 0,0 -0.38720127546065647,0.4664088796682576 l -10.858486144729099 -9.173462503166785" fill="#ffb811" stroke="none" /><path d="M 116.0416608686014 113.55231037782055 l 12.856602453485504 10.861510430938045 a37.830467476821475,37.830467476821475 0 0,0 -0.4245253822548582,0.4938189278486559 l -12.667734561659866 -11.08120645794823" fill="#ffd914" stroke="none" /><path d="M 115.80600337817218 113.82643327865902 l 6.536013982603362 5.717432742273543 a29.68380768690833,29.68380768690833 0 0,0 -0.33972573744233553,0.3816854674242796 l -6.436629395512687 -5.829092379438689" fill="#ff6f0a" stroke="none" /><path d="M 115.56566222782051 114.09645910891815 l 15.344960961591113 13.896589271762835 a41.7022467452407,41.7022467452407 0 0,0 -0.4864340540426391,0.5279280937708266 l -15.10348049955275 -14.158668620334996" fill="#f6ff19" stroke="none" /><path d="M 115.32070863581623 114.36230785411682 l 8.901677991963078 8.3448254762779 a33.201474636376396,33.201474636376396 0 0,0 -0.3944547812539709,0.4135842611353551 l -8.756716659330143 -8.496816853995764" fill="#ff9d0e" stroke="none" /><path d="M 115.07121518719521 114.62390073753431 l 38.09755417532336 36.96681678834481 a74.08454744654748,74.08454744654748 0 0,0 -0.8959269220270816,0.9075692418935626 l -37.455586628240745 -37.61712652421904" fill="#41ffcc" stroke="none" /><path d="M 114.81725581225074 114.88116024355365 l 29.049913874479266 29.175201461402906 a62.171469204148025,62.171469204148025 0 0,0 -0.7648572395123088,0.7485737899724435 l -28.54340668259116 -29.670925354297925" fill="#32ff49" stroke="none" /><path d="M 114.55890576462653 115.13401014063108 l 3.9492110450724334 4.1052123675966135 a26.69640557383253,26.69640557383253 0 0,0 -0.3339137664197768,0.31573630799633917 l -3.877961444261849 -4.172583312338874" fill="#ff4506" stroke="none" /><path d="M 114.29624159901734 115.38237550388516 l 11.411531122932976 12.278503800557827 a37.76259819210557,37.76259819210557 0 0,0 -0.47994545098927455,0.4384187900818935 l -11.198486122476838 -12.473115357226304" fill="#ffd814" stroke="none" /><path d="M 114.0293411484842 115.62618273729858 l 3.2315428806195845 3.5993621540405525 a25.837176584043895,25.837176584043895 0 0,0 -0.3334935377337117,0.2942692724212479 l -3.1691069899792854 -3.6544545682340894" fill="#ff3905" stroke="none" /><path d="M 113.75828350139079 115.86535959552629 l 20.931146134443736 24.136743521522195 a52.94832180765028,52.94832180765028 0 0,0 -0.6937100612663332,0.5911947639295448 l -20.512570596600355 -24.493462675674685" fill="#77ff27" stroke="none" /><path d="M 113.20401910651253 116.32954008644616 l 35.36956794905561 43.74189199556024 a77.25263951366298,77.25263951366298 0 0,0 -1.041227656292848,0.8272142228671592 l -34.611382800045405 -44.344240132432525" fill="#45ffec" stroke="none" /><path d="M 112.92097659922987 116.55440617244103 l 12.039181086289283 15.424646283925744 a40.56684936857975,40.56684936857975 0 0,0 -0.5541649361608278,0.42491004224298495 l -11.771887421634961 -15.6295956679961" fill="#fffa17" stroke="none" /><path d="M 112.63410532772338 116.77436683061366 l 2.2095437535798257 2.933622642001339 a24.672631945165012,24.672631945165012 0 0,0 -0.3414398886950479,0.2525890669817066 l -2.1587188944662135 -2.9712216577228143" fill="#ff2904" stroke="none" /><path d="M 112.34349029814194 116.9893568818739 l 8.670993605226984 11.934598830755577 a35.7519754390034,35.7519754390034 0 0,0 -0.500991873672218,0.3574443997058715 l -8.46427440370588 -12.082087492305668" fill="#ffbe11" stroke="none" /><path d="M 112.04921762599082 117.19931262002967 l 9.594041619456569 13.69474153630288 a37.72099220566783,37.72099220566783 0 0,0 -0.5349970396977163,0.36797584226754987 l -9.356887695135969 -13.857858167935523" fill="#ffd714" stroke="none" /><path d="M 111.7513745106137 117.40417183066458 l 20.01984150232975 29.6500431685264 a56.77595720136477,56.77595720136477 0 0,0 -0.814668209906102,0.539917667026055 l -19.506498593683688 -29.99025885664377" fill="#50ff2b" stroke="none" /><path d="M 111.45004920935366 117.60387380957326 l 4.868882934393162 7.485662218868334 a29.929790584544396,29.929790584544396 0 0,0 -0.4342929453350055,0.27718630557232876 l -4.739308187011226 -7.568362953264471" fill="#ff720a" stroke="none" /><path d="M 111.1453310114006 117.79835938074945 l 21.940323242741062 35.03725080974893 a62.33989269823056,62.33989269823056 0 0,0 -0.9143801726210953,0.5616869845326952 l -21.333963870187656 -35.40972626111001" fill="#32ff4b" stroke="none" /><line stroke="#e1ed5e" stroke-width="0.3" x1="143.8653032363475" x2="146.44561519142675" y1="172.8068346515853" y2="177.08958963109032" /><path d="M 144.38136562736335 173.6633856474863 a86.0,86.0 0 0,1 -40.68145358897372,12.25698825130547" fill="none" id="id318" stroke="none" /><text fill="#e1ed5e" style="font-size:6.75px; font-family:Arial;" text-anchor="middle"><textPath startOffset="21.466115282336833" xlink:href="#id318">June</textPath></text><path d="M 110.8373102113329 117.98757091392108 l 2.481084355327689 4.118058809298213 a25.807721699005718,25.807721699005718 0 0,0 -0.38248534134707474,0.22597908151708343 l -2.4098311429522323 -4.160156463109046" fill="#ff3905" stroke="none" /><path d="M 110.5260780823613 118.17145234162733 l 15.724799193109543 27.146144735338115 a52.371682831106526,52.371682831106526 0 0,0 -0.7839572893509621,0.44515140892192023 l -15.255193136837383 -27.412799310054666" fill="#7dff26" stroke="none" /><path d="M 110.21172684928248 118.3499491758327 l 1.7904818284997495 3.2174039746794554 a24.682052894034925,24.682052894034925 0 0,0 -0.3730247878484803,0.2034028565272645 l -1.7348342287826206 -3.2477474829664907" fill="#ff2904" stroke="none" /><path d="M 109.89434966115114 118.52300852407294 l 3.9809422493906865 7.452640117301728 a29.44924528647375,29.44924528647375 0 0,0 -0.44918386566601237,0.2349917687759032 l -3.8520674811981785 -7.520061305022348" fill="#ff6b09" stroke="none" /><path d="M 109.57404056367764 118.69057910512821 l 6.041573311065586 11.794445943576306 a34.25177585038789,34.25177585038789 0 0,0 -0.5270632152847066,0.2642804377966178 l -5.837656188098119 -11.896694222282227" fill="#ffab0f" stroke="none" /><path d="M 108.92500713936063 119.00905698771935 l 2.6496872486805216 5.643475139383429 a27.2345532449935,27.2345532449935 0 0,0 -0.426067731521745,0.19558679823905292 l -2.552151521391357 -5.688249007956556" fill="#ff4d07" stroke="none" /><path d="M 108.59647513512805 119.15986991738527 l 11.088129114262147 24.713281678476076 a48.08676611510221,48.08676611510221 0 0,0 -0.7581206706323059,0.33233782289240216 l -10.661087768972086 -24.900484054662932" fill="#acff21" stroke="none" /><path d="M 108.2653958097858 119.30500536409082 l 0.3891577405415546 0.9089331523285958 a21.988738197110543,21.988738197110543 0 0,0 -0.3492319884940337,0.145978999514059 l -0.3734542925500598 -0.9154971948626279" fill="#ff0200" stroke="none" /><path d="M 107.93186726928326 119.44442032107085 l 6.511304054936416 15.962008513780543 a38.23899058210294,38.23899058210294 0 0,0 -0.6116033814267594,0.2433696075249843 l -6.235579597467791 -16.071724965711596" fill="#ffde14" stroke="none" /><path d="M 107.59598834532513 119.57807347666477 l 2.726246612673833 7.026690151688507 a28.537028265898424,28.537028265898424 0 0,0 -0.4594866222717158,0.17373852383579289 l -2.6048897696418427 -7.072576925630932" fill="#ff5f08" stroke="none" /><path d="M 107.2578585660854 119.70592522655815 l 6.579184977066186 17.86324795795633 a40.03631536221977,40.03631536221977 0 0,0 -0.6487416658201257,0.232615680240193 l -6.270723750616325 -17.97385117923648" fill="#fff417" stroke="none" /><path d="M 106.91757812671514 119.82793768551818 l 5.557044109765642 15.928222609960034 a37.8697662921074,37.8697662921074 0 0,0 -0.6173317718277108,0.20943245447769027 l -5.282042605000704 -16.021518051335846" fill="#ffd914" stroke="none" /><path d="M 106.57524785965236 119.94407469862006 l 12.784632501210227 38.7784112539939 a61.831507534928,61.831507534928 0 0,0 -1.013679440244019,0.324548145824477 l -12.115231715875268 -38.99273224647809" fill="#32ff45" stroke="none" /><path d="M 106.2309692047433 120.05430185196036 l 6.604145832292045 21.255366483649112 a43.25770308294219,43.25770308294219 0 0,0 -0.7129796945352201,0.21481493330184492 l -6.237291163316579 -21.365896786056684" fill="#e3ff1b" stroke="none" /><path d="M 105.88484417918355 120.15858648285463 l 1.0368456302884335 3.5517240000123684 a24.699971923314024,24.699971923314024 0 0,0 -0.4091595419434421,0.11563257353741441 l -0.9755549202403857 -3.569045366888302" fill="#ff2904" stroke="none" /><path d="M 105.53697534728816 120.25689768951611 l 4.313597040256851 15.781196129233022 a37.36011218467135,37.36011218467135 0 0,0 -0.6217960126751078,0.16422197836351163 l -4.041310584770246 -15.853109456900118" fill="#ffd313" stroke="none" /><path d="M 105.18746579009965 120.34920634021253 l 0.9013038564399728 3.5356027185624983 a24.64867581803866,24.64867581803866 0 0,0 -0.41203984196913884,0.10126936827646543 l -0.8403107297276229 -3.550593345152994" fill="#ff2903" stroke="none" /><path d="M 104.83641907484287 120.43548508189849 l 7.496580928671062 31.6755569280521 a53.550570383979206,53.550570383979206 0 0,0 -0.8988331928034293,0.20457150833242507 l -6.950227586474771 -31.799905169962212" fill="#71ff27" stroke="none" /><path d="M 104.13013068566511 120.58985236759428 l 10.773727866352246 53.71003561382618 a75.77993371460659,75.77993371460659 0 0,0 -1.2811586016330905,0.2455370951861528 l -9.84760165014745 -53.88752990736079" fill="#43ffde" stroke="none" /><path d="M 103.7750983002368 120.6578951692458 l 4.933429990522734 26.996457168450135 a48.44353168087795,48.44353168087795 0 0,0 -0.8215816016033817,0.1428424925306016 l -4.467999417447302 -27.077378239501744" fill="#a8ff21" stroke="none" /><path d="M 103.41894727170886 120.7198165907248 l 0.3029404685351756 1.8359075022586602 a22.86073353393922,22.86073353393922 0 0,0 -0.3888111499964388,0.06072430532428144 l -0.27129345493021967 -1.8408501149300474" fill="#ff0f01" stroke="none" /><path d="M 103.06178313531738 120.77559828337769 l 2.1287818267768945 14.444757878479605 a35.60077882285442,35.60077882285442 0 0,0 -0.6070295727593111,0.08412876751837635 l -1.8798236628307528 -14.479261211490584" fill="#ffbc11" stroke="none" /><path d="M 102.70371172650421 120.8252237178851 l 0.4722208768243023 3.6372610688185545 a24.6677868857462,24.6677868857462 0 0,0 -0.4215520117765288,0.05104407793503921 l -0.4095414419963932 -3.6448506754789447" fill="#ff2904" stroke="none" /><path d="M 102.34483914955558 120.86867818915974 l 4.037905843325296 35.93668999362023 a57.16283135067171,57.16283135067171 0 0,0 -0.9787567066396609,0.10145213453792892 l -3.418716540080032 -36.00087149661391" fill="#4cff2c" stroke="none" /><path d="M 101.62511606390274 120.93702456842531 l 4.8753481917081976 62.81107370527595 a84.0,84.0 0 0,0 -1.4425489568842786,0.09948662193485935 l -3.7934364740449884 -62.885688671727095" fill="#4dd2ff" stroke="none" /><path d="M 101.26447882468166 120.96189622390904 l 1.2770042168981701 21.16953589859657 a42.20801711457119,42.20801711457119 0 0,0 -0.725599894617536,0.03750522645438991 l -0.9124162538671543 -21.18838093181316" fill="#f0ff19" stroke="none" /><path d="M 100.90346689309514 120.98055641714683 l 0.3248421095258136 7.543572717117381 a28.550563669989074,28.550563669989074 0 0,0 -0.49117798105638577,0.01691716279972941 l -0.1949437767947755 -7.548046678343204" fill="#ff5f08" stroke="none" /><line stroke="#e1ed5e" stroke-width="0.3" x1="102.19456741930631" x2="102.32365962044197" y1="184.97166512339345" y2="189.96999836594603" /><path d="M 102.22038585953345 185.97133177190398 a86.0,86.0 0 0,1 -42.740103519485714,-10.115201625700543" fill="none" id="id319" stroke="none" /><text fill="#e1ed5e" style="font-size:6.75px; font-family:Arial;" text-anchor="middle"><textPath startOffset="22.20632615414155" xlink:href="#id319">July</textPath></text><path d="M 100.54218724476979 120.99299961872073 l 0.04685385748579204 1.8141389747234875 a22.81474392231303,22.81474392231303 0 0,0 -0.39267467230000913,0.006760250591749852 l -0.015619495293114984 -1.814676702594397" fill="#ff0e01" stroke="none" /><line stroke="#e1ed5e" stroke-width="0.3" x1="58.666819895761336" x2="56.23545636021788" y1="174.27360380694188" y2="178.64263932499728" /><path d="M 58.180547188652646 175.14741091055294 a86.0,86.0 0 0,1 -31.652253787137756,-30.449443065178592" fill="none" id="id320" stroke="none" /><text fill="#e1ed5e" style="font-size:6.75px; font-family:Arial;" text-anchor="middle"><textPath startOffset="22.20632615414155" xlink:href="#id320">August</textPath></text><line stroke="#e1ed5e" stroke-width="0.3" x1="26.63291911575756" x2="22.317208475507996" y1="142.92168965132927" y2="145.44649492493687" /><path d="M 25.769776987707644 143.4266507060508 a86.0,86.0 0 0,1 -11.730757126820373,-40.83630448921669" fill="none" id="id321" stroke="none" /><text fill="#e1ed5e" style="font-size:6.75px; font-family:Arial;" text-anchor="middle"><textPath startOffset="21.46611528233685" xlink:href="#id321">September</textPath></text><line stroke="#e1ed5e" stroke-width="0.3" x1="15.007084014347285" x2="10.007500721073583" y1="101.09737516637583" y2="101.16192664675087" /><path d="M 14.007167355692545 101.11028546245083 a86.0,86.0 0 0,1 10.666146001902534,-42.60595125391555" fill="none" id="id322" stroke="none" /><text fill="#e1ed5e" style="font-size:6.75px; font-family:Arial;" text-anchor="middle"><textPath startOffset="22.20632615414155" xlink:href="#id322">October</textPath></text><line stroke="#e1ed5e" stroke-width="0.3" x1="26.266209847984243" x2="21.928928074336255" y1="57.711370442889674" y2="55.22380399835377" /><path d="M 25.398753493254645 57.213857153982495 a86.0,86.0 0 0,1 29.58750427330803,-30.492523968695096" fill="none" id="id323" stroke="none" /><text fill="#e1ed5e" style="font-size:6.75px; font-family:Arial;" text-anchor="middle"><textPath startOffset="21.46611528233685" xlink:href="#id323">November</textPath></text><line stroke="#e1ed5e" stroke-width="0.3" x1="56.762969772571076" x2="54.21961505331055" y1="26.818313649435495" y2="22.513508569990535" /><path d="M 56.25429882871897 25.957352633546506 a86.0,86.0 0 0,1 42.265352541879196,-11.944610805530505" fill="none" id="id324" stroke="none" /><text fill="#e1ed5e" style="font-size:6.75px; font-family:Arial;" text-anchor="middle"><textPath startOffset="22.20632615414155" xlink:href="#id324">December</textPath></text></svg>