<?xml version="1.0" encoding="utf-8" ?>
<svg baseProfile="full" height="200mm" version="1.1" viewBox="0,0,200,200" width="200mm" xmlns="http://www.w3.org/2000/svg" xmlns:ev="http://www.w3.org/2001/xml-events" xmlns:xlink="http://www.w3.org/1999/xlink"><defs /><rect fill="#1a1a1a" height="200" width="200" x="0" y="0" /><text alignment-baseline="middle" fill="#e1ed5e" style="dominant-baseline: central; font-size:9.0px; font-family:Arial;" text-anchor="middle" x="100.0" y="100.0">2026</text><line stroke="#e1ed5e" stroke-width="0.3" x1="100.0" x2="100.0" y1="15.0" y2="10.0" /><path d="M 100.0 14.0 a86.0,86.0 0 0,1 42.46469731375804,11.215312516191453" fill="none" id="id325" stroke="none" /><text fill="#e1ed5e" style="font-size:6.75px; font-family:Arial;" text-anchor="middle"><textPath startOffset="22.20632615414155" xlink:href="#id325">January</textPath></text><path d="M 100.36148047927253 79.00311137660856 l 0.1312785291804355 -7.625420496817767 a28.626550452564533,28.626550452564533 0 0,0 0.4926129933241488,0.012722740267667306 l -0.26251815769945214 7.62203096440774" fill="#ff4806" stroke="none" /><path d="M 100.72285384407766 79.0124445844662 l 1.8187783001733446 -52.80695492760971 a73.83826684545761,73.83826684545761 0 0,0 1.269874618653328,0.05468347233143045 l -2.7274937512160045 52.76782372875409" fill="#40ffc7" stroke="none" /><path d="M 101.08401301168833 79.027996857942 l 0.6762180732400052 -13.082543663030531 a34.100008380824676,34.100008380824676 0 0,0 0.5859322456518494,0.035345033169275425 l -0.9013123677314665 13.068965360480952" fill="#ff940d" stroke="none" /><path d="M 101.44485096284872 79.0497635885617 l 0.37741463970892397 -5.472485488364975 a26.485484411666107,26.485484411666107 0 0,0 0.45455373435501173,0.03528211820132711 l -0.4715585634262769 5.465178107975183" fill="#ff2904" stroke="none" /><path d="M 101.80526077348638 79.07773832637324 l 3.0087679558106264 -34.870436122711276 a56.0,56.0 0 0,0 0.9596663277593488,0.0911318812928581 l -3.6085594106602197 34.81347869690324" fill="#61ff29" stroke="none" /><path d="M 102.16513564639614 79.11191278185805 l 0.592000925776683 -5.711312818403293 a26.741912504190413,26.741912504190413 0 0,0 0.4574564468254676,0.05140056193353636 l -0.6902240761118759 5.700276302999156" fill="#ff2c04" stroke="none" /><path d="M 102.52436894288641 79.15227682838746 l 3.954202936285243 -32.656133095106675 a53.894661414683206,53.894661414683206 0 0,0 0.9200210632962105,0.11944513879716462 l -4.5157387280893 32.58322963314537" fill="#77ff27" stroke="none" /><path d="M 102.88285421437855 79.19881850522331 l 2.4714056196797487 -17.83238173674045 a39.002824337914845,39.002824337914845 0 0,0 0.6642199921014535,0.09788876075756746 l -2.777994592209858 17.787198491821915" fill="#ffd513" stroke="none" /><path d="M 103.59715602781102 79.31037775812273 l 10.089843785014924 -58.033361571626145 a79.90395574924572,79.90395574924572 0 0,0 1.3530588813147473,0.24726286202555342 l -11.087297787432572 57.851083228249855" fill="#48f9ff" stroke="none" /><path d="M 103.95276090670814 79.375362276772 l 0.810704680656472 -4.230078857208155 a25.307065035199464,25.307065035199464 0 0,0 0.42712732982260554,0.08567772415711841 l -0.8833984199462029 4.2154971769738285" fill="#ff1702" stroke="none" /><path d="M 104.307194497241 79.44645832069477 l 2.295798680535783 -10.955343181718844 a32.19331210191083,32.19331210191083 0 0,0 0.5413953524945757,0.118328054564494 l -2.4840367571838864 10.914201629058478" fill="#ff7a0b" stroke="none" /><path d="M 104.66035177308747 79.52364482259891 l 6.460880685576166 -28.387403809438794 a50.113359034529,50.113359034529 0 0,0 0.8394615559566629,0.198673428379851 l -6.948565928495352 28.271984468918074" fill="#a1ff22" stroke="none" /><path d="M 105.01212808612495 79.60689891045804 l 3.3395984741917037 -13.587994582821134 a34.992373449547436,34.992373449547436 0 0,0 0.5836913039614569,0.1487959098087926 l -3.5729986668381857 13.528495676843473" fill="#ffa00e" stroke="none" /><path d="M 105.36241919743992 79.69619591428918 l 2.641406414544083 -10.001194680424598 a31.34412504190412,31.34412504190412 0 0,0 0.5204648839308529,0.1422627134531941 l -2.8131691876986467 9.95424542614511" fill="#ff6e0a" stroke="none" /><path d="M 105.71112130821622 79.79150937346287 l 9.373428104211554 -33.16736307281174 a55.46643479718404,55.46643479718404 0 0,0 0.9165426410775505,0.26756393018459607 l -9.942960963012531 33.00110081370844" fill="#66ff29" stroke="none" /><path d="M 106.0581310904928 79.89281104454417 l 9.344645205826836 -31.015265940699642 a53.39242373449547,53.39242373449547 0 0,0 0.8777069361702503,0.27270781752653767 l -9.877137514707805 30.849817988290585" fill="#7dff26" stroke="none" /><path d="M 106.74666289553966 80.11325718540242 l 8.842489712282067 -26.06448869190353 a48.52357525980557,48.52357525980557 0 0,0 0.7886652125410358,0.2751498068081823 l -9.289836928886375 25.90841803192314" fill="#b4ff20" stroke="none" /><path d="M 107.08798089147638 80.2323363322302 l 3.5156551550473236 -9.804807566624369 a31.41604927924908,31.41604927924908 0 0,0 0.5074704366629047,0.18690564454213562 l -3.6839079174828044 9.742838654275907" fill="#ff6f0a" stroke="none" /><path d="M 107.4271985657038 80.35727306442388 l 0.9711421076873572 -2.5683814789910597 a23.74585149178679,23.74585149178679 0 0,0 0.38108341495952,0.1478544445182222 l -1.0152086876465443 2.5512843305822908" fill="#ff0000" stroke="none" /><path d="M 107.76421540070413 80.48803036053334 l 3.6883710483264514 -9.26911222832726 a30.975997318136102,30.975997318136102 0 0,0 0.4937221884746192,0.20140167730467273 l -3.847377106389458 9.204249664839008" fill="#ff6909" stroke="none" /><path d="M 108.43124777332544 80.76684994638697 l 25.2937433199763 -57.69945016083909 a84.0,84.0 0 0,0 1.3192715261328791,0.591918677933875 l -26.283196964575957 57.255511152388685" fill="#4dd2ff" stroke="none" /><path d="M 108.76106565485865 80.91482961587045 l 2.2973689483712216 -5.004605551672549 a26.506721421387866,26.506721421387866 0 0,0 0.4130274664804667,0.1939219336062634 l -2.3831746261512863 4.964318635426283" fill="#ff2904" stroke="none" /><path d="M 109.08828744355905 81.06846463323043 l 2.1115111004889715 -4.398424601387745 a25.87899765336909,25.87899765336909 0 0,0 0.39992753902323236,0.19624270653246761 l -2.1869099065226356 4.361426734720445" fill="#ff2003" stroke="none" /><path d="M 109.41281617654863 81.2277094730956 l 4.684608935826107 -9.34267049295604 a31.45136607442172,31.45136607442172 0 0,0 0.48186415168819047,0.2468295341998827 l -4.844733575103053 9.260648433443658" fill="#ff700a" stroke="none" /><line stroke="#e1ed5e" stroke-width="0.3" x1="143.23703022742887" x2="145.7803849466894" y1="26.81831364943548" y2="22.513508569990506" /><path d="M 143.74570117128098 25.957352633546492 a86.0,86.0 0 0,1 28.547481713284135,27.462654790039103" fill="none" id="id326" stroke="none" /><text fill="#e1ed5e" style="font-size:6.75px; font-family:Arial;" text-anchor="middle"><textPath startOffset="19.985693538727396" xlink:href="#id326">February</textPath></text><line stroke="#e1ed5e" stroke-width="0.3" x1="172.23445277983987" x2="176.4835382374775" y1="55.19839476539836" y2="52.563006222186495" /><path d="M 173.08426987136738 54.67131705675599 a86.0,86.0 0 0,1 12.851231095245387,41.99856678651699" fill="none" id="id327" stroke="none" /><text fill="#e1ed5e" style="font-size:6.75px; font-family:Arial;" text-anchor="middle"><textPath startOffset="22.20632615414155" xlink:href="#id327">March</textPath></text><line stroke="#e1ed5e" stroke-width="0.3" x1="184.98032266829074" x2="189.97916517819016" y1="98.17113171792111" y2="98.06355123074" /><path d="M 185.9800911702706 98.14961562048488 a86.0,86.0 0 0,1 -9.607161424134198,41.387399972396054" fill="none" id="id328" stroke="none" /><text fill="#e1ed5e" style="font-size:6.75px; font-family:Arial;" text-anchor="middle"><textPath startOffset="21.466115282336823" xlink:href="#id328">April</textPath></text><line stroke="#e1ed5e" stroke-width="0.3" x1="174.80103733775053" x2="179.2010983576182" y1="140.37084112569926" y2="142.7455964860345" /><path d="M 175.68104954172406 140.8457921977663 a86.0,86.0 0 0,1 -30.038265399797805,32.042727171017184" fill="none" id="id329" stroke="none" /><text fill="#e1ed5e" style="font-size:6.75px; font-family:Arial;" text-anchor="middle"><textPath startOffset="22.206326154141568" xlink:href="#id329">May</textPath></text><line stroke="#e1ed5e" stroke-width="0.3" x1="143.8653032363475" x2="146.44561519142675" y1="172.8068346515853" y2="177.08958963109032" /><path d="M 144.38136562736335 173.6633856474863 a86.0,86.0 0 0,1 -40.68145358897372,12.25698825130547" fill="none" id="id330" stroke="none" /><text fill="#e1ed5e" style="font-size:6.75px; font-family:Arial;" text-anchor="middle"><textPath startOffset="21.466115282336833" xlink:href="#id330">June</textPath></text><line stroke="#e1ed5e" stroke-width="0.3" x1="102.19456741930631" x2="102.32365962044197" y1="184.97166512339345" y2="189.96999836594603" /><path d="M 102.22038585953345 185.97133177190398 a86.0,86.0 0 0,1 -42.740103519485714,-10.115201625700543" fill="none" id="id331" stroke="none" /><text fill="#e1ed5e" style="font-size:6.75px; font-family:Arial;" text-anchor="middle"><textPath startOffset="22.20632615414155" xlink:href="#id331">July</textPath></text><line stroke="#e1ed5e" stroke-width="0.3" x1="58.666819895761336" x2="56.23545636021788" y1="174.27360380694188" y2="178.64263932499728" /><path d="M 58.180547188652646 175.14741091055294 a86.0,86.0 0 0,1 -31.652253787137756,-30.449443065178592" fill="none" id="id332" stroke="none" /><text fill="#e1ed5e" style="font-size:6.75px; font-family:Arial;" text-anchor="middle"><textPath startOffset="22.20632615414155" xlink:href="#id332">August</textPath></text><line stroke="#e1ed5e" stroke-width="0.3" x1="26.63291911575756" x2="22.317208475507996" y1="142.92168965132927" y2="145.44649492493687" /><path d="M 25.769776987707644 143.4266507060508 a86.0,86.0 0 0,1 -11.730757126820373,-40.83630448921669" fill="none" id="id333" stroke="none" /><text fill="#e1ed5e" style="font-size:6.75px; font-family:Arial;" text-anchor="middle"><textPath startOffset="21.46611528233685" xlink:href="#id333">September</textPath></text><line stroke="#e1ed5e" stroke-width="0.3" x1="15.007084014347285" x2="10.007500721073583" y1="101.09737516637583" y2="101.16192664675087" /><path d="M 14.007167355692545 101.11028546245083 a86.0,86.0 0 0,1 10.666146001902534,-42.60595125391555" fill="none" id="id334" stroke="none" /><text fill="#e1ed5e" style="font-size:6.75px; font-family:Arial;" text-anchor="middle"><textPath startOffset="22.20632615414155" xlink:href="#id334">October</textPath></text><line stroke="#e1ed5e" stroke-width="0.3" x1="26.266209847984243" x2="21.928928074336255" y1="57.711370442889674" y2="55.22380399835377" /><path d="M 25.398753493254645 57.213857153982495 a86.0,86.0 0 0,1 29.58750427330803,-30.492523968695096" fill="none" id="id335" stroke="none" /><text fill="#e1ed5e" style="font-size:6.75px; font-family:Arial;" text-anchor="middle"><textPath startOffset="21.46611528233685" xlink:href="#id335">November</textPath></text><line stroke="#e1ed5e" stroke-width="0.3" x1="56.762969772571076" x2="54.21961505331055" y1="26.818313649435495" y2="22.513508569990535" /><path d="M 56.25429882871897 25.957352633546506 a86.0,86.0 0 0,1 42.265352541879196,-11.944610805530505" fill="none" id="id336" stroke="none" /><text fill="#e1ed5e" style="font-size:6.75px; font-family:Arial;" text-anchor="middle"><textPath startOffset="22.20632615414155" xlink:href="#id336">December</textPath></text></svg>