<?xml version="1.0" encoding="utf-8" ?>
<svg baseProfile="full" height="200mm" version="1.1" viewBox="0,0,200,200" width="200mm" xmlns="http://www.w3.org/2000/svg" xmlns:ev="http://www.w3.org/2001/xml-events" xmlns:xlink="http://www.w3.org/1999/xlink"><defs /><rect fill="#1a1a1a" height="200" width="200" x="0" y="0" /><text alignment-baseline="middle" fill="#e1ed5e" style="dominant-baseline: central; font-size:9.0px; font-family:Arial;" text-anchor="middle" x="100.0" y="100.0">2023</text><line stroke="#e1ed5e" stroke-width="0.3" x1="100.0" x2="100.0" y1="15.0" y2="10.0" /><path d="M 100.0 14.0 a86.0,86.0 0 0,1 42.46469731375804,11.215312516191453" fill="none" id="id289" stroke="none" /><text fill="#e1ed5e" style="font-size:6.75px; font-family:Arial;" text-anchor="middle"><textPath startOffset="22.20632615414155" xlink:href="#id289">January</textPath></text><path d="M 100.0 79.0 l 0.0 -43.98259706065497 a64.98259706065497,64.98259706065497 0 0,0 1.1185685871361501,0.009627872974187057 l -0.7570881078636217 43.97608056428934" fill="#33ff56" stroke="none" /><path d="M 100.36148047927253 79.00311137660856 l 0.23369663099218824 -13.574459518477509 a34.57647101916112,34.57647101916112 0 0,0 0.5950007464419711,0.015367113857405175 l -0.46732401262902706 13.568425612477744" fill="#ff760a" stroke="none" /><path d="M 100.72285384407766 79.0124445844662 l 1.0846522255584259 -31.492118188201587 a52.51079145991205,52.51079145991205 0 0,0 0.9030835111542492,0.03888867567693001 l -1.6265765691020067 31.468781786000463" fill="#9aff23" stroke="none" /><path d="M 101.08401301168833 79.027996857942 l 1.3533760572112898 -26.18327143510506 a47.21822514581453,47.21822514581453 0 0,0 0.8113394104307443,0.04894220890900461 l -1.803877516481646 26.15609595681575" fill="#dbff1b" stroke="none" /><path d="M 101.44485096284872 79.0497635885617 l 0.4043379853716134 -5.862872089560239 a26.87679830732337,26.87679830732337 0 0,0 0.461269608975665,0.03580339932670913 l -0.5051977837096195 5.855043428045065" fill="#ff0000" stroke="none" /><path d="M 101.80526077348638 79.07773832637324 l 2.6495753214507762 -30.70753489664481 a51.821631183516224,51.821631183516224 0 0,0 0.8880620445782923,0.08433219181104418 l -3.177762493119313 30.65737716031859" fill="#a2ff22" stroke="none" /><path d="M 102.16513564639614 79.11191278185805 l 1.5538582763488713 -14.990805428302757 a36.0711221523883,36.0711221523883 0 0,0 0.6170451485193249,0.06933221204412585 l -1.8116701283779215 14.96183726278803" fill="#ff8b0c" stroke="none" /><path d="M 102.52436894288641 79.15227682838746 l 3.4286429914551504 -28.315750018068165 a49.5225751265306,49.5225751265306 0 0,0 0.8453863709154719,0.10975541369613091 l -3.915544090878468 28.2525362812079" fill="#beff1f" stroke="none" /><path d="M 102.88285421437855 79.19881850522331 l 2.5264953024380103 -18.229880328181117 a39.404122236418836,39.404122236418836 0 0,0 0.6710541147963973,0.0988959327930804 l -2.8399183976630633 18.18368991122707" fill="#ffbb11" stroke="none" /><path d="M 103.2404852339499 79.25152402106235 l 9.721455701849713 -62.245427936812945 a84.0,84.0 0 0,0 1.4266831754444993,0.23541494824150133 l -10.791468083433088 62.06886672563182" fill="#4dd2ff" stroke="none" /><path d="M 103.59715602781102 79.31037775812273 l 2.8660168609037076 -16.484357568173767 a37.73164956250256,37.73164956250256 0 0,0 0.6389313653934051,0.11676062307913553 l -3.1493433474000136 16.432581463743894" fill="#ffa30f" stroke="none" /><line stroke="#e1ed5e" stroke-width="0.3" x1="143.23703022742887" x2="145.7803849466894" y1="26.81831364943548" y2="22.513508569990506" /><path d="M 143.74570117128098 25.957352633546492 a86.0,86.0 0 0,1 28.547481713284135,27.462654790039103" fill="none" id="id290" stroke="none" /><text fill="#e1ed5e" style="font-size:6.75px; font-family:Arial;" text-anchor="middle"><textPath startOffset="19.985693538727396" xlink:href="#id290">February</textPath></text><line stroke="#e1ed5e" stroke-width="0.3" x1="172.23445277983987" x2="176.4835382374775" y1="55.19839476539836" y2="52.563006222186495" /><path d="M 173.08426987136738 54.67131705675599 a86.0,86.0 0 0,1 12.851231095245387,41.99856678651699" fill="none" id="id291" stroke="none" /><text fill="#e1ed5e" style="font-size:6.75px; font-family:Arial;" text-anchor="middle"><textPath startOffset="22.20632615414155" xlink:href="#id291">March</textPath></text><line stroke="#e1ed5e" stroke-width="0.3" x1="184.98032266829074" x2="189.97916517819016" y1="98.17113171792111" y2="98.06355123074" /><path d="M 185.9800911702706 98.14961562048488 a86.0,86.0 0 0,1 -9.607161424134198,41.387399972396054" fill="none" id="id292" stroke="none" /><text fill="#e1ed5e" style="font-size:6.75px; font-family:Arial;" text-anchor="middle"><textPath startOffset="21.466115282336823" xlink:href="#id292">April</textPath></text><line stroke="#e1ed5e" stroke-width="0.3" x1="174.80103733775053" x2="179.2010983576182" y1="140.37084112569926" y2="142.7455964860345" /><path d="M 175.68104954172406 140.8457921977663 a86.0,86.0 0 0,1 -30.038265399797805,32.042727171017184" fill="none" id="id293" stroke="none" /><text fill="#e1ed5e" style="font-size:6.75px; font-family:Arial;" text-anchor="middle"><textPath startOffset="22.206326154141568" xlink:href="#id293">May</textPath></text><line stroke="#e1ed5e" stroke-width="0.3" x1="143.8653032363475" x2="146.44561519142675" y1="172.8068346515853" y2="177.08958963109032" /><path d="M 144.38136562736335 173.6633856474863 a86.0,86.0 0 0,1 -40.68145358897372,12.25698825130547" fill="none" id="id294" stroke="none" /><text fill="#e1ed5e" style="font-size:6.75px; font-family:Arial;" text-anchor="middle"><textPath startOffset="21.466115282336833" xlink:href="#id294">June</textPath></text><line stroke="#e1ed5e" stroke-width="0.3" x1="102.19456741930631" x2="102.32365962044197" y1="184.97166512339345" y2="189.96999836594603" /><path d="M 102.22038585953345 185.97133177190398 a86.0,86.0 0 0,1 -42.740103519485714,-10.115201625700543" fill="none" id="id295" stroke="none" /><text fill="#e1ed5e" style="font-size:6.75px; font-family:Arial;" text-anchor="middle"><textPath startOffset="22.20632615414155" xlink:href="#id295">July</textPath></text><line stroke="#e1ed5e" stroke-width="0.3" x1="58.666819895761336" x2="56.23545636021788" y1="174.27360380694188" y2="178.64263932499728" /><path d="M 58.180547188652646 175.14741091055294 a86.0,86.0 0 0,1 -31.652253787137756,-30.449443065178592" fill="none" id="id296" stroke="none" /><text fill="#e1ed5e" style="font-size:6.75px; font-family:Arial;" text-anchor="middle"><textPath startOffset="22.20632615414155" xlink:href="#id296">August</textPath></text><line stroke="#e1ed5e" stroke-width="0.3" x1="26.63291911575756" x2="22.317208475507996" y1="142.92168965132927" y2="145.44649492493687" /><path d="M 25.769776987707644 143.4266507060508 a86.0,86.0 0 0,1 -11.730757126820373,-40.83630448921669" fill="none" id="id297" stroke="none" /><text fill="#e1ed5e" style="font-size:6.75px; font-family:Arial;" text-anchor="middle"><textPath startOffset="21.46611528233685" xlink:href="#id297">September</textPath></text><line stroke="#e1ed5e" stroke-width="0.3" x1="15.007084014347285" x2="10.007500721073583" y1="101.09737516637583" y2="101.16192664675087" /><path d="M 14.007167355692545 101.11028546245083 a86.0,86.0 0 0,1 10.666146001902534,-42.60595125391555" fill="none" id="id298" stroke="none" /><text fill="#e1ed5e" style="font-size:6.75px; font-family:Arial;" text-anchor="middle"><textPath startOffset="22.20632615414155" xlink:href="#id298">October</textPath></text><line stroke="#e1ed5e" stroke-width="0.3" x1="26.266209847984243" x2="21.928928074336255" y1="57.711370442889674" y2="55.22380399835377" /><path d="M 25.398753493254645 57.213857153982495 a86.0,86.0 0 0,1 29.58750427330803,-30.492523968695096" fill="none" id="id299" stroke="none" /><text fill="#e1ed5e" style="font-size:6.75px; font-family:Arial;" text-anchor="middle"><textPath startOffset="21.46611528233685" xlink:href="#id299">November</textPath></text><line stroke="#e1ed5e" stroke-width="0.3" x1="56.762969772571076" x2="54.21961505331055" y1="26.818313649435495" y2="22.513508569990535" /><path d="M 56.25429882871897 25.957352633546506 a86.0,86.0 0 0,1 42.265352541879196,-11.944610805530505" fill="none" id="id300" stroke="none" /><text fill="#e1ed5e" style="font-size:6.75px; font-family:Arial;" text-anchor="middle"><textPath startOffset="22.20632615414155" xlink:href="#id300">December</textPath></text></svg>